<svg xmlns="http://www.w3.org/2000/svg" xmlns:xlink="http://www.w3.org/1999/xlink" width="600" height="400" viewBox="0 0 2400 1600">
<defs>
  <clipPath id="clip570">
    <rect x="0" y="0" width="2400" height="1600"></rect>
  </clipPath>
</defs>
<path clip-path="url(#clip570)" d="
M0 1600 L2400 1600 L2400 0 L0 0  Z
  " fill="#ffffff" fill-rule="evenodd" fill-opacity="1"></path>
<defs>
  <clipPath id="clip571">
    <rect x="480" y="0" width="1681" height="1600"></rect>
  </clipPath>
</defs>
<path clip-path="url(#clip570)" d="
M156.598 1486.45 L2352.76 1486.45 L2352.76 123.472 L156.598 123.472  Z
  " fill="#ffffff" fill-rule="evenodd" fill-opacity="1"></path>
<defs>
  <clipPath id="clip572">
    <rect x="156" y="123" width="2197" height="1364"></rect>
  </clipPath>
</defs>
<polyline clip-path="url(#clip572)" style="stroke:#000000; stroke-linecap:round; stroke-linejoin:round; stroke-width:2; stroke-opacity:0.1; fill:none" points="
  218.754,1486.45 218.754,123.472 
  "></polyline>
<polyline clip-path="url(#clip572)" style="stroke:#000000; stroke-linecap:round; stroke-linejoin:round; stroke-width:2; stroke-opacity:0.1; fill:none" points="
  909.369,1486.45 909.369,123.472 
  "></polyline>
<polyline clip-path="url(#clip572)" style="stroke:#000000; stroke-linecap:round; stroke-linejoin:round; stroke-width:2; stroke-opacity:0.1; fill:none" points="
  1599.98,1486.45 1599.98,123.472 
  "></polyline>
<polyline clip-path="url(#clip572)" style="stroke:#000000; stroke-linecap:round; stroke-linejoin:round; stroke-width:2; stroke-opacity:0.1; fill:none" points="
  2290.6,1486.45 2290.6,123.472 
  "></polyline>
<polyline clip-path="url(#clip570)" style="stroke:#000000; stroke-linecap:round; stroke-linejoin:round; stroke-width:4; stroke-opacity:1; fill:none" points="
  156.598,1486.45 2352.76,1486.45 
  "></polyline>
<polyline clip-path="url(#clip570)" style="stroke:#000000; stroke-linecap:round; stroke-linejoin:round; stroke-width:4; stroke-opacity:1; fill:none" points="
  218.754,1486.45 218.754,1467.55 
  "></polyline>
<polyline clip-path="url(#clip570)" style="stroke:#000000; stroke-linecap:round; stroke-linejoin:round; stroke-width:4; stroke-opacity:1; fill:none" points="
  909.369,1486.45 909.369,1467.55 
  "></polyline>
<polyline clip-path="url(#clip570)" style="stroke:#000000; stroke-linecap:round; stroke-linejoin:round; stroke-width:4; stroke-opacity:1; fill:none" points="
  1599.98,1486.45 1599.98,1467.55 
  "></polyline>
<polyline clip-path="url(#clip570)" style="stroke:#000000; stroke-linecap:round; stroke-linejoin:round; stroke-width:4; stroke-opacity:1; fill:none" points="
  2290.6,1486.45 2290.6,1467.55 
  "></polyline>
<path clip-path="url(#clip570)" d="M218.754 1517.37 Q215.143 1517.37 213.314 1520.93 Q211.508 1524.47 211.508 1531.6 Q211.508 1538.71 213.314 1542.27 Q215.143 1545.82 218.754 1545.82 Q222.388 1545.82 224.193 1542.27 Q226.022 1538.71 226.022 1531.6 Q226.022 1524.47 224.193 1520.93 Q222.388 1517.37 218.754 1517.37 M218.754 1513.66 Q224.564 1513.66 227.619 1518.27 Q230.698 1522.85 230.698 1531.6 Q230.698 1540.33 227.619 1544.94 Q224.564 1549.52 218.754 1549.52 Q212.943 1549.52 209.865 1544.94 Q206.809 1540.33 206.809 1531.6 Q206.809 1522.85 209.865 1518.27 Q212.943 1513.66 218.754 1513.66 Z" fill="#000000" fill-rule="evenodd" fill-opacity="1"></path><path clip-path="url(#clip570)" d="M899.751 1544.91 L907.39 1544.91 L907.39 1518.55 L899.08 1520.21 L899.08 1515.95 L907.344 1514.29 L912.02 1514.29 L912.02 1544.91 L919.659 1544.91 L919.659 1548.85 L899.751 1548.85 L899.751 1544.91 Z" fill="#000000" fill-rule="evenodd" fill-opacity="1"></path><path clip-path="url(#clip570)" d="M1594.64 1544.91 L1610.96 1544.91 L1610.96 1548.85 L1589.01 1548.85 L1589.01 1544.91 Q1591.67 1542.16 1596.26 1537.53 Q1600.86 1532.88 1602.05 1531.53 Q1604.29 1529.01 1605.17 1527.27 Q1606.07 1525.51 1606.07 1523.82 Q1606.07 1521.07 1604.13 1519.33 Q1602.21 1517.6 1599.11 1517.6 Q1596.91 1517.6 1594.45 1518.36 Q1592.02 1519.13 1589.24 1520.68 L1589.24 1515.95 Q1592.07 1514.82 1594.52 1514.24 Q1596.98 1513.66 1599.01 1513.66 Q1604.38 1513.66 1607.58 1516.35 Q1610.77 1519.03 1610.77 1523.52 Q1610.77 1525.65 1609.96 1527.57 Q1609.17 1529.47 1607.07 1532.07 Q1606.49 1532.74 1603.39 1535.95 Q1600.29 1539.15 1594.64 1544.91 Z" fill="#000000" fill-rule="evenodd" fill-opacity="1"></path><path clip-path="url(#clip570)" d="M2294.85 1530.21 Q2298.2 1530.93 2300.08 1533.2 Q2301.98 1535.47 2301.98 1538.8 Q2301.98 1543.92 2298.46 1546.72 Q2294.94 1549.52 2288.46 1549.52 Q2286.28 1549.52 2283.97 1549.08 Q2281.68 1548.66 2279.22 1547.81 L2279.22 1543.29 Q2281.17 1544.43 2283.48 1545.01 Q2285.8 1545.58 2288.32 1545.58 Q2292.72 1545.58 2295.01 1543.85 Q2297.33 1542.11 2297.33 1538.8 Q2297.33 1535.75 2295.17 1534.03 Q2293.04 1532.3 2289.22 1532.3 L2285.2 1532.3 L2285.2 1528.45 L2289.41 1528.45 Q2292.86 1528.45 2294.69 1527.09 Q2296.51 1525.7 2296.51 1523.11 Q2296.51 1520.45 2294.62 1519.03 Q2292.74 1517.6 2289.22 1517.6 Q2287.3 1517.6 2285.1 1518.01 Q2282.9 1518.43 2280.26 1519.31 L2280.26 1515.14 Q2282.93 1514.4 2285.24 1514.03 Q2287.58 1513.66 2289.64 1513.66 Q2294.96 1513.66 2298.07 1516.09 Q2301.17 1518.5 2301.17 1522.62 Q2301.17 1525.49 2299.52 1527.48 Q2297.88 1529.45 2294.85 1530.21 Z" fill="#000000" fill-rule="evenodd" fill-opacity="1"></path><polyline clip-path="url(#clip572)" style="stroke:#000000; stroke-linecap:round; stroke-linejoin:round; stroke-width:2; stroke-opacity:0.1; fill:none" points="
  156.598,1244.61 2352.76,1244.61 
  "></polyline>
<polyline clip-path="url(#clip572)" style="stroke:#000000; stroke-linecap:round; stroke-linejoin:round; stroke-width:2; stroke-opacity:0.1; fill:none" points="
  156.598,973.966 2352.76,973.966 
  "></polyline>
<polyline clip-path="url(#clip572)" style="stroke:#000000; stroke-linecap:round; stroke-linejoin:round; stroke-width:2; stroke-opacity:0.1; fill:none" points="
  156.598,703.326 2352.76,703.326 
  "></polyline>
<polyline clip-path="url(#clip572)" style="stroke:#000000; stroke-linecap:round; stroke-linejoin:round; stroke-width:2; stroke-opacity:0.1; fill:none" points="
  156.598,432.686 2352.76,432.686 
  "></polyline>
<polyline clip-path="url(#clip572)" style="stroke:#000000; stroke-linecap:round; stroke-linejoin:round; stroke-width:2; stroke-opacity:0.1; fill:none" points="
  156.598,162.047 2352.76,162.047 
  "></polyline>
<polyline clip-path="url(#clip570)" style="stroke:#000000; stroke-linecap:round; stroke-linejoin:round; stroke-width:4; stroke-opacity:1; fill:none" points="
  156.598,1486.45 156.598,123.472 
  "></polyline>
<polyline clip-path="url(#clip570)" style="stroke:#000000; stroke-linecap:round; stroke-linejoin:round; stroke-width:4; stroke-opacity:1; fill:none" points="
  156.598,1244.61 175.496,1244.61 
  "></polyline>
<polyline clip-path="url(#clip570)" style="stroke:#000000; stroke-linecap:round; stroke-linejoin:round; stroke-width:4; stroke-opacity:1; fill:none" points="
  156.598,973.966 175.496,973.966 
  "></polyline>
<polyline clip-path="url(#clip570)" style="stroke:#000000; stroke-linecap:round; stroke-linejoin:round; stroke-width:4; stroke-opacity:1; fill:none" points="
  156.598,703.326 175.496,703.326 
  "></polyline>
<polyline clip-path="url(#clip570)" style="stroke:#000000; stroke-linecap:round; stroke-linejoin:round; stroke-width:4; stroke-opacity:1; fill:none" points="
  156.598,432.686 175.496,432.686 
  "></polyline>
<polyline clip-path="url(#clip570)" style="stroke:#000000; stroke-linecap:round; stroke-linejoin:round; stroke-width:4; stroke-opacity:1; fill:none" points="
  156.598,162.047 175.496,162.047 
  "></polyline>
<path clip-path="url(#clip570)" d="M65.0198 1230.4 Q61.4087 1230.4 59.58 1233.97 Q57.7745 1237.51 57.7745 1244.64 Q57.7745 1251.75 59.58 1255.31 Q61.4087 1258.85 65.0198 1258.85 Q68.6541 1258.85 70.4596 1255.31 Q72.2883 1251.75 72.2883 1244.64 Q72.2883 1237.51 70.4596 1233.97 Q68.6541 1230.4 65.0198 1230.4 M65.0198 1226.7 Q70.83 1226.7 73.8855 1231.31 Q76.9642 1235.89 76.9642 1244.64 Q76.9642 1253.37 73.8855 1257.97 Q70.83 1262.56 65.0198 1262.56 Q59.2097 1262.56 56.131 1257.97 Q53.0754 1253.37 53.0754 1244.64 Q53.0754 1235.89 56.131 1231.31 Q59.2097 1226.7 65.0198 1226.7 Z" fill="#000000" fill-rule="evenodd" fill-opacity="1"></path><path clip-path="url(#clip570)" d="M85.1818 1256.01 L90.066 1256.01 L90.066 1261.89 L85.1818 1261.89 L85.1818 1256.01 Z" fill="#000000" fill-rule="evenodd" fill-opacity="1"></path><path clip-path="url(#clip570)" d="M104.279 1257.95 L120.598 1257.95 L120.598 1261.89 L98.6539 1261.89 L98.6539 1257.95 Q101.316 1255.2 105.899 1250.57 Q110.506 1245.91 111.686 1244.57 Q113.932 1242.05 114.811 1240.31 Q115.714 1238.55 115.714 1236.86 Q115.714 1234.11 113.77 1232.37 Q111.848 1230.64 108.746 1230.64 Q106.547 1230.64 104.094 1231.4 Q101.663 1232.16 98.8854 1233.71 L98.8854 1228.99 Q101.709 1227.86 104.163 1227.28 Q106.617 1226.7 108.654 1226.7 Q114.024 1226.7 117.219 1229.39 Q120.413 1232.07 120.413 1236.56 Q120.413 1238.69 119.603 1240.61 Q118.816 1242.51 116.709 1245.1 Q116.131 1245.77 113.029 1248.99 Q109.927 1252.19 104.279 1257.95 Z" fill="#000000" fill-rule="evenodd" fill-opacity="1"></path><path clip-path="url(#clip570)" d="M62.9365 959.764 Q59.3254 959.764 57.4967 963.329 Q55.6912 966.871 55.6912 974 Q55.6912 981.107 57.4967 984.672 Q59.3254 988.213 62.9365 988.213 Q66.5707 988.213 68.3763 984.672 Q70.205 981.107 70.205 974 Q70.205 966.871 68.3763 963.329 Q66.5707 959.764 62.9365 959.764 M62.9365 956.061 Q68.7467 956.061 71.8022 960.667 Q74.8809 965.25 74.8809 974 Q74.8809 982.727 71.8022 987.334 Q68.7467 991.917 62.9365 991.917 Q57.1264 991.917 54.0477 987.334 Q50.9921 982.727 50.9921 974 Q50.9921 965.25 54.0477 960.667 Q57.1264 956.061 62.9365 956.061 Z" fill="#000000" fill-rule="evenodd" fill-opacity="1"></path><path clip-path="url(#clip570)" d="M83.0984 985.366 L87.9827 985.366 L87.9827 991.246 L83.0984 991.246 L83.0984 985.366 Z" fill="#000000" fill-rule="evenodd" fill-opacity="1"></path><path clip-path="url(#clip570)" d="M111.015 960.76 L99.2095 979.209 L111.015 979.209 L111.015 960.76 M109.788 956.686 L115.668 956.686 L115.668 979.209 L120.598 979.209 L120.598 983.098 L115.668 983.098 L115.668 991.246 L111.015 991.246 L111.015 983.098 L95.4132 983.098 L95.4132 978.584 L109.788 956.686 Z" fill="#000000" fill-rule="evenodd" fill-opacity="1"></path><path clip-path="url(#clip570)" d="M63.2606 689.125 Q59.6495 689.125 57.8208 692.69 Q56.0152 696.231 56.0152 703.361 Q56.0152 710.467 57.8208 714.032 Q59.6495 717.574 63.2606 717.574 Q66.8948 717.574 68.7004 714.032 Q70.5291 710.467 70.5291 703.361 Q70.5291 696.231 68.7004 692.69 Q66.8948 689.125 63.2606 689.125 M63.2606 685.421 Q69.0707 685.421 72.1263 690.028 Q75.205 694.611 75.205 703.361 Q75.205 712.088 72.1263 716.694 Q69.0707 721.277 63.2606 721.277 Q57.4504 721.277 54.3717 716.694 Q51.3162 712.088 51.3162 703.361 Q51.3162 694.611 54.3717 690.028 Q57.4504 685.421 63.2606 685.421 Z" fill="#000000" fill-rule="evenodd" fill-opacity="1"></path><path clip-path="url(#clip570)" d="M83.4225 714.726 L88.3067 714.726 L88.3067 720.606 L83.4225 720.606 L83.4225 714.726 Z" fill="#000000" fill-rule="evenodd" fill-opacity="1"></path><path clip-path="url(#clip570)" d="M109.071 701.463 Q105.922 701.463 104.071 703.615 Q102.242 705.768 102.242 709.518 Q102.242 713.245 104.071 715.421 Q105.922 717.574 109.071 717.574 Q112.219 717.574 114.047 715.421 Q115.899 713.245 115.899 709.518 Q115.899 705.768 114.047 703.615 Q112.219 701.463 109.071 701.463 M118.353 686.81 L118.353 691.069 Q116.594 690.236 114.788 689.796 Q113.006 689.356 111.246 689.356 Q106.617 689.356 104.163 692.481 Q101.733 695.606 101.385 701.926 Q102.751 699.912 104.811 698.847 Q106.871 697.759 109.348 697.759 Q114.557 697.759 117.566 700.93 Q120.598 704.078 120.598 709.518 Q120.598 714.842 117.45 718.06 Q114.302 721.277 109.071 721.277 Q103.075 721.277 99.9039 716.694 Q96.7326 712.088 96.7326 703.361 Q96.7326 695.166 100.621 690.305 Q104.51 685.421 111.061 685.421 Q112.82 685.421 114.603 685.768 Q116.408 686.116 118.353 686.81 Z" fill="#000000" fill-rule="evenodd" fill-opacity="1"></path><path clip-path="url(#clip570)" d="M63.5152 418.485 Q59.9041 418.485 58.0754 422.05 Q56.2699 425.592 56.2699 432.721 Q56.2699 439.828 58.0754 443.392 Q59.9041 446.934 63.5152 446.934 Q67.1494 446.934 68.955 443.392 Q70.7837 439.828 70.7837 432.721 Q70.7837 425.592 68.955 422.05 Q67.1494 418.485 63.5152 418.485 M63.5152 414.782 Q69.3254 414.782 72.3809 419.388 Q75.4596 423.971 75.4596 432.721 Q75.4596 441.448 72.3809 446.054 Q69.3254 450.638 63.5152 450.638 Q57.7051 450.638 54.6264 446.054 Q51.5708 441.448 51.5708 432.721 Q51.5708 423.971 54.6264 419.388 Q57.7051 414.782 63.5152 414.782 Z" fill="#000000" fill-rule="evenodd" fill-opacity="1"></path><path clip-path="url(#clip570)" d="M83.6771 444.087 L88.5614 444.087 L88.5614 449.966 L83.6771 449.966 L83.6771 444.087 Z" fill="#000000" fill-rule="evenodd" fill-opacity="1"></path><path clip-path="url(#clip570)" d="M108.746 433.555 Q105.413 433.555 103.492 435.337 Q101.594 437.119 101.594 440.244 Q101.594 443.369 103.492 445.152 Q105.413 446.934 108.746 446.934 Q112.08 446.934 114.001 445.152 Q115.922 443.346 115.922 440.244 Q115.922 437.119 114.001 435.337 Q112.103 433.555 108.746 433.555 M104.071 431.564 Q101.061 430.823 99.3715 428.763 Q97.7048 426.703 97.7048 423.74 Q97.7048 419.596 100.645 417.189 Q103.608 414.782 108.746 414.782 Q113.908 414.782 116.848 417.189 Q119.788 419.596 119.788 423.74 Q119.788 426.703 118.098 428.763 Q116.432 430.823 113.445 431.564 Q116.825 432.351 118.7 434.643 Q120.598 436.934 120.598 440.244 Q120.598 445.267 117.52 447.953 Q114.464 450.638 108.746 450.638 Q103.029 450.638 99.9502 447.953 Q96.8947 445.267 96.8947 440.244 Q96.8947 436.934 98.7928 434.643 Q100.691 432.351 104.071 431.564 M102.358 424.18 Q102.358 426.865 104.024 428.369 Q105.714 429.874 108.746 429.874 Q111.756 429.874 113.445 428.369 Q115.158 426.865 115.158 424.18 Q115.158 421.494 113.445 419.99 Q111.756 418.485 108.746 418.485 Q105.714 418.485 104.024 419.99 Q102.358 421.494 102.358 424.18 Z" fill="#000000" fill-rule="evenodd" fill-opacity="1"></path><path clip-path="url(#clip570)" d="M54.2328 175.392 L61.8717 175.392 L61.8717 149.026 L53.5616 150.693 L53.5616 146.434 L61.8254 144.767 L66.5013 144.767 L66.5013 175.392 L74.1402 175.392 L74.1402 179.327 L54.2328 179.327 L54.2328 175.392 Z" fill="#000000" fill-rule="evenodd" fill-opacity="1"></path><path clip-path="url(#clip570)" d="M83.5845 173.447 L88.4688 173.447 L88.4688 179.327 L83.5845 179.327 L83.5845 173.447 Z" fill="#000000" fill-rule="evenodd" fill-opacity="1"></path><path clip-path="url(#clip570)" d="M108.654 147.846 Q105.043 147.846 103.214 151.41 Q101.409 154.952 101.409 162.082 Q101.409 169.188 103.214 172.753 Q105.043 176.295 108.654 176.295 Q112.288 176.295 114.094 172.753 Q115.922 169.188 115.922 162.082 Q115.922 154.952 114.094 151.41 Q112.288 147.846 108.654 147.846 M108.654 144.142 Q114.464 144.142 117.52 148.748 Q120.598 153.332 120.598 162.082 Q120.598 170.808 117.52 175.415 Q114.464 179.998 108.654 179.998 Q102.844 179.998 99.765 175.415 Q96.7095 170.808 96.7095 162.082 Q96.7095 153.332 99.765 148.748 Q102.844 144.142 108.654 144.142 Z" fill="#000000" fill-rule="evenodd" fill-opacity="1"></path><path clip-path="url(#clip570)" d="M546.133 43.6931 L546.133 65.8515 L559.258 65.8515 Q565.861 65.8515 569.021 63.1374 Q572.221 60.3828 572.221 54.752 Q572.221 49.0808 569.021 46.4072 Q565.861 43.6931 559.258 43.6931 L546.133 43.6931 M546.133 18.8205 L546.133 37.0496 L558.246 37.0496 Q564.241 37.0496 567.158 34.8216 Q570.115 32.5531 570.115 27.935 Q570.115 23.3575 567.158 21.089 Q564.241 18.8205 558.246 18.8205 L546.133 18.8205 M537.951 12.096 L558.853 12.096 Q568.211 12.096 573.274 15.9849 Q578.338 19.8737 578.338 27.0438 Q578.338 32.5936 575.746 35.8748 Q573.153 39.156 568.13 39.9662 Q574.166 41.2625 577.487 45.3944 Q580.85 49.4858 580.85 55.6432 Q580.85 63.745 575.34 68.1605 Q569.831 72.576 559.663 72.576 L537.951 72.576 L537.951 12.096 Z" fill="#000000" fill-rule="evenodd" fill-opacity="1"></path><path clip-path="url(#clip570)" d="M615.161 49.7694 Q606.127 49.7694 602.644 51.8354 Q599.16 53.9013 599.16 58.8839 Q599.16 62.8538 601.752 65.2034 Q604.385 67.5124 608.882 67.5124 Q615.08 67.5124 618.807 63.1374 Q622.574 58.7219 622.574 51.4303 L622.574 49.7694 L615.161 49.7694 M630.028 46.6907 L630.028 72.576 L622.574 72.576 L622.574 65.6895 Q620.022 69.8214 616.214 71.8063 Q612.406 73.7508 606.897 73.7508 Q599.929 73.7508 595.797 69.8619 Q591.706 65.9325 591.706 59.3701 Q591.706 51.7138 596.81 47.825 Q601.955 43.9361 612.123 43.9361 L622.574 43.9361 L622.574 43.2069 Q622.574 38.0623 619.171 35.2672 Q615.809 32.4315 609.692 32.4315 Q605.803 32.4315 602.117 33.3632 Q598.431 34.295 595.028 36.1584 L595.028 29.2718 Q599.119 27.692 602.968 26.9223 Q606.816 26.1121 610.462 26.1121 Q620.305 26.1121 625.167 31.2163 Q630.028 36.3204 630.028 46.6907 Z" fill="#000000" fill-rule="evenodd" fill-opacity="1"></path><path clip-path="url(#clip570)" d="M678.031 28.9478 L678.031 35.9153 Q674.871 34.1734 671.671 33.3227 Q668.511 32.4315 665.271 32.4315 Q658.019 32.4315 654.009 37.0496 Q649.999 41.6271 649.999 49.9314 Q649.999 58.2358 654.009 62.8538 Q658.019 67.4314 665.271 67.4314 Q668.511 67.4314 671.671 66.5807 Q674.871 65.6895 678.031 63.9476 L678.031 70.8341 Q674.912 72.2924 671.549 73.0216 Q668.228 73.7508 664.46 73.7508 Q654.212 73.7508 648.176 67.3098 Q642.14 60.8689 642.14 49.9314 Q642.14 38.832 648.216 32.472 Q654.333 26.1121 664.946 26.1121 Q668.39 26.1121 671.671 26.8413 Q674.952 27.5299 678.031 28.9478 Z" fill="#000000" fill-rule="evenodd" fill-opacity="1"></path><path clip-path="url(#clip570)" d="M690.71 9.54393 L698.204 9.54393 L698.204 46.7717 L720.444 27.2059 L729.963 27.2059 L705.901 48.4326 L730.976 72.576 L721.254 72.576 L698.204 50.4176 L698.204 72.576 L690.71 72.576 L690.71 9.54393 Z" fill="#000000" fill-rule="evenodd" fill-opacity="1"></path><path clip-path="url(#clip570)" d="M734.703 27.2059 L742.157 27.2059 L751.474 62.6108 L760.75 27.2059 L769.541 27.2059 L778.858 62.6108 L788.134 27.2059 L795.588 27.2059 L783.719 72.576 L774.928 72.576 L765.166 35.3887 L755.363 72.576 L746.572 72.576 L734.703 27.2059 Z" fill="#000000" fill-rule="evenodd" fill-opacity="1"></path><path clip-path="url(#clip570)" d="M827.509 49.7694 Q818.476 49.7694 814.992 51.8354 Q811.508 53.9013 811.508 58.8839 Q811.508 62.8538 814.101 65.2034 Q816.734 67.5124 821.23 67.5124 Q827.428 67.5124 831.155 63.1374 Q834.922 58.7219 834.922 51.4303 L834.922 49.7694 L827.509 49.7694 M842.376 46.6907 L842.376 72.576 L834.922 72.576 L834.922 65.6895 Q832.37 69.8214 828.562 71.8063 Q824.755 73.7508 819.245 73.7508 Q812.278 73.7508 808.146 69.8619 Q804.054 65.9325 804.054 59.3701 Q804.054 51.7138 809.159 47.825 Q814.303 43.9361 824.471 43.9361 L834.922 43.9361 L834.922 43.2069 Q834.922 38.0623 831.52 35.2672 Q828.157 32.4315 822.04 32.4315 Q818.152 32.4315 814.465 33.3632 Q810.779 34.295 807.376 36.1584 L807.376 29.2718 Q811.468 27.692 815.316 26.9223 Q819.164 26.1121 822.81 26.1121 Q832.654 26.1121 837.515 31.2163 Q842.376 36.3204 842.376 46.6907 Z" fill="#000000" fill-rule="evenodd" fill-opacity="1"></path><path clip-path="url(#clip570)" d="M884.019 34.1734 Q882.764 33.4443 881.265 33.1202 Q879.806 32.7556 878.024 32.7556 Q871.705 32.7556 868.302 36.8875 Q864.94 40.9789 864.94 48.6757 L864.94 72.576 L857.445 72.576 L857.445 27.2059 L864.94 27.2059 L864.94 34.2544 Q867.289 30.1225 871.056 28.1376 Q874.824 26.1121 880.211 26.1121 Q880.981 26.1121 881.913 26.2337 Q882.845 26.3147 883.979 26.5172 L884.019 34.1734 Z" fill="#000000" fill-rule="evenodd" fill-opacity="1"></path><path clip-path="url(#clip570)" d="M920.234 34.0924 L920.234 9.54393 L927.688 9.54393 L927.688 72.576 L920.234 72.576 L920.234 65.7705 Q917.885 69.8214 914.28 71.8063 Q910.715 73.7508 905.692 73.7508 Q897.468 73.7508 892.283 67.1883 Q887.139 60.6258 887.139 49.9314 Q887.139 39.2371 892.283 32.6746 Q897.468 26.1121 905.692 26.1121 Q910.715 26.1121 914.28 28.0971 Q917.885 30.0415 920.234 34.0924 M894.835 49.9314 Q894.835 58.1548 898.197 62.8538 Q901.6 67.5124 907.515 67.5124 Q913.429 67.5124 916.832 62.8538 Q920.234 58.1548 920.234 49.9314 Q920.234 41.7081 916.832 37.0496 Q913.429 32.3505 907.515 32.3505 Q901.6 32.3505 898.197 37.0496 Q894.835 41.7081 894.835 49.9314 Z" fill="#000000" fill-rule="evenodd" fill-opacity="1"></path><path clip-path="url(#clip570)" d="M969.736 12.096 L1007.98 12.096 L1007.98 18.9825 L977.919 18.9825 L977.919 36.8875 L1006.72 36.8875 L1006.72 43.7741 L977.919 43.7741 L977.919 65.6895 L1008.71 65.6895 L1008.71 72.576 L969.736 72.576 L969.736 12.096 Z" fill="#000000" fill-rule="evenodd" fill-opacity="1"></path><path clip-path="url(#clip570)" d="M1021.06 54.671 L1021.06 27.2059 L1028.52 27.2059 L1028.52 54.3874 Q1028.52 60.8284 1031.03 64.0691 Q1033.54 67.2693 1038.56 67.2693 Q1044.6 67.2693 1048.08 63.421 Q1051.61 59.5726 1051.61 52.9291 L1051.61 27.2059 L1059.06 27.2059 L1059.06 72.576 L1051.61 72.576 L1051.61 65.6084 Q1048.89 69.7404 1045.29 71.7658 Q1041.72 73.7508 1036.98 73.7508 Q1029.16 73.7508 1025.11 68.8897 Q1021.06 64.0286 1021.06 54.671 M1039.82 26.1121 L1039.82 26.1121 Z" fill="#000000" fill-rule="evenodd" fill-opacity="1"></path><path clip-path="url(#clip570)" d="M1074.41 9.54393 L1081.87 9.54393 L1081.87 72.576 L1074.41 72.576 L1074.41 9.54393 Z" fill="#000000" fill-rule="evenodd" fill-opacity="1"></path><path clip-path="url(#clip570)" d="M1136.27 48.0275 L1136.27 51.6733 L1102 51.6733 Q1102.48 59.3701 1106.62 63.421 Q1110.79 67.4314 1118.2 67.4314 Q1122.5 67.4314 1126.51 66.3781 Q1130.56 65.3249 1134.53 63.2184 L1134.53 70.267 Q1130.52 71.9684 1126.3 72.8596 Q1122.09 73.7508 1117.76 73.7508 Q1106.9 73.7508 1100.54 67.4314 Q1094.22 61.1119 1094.22 50.3365 Q1094.22 39.1965 1100.22 32.6746 Q1106.25 26.1121 1116.46 26.1121 Q1125.62 26.1121 1130.92 32.0264 Q1136.27 37.9003 1136.27 48.0275 M1128.82 45.84 Q1128.73 39.7232 1125.37 36.0774 Q1122.05 32.4315 1116.54 32.4315 Q1110.3 32.4315 1106.54 35.9558 Q1102.81 39.4801 1102.24 45.8805 L1128.82 45.84 Z" fill="#000000" fill-rule="evenodd" fill-opacity="1"></path><path clip-path="url(#clip570)" d="M1174.79 34.1734 Q1173.54 33.4443 1172.04 33.1202 Q1170.58 32.7556 1168.8 32.7556 Q1162.48 32.7556 1159.08 36.8875 Q1155.71 40.9789 1155.71 48.6757 L1155.71 72.576 L1148.22 72.576 L1148.22 27.2059 L1155.71 27.2059 L1155.71 34.2544 Q1158.06 30.1225 1161.83 28.1376 Q1165.6 26.1121 1170.99 26.1121 Q1171.76 26.1121 1172.69 26.2337 Q1173.62 26.3147 1174.75 26.5172 L1174.79 34.1734 Z" fill="#000000" fill-rule="evenodd" fill-opacity="1"></path><path clip-path="url(#clip570)" d="M1229.6 49.7694 Q1220.57 49.7694 1217.08 51.8354 Q1213.6 53.9013 1213.6 58.8839 Q1213.6 62.8538 1216.19 65.2034 Q1218.83 67.5124 1223.32 67.5124 Q1229.52 67.5124 1233.25 63.1374 Q1237.02 58.7219 1237.02 51.4303 L1237.02 49.7694 L1229.6 49.7694 M1244.47 46.6907 L1244.47 72.576 L1237.02 72.576 L1237.02 65.6895 Q1234.46 69.8214 1230.66 71.8063 Q1226.85 73.7508 1221.34 73.7508 Q1214.37 73.7508 1210.24 69.8619 Q1206.15 65.9325 1206.15 59.3701 Q1206.15 51.7138 1211.25 47.825 Q1216.4 43.9361 1226.56 43.9361 L1237.02 43.9361 L1237.02 43.2069 Q1237.02 38.0623 1233.61 35.2672 Q1230.25 32.4315 1224.13 32.4315 Q1220.24 32.4315 1216.56 33.3632 Q1212.87 34.295 1209.47 36.1584 L1209.47 29.2718 Q1213.56 27.692 1217.41 26.9223 Q1221.26 26.1121 1224.9 26.1121 Q1234.75 26.1121 1239.61 31.2163 Q1244.47 36.3204 1244.47 46.6907 Z" fill="#000000" fill-rule="evenodd" fill-opacity="1"></path><path clip-path="url(#clip570)" d="M1297.54 45.1919 L1297.54 72.576 L1290.08 72.576 L1290.08 45.4349 Q1290.08 38.994 1287.57 35.7938 Q1285.06 32.5936 1280.04 32.5936 Q1274 32.5936 1270.52 36.4419 Q1267.03 40.2903 1267.03 46.9338 L1267.03 72.576 L1259.54 72.576 L1259.54 27.2059 L1267.03 27.2059 L1267.03 34.2544 Q1269.71 30.163 1273.31 28.1376 Q1276.96 26.1121 1281.7 26.1121 Q1289.51 26.1121 1293.53 30.9732 Q1297.54 35.7938 1297.54 45.1919 Z" fill="#000000" fill-rule="evenodd" fill-opacity="1"></path><path clip-path="url(#clip570)" d="M1342.26 34.0924 L1342.26 9.54393 L1349.71 9.54393 L1349.71 72.576 L1342.26 72.576 L1342.26 65.7705 Q1339.91 69.8214 1336.3 71.8063 Q1332.74 73.7508 1327.71 73.7508 Q1319.49 73.7508 1314.31 67.1883 Q1309.16 60.6258 1309.16 49.9314 Q1309.16 39.2371 1314.31 32.6746 Q1319.49 26.1121 1327.71 26.1121 Q1332.74 26.1121 1336.3 28.0971 Q1339.91 30.0415 1342.26 34.0924 M1316.86 49.9314 Q1316.86 58.1548 1320.22 62.8538 Q1323.62 67.5124 1329.54 67.5124 Q1335.45 67.5124 1338.85 62.8538 Q1342.26 58.1548 1342.26 49.9314 Q1342.26 41.7081 1338.85 37.0496 Q1335.45 32.3505 1329.54 32.3505 Q1323.62 32.3505 1320.22 37.0496 Q1316.86 41.7081 1316.86 49.9314 Z" fill="#000000" fill-rule="evenodd" fill-opacity="1"></path><path clip-path="url(#clip570)" d="M1391.76 12.096 L1430 12.096 L1430 18.9825 L1399.94 18.9825 L1399.94 36.8875 L1428.74 36.8875 L1428.74 43.7741 L1399.94 43.7741 L1399.94 65.6895 L1430.73 65.6895 L1430.73 72.576 L1391.76 72.576 L1391.76 12.096 Z" fill="#000000" fill-rule="evenodd" fill-opacity="1"></path><path clip-path="url(#clip570)" d="M1481.57 27.2059 L1465.16 49.2833 L1482.42 72.576 L1473.63 72.576 L1460.42 54.752 L1447.22 72.576 L1438.43 72.576 L1456.05 48.8377 L1439.92 27.2059 L1448.72 27.2059 L1460.75 43.369 L1472.78 27.2059 L1481.57 27.2059 Z" fill="#000000" fill-rule="evenodd" fill-opacity="1"></path><path clip-path="url(#clip570)" d="M1513.57 49.7694 Q1504.54 49.7694 1501.05 51.8354 Q1497.57 53.9013 1497.57 58.8839 Q1497.57 62.8538 1500.16 65.2034 Q1502.79 67.5124 1507.29 67.5124 Q1513.49 67.5124 1517.22 63.1374 Q1520.98 58.7219 1520.98 51.4303 L1520.98 49.7694 L1513.57 49.7694 M1528.44 46.6907 L1528.44 72.576 L1520.98 72.576 L1520.98 65.6895 Q1518.43 69.8214 1514.62 71.8063 Q1510.82 73.7508 1505.31 73.7508 Q1498.34 73.7508 1494.21 69.8619 Q1490.12 65.9325 1490.12 59.3701 Q1490.12 51.7138 1495.22 47.825 Q1500.36 43.9361 1510.53 43.9361 L1520.98 43.9361 L1520.98 43.2069 Q1520.98 38.0623 1517.58 35.2672 Q1514.22 32.4315 1508.1 32.4315 Q1504.21 32.4315 1500.53 33.3632 Q1496.84 34.295 1493.44 36.1584 L1493.44 29.2718 Q1497.53 27.692 1501.38 26.9223 Q1505.23 26.1121 1508.87 26.1121 Q1518.72 26.1121 1523.58 31.2163 Q1528.44 36.3204 1528.44 46.6907 Z" fill="#000000" fill-rule="evenodd" fill-opacity="1"></path><path clip-path="url(#clip570)" d="M1576.44 28.9478 L1576.44 35.9153 Q1573.28 34.1734 1570.08 33.3227 Q1566.92 32.4315 1563.68 32.4315 Q1556.43 32.4315 1552.42 37.0496 Q1548.41 41.6271 1548.41 49.9314 Q1548.41 58.2358 1552.42 62.8538 Q1556.43 67.4314 1563.68 67.4314 Q1566.92 67.4314 1570.08 66.5807 Q1573.28 65.6895 1576.44 63.9476 L1576.44 70.8341 Q1573.32 72.2924 1569.96 73.0216 Q1566.64 73.7508 1562.87 73.7508 Q1552.62 73.7508 1546.59 67.3098 Q1540.55 60.8689 1540.55 49.9314 Q1540.55 38.832 1546.63 32.472 Q1552.74 26.1121 1563.36 26.1121 Q1566.8 26.1121 1570.08 26.8413 Q1573.36 27.5299 1576.44 28.9478 Z" fill="#000000" fill-rule="evenodd" fill-opacity="1"></path><path clip-path="url(#clip570)" d="M1596.78 14.324 L1596.78 27.2059 L1612.13 27.2059 L1612.13 32.9987 L1596.78 32.9987 L1596.78 57.6282 Q1596.78 63.1779 1598.27 64.7578 Q1599.81 66.3376 1604.47 66.3376 L1612.13 66.3376 L1612.13 72.576 L1604.47 72.576 Q1595.84 72.576 1592.56 69.3758 Q1589.28 66.1351 1589.28 57.6282 L1589.28 32.9987 L1583.81 32.9987 L1583.81 27.2059 L1589.28 27.2059 L1589.28 14.324 L1596.78 14.324 Z" fill="#000000" fill-rule="evenodd" fill-opacity="1"></path><path clip-path="url(#clip570)" d="M1684.88 14.0809 L1684.88 22.0612 Q1680.22 19.8332 1676.09 18.7395 Q1671.96 17.6457 1668.11 17.6457 Q1661.43 17.6457 1657.78 20.2383 Q1654.18 22.8309 1654.18 27.611 Q1654.18 31.6214 1656.57 33.6873 Q1659 35.7128 1665.72 36.9686 L1670.66 37.9813 Q1679.82 39.7232 1684.15 44.1387 Q1688.53 48.5136 1688.53 55.8863 Q1688.53 64.6767 1682.61 69.2137 Q1676.74 73.7508 1665.36 73.7508 Q1661.06 73.7508 1656.2 72.7785 Q1651.38 71.8063 1646.2 69.9024 L1646.2 61.4765 Q1651.18 64.2716 1655.96 65.6895 Q1660.74 67.1073 1665.36 67.1073 Q1672.37 67.1073 1676.17 64.3527 Q1679.98 61.598 1679.98 56.4939 Q1679.98 52.0379 1677.23 49.5264 Q1674.51 47.0148 1668.27 45.759 L1663.29 44.7868 Q1654.14 42.9639 1650.05 39.075 Q1645.95 35.1862 1645.95 28.2591 Q1645.95 20.2383 1651.58 15.6203 Q1657.26 11.0023 1667.18 11.0023 Q1671.43 11.0023 1675.85 11.7719 Q1680.27 12.5416 1684.88 14.0809 Z" fill="#000000" fill-rule="evenodd" fill-opacity="1"></path><path clip-path="url(#clip570)" d="M1718.55 32.4315 Q1712.55 32.4315 1709.07 37.1306 Q1705.58 41.7891 1705.58 49.9314 Q1705.58 58.0738 1709.03 62.7728 Q1712.51 67.4314 1718.55 67.4314 Q1724.5 67.4314 1727.98 62.7323 Q1731.47 58.0333 1731.47 49.9314 Q1731.47 41.8701 1727.98 37.1711 Q1724.5 32.4315 1718.55 32.4315 M1718.55 26.1121 Q1728.27 26.1121 1733.82 32.4315 Q1739.37 38.7509 1739.37 49.9314 Q1739.37 61.0714 1733.82 67.4314 Q1728.27 73.7508 1718.55 73.7508 Q1708.78 73.7508 1703.23 67.4314 Q1697.72 61.0714 1697.72 49.9314 Q1697.72 38.7509 1703.23 32.4315 Q1708.78 26.1121 1718.55 26.1121 Z" fill="#000000" fill-rule="evenodd" fill-opacity="1"></path><path clip-path="url(#clip570)" d="M1751.72 9.54393 L1759.18 9.54393 L1759.18 72.576 L1751.72 72.576 L1751.72 9.54393 Z" fill="#000000" fill-rule="evenodd" fill-opacity="1"></path><path clip-path="url(#clip570)" d="M1774 54.671 L1774 27.2059 L1781.46 27.2059 L1781.46 54.3874 Q1781.46 60.8284 1783.97 64.0691 Q1786.48 67.2693 1791.5 67.2693 Q1797.54 67.2693 1801.02 63.421 Q1804.55 59.5726 1804.55 52.9291 L1804.55 27.2059 L1812 27.2059 L1812 72.576 L1804.55 72.576 L1804.55 65.6084 Q1801.83 69.7404 1798.23 71.7658 Q1794.66 73.7508 1789.92 73.7508 Q1782.1 73.7508 1778.05 68.8897 Q1774 64.0286 1774 54.671 M1792.76 26.1121 L1792.76 26.1121 Z" fill="#000000" fill-rule="evenodd" fill-opacity="1"></path><path clip-path="url(#clip570)" d="M1834.73 14.324 L1834.73 27.2059 L1850.08 27.2059 L1850.08 32.9987 L1834.73 32.9987 L1834.73 57.6282 Q1834.73 63.1779 1836.22 64.7578 Q1837.76 66.3376 1842.42 66.3376 L1850.08 66.3376 L1850.08 72.576 L1842.42 72.576 Q1833.79 72.576 1830.51 69.3758 Q1827.23 66.1351 1827.23 57.6282 L1827.23 32.9987 L1821.76 32.9987 L1821.76 27.2059 L1827.23 27.2059 L1827.23 14.324 L1834.73 14.324 Z" fill="#000000" fill-rule="evenodd" fill-opacity="1"></path><path clip-path="url(#clip570)" d="M1859.88 27.2059 L1867.34 27.2059 L1867.34 72.576 L1859.88 72.576 L1859.88 27.2059 M1859.88 9.54393 L1867.34 9.54393 L1867.34 18.9825 L1859.88 18.9825 L1859.88 9.54393 Z" fill="#000000" fill-rule="evenodd" fill-opacity="1"></path><path clip-path="url(#clip570)" d="M1900.51 32.4315 Q1894.52 32.4315 1891.03 37.1306 Q1887.55 41.7891 1887.55 49.9314 Q1887.55 58.0738 1890.99 62.7728 Q1894.48 67.4314 1900.51 67.4314 Q1906.47 67.4314 1909.95 62.7323 Q1913.44 58.0333 1913.44 49.9314 Q1913.44 41.8701 1909.95 37.1711 Q1906.47 32.4315 1900.51 32.4315 M1900.51 26.1121 Q1910.23 26.1121 1915.78 32.4315 Q1921.33 38.7509 1921.33 49.9314 Q1921.33 61.0714 1915.78 67.4314 Q1910.23 73.7508 1900.51 73.7508 Q1890.75 73.7508 1885.2 67.4314 Q1879.69 61.0714 1879.69 49.9314 Q1879.69 38.7509 1885.2 32.4315 Q1890.75 26.1121 1900.51 26.1121 Z" fill="#000000" fill-rule="evenodd" fill-opacity="1"></path><path clip-path="url(#clip570)" d="M1971.4 45.1919 L1971.4 72.576 L1963.95 72.576 L1963.95 45.4349 Q1963.95 38.994 1961.44 35.7938 Q1958.93 32.5936 1953.9 32.5936 Q1947.87 32.5936 1944.38 36.4419 Q1940.9 40.2903 1940.9 46.9338 L1940.9 72.576 L1933.41 72.576 L1933.41 27.2059 L1940.9 27.2059 L1940.9 34.2544 Q1943.57 30.163 1947.18 28.1376 Q1950.82 26.1121 1955.56 26.1121 Q1963.38 26.1121 1967.39 30.9732 Q1971.4 35.7938 1971.4 45.1919 Z" fill="#000000" fill-rule="evenodd" fill-opacity="1"></path><polyline clip-path="url(#clip572)" style="stroke:#009af9; stroke-linecap:round; stroke-linejoin:round; stroke-width:4; stroke-opacity:1; fill:none" points="
  218.754,162.047 225.66,175.511 232.566,188.842 239.472,202.04 246.378,215.107 253.284,228.043 260.191,240.851 267.097,253.531 274.003,266.086 280.909,278.515 
  287.815,290.821 294.721,303.004 301.628,315.066 308.534,327.008 315.44,338.831 322.346,350.537 329.252,362.126 336.158,373.599 343.064,384.959 349.971,396.205 
  356.877,407.34 363.783,418.364 370.689,429.278 377.595,440.084 384.501,450.782 391.408,461.373 398.314,471.859 405.22,482.241 412.126,492.52 419.032,502.696 
  425.938,512.771 432.844,522.746 439.751,532.621 446.657,542.399 453.563,552.079 460.469,561.662 467.375,571.151 474.281,580.545 481.188,589.845 488.094,599.053 
  495,608.169 501.906,617.195 508.812,626.13 515.718,634.977 522.625,643.736 529.531,652.408 536.437,660.993 543.343,669.493 550.249,677.908 557.155,686.24 
  564.061,694.489 570.968,702.655 577.874,710.741 584.78,718.746 591.686,726.671 598.592,734.518 605.498,742.286 612.405,749.977 619.311,757.592 626.217,765.13 
  633.123,772.594 640.029,779.984 646.935,787.3 653.841,794.543 660.748,801.714 667.654,808.814 674.56,815.843 681.466,822.802 688.372,829.692 695.278,836.513 
  702.185,843.267 709.091,849.953 715.997,856.573 722.903,863.127 729.809,869.615 736.715,876.039 743.622,882.4 750.528,888.697 757.434,894.931 764.34,901.103 
  771.246,907.214 778.152,913.264 785.058,919.254 791.965,925.184 798.871,931.055 805.777,936.868 812.683,942.623 819.589,948.32 826.495,953.961 833.402,959.546 
  840.308,965.076 847.214,970.55 854.12,975.97 861.026,981.336 867.932,986.648 874.838,991.908 881.745,997.115 888.651,1002.27 895.557,1007.37 902.463,1012.43 
  909.369,1017.43 916.275,1022.38 923.182,1027.29 930.088,1032.14 936.994,1036.95 943.9,1041.71 950.806,1046.42 957.712,1051.09 964.619,1055.7 971.525,1060.28 
  978.431,1064.8 985.337,1069.29 992.243,1073.72 999.149,1078.12 1006.06,1082.47 1012.96,1086.77 1019.87,1091.04 1026.77,1095.26 1033.68,1099.44 1040.59,1103.57 
  1047.49,1107.67 1054.4,1111.72 1061.3,1115.74 1068.21,1119.72 1075.12,1123.65 1082.02,1127.55 1088.93,1131.4 1095.84,1135.22 1102.74,1139.01 1109.65,1142.75 
  1116.55,1146.46 1123.46,1150.12 1130.37,1153.76 1137.27,1157.35 1144.18,1160.92 1151.08,1164.44 1157.99,1167.93 1164.9,1171.39 1171.8,1174.81 1178.71,1178.2 
  1185.62,1181.55 1192.52,1184.87 1199.43,1188.16 1206.33,1191.41 1213.24,1194.63 1220.15,1197.82 1227.05,1200.98 1233.96,1204.11 1240.86,1207.21 1247.77,1210.27 
  1254.68,1213.31 1261.58,1216.31 1268.49,1219.28 1275.4,1222.23 1282.3,1225.14 1289.21,1228.03 1296.11,1230.89 1303.02,1233.72 1309.93,1236.52 1316.83,1239.29 
  1323.74,1242.04 1330.64,1244.76 1337.55,1247.45 1344.46,1250.11 1351.36,1252.75 1358.27,1255.36 1365.18,1257.95 1372.08,1260.51 1378.99,1263.04 1385.89,1265.55 
  1392.8,1268.04 1399.71,1270.5 1406.61,1272.93 1413.52,1275.34 1420.42,1277.73 1427.33,1280.09 1434.24,1282.43 1441.14,1284.75 1448.05,1287.04 1454.96,1289.31 
  1461.86,1291.56 1468.77,1293.79 1475.67,1295.99 1482.58,1298.17 1489.49,1300.33 1496.39,1302.47 1503.3,1304.59 1510.2,1306.69 1517.11,1308.76 1524.02,1310.81 
  1530.92,1312.85 1537.83,1314.86 1544.74,1316.86 1551.64,1318.83 1558.55,1320.78 1565.45,1322.72 1572.36,1324.64 1579.27,1326.53 1586.17,1328.41 1593.08,1330.27 
  1599.98,1332.11 1606.89,1333.93 1613.8,1335.74 1620.7,1337.52 1627.61,1339.29 1634.52,1341.04 1641.42,1342.77 1648.33,1344.49 1655.23,1346.19 1662.14,1347.87 
  1669.05,1349.54 1675.95,1351.19 1682.86,1352.82 1689.76,1354.43 1696.67,1356.03 1703.58,1357.62 1710.48,1359.19 1717.39,1360.74 1724.3,1362.28 1731.2,1363.8 
  1738.11,1365.31 1745.01,1366.8 1751.92,1368.28 1758.83,1369.74 1765.73,1371.19 1772.64,1372.62 1779.54,1374.04 1786.45,1375.44 1793.36,1376.83 1800.26,1378.21 
  1807.17,1379.57 1814.08,1380.92 1820.98,1382.26 1827.89,1383.58 1834.79,1384.89 1841.7,1386.19 1848.61,1387.48 1855.51,1388.75 1862.42,1390.01 1869.32,1391.25 
  1876.23,1392.49 1883.14,1393.71 1890.04,1394.92 1896.95,1396.11 1903.86,1397.3 1910.76,1398.47 1917.67,1399.63 1924.57,1400.78 1931.48,1401.92 1938.39,1403.05 
  1945.29,1404.17 1952.2,1405.27 1959.11,1406.37 1966.01,1407.45 1972.92,1408.52 1979.82,1409.58 1986.73,1410.64 1993.64,1411.68 2000.54,1412.71 2007.45,1413.73 
  2014.35,1414.74 2021.26,1415.74 2028.17,1416.73 2035.07,1417.71 2041.98,1418.68 2048.89,1419.64 2055.79,1420.59 2062.7,1421.53 2069.6,1422.47 2076.51,1423.39 
  2083.42,1424.3 2090.32,1425.21 2097.23,1426.1 2104.13,1426.99 2111.04,1427.87 2117.95,1428.74 2124.85,1429.6 2131.76,1430.45 2138.67,1431.29 2145.57,1432.13 
  2152.48,1432.96 2159.38,1433.78 2166.29,1434.59 2173.2,1435.39 2180.1,1436.18 2187.01,1436.97 2193.91,1437.75 2200.82,1438.52 2207.73,1439.28 2214.63,1440.04 
  2221.54,1440.79 2228.45,1441.53 2235.35,1442.26 2242.26,1442.99 2249.16,1443.71 2256.07,1444.42 2262.98,1445.12 2269.88,1445.82 2276.79,1446.51 2283.69,1447.2 
  2290.6,1447.87 
  "></polyline>
<circle clip-path="url(#clip572)" cx="218.754" cy="162.047" r="14.4" fill="#e26f46" fill-rule="evenodd" fill-opacity="1" stroke="#000000" stroke-opacity="1" stroke-width="3.2"></circle>
<circle clip-path="url(#clip572)" cx="287.815" cy="285.065" r="14.4" fill="#e26f46" fill-rule="evenodd" fill-opacity="1" stroke="#000000" stroke-opacity="1" stroke-width="3.2"></circle>
<circle clip-path="url(#clip572)" cx="356.877" cy="396.899" r="14.4" fill="#e26f46" fill-rule="evenodd" fill-opacity="1" stroke="#000000" stroke-opacity="1" stroke-width="3.2"></circle>
<circle clip-path="url(#clip572)" cx="425.938" cy="498.567" r="14.4" fill="#e26f46" fill-rule="evenodd" fill-opacity="1" stroke="#000000" stroke-opacity="1" stroke-width="3.2"></circle>
<circle clip-path="url(#clip572)" cx="495" cy="590.992" r="14.4" fill="#e26f46" fill-rule="evenodd" fill-opacity="1" stroke="#000000" stroke-opacity="1" stroke-width="3.2"></circle>
<circle clip-path="url(#clip572)" cx="564.061" cy="675.015" r="14.4" fill="#e26f46" fill-rule="evenodd" fill-opacity="1" stroke="#000000" stroke-opacity="1" stroke-width="3.2"></circle>
<circle clip-path="url(#clip572)" cx="633.123" cy="751.4" r="14.4" fill="#e26f46" fill-rule="evenodd" fill-opacity="1" stroke="#000000" stroke-opacity="1" stroke-width="3.2"></circle>
<circle clip-path="url(#clip572)" cx="702.185" cy="820.84" r="14.4" fill="#e26f46" fill-rule="evenodd" fill-opacity="1" stroke="#000000" stroke-opacity="1" stroke-width="3.2"></circle>
<circle clip-path="url(#clip572)" cx="771.246" cy="883.968" r="14.4" fill="#e26f46" fill-rule="evenodd" fill-opacity="1" stroke="#000000" stroke-opacity="1" stroke-width="3.2"></circle>
<circle clip-path="url(#clip572)" cx="840.308" cy="941.357" r="14.4" fill="#e26f46" fill-rule="evenodd" fill-opacity="1" stroke="#000000" stroke-opacity="1" stroke-width="3.2"></circle>
<circle clip-path="url(#clip572)" cx="909.369" cy="993.528" r="14.4" fill="#e26f46" fill-rule="evenodd" fill-opacity="1" stroke="#000000" stroke-opacity="1" stroke-width="3.2"></circle>
<circle clip-path="url(#clip572)" cx="978.431" cy="1040.96" r="14.4" fill="#e26f46" fill-rule="evenodd" fill-opacity="1" stroke="#000000" stroke-opacity="1" stroke-width="3.2"></circle>
<circle clip-path="url(#clip572)" cx="1047.49" cy="1084.07" r="14.4" fill="#e26f46" fill-rule="evenodd" fill-opacity="1" stroke="#000000" stroke-opacity="1" stroke-width="3.2"></circle>
<circle clip-path="url(#clip572)" cx="1116.55" cy="1123.27" r="14.4" fill="#e26f46" fill-rule="evenodd" fill-opacity="1" stroke="#000000" stroke-opacity="1" stroke-width="3.2"></circle>
<circle clip-path="url(#clip572)" cx="1185.62" cy="1158.91" r="14.4" fill="#e26f46" fill-rule="evenodd" fill-opacity="1" stroke="#000000" stroke-opacity="1" stroke-width="3.2"></circle>
<circle clip-path="url(#clip572)" cx="1254.68" cy="1191.3" r="14.4" fill="#e26f46" fill-rule="evenodd" fill-opacity="1" stroke="#000000" stroke-opacity="1" stroke-width="3.2"></circle>
<circle clip-path="url(#clip572)" cx="1323.74" cy="1220.75" r="14.4" fill="#e26f46" fill-rule="evenodd" fill-opacity="1" stroke="#000000" stroke-opacity="1" stroke-width="3.2"></circle>
<circle clip-path="url(#clip572)" cx="1392.8" cy="1247.52" r="14.4" fill="#e26f46" fill-rule="evenodd" fill-opacity="1" stroke="#000000" stroke-opacity="1" stroke-width="3.2"></circle>
<circle clip-path="url(#clip572)" cx="1461.86" cy="1271.86" r="14.4" fill="#e26f46" fill-rule="evenodd" fill-opacity="1" stroke="#000000" stroke-opacity="1" stroke-width="3.2"></circle>
<circle clip-path="url(#clip572)" cx="1530.92" cy="1293.99" r="14.4" fill="#e26f46" fill-rule="evenodd" fill-opacity="1" stroke="#000000" stroke-opacity="1" stroke-width="3.2"></circle>
<circle clip-path="url(#clip572)" cx="1599.98" cy="1314.1" r="14.4" fill="#e26f46" fill-rule="evenodd" fill-opacity="1" stroke="#000000" stroke-opacity="1" stroke-width="3.2"></circle>
<circle clip-path="url(#clip572)" cx="1669.05" cy="1332.39" r="14.4" fill="#e26f46" fill-rule="evenodd" fill-opacity="1" stroke="#000000" stroke-opacity="1" stroke-width="3.2"></circle>
<circle clip-path="url(#clip572)" cx="1738.11" cy="1349.01" r="14.4" fill="#e26f46" fill-rule="evenodd" fill-opacity="1" stroke="#000000" stroke-opacity="1" stroke-width="3.2"></circle>
<circle clip-path="url(#clip572)" cx="1807.17" cy="1364.12" r="14.4" fill="#e26f46" fill-rule="evenodd" fill-opacity="1" stroke="#000000" stroke-opacity="1" stroke-width="3.2"></circle>
<circle clip-path="url(#clip572)" cx="1876.23" cy="1377.86" r="14.4" fill="#e26f46" fill-rule="evenodd" fill-opacity="1" stroke="#000000" stroke-opacity="1" stroke-width="3.2"></circle>
<circle clip-path="url(#clip572)" cx="1945.29" cy="1390.35" r="14.4" fill="#e26f46" fill-rule="evenodd" fill-opacity="1" stroke="#000000" stroke-opacity="1" stroke-width="3.2"></circle>
<circle clip-path="url(#clip572)" cx="2014.35" cy="1401.7" r="14.4" fill="#e26f46" fill-rule="evenodd" fill-opacity="1" stroke="#000000" stroke-opacity="1" stroke-width="3.2"></circle>
<circle clip-path="url(#clip572)" cx="2083.42" cy="1412.03" r="14.4" fill="#e26f46" fill-rule="evenodd" fill-opacity="1" stroke="#000000" stroke-opacity="1" stroke-width="3.2"></circle>
<circle clip-path="url(#clip572)" cx="2152.48" cy="1421.41" r="14.4" fill="#e26f46" fill-rule="evenodd" fill-opacity="1" stroke="#000000" stroke-opacity="1" stroke-width="3.2"></circle>
<circle clip-path="url(#clip572)" cx="2221.54" cy="1429.94" r="14.4" fill="#e26f46" fill-rule="evenodd" fill-opacity="1" stroke="#000000" stroke-opacity="1" stroke-width="3.2"></circle>
<circle clip-path="url(#clip572)" cx="2290.6" cy="1437.7" r="14.4" fill="#e26f46" fill-rule="evenodd" fill-opacity="1" stroke="#000000" stroke-opacity="1" stroke-width="3.2"></circle>
<path clip-path="url(#clip570)" d="
M1671.62 324.425 L2279.55 324.425 L2279.55 168.905 L1671.62 168.905  Z
  " fill="#ffffff" fill-rule="evenodd" fill-opacity="1"></path>
<polyline clip-path="url(#clip570)" style="stroke:#000000; stroke-linecap:round; stroke-linejoin:round; stroke-width:4; stroke-opacity:1; fill:none" points="
  1671.62,324.425 2279.55,324.425 2279.55,168.905 1671.62,168.905 1671.62,324.425 
  "></polyline>
<polyline clip-path="url(#clip570)" style="stroke:#009af9; stroke-linecap:round; stroke-linejoin:round; stroke-width:4; stroke-opacity:1; fill:none" points="
  1696.02,220.745 1842.44,220.745 
  "></polyline>
<path clip-path="url(#clip570)" d="M1866.84 203.465 L1888.69 203.465 L1888.69 207.4 L1871.51 207.4 L1871.51 217.631 L1887.97 217.631 L1887.97 221.566 L1871.51 221.566 L1871.51 234.089 L1889.11 234.089 L1889.11 238.025 L1866.84 238.025 L1866.84 203.465 Z" fill="#000000" fill-rule="evenodd" fill-opacity="1"></path><path clip-path="url(#clip570)" d="M1918.16 212.099 L1908.78 224.715 L1918.64 238.025 L1913.62 238.025 L1906.07 227.84 L1898.53 238.025 L1893.5 238.025 L1903.57 224.46 L1894.36 212.099 L1899.38 212.099 L1906.26 221.335 L1913.13 212.099 L1918.16 212.099 Z" fill="#000000" fill-rule="evenodd" fill-opacity="1"></path><path clip-path="url(#clip570)" d="M1936.44 224.992 Q1931.28 224.992 1929.29 226.173 Q1927.3 227.353 1927.3 230.201 Q1927.3 232.469 1928.78 233.812 Q1930.29 235.131 1932.86 235.131 Q1936.4 235.131 1938.53 232.631 Q1940.68 230.108 1940.68 225.941 L1940.68 224.992 L1936.44 224.992 M1944.94 223.233 L1944.94 238.025 L1940.68 238.025 L1940.68 234.089 Q1939.22 236.451 1937.05 237.585 Q1934.87 238.696 1931.72 238.696 Q1927.74 238.696 1925.38 236.474 Q1923.04 234.228 1923.04 230.478 Q1923.04 226.103 1925.96 223.881 Q1928.9 221.659 1934.71 221.659 L1940.68 221.659 L1940.68 221.242 Q1940.68 218.303 1938.73 216.705 Q1936.81 215.085 1933.32 215.085 Q1931.1 215.085 1928.99 215.617 Q1926.88 216.15 1924.94 217.215 L1924.94 213.279 Q1927.28 212.377 1929.48 211.937 Q1931.67 211.474 1933.76 211.474 Q1939.38 211.474 1942.16 214.391 Q1944.94 217.307 1944.94 223.233 Z" fill="#000000" fill-rule="evenodd" fill-opacity="1"></path><path clip-path="url(#clip570)" d="M1972.37 213.094 L1972.37 217.076 Q1970.56 216.08 1968.73 215.594 Q1966.93 215.085 1965.08 215.085 Q1960.93 215.085 1958.64 217.724 Q1956.35 220.34 1956.35 225.085 Q1956.35 229.83 1958.64 232.469 Q1960.93 235.085 1965.08 235.085 Q1966.93 235.085 1968.73 234.599 Q1970.56 234.089 1972.37 233.094 L1972.37 237.029 Q1970.59 237.863 1968.67 238.279 Q1966.77 238.696 1964.61 238.696 Q1958.76 238.696 1955.31 235.015 Q1951.86 231.335 1951.86 225.085 Q1951.86 218.742 1955.33 215.108 Q1958.83 211.474 1964.89 211.474 Q1966.86 211.474 1968.73 211.891 Q1970.61 212.284 1972.37 213.094 Z" fill="#000000" fill-rule="evenodd" fill-opacity="1"></path><path clip-path="url(#clip570)" d="M1983.99 204.738 L1983.99 212.099 L1992.76 212.099 L1992.76 215.409 L1983.99 215.409 L1983.99 229.483 Q1983.99 232.654 1984.85 233.557 Q1985.73 234.46 1988.39 234.46 L1992.76 234.46 L1992.76 238.025 L1988.39 238.025 Q1983.46 238.025 1981.58 236.196 Q1979.71 234.344 1979.71 229.483 L1979.71 215.409 L1976.58 215.409 L1976.58 212.099 L1979.71 212.099 L1979.71 204.738 L1983.99 204.738 Z" fill="#000000" fill-rule="evenodd" fill-opacity="1"></path><circle clip-path="url(#clip570)" cx="1769.23" cy="272.585" r="23.04" fill="#e26f46" fill-rule="evenodd" fill-opacity="1" stroke="#000000" stroke-opacity="1" stroke-width="5.12"></circle>
<path clip-path="url(#clip570)" d="M1871.51 273.36 L1871.51 286.022 L1879.01 286.022 Q1882.79 286.022 1884.59 284.471 Q1886.42 282.897 1886.42 279.68 Q1886.42 276.439 1884.59 274.911 Q1882.79 273.36 1879.01 273.36 L1871.51 273.36 M1871.51 259.147 L1871.51 269.564 L1878.43 269.564 Q1881.86 269.564 1883.53 268.291 Q1885.22 266.994 1885.22 264.356 Q1885.22 261.74 1883.53 260.444 Q1881.86 259.147 1878.43 259.147 L1871.51 259.147 M1866.84 255.305 L1878.78 255.305 Q1884.13 255.305 1887.02 257.527 Q1889.92 259.749 1889.92 263.846 Q1889.92 267.018 1888.43 268.893 Q1886.95 270.768 1884.08 271.23 Q1887.53 271.971 1889.43 274.332 Q1891.35 276.67 1891.35 280.189 Q1891.35 284.818 1888.2 287.342 Q1885.05 289.865 1879.24 289.865 L1866.84 289.865 L1866.84 255.305 Z" fill="#000000" fill-rule="evenodd" fill-opacity="1"></path><path clip-path="url(#clip570)" d="M1910.96 276.832 Q1905.8 276.832 1903.8 278.013 Q1901.81 279.193 1901.81 282.041 Q1901.81 284.309 1903.3 285.652 Q1904.8 286.971 1907.37 286.971 Q1910.91 286.971 1913.04 284.471 Q1915.19 281.948 1915.19 277.781 L1915.19 276.832 L1910.96 276.832 M1919.45 275.073 L1919.45 289.865 L1915.19 289.865 L1915.19 285.929 Q1913.73 288.291 1911.56 289.425 Q1909.38 290.536 1906.23 290.536 Q1902.25 290.536 1899.89 288.314 Q1897.55 286.068 1897.55 282.318 Q1897.55 277.943 1900.47 275.721 Q1903.41 273.499 1909.22 273.499 L1915.19 273.499 L1915.19 273.082 Q1915.19 270.143 1913.25 268.545 Q1911.33 266.925 1907.83 266.925 Q1905.61 266.925 1903.5 267.457 Q1901.4 267.99 1899.45 269.055 L1899.45 265.119 Q1901.79 264.217 1903.99 263.777 Q1906.19 263.314 1908.27 263.314 Q1913.9 263.314 1916.67 266.231 Q1919.45 269.147 1919.45 275.073 Z" fill="#000000" fill-rule="evenodd" fill-opacity="1"></path><path clip-path="url(#clip570)" d="M1946.88 264.934 L1946.88 268.916 Q1945.08 267.92 1943.25 267.434 Q1941.44 266.925 1939.59 266.925 Q1935.45 266.925 1933.16 269.564 Q1930.86 272.18 1930.86 276.925 Q1930.86 281.67 1933.16 284.309 Q1935.45 286.925 1939.59 286.925 Q1941.44 286.925 1943.25 286.439 Q1945.08 285.929 1946.88 284.934 L1946.88 288.869 Q1945.1 289.703 1943.18 290.119 Q1941.28 290.536 1939.13 290.536 Q1933.27 290.536 1929.82 286.855 Q1926.37 283.175 1926.37 276.925 Q1926.37 270.582 1929.85 266.948 Q1933.34 263.314 1939.41 263.314 Q1941.37 263.314 1943.25 263.731 Q1945.12 264.124 1946.88 264.934 Z" fill="#000000" fill-rule="evenodd" fill-opacity="1"></path><path clip-path="url(#clip570)" d="M1954.13 253.846 L1958.41 253.846 L1958.41 275.119 L1971.12 263.939 L1976.56 263.939 L1962.81 276.068 L1977.14 289.865 L1971.58 289.865 L1958.41 277.203 L1958.41 289.865 L1954.13 289.865 L1954.13 253.846 Z" fill="#000000" fill-rule="evenodd" fill-opacity="1"></path><path clip-path="url(#clip570)" d="M1979.27 263.939 L1983.53 263.939 L1988.85 284.17 L1994.15 263.939 L1999.17 263.939 L2004.5 284.17 L2009.8 263.939 L2014.06 263.939 L2007.28 289.865 L2002.25 289.865 L1996.67 268.615 L1991.07 289.865 L1986.05 289.865 L1979.27 263.939 Z" fill="#000000" fill-rule="evenodd" fill-opacity="1"></path><path clip-path="url(#clip570)" d="M2032.3 276.832 Q2027.14 276.832 2025.15 278.013 Q2023.16 279.193 2023.16 282.041 Q2023.16 284.309 2024.64 285.652 Q2026.14 286.971 2028.71 286.971 Q2032.25 286.971 2034.38 284.471 Q2036.54 281.948 2036.54 277.781 L2036.54 276.832 L2032.3 276.832 M2040.79 275.073 L2040.79 289.865 L2036.54 289.865 L2036.54 285.929 Q2035.08 288.291 2032.9 289.425 Q2030.73 290.536 2027.58 290.536 Q2023.6 290.536 2021.23 288.314 Q2018.9 286.068 2018.9 282.318 Q2018.9 277.943 2021.81 275.721 Q2024.75 273.499 2030.56 273.499 L2036.54 273.499 L2036.54 273.082 Q2036.54 270.143 2034.59 268.545 Q2032.67 266.925 2029.17 266.925 Q2026.95 266.925 2024.85 267.457 Q2022.74 267.99 2020.79 269.055 L2020.79 265.119 Q2023.13 264.217 2025.33 263.777 Q2027.53 263.314 2029.61 263.314 Q2035.24 263.314 2038.02 266.231 Q2040.79 269.147 2040.79 275.073 Z" fill="#000000" fill-rule="evenodd" fill-opacity="1"></path><path clip-path="url(#clip570)" d="M2064.59 267.92 Q2063.87 267.504 2063.02 267.318 Q2062.18 267.11 2061.16 267.11 Q2057.55 267.11 2055.61 269.471 Q2053.69 271.809 2053.69 276.207 L2053.69 289.865 L2049.41 289.865 L2049.41 263.939 L2053.69 263.939 L2053.69 267.967 Q2055.03 265.606 2057.18 264.471 Q2059.34 263.314 2062.41 263.314 Q2062.85 263.314 2063.39 263.383 Q2063.92 263.43 2064.57 263.545 L2064.59 267.92 Z" fill="#000000" fill-rule="evenodd" fill-opacity="1"></path><path clip-path="url(#clip570)" d="M2085.28 267.874 L2085.28 253.846 L2089.54 253.846 L2089.54 289.865 L2085.28 289.865 L2085.28 285.976 Q2083.94 288.291 2081.88 289.425 Q2079.85 290.536 2076.97 290.536 Q2072.28 290.536 2069.31 286.786 Q2066.37 283.036 2066.37 276.925 Q2066.37 270.814 2069.31 267.064 Q2072.28 263.314 2076.97 263.314 Q2079.85 263.314 2081.88 264.448 Q2083.94 265.559 2085.28 267.874 M2070.77 276.925 Q2070.77 281.624 2072.69 284.309 Q2074.64 286.971 2078.02 286.971 Q2081.4 286.971 2083.34 284.309 Q2085.28 281.624 2085.28 276.925 Q2085.28 272.226 2083.34 269.564 Q2081.4 266.879 2078.02 266.879 Q2074.64 266.879 2072.69 269.564 Q2070.77 272.226 2070.77 276.925 Z" fill="#000000" fill-rule="evenodd" fill-opacity="1"></path><path clip-path="url(#clip570)" d="M2113.57 255.305 L2135.42 255.305 L2135.42 259.24 L2118.25 259.24 L2118.25 269.471 L2134.71 269.471 L2134.71 273.406 L2118.25 273.406 L2118.25 285.929 L2135.84 285.929 L2135.84 289.865 L2113.57 289.865 L2113.57 255.305 Z" fill="#000000" fill-rule="evenodd" fill-opacity="1"></path><path clip-path="url(#clip570)" d="M2142.9 279.633 L2142.9 263.939 L2147.16 263.939 L2147.16 279.471 Q2147.16 283.152 2148.59 285.004 Q2150.03 286.832 2152.9 286.832 Q2156.35 286.832 2158.34 284.633 Q2160.35 282.434 2160.35 278.638 L2160.35 263.939 L2164.61 263.939 L2164.61 289.865 L2160.35 289.865 L2160.35 285.883 Q2158.8 288.244 2156.74 289.402 Q2154.71 290.536 2152 290.536 Q2147.53 290.536 2145.22 287.758 Q2142.9 284.98 2142.9 279.633 M2153.62 263.314 L2153.62 263.314 Z" fill="#000000" fill-rule="evenodd" fill-opacity="1"></path><path clip-path="url(#clip570)" d="M2173.39 253.846 L2177.65 253.846 L2177.65 289.865 L2173.39 289.865 L2173.39 253.846 Z" fill="#000000" fill-rule="evenodd" fill-opacity="1"></path><path clip-path="url(#clip570)" d="M2208.73 275.837 L2208.73 277.92 L2189.15 277.92 Q2189.43 282.318 2191.79 284.633 Q2194.17 286.925 2198.41 286.925 Q2200.86 286.925 2203.15 286.323 Q2205.47 285.721 2207.74 284.517 L2207.74 288.545 Q2205.45 289.517 2203.04 290.027 Q2200.63 290.536 2198.15 290.536 Q2191.95 290.536 2188.32 286.925 Q2184.71 283.314 2184.71 277.156 Q2184.71 270.791 2188.13 267.064 Q2191.58 263.314 2197.41 263.314 Q2202.65 263.314 2205.68 266.693 Q2208.73 270.05 2208.73 275.837 M2204.47 274.587 Q2204.43 271.092 2202.51 269.008 Q2200.61 266.925 2197.46 266.925 Q2193.9 266.925 2191.74 268.939 Q2189.61 270.953 2189.29 274.61 L2204.47 274.587 Z" fill="#000000" fill-rule="evenodd" fill-opacity="1"></path><path clip-path="url(#clip570)" d="M2230.75 267.92 Q2230.03 267.504 2229.17 267.318 Q2228.34 267.11 2227.32 267.11 Q2223.71 267.11 2221.77 269.471 Q2219.84 271.809 2219.84 276.207 L2219.84 289.865 L2215.56 289.865 L2215.56 263.939 L2219.84 263.939 L2219.84 267.967 Q2221.19 265.606 2223.34 264.471 Q2225.49 263.314 2228.57 263.314 Q2229.01 263.314 2229.54 263.383 Q2230.08 263.43 2230.72 263.545 L2230.75 267.92 Z" fill="#000000" fill-rule="evenodd" fill-opacity="1"></path></svg>