<svg xmlns="http://www.w3.org/2000/svg" xmlns:xlink="http://www.w3.org/1999/xlink" width="600" height="400" viewBox="0 0 2400 1600">
<defs>
  <clipPath id="clip370">
    <rect x="0" y="0" width="2400" height="1600"></rect>
  </clipPath>
</defs>
<path clip-path="url(#clip370)" d="
M0 1600 L2400 1600 L2400 0 L0 0  Z
  " fill="#ffffff" fill-rule="evenodd" fill-opacity="1"></path>
<defs>
  <clipPath id="clip371">
    <rect x="480" y="0" width="1681" height="1600"></rect>
  </clipPath>
</defs>
<path clip-path="url(#clip370)" d="
M252.764 1410.9 L2352.76 1410.9 L2352.76 123.472 L252.764 123.472  Z
  " fill="#ffffff" fill-rule="evenodd" fill-opacity="1"></path>
<defs>
  <clipPath id="clip372">
    <rect x="252" y="123" width="2101" height="1288"></rect>
  </clipPath>
</defs>
<polyline clip-path="url(#clip372)" style="stroke:#000000; stroke-linecap:round; stroke-linejoin:round; stroke-width:2; stroke-opacity:0.1; fill:none" points="
  312.198,1410.9 312.198,123.472 
  "></polyline>
<polyline clip-path="url(#clip372)" style="stroke:#000000; stroke-linecap:round; stroke-linejoin:round; stroke-width:2; stroke-opacity:0.1; fill:none" points="
  1074.14,1410.9 1074.14,123.472 
  "></polyline>
<polyline clip-path="url(#clip372)" style="stroke:#000000; stroke-linecap:round; stroke-linejoin:round; stroke-width:2; stroke-opacity:0.1; fill:none" points="
  1836.08,1410.9 1836.08,123.472 
  "></polyline>
<polyline clip-path="url(#clip370)" style="stroke:#000000; stroke-linecap:round; stroke-linejoin:round; stroke-width:4; stroke-opacity:1; fill:none" points="
  252.764,1410.9 2352.76,1410.9 
  "></polyline>
<polyline clip-path="url(#clip370)" style="stroke:#000000; stroke-linecap:round; stroke-linejoin:round; stroke-width:4; stroke-opacity:1; fill:none" points="
  312.198,1410.9 312.198,1392 
  "></polyline>
<polyline clip-path="url(#clip370)" style="stroke:#000000; stroke-linecap:round; stroke-linejoin:round; stroke-width:4; stroke-opacity:1; fill:none" points="
  1074.14,1410.9 1074.14,1392 
  "></polyline>
<polyline clip-path="url(#clip370)" style="stroke:#000000; stroke-linecap:round; stroke-linejoin:round; stroke-width:4; stroke-opacity:1; fill:none" points="
  1836.08,1410.9 1836.08,1392 
  "></polyline>
<path clip-path="url(#clip370)" d="M278.525 1485.02 L286.164 1485.02 L286.164 1458.66 L277.854 1460.32 L277.854 1456.06 L286.118 1454.4 L290.794 1454.4 L290.794 1485.02 L298.433 1485.02 L298.433 1488.96 L278.525 1488.96 L278.525 1485.02 Z" fill="#000000" fill-rule="evenodd" fill-opacity="1"></path><path clip-path="url(#clip370)" d="M317.877 1457.48 Q314.266 1457.48 312.437 1461.04 Q310.632 1464.58 310.632 1471.71 Q310.632 1478.82 312.437 1482.38 Q314.266 1485.92 317.877 1485.92 Q321.511 1485.92 323.317 1482.38 Q325.145 1478.82 325.145 1471.71 Q325.145 1464.58 323.317 1461.04 Q321.511 1457.48 317.877 1457.48 M317.877 1453.77 Q323.687 1453.77 326.743 1458.38 Q329.821 1462.96 329.821 1471.71 Q329.821 1480.44 326.743 1485.04 Q323.687 1489.63 317.877 1489.63 Q312.067 1489.63 308.988 1485.04 Q305.933 1480.44 305.933 1471.71 Q305.933 1462.96 308.988 1458.38 Q312.067 1453.77 317.877 1453.77 Z" fill="#000000" fill-rule="evenodd" fill-opacity="1"></path><path clip-path="url(#clip370)" d="M330.367 1458.35 L336.573 1458.35 L336.573 1436.93 L329.821 1438.28 L329.821 1434.82 L336.536 1433.47 L340.335 1433.47 L340.335 1458.35 L346.541 1458.35 L346.541 1461.55 L330.367 1461.55 L330.367 1458.35 Z" fill="#000000" fill-rule="evenodd" fill-opacity="1"></path><path clip-path="url(#clip370)" d="M1039.91 1485.02 L1047.55 1485.02 L1047.55 1458.66 L1039.24 1460.32 L1039.24 1456.06 L1047.5 1454.4 L1052.18 1454.4 L1052.18 1485.02 L1059.82 1485.02 L1059.82 1488.96 L1039.91 1488.96 L1039.91 1485.02 Z" fill="#000000" fill-rule="evenodd" fill-opacity="1"></path><path clip-path="url(#clip370)" d="M1079.26 1457.48 Q1075.65 1457.48 1073.82 1461.04 Q1072.02 1464.58 1072.02 1471.71 Q1072.02 1478.82 1073.82 1482.38 Q1075.65 1485.92 1079.26 1485.92 Q1082.9 1485.92 1084.7 1482.38 Q1086.53 1478.82 1086.53 1471.71 Q1086.53 1464.58 1084.7 1461.04 Q1082.9 1457.48 1079.26 1457.48 M1079.26 1453.77 Q1085.07 1453.77 1088.13 1458.38 Q1091.21 1462.96 1091.21 1471.71 Q1091.21 1480.44 1088.13 1485.04 Q1085.07 1489.63 1079.26 1489.63 Q1073.45 1489.63 1070.37 1485.04 Q1067.32 1480.44 1067.32 1471.71 Q1067.32 1462.96 1070.37 1458.38 Q1073.45 1453.77 1079.26 1453.77 Z" fill="#000000" fill-rule="evenodd" fill-opacity="1"></path><path clip-path="url(#clip370)" d="M1095.78 1458.35 L1109.04 1458.35 L1109.04 1461.55 L1091.21 1461.55 L1091.21 1458.35 Q1093.37 1456.11 1097.09 1452.35 Q1100.84 1448.57 1101.8 1447.48 Q1103.62 1445.43 1104.34 1444.02 Q1105.07 1442.59 1105.07 1441.22 Q1105.07 1438.98 1103.49 1437.57 Q1101.93 1436.16 1099.41 1436.16 Q1097.62 1436.16 1095.63 1436.78 Q1093.65 1437.4 1091.4 1438.66 L1091.4 1434.82 Q1093.69 1433.9 1095.68 1433.43 Q1097.68 1432.96 1099.33 1432.96 Q1103.7 1432.96 1106.29 1435.14 Q1108.89 1437.32 1108.89 1440.97 Q1108.89 1442.7 1108.23 1444.26 Q1107.59 1445.8 1105.88 1447.91 Q1105.41 1448.46 1102.89 1451.07 Q1100.37 1453.67 1095.78 1458.35 Z" fill="#000000" fill-rule="evenodd" fill-opacity="1"></path><path clip-path="url(#clip370)" d="M1801.52 1485.02 L1809.16 1485.02 L1809.16 1458.66 L1800.85 1460.32 L1800.85 1456.06 L1809.12 1454.4 L1813.79 1454.4 L1813.79 1485.02 L1821.43 1485.02 L1821.43 1488.96 L1801.52 1488.96 L1801.52 1485.02 Z" fill="#000000" fill-rule="evenodd" fill-opacity="1"></path><path clip-path="url(#clip370)" d="M1840.88 1457.48 Q1837.26 1457.48 1835.44 1461.04 Q1833.63 1464.58 1833.63 1471.71 Q1833.63 1478.82 1835.44 1482.38 Q1837.26 1485.92 1840.88 1485.92 Q1844.51 1485.92 1846.32 1482.38 Q1848.14 1478.82 1848.14 1471.71 Q1848.14 1464.58 1846.32 1461.04 Q1844.51 1457.48 1840.88 1457.48 M1840.88 1453.77 Q1846.69 1453.77 1849.74 1458.38 Q1852.82 1462.96 1852.82 1471.71 Q1852.82 1480.44 1849.74 1485.04 Q1846.69 1489.63 1840.88 1489.63 Q1835.07 1489.63 1831.99 1485.04 Q1828.93 1480.44 1828.93 1471.71 Q1828.93 1462.96 1831.99 1458.38 Q1835.07 1453.77 1840.88 1453.77 Z" fill="#000000" fill-rule="evenodd" fill-opacity="1"></path><path clip-path="url(#clip370)" d="M1865.52 1446.41 Q1868.24 1446.99 1869.77 1448.83 Q1871.31 1450.68 1871.31 1453.38 Q1871.31 1457.54 1868.45 1459.82 Q1865.59 1462.09 1860.32 1462.09 Q1858.56 1462.09 1856.68 1461.73 Q1854.81 1461.4 1852.82 1460.7 L1852.82 1457.03 Q1854.4 1457.95 1856.28 1458.42 Q1858.16 1458.89 1860.21 1458.89 Q1863.78 1458.89 1865.65 1457.48 Q1867.53 1456.07 1867.53 1453.38 Q1867.53 1450.9 1865.78 1449.51 Q1864.05 1448.1 1860.94 1448.1 L1857.67 1448.1 L1857.67 1444.98 L1861.1 1444.98 Q1863.9 1444.98 1865.38 1443.87 Q1866.87 1442.74 1866.87 1440.63 Q1866.87 1438.47 1865.33 1437.32 Q1863.8 1436.16 1860.94 1436.16 Q1859.38 1436.16 1857.6 1436.49 Q1855.81 1436.83 1853.67 1437.55 L1853.67 1434.16 Q1855.83 1433.56 1857.71 1433.26 Q1859.61 1432.96 1861.28 1432.96 Q1865.61 1432.96 1868.13 1434.93 Q1870.65 1436.89 1870.65 1440.24 Q1870.65 1442.57 1869.31 1444.19 Q1867.98 1445.79 1865.52 1446.41 Z" fill="#000000" fill-rule="evenodd" fill-opacity="1"></path><path clip-path="url(#clip370)" d="M1072.42 1526.67 L1082 1526.67 L1094.12 1559 L1106.31 1526.67 L1115.89 1526.67 L1115.89 1574.19 L1109.62 1574.19 L1109.62 1532.46 L1097.37 1565.05 L1090.91 1565.05 L1078.66 1532.46 L1078.66 1574.19 L1072.42 1574.19 L1072.42 1526.67 Z" fill="#000000" fill-rule="evenodd" fill-opacity="1"></path><path clip-path="url(#clip370)" d="M1144.6 1556.27 Q1137.51 1556.27 1134.77 1557.89 Q1132.03 1559.51 1132.03 1563.43 Q1132.03 1566.55 1134.07 1568.39 Q1136.14 1570.21 1139.67 1570.21 Q1144.54 1570.21 1147.47 1566.77 Q1150.43 1563.3 1150.43 1557.57 L1150.43 1556.27 L1144.6 1556.27 M1156.29 1553.85 L1156.29 1574.19 L1150.43 1574.19 L1150.43 1568.77 Q1148.42 1572.02 1145.43 1573.58 Q1142.44 1575.11 1138.11 1575.11 Q1132.64 1575.11 1129.39 1572.05 Q1126.18 1568.97 1126.18 1563.81 Q1126.18 1557.79 1130.19 1554.74 Q1134.23 1551.68 1142.22 1551.68 L1150.43 1551.68 L1150.43 1551.11 Q1150.43 1547.07 1147.75 1544.87 Q1145.11 1542.64 1140.31 1542.64 Q1137.25 1542.64 1134.36 1543.38 Q1131.46 1544.11 1128.79 1545.57 L1128.79 1540.16 Q1132 1538.92 1135.02 1538.31 Q1138.05 1537.68 1140.91 1537.68 Q1148.65 1537.68 1152.47 1541.69 Q1156.29 1545.7 1156.29 1553.85 Z" fill="#000000" fill-rule="evenodd" fill-opacity="1"></path><path clip-path="url(#clip370)" d="M1174.14 1528.42 L1174.14 1538.54 L1186.2 1538.54 L1186.2 1543.09 L1174.14 1543.09 L1174.14 1562.44 Q1174.14 1566.8 1175.32 1568.04 Q1176.53 1569.28 1180.19 1569.28 L1186.2 1569.28 L1186.2 1574.19 L1180.19 1574.19 Q1173.41 1574.19 1170.83 1571.67 Q1168.25 1569.12 1168.25 1562.44 L1168.25 1543.09 L1163.96 1543.09 L1163.96 1538.54 L1168.25 1538.54 L1168.25 1528.42 L1174.14 1528.42 Z" fill="#000000" fill-rule="evenodd" fill-opacity="1"></path><path clip-path="url(#clip370)" d="M1214.56 1544.01 Q1213.58 1543.44 1212.4 1543.18 Q1211.25 1542.9 1209.85 1542.9 Q1204.89 1542.9 1202.21 1546.14 Q1199.57 1549.36 1199.57 1555.41 L1199.57 1574.19 L1193.68 1574.19 L1193.68 1538.54 L1199.57 1538.54 L1199.57 1544.08 Q1201.42 1540.83 1204.38 1539.27 Q1207.34 1537.68 1211.57 1537.68 Q1212.18 1537.68 1212.91 1537.77 Q1213.64 1537.84 1214.53 1538 L1214.56 1544.01 Z" fill="#000000" fill-rule="evenodd" fill-opacity="1"></path><path clip-path="url(#clip370)" d="M1220.71 1538.54 L1226.56 1538.54 L1226.56 1574.19 L1220.71 1574.19 L1220.71 1538.54 M1220.71 1524.66 L1226.56 1524.66 L1226.56 1532.08 L1220.71 1532.08 L1220.71 1524.66 Z" fill="#000000" fill-rule="evenodd" fill-opacity="1"></path><path clip-path="url(#clip370)" d="M1268.45 1538.54 L1255.56 1555.88 L1269.12 1574.19 L1262.21 1574.19 L1251.83 1560.18 L1241.46 1574.19 L1234.55 1574.19 L1248.4 1555.53 L1235.73 1538.54 L1242.64 1538.54 L1252.09 1551.24 L1261.54 1538.54 L1268.45 1538.54 Z" fill="#000000" fill-rule="evenodd" fill-opacity="1"></path><path clip-path="url(#clip370)" d="M1320.84 1539.59 L1320.84 1545.13 Q1318.36 1543.85 1315.68 1543.22 Q1313.01 1542.58 1310.14 1542.58 Q1305.78 1542.58 1303.59 1543.92 Q1301.42 1545.25 1301.42 1547.93 Q1301.42 1549.96 1302.98 1551.14 Q1304.54 1552.29 1309.25 1553.34 L1311.26 1553.78 Q1317.5 1555.12 1320.11 1557.57 Q1322.75 1559.99 1322.75 1564.35 Q1322.75 1569.32 1318.8 1572.21 Q1314.89 1575.11 1308.01 1575.11 Q1305.15 1575.11 1302.03 1574.54 Q1298.94 1573.99 1295.5 1572.88 L1295.5 1566.83 Q1298.75 1568.52 1301.9 1569.38 Q1305.05 1570.21 1308.14 1570.21 Q1312.28 1570.21 1314.5 1568.81 Q1316.73 1567.37 1316.73 1564.8 Q1316.73 1562.41 1315.11 1561.14 Q1313.52 1559.86 1308.08 1558.68 L1306.04 1558.21 Q1300.6 1557.06 1298.18 1554.71 Q1295.76 1552.32 1295.76 1548.18 Q1295.76 1543.15 1299.32 1540.42 Q1302.89 1537.68 1309.44 1537.68 Q1312.69 1537.68 1315.55 1538.16 Q1318.42 1538.63 1320.84 1539.59 Z" fill="#000000" fill-rule="evenodd" fill-opacity="1"></path><path clip-path="url(#clip370)" d="M1332.07 1538.54 L1337.93 1538.54 L1337.93 1574.19 L1332.07 1574.19 L1332.07 1538.54 M1332.07 1524.66 L1337.93 1524.66 L1337.93 1532.08 L1332.07 1532.08 L1332.07 1524.66 Z" fill="#000000" fill-rule="evenodd" fill-opacity="1"></path><path clip-path="url(#clip370)" d="M1347.64 1538.54 L1375.46 1538.54 L1375.46 1543.88 L1353.43 1569.51 L1375.46 1569.51 L1375.46 1574.19 L1346.84 1574.19 L1346.84 1568.84 L1368.87 1543.22 L1347.64 1543.22 L1347.64 1538.54 Z" fill="#000000" fill-rule="evenodd" fill-opacity="1"></path><path clip-path="url(#clip370)" d="M1414.89 1554.9 L1414.89 1557.76 L1387.96 1557.76 Q1388.35 1563.81 1391.59 1566.99 Q1394.87 1570.14 1400.7 1570.14 Q1404.07 1570.14 1407.22 1569.32 Q1410.4 1568.49 1413.52 1566.83 L1413.52 1572.37 Q1410.37 1573.71 1407.06 1574.41 Q1403.75 1575.11 1400.35 1575.11 Q1391.82 1575.11 1386.82 1570.14 Q1381.85 1565.18 1381.85 1556.71 Q1381.85 1547.96 1386.56 1542.83 Q1391.31 1537.68 1399.33 1537.68 Q1406.52 1537.68 1410.69 1542.33 Q1414.89 1546.94 1414.89 1554.9 M1409.04 1553.18 Q1408.97 1548.37 1406.33 1545.51 Q1403.72 1542.64 1399.39 1542.64 Q1394.49 1542.64 1391.53 1545.41 Q1388.6 1548.18 1388.16 1553.21 L1409.04 1553.18 Z" fill="#000000" fill-rule="evenodd" fill-opacity="1"></path><path clip-path="url(#clip370)" d="M1459.29 1524.72 Q1455.03 1532.04 1452.96 1539.21 Q1450.89 1546.37 1450.89 1553.72 Q1450.89 1561.07 1452.96 1568.3 Q1455.06 1575.49 1459.29 1582.78 L1454.2 1582.78 Q1449.43 1575.3 1447.04 1568.07 Q1444.68 1560.85 1444.68 1553.72 Q1444.68 1546.62 1447.04 1539.43 Q1449.39 1532.24 1454.2 1524.72 L1459.29 1524.72 Z" fill="#000000" fill-rule="evenodd" fill-opacity="1"></path><path clip-path="url(#clip370)" d="M1470.91 1526.67 L1479.57 1526.67 L1500.64 1566.42 L1500.64 1526.67 L1506.88 1526.67 L1506.88 1574.19 L1498.22 1574.19 L1477.15 1534.43 L1477.15 1574.19 L1470.91 1574.19 L1470.91 1526.67 Z" fill="#000000" fill-rule="evenodd" fill-opacity="1"></path><path clip-path="url(#clip370)" d="M1518.49 1524.72 L1523.59 1524.72 Q1528.36 1532.24 1530.72 1539.43 Q1533.1 1546.62 1533.1 1553.72 Q1533.1 1560.85 1530.72 1568.07 Q1528.36 1575.3 1523.59 1582.78 L1518.49 1582.78 Q1522.73 1575.49 1524.8 1568.3 Q1526.9 1561.07 1526.9 1553.72 Q1526.9 1546.37 1524.8 1539.21 Q1522.73 1532.04 1518.49 1524.72 Z" fill="#000000" fill-rule="evenodd" fill-opacity="1"></path><polyline clip-path="url(#clip372)" style="stroke:#000000; stroke-linecap:round; stroke-linejoin:round; stroke-width:2; stroke-opacity:0.1; fill:none" points="
  252.764,1278.93 2352.76,1278.93 
  "></polyline>
<polyline clip-path="url(#clip372)" style="stroke:#000000; stroke-linecap:round; stroke-linejoin:round; stroke-width:2; stroke-opacity:0.1; fill:none" points="
  252.764,997.227 2352.76,997.227 
  "></polyline>
<polyline clip-path="url(#clip372)" style="stroke:#000000; stroke-linecap:round; stroke-linejoin:round; stroke-width:2; stroke-opacity:0.1; fill:none" points="
  252.764,715.528 2352.76,715.528 
  "></polyline>
<polyline clip-path="url(#clip372)" style="stroke:#000000; stroke-linecap:round; stroke-linejoin:round; stroke-width:2; stroke-opacity:0.1; fill:none" points="
  252.764,433.829 2352.76,433.829 
  "></polyline>
<polyline clip-path="url(#clip372)" style="stroke:#000000; stroke-linecap:round; stroke-linejoin:round; stroke-width:2; stroke-opacity:0.1; fill:none" points="
  252.764,152.13 2352.76,152.13 
  "></polyline>
<polyline clip-path="url(#clip370)" style="stroke:#000000; stroke-linecap:round; stroke-linejoin:round; stroke-width:4; stroke-opacity:1; fill:none" points="
  252.764,1410.9 252.764,123.472 
  "></polyline>
<polyline clip-path="url(#clip370)" style="stroke:#000000; stroke-linecap:round; stroke-linejoin:round; stroke-width:4; stroke-opacity:1; fill:none" points="
  252.764,1278.93 271.662,1278.93 
  "></polyline>
<polyline clip-path="url(#clip370)" style="stroke:#000000; stroke-linecap:round; stroke-linejoin:round; stroke-width:4; stroke-opacity:1; fill:none" points="
  252.764,997.227 271.662,997.227 
  "></polyline>
<polyline clip-path="url(#clip370)" style="stroke:#000000; stroke-linecap:round; stroke-linejoin:round; stroke-width:4; stroke-opacity:1; fill:none" points="
  252.764,715.528 271.662,715.528 
  "></polyline>
<polyline clip-path="url(#clip370)" style="stroke:#000000; stroke-linecap:round; stroke-linejoin:round; stroke-width:4; stroke-opacity:1; fill:none" points="
  252.764,433.829 271.662,433.829 
  "></polyline>
<polyline clip-path="url(#clip370)" style="stroke:#000000; stroke-linecap:round; stroke-linejoin:round; stroke-width:4; stroke-opacity:1; fill:none" points="
  252.764,152.13 271.662,152.13 
  "></polyline>
<path clip-path="url(#clip370)" d="M115.195 1298.72 L122.834 1298.72 L122.834 1272.35 L114.523 1274.02 L114.523 1269.76 L122.787 1268.09 L127.463 1268.09 L127.463 1298.72 L135.102 1298.72 L135.102 1302.65 L115.195 1302.65 L115.195 1298.72 Z" fill="#000000" fill-rule="evenodd" fill-opacity="1"></path><path clip-path="url(#clip370)" d="M154.546 1271.17 Q150.935 1271.17 149.107 1274.74 Q147.301 1278.28 147.301 1285.41 Q147.301 1292.52 149.107 1296.08 Q150.935 1299.62 154.546 1299.62 Q158.181 1299.62 159.986 1296.08 Q161.815 1292.52 161.815 1285.41 Q161.815 1278.28 159.986 1274.74 Q158.181 1271.17 154.546 1271.17 M154.546 1267.47 Q160.357 1267.47 163.412 1272.08 Q166.491 1276.66 166.491 1285.41 Q166.491 1294.14 163.412 1298.74 Q160.357 1303.33 154.546 1303.33 Q148.736 1303.33 145.658 1298.74 Q142.602 1294.14 142.602 1285.41 Q142.602 1276.66 145.658 1272.08 Q148.736 1267.47 154.546 1267.47 Z" fill="#000000" fill-rule="evenodd" fill-opacity="1"></path><path clip-path="url(#clip370)" d="M166.491 1261.57 L190.602 1261.57 L190.602 1264.77 L166.491 1264.77 L166.491 1261.57 Z" fill="#000000" fill-rule="evenodd" fill-opacity="1"></path><path clip-path="url(#clip370)" d="M207.398 1259.69 Q204.84 1259.69 203.335 1261.44 Q201.849 1263.19 201.849 1266.23 Q201.849 1269.26 203.335 1271.03 Q204.84 1272.78 207.398 1272.78 Q209.956 1272.78 211.441 1271.03 Q212.946 1269.26 212.946 1266.23 Q212.946 1263.19 211.441 1261.44 Q209.956 1259.69 207.398 1259.69 M214.94 1247.78 L214.94 1251.24 Q213.51 1250.57 212.043 1250.21 Q210.595 1249.85 209.166 1249.85 Q205.404 1249.85 203.41 1252.39 Q201.436 1254.93 201.153 1260.07 Q202.263 1258.43 203.937 1257.56 Q205.611 1256.68 207.623 1256.68 Q211.855 1256.68 214.3 1259.26 Q216.764 1261.81 216.764 1266.23 Q216.764 1270.56 214.206 1273.17 Q211.648 1275.79 207.398 1275.79 Q202.526 1275.79 199.95 1272.06 Q197.373 1268.32 197.373 1261.23 Q197.373 1254.57 200.533 1250.62 Q203.693 1246.66 209.015 1246.66 Q210.445 1246.66 211.893 1246.94 Q213.36 1247.22 214.94 1247.78 Z" fill="#000000" fill-rule="evenodd" fill-opacity="1"></path><path clip-path="url(#clip370)" d="M116.135 1017.02 L123.774 1017.02 L123.774 990.654 L115.464 992.321 L115.464 988.062 L123.728 986.395 L128.404 986.395 L128.404 1017.02 L136.042 1017.02 L136.042 1020.95 L116.135 1020.95 L116.135 1017.02 Z" fill="#000000" fill-rule="evenodd" fill-opacity="1"></path><path clip-path="url(#clip370)" d="M155.487 989.474 Q151.876 989.474 150.047 993.038 Q148.241 996.58 148.241 1003.71 Q148.241 1010.82 150.047 1014.38 Q151.876 1017.92 155.487 1017.92 Q159.121 1017.92 160.927 1014.38 Q162.755 1010.82 162.755 1003.71 Q162.755 996.58 160.927 993.038 Q159.121 989.474 155.487 989.474 M155.487 985.77 Q161.297 985.77 164.352 990.376 Q167.431 994.96 167.431 1003.71 Q167.431 1012.44 164.352 1017.04 Q161.297 1021.63 155.487 1021.63 Q149.677 1021.63 146.598 1017.04 Q143.542 1012.44 143.542 1003.71 Q143.542 994.96 146.598 990.376 Q149.677 985.77 155.487 985.77 Z" fill="#000000" fill-rule="evenodd" fill-opacity="1"></path><path clip-path="url(#clip370)" d="M167.431 979.871 L191.543 979.871 L191.543 983.069 L167.431 983.069 L167.431 979.871 Z" fill="#000000" fill-rule="evenodd" fill-opacity="1"></path><path clip-path="url(#clip370)" d="M199.781 965.464 L214.695 965.464 L214.695 968.662 L203.26 968.662 L203.26 975.545 Q204.088 975.263 204.915 975.132 Q205.743 974.981 206.57 974.981 Q211.272 974.981 214.018 977.558 Q216.764 980.135 216.764 984.536 Q216.764 989.068 213.943 991.588 Q211.122 994.09 205.987 994.09 Q204.219 994.09 202.376 993.789 Q200.552 993.488 198.596 992.886 L198.596 989.068 Q200.288 989.99 202.094 990.441 Q203.899 990.893 205.912 990.893 Q209.166 990.893 211.065 989.181 Q212.965 987.47 212.965 984.536 Q212.965 981.602 211.065 979.89 Q209.166 978.179 205.912 978.179 Q204.388 978.179 202.865 978.517 Q201.36 978.856 199.781 979.57 L199.781 965.464 Z" fill="#000000" fill-rule="evenodd" fill-opacity="1"></path><path clip-path="url(#clip370)" d="M114.931 735.321 L122.57 735.321 L122.57 708.955 L114.26 710.622 L114.26 706.363 L122.524 704.696 L127.2 704.696 L127.2 735.321 L134.839 735.321 L134.839 739.256 L114.931 739.256 L114.931 735.321 Z" fill="#000000" fill-rule="evenodd" fill-opacity="1"></path><path clip-path="url(#clip370)" d="M154.283 707.775 Q150.672 707.775 148.843 711.339 Q147.038 714.881 147.038 722.011 Q147.038 729.117 148.843 732.682 Q150.672 736.224 154.283 736.224 Q157.917 736.224 159.723 732.682 Q161.552 729.117 161.552 722.011 Q161.552 714.881 159.723 711.339 Q157.917 707.775 154.283 707.775 M154.283 704.071 Q160.093 704.071 163.149 708.677 Q166.227 713.261 166.227 722.011 Q166.227 730.737 163.149 735.344 Q160.093 739.927 154.283 739.927 Q148.473 739.927 145.394 735.344 Q142.339 730.737 142.339 722.011 Q142.339 713.261 145.394 708.677 Q148.473 704.071 154.283 704.071 Z" fill="#000000" fill-rule="evenodd" fill-opacity="1"></path><path clip-path="url(#clip370)" d="M166.227 698.172 L190.339 698.172 L190.339 701.37 L166.227 701.37 L166.227 698.172 Z" fill="#000000" fill-rule="evenodd" fill-opacity="1"></path><path clip-path="url(#clip370)" d="M208.978 687.076 L199.386 702.065 L208.978 702.065 L208.978 687.076 M207.981 683.766 L212.758 683.766 L212.758 702.065 L216.764 702.065 L216.764 705.225 L212.758 705.225 L212.758 711.846 L208.978 711.846 L208.978 705.225 L196.301 705.225 L196.301 701.558 L207.981 683.766 Z" fill="#000000" fill-rule="evenodd" fill-opacity="1"></path><path clip-path="url(#clip370)" d="M115.853 453.622 L123.492 453.622 L123.492 427.256 L115.182 428.923 L115.182 424.664 L123.446 422.997 L128.121 422.997 L128.121 453.622 L135.76 453.622 L135.76 457.557 L115.853 457.557 L115.853 453.622 Z" fill="#000000" fill-rule="evenodd" fill-opacity="1"></path><path clip-path="url(#clip370)" d="M155.205 426.076 Q151.594 426.076 149.765 429.64 Q147.959 433.182 147.959 440.312 Q147.959 447.418 149.765 450.983 Q151.594 454.525 155.205 454.525 Q158.839 454.525 160.644 450.983 Q162.473 447.418 162.473 440.312 Q162.473 433.182 160.644 429.64 Q158.839 426.076 155.205 426.076 M155.205 422.372 Q161.015 422.372 164.07 426.978 Q167.149 431.562 167.149 440.312 Q167.149 449.038 164.07 453.645 Q161.015 458.228 155.205 458.228 Q149.395 458.228 146.316 453.645 Q143.26 449.038 143.26 440.312 Q143.26 431.562 146.316 426.978 Q149.395 422.372 155.205 422.372 Z" fill="#000000" fill-rule="evenodd" fill-opacity="1"></path><path clip-path="url(#clip370)" d="M167.149 416.473 L191.261 416.473 L191.261 419.671 L167.149 419.671 L167.149 416.473 Z" fill="#000000" fill-rule="evenodd" fill-opacity="1"></path><path clip-path="url(#clip370)" d="M210.971 415.006 Q213.698 415.589 215.222 417.433 Q216.764 419.276 216.764 421.984 Q216.764 426.141 213.905 428.416 Q211.046 430.692 205.78 430.692 Q204.012 430.692 202.132 430.335 Q200.27 429.996 198.276 429.3 L198.276 425.633 Q199.856 426.554 201.737 427.024 Q203.617 427.495 205.667 427.495 Q209.241 427.495 211.103 426.084 Q212.984 424.674 212.984 421.984 Q212.984 419.501 211.234 418.11 Q209.504 416.699 206.401 416.699 L203.128 416.699 L203.128 413.577 L206.551 413.577 Q209.354 413.577 210.84 412.467 Q212.325 411.339 212.325 409.232 Q212.325 407.069 210.783 405.922 Q209.26 404.756 206.401 404.756 Q204.84 404.756 203.053 405.095 Q201.266 405.433 199.122 406.148 L199.122 402.762 Q201.285 402.161 203.166 401.86 Q205.066 401.559 206.739 401.559 Q211.065 401.559 213.585 403.534 Q216.106 405.49 216.106 408.837 Q216.106 411.17 214.77 412.787 Q213.435 414.386 210.971 415.006 Z" fill="#000000" fill-rule="evenodd" fill-opacity="1"></path><path clip-path="url(#clip370)" d="M116.624 171.923 L124.263 171.923 L124.263 145.557 L115.953 147.224 L115.953 142.965 L124.217 141.298 L128.893 141.298 L128.893 171.923 L136.531 171.923 L136.531 175.858 L116.624 175.858 L116.624 171.923 Z" fill="#000000" fill-rule="evenodd" fill-opacity="1"></path><path clip-path="url(#clip370)" d="M155.976 144.377 Q152.365 144.377 150.536 147.941 Q148.73 151.483 148.73 158.613 Q148.73 165.719 150.536 169.284 Q152.365 172.826 155.976 172.826 Q159.61 172.826 161.416 169.284 Q163.244 165.719 163.244 158.613 Q163.244 151.483 161.416 147.941 Q159.61 144.377 155.976 144.377 M155.976 140.673 Q161.786 140.673 164.841 145.279 Q167.92 149.863 167.92 158.613 Q167.92 167.34 164.841 171.946 Q161.786 176.529 155.976 176.529 Q150.166 176.529 147.087 171.946 Q144.031 167.34 144.031 158.613 Q144.031 149.863 147.087 145.279 Q150.166 140.673 155.976 140.673 Z" fill="#000000" fill-rule="evenodd" fill-opacity="1"></path><path clip-path="url(#clip370)" d="M167.92 134.774 L192.032 134.774 L192.032 137.972 L167.92 137.972 L167.92 134.774 Z" fill="#000000" fill-rule="evenodd" fill-opacity="1"></path><path clip-path="url(#clip370)" d="M203.504 145.25 L216.764 145.25 L216.764 148.448 L198.934 148.448 L198.934 145.25 Q201.097 143.012 204.821 139.251 Q208.564 135.47 209.523 134.379 Q211.347 132.329 212.062 130.919 Q212.796 129.489 212.796 128.116 Q212.796 125.878 211.216 124.468 Q209.655 123.057 207.134 123.057 Q205.348 123.057 203.354 123.678 Q201.379 124.298 199.122 125.559 L199.122 121.722 Q201.417 120.8 203.41 120.33 Q205.404 119.86 207.059 119.86 Q211.423 119.86 214.018 122.041 Q216.613 124.223 216.613 127.872 Q216.613 129.602 215.955 131.163 Q215.316 132.705 213.604 134.812 Q213.134 135.357 210.614 137.972 Q208.094 140.567 203.504 145.25 Z" fill="#000000" fill-rule="evenodd" fill-opacity="1"></path><path clip-path="url(#clip370)" d="M20.1444 1071.97 L26.9239 1071.97 Q23.9002 1075.22 22.4043 1078.91 Q20.9083 1082.57 20.9083 1086.71 Q20.9083 1094.86 25.9054 1099.19 Q30.8707 1103.52 40.2919 1103.52 Q49.6813 1103.52 54.6784 1099.19 Q59.6436 1094.86 59.6436 1086.71 Q59.6436 1082.57 58.1477 1078.91 Q56.6518 1075.22 53.6281 1071.97 L60.3439 1071.97 Q62.6355 1075.35 63.7814 1079.14 Q64.9272 1082.89 64.9272 1087.09 Q64.9272 1097.88 58.3387 1104.09 Q51.7183 1110.3 40.2919 1110.3 Q28.8336 1110.3 22.2451 1104.09 Q15.6248 1097.88 15.6248 1087.09 Q15.6248 1082.83 16.7706 1079.07 Q17.8846 1075.28 20.1444 1071.97 Z" fill="#000000" fill-rule="evenodd" fill-opacity="1"></path><path clip-path="url(#clip370)" d="M32.4621 1048.48 Q32.4621 1053.2 36.1542 1055.93 Q39.8145 1058.67 46.212 1058.67 Q52.6095 1058.67 56.3017 1055.96 Q59.9619 1053.23 59.9619 1048.48 Q59.9619 1043.81 56.2698 1041.07 Q52.5777 1038.33 46.212 1038.33 Q39.8781 1038.33 36.186 1041.07 Q32.4621 1043.81 32.4621 1048.48 M27.4968 1048.48 Q27.4968 1040.85 32.4621 1036.49 Q37.4273 1032.13 46.212 1032.13 Q54.9649 1032.13 59.9619 1036.49 Q64.9272 1040.85 64.9272 1048.48 Q64.9272 1056.16 59.9619 1060.52 Q54.9649 1064.84 46.212 1064.84 Q37.4273 1064.84 32.4621 1060.52 Q27.4968 1056.16 27.4968 1048.48 Z" fill="#000000" fill-rule="evenodd" fill-opacity="1"></path><path clip-path="url(#clip370)" d="M35.1993 994.663 Q31.2526 992.467 29.3747 989.411 Q27.4968 986.356 27.4968 982.218 Q27.4968 976.648 31.4117 973.624 Q35.2948 970.601 42.4881 970.601 L64.0042 970.601 L64.0042 976.489 L42.679 976.489 Q37.5546 976.489 35.072 978.303 Q32.5894 980.117 32.5894 983.841 Q32.5894 988.393 35.6131 991.034 Q38.6368 993.676 43.8567 993.676 L64.0042 993.676 L64.0042 999.565 L42.679 999.565 Q37.5228 999.565 35.072 1001.38 Q32.5894 1003.19 32.5894 1006.98 Q32.5894 1011.47 35.6449 1014.11 Q38.6686 1016.75 43.8567 1016.75 L64.0042 1016.75 L64.0042 1022.64 L28.3562 1022.64 L28.3562 1016.75 L33.8944 1016.75 Q30.616 1014.75 29.0564 1011.95 Q27.4968 1009.14 27.4968 1005.29 Q27.4968 1001.41 29.4702 998.705 Q31.4436 995.968 35.1993 994.663 Z" fill="#000000" fill-rule="evenodd" fill-opacity="1"></path><path clip-path="url(#clip370)" d="M58.657 953.254 L77.5631 953.254 L77.5631 959.142 L28.3562 959.142 L28.3562 953.254 L33.7671 953.254 Q30.5842 951.408 29.0564 948.607 Q27.4968 945.774 27.4968 941.859 Q27.4968 935.366 32.6531 931.324 Q37.8093 927.25 46.212 927.25 Q54.6147 927.25 59.771 931.324 Q64.9272 935.366 64.9272 941.859 Q64.9272 945.774 63.3994 948.607 Q61.8398 951.408 58.657 953.254 M46.212 933.329 Q39.7508 933.329 36.0905 936.003 Q32.3984 938.645 32.3984 943.292 Q32.3984 947.939 36.0905 950.612 Q39.7508 953.254 46.212 953.254 Q52.6732 953.254 56.3653 950.612 Q60.0256 947.939 60.0256 943.292 Q60.0256 938.645 56.3653 936.003 Q52.6732 933.329 46.212 933.329 Z" fill="#000000" fill-rule="evenodd" fill-opacity="1"></path><path clip-path="url(#clip370)" d="M49.9359 918.147 L28.3562 918.147 L28.3562 912.291 L49.7131 912.291 Q54.7739 912.291 57.3202 910.317 Q59.8346 908.344 59.8346 904.397 Q59.8346 899.655 56.8109 896.917 Q53.7872 894.148 48.5673 894.148 L28.3562 894.148 L28.3562 888.292 L64.0042 888.292 L64.0042 894.148 L58.5296 894.148 Q61.7762 896.281 63.3676 899.114 Q64.9272 901.915 64.9272 905.639 Q64.9272 911.781 61.1078 914.964 Q57.2883 918.147 49.9359 918.147 M27.4968 903.411 L27.4968 903.411 Z" fill="#000000" fill-rule="evenodd" fill-opacity="1"></path><path clip-path="url(#clip370)" d="M18.2347 870.436 L28.3562 870.436 L28.3562 858.373 L32.9077 858.373 L32.9077 870.436 L52.2594 870.436 Q56.6199 870.436 57.8613 869.258 Q59.1026 868.049 59.1026 864.389 L59.1026 858.373 L64.0042 858.373 L64.0042 864.389 Q64.0042 871.168 61.4897 873.746 Q58.9434 876.324 52.2594 876.324 L32.9077 876.324 L32.9077 880.621 L28.3562 880.621 L28.3562 876.324 L18.2347 876.324 L18.2347 870.436 Z" fill="#000000" fill-rule="evenodd" fill-opacity="1"></path><path clip-path="url(#clip370)" d="M46.0847 834.47 Q46.0847 841.568 47.7079 844.305 Q49.3312 847.042 53.2461 847.042 Q56.3653 847.042 58.2114 845.005 Q60.0256 842.936 60.0256 839.403 Q60.0256 834.534 56.5881 831.605 Q53.1188 828.645 47.3897 828.645 L46.0847 828.645 L46.0847 834.47 M43.6657 822.789 L64.0042 822.789 L64.0042 828.645 L58.5933 828.645 Q61.8398 830.65 63.3994 833.642 Q64.9272 836.634 64.9272 840.963 Q64.9272 846.437 61.8716 849.684 Q58.7843 852.899 53.6281 852.899 Q47.6125 852.899 44.5569 848.888 Q41.5014 844.846 41.5014 836.857 L41.5014 828.645 L40.9285 828.645 Q36.8862 828.645 34.6901 831.319 Q32.4621 833.961 32.4621 838.767 Q32.4621 841.822 33.1941 844.719 Q33.9262 847.615 35.3903 850.289 L29.9795 850.289 Q28.7381 847.074 28.1334 844.05 Q27.4968 841.027 27.4968 838.162 Q27.4968 830.428 31.5072 826.608 Q35.5176 822.789 43.6657 822.789 Z" fill="#000000" fill-rule="evenodd" fill-opacity="1"></path><path clip-path="url(#clip370)" d="M18.2347 804.933 L28.3562 804.933 L28.3562 792.87 L32.9077 792.87 L32.9077 804.933 L52.2594 804.933 Q56.6199 804.933 57.8613 803.755 Q59.1026 802.546 59.1026 798.886 L59.1026 792.87 L64.0042 792.87 L64.0042 798.886 Q64.0042 805.665 61.4897 808.243 Q58.9434 810.821 52.2594 810.821 L32.9077 810.821 L32.9077 815.118 L28.3562 815.118 L28.3562 810.821 L18.2347 810.821 L18.2347 804.933 Z" fill="#000000" fill-rule="evenodd" fill-opacity="1"></path><path clip-path="url(#clip370)" d="M28.3562 785.168 L28.3562 779.311 L64.0042 779.311 L64.0042 785.168 L28.3562 785.168 M14.479 785.168 L14.479 779.311 L21.895 779.311 L21.895 785.168 L14.479 785.168 Z" fill="#000000" fill-rule="evenodd" fill-opacity="1"></path><path clip-path="url(#clip370)" d="M32.4621 753.243 Q32.4621 757.954 36.1542 760.691 Q39.8145 763.429 46.212 763.429 Q52.6095 763.429 56.3017 760.723 Q59.9619 757.986 59.9619 753.243 Q59.9619 748.565 56.2698 745.827 Q52.5777 743.09 46.212 743.09 Q39.8781 743.09 36.186 745.827 Q32.4621 748.565 32.4621 753.243 M27.4968 753.243 Q27.4968 745.605 32.4621 741.244 Q37.4273 736.884 46.212 736.884 Q54.9649 736.884 59.9619 741.244 Q64.9272 745.605 64.9272 753.243 Q64.9272 760.914 59.9619 765.275 Q54.9649 769.603 46.212 769.603 Q37.4273 769.603 32.4621 765.275 Q27.4968 760.914 27.4968 753.243 Z" fill="#000000" fill-rule="evenodd" fill-opacity="1"></path><path clip-path="url(#clip370)" d="M42.4881 697.544 L64.0042 697.544 L64.0042 703.4 L42.679 703.4 Q37.6183 703.4 35.1038 705.373 Q32.5894 707.347 32.5894 711.293 Q32.5894 716.036 35.6131 718.773 Q38.6368 721.51 43.8567 721.51 L64.0042 721.51 L64.0042 727.399 L28.3562 727.399 L28.3562 721.51 L33.8944 721.51 Q30.6797 719.41 29.0883 716.577 Q27.4968 713.712 27.4968 709.989 Q27.4968 703.846 31.3163 700.695 Q35.1038 697.544 42.4881 697.544 Z" fill="#000000" fill-rule="evenodd" fill-opacity="1"></path><path clip-path="url(#clip370)" d="M18.2347 659.349 L28.3562 659.349 L28.3562 647.286 L32.9077 647.286 L32.9077 659.349 L52.2594 659.349 Q56.6199 659.349 57.8613 658.172 Q59.1026 656.962 59.1026 653.302 L59.1026 647.286 L64.0042 647.286 L64.0042 653.302 Q64.0042 660.081 61.4897 662.659 Q58.9434 665.238 52.2594 665.238 L32.9077 665.238 L32.9077 669.534 L28.3562 669.534 L28.3562 665.238 L18.2347 665.238 L18.2347 659.349 Z" fill="#000000" fill-rule="evenodd" fill-opacity="1"></path><path clip-path="url(#clip370)" d="M28.3562 639.584 L28.3562 633.727 L64.0042 633.727 L64.0042 639.584 L28.3562 639.584 M14.479 639.584 L14.479 633.727 L21.895 633.727 L21.895 639.584 L14.479 639.584 Z" fill="#000000" fill-rule="evenodd" fill-opacity="1"></path><path clip-path="url(#clip370)" d="M35.1993 593.719 Q31.2526 591.523 29.3747 588.467 Q27.4968 585.412 27.4968 581.274 Q27.4968 575.704 31.4117 572.68 Q35.2948 569.657 42.4881 569.657 L64.0042 569.657 L64.0042 575.545 L42.679 575.545 Q37.5546 575.545 35.072 577.359 Q32.5894 579.173 32.5894 582.897 Q32.5894 587.449 35.6131 590.09 Q38.6368 592.732 43.8567 592.732 L64.0042 592.732 L64.0042 598.62 L42.679 598.62 Q37.5228 598.62 35.072 600.435 Q32.5894 602.249 32.5894 606.037 Q32.5894 610.524 35.6449 613.166 Q38.6686 615.808 43.8567 615.808 L64.0042 615.808 L64.0042 621.696 L28.3562 621.696 L28.3562 615.808 L33.8944 615.808 Q30.616 613.803 29.0564 611.002 Q27.4968 608.201 27.4968 604.35 Q27.4968 600.467 29.4702 597.761 Q31.4436 595.024 35.1993 593.719 Z" fill="#000000" fill-rule="evenodd" fill-opacity="1"></path><path clip-path="url(#clip370)" d="M44.7161 527.484 L47.5806 527.484 L47.5806 554.411 Q53.6281 554.029 56.8109 550.782 Q59.9619 547.504 59.9619 541.679 Q59.9619 538.305 59.1344 535.154 Q58.3069 531.972 56.6518 528.852 L62.1899 528.852 Q63.5267 532.003 64.227 535.314 Q64.9272 538.624 64.9272 542.029 Q64.9272 550.559 59.9619 555.556 Q54.9967 560.522 46.5303 560.522 Q37.7774 560.522 32.6531 555.811 Q27.4968 551.069 27.4968 543.048 Q27.4968 535.855 32.1438 531.685 Q36.7589 527.484 44.7161 527.484 M42.9973 533.34 Q38.1912 533.404 35.3266 536.046 Q32.4621 538.656 32.4621 542.984 Q32.4621 547.886 35.2312 550.846 Q38.0002 553.774 43.0292 554.22 L42.9973 533.34 Z" fill="#000000" fill-rule="evenodd" fill-opacity="1"></path><path clip-path="url(#clip370)" d="M14.5426 483.083 Q21.8632 487.348 29.0246 489.417 Q36.186 491.486 43.5384 491.486 Q50.8908 491.486 58.1159 489.417 Q65.3091 487.316 72.5979 483.083 L72.5979 488.175 Q65.1182 492.95 57.8931 495.337 Q50.668 497.692 43.5384 497.692 Q36.4406 497.692 29.2474 495.337 Q22.0542 492.982 14.5426 488.175 L14.5426 483.083 Z" fill="#000000" fill-rule="evenodd" fill-opacity="1"></path><path clip-path="url(#clip370)" d="M29.4065 448.995 L34.9447 448.995 Q33.6716 451.477 33.035 454.151 Q32.3984 456.824 32.3984 459.689 Q32.3984 464.049 33.7352 466.246 Q35.072 468.41 37.7456 468.41 Q39.7826 468.41 40.9603 466.85 Q42.1061 465.291 43.1565 460.58 L43.6021 458.575 Q44.9389 452.337 47.3897 449.727 Q49.8086 447.085 54.1691 447.085 Q59.1344 447.085 62.0308 451.032 Q64.9272 454.946 64.9272 461.821 Q64.9272 464.686 64.3543 467.805 Q63.8132 470.893 62.6992 474.33 L56.6518 474.33 Q58.3387 471.084 59.198 467.933 Q60.0256 464.781 60.0256 461.694 Q60.0256 457.556 58.6251 455.328 Q57.1929 453.1 54.6147 453.1 Q52.2276 453.1 50.9545 454.724 Q49.6813 456.315 48.5037 461.758 L48.0262 463.795 Q46.8804 469.237 44.5251 471.656 Q42.138 474.075 38.0002 474.075 Q32.9713 474.075 30.2341 470.511 Q27.4968 466.946 27.4968 460.389 Q27.4968 457.143 27.9743 454.278 Q28.4517 451.414 29.4065 448.995 Z" fill="#000000" fill-rule="evenodd" fill-opacity="1"></path><path clip-path="url(#clip370)" d="M14.5426 438.682 L14.5426 433.59 Q22.0542 428.815 29.2474 426.46 Q36.4406 424.073 43.5384 424.073 Q50.668 424.073 57.8931 426.46 Q65.1182 428.815 72.5979 433.59 L72.5979 438.682 Q65.3091 434.449 58.1159 432.38 Q50.8908 430.279 43.5384 430.279 Q36.186 430.279 29.0246 432.38 Q21.8632 434.449 14.5426 438.682 Z" fill="#000000" fill-rule="evenodd" fill-opacity="1"></path><path clip-path="url(#clip370)" d="M709.444 43.6931 L709.444 65.8515 L722.569 65.8515 Q729.172 65.8515 732.332 63.1374 Q735.532 60.3828 735.532 54.752 Q735.532 49.0808 732.332 46.4072 Q729.172 43.6931 722.569 43.6931 L709.444 43.6931 M709.444 18.8205 L709.444 37.0496 L721.556 37.0496 Q727.552 37.0496 730.468 34.8216 Q733.426 32.5531 733.426 27.935 Q733.426 23.3575 730.468 21.089 Q727.552 18.8205 721.556 18.8205 L709.444 18.8205 M701.261 12.096 L722.164 12.096 Q731.522 12.096 736.585 15.9849 Q741.649 19.8737 741.649 27.0438 Q741.649 32.5936 739.056 35.8748 Q736.464 39.156 731.441 39.9662 Q737.476 41.2625 740.798 45.3944 Q744.16 49.4858 744.16 55.6432 Q744.16 63.745 738.651 68.1605 Q733.142 72.576 722.974 72.576 L701.261 72.576 L701.261 12.096 Z" fill="#000000" fill-rule="evenodd" fill-opacity="1"></path><path clip-path="url(#clip370)" d="M778.472 49.7694 Q769.438 49.7694 765.954 51.8354 Q762.471 53.9013 762.471 58.8839 Q762.471 62.8538 765.063 65.2034 Q767.696 67.5124 772.193 67.5124 Q778.391 67.5124 782.117 63.1374 Q785.885 58.7219 785.885 51.4303 L785.885 49.7694 L778.472 49.7694 M793.338 46.6907 L793.338 72.576 L785.885 72.576 L785.885 65.6895 Q783.333 69.8214 779.525 71.8063 Q775.717 73.7508 770.208 73.7508 Q763.24 73.7508 759.108 69.8619 Q755.017 65.9325 755.017 59.3701 Q755.017 51.7138 760.121 47.825 Q765.266 43.9361 775.433 43.9361 L785.885 43.9361 L785.885 43.2069 Q785.885 38.0623 782.482 35.2672 Q779.12 32.4315 773.003 32.4315 Q769.114 32.4315 765.428 33.3632 Q761.741 34.295 758.339 36.1584 L758.339 29.2718 Q762.43 27.692 766.278 26.9223 Q770.127 26.1121 773.773 26.1121 Q783.616 26.1121 788.477 31.2163 Q793.338 36.3204 793.338 46.6907 Z" fill="#000000" fill-rule="evenodd" fill-opacity="1"></path><path clip-path="url(#clip370)" d="M841.342 28.9478 L841.342 35.9153 Q838.182 34.1734 834.982 33.3227 Q831.822 32.4315 828.581 32.4315 Q821.33 32.4315 817.32 37.0496 Q813.309 41.6271 813.309 49.9314 Q813.309 58.2358 817.32 62.8538 Q821.33 67.4314 828.581 67.4314 Q831.822 67.4314 834.982 66.5807 Q838.182 65.6895 841.342 63.9476 L841.342 70.8341 Q838.222 72.2924 834.86 73.0216 Q831.538 73.7508 827.771 73.7508 Q817.522 73.7508 811.487 67.3098 Q805.451 60.8689 805.451 49.9314 Q805.451 38.832 811.527 32.472 Q817.644 26.1121 828.257 26.1121 Q831.701 26.1121 834.982 26.8413 Q838.263 27.5299 841.342 28.9478 Z" fill="#000000" fill-rule="evenodd" fill-opacity="1"></path><path clip-path="url(#clip370)" d="M854.021 9.54393 L861.515 9.54393 L861.515 46.7717 L883.755 27.2059 L893.274 27.2059 L869.212 48.4326 L894.287 72.576 L884.565 72.576 L861.515 50.4176 L861.515 72.576 L854.021 72.576 L854.021 9.54393 Z" fill="#000000" fill-rule="evenodd" fill-opacity="1"></path><path clip-path="url(#clip370)" d="M931.272 28.5427 L931.272 35.5912 Q928.112 33.9709 924.709 33.1607 Q921.307 32.3505 917.661 32.3505 Q912.111 32.3505 909.316 34.0519 Q906.561 35.7533 906.561 39.156 Q906.561 41.7486 908.546 43.2475 Q910.531 44.7058 916.526 46.0426 L919.079 46.6097 Q927.018 48.3111 930.34 51.4303 Q933.702 54.509 933.702 60.0587 Q933.702 66.3781 928.679 70.0644 Q923.697 73.7508 914.947 73.7508 Q911.301 73.7508 907.331 73.0216 Q903.402 72.3329 899.027 70.9151 L899.027 63.2184 Q903.158 65.3654 907.169 66.4591 Q911.179 67.5124 915.109 67.5124 Q920.375 67.5124 923.21 65.73 Q926.046 63.9071 926.046 60.6258 Q926.046 57.5877 923.98 55.9673 Q921.955 54.3469 915.028 52.8481 L912.435 52.2405 Q905.508 50.7821 902.429 47.7845 Q899.351 44.7463 899.351 39.4801 Q899.351 33.0797 903.888 29.5959 Q908.425 26.1121 916.77 26.1121 Q920.901 26.1121 924.547 26.7198 Q928.193 27.3274 931.272 28.5427 Z" fill="#000000" fill-rule="evenodd" fill-opacity="1"></path><path clip-path="url(#clip370)" d="M945.571 9.54393 L953.025 9.54393 L953.025 72.576 L945.571 72.576 L945.571 9.54393 Z" fill="#000000" fill-rule="evenodd" fill-opacity="1"></path><path clip-path="url(#clip370)" d="M989.24 49.7694 Q980.207 49.7694 976.723 51.8354 Q973.239 53.9013 973.239 58.8839 Q973.239 62.8538 975.832 65.2034 Q978.465 67.5124 982.961 67.5124 Q989.159 67.5124 992.886 63.1374 Q996.653 58.7219 996.653 51.4303 L996.653 49.7694 L989.24 49.7694 M1004.11 46.6907 L1004.11 72.576 L996.653 72.576 L996.653 65.6895 Q994.101 69.8214 990.293 71.8063 Q986.486 73.7508 980.976 73.7508 Q974.009 73.7508 969.877 69.8619 Q965.785 65.9325 965.785 59.3701 Q965.785 51.7138 970.89 47.825 Q976.034 43.9361 986.202 43.9361 L996.653 43.9361 L996.653 43.2069 Q996.653 38.0623 993.251 35.2672 Q989.888 32.4315 983.771 32.4315 Q979.883 32.4315 976.196 33.3632 Q972.51 34.295 969.107 36.1584 L969.107 29.2718 Q973.199 27.692 977.047 26.9223 Q980.895 26.1121 984.541 26.1121 Q994.385 26.1121 999.246 31.2163 Q1004.11 36.3204 1004.11 46.6907 Z" fill="#000000" fill-rule="evenodd" fill-opacity="1"></path><path clip-path="url(#clip370)" d="M1048.38 28.5427 L1048.38 35.5912 Q1045.22 33.9709 1041.82 33.1607 Q1038.42 32.3505 1034.77 32.3505 Q1029.22 32.3505 1026.43 34.0519 Q1023.67 35.7533 1023.67 39.156 Q1023.67 41.7486 1025.66 43.2475 Q1027.64 44.7058 1033.64 46.0426 L1036.19 46.6097 Q1044.13 48.3111 1047.45 51.4303 Q1050.81 54.509 1050.81 60.0587 Q1050.81 66.3781 1045.79 70.0644 Q1040.81 73.7508 1032.06 73.7508 Q1028.41 73.7508 1024.44 73.0216 Q1020.51 72.3329 1016.14 70.9151 L1016.14 63.2184 Q1020.27 65.3654 1024.28 66.4591 Q1028.29 67.5124 1032.22 67.5124 Q1037.49 67.5124 1040.32 65.73 Q1043.16 63.9071 1043.16 60.6258 Q1043.16 57.5877 1041.09 55.9673 Q1039.07 54.3469 1032.14 52.8481 L1029.55 52.2405 Q1022.62 50.7821 1019.54 47.7845 Q1016.46 44.7463 1016.46 39.4801 Q1016.46 33.0797 1021 29.5959 Q1025.54 26.1121 1033.88 26.1121 Q1038.01 26.1121 1041.66 26.7198 Q1045.3 27.3274 1048.38 28.5427 Z" fill="#000000" fill-rule="evenodd" fill-opacity="1"></path><path clip-path="url(#clip370)" d="M1100.4 45.1919 L1100.4 72.576 L1092.94 72.576 L1092.94 45.4349 Q1092.94 38.994 1090.43 35.7938 Q1087.92 32.5936 1082.9 32.5936 Q1076.86 32.5936 1073.38 36.4419 Q1069.89 40.2903 1069.89 46.9338 L1069.89 72.576 L1062.4 72.576 L1062.4 9.54393 L1069.89 9.54393 L1069.89 34.2544 Q1072.57 30.163 1076.17 28.1376 Q1079.82 26.1121 1084.56 26.1121 Q1092.38 26.1121 1096.39 30.9732 Q1100.4 35.7938 1100.4 45.1919 Z" fill="#000000" fill-rule="evenodd" fill-opacity="1"></path><path clip-path="url(#clip370)" d="M1170.56 28.5427 L1170.56 35.5912 Q1167.4 33.9709 1164 33.1607 Q1160.59 32.3505 1156.95 32.3505 Q1151.4 32.3505 1148.6 34.0519 Q1145.85 35.7533 1145.85 39.156 Q1145.85 41.7486 1147.83 43.2475 Q1149.82 44.7058 1155.81 46.0426 L1158.37 46.6097 Q1166.31 48.3111 1169.63 51.4303 Q1172.99 54.509 1172.99 60.0587 Q1172.99 66.3781 1167.97 70.0644 Q1162.98 73.7508 1154.23 73.7508 Q1150.59 73.7508 1146.62 73.0216 Q1142.69 72.3329 1138.31 70.9151 L1138.31 63.2184 Q1142.45 65.3654 1146.46 66.4591 Q1150.47 67.5124 1154.4 67.5124 Q1159.66 67.5124 1162.5 65.73 Q1165.33 63.9071 1165.33 60.6258 Q1165.33 57.5877 1163.27 55.9673 Q1161.24 54.3469 1154.31 52.8481 L1151.72 52.2405 Q1144.79 50.7821 1141.72 47.7845 Q1138.64 44.7463 1138.64 39.4801 Q1138.64 33.0797 1143.17 29.5959 Q1147.71 26.1121 1156.06 26.1121 Q1160.19 26.1121 1163.83 26.7198 Q1167.48 27.3274 1170.56 28.5427 Z" fill="#000000" fill-rule="evenodd" fill-opacity="1"></path><path clip-path="url(#clip370)" d="M1202.44 32.4315 Q1196.44 32.4315 1192.96 37.1306 Q1189.48 41.7891 1189.48 49.9314 Q1189.48 58.0738 1192.92 62.7728 Q1196.4 67.4314 1202.44 67.4314 Q1208.39 67.4314 1211.88 62.7323 Q1215.36 58.0333 1215.36 49.9314 Q1215.36 41.8701 1211.88 37.1711 Q1208.39 32.4315 1202.44 32.4315 M1202.44 26.1121 Q1212.16 26.1121 1217.71 32.4315 Q1223.26 38.7509 1223.26 49.9314 Q1223.26 61.0714 1217.71 67.4314 Q1212.16 73.7508 1202.44 73.7508 Q1192.68 73.7508 1187.13 67.4314 Q1181.62 61.0714 1181.62 49.9314 Q1181.62 38.7509 1187.13 32.4315 Q1192.68 26.1121 1202.44 26.1121 Z" fill="#000000" fill-rule="evenodd" fill-opacity="1"></path><path clip-path="url(#clip370)" d="M1235.62 9.54393 L1243.07 9.54393 L1243.07 72.576 L1235.62 72.576 L1235.62 9.54393 Z" fill="#000000" fill-rule="evenodd" fill-opacity="1"></path><path clip-path="url(#clip370)" d="M1253.32 27.2059 L1261.22 27.2059 L1275.4 65.2844 L1289.57 27.2059 L1297.47 27.2059 L1280.46 72.576 L1270.33 72.576 L1253.32 27.2059 Z" fill="#000000" fill-rule="evenodd" fill-opacity="1"></path><path clip-path="url(#clip370)" d="M1346.57 48.0275 L1346.57 51.6733 L1312.3 51.6733 Q1312.79 59.3701 1316.92 63.421 Q1321.09 67.4314 1328.5 67.4314 Q1332.8 67.4314 1336.81 66.3781 Q1340.86 65.3249 1344.83 63.2184 L1344.83 70.267 Q1340.82 71.9684 1336.61 72.8596 Q1332.39 73.7508 1328.06 73.7508 Q1317.2 73.7508 1310.84 67.4314 Q1304.52 61.1119 1304.52 50.3365 Q1304.52 39.1965 1310.52 32.6746 Q1316.55 26.1121 1326.76 26.1121 Q1335.92 26.1121 1341.22 32.0264 Q1346.57 37.9003 1346.57 48.0275 M1339.12 45.84 Q1339.04 39.7232 1335.67 36.0774 Q1332.35 32.4315 1326.84 32.4315 Q1320.6 32.4315 1316.84 35.9558 Q1313.11 39.4801 1312.54 45.8805 L1339.12 45.84 Z" fill="#000000" fill-rule="evenodd" fill-opacity="1"></path><path clip-path="url(#clip370)" d="M1392.39 65.7705 L1392.39 89.8329 L1384.89 89.8329 L1384.89 27.2059 L1392.39 27.2059 L1392.39 34.0924 Q1394.74 30.0415 1398.3 28.0971 Q1401.91 26.1121 1406.89 26.1121 Q1415.15 26.1121 1420.3 32.6746 Q1425.48 39.2371 1425.48 49.9314 Q1425.48 60.6258 1420.3 67.1883 Q1415.15 73.7508 1406.89 73.7508 Q1401.91 73.7508 1398.3 71.8063 Q1394.74 69.8214 1392.39 65.7705 M1417.74 49.9314 Q1417.74 41.7081 1414.34 37.0496 Q1410.98 32.3505 1405.07 32.3505 Q1399.15 32.3505 1395.75 37.0496 Q1392.39 41.7081 1392.39 49.9314 Q1392.39 58.1548 1395.75 62.8538 Q1399.15 67.5124 1405.07 67.5124 Q1410.98 67.5124 1414.34 62.8538 Q1417.74 58.1548 1417.74 49.9314 Z" fill="#000000" fill-rule="evenodd" fill-opacity="1"></path><path clip-path="url(#clip370)" d="M1476.64 48.0275 L1476.64 51.6733 L1442.37 51.6733 Q1442.86 59.3701 1446.99 63.421 Q1451.16 67.4314 1458.58 67.4314 Q1462.87 67.4314 1466.88 66.3781 Q1470.93 65.3249 1474.9 63.2184 L1474.9 70.267 Q1470.89 71.9684 1466.68 72.8596 Q1462.47 73.7508 1458.13 73.7508 Q1447.28 73.7508 1440.92 67.4314 Q1434.6 61.1119 1434.6 50.3365 Q1434.6 39.1965 1440.59 32.6746 Q1446.63 26.1121 1456.84 26.1121 Q1465.99 26.1121 1471.3 32.0264 Q1476.64 37.9003 1476.64 48.0275 M1469.19 45.84 Q1469.11 39.7232 1465.75 36.0774 Q1462.43 32.4315 1456.92 32.4315 Q1450.68 32.4315 1446.91 35.9558 Q1443.18 39.4801 1442.62 45.8805 L1469.19 45.84 Z" fill="#000000" fill-rule="evenodd" fill-opacity="1"></path><path clip-path="url(#clip370)" d="M1515.17 34.1734 Q1513.91 33.4443 1512.41 33.1202 Q1510.96 32.7556 1509.17 32.7556 Q1502.85 32.7556 1499.45 36.8875 Q1496.09 40.9789 1496.09 48.6757 L1496.09 72.576 L1488.6 72.576 L1488.6 27.2059 L1496.09 27.2059 L1496.09 34.2544 Q1498.44 30.1225 1502.21 28.1376 Q1505.97 26.1121 1511.36 26.1121 Q1512.13 26.1121 1513.06 26.2337 Q1513.99 26.3147 1515.13 26.5172 L1515.17 34.1734 Z" fill="#000000" fill-rule="evenodd" fill-opacity="1"></path><path clip-path="url(#clip370)" d="M1545.96 9.54393 L1545.96 15.7418 L1538.83 15.7418 Q1534.82 15.7418 1533.24 17.3622 Q1531.7 18.9825 1531.7 23.1955 L1531.7 27.2059 L1543.97 27.2059 L1543.97 32.9987 L1531.7 32.9987 L1531.7 72.576 L1524.2 72.576 L1524.2 32.9987 L1517.07 32.9987 L1517.07 27.2059 L1524.2 27.2059 L1524.2 24.0462 Q1524.2 16.471 1527.73 13.0277 Q1531.25 9.54393 1538.91 9.54393 L1545.96 9.54393 Z" fill="#000000" fill-rule="evenodd" fill-opacity="1"></path><path clip-path="url(#clip370)" d="M1569.78 32.4315 Q1563.78 32.4315 1560.3 37.1306 Q1556.81 41.7891 1556.81 49.9314 Q1556.81 58.0738 1560.26 62.7728 Q1563.74 67.4314 1569.78 67.4314 Q1575.73 67.4314 1579.21 62.7323 Q1582.7 58.0333 1582.7 49.9314 Q1582.7 41.8701 1579.21 37.1711 Q1575.73 32.4315 1569.78 32.4315 M1569.78 26.1121 Q1579.5 26.1121 1585.05 32.4315 Q1590.6 38.7509 1590.6 49.9314 Q1590.6 61.0714 1585.05 67.4314 Q1579.5 73.7508 1569.78 73.7508 Q1560.01 73.7508 1554.46 67.4314 Q1548.95 61.0714 1548.95 49.9314 Q1548.95 38.7509 1554.46 32.4315 Q1560.01 26.1121 1569.78 26.1121 Z" fill="#000000" fill-rule="evenodd" fill-opacity="1"></path><path clip-path="url(#clip370)" d="M1629.24 34.1734 Q1627.99 33.4443 1626.49 33.1202 Q1625.03 32.7556 1623.25 32.7556 Q1616.93 32.7556 1613.53 36.8875 Q1610.16 40.9789 1610.16 48.6757 L1610.16 72.576 L1602.67 72.576 L1602.67 27.2059 L1610.16 27.2059 L1610.16 34.2544 Q1612.51 30.1225 1616.28 28.1376 Q1620.05 26.1121 1625.43 26.1121 Q1626.2 26.1121 1627.14 26.2337 Q1628.07 26.3147 1629.2 26.5172 L1629.24 34.1734 Z" fill="#000000" fill-rule="evenodd" fill-opacity="1"></path><path clip-path="url(#clip370)" d="M1670.93 35.9153 Q1673.72 30.8922 1677.61 28.5022 Q1681.5 26.1121 1686.77 26.1121 Q1693.85 26.1121 1697.7 31.0947 Q1701.55 36.0368 1701.55 45.1919 L1701.55 72.576 L1694.06 72.576 L1694.06 45.4349 Q1694.06 38.913 1691.75 35.7533 Q1689.44 32.5936 1684.7 32.5936 Q1678.91 32.5936 1675.54 36.4419 Q1672.18 40.2903 1672.18 46.9338 L1672.18 72.576 L1664.69 72.576 L1664.69 45.4349 Q1664.69 38.8725 1662.38 35.7533 Q1660.07 32.5936 1655.25 32.5936 Q1649.54 32.5936 1646.18 36.4824 Q1642.81 40.3308 1642.81 46.9338 L1642.81 72.576 L1635.32 72.576 L1635.32 27.2059 L1642.81 27.2059 L1642.81 34.2544 Q1645.37 30.082 1648.93 28.0971 Q1652.49 26.1121 1657.4 26.1121 Q1662.34 26.1121 1665.78 28.6237 Q1669.27 31.1352 1670.93 35.9153 Z" fill="#000000" fill-rule="evenodd" fill-opacity="1"></path><path clip-path="url(#clip370)" d="M1737.04 49.7694 Q1728 49.7694 1724.52 51.8354 Q1721.04 53.9013 1721.04 58.8839 Q1721.04 62.8538 1723.63 65.2034 Q1726.26 67.5124 1730.76 67.5124 Q1736.96 67.5124 1740.68 63.1374 Q1744.45 58.7219 1744.45 51.4303 L1744.45 49.7694 L1737.04 49.7694 M1751.9 46.6907 L1751.9 72.576 L1744.45 72.576 L1744.45 65.6895 Q1741.9 69.8214 1738.09 71.8063 Q1734.28 73.7508 1728.77 73.7508 Q1721.81 73.7508 1717.67 69.8619 Q1713.58 65.9325 1713.58 59.3701 Q1713.58 51.7138 1718.69 47.825 Q1723.83 43.9361 1734 43.9361 L1744.45 43.9361 L1744.45 43.2069 Q1744.45 38.0623 1741.05 35.2672 Q1737.69 32.4315 1731.57 32.4315 Q1727.68 32.4315 1723.99 33.3632 Q1720.31 34.295 1716.9 36.1584 L1716.9 29.2718 Q1721 27.692 1724.84 26.9223 Q1728.69 26.1121 1732.34 26.1121 Q1742.18 26.1121 1747.04 31.2163 Q1751.9 36.3204 1751.9 46.6907 Z" fill="#000000" fill-rule="evenodd" fill-opacity="1"></path><path clip-path="url(#clip370)" d="M1804.97 45.1919 L1804.97 72.576 L1797.52 72.576 L1797.52 45.4349 Q1797.52 38.994 1795.01 35.7938 Q1792.49 32.5936 1787.47 32.5936 Q1781.44 32.5936 1777.95 36.4419 Q1774.47 40.2903 1774.47 46.9338 L1774.47 72.576 L1766.97 72.576 L1766.97 27.2059 L1774.47 27.2059 L1774.47 34.2544 Q1777.14 30.163 1780.75 28.1376 Q1784.39 26.1121 1789.13 26.1121 Q1796.95 26.1121 1800.96 30.9732 Q1804.97 35.7938 1804.97 45.1919 Z" fill="#000000" fill-rule="evenodd" fill-opacity="1"></path><path clip-path="url(#clip370)" d="M1852.49 28.9478 L1852.49 35.9153 Q1849.33 34.1734 1846.13 33.3227 Q1842.97 32.4315 1839.73 32.4315 Q1832.48 32.4315 1828.47 37.0496 Q1824.46 41.6271 1824.46 49.9314 Q1824.46 58.2358 1828.47 62.8538 Q1832.48 67.4314 1839.73 67.4314 Q1842.97 67.4314 1846.13 66.5807 Q1849.33 65.6895 1852.49 63.9476 L1852.49 70.8341 Q1849.37 72.2924 1846.01 73.0216 Q1842.68 73.7508 1838.92 73.7508 Q1828.67 73.7508 1822.63 67.3098 Q1816.6 60.8689 1816.6 49.9314 Q1816.6 38.832 1822.67 32.472 Q1828.79 26.1121 1839.4 26.1121 Q1842.85 26.1121 1846.13 26.8413 Q1849.41 27.5299 1852.49 28.9478 Z" fill="#000000" fill-rule="evenodd" fill-opacity="1"></path><path clip-path="url(#clip370)" d="M1904.26 48.0275 L1904.26 51.6733 L1869.99 51.6733 Q1870.47 59.3701 1874.61 63.421 Q1878.78 67.4314 1886.19 67.4314 Q1890.49 67.4314 1894.5 66.3781 Q1898.55 65.3249 1902.52 63.2184 L1902.52 70.267 Q1898.51 71.9684 1894.29 72.8596 Q1890.08 73.7508 1885.75 73.7508 Q1874.89 73.7508 1868.53 67.4314 Q1862.21 61.1119 1862.21 50.3365 Q1862.21 39.1965 1868.21 32.6746 Q1874.24 26.1121 1884.45 26.1121 Q1893.6 26.1121 1898.91 32.0264 Q1904.26 37.9003 1904.26 48.0275 M1896.8 45.84 Q1896.72 39.7232 1893.36 36.0774 Q1890.04 32.4315 1884.53 32.4315 Q1878.29 32.4315 1874.52 35.9558 Q1870.8 39.4801 1870.23 45.8805 L1896.8 45.84 Z" fill="#000000" fill-rule="evenodd" fill-opacity="1"></path><polyline clip-path="url(#clip372)" style="stroke:#009af9; stroke-linecap:round; stroke-linejoin:round; stroke-width:4; stroke-opacity:1; fill:none" points="
  312.198,1251.63 467.725,1284.18 628.383,1255.71 770.932,1216.41 926.459,1181.97 1074.14,1141.18 1227.59,1088.3 1379.98,1035.86 1532.05,941.654 1683.71,936.579 
  1836.08,781.907 1988.49,817.833 2140.87,513.118 2293.32,627.584 
  "></polyline>
<circle clip-path="url(#clip372)" cx="312.198" cy="1251.63" r="14.4" fill="#009af9" fill-rule="evenodd" fill-opacity="1" stroke="#000000" stroke-opacity="1" stroke-width="3.2"></circle>
<circle clip-path="url(#clip372)" cx="467.725" cy="1284.18" r="14.4" fill="#009af9" fill-rule="evenodd" fill-opacity="1" stroke="#000000" stroke-opacity="1" stroke-width="3.2"></circle>
<circle clip-path="url(#clip372)" cx="628.383" cy="1255.71" r="14.4" fill="#009af9" fill-rule="evenodd" fill-opacity="1" stroke="#000000" stroke-opacity="1" stroke-width="3.2"></circle>
<circle clip-path="url(#clip372)" cx="770.932" cy="1216.41" r="14.4" fill="#009af9" fill-rule="evenodd" fill-opacity="1" stroke="#000000" stroke-opacity="1" stroke-width="3.2"></circle>
<circle clip-path="url(#clip372)" cx="926.459" cy="1181.97" r="14.4" fill="#009af9" fill-rule="evenodd" fill-opacity="1" stroke="#000000" stroke-opacity="1" stroke-width="3.2"></circle>
<circle clip-path="url(#clip372)" cx="1074.14" cy="1141.18" r="14.4" fill="#009af9" fill-rule="evenodd" fill-opacity="1" stroke="#000000" stroke-opacity="1" stroke-width="3.2"></circle>
<circle clip-path="url(#clip372)" cx="1227.59" cy="1088.3" r="14.4" fill="#009af9" fill-rule="evenodd" fill-opacity="1" stroke="#000000" stroke-opacity="1" stroke-width="3.2"></circle>
<circle clip-path="url(#clip372)" cx="1379.98" cy="1035.86" r="14.4" fill="#009af9" fill-rule="evenodd" fill-opacity="1" stroke="#000000" stroke-opacity="1" stroke-width="3.2"></circle>
<circle clip-path="url(#clip372)" cx="1532.05" cy="941.654" r="14.4" fill="#009af9" fill-rule="evenodd" fill-opacity="1" stroke="#000000" stroke-opacity="1" stroke-width="3.2"></circle>
<circle clip-path="url(#clip372)" cx="1683.71" cy="936.579" r="14.4" fill="#009af9" fill-rule="evenodd" fill-opacity="1" stroke="#000000" stroke-opacity="1" stroke-width="3.2"></circle>
<circle clip-path="url(#clip372)" cx="1836.08" cy="781.907" r="14.4" fill="#009af9" fill-rule="evenodd" fill-opacity="1" stroke="#000000" stroke-opacity="1" stroke-width="3.2"></circle>
<circle clip-path="url(#clip372)" cx="1988.49" cy="817.833" r="14.4" fill="#009af9" fill-rule="evenodd" fill-opacity="1" stroke="#000000" stroke-opacity="1" stroke-width="3.2"></circle>
<circle clip-path="url(#clip372)" cx="2140.87" cy="513.118" r="14.4" fill="#009af9" fill-rule="evenodd" fill-opacity="1" stroke="#000000" stroke-opacity="1" stroke-width="3.2"></circle>
<circle clip-path="url(#clip372)" cx="2293.32" cy="627.584" r="14.4" fill="#009af9" fill-rule="evenodd" fill-opacity="1" stroke="#000000" stroke-opacity="1" stroke-width="3.2"></circle>
<polyline clip-path="url(#clip372)" style="stroke:#009af9; stroke-linecap:round; stroke-linejoin:round; stroke-width:4; stroke-opacity:1; fill:none" points="
  312.198,1321.17 467.725,1232.8 628.383,1226.02 770.932,1171.01 926.459,1040.86 1074.14,1141.18 1227.59,1093.78 1379.98,953.538 1532.05,787.193 1683.71,894.444 
  1836.08,833.636 1988.49,779.992 2140.87,727.234 2293.32,677.648 
  "></polyline>
<circle clip-path="url(#clip372)" cx="312.198" cy="1321.17" r="14.4" fill="#009af9" fill-rule="evenodd" fill-opacity="1" stroke="#000000" stroke-opacity="1" stroke-width="3.2"></circle>
<circle clip-path="url(#clip372)" cx="467.725" cy="1232.8" r="14.4" fill="#009af9" fill-rule="evenodd" fill-opacity="1" stroke="#000000" stroke-opacity="1" stroke-width="3.2"></circle>
<circle clip-path="url(#clip372)" cx="628.383" cy="1226.02" r="14.4" fill="#009af9" fill-rule="evenodd" fill-opacity="1" stroke="#000000" stroke-opacity="1" stroke-width="3.2"></circle>
<circle clip-path="url(#clip372)" cx="770.932" cy="1171.01" r="14.4" fill="#009af9" fill-rule="evenodd" fill-opacity="1" stroke="#000000" stroke-opacity="1" stroke-width="3.2"></circle>
<circle clip-path="url(#clip372)" cx="926.459" cy="1040.86" r="14.4" fill="#009af9" fill-rule="evenodd" fill-opacity="1" stroke="#000000" stroke-opacity="1" stroke-width="3.2"></circle>
<circle clip-path="url(#clip372)" cx="1074.14" cy="1141.18" r="14.4" fill="#009af9" fill-rule="evenodd" fill-opacity="1" stroke="#000000" stroke-opacity="1" stroke-width="3.2"></circle>
<circle clip-path="url(#clip372)" cx="1227.59" cy="1093.78" r="14.4" fill="#009af9" fill-rule="evenodd" fill-opacity="1" stroke="#000000" stroke-opacity="1" stroke-width="3.2"></circle>
<circle clip-path="url(#clip372)" cx="1379.98" cy="953.538" r="14.4" fill="#009af9" fill-rule="evenodd" fill-opacity="1" stroke="#000000" stroke-opacity="1" stroke-width="3.2"></circle>
<circle clip-path="url(#clip372)" cx="1532.05" cy="787.193" r="14.4" fill="#009af9" fill-rule="evenodd" fill-opacity="1" stroke="#000000" stroke-opacity="1" stroke-width="3.2"></circle>
<circle clip-path="url(#clip372)" cx="1683.71" cy="894.444" r="14.4" fill="#009af9" fill-rule="evenodd" fill-opacity="1" stroke="#000000" stroke-opacity="1" stroke-width="3.2"></circle>
<circle clip-path="url(#clip372)" cx="1836.08" cy="833.636" r="14.4" fill="#009af9" fill-rule="evenodd" fill-opacity="1" stroke="#000000" stroke-opacity="1" stroke-width="3.2"></circle>
<circle clip-path="url(#clip372)" cx="1988.49" cy="779.992" r="14.4" fill="#009af9" fill-rule="evenodd" fill-opacity="1" stroke="#000000" stroke-opacity="1" stroke-width="3.2"></circle>
<circle clip-path="url(#clip372)" cx="2140.87" cy="727.234" r="14.4" fill="#009af9" fill-rule="evenodd" fill-opacity="1" stroke="#000000" stroke-opacity="1" stroke-width="3.2"></circle>
<circle clip-path="url(#clip372)" cx="2293.32" cy="677.648" r="14.4" fill="#009af9" fill-rule="evenodd" fill-opacity="1" stroke="#000000" stroke-opacity="1" stroke-width="3.2"></circle>
<polyline clip-path="url(#clip372)" style="stroke:#009af9; stroke-linecap:round; stroke-linejoin:round; stroke-width:4; stroke-opacity:1; fill:none" points="
  312.198,1301.28 467.725,1269.17 628.383,591.307 770.932,1219.53 926.459,577.03 1074.14,1093.81 1227.59,1077.02 1379.98,988.847 1532.05,959.017 1683.71,905.011 
  1836.08,348.032 1988.49,650.042 2140.87,649.834 2293.32,645.876 
  "></polyline>
<circle clip-path="url(#clip372)" cx="312.198" cy="1301.28" r="14.4" fill="#009af9" fill-rule="evenodd" fill-opacity="1" stroke="#000000" stroke-opacity="1" stroke-width="3.2"></circle>
<circle clip-path="url(#clip372)" cx="467.725" cy="1269.17" r="14.4" fill="#009af9" fill-rule="evenodd" fill-opacity="1" stroke="#000000" stroke-opacity="1" stroke-width="3.2"></circle>
<circle clip-path="url(#clip372)" cx="628.383" cy="591.307" r="14.4" fill="#009af9" fill-rule="evenodd" fill-opacity="1" stroke="#000000" stroke-opacity="1" stroke-width="3.2"></circle>
<circle clip-path="url(#clip372)" cx="770.932" cy="1219.53" r="14.4" fill="#009af9" fill-rule="evenodd" fill-opacity="1" stroke="#000000" stroke-opacity="1" stroke-width="3.2"></circle>
<circle clip-path="url(#clip372)" cx="926.459" cy="577.03" r="14.4" fill="#009af9" fill-rule="evenodd" fill-opacity="1" stroke="#000000" stroke-opacity="1" stroke-width="3.2"></circle>
<circle clip-path="url(#clip372)" cx="1074.14" cy="1093.81" r="14.4" fill="#009af9" fill-rule="evenodd" fill-opacity="1" stroke="#000000" stroke-opacity="1" stroke-width="3.2"></circle>
<circle clip-path="url(#clip372)" cx="1227.59" cy="1077.02" r="14.4" fill="#009af9" fill-rule="evenodd" fill-opacity="1" stroke="#000000" stroke-opacity="1" stroke-width="3.2"></circle>
<circle clip-path="url(#clip372)" cx="1379.98" cy="988.847" r="14.4" fill="#009af9" fill-rule="evenodd" fill-opacity="1" stroke="#000000" stroke-opacity="1" stroke-width="3.2"></circle>
<circle clip-path="url(#clip372)" cx="1532.05" cy="959.017" r="14.4" fill="#009af9" fill-rule="evenodd" fill-opacity="1" stroke="#000000" stroke-opacity="1" stroke-width="3.2"></circle>
<circle clip-path="url(#clip372)" cx="1683.71" cy="905.011" r="14.4" fill="#009af9" fill-rule="evenodd" fill-opacity="1" stroke="#000000" stroke-opacity="1" stroke-width="3.2"></circle>
<circle clip-path="url(#clip372)" cx="1836.08" cy="348.032" r="14.4" fill="#009af9" fill-rule="evenodd" fill-opacity="1" stroke="#000000" stroke-opacity="1" stroke-width="3.2"></circle>
<circle clip-path="url(#clip372)" cx="1988.49" cy="650.042" r="14.4" fill="#009af9" fill-rule="evenodd" fill-opacity="1" stroke="#000000" stroke-opacity="1" stroke-width="3.2"></circle>
<circle clip-path="url(#clip372)" cx="2140.87" cy="649.834" r="14.4" fill="#009af9" fill-rule="evenodd" fill-opacity="1" stroke="#000000" stroke-opacity="1" stroke-width="3.2"></circle>
<circle clip-path="url(#clip372)" cx="2293.32" cy="645.876" r="14.4" fill="#009af9" fill-rule="evenodd" fill-opacity="1" stroke="#000000" stroke-opacity="1" stroke-width="3.2"></circle>
<polyline clip-path="url(#clip372)" style="stroke:#e26f46; stroke-linecap:round; stroke-linejoin:round; stroke-width:4; stroke-opacity:1; fill:none" points="
  312.198,1344.94 467.725,1344.73 628.383,1260.03 770.932,1255.81 926.459,1186.71 1074.14,1117.22 1227.59,905.732 1379.98,923.075 1532.05,798.91 1683.71,620.795 
  1836.08,370.606 1988.49,387.03 2140.87,228.189 2293.32,159.909 
  "></polyline>
<circle clip-path="url(#clip372)" cx="312.198" cy="1344.94" r="14.4" fill="#e26f46" fill-rule="evenodd" fill-opacity="1" stroke="#000000" stroke-opacity="1" stroke-width="3.2"></circle>
<circle clip-path="url(#clip372)" cx="467.725" cy="1344.73" r="14.4" fill="#e26f46" fill-rule="evenodd" fill-opacity="1" stroke="#000000" stroke-opacity="1" stroke-width="3.2"></circle>
<circle clip-path="url(#clip372)" cx="628.383" cy="1260.03" r="14.4" fill="#e26f46" fill-rule="evenodd" fill-opacity="1" stroke="#000000" stroke-opacity="1" stroke-width="3.2"></circle>
<circle clip-path="url(#clip372)" cx="770.932" cy="1255.81" r="14.4" fill="#e26f46" fill-rule="evenodd" fill-opacity="1" stroke="#000000" stroke-opacity="1" stroke-width="3.2"></circle>
<circle clip-path="url(#clip372)" cx="926.459" cy="1186.71" r="14.4" fill="#e26f46" fill-rule="evenodd" fill-opacity="1" stroke="#000000" stroke-opacity="1" stroke-width="3.2"></circle>
<circle clip-path="url(#clip372)" cx="1074.14" cy="1117.22" r="14.4" fill="#e26f46" fill-rule="evenodd" fill-opacity="1" stroke="#000000" stroke-opacity="1" stroke-width="3.2"></circle>
<circle clip-path="url(#clip372)" cx="1227.59" cy="905.732" r="14.4" fill="#e26f46" fill-rule="evenodd" fill-opacity="1" stroke="#000000" stroke-opacity="1" stroke-width="3.2"></circle>
<circle clip-path="url(#clip372)" cx="1379.98" cy="923.075" r="14.4" fill="#e26f46" fill-rule="evenodd" fill-opacity="1" stroke="#000000" stroke-opacity="1" stroke-width="3.2"></circle>
<circle clip-path="url(#clip372)" cx="1532.05" cy="798.91" r="14.4" fill="#e26f46" fill-rule="evenodd" fill-opacity="1" stroke="#000000" stroke-opacity="1" stroke-width="3.2"></circle>
<circle clip-path="url(#clip372)" cx="1683.71" cy="620.795" r="14.4" fill="#e26f46" fill-rule="evenodd" fill-opacity="1" stroke="#000000" stroke-opacity="1" stroke-width="3.2"></circle>
<circle clip-path="url(#clip372)" cx="1836.08" cy="370.606" r="14.4" fill="#e26f46" fill-rule="evenodd" fill-opacity="1" stroke="#000000" stroke-opacity="1" stroke-width="3.2"></circle>
<circle clip-path="url(#clip372)" cx="1988.49" cy="387.03" r="14.4" fill="#e26f46" fill-rule="evenodd" fill-opacity="1" stroke="#000000" stroke-opacity="1" stroke-width="3.2"></circle>
<circle clip-path="url(#clip372)" cx="2140.87" cy="228.189" r="14.4" fill="#e26f46" fill-rule="evenodd" fill-opacity="1" stroke="#000000" stroke-opacity="1" stroke-width="3.2"></circle>
<circle clip-path="url(#clip372)" cx="2293.32" cy="159.909" r="14.4" fill="#e26f46" fill-rule="evenodd" fill-opacity="1" stroke="#000000" stroke-opacity="1" stroke-width="3.2"></circle>
<polyline clip-path="url(#clip372)" style="stroke:#e26f46; stroke-linecap:round; stroke-linejoin:round; stroke-width:4; stroke-opacity:1; fill:none" points="
  312.198,1374.46 467.725,1374.46 628.383,1328.47 770.932,1121.37 926.459,969.118 1074.14,976.203 1227.59,1020.76 1379.98,911.41 1532.05,810.42 1683.71,560.573 
  1836.08,553.079 1988.49,441.692 2140.87,324.21 2293.32,173.49 
  "></polyline>
<circle clip-path="url(#clip372)" cx="312.198" cy="1374.46" r="14.4" fill="#e26f46" fill-rule="evenodd" fill-opacity="1" stroke="#000000" stroke-opacity="1" stroke-width="3.2"></circle>
<circle clip-path="url(#clip372)" cx="467.725" cy="1374.46" r="14.4" fill="#e26f46" fill-rule="evenodd" fill-opacity="1" stroke="#000000" stroke-opacity="1" stroke-width="3.2"></circle>
<circle clip-path="url(#clip372)" cx="628.383" cy="1328.47" r="14.4" fill="#e26f46" fill-rule="evenodd" fill-opacity="1" stroke="#000000" stroke-opacity="1" stroke-width="3.2"></circle>
<circle clip-path="url(#clip372)" cx="770.932" cy="1121.37" r="14.4" fill="#e26f46" fill-rule="evenodd" fill-opacity="1" stroke="#000000" stroke-opacity="1" stroke-width="3.2"></circle>
<circle clip-path="url(#clip372)" cx="926.459" cy="969.118" r="14.4" fill="#e26f46" fill-rule="evenodd" fill-opacity="1" stroke="#000000" stroke-opacity="1" stroke-width="3.2"></circle>
<circle clip-path="url(#clip372)" cx="1074.14" cy="976.203" r="14.4" fill="#e26f46" fill-rule="evenodd" fill-opacity="1" stroke="#000000" stroke-opacity="1" stroke-width="3.2"></circle>
<circle clip-path="url(#clip372)" cx="1227.59" cy="1020.76" r="14.4" fill="#e26f46" fill-rule="evenodd" fill-opacity="1" stroke="#000000" stroke-opacity="1" stroke-width="3.2"></circle>
<circle clip-path="url(#clip372)" cx="1379.98" cy="911.41" r="14.4" fill="#e26f46" fill-rule="evenodd" fill-opacity="1" stroke="#000000" stroke-opacity="1" stroke-width="3.2"></circle>
<circle clip-path="url(#clip372)" cx="1532.05" cy="810.42" r="14.4" fill="#e26f46" fill-rule="evenodd" fill-opacity="1" stroke="#000000" stroke-opacity="1" stroke-width="3.2"></circle>
<circle clip-path="url(#clip372)" cx="1683.71" cy="560.573" r="14.4" fill="#e26f46" fill-rule="evenodd" fill-opacity="1" stroke="#000000" stroke-opacity="1" stroke-width="3.2"></circle>
<circle clip-path="url(#clip372)" cx="1836.08" cy="553.079" r="14.4" fill="#e26f46" fill-rule="evenodd" fill-opacity="1" stroke="#000000" stroke-opacity="1" stroke-width="3.2"></circle>
<circle clip-path="url(#clip372)" cx="1988.49" cy="441.692" r="14.4" fill="#e26f46" fill-rule="evenodd" fill-opacity="1" stroke="#000000" stroke-opacity="1" stroke-width="3.2"></circle>
<circle clip-path="url(#clip372)" cx="2140.87" cy="324.21" r="14.4" fill="#e26f46" fill-rule="evenodd" fill-opacity="1" stroke="#000000" stroke-opacity="1" stroke-width="3.2"></circle>
<circle clip-path="url(#clip372)" cx="2293.32" cy="173.49" r="14.4" fill="#e26f46" fill-rule="evenodd" fill-opacity="1" stroke="#000000" stroke-opacity="1" stroke-width="3.2"></circle>
<polyline clip-path="url(#clip372)" style="stroke:#e26f46; stroke-linecap:round; stroke-linejoin:round; stroke-width:4; stroke-opacity:1; fill:none" points="
  312.198,1295.26 467.725,1374.46 628.383,1087.25 770.932,1064.93 926.459,604.865 1074.14,1122.8 1227.59,1023.89 1379.98,897.567 1532.05,797.207 1683.71,408.478 
  1836.08,281.952 1988.49,407.262 2140.87,314.73 2293.32,211.533 
  "></polyline>
<circle clip-path="url(#clip372)" cx="312.198" cy="1295.26" r="14.4" fill="#e26f46" fill-rule="evenodd" fill-opacity="1" stroke="#000000" stroke-opacity="1" stroke-width="3.2"></circle>
<circle clip-path="url(#clip372)" cx="467.725" cy="1374.46" r="14.4" fill="#e26f46" fill-rule="evenodd" fill-opacity="1" stroke="#000000" stroke-opacity="1" stroke-width="3.2"></circle>
<circle clip-path="url(#clip372)" cx="628.383" cy="1087.25" r="14.4" fill="#e26f46" fill-rule="evenodd" fill-opacity="1" stroke="#000000" stroke-opacity="1" stroke-width="3.2"></circle>
<circle clip-path="url(#clip372)" cx="770.932" cy="1064.93" r="14.4" fill="#e26f46" fill-rule="evenodd" fill-opacity="1" stroke="#000000" stroke-opacity="1" stroke-width="3.2"></circle>
<circle clip-path="url(#clip372)" cx="926.459" cy="604.865" r="14.4" fill="#e26f46" fill-rule="evenodd" fill-opacity="1" stroke="#000000" stroke-opacity="1" stroke-width="3.2"></circle>
<circle clip-path="url(#clip372)" cx="1074.14" cy="1122.8" r="14.4" fill="#e26f46" fill-rule="evenodd" fill-opacity="1" stroke="#000000" stroke-opacity="1" stroke-width="3.2"></circle>
<circle clip-path="url(#clip372)" cx="1227.59" cy="1023.89" r="14.4" fill="#e26f46" fill-rule="evenodd" fill-opacity="1" stroke="#000000" stroke-opacity="1" stroke-width="3.2"></circle>
<circle clip-path="url(#clip372)" cx="1379.98" cy="897.567" r="14.4" fill="#e26f46" fill-rule="evenodd" fill-opacity="1" stroke="#000000" stroke-opacity="1" stroke-width="3.2"></circle>
<circle clip-path="url(#clip372)" cx="1532.05" cy="797.207" r="14.4" fill="#e26f46" fill-rule="evenodd" fill-opacity="1" stroke="#000000" stroke-opacity="1" stroke-width="3.2"></circle>
<circle clip-path="url(#clip372)" cx="1683.71" cy="408.478" r="14.4" fill="#e26f46" fill-rule="evenodd" fill-opacity="1" stroke="#000000" stroke-opacity="1" stroke-width="3.2"></circle>
<circle clip-path="url(#clip372)" cx="1836.08" cy="281.952" r="14.4" fill="#e26f46" fill-rule="evenodd" fill-opacity="1" stroke="#000000" stroke-opacity="1" stroke-width="3.2"></circle>
<circle clip-path="url(#clip372)" cx="1988.49" cy="407.262" r="14.4" fill="#e26f46" fill-rule="evenodd" fill-opacity="1" stroke="#000000" stroke-opacity="1" stroke-width="3.2"></circle>
<circle clip-path="url(#clip372)" cx="2140.87" cy="314.73" r="14.4" fill="#e26f46" fill-rule="evenodd" fill-opacity="1" stroke="#000000" stroke-opacity="1" stroke-width="3.2"></circle>
<circle clip-path="url(#clip372)" cx="2293.32" cy="211.533" r="14.4" fill="#e26f46" fill-rule="evenodd" fill-opacity="1" stroke="#000000" stroke-opacity="1" stroke-width="3.2"></circle>
<path clip-path="url(#clip370)" d="
M1897.32 1367.98 L2282.76 1367.98 L2282.76 1212.46 L1897.32 1212.46  Z
  " fill="#ffffff" fill-rule="evenodd" fill-opacity="1"></path>
<polyline clip-path="url(#clip370)" style="stroke:#000000; stroke-linecap:round; stroke-linejoin:round; stroke-width:4; stroke-opacity:1; fill:none" points="
  1897.32,1367.98 2282.76,1367.98 2282.76,1212.46 1897.32,1212.46 1897.32,1367.98 
  "></polyline>
<polyline clip-path="url(#clip370)" style="stroke:#009af9; stroke-linecap:round; stroke-linejoin:round; stroke-width:4; stroke-opacity:1; fill:none" points="
  1920.65,1264.3 2060.65,1264.3 
  "></polyline>
<circle clip-path="url(#clip370)" cx="1990.65" cy="1264.3" r="19.4444" fill="#009af9" fill-rule="evenodd" fill-opacity="1" stroke="#000000" stroke-opacity="1" stroke-width="5.12"></circle>
<path clip-path="url(#clip370)" d="M2102.41 1256.42 L2102.41 1260.45 Q2100.6 1259.52 2098.66 1259.06 Q2096.72 1258.6 2094.63 1258.6 Q2091.46 1258.6 2089.86 1259.57 Q2088.29 1260.54 2088.29 1262.49 Q2088.29 1263.97 2089.42 1264.82 Q2090.56 1265.66 2093.98 1266.42 L2095.44 1266.74 Q2099.98 1267.72 2101.88 1269.5 Q2103.8 1271.26 2103.8 1274.43 Q2103.8 1278.04 2100.93 1280.15 Q2098.08 1282.25 2093.08 1282.25 Q2091 1282.25 2088.73 1281.84 Q2086.48 1281.44 2083.98 1280.63 L2083.98 1276.24 Q2086.35 1277.46 2088.64 1278.09 Q2090.93 1278.69 2093.17 1278.69 Q2096.18 1278.69 2097.8 1277.67 Q2099.42 1276.63 2099.42 1274.75 Q2099.42 1273.02 2098.24 1272.09 Q2097.09 1271.17 2093.13 1270.31 L2091.65 1269.96 Q2087.69 1269.13 2085.93 1267.42 Q2084.17 1265.68 2084.17 1262.67 Q2084.17 1259.01 2086.76 1257.02 Q2089.35 1255.03 2094.12 1255.03 Q2096.48 1255.03 2098.57 1255.38 Q2100.65 1255.73 2102.41 1256.42 Z" fill="#000000" fill-rule="evenodd" fill-opacity="1"></path><path clip-path="url(#clip370)" d="M2114.7 1277.69 L2114.7 1291.44 L2110.42 1291.44 L2110.42 1255.66 L2114.7 1255.66 L2114.7 1259.59 Q2116.04 1257.28 2118.08 1256.17 Q2120.14 1255.03 2122.99 1255.03 Q2127.71 1255.03 2130.65 1258.78 Q2133.61 1262.53 2133.61 1268.64 Q2133.61 1274.75 2130.65 1278.5 Q2127.71 1282.25 2122.99 1282.25 Q2120.14 1282.25 2118.08 1281.14 Q2116.04 1280.01 2114.7 1277.69 M2129.19 1268.64 Q2129.19 1263.94 2127.25 1261.28 Q2125.33 1258.6 2121.95 1258.6 Q2118.57 1258.6 2116.62 1261.28 Q2114.7 1263.94 2114.7 1268.64 Q2114.7 1273.34 2116.62 1276.03 Q2118.57 1278.69 2121.95 1278.69 Q2125.33 1278.69 2127.25 1276.03 Q2129.19 1273.34 2129.19 1268.64 Z" fill="#000000" fill-rule="evenodd" fill-opacity="1"></path><path clip-path="url(#clip370)" d="M2152.46 1268.55 Q2147.29 1268.55 2145.3 1269.73 Q2143.31 1270.91 2143.31 1273.76 Q2143.31 1276.03 2144.79 1277.37 Q2146.3 1278.69 2148.87 1278.69 Q2152.41 1278.69 2154.54 1276.19 Q2156.69 1273.67 2156.69 1269.5 L2156.69 1268.55 L2152.46 1268.55 M2160.95 1266.79 L2160.95 1281.58 L2156.69 1281.58 L2156.69 1277.65 Q2155.23 1280.01 2153.06 1281.14 Q2150.88 1282.25 2147.73 1282.25 Q2143.75 1282.25 2141.39 1280.03 Q2139.05 1277.79 2139.05 1274.04 Q2139.05 1269.66 2141.97 1267.44 Q2144.91 1265.22 2150.72 1265.22 L2156.69 1265.22 L2156.69 1264.8 Q2156.69 1261.86 2154.75 1260.26 Q2152.83 1258.64 2149.33 1258.64 Q2147.11 1258.64 2145 1259.18 Q2142.9 1259.71 2140.95 1260.77 L2140.95 1256.84 Q2143.29 1255.93 2145.49 1255.49 Q2147.69 1255.03 2149.77 1255.03 Q2155.4 1255.03 2158.17 1257.95 Q2160.95 1260.87 2160.95 1266.79 Z" fill="#000000" fill-rule="evenodd" fill-opacity="1"></path><path clip-path="url(#clip370)" d="M2184.75 1259.64 Q2184.03 1259.22 2183.17 1259.04 Q2182.34 1258.83 2181.32 1258.83 Q2177.71 1258.83 2175.77 1261.19 Q2173.84 1263.53 2173.84 1267.93 L2173.84 1281.58 L2169.56 1281.58 L2169.56 1255.66 L2173.84 1255.66 L2173.84 1259.68 Q2175.19 1257.32 2177.34 1256.19 Q2179.49 1255.03 2182.57 1255.03 Q2183.01 1255.03 2183.54 1255.1 Q2184.08 1255.15 2184.72 1255.26 L2184.75 1259.64 Z" fill="#000000" fill-rule="evenodd" fill-opacity="1"></path><path clip-path="url(#clip370)" d="M2205.74 1256.42 L2205.74 1260.45 Q2203.94 1259.52 2201.99 1259.06 Q2200.05 1258.6 2197.96 1258.6 Q2194.79 1258.6 2193.2 1259.57 Q2191.62 1260.54 2191.62 1262.49 Q2191.62 1263.97 2192.76 1264.82 Q2193.89 1265.66 2197.32 1266.42 L2198.78 1266.74 Q2203.31 1267.72 2205.21 1269.5 Q2207.13 1271.26 2207.13 1274.43 Q2207.13 1278.04 2204.26 1280.15 Q2201.41 1282.25 2196.41 1282.25 Q2194.33 1282.25 2192.06 1281.84 Q2189.82 1281.44 2187.32 1280.63 L2187.32 1276.24 Q2189.68 1277.46 2191.97 1278.09 Q2194.26 1278.69 2196.51 1278.69 Q2199.52 1278.69 2201.14 1277.67 Q2202.76 1276.63 2202.76 1274.75 Q2202.76 1273.02 2201.58 1272.09 Q2200.42 1271.17 2196.46 1270.31 L2194.98 1269.96 Q2191.02 1269.13 2189.26 1267.42 Q2187.5 1265.68 2187.5 1262.67 Q2187.5 1259.01 2190.09 1257.02 Q2192.69 1255.03 2197.46 1255.03 Q2199.82 1255.03 2201.9 1255.38 Q2203.98 1255.73 2205.74 1256.42 Z" fill="#000000" fill-rule="evenodd" fill-opacity="1"></path><path clip-path="url(#clip370)" d="M2236.09 1267.55 L2236.09 1269.64 L2216.51 1269.64 Q2216.78 1274.04 2219.15 1276.35 Q2221.53 1278.64 2225.77 1278.64 Q2228.22 1278.64 2230.51 1278.04 Q2232.83 1277.44 2235.09 1276.24 L2235.09 1280.26 Q2232.8 1281.24 2230.4 1281.74 Q2227.99 1282.25 2225.51 1282.25 Q2219.31 1282.25 2215.67 1278.64 Q2212.06 1275.03 2212.06 1268.87 Q2212.06 1262.51 2215.49 1258.78 Q2218.94 1255.03 2224.77 1255.03 Q2230 1255.03 2233.03 1258.41 Q2236.09 1261.77 2236.09 1267.55 M2231.83 1266.3 Q2231.78 1262.81 2229.86 1260.73 Q2227.96 1258.64 2224.82 1258.64 Q2221.25 1258.64 2219.1 1260.66 Q2216.97 1262.67 2216.65 1266.33 L2231.83 1266.3 Z" fill="#000000" fill-rule="evenodd" fill-opacity="1"></path><polyline clip-path="url(#clip370)" style="stroke:#e26f46; stroke-linecap:round; stroke-linejoin:round; stroke-width:4; stroke-opacity:1; fill:none" points="
  1920.65,1316.14 2060.65,1316.14 
  "></polyline>
<circle clip-path="url(#clip370)" cx="1990.65" cy="1316.14" r="19.4444" fill="#e26f46" fill-rule="evenodd" fill-opacity="1" stroke="#000000" stroke-opacity="1" stroke-width="5.12"></circle>
<path clip-path="url(#clip370)" d="M2102.9 1311.43 L2102.9 1297.4 L2107.16 1297.4 L2107.16 1333.42 L2102.9 1333.42 L2102.9 1329.53 Q2101.55 1331.85 2099.49 1332.98 Q2097.46 1334.09 2094.59 1334.09 Q2089.89 1334.09 2086.92 1330.34 Q2083.98 1326.59 2083.98 1320.48 Q2083.98 1314.37 2086.92 1310.62 Q2089.89 1306.87 2094.59 1306.87 Q2097.46 1306.87 2099.49 1308.01 Q2101.55 1309.12 2102.9 1311.43 M2088.38 1320.48 Q2088.38 1325.18 2090.3 1327.87 Q2092.25 1330.53 2095.63 1330.53 Q2099.01 1330.53 2100.95 1327.87 Q2102.9 1325.18 2102.9 1320.48 Q2102.9 1315.78 2100.95 1313.12 Q2099.01 1310.44 2095.63 1310.44 Q2092.25 1310.44 2090.3 1313.12 Q2088.38 1315.78 2088.38 1320.48 Z" fill="#000000" fill-rule="evenodd" fill-opacity="1"></path><path clip-path="url(#clip370)" d="M2138.1 1319.39 L2138.1 1321.48 L2118.52 1321.48 Q2118.8 1325.88 2121.16 1328.19 Q2123.54 1330.48 2127.78 1330.48 Q2130.23 1330.48 2132.53 1329.88 Q2134.84 1329.28 2137.11 1328.08 L2137.11 1332.1 Q2134.82 1333.08 2132.41 1333.58 Q2130 1334.09 2127.53 1334.09 Q2121.32 1334.09 2117.69 1330.48 Q2114.08 1326.87 2114.08 1320.71 Q2114.08 1314.35 2117.5 1310.62 Q2120.95 1306.87 2126.78 1306.87 Q2132.02 1306.87 2135.05 1310.25 Q2138.1 1313.61 2138.1 1319.39 M2133.84 1318.14 Q2133.8 1314.65 2131.88 1312.57 Q2129.98 1310.48 2126.83 1310.48 Q2123.27 1310.48 2121.11 1312.5 Q2118.98 1314.51 2118.66 1318.17 L2133.84 1318.14 Z" fill="#000000" fill-rule="evenodd" fill-opacity="1"></path><path clip-path="url(#clip370)" d="M2166.65 1317.77 L2166.65 1333.42 L2162.39 1333.42 L2162.39 1317.91 Q2162.39 1314.23 2160.95 1312.4 Q2159.52 1310.58 2156.65 1310.58 Q2153.2 1310.58 2151.21 1312.77 Q2149.22 1314.97 2149.22 1318.77 L2149.22 1333.42 L2144.93 1333.42 L2144.93 1307.5 L2149.22 1307.5 L2149.22 1311.52 Q2150.74 1309.19 2152.8 1308.03 Q2154.89 1306.87 2157.59 1306.87 Q2162.06 1306.87 2164.35 1309.65 Q2166.65 1312.4 2166.65 1317.77 Z" fill="#000000" fill-rule="evenodd" fill-opacity="1"></path><path clip-path="url(#clip370)" d="M2191.67 1308.26 L2191.67 1312.29 Q2189.86 1311.36 2187.92 1310.9 Q2185.97 1310.44 2183.89 1310.44 Q2180.72 1310.44 2179.12 1311.41 Q2177.55 1312.38 2177.55 1314.33 Q2177.55 1315.81 2178.68 1316.66 Q2179.82 1317.5 2183.24 1318.26 L2184.7 1318.58 Q2189.24 1319.56 2191.14 1321.34 Q2193.06 1323.1 2193.06 1326.27 Q2193.06 1329.88 2190.19 1331.99 Q2187.34 1334.09 2182.34 1334.09 Q2180.26 1334.09 2177.99 1333.68 Q2175.74 1333.28 2173.24 1332.47 L2173.24 1328.08 Q2175.6 1329.3 2177.9 1329.93 Q2180.19 1330.53 2182.43 1330.53 Q2185.44 1330.53 2187.06 1329.51 Q2188.68 1328.47 2188.68 1326.59 Q2188.68 1324.86 2187.5 1323.93 Q2186.34 1323.01 2182.39 1322.15 L2180.9 1321.8 Q2176.95 1320.97 2175.19 1319.26 Q2173.43 1317.52 2173.43 1314.51 Q2173.43 1310.85 2176.02 1308.86 Q2178.61 1306.87 2183.38 1306.87 Q2185.74 1306.87 2187.83 1307.22 Q2189.91 1307.57 2191.67 1308.26 Z" fill="#000000" fill-rule="evenodd" fill-opacity="1"></path><path clip-path="url(#clip370)" d="M2222.02 1319.39 L2222.02 1321.48 L2202.43 1321.48 Q2202.71 1325.88 2205.07 1328.19 Q2207.46 1330.48 2211.69 1330.48 Q2214.15 1330.48 2216.44 1329.88 Q2218.75 1329.28 2221.02 1328.08 L2221.02 1332.1 Q2218.73 1333.08 2216.32 1333.58 Q2213.91 1334.09 2211.44 1334.09 Q2205.23 1334.09 2201.6 1330.48 Q2197.99 1326.87 2197.99 1320.71 Q2197.99 1314.35 2201.41 1310.62 Q2204.86 1306.87 2210.7 1306.87 Q2215.93 1306.87 2218.96 1310.25 Q2222.02 1313.61 2222.02 1319.39 M2217.76 1318.14 Q2217.71 1314.65 2215.79 1312.57 Q2213.89 1310.48 2210.74 1310.48 Q2207.18 1310.48 2205.03 1312.5 Q2202.9 1314.51 2202.57 1318.17 L2217.76 1318.14 Z" fill="#000000" fill-rule="evenodd" fill-opacity="1"></path></svg>