<svg xmlns="http://www.w3.org/2000/svg" xmlns:xlink="http://www.w3.org/1999/xlink" width="600" height="400" viewBox="0 0 2400 1600">
<defs>
  <clipPath id="clip090">
    <rect x="0" y="0" width="2400" height="1600"></rect>
  </clipPath>
</defs>
<path clip-path="url(#clip090)" d="
M0 1600 L2400 1600 L2400 0 L0 0  Z
  " fill="#ffffff" fill-rule="evenodd" fill-opacity="1"></path>
<defs>
  <clipPath id="clip091">
    <rect x="480" y="0" width="1681" height="1600"></rect>
  </clipPath>
</defs>
<path clip-path="url(#clip090)" d="
M249.542 1423.18 L2352.76 1423.18 L2352.76 123.472 L249.542 123.472  Z
  " fill="#ffffff" fill-rule="evenodd" fill-opacity="1"></path>
<defs>
  <clipPath id="clip092">
    <rect x="249" y="123" width="2104" height="1301"></rect>
  </clipPath>
</defs>
<polyline clip-path="url(#clip092)" style="stroke:#000000; stroke-linecap:round; stroke-linejoin:round; stroke-width:2; stroke-opacity:0.1; fill:none" points="
  308.075,1423.18 308.075,123.472 
  "></polyline>
<polyline clip-path="url(#clip092)" style="stroke:#000000; stroke-linecap:round; stroke-linejoin:round; stroke-width:2; stroke-opacity:0.1; fill:none" points="
  804.116,1423.18 804.116,123.472 
  "></polyline>
<polyline clip-path="url(#clip092)" style="stroke:#000000; stroke-linecap:round; stroke-linejoin:round; stroke-width:2; stroke-opacity:0.1; fill:none" points="
  1300.16,1423.18 1300.16,123.472 
  "></polyline>
<polyline clip-path="url(#clip092)" style="stroke:#000000; stroke-linecap:round; stroke-linejoin:round; stroke-width:2; stroke-opacity:0.1; fill:none" points="
  1796.2,1423.18 1796.2,123.472 
  "></polyline>
<polyline clip-path="url(#clip092)" style="stroke:#000000; stroke-linecap:round; stroke-linejoin:round; stroke-width:2; stroke-opacity:0.1; fill:none" points="
  2292.24,1423.18 2292.24,123.472 
  "></polyline>
<polyline clip-path="url(#clip090)" style="stroke:#000000; stroke-linecap:round; stroke-linejoin:round; stroke-width:4; stroke-opacity:1; fill:none" points="
  249.542,1423.18 2352.76,1423.18 
  "></polyline>
<polyline clip-path="url(#clip090)" style="stroke:#000000; stroke-linecap:round; stroke-linejoin:round; stroke-width:4; stroke-opacity:1; fill:none" points="
  308.075,1423.18 308.075,1404.28 
  "></polyline>
<polyline clip-path="url(#clip090)" style="stroke:#000000; stroke-linecap:round; stroke-linejoin:round; stroke-width:4; stroke-opacity:1; fill:none" points="
  804.116,1423.18 804.116,1404.28 
  "></polyline>
<polyline clip-path="url(#clip090)" style="stroke:#000000; stroke-linecap:round; stroke-linejoin:round; stroke-width:4; stroke-opacity:1; fill:none" points="
  1300.16,1423.18 1300.16,1404.28 
  "></polyline>
<polyline clip-path="url(#clip090)" style="stroke:#000000; stroke-linecap:round; stroke-linejoin:round; stroke-width:4; stroke-opacity:1; fill:none" points="
  1796.2,1423.18 1796.2,1404.28 
  "></polyline>
<polyline clip-path="url(#clip090)" style="stroke:#000000; stroke-linecap:round; stroke-linejoin:round; stroke-width:4; stroke-opacity:1; fill:none" points="
  2292.24,1423.18 2292.24,1404.28 
  "></polyline>
<path clip-path="url(#clip090)" d="M308.075 1454.1 Q304.464 1454.1 302.635 1457.66 Q300.83 1461.2 300.83 1468.33 Q300.83 1475.44 302.635 1479.01 Q304.464 1482.55 308.075 1482.55 Q311.709 1482.55 313.515 1479.01 Q315.343 1475.44 315.343 1468.33 Q315.343 1461.2 313.515 1457.66 Q311.709 1454.1 308.075 1454.1 M308.075 1450.39 Q313.885 1450.39 316.941 1455 Q320.019 1459.58 320.019 1468.33 Q320.019 1477.06 316.941 1481.67 Q313.885 1486.25 308.075 1486.25 Q302.265 1486.25 299.186 1481.67 Q296.13 1477.06 296.13 1468.33 Q296.13 1459.58 299.186 1455 Q302.265 1450.39 308.075 1450.39 Z" fill="#000000" fill-rule="evenodd" fill-opacity="1"></path><path clip-path="url(#clip090)" d="M763.734 1451.02 L782.091 1451.02 L782.091 1454.96 L768.017 1454.96 L768.017 1463.43 Q769.035 1463.08 770.054 1462.92 Q771.072 1462.73 772.091 1462.73 Q777.878 1462.73 781.257 1465.9 Q784.637 1469.08 784.637 1474.49 Q784.637 1480.07 781.165 1483.17 Q777.692 1486.25 771.373 1486.25 Q769.197 1486.25 766.929 1485.88 Q764.683 1485.51 762.276 1484.77 L762.276 1480.07 Q764.359 1481.2 766.581 1481.76 Q768.804 1482.32 771.28 1482.32 Q775.285 1482.32 777.623 1480.21 Q779.961 1478.1 779.961 1474.49 Q779.961 1470.88 777.623 1468.77 Q775.285 1466.67 771.28 1466.67 Q769.405 1466.67 767.53 1467.08 Q765.679 1467.5 763.734 1468.38 L763.734 1451.02 Z" fill="#000000" fill-rule="evenodd" fill-opacity="1"></path><path clip-path="url(#clip090)" d="M803.85 1454.1 Q800.239 1454.1 798.41 1457.66 Q796.604 1461.2 796.604 1468.33 Q796.604 1475.44 798.41 1479.01 Q800.239 1482.55 803.85 1482.55 Q807.484 1482.55 809.289 1479.01 Q811.118 1475.44 811.118 1468.33 Q811.118 1461.2 809.289 1457.66 Q807.484 1454.1 803.85 1454.1 M803.85 1450.39 Q809.66 1450.39 812.715 1455 Q815.794 1459.58 815.794 1468.33 Q815.794 1477.06 812.715 1481.67 Q809.66 1486.25 803.85 1486.25 Q798.04 1486.25 794.961 1481.67 Q791.905 1477.06 791.905 1468.33 Q791.905 1459.58 794.961 1455 Q798.04 1450.39 803.85 1450.39 Z" fill="#000000" fill-rule="evenodd" fill-opacity="1"></path><path clip-path="url(#clip090)" d="M834.012 1454.1 Q830.4 1454.1 828.572 1457.66 Q826.766 1461.2 826.766 1468.33 Q826.766 1475.44 828.572 1479.01 Q830.4 1482.55 834.012 1482.55 Q837.646 1482.55 839.451 1479.01 Q841.28 1475.44 841.28 1468.33 Q841.28 1461.2 839.451 1457.66 Q837.646 1454.1 834.012 1454.1 M834.012 1450.39 Q839.822 1450.39 842.877 1455 Q845.956 1459.58 845.956 1468.33 Q845.956 1477.06 842.877 1481.67 Q839.822 1486.25 834.012 1486.25 Q828.201 1486.25 825.123 1481.67 Q822.067 1477.06 822.067 1468.33 Q822.067 1459.58 825.123 1455 Q828.201 1450.39 834.012 1450.39 Z" fill="#000000" fill-rule="evenodd" fill-opacity="1"></path><path clip-path="url(#clip090)" d="M1244.68 1481.64 L1252.32 1481.64 L1252.32 1455.28 L1244.01 1456.95 L1244.01 1452.69 L1252.28 1451.02 L1256.95 1451.02 L1256.95 1481.64 L1264.59 1481.64 L1264.59 1485.58 L1244.68 1485.58 L1244.68 1481.64 Z" fill="#000000" fill-rule="evenodd" fill-opacity="1"></path><path clip-path="url(#clip090)" d="M1284.03 1454.1 Q1280.42 1454.1 1278.59 1457.66 Q1276.79 1461.2 1276.79 1468.33 Q1276.79 1475.44 1278.59 1479.01 Q1280.42 1482.55 1284.03 1482.55 Q1287.67 1482.55 1289.47 1479.01 Q1291.3 1475.44 1291.3 1468.33 Q1291.3 1461.2 1289.47 1457.66 Q1287.67 1454.1 1284.03 1454.1 M1284.03 1450.39 Q1289.84 1450.39 1292.9 1455 Q1295.98 1459.58 1295.98 1468.33 Q1295.98 1477.06 1292.9 1481.67 Q1289.84 1486.25 1284.03 1486.25 Q1278.22 1486.25 1275.15 1481.67 Q1272.09 1477.06 1272.09 1468.33 Q1272.09 1459.58 1275.15 1455 Q1278.22 1450.39 1284.03 1450.39 Z" fill="#000000" fill-rule="evenodd" fill-opacity="1"></path><path clip-path="url(#clip090)" d="M1314.2 1454.1 Q1310.59 1454.1 1308.76 1457.66 Q1306.95 1461.2 1306.95 1468.33 Q1306.95 1475.44 1308.76 1479.01 Q1310.59 1482.55 1314.2 1482.55 Q1317.83 1482.55 1319.64 1479.01 Q1321.46 1475.44 1321.46 1468.33 Q1321.46 1461.2 1319.64 1457.66 Q1317.83 1454.1 1314.2 1454.1 M1314.2 1450.39 Q1320.01 1450.39 1323.06 1455 Q1326.14 1459.58 1326.14 1468.33 Q1326.14 1477.06 1323.06 1481.67 Q1320.01 1486.25 1314.2 1486.25 Q1308.39 1486.25 1305.31 1481.67 Q1302.25 1477.06 1302.25 1468.33 Q1302.25 1459.58 1305.31 1455 Q1308.39 1450.39 1314.2 1450.39 Z" fill="#000000" fill-rule="evenodd" fill-opacity="1"></path><path clip-path="url(#clip090)" d="M1344.36 1454.1 Q1340.75 1454.1 1338.92 1457.66 Q1337.11 1461.2 1337.11 1468.33 Q1337.11 1475.44 1338.92 1479.01 Q1340.75 1482.55 1344.36 1482.55 Q1347.99 1482.55 1349.8 1479.01 Q1351.63 1475.44 1351.63 1468.33 Q1351.63 1461.2 1349.8 1457.66 Q1347.99 1454.1 1344.36 1454.1 M1344.36 1450.39 Q1350.17 1450.39 1353.22 1455 Q1356.3 1459.58 1356.3 1468.33 Q1356.3 1477.06 1353.22 1481.67 Q1350.17 1486.25 1344.36 1486.25 Q1338.55 1486.25 1335.47 1481.67 Q1332.41 1477.06 1332.41 1468.33 Q1332.41 1459.58 1335.47 1455 Q1338.55 1450.39 1344.36 1450.39 Z" fill="#000000" fill-rule="evenodd" fill-opacity="1"></path><path clip-path="url(#clip090)" d="M1740.72 1481.64 L1748.36 1481.64 L1748.36 1455.28 L1740.05 1456.95 L1740.05 1452.69 L1748.32 1451.02 L1752.99 1451.02 L1752.99 1481.64 L1760.63 1481.64 L1760.63 1485.58 L1740.72 1485.58 L1740.72 1481.64 Z" fill="#000000" fill-rule="evenodd" fill-opacity="1"></path><path clip-path="url(#clip090)" d="M1770.12 1451.02 L1788.48 1451.02 L1788.48 1454.96 L1774.4 1454.96 L1774.4 1463.43 Q1775.42 1463.08 1776.44 1462.92 Q1777.46 1462.73 1778.48 1462.73 Q1784.27 1462.73 1787.64 1465.9 Q1791.02 1469.08 1791.02 1474.49 Q1791.02 1480.07 1787.55 1483.17 Q1784.08 1486.25 1777.76 1486.25 Q1775.58 1486.25 1773.32 1485.88 Q1771.07 1485.51 1768.66 1484.77 L1768.66 1480.07 Q1770.75 1481.2 1772.97 1481.76 Q1775.19 1482.32 1777.67 1482.32 Q1781.67 1482.32 1784.01 1480.21 Q1786.35 1478.1 1786.35 1474.49 Q1786.35 1470.88 1784.01 1468.77 Q1781.67 1466.67 1777.67 1466.67 Q1775.79 1466.67 1773.92 1467.08 Q1772.07 1467.5 1770.12 1468.38 L1770.12 1451.02 Z" fill="#000000" fill-rule="evenodd" fill-opacity="1"></path><path clip-path="url(#clip090)" d="M1810.24 1454.1 Q1806.63 1454.1 1804.8 1457.66 Q1802.99 1461.2 1802.99 1468.33 Q1802.99 1475.44 1804.8 1479.01 Q1806.63 1482.55 1810.24 1482.55 Q1813.87 1482.55 1815.68 1479.01 Q1817.51 1475.44 1817.51 1468.33 Q1817.51 1461.2 1815.68 1457.66 Q1813.87 1454.1 1810.24 1454.1 M1810.24 1450.39 Q1816.05 1450.39 1819.1 1455 Q1822.18 1459.58 1822.18 1468.33 Q1822.18 1477.06 1819.1 1481.67 Q1816.05 1486.25 1810.24 1486.25 Q1804.43 1486.25 1801.35 1481.67 Q1798.29 1477.06 1798.29 1468.33 Q1798.29 1459.58 1801.35 1455 Q1804.43 1450.39 1810.24 1450.39 Z" fill="#000000" fill-rule="evenodd" fill-opacity="1"></path><path clip-path="url(#clip090)" d="M1840.4 1454.1 Q1836.79 1454.1 1834.96 1457.66 Q1833.15 1461.2 1833.15 1468.33 Q1833.15 1475.44 1834.96 1479.01 Q1836.79 1482.55 1840.4 1482.55 Q1844.03 1482.55 1845.84 1479.01 Q1847.67 1475.44 1847.67 1468.33 Q1847.67 1461.2 1845.84 1457.66 Q1844.03 1454.1 1840.4 1454.1 M1840.4 1450.39 Q1846.21 1450.39 1849.26 1455 Q1852.34 1459.58 1852.34 1468.33 Q1852.34 1477.06 1849.26 1481.67 Q1846.21 1486.25 1840.4 1486.25 Q1834.59 1486.25 1831.51 1481.67 Q1828.45 1477.06 1828.45 1468.33 Q1828.45 1459.58 1831.51 1455 Q1834.59 1450.39 1840.4 1450.39 Z" fill="#000000" fill-rule="evenodd" fill-opacity="1"></path><path clip-path="url(#clip090)" d="M2240.85 1481.64 L2257.17 1481.64 L2257.17 1485.58 L2235.23 1485.58 L2235.23 1481.64 Q2237.89 1478.89 2242.47 1474.26 Q2247.08 1469.61 2248.26 1468.27 Q2250.5 1465.74 2251.38 1464.01 Q2252.29 1462.25 2252.29 1460.56 Q2252.29 1457.8 2250.34 1456.07 Q2248.42 1454.33 2245.32 1454.33 Q2243.12 1454.33 2240.67 1455.09 Q2238.23 1455.86 2235.46 1457.41 L2235.46 1452.69 Q2238.28 1451.55 2240.73 1450.97 Q2243.19 1450.39 2245.23 1450.39 Q2250.6 1450.39 2253.79 1453.08 Q2256.98 1455.77 2256.98 1460.26 Q2256.98 1462.39 2256.17 1464.31 Q2255.39 1466.2 2253.28 1468.8 Q2252.7 1469.47 2249.6 1472.69 Q2246.5 1475.88 2240.85 1481.64 Z" fill="#000000" fill-rule="evenodd" fill-opacity="1"></path><path clip-path="url(#clip090)" d="M2276.98 1454.1 Q2273.37 1454.1 2271.54 1457.66 Q2269.74 1461.2 2269.74 1468.33 Q2269.74 1475.44 2271.54 1479.01 Q2273.37 1482.55 2276.98 1482.55 Q2280.62 1482.55 2282.42 1479.01 Q2284.25 1475.44 2284.25 1468.33 Q2284.25 1461.2 2282.42 1457.66 Q2280.62 1454.1 2276.98 1454.1 M2276.98 1450.39 Q2282.79 1450.39 2285.85 1455 Q2288.93 1459.58 2288.93 1468.33 Q2288.93 1477.06 2285.85 1481.67 Q2282.79 1486.25 2276.98 1486.25 Q2271.17 1486.25 2268.1 1481.67 Q2265.04 1477.06 2265.04 1468.33 Q2265.04 1459.58 2268.1 1455 Q2271.17 1450.39 2276.98 1450.39 Z" fill="#000000" fill-rule="evenodd" fill-opacity="1"></path><path clip-path="url(#clip090)" d="M2307.15 1454.1 Q2303.54 1454.1 2301.71 1457.66 Q2299.9 1461.2 2299.9 1468.33 Q2299.9 1475.44 2301.71 1479.01 Q2303.54 1482.55 2307.15 1482.55 Q2310.78 1482.55 2312.59 1479.01 Q2314.41 1475.44 2314.41 1468.33 Q2314.41 1461.2 2312.59 1457.66 Q2310.78 1454.1 2307.15 1454.1 M2307.15 1450.39 Q2312.96 1450.39 2316.01 1455 Q2319.09 1459.58 2319.09 1468.33 Q2319.09 1477.06 2316.01 1481.67 Q2312.96 1486.25 2307.15 1486.25 Q2301.34 1486.25 2298.26 1481.67 Q2295.2 1477.06 2295.2 1468.33 Q2295.2 1459.58 2298.26 1455 Q2301.34 1450.39 2307.15 1450.39 Z" fill="#000000" fill-rule="evenodd" fill-opacity="1"></path><path clip-path="url(#clip090)" d="M2337.31 1454.1 Q2333.7 1454.1 2331.87 1457.66 Q2330.06 1461.2 2330.06 1468.33 Q2330.06 1475.44 2331.87 1479.01 Q2333.7 1482.55 2337.31 1482.55 Q2340.94 1482.55 2342.75 1479.01 Q2344.58 1475.44 2344.58 1468.33 Q2344.58 1461.2 2342.75 1457.66 Q2340.94 1454.1 2337.31 1454.1 M2337.31 1450.39 Q2343.12 1450.39 2346.17 1455 Q2349.25 1459.58 2349.25 1468.33 Q2349.25 1477.06 2346.17 1481.67 Q2343.12 1486.25 2337.31 1486.25 Q2331.5 1486.25 2328.42 1481.67 Q2325.36 1477.06 2325.36 1468.33 Q2325.36 1459.58 2328.42 1455 Q2331.5 1450.39 2337.31 1450.39 Z" fill="#000000" fill-rule="evenodd" fill-opacity="1"></path><path clip-path="url(#clip090)" d="M1096.63 1520.52 L1106.22 1520.52 L1118.34 1552.86 L1130.53 1520.52 L1140.11 1520.52 L1140.11 1568.04 L1133.84 1568.04 L1133.84 1526.32 L1121.59 1558.91 L1115.13 1558.91 L1102.87 1526.32 L1102.87 1568.04 L1096.63 1568.04 L1096.63 1520.52 Z" fill="#000000" fill-rule="evenodd" fill-opacity="1"></path><path clip-path="url(#clip090)" d="M1168.82 1550.12 Q1161.72 1550.12 1158.99 1551.75 Q1156.25 1553.37 1156.25 1557.29 Q1156.25 1560.4 1158.29 1562.25 Q1160.36 1564.07 1163.89 1564.07 Q1168.76 1564.07 1171.69 1560.63 Q1174.65 1557.16 1174.65 1551.43 L1174.65 1550.12 L1168.82 1550.12 M1180.5 1547.71 L1180.5 1568.04 L1174.65 1568.04 L1174.65 1562.63 Q1172.64 1565.88 1169.65 1567.44 Q1166.66 1568.97 1162.33 1568.97 Q1156.85 1568.97 1153.61 1565.91 Q1150.39 1562.82 1150.39 1557.67 Q1150.39 1551.65 1154.4 1548.6 Q1158.45 1545.54 1166.43 1545.54 L1174.65 1545.54 L1174.65 1544.97 Q1174.65 1540.93 1171.97 1538.73 Q1169.33 1536.5 1164.52 1536.5 Q1161.47 1536.5 1158.57 1537.23 Q1155.68 1537.97 1153 1539.43 L1153 1534.02 Q1156.22 1532.78 1159.24 1532.17 Q1162.27 1531.54 1165.13 1531.54 Q1172.86 1531.54 1176.68 1535.55 Q1180.5 1539.56 1180.5 1547.71 Z" fill="#000000" fill-rule="evenodd" fill-opacity="1"></path><path clip-path="url(#clip090)" d="M1198.36 1522.27 L1198.36 1532.4 L1210.42 1532.4 L1210.42 1536.95 L1198.36 1536.95 L1198.36 1556.3 Q1198.36 1560.66 1199.54 1561.9 Q1200.75 1563.14 1204.41 1563.14 L1210.42 1563.14 L1210.42 1568.04 L1204.41 1568.04 Q1197.63 1568.04 1195.05 1565.53 Q1192.47 1562.98 1192.47 1556.3 L1192.47 1536.95 L1188.17 1536.95 L1188.17 1532.4 L1192.47 1532.4 L1192.47 1522.27 L1198.36 1522.27 Z" fill="#000000" fill-rule="evenodd" fill-opacity="1"></path><path clip-path="url(#clip090)" d="M1238.78 1537.87 Q1237.79 1537.3 1236.62 1537.04 Q1235.47 1536.76 1234.07 1536.76 Q1229.11 1536.76 1226.43 1540 Q1223.79 1543.22 1223.79 1549.27 L1223.79 1568.04 L1217.9 1568.04 L1217.9 1532.4 L1223.79 1532.4 L1223.79 1537.93 Q1225.64 1534.69 1228.6 1533.13 Q1231.56 1531.54 1235.79 1531.54 Q1236.39 1531.54 1237.13 1531.63 Q1237.86 1531.7 1238.75 1531.85 L1238.78 1537.87 Z" fill="#000000" fill-rule="evenodd" fill-opacity="1"></path><path clip-path="url(#clip090)" d="M1244.92 1532.4 L1250.78 1532.4 L1250.78 1568.04 L1244.92 1568.04 L1244.92 1532.4 M1244.92 1518.52 L1250.78 1518.52 L1250.78 1525.93 L1244.92 1525.93 L1244.92 1518.52 Z" fill="#000000" fill-rule="evenodd" fill-opacity="1"></path><path clip-path="url(#clip090)" d="M1292.67 1532.4 L1279.78 1549.74 L1293.34 1568.04 L1286.43 1568.04 L1276.05 1554.04 L1265.68 1568.04 L1258.77 1568.04 L1272.61 1549.39 L1259.95 1532.4 L1266.85 1532.4 L1276.31 1545.1 L1285.76 1532.4 L1292.67 1532.4 Z" fill="#000000" fill-rule="evenodd" fill-opacity="1"></path><path clip-path="url(#clip090)" d="M1345.06 1533.45 L1345.06 1538.98 Q1342.57 1537.71 1339.9 1537.07 Q1337.23 1536.44 1334.36 1536.44 Q1330 1536.44 1327.81 1537.77 Q1325.64 1539.11 1325.64 1541.79 Q1325.64 1543.82 1327.2 1545 Q1328.76 1546.15 1333.47 1547.2 L1335.48 1547.64 Q1341.71 1548.98 1344.32 1551.43 Q1346.97 1553.85 1346.97 1558.21 Q1346.97 1563.17 1343.02 1566.07 Q1339.1 1568.97 1332.23 1568.97 Q1329.36 1568.97 1326.25 1568.39 Q1323.16 1567.85 1319.72 1566.74 L1319.72 1560.69 Q1322.97 1562.38 1326.12 1563.24 Q1329.27 1564.07 1332.36 1564.07 Q1336.49 1564.07 1338.72 1562.66 Q1340.95 1561.23 1340.95 1558.65 Q1340.95 1556.27 1339.33 1554.99 Q1337.74 1553.72 1332.29 1552.54 L1330.26 1552.07 Q1324.81 1550.92 1322.39 1548.56 Q1319.98 1546.18 1319.98 1542.04 Q1319.98 1537.01 1323.54 1534.27 Q1327.11 1531.54 1333.66 1531.54 Q1336.91 1531.54 1339.77 1532.01 Q1342.64 1532.49 1345.06 1533.45 Z" fill="#000000" fill-rule="evenodd" fill-opacity="1"></path><path clip-path="url(#clip090)" d="M1356.29 1532.4 L1362.15 1532.4 L1362.15 1568.04 L1356.29 1568.04 L1356.29 1532.4 M1356.29 1518.52 L1362.15 1518.52 L1362.15 1525.93 L1356.29 1525.93 L1356.29 1518.52 Z" fill="#000000" fill-rule="evenodd" fill-opacity="1"></path><path clip-path="url(#clip090)" d="M1371.86 1532.4 L1399.67 1532.4 L1399.67 1537.74 L1377.65 1563.37 L1399.67 1563.37 L1399.67 1568.04 L1371.06 1568.04 L1371.06 1562.7 L1393.09 1537.07 L1371.86 1537.07 L1371.86 1532.4 Z" fill="#000000" fill-rule="evenodd" fill-opacity="1"></path><path clip-path="url(#clip090)" d="M1439.11 1548.76 L1439.11 1551.62 L1412.18 1551.62 Q1412.56 1557.67 1415.81 1560.85 Q1419.09 1564 1424.91 1564 Q1428.29 1564 1431.44 1563.17 Q1434.62 1562.35 1437.74 1560.69 L1437.74 1566.23 Q1434.59 1567.57 1431.28 1568.27 Q1427.97 1568.97 1424.56 1568.97 Q1416.03 1568.97 1411.04 1564 Q1406.07 1559.04 1406.07 1550.57 Q1406.07 1541.82 1410.78 1536.69 Q1415.52 1531.54 1423.55 1531.54 Q1430.74 1531.54 1434.91 1536.18 Q1439.11 1540.8 1439.11 1548.76 M1433.25 1547.04 Q1433.19 1542.23 1430.55 1539.37 Q1427.94 1536.5 1423.61 1536.5 Q1418.71 1536.5 1415.75 1539.27 Q1412.82 1542.04 1412.37 1547.07 L1433.25 1547.04 Z" fill="#000000" fill-rule="evenodd" fill-opacity="1"></path><path clip-path="url(#clip090)" d="M1469.7 1520.52 L1478.35 1520.52 L1499.42 1560.28 L1499.42 1520.52 L1505.66 1520.52 L1505.66 1568.04 L1497.01 1568.04 L1475.94 1528.29 L1475.94 1568.04 L1469.7 1568.04 L1469.7 1520.52 Z" fill="#000000" fill-rule="evenodd" fill-opacity="1"></path><polyline clip-path="url(#clip092)" style="stroke:#000000; stroke-linecap:round; stroke-linejoin:round; stroke-width:2; stroke-opacity:0.1; fill:none" points="
  249.542,1386.4 2352.76,1386.4 
  "></polyline>
<polyline clip-path="url(#clip092)" style="stroke:#000000; stroke-linecap:round; stroke-linejoin:round; stroke-width:2; stroke-opacity:0.1; fill:none" points="
  249.542,1161.49 2352.76,1161.49 
  "></polyline>
<polyline clip-path="url(#clip092)" style="stroke:#000000; stroke-linecap:round; stroke-linejoin:round; stroke-width:2; stroke-opacity:0.1; fill:none" points="
  249.542,936.586 2352.76,936.586 
  "></polyline>
<polyline clip-path="url(#clip092)" style="stroke:#000000; stroke-linecap:round; stroke-linejoin:round; stroke-width:2; stroke-opacity:0.1; fill:none" points="
  249.542,711.68 2352.76,711.68 
  "></polyline>
<polyline clip-path="url(#clip092)" style="stroke:#000000; stroke-linecap:round; stroke-linejoin:round; stroke-width:2; stroke-opacity:0.1; fill:none" points="
  249.542,486.773 2352.76,486.773 
  "></polyline>
<polyline clip-path="url(#clip092)" style="stroke:#000000; stroke-linecap:round; stroke-linejoin:round; stroke-width:2; stroke-opacity:0.1; fill:none" points="
  249.542,261.866 2352.76,261.866 
  "></polyline>
<polyline clip-path="url(#clip090)" style="stroke:#000000; stroke-linecap:round; stroke-linejoin:round; stroke-width:4; stroke-opacity:1; fill:none" points="
  249.542,1423.18 249.542,123.472 
  "></polyline>
<polyline clip-path="url(#clip090)" style="stroke:#000000; stroke-linecap:round; stroke-linejoin:round; stroke-width:4; stroke-opacity:1; fill:none" points="
  249.542,1386.4 268.44,1386.4 
  "></polyline>
<polyline clip-path="url(#clip090)" style="stroke:#000000; stroke-linecap:round; stroke-linejoin:round; stroke-width:4; stroke-opacity:1; fill:none" points="
  249.542,1161.49 268.44,1161.49 
  "></polyline>
<polyline clip-path="url(#clip090)" style="stroke:#000000; stroke-linecap:round; stroke-linejoin:round; stroke-width:4; stroke-opacity:1; fill:none" points="
  249.542,936.586 268.44,936.586 
  "></polyline>
<polyline clip-path="url(#clip090)" style="stroke:#000000; stroke-linecap:round; stroke-linejoin:round; stroke-width:4; stroke-opacity:1; fill:none" points="
  249.542,711.68 268.44,711.68 
  "></polyline>
<polyline clip-path="url(#clip090)" style="stroke:#000000; stroke-linecap:round; stroke-linejoin:round; stroke-width:4; stroke-opacity:1; fill:none" points="
  249.542,486.773 268.44,486.773 
  "></polyline>
<polyline clip-path="url(#clip090)" style="stroke:#000000; stroke-linecap:round; stroke-linejoin:round; stroke-width:4; stroke-opacity:1; fill:none" points="
  249.542,261.866 268.44,261.866 
  "></polyline>
<path clip-path="url(#clip090)" d="M126.205 1372.2 Q122.593 1372.2 120.765 1375.76 Q118.959 1379.3 118.959 1386.43 Q118.959 1393.54 120.765 1397.11 Q122.593 1400.65 126.205 1400.65 Q129.839 1400.65 131.644 1397.11 Q133.473 1393.54 133.473 1386.43 Q133.473 1379.3 131.644 1375.76 Q129.839 1372.2 126.205 1372.2 M126.205 1368.49 Q132.015 1368.49 135.07 1373.1 Q138.149 1377.68 138.149 1386.43 Q138.149 1395.16 135.07 1399.77 Q132.015 1404.35 126.205 1404.35 Q120.394 1404.35 117.316 1399.77 Q114.26 1395.16 114.26 1386.43 Q114.26 1377.68 117.316 1373.1 Q120.394 1368.49 126.205 1368.49 Z" fill="#000000" fill-rule="evenodd" fill-opacity="1"></path><path clip-path="url(#clip090)" d="M146.366 1397.8 L151.251 1397.8 L151.251 1403.68 L146.366 1403.68 L146.366 1397.8 Z" fill="#000000" fill-rule="evenodd" fill-opacity="1"></path><path clip-path="url(#clip090)" d="M171.436 1372.2 Q167.825 1372.2 165.996 1375.76 Q164.19 1379.3 164.19 1386.43 Q164.19 1393.54 165.996 1397.11 Q167.825 1400.65 171.436 1400.65 Q175.07 1400.65 176.876 1397.11 Q178.704 1393.54 178.704 1386.43 Q178.704 1379.3 176.876 1375.76 Q175.07 1372.2 171.436 1372.2 M171.436 1368.49 Q177.246 1368.49 180.301 1373.1 Q183.38 1377.68 183.38 1386.43 Q183.38 1395.16 180.301 1399.77 Q177.246 1404.35 171.436 1404.35 Q165.626 1404.35 162.547 1399.77 Q159.491 1395.16 159.491 1386.43 Q159.491 1377.68 162.547 1373.1 Q165.626 1368.49 171.436 1368.49 Z" fill="#000000" fill-rule="evenodd" fill-opacity="1"></path><path clip-path="url(#clip090)" d="M201.598 1372.2 Q197.987 1372.2 196.158 1375.76 Q194.352 1379.3 194.352 1386.43 Q194.352 1393.54 196.158 1397.11 Q197.987 1400.65 201.598 1400.65 Q205.232 1400.65 207.037 1397.11 Q208.866 1393.54 208.866 1386.43 Q208.866 1379.3 207.037 1375.76 Q205.232 1372.2 201.598 1372.2 M201.598 1368.49 Q207.408 1368.49 210.463 1373.1 Q213.542 1377.68 213.542 1386.43 Q213.542 1395.16 210.463 1399.77 Q207.408 1404.35 201.598 1404.35 Q195.787 1404.35 192.709 1399.77 Q189.653 1395.16 189.653 1386.43 Q189.653 1377.68 192.709 1373.1 Q195.787 1368.49 201.598 1368.49 Z" fill="#000000" fill-rule="evenodd" fill-opacity="1"></path><path clip-path="url(#clip090)" d="M127.2 1147.29 Q123.589 1147.29 121.76 1150.86 Q119.955 1154.4 119.955 1161.53 Q119.955 1168.63 121.76 1172.2 Q123.589 1175.74 127.2 1175.74 Q130.834 1175.74 132.64 1172.2 Q134.468 1168.63 134.468 1161.53 Q134.468 1154.4 132.64 1150.86 Q130.834 1147.29 127.2 1147.29 M127.2 1143.59 Q133.01 1143.59 136.066 1148.19 Q139.144 1152.78 139.144 1161.53 Q139.144 1170.25 136.066 1174.86 Q133.01 1179.44 127.2 1179.44 Q121.39 1179.44 118.311 1174.86 Q115.256 1170.25 115.256 1161.53 Q115.256 1152.78 118.311 1148.19 Q121.39 1143.59 127.2 1143.59 Z" fill="#000000" fill-rule="evenodd" fill-opacity="1"></path><path clip-path="url(#clip090)" d="M147.362 1172.89 L152.246 1172.89 L152.246 1178.77 L147.362 1178.77 L147.362 1172.89 Z" fill="#000000" fill-rule="evenodd" fill-opacity="1"></path><path clip-path="url(#clip090)" d="M166.459 1174.84 L182.778 1174.84 L182.778 1178.77 L160.834 1178.77 L160.834 1174.84 Q163.496 1172.08 168.079 1167.45 Q172.686 1162.8 173.866 1161.46 Q176.112 1158.93 176.991 1157.2 Q177.894 1155.44 177.894 1153.75 Q177.894 1151 175.95 1149.26 Q174.028 1147.52 170.927 1147.52 Q168.727 1147.52 166.274 1148.29 Q163.843 1149.05 161.065 1150.6 L161.065 1145.88 Q163.89 1144.75 166.343 1144.17 Q168.797 1143.59 170.834 1143.59 Q176.204 1143.59 179.399 1146.27 Q182.593 1148.96 182.593 1153.45 Q182.593 1155.58 181.783 1157.5 Q180.996 1159.4 178.889 1161.99 Q178.311 1162.66 175.209 1165.88 Q172.107 1169.07 166.459 1174.84 Z" fill="#000000" fill-rule="evenodd" fill-opacity="1"></path><path clip-path="url(#clip090)" d="M192.639 1144.21 L210.996 1144.21 L210.996 1148.15 L196.922 1148.15 L196.922 1156.62 Q197.94 1156.27 198.959 1156.11 Q199.977 1155.93 200.996 1155.93 Q206.783 1155.93 210.162 1159.1 Q213.542 1162.27 213.542 1167.68 Q213.542 1173.26 210.07 1176.37 Q206.598 1179.44 200.278 1179.44 Q198.102 1179.44 195.834 1179.07 Q193.588 1178.7 191.181 1177.96 L191.181 1173.26 Q193.264 1174.4 195.487 1174.95 Q197.709 1175.51 200.186 1175.51 Q204.19 1175.51 206.528 1173.4 Q208.866 1171.3 208.866 1167.68 Q208.866 1164.07 206.528 1161.97 Q204.19 1159.86 200.186 1159.86 Q198.311 1159.86 196.436 1160.28 Q194.584 1160.69 192.639 1161.57 L192.639 1144.21 Z" fill="#000000" fill-rule="evenodd" fill-opacity="1"></path><path clip-path="url(#clip090)" d="M126.205 922.385 Q122.593 922.385 120.765 925.95 Q118.959 929.491 118.959 936.621 Q118.959 943.727 120.765 947.292 Q122.593 950.834 126.205 950.834 Q129.839 950.834 131.644 947.292 Q133.473 943.727 133.473 936.621 Q133.473 929.491 131.644 925.95 Q129.839 922.385 126.205 922.385 M126.205 918.681 Q132.015 918.681 135.07 923.288 Q138.149 927.871 138.149 936.621 Q138.149 945.348 135.07 949.954 Q132.015 954.537 126.205 954.537 Q120.394 954.537 117.316 949.954 Q114.26 945.348 114.26 936.621 Q114.26 927.871 117.316 923.288 Q120.394 918.681 126.205 918.681 Z" fill="#000000" fill-rule="evenodd" fill-opacity="1"></path><path clip-path="url(#clip090)" d="M146.366 947.987 L151.251 947.987 L151.251 953.866 L146.366 953.866 L146.366 947.987 Z" fill="#000000" fill-rule="evenodd" fill-opacity="1"></path><path clip-path="url(#clip090)" d="M161.482 919.306 L179.839 919.306 L179.839 923.241 L165.765 923.241 L165.765 931.714 Q166.783 931.366 167.802 931.204 Q168.82 931.019 169.839 931.019 Q175.626 931.019 179.005 934.19 Q182.385 937.362 182.385 942.778 Q182.385 948.357 178.913 951.459 Q175.44 954.537 169.121 954.537 Q166.945 954.537 164.677 954.167 Q162.431 953.797 160.024 953.056 L160.024 948.357 Q162.107 949.491 164.329 950.047 Q166.552 950.602 169.028 950.602 Q173.033 950.602 175.371 948.496 Q177.709 946.389 177.709 942.778 Q177.709 939.167 175.371 937.061 Q173.033 934.954 169.028 934.954 Q167.153 934.954 165.278 935.371 Q163.427 935.788 161.482 936.667 L161.482 919.306 Z" fill="#000000" fill-rule="evenodd" fill-opacity="1"></path><path clip-path="url(#clip090)" d="M201.598 922.385 Q197.987 922.385 196.158 925.95 Q194.352 929.491 194.352 936.621 Q194.352 943.727 196.158 947.292 Q197.987 950.834 201.598 950.834 Q205.232 950.834 207.037 947.292 Q208.866 943.727 208.866 936.621 Q208.866 929.491 207.037 925.95 Q205.232 922.385 201.598 922.385 M201.598 918.681 Q207.408 918.681 210.463 923.288 Q213.542 927.871 213.542 936.621 Q213.542 945.348 210.463 949.954 Q207.408 954.537 201.598 954.537 Q195.787 954.537 192.709 949.954 Q189.653 945.348 189.653 936.621 Q189.653 927.871 192.709 923.288 Q195.787 918.681 201.598 918.681 Z" fill="#000000" fill-rule="evenodd" fill-opacity="1"></path><path clip-path="url(#clip090)" d="M127.2 697.478 Q123.589 697.478 121.76 701.043 Q119.955 704.585 119.955 711.714 Q119.955 718.821 121.76 722.386 Q123.589 725.927 127.2 725.927 Q130.834 725.927 132.64 722.386 Q134.468 718.821 134.468 711.714 Q134.468 704.585 132.64 701.043 Q130.834 697.478 127.2 697.478 M127.2 693.775 Q133.01 693.775 136.066 698.381 Q139.144 702.964 139.144 711.714 Q139.144 720.441 136.066 725.048 Q133.01 729.631 127.2 729.631 Q121.39 729.631 118.311 725.048 Q115.256 720.441 115.256 711.714 Q115.256 702.964 118.311 698.381 Q121.39 693.775 127.2 693.775 Z" fill="#000000" fill-rule="evenodd" fill-opacity="1"></path><path clip-path="url(#clip090)" d="M147.362 723.08 L152.246 723.08 L152.246 728.96 L147.362 728.96 L147.362 723.08 Z" fill="#000000" fill-rule="evenodd" fill-opacity="1"></path><path clip-path="url(#clip090)" d="M161.251 694.4 L183.473 694.4 L183.473 696.39 L170.927 728.96 L166.042 728.96 L177.848 698.335 L161.251 698.335 L161.251 694.4 Z" fill="#000000" fill-rule="evenodd" fill-opacity="1"></path><path clip-path="url(#clip090)" d="M192.639 694.4 L210.996 694.4 L210.996 698.335 L196.922 698.335 L196.922 706.807 Q197.94 706.46 198.959 706.298 Q199.977 706.112 200.996 706.112 Q206.783 706.112 210.162 709.284 Q213.542 712.455 213.542 717.872 Q213.542 723.45 210.07 726.552 Q206.598 729.631 200.278 729.631 Q198.102 729.631 195.834 729.261 Q193.588 728.89 191.181 728.149 L191.181 723.45 Q193.264 724.585 195.487 725.14 Q197.709 725.696 200.186 725.696 Q204.19 725.696 206.528 723.589 Q208.866 721.483 208.866 717.872 Q208.866 714.261 206.528 712.154 Q204.19 710.048 200.186 710.048 Q198.311 710.048 196.436 710.464 Q194.584 710.881 192.639 711.761 L192.639 694.4 Z" fill="#000000" fill-rule="evenodd" fill-opacity="1"></path><path clip-path="url(#clip090)" d="M117.015 500.118 L124.654 500.118 L124.654 473.752 L116.343 475.419 L116.343 471.16 L124.607 469.493 L129.283 469.493 L129.283 500.118 L136.922 500.118 L136.922 504.053 L117.015 504.053 L117.015 500.118 Z" fill="#000000" fill-rule="evenodd" fill-opacity="1"></path><path clip-path="url(#clip090)" d="M146.366 498.173 L151.251 498.173 L151.251 504.053 L146.366 504.053 L146.366 498.173 Z" fill="#000000" fill-rule="evenodd" fill-opacity="1"></path><path clip-path="url(#clip090)" d="M171.436 472.572 Q167.825 472.572 165.996 476.136 Q164.19 479.678 164.19 486.808 Q164.19 493.914 165.996 497.479 Q167.825 501.021 171.436 501.021 Q175.07 501.021 176.876 497.479 Q178.704 493.914 178.704 486.808 Q178.704 479.678 176.876 476.136 Q175.07 472.572 171.436 472.572 M171.436 468.868 Q177.246 468.868 180.301 473.474 Q183.38 478.058 183.38 486.808 Q183.38 495.535 180.301 500.141 Q177.246 504.724 171.436 504.724 Q165.626 504.724 162.547 500.141 Q159.491 495.535 159.491 486.808 Q159.491 478.058 162.547 473.474 Q165.626 468.868 171.436 468.868 Z" fill="#000000" fill-rule="evenodd" fill-opacity="1"></path><path clip-path="url(#clip090)" d="M201.598 472.572 Q197.987 472.572 196.158 476.136 Q194.352 479.678 194.352 486.808 Q194.352 493.914 196.158 497.479 Q197.987 501.021 201.598 501.021 Q205.232 501.021 207.037 497.479 Q208.866 493.914 208.866 486.808 Q208.866 479.678 207.037 476.136 Q205.232 472.572 201.598 472.572 M201.598 468.868 Q207.408 468.868 210.463 473.474 Q213.542 478.058 213.542 486.808 Q213.542 495.535 210.463 500.141 Q207.408 504.724 201.598 504.724 Q195.787 504.724 192.709 500.141 Q189.653 495.535 189.653 486.808 Q189.653 478.058 192.709 473.474 Q195.787 468.868 201.598 468.868 Z" fill="#000000" fill-rule="evenodd" fill-opacity="1"></path><path clip-path="url(#clip090)" d="M118.01 275.211 L125.649 275.211 L125.649 248.846 L117.339 250.512 L117.339 246.253 L125.603 244.586 L130.279 244.586 L130.279 275.211 L137.917 275.211 L137.917 279.146 L118.01 279.146 L118.01 275.211 Z" fill="#000000" fill-rule="evenodd" fill-opacity="1"></path><path clip-path="url(#clip090)" d="M147.362 273.267 L152.246 273.267 L152.246 279.146 L147.362 279.146 L147.362 273.267 Z" fill="#000000" fill-rule="evenodd" fill-opacity="1"></path><path clip-path="url(#clip090)" d="M166.459 275.211 L182.778 275.211 L182.778 279.146 L160.834 279.146 L160.834 275.211 Q163.496 272.457 168.079 267.827 Q172.686 263.174 173.866 261.832 Q176.112 259.309 176.991 257.572 Q177.894 255.813 177.894 254.123 Q177.894 251.369 175.95 249.633 Q174.028 247.897 170.927 247.897 Q168.727 247.897 166.274 248.66 Q163.843 249.424 161.065 250.975 L161.065 246.253 Q163.89 245.119 166.343 244.54 Q168.797 243.961 170.834 243.961 Q176.204 243.961 179.399 246.647 Q182.593 249.332 182.593 253.822 Q182.593 255.952 181.783 257.873 Q180.996 259.772 178.889 262.364 Q178.311 263.035 175.209 266.253 Q172.107 269.447 166.459 275.211 Z" fill="#000000" fill-rule="evenodd" fill-opacity="1"></path><path clip-path="url(#clip090)" d="M192.639 244.586 L210.996 244.586 L210.996 248.522 L196.922 248.522 L196.922 256.994 Q197.94 256.647 198.959 256.484 Q199.977 256.299 200.996 256.299 Q206.783 256.299 210.162 259.471 Q213.542 262.642 213.542 268.059 Q213.542 273.637 210.07 276.739 Q206.598 279.818 200.278 279.818 Q198.102 279.818 195.834 279.447 Q193.588 279.077 191.181 278.336 L191.181 273.637 Q193.264 274.771 195.487 275.327 Q197.709 275.883 200.186 275.883 Q204.19 275.883 206.528 273.776 Q208.866 271.67 208.866 268.059 Q208.866 264.447 206.528 262.341 Q204.19 260.234 200.186 260.234 Q198.311 260.234 196.436 260.651 Q194.584 261.068 192.639 261.947 L192.639 244.586 Z" fill="#000000" fill-rule="evenodd" fill-opacity="1"></path><path clip-path="url(#clip090)" d="M18.0438 1007.33 L24.314 1007.33 Q22.5634 1010.99 21.704 1014.24 Q20.8447 1017.48 20.8447 1020.51 Q20.8447 1025.76 22.8817 1028.62 Q24.9187 1031.46 28.6745 1031.46 Q31.8255 1031.46 33.4488 1029.58 Q35.0402 1027.67 36.0269 1022.38 L36.8226 1018.5 Q38.1912 1011.31 41.6605 1007.9 Q45.098 1004.46 50.8908 1004.46 Q57.7976 1004.46 61.3624 1009.11 Q64.9272 1013.73 64.9272 1022.67 Q64.9272 1026.04 64.1633 1029.86 Q63.3994 1033.65 61.9035 1037.73 L55.2831 1037.73 Q57.4793 1033.81 58.5933 1030.05 Q59.7073 1026.3 59.7073 1022.67 Q59.7073 1017.16 57.543 1014.17 Q55.3786 1011.18 51.3682 1011.18 Q47.8671 1011.18 45.8937 1013.34 Q43.9204 1015.48 42.9337 1020.38 L42.1698 1024.29 Q40.7375 1031.49 37.682 1034.7 Q34.6264 1037.92 29.1837 1037.92 Q22.8817 1037.92 19.2532 1033.49 Q15.6248 1029.04 15.6248 1021.24 Q15.6248 1017.9 16.2295 1014.43 Q16.8343 1010.96 18.0438 1007.33 Z" fill="#000000" fill-rule="evenodd" fill-opacity="1"></path><path clip-path="url(#clip090)" d="M32.4621 980.88 Q32.4621 985.59 36.1542 988.328 Q39.8145 991.065 46.212 991.065 Q52.6095 991.065 56.3017 988.36 Q59.9619 985.622 59.9619 980.88 Q59.9619 976.201 56.2698 973.464 Q52.5777 970.727 46.212 970.727 Q39.8781 970.727 36.186 973.464 Q32.4621 976.201 32.4621 980.88 M27.4968 980.88 Q27.4968 973.241 32.4621 968.88 Q37.4273 964.52 46.212 964.52 Q54.9649 964.52 59.9619 968.88 Q64.9272 973.241 64.9272 980.88 Q64.9272 988.551 59.9619 992.911 Q54.9649 997.24 46.212 997.24 Q37.4273 997.24 32.4621 992.911 Q27.4968 988.551 27.4968 980.88 Z" fill="#000000" fill-rule="evenodd" fill-opacity="1"></path><path clip-path="url(#clip090)" d="M14.479 954.812 L14.479 948.956 L64.0042 948.956 L64.0042 954.812 L14.479 954.812 Z" fill="#000000" fill-rule="evenodd" fill-opacity="1"></path><path clip-path="url(#clip090)" d="M49.9359 937.307 L28.3562 937.307 L28.3562 931.45 L49.7131 931.45 Q54.7739 931.45 57.3202 929.477 Q59.8346 927.503 59.8346 923.557 Q59.8346 918.814 56.8109 916.077 Q53.7872 913.308 48.5673 913.308 L28.3562 913.308 L28.3562 907.451 L64.0042 907.451 L64.0042 913.308 L58.5296 913.308 Q61.7762 915.44 63.3676 918.273 Q64.9272 921.074 64.9272 924.798 Q64.9272 930.941 61.1078 934.124 Q57.2883 937.307 49.9359 937.307 M27.4968 922.57 L27.4968 922.57 Z" fill="#000000" fill-rule="evenodd" fill-opacity="1"></path><path clip-path="url(#clip090)" d="M18.2347 889.596 L28.3562 889.596 L28.3562 877.533 L32.9077 877.533 L32.9077 889.596 L52.2594 889.596 Q56.6199 889.596 57.8613 888.418 Q59.1026 887.208 59.1026 883.548 L59.1026 877.533 L64.0042 877.533 L64.0042 883.548 Q64.0042 890.328 61.4897 892.906 Q58.9434 895.484 52.2594 895.484 L32.9077 895.484 L32.9077 899.781 L28.3562 899.781 L28.3562 895.484 L18.2347 895.484 L18.2347 889.596 Z" fill="#000000" fill-rule="evenodd" fill-opacity="1"></path><path clip-path="url(#clip090)" d="M28.3562 869.83 L28.3562 863.974 L64.0042 863.974 L64.0042 869.83 L28.3562 869.83 M14.479 869.83 L14.479 863.974 L21.895 863.974 L21.895 869.83 L14.479 869.83 Z" fill="#000000" fill-rule="evenodd" fill-opacity="1"></path><path clip-path="url(#clip090)" d="M32.4621 837.906 Q32.4621 842.617 36.1542 845.354 Q39.8145 848.091 46.212 848.091 Q52.6095 848.091 56.3017 845.386 Q59.9619 842.649 59.9619 837.906 Q59.9619 833.227 56.2698 830.49 Q52.5777 827.753 46.212 827.753 Q39.8781 827.753 36.186 830.49 Q32.4621 833.227 32.4621 837.906 M27.4968 837.906 Q27.4968 830.267 32.4621 825.907 Q37.4273 821.546 46.212 821.546 Q54.9649 821.546 59.9619 825.907 Q64.9272 830.267 64.9272 837.906 Q64.9272 845.577 59.9619 849.937 Q54.9649 854.266 46.212 854.266 Q37.4273 854.266 32.4621 849.937 Q27.4968 845.577 27.4968 837.906 Z" fill="#000000" fill-rule="evenodd" fill-opacity="1"></path><path clip-path="url(#clip090)" d="M42.4881 782.206 L64.0042 782.206 L64.0042 788.063 L42.679 788.063 Q37.6183 788.063 35.1038 790.036 Q32.5894 792.009 32.5894 795.956 Q32.5894 800.699 35.6131 803.436 Q38.6368 806.173 43.8567 806.173 L64.0042 806.173 L64.0042 812.061 L28.3562 812.061 L28.3562 806.173 L33.8944 806.173 Q30.6797 804.072 29.0883 801.24 Q27.4968 798.375 27.4968 794.651 Q27.4968 788.508 31.3163 785.357 Q35.1038 782.206 42.4881 782.206 Z" fill="#000000" fill-rule="evenodd" fill-opacity="1"></path><path clip-path="url(#clip090)" d="M18.2347 744.012 L28.3562 744.012 L28.3562 731.949 L32.9077 731.949 L32.9077 744.012 L52.2594 744.012 Q56.6199 744.012 57.8613 742.834 Q59.1026 741.625 59.1026 737.964 L59.1026 731.949 L64.0042 731.949 L64.0042 737.964 Q64.0042 744.744 61.4897 747.322 Q58.9434 749.9 52.2594 749.9 L32.9077 749.9 L32.9077 754.197 L28.3562 754.197 L28.3562 749.9 L18.2347 749.9 L18.2347 744.012 Z" fill="#000000" fill-rule="evenodd" fill-opacity="1"></path><path clip-path="url(#clip090)" d="M28.3562 724.246 L28.3562 718.39 L64.0042 718.39 L64.0042 724.246 L28.3562 724.246 M14.479 724.246 L14.479 718.39 L21.895 718.39 L21.895 724.246 L14.479 724.246 Z" fill="#000000" fill-rule="evenodd" fill-opacity="1"></path><path clip-path="url(#clip090)" d="M35.1993 678.381 Q31.2526 676.185 29.3747 673.13 Q27.4968 670.074 27.4968 665.937 Q27.4968 660.367 31.4117 657.343 Q35.2948 654.319 42.4881 654.319 L64.0042 654.319 L64.0042 660.207 L42.679 660.207 Q37.5546 660.207 35.072 662.022 Q32.5894 663.836 32.5894 667.56 Q32.5894 672.111 35.6131 674.753 Q38.6368 677.395 43.8567 677.395 L64.0042 677.395 L64.0042 683.283 L42.679 683.283 Q37.5228 683.283 35.072 685.097 Q32.5894 686.912 32.5894 690.699 Q32.5894 695.187 35.6449 697.829 Q38.6686 700.47 43.8567 700.47 L64.0042 700.47 L64.0042 706.359 L28.3562 706.359 L28.3562 700.47 L33.8944 700.47 Q30.616 698.465 29.0564 695.664 Q27.4968 692.863 27.4968 689.012 Q27.4968 685.129 29.4702 682.424 Q31.4436 679.686 35.1993 678.381 Z" fill="#000000" fill-rule="evenodd" fill-opacity="1"></path><path clip-path="url(#clip090)" d="M44.7161 612.146 L47.5806 612.146 L47.5806 639.073 Q53.6281 638.691 56.8109 635.445 Q59.9619 632.166 59.9619 626.342 Q59.9619 622.968 59.1344 619.817 Q58.3069 616.634 56.6518 613.515 L62.1899 613.515 Q63.5267 616.666 64.227 619.976 Q64.9272 623.286 64.9272 626.692 Q64.9272 635.222 59.9619 640.219 Q54.9967 645.184 46.5303 645.184 Q37.7774 645.184 32.6531 640.474 Q27.4968 635.731 27.4968 627.71 Q27.4968 620.517 32.1438 616.348 Q36.7589 612.146 44.7161 612.146 M42.9973 618.003 Q38.1912 618.066 35.3266 620.708 Q32.4621 623.318 32.4621 627.647 Q32.4621 632.548 35.2312 635.508 Q38.0002 638.437 43.0292 638.882 L42.9973 618.003 Z" fill="#000000" fill-rule="evenodd" fill-opacity="1"></path><path clip-path="url(#clip090)" d="M14.5426 567.745 Q21.8632 572.011 29.0246 574.079 Q36.186 576.148 43.5384 576.148 Q50.8908 576.148 58.1159 574.079 Q65.3091 571.979 72.5979 567.745 L72.5979 572.838 Q65.1182 577.612 57.8931 579.999 Q50.668 582.355 43.5384 582.355 Q36.4406 582.355 29.2474 579.999 Q22.0542 577.644 14.5426 572.838 L14.5426 567.745 Z" fill="#000000" fill-rule="evenodd" fill-opacity="1"></path><path clip-path="url(#clip090)" d="M29.4065 533.657 L34.9447 533.657 Q33.6716 536.14 33.035 538.813 Q32.3984 541.487 32.3984 544.352 Q32.3984 548.712 33.7352 550.908 Q35.072 553.073 37.7456 553.073 Q39.7826 553.073 40.9603 551.513 Q42.1061 549.953 43.1565 545.243 L43.6021 543.238 Q44.9389 536.999 47.3897 534.389 Q49.8086 531.747 54.1691 531.747 Q59.1344 531.747 62.0308 535.694 Q64.9272 539.609 64.9272 546.484 Q64.9272 549.349 64.3543 552.468 Q63.8132 555.555 62.6992 558.993 L56.6518 558.993 Q58.3387 555.746 59.198 552.595 Q60.0256 549.444 60.0256 546.357 Q60.0256 542.219 58.6251 539.991 Q57.1929 537.763 54.6147 537.763 Q52.2276 537.763 50.9545 539.386 Q49.6813 540.978 48.5037 546.42 L48.0262 548.457 Q46.8804 553.9 44.5251 556.319 Q42.138 558.738 38.0002 558.738 Q32.9713 558.738 30.2341 555.173 Q27.4968 551.608 27.4968 545.052 Q27.4968 541.805 27.9743 538.941 Q28.4517 536.076 29.4065 533.657 Z" fill="#000000" fill-rule="evenodd" fill-opacity="1"></path><path clip-path="url(#clip090)" d="M14.5426 523.345 L14.5426 518.252 Q22.0542 513.478 29.2474 511.123 Q36.4406 508.735 43.5384 508.735 Q50.668 508.735 57.8931 511.123 Q65.1182 513.478 72.5979 518.252 L72.5979 523.345 Q65.3091 519.111 58.1159 517.043 Q50.8908 514.942 43.5384 514.942 Q36.186 514.942 29.0246 517.043 Q21.8632 519.111 14.5426 523.345 Z" fill="#000000" fill-rule="evenodd" fill-opacity="1"></path><path clip-path="url(#clip090)" d="M530.809 16.7545 L530.809 25.383 Q526.677 21.5346 521.978 19.6307 Q517.319 17.7268 512.053 17.7268 Q501.683 17.7268 496.174 24.0867 Q490.664 30.4061 490.664 42.3968 Q490.664 54.3469 496.174 60.7069 Q501.683 67.0263 512.053 67.0263 Q517.319 67.0263 521.978 65.1223 Q526.677 63.2184 530.809 59.3701 L530.809 67.9175 Q526.515 70.8341 521.694 72.2924 Q516.914 73.7508 511.567 73.7508 Q497.834 73.7508 489.935 65.3654 Q482.036 56.9395 482.036 42.3968 Q482.036 27.8135 489.935 19.4281 Q497.834 11.0023 511.567 11.0023 Q516.995 11.0023 521.775 12.4606 Q526.596 13.8784 530.809 16.7545 Z" fill="#000000" fill-rule="evenodd" fill-opacity="1"></path><path clip-path="url(#clip090)" d="M584.686 63.9476 L584.686 47.7034 L571.318 47.7034 L571.318 40.9789 L592.788 40.9789 L592.788 66.9452 Q588.048 70.3075 582.336 72.0494 Q576.624 73.7508 570.143 73.7508 Q555.965 73.7508 547.944 65.4869 Q539.964 57.1826 539.964 42.3968 Q539.964 27.5705 547.944 19.3066 Q555.965 11.0023 570.143 11.0023 Q576.057 11.0023 581.364 12.4606 Q586.711 13.9189 591.208 16.7545 L591.208 25.464 Q586.671 21.6156 581.567 19.6712 Q576.462 17.7268 570.832 17.7268 Q559.732 17.7268 554.142 23.9246 Q548.592 30.1225 548.592 42.3968 Q548.592 54.6305 554.142 60.8284 Q559.732 67.0263 570.832 67.0263 Q575.166 67.0263 578.569 66.2971 Q581.972 65.5274 584.686 63.9476 Z" fill="#000000" fill-rule="evenodd" fill-opacity="1"></path><path clip-path="url(#clip090)" d="M640.993 65.7705 L640.993 89.8329 L633.499 89.8329 L633.499 27.2059 L640.993 27.2059 L640.993 34.0924 Q643.343 30.0415 646.908 28.0971 Q650.513 26.1121 655.496 26.1121 Q663.759 26.1121 668.904 32.6746 Q674.089 39.2371 674.089 49.9314 Q674.089 60.6258 668.904 67.1883 Q663.759 73.7508 655.496 73.7508 Q650.513 73.7508 646.908 71.8063 Q643.343 69.8214 640.993 65.7705 M666.352 49.9314 Q666.352 41.7081 662.949 37.0496 Q659.587 32.3505 653.673 32.3505 Q647.758 32.3505 644.356 37.0496 Q640.993 41.7081 640.993 49.9314 Q640.993 58.1548 644.356 62.8538 Q647.758 67.5124 653.673 67.5124 Q659.587 67.5124 662.949 62.8538 Q666.352 58.1548 666.352 49.9314 Z" fill="#000000" fill-rule="evenodd" fill-opacity="1"></path><path clip-path="url(#clip090)" d="M725.252 48.0275 L725.252 51.6733 L690.982 51.6733 Q691.468 59.3701 695.6 63.421 Q699.772 67.4314 707.185 67.4314 Q711.479 67.4314 715.489 66.3781 Q719.54 65.3249 723.51 63.2184 L723.51 70.267 Q719.5 71.9684 715.287 72.8596 Q711.074 73.7508 706.74 73.7508 Q695.883 73.7508 689.523 67.4314 Q683.204 61.1119 683.204 50.3365 Q683.204 39.1965 689.199 32.6746 Q695.235 26.1121 705.443 26.1121 Q714.598 26.1121 719.905 32.0264 Q725.252 37.9003 725.252 48.0275 M717.799 45.84 Q717.717 39.7232 714.355 36.0774 Q711.033 32.4315 705.524 32.4315 Q699.286 32.4315 695.519 35.9558 Q691.792 39.4801 691.225 45.8805 L717.799 45.84 Z" fill="#000000" fill-rule="evenodd" fill-opacity="1"></path><path clip-path="url(#clip090)" d="M763.776 34.1734 Q762.52 33.4443 761.022 33.1202 Q759.563 32.7556 757.781 32.7556 Q751.462 32.7556 748.059 36.8875 Q744.697 40.9789 744.697 48.6757 L744.697 72.576 L737.202 72.576 L737.202 27.2059 L744.697 27.2059 L744.697 34.2544 Q747.046 30.1225 750.813 28.1376 Q754.581 26.1121 759.968 26.1121 Q760.738 26.1121 761.67 26.2337 Q762.602 26.3147 763.736 26.5172 L763.776 34.1734 Z" fill="#000000" fill-rule="evenodd" fill-opacity="1"></path><path clip-path="url(#clip090)" d="M794.563 9.54393 L794.563 15.7418 L787.434 15.7418 Q783.423 15.7418 781.843 17.3622 Q780.304 18.9825 780.304 23.1955 L780.304 27.2059 L792.578 27.2059 L792.578 32.9987 L780.304 32.9987 L780.304 72.576 L772.81 72.576 L772.81 32.9987 L765.68 32.9987 L765.68 27.2059 L772.81 27.2059 L772.81 24.0462 Q772.81 16.471 776.334 13.0277 Q779.858 9.54393 787.515 9.54393 L794.563 9.54393 Z" fill="#000000" fill-rule="evenodd" fill-opacity="1"></path><path clip-path="url(#clip090)" d="M818.382 32.4315 Q812.387 32.4315 808.903 37.1306 Q805.42 41.7891 805.42 49.9314 Q805.42 58.0738 808.863 62.7728 Q812.347 67.4314 818.382 67.4314 Q824.337 67.4314 827.821 62.7323 Q831.305 58.0333 831.305 49.9314 Q831.305 41.8701 827.821 37.1711 Q824.337 32.4315 818.382 32.4315 M818.382 26.1121 Q828.105 26.1121 833.654 32.4315 Q839.204 38.7509 839.204 49.9314 Q839.204 61.0714 833.654 67.4314 Q828.105 73.7508 818.382 73.7508 Q808.62 73.7508 803.07 67.4314 Q797.561 61.0714 797.561 49.9314 Q797.561 38.7509 803.07 32.4315 Q808.62 26.1121 818.382 26.1121 Z" fill="#000000" fill-rule="evenodd" fill-opacity="1"></path><path clip-path="url(#clip090)" d="M877.85 34.1734 Q876.594 33.4443 875.095 33.1202 Q873.637 32.7556 871.854 32.7556 Q865.535 32.7556 862.132 36.8875 Q858.77 40.9789 858.77 48.6757 L858.77 72.576 L851.276 72.576 L851.276 27.2059 L858.77 27.2059 L858.77 34.2544 Q861.119 30.1225 864.887 28.1376 Q868.654 26.1121 874.042 26.1121 Q874.812 26.1121 875.743 26.2337 Q876.675 26.3147 877.809 26.5172 L877.85 34.1734 Z" fill="#000000" fill-rule="evenodd" fill-opacity="1"></path><path clip-path="url(#clip090)" d="M919.534 35.9153 Q922.329 30.8922 926.218 28.5022 Q930.106 26.1121 935.373 26.1121 Q942.462 26.1121 946.31 31.0947 Q950.158 36.0368 950.158 45.1919 L950.158 72.576 L942.664 72.576 L942.664 45.4349 Q942.664 38.913 940.355 35.7533 Q938.046 32.5936 933.307 32.5936 Q927.514 32.5936 924.152 36.4419 Q920.789 40.2903 920.789 46.9338 L920.789 72.576 L913.295 72.576 L913.295 45.4349 Q913.295 38.8725 910.986 35.7533 Q908.677 32.5936 903.857 32.5936 Q898.145 32.5936 894.783 36.4824 Q891.42 40.3308 891.42 46.9338 L891.42 72.576 L883.926 72.576 L883.926 27.2059 L891.42 27.2059 L891.42 34.2544 Q893.972 30.082 897.537 28.0971 Q901.102 26.1121 906.004 26.1121 Q910.946 26.1121 914.389 28.6237 Q917.873 31.1352 919.534 35.9153 Z" fill="#000000" fill-rule="evenodd" fill-opacity="1"></path><path clip-path="url(#clip090)" d="M985.644 49.7694 Q976.611 49.7694 973.127 51.8354 Q969.643 53.9013 969.643 58.8839 Q969.643 62.8538 972.236 65.2034 Q974.869 67.5124 979.365 67.5124 Q985.563 67.5124 989.29 63.1374 Q993.057 58.7219 993.057 51.4303 L993.057 49.7694 L985.644 49.7694 M1000.51 46.6907 L1000.51 72.576 L993.057 72.576 L993.057 65.6895 Q990.505 69.8214 986.698 71.8063 Q982.89 73.7508 977.38 73.7508 Q970.413 73.7508 966.281 69.8619 Q962.19 65.9325 962.19 59.3701 Q962.19 51.7138 967.294 47.825 Q972.438 43.9361 982.606 43.9361 L993.057 43.9361 L993.057 43.2069 Q993.057 38.0623 989.655 35.2672 Q986.292 32.4315 980.176 32.4315 Q976.287 32.4315 972.6 33.3632 Q968.914 34.295 965.511 36.1584 L965.511 29.2718 Q969.603 27.692 973.451 26.9223 Q977.299 26.1121 980.945 26.1121 Q990.789 26.1121 995.65 31.2163 Q1000.51 36.3204 1000.51 46.6907 Z" fill="#000000" fill-rule="evenodd" fill-opacity="1"></path><path clip-path="url(#clip090)" d="M1053.58 45.1919 L1053.58 72.576 L1046.12 72.576 L1046.12 45.4349 Q1046.12 38.994 1043.61 35.7938 Q1041.1 32.5936 1036.08 32.5936 Q1030.04 32.5936 1026.56 36.4419 Q1023.07 40.2903 1023.07 46.9338 L1023.07 72.576 L1015.58 72.576 L1015.58 27.2059 L1023.07 27.2059 L1023.07 34.2544 Q1025.75 30.163 1029.35 28.1376 Q1033 26.1121 1037.74 26.1121 Q1045.56 26.1121 1049.57 30.9732 Q1053.58 35.7938 1053.58 45.1919 Z" fill="#000000" fill-rule="evenodd" fill-opacity="1"></path><path clip-path="url(#clip090)" d="M1101.1 28.9478 L1101.1 35.9153 Q1097.94 34.1734 1094.74 33.3227 Q1091.58 32.4315 1088.33 32.4315 Q1081.08 32.4315 1077.07 37.0496 Q1073.06 41.6271 1073.06 49.9314 Q1073.06 58.2358 1077.07 62.8538 Q1081.08 67.4314 1088.33 67.4314 Q1091.58 67.4314 1094.74 66.5807 Q1097.94 65.6895 1101.1 63.9476 L1101.1 70.8341 Q1097.98 72.2924 1094.61 73.0216 Q1091.29 73.7508 1087.52 73.7508 Q1077.28 73.7508 1071.24 67.3098 Q1065.2 60.8689 1065.2 49.9314 Q1065.2 38.832 1071.28 32.472 Q1077.4 26.1121 1088.01 26.1121 Q1091.45 26.1121 1094.74 26.8413 Q1098.02 27.5299 1101.1 28.9478 Z" fill="#000000" fill-rule="evenodd" fill-opacity="1"></path><path clip-path="url(#clip090)" d="M1152.87 48.0275 L1152.87 51.6733 L1118.59 51.6733 Q1119.08 59.3701 1123.21 63.421 Q1127.39 67.4314 1134.8 67.4314 Q1139.09 67.4314 1143.1 66.3781 Q1147.15 65.3249 1151.12 63.2184 L1151.12 70.267 Q1147.11 71.9684 1142.9 72.8596 Q1138.69 73.7508 1134.35 73.7508 Q1123.5 73.7508 1117.14 67.4314 Q1110.82 61.1119 1110.82 50.3365 Q1110.82 39.1965 1116.81 32.6746 Q1122.85 26.1121 1133.06 26.1121 Q1142.21 26.1121 1147.52 32.0264 Q1152.87 37.9003 1152.87 48.0275 M1145.41 45.84 Q1145.33 39.7232 1141.97 36.0774 Q1138.65 32.4315 1133.14 32.4315 Q1126.9 32.4315 1123.13 35.9558 Q1119.41 39.4801 1118.84 45.8805 L1145.41 45.84 Z" fill="#000000" fill-rule="evenodd" fill-opacity="1"></path><path clip-path="url(#clip090)" d="M1212.09 49.7694 Q1203.06 49.7694 1199.57 51.8354 Q1196.09 53.9013 1196.09 58.8839 Q1196.09 62.8538 1198.68 65.2034 Q1201.31 67.5124 1205.81 67.5124 Q1212.01 67.5124 1215.74 63.1374 Q1219.5 58.7219 1219.5 51.4303 L1219.5 49.7694 L1212.09 49.7694 M1226.96 46.6907 L1226.96 72.576 L1219.5 72.576 L1219.5 65.6895 Q1216.95 69.8214 1213.14 71.8063 Q1209.34 73.7508 1203.83 73.7508 Q1196.86 73.7508 1192.73 69.8619 Q1188.64 65.9325 1188.64 59.3701 Q1188.64 51.7138 1193.74 47.825 Q1198.88 43.9361 1209.05 43.9361 L1219.5 43.9361 L1219.5 43.2069 Q1219.5 38.0623 1216.1 35.2672 Q1212.74 32.4315 1206.62 32.4315 Q1202.73 32.4315 1199.05 33.3632 Q1195.36 34.295 1191.96 36.1584 L1191.96 29.2718 Q1196.05 27.692 1199.9 26.9223 Q1203.74 26.1121 1207.39 26.1121 Q1217.23 26.1121 1222.1 31.2163 Q1226.96 36.3204 1226.96 46.6907 Z" fill="#000000" fill-rule="evenodd" fill-opacity="1"></path><path clip-path="url(#clip090)" d="M1249.68 14.324 L1249.68 27.2059 L1265.04 27.2059 L1265.04 32.9987 L1249.68 32.9987 L1249.68 57.6282 Q1249.68 63.1779 1251.18 64.7578 Q1252.72 66.3376 1257.38 66.3376 L1265.04 66.3376 L1265.04 72.576 L1257.38 72.576 Q1248.75 72.576 1245.47 69.3758 Q1242.19 66.1351 1242.19 57.6282 L1242.19 32.9987 L1236.72 32.9987 L1236.72 27.2059 L1242.19 27.2059 L1242.19 14.324 L1249.68 14.324 Z" fill="#000000" fill-rule="evenodd" fill-opacity="1"></path><path clip-path="url(#clip090)" d="M1295.86 27.2059 L1303.76 27.2059 L1317.94 65.2844 L1332.12 27.2059 L1340.02 27.2059 L1323 72.576 L1312.88 72.576 L1295.86 27.2059 Z" fill="#000000" fill-rule="evenodd" fill-opacity="1"></path><path clip-path="url(#clip090)" d="M1370.93 49.7694 Q1361.89 49.7694 1358.41 51.8354 Q1354.92 53.9013 1354.92 58.8839 Q1354.92 62.8538 1357.52 65.2034 Q1360.15 67.5124 1364.65 67.5124 Q1370.84 67.5124 1374.57 63.1374 Q1378.34 58.7219 1378.34 51.4303 L1378.34 49.7694 L1370.93 49.7694 M1385.79 46.6907 L1385.79 72.576 L1378.34 72.576 L1378.34 65.6895 Q1375.79 69.8214 1371.98 71.8063 Q1368.17 73.7508 1362.66 73.7508 Q1355.69 73.7508 1351.56 69.8619 Q1347.47 65.9325 1347.47 59.3701 Q1347.47 51.7138 1352.58 47.825 Q1357.72 43.9361 1367.89 43.9361 L1378.34 43.9361 L1378.34 43.2069 Q1378.34 38.0623 1374.94 35.2672 Q1371.57 32.4315 1365.46 32.4315 Q1361.57 32.4315 1357.88 33.3632 Q1354.2 34.295 1350.79 36.1584 L1350.79 29.2718 Q1354.88 27.692 1358.73 26.9223 Q1362.58 26.1121 1366.23 26.1121 Q1376.07 26.1121 1380.93 31.2163 Q1385.79 36.3204 1385.79 46.6907 Z" fill="#000000" fill-rule="evenodd" fill-opacity="1"></path><path clip-path="url(#clip090)" d="M1427.44 34.1734 Q1426.18 33.4443 1424.68 33.1202 Q1423.22 32.7556 1421.44 32.7556 Q1415.12 32.7556 1411.72 36.8875 Q1408.36 40.9789 1408.36 48.6757 L1408.36 72.576 L1400.86 72.576 L1400.86 27.2059 L1408.36 27.2059 L1408.36 34.2544 Q1410.71 30.1225 1414.47 28.1376 Q1418.24 26.1121 1423.63 26.1121 Q1424.4 26.1121 1425.33 26.2337 Q1426.26 26.3147 1427.4 26.5172 L1427.44 34.1734 Z" fill="#000000" fill-rule="evenodd" fill-opacity="1"></path><path clip-path="url(#clip090)" d="M1435.25 27.2059 L1442.71 27.2059 L1442.71 72.576 L1435.25 72.576 L1435.25 27.2059 M1435.25 9.54393 L1442.71 9.54393 L1442.71 18.9825 L1435.25 18.9825 L1435.25 9.54393 Z" fill="#000000" fill-rule="evenodd" fill-opacity="1"></path><path clip-path="url(#clip090)" d="M1475.88 32.4315 Q1469.89 32.4315 1466.41 37.1306 Q1462.92 41.7891 1462.92 49.9314 Q1462.92 58.0738 1466.37 62.7728 Q1469.85 67.4314 1475.88 67.4314 Q1481.84 67.4314 1485.32 62.7323 Q1488.81 58.0333 1488.81 49.9314 Q1488.81 41.8701 1485.32 37.1711 Q1481.84 32.4315 1475.88 32.4315 M1475.88 26.1121 Q1485.61 26.1121 1491.16 32.4315 Q1496.71 38.7509 1496.71 49.9314 Q1496.71 61.0714 1491.16 67.4314 Q1485.61 73.7508 1475.88 73.7508 Q1466.12 73.7508 1460.57 67.4314 Q1455.06 61.0714 1455.06 49.9314 Q1455.06 38.7509 1460.57 32.4315 Q1466.12 26.1121 1475.88 26.1121 Z" fill="#000000" fill-rule="evenodd" fill-opacity="1"></path><path clip-path="url(#clip090)" d="M1508.29 54.671 L1508.29 27.2059 L1515.75 27.2059 L1515.75 54.3874 Q1515.75 60.8284 1518.26 64.0691 Q1520.77 67.2693 1525.79 67.2693 Q1531.83 67.2693 1535.31 63.421 Q1538.84 59.5726 1538.84 52.9291 L1538.84 27.2059 L1546.29 27.2059 L1546.29 72.576 L1538.84 72.576 L1538.84 65.6084 Q1536.12 69.7404 1532.52 71.7658 Q1528.95 73.7508 1524.21 73.7508 Q1516.39 73.7508 1512.34 68.8897 Q1508.29 64.0286 1508.29 54.671 M1527.05 26.1121 L1527.05 26.1121 Z" fill="#000000" fill-rule="evenodd" fill-opacity="1"></path><path clip-path="url(#clip090)" d="M1590.57 28.5427 L1590.57 35.5912 Q1587.41 33.9709 1584 33.1607 Q1580.6 32.3505 1576.95 32.3505 Q1571.41 32.3505 1568.61 34.0519 Q1565.86 35.7533 1565.86 39.156 Q1565.86 41.7486 1567.84 43.2475 Q1569.83 44.7058 1575.82 46.0426 L1578.37 46.6097 Q1586.31 48.3111 1589.63 51.4303 Q1593 54.509 1593 60.0587 Q1593 66.3781 1587.97 70.0644 Q1582.99 73.7508 1574.24 73.7508 Q1570.59 73.7508 1566.62 73.0216 Q1562.7 72.3329 1558.32 70.9151 L1558.32 63.2184 Q1562.45 65.3654 1566.46 66.4591 Q1570.47 67.5124 1574.4 67.5124 Q1579.67 67.5124 1582.5 65.73 Q1585.34 63.9071 1585.34 60.6258 Q1585.34 57.5877 1583.27 55.9673 Q1581.25 54.3469 1574.32 52.8481 L1571.73 52.2405 Q1564.8 50.7821 1561.72 47.7845 Q1558.64 44.7463 1558.64 39.4801 Q1558.64 33.0797 1563.18 29.5959 Q1567.72 26.1121 1576.06 26.1121 Q1580.2 26.1121 1583.84 26.7198 Q1587.49 27.3274 1590.57 28.5427 Z" fill="#000000" fill-rule="evenodd" fill-opacity="1"></path><path clip-path="url(#clip090)" d="M1666.56 35.9153 Q1669.36 30.8922 1673.24 28.5022 Q1677.13 26.1121 1682.4 26.1121 Q1689.49 26.1121 1693.34 31.0947 Q1697.19 36.0368 1697.19 45.1919 L1697.19 72.576 L1689.69 72.576 L1689.69 45.4349 Q1689.69 38.913 1687.38 35.7533 Q1685.07 32.5936 1680.33 32.5936 Q1674.54 32.5936 1671.18 36.4419 Q1667.82 40.2903 1667.82 46.9338 L1667.82 72.576 L1660.32 72.576 L1660.32 45.4349 Q1660.32 38.8725 1658.01 35.7533 Q1655.7 32.5936 1650.88 32.5936 Q1645.17 32.5936 1641.81 36.4824 Q1638.45 40.3308 1638.45 46.9338 L1638.45 72.576 L1630.95 72.576 L1630.95 27.2059 L1638.45 27.2059 L1638.45 34.2544 Q1641 30.082 1644.56 28.0971 Q1648.13 26.1121 1653.03 26.1121 Q1657.97 26.1121 1661.42 28.6237 Q1664.9 31.1352 1666.56 35.9153 Z" fill="#000000" fill-rule="evenodd" fill-opacity="1"></path><path clip-path="url(#clip090)" d="M1732.67 49.7694 Q1723.64 49.7694 1720.15 51.8354 Q1716.67 53.9013 1716.67 58.8839 Q1716.67 62.8538 1719.26 65.2034 Q1721.9 67.5124 1726.39 67.5124 Q1732.59 67.5124 1736.32 63.1374 Q1740.08 58.7219 1740.08 51.4303 L1740.08 49.7694 L1732.67 49.7694 M1747.54 46.6907 L1747.54 72.576 L1740.08 72.576 L1740.08 65.6895 Q1737.53 69.8214 1733.72 71.8063 Q1729.92 73.7508 1724.41 73.7508 Q1717.44 73.7508 1713.31 69.8619 Q1709.22 65.9325 1709.22 59.3701 Q1709.22 51.7138 1714.32 47.825 Q1719.47 43.9361 1729.63 43.9361 L1740.08 43.9361 L1740.08 43.2069 Q1740.08 38.0623 1736.68 35.2672 Q1733.32 32.4315 1727.2 32.4315 Q1723.31 32.4315 1719.63 33.3632 Q1715.94 34.295 1712.54 36.1584 L1712.54 29.2718 Q1716.63 27.692 1720.48 26.9223 Q1724.33 26.1121 1727.97 26.1121 Q1737.82 26.1121 1742.68 31.2163 Q1747.54 36.3204 1747.54 46.6907 Z" fill="#000000" fill-rule="evenodd" fill-opacity="1"></path><path clip-path="url(#clip090)" d="M1770.26 14.324 L1770.26 27.2059 L1785.62 27.2059 L1785.62 32.9987 L1770.26 32.9987 L1770.26 57.6282 Q1770.26 63.1779 1771.76 64.7578 Q1773.3 66.3376 1777.96 66.3376 L1785.62 66.3376 L1785.62 72.576 L1777.96 72.576 Q1769.33 72.576 1766.05 69.3758 Q1762.77 66.1351 1762.77 57.6282 L1762.77 32.9987 L1757.3 32.9987 L1757.3 27.2059 L1762.77 27.2059 L1762.77 14.324 L1770.26 14.324 Z" fill="#000000" fill-rule="evenodd" fill-opacity="1"></path><path clip-path="url(#clip090)" d="M1821.71 34.1734 Q1820.45 33.4443 1818.96 33.1202 Q1817.5 32.7556 1815.72 32.7556 Q1809.4 32.7556 1805.99 36.8875 Q1802.63 40.9789 1802.63 48.6757 L1802.63 72.576 L1795.14 72.576 L1795.14 27.2059 L1802.63 27.2059 L1802.63 34.2544 Q1804.98 30.1225 1808.75 28.1376 Q1812.51 26.1121 1817.9 26.1121 Q1818.67 26.1121 1819.6 26.2337 Q1820.54 26.3147 1821.67 26.5172 L1821.71 34.1734 Z" fill="#000000" fill-rule="evenodd" fill-opacity="1"></path><path clip-path="url(#clip090)" d="M1829.53 27.2059 L1836.98 27.2059 L1836.98 72.576 L1829.53 72.576 L1829.53 27.2059 M1829.53 9.54393 L1836.98 9.54393 L1836.98 18.9825 L1829.53 18.9825 L1829.53 9.54393 Z" fill="#000000" fill-rule="evenodd" fill-opacity="1"></path><path clip-path="url(#clip090)" d="M1890.29 27.2059 L1873.89 49.2833 L1891.14 72.576 L1882.35 72.576 L1869.15 54.752 L1855.94 72.576 L1847.15 72.576 L1864.77 48.8377 L1848.65 27.2059 L1857.44 27.2059 L1869.47 43.369 L1881.5 27.2059 L1890.29 27.2059 Z" fill="#000000" fill-rule="evenodd" fill-opacity="1"></path><path clip-path="url(#clip090)" d="M1956.97 28.5427 L1956.97 35.5912 Q1953.81 33.9709 1950.41 33.1607 Q1947 32.3505 1943.36 32.3505 Q1937.81 32.3505 1935.01 34.0519 Q1932.26 35.7533 1932.26 39.156 Q1932.26 41.7486 1934.24 43.2475 Q1936.23 44.7058 1942.22 46.0426 L1944.78 46.6097 Q1952.72 48.3111 1956.04 51.4303 Q1959.4 54.509 1959.4 60.0587 Q1959.4 66.3781 1954.38 70.0644 Q1949.39 73.7508 1940.64 73.7508 Q1937 73.7508 1933.03 73.0216 Q1929.1 72.3329 1924.72 70.9151 L1924.72 63.2184 Q1928.86 65.3654 1932.87 66.4591 Q1936.88 67.5124 1940.81 67.5124 Q1946.07 67.5124 1948.91 65.73 Q1951.74 63.9071 1951.74 60.6258 Q1951.74 57.5877 1949.68 55.9673 Q1947.65 54.3469 1940.73 52.8481 L1938.13 52.2405 Q1931.21 50.7821 1928.13 47.7845 Q1925.05 44.7463 1925.05 39.4801 Q1925.05 33.0797 1929.59 29.5959 Q1934.12 26.1121 1942.47 26.1121 Q1946.6 26.1121 1950.25 26.7198 Q1953.89 27.3274 1956.97 28.5427 Z" fill="#000000" fill-rule="evenodd" fill-opacity="1"></path><path clip-path="url(#clip090)" d="M1971.27 27.2059 L1978.72 27.2059 L1978.72 72.576 L1971.27 72.576 L1971.27 27.2059 M1971.27 9.54393 L1978.72 9.54393 L1978.72 18.9825 L1971.27 18.9825 L1971.27 9.54393 Z" fill="#000000" fill-rule="evenodd" fill-opacity="1"></path><path clip-path="url(#clip090)" d="M1991.08 27.2059 L2026.48 27.2059 L2026.48 34.0114 L1998.45 66.6212 L2026.48 66.6212 L2026.48 72.576 L1990.07 72.576 L1990.07 65.7705 L2018.1 33.1607 L1991.08 33.1607 L1991.08 27.2059 Z" fill="#000000" fill-rule="evenodd" fill-opacity="1"></path><path clip-path="url(#clip090)" d="M2076.67 48.0275 L2076.67 51.6733 L2042.4 51.6733 Q2042.89 59.3701 2047.02 63.421 Q2051.19 67.4314 2058.61 67.4314 Q2062.9 67.4314 2066.91 66.3781 Q2070.96 65.3249 2074.93 63.2184 L2074.93 70.267 Q2070.92 71.9684 2066.71 72.8596 Q2062.5 73.7508 2058.16 73.7508 Q2047.31 73.7508 2040.95 67.4314 Q2034.63 61.1119 2034.63 50.3365 Q2034.63 39.1965 2040.62 32.6746 Q2046.66 26.1121 2056.87 26.1121 Q2066.02 26.1121 2071.33 32.0264 Q2076.67 37.9003 2076.67 48.0275 M2069.22 45.84 Q2069.14 39.7232 2065.78 36.0774 Q2062.46 32.4315 2056.95 32.4315 Q2050.71 32.4315 2046.94 35.9558 Q2043.21 39.4801 2042.65 45.8805 L2069.22 45.84 Z" fill="#000000" fill-rule="evenodd" fill-opacity="1"></path><path clip-path="url(#clip090)" d="M2117.83 28.5427 L2117.83 35.5912 Q2114.67 33.9709 2111.27 33.1607 Q2107.87 32.3505 2104.22 32.3505 Q2098.67 32.3505 2095.88 34.0519 Q2093.12 35.7533 2093.12 39.156 Q2093.12 41.7486 2095.11 43.2475 Q2097.09 44.7058 2103.09 46.0426 L2105.64 46.6097 Q2113.58 48.3111 2116.9 51.4303 Q2120.26 54.509 2120.26 60.0587 Q2120.26 66.3781 2115.24 70.0644 Q2110.26 73.7508 2101.51 73.7508 Q2097.86 73.7508 2093.89 73.0216 Q2089.96 72.3329 2085.59 70.9151 L2085.59 63.2184 Q2089.72 65.3654 2093.73 66.4591 Q2097.74 67.5124 2101.67 67.5124 Q2106.93 67.5124 2109.77 65.73 Q2112.61 63.9071 2112.61 60.6258 Q2112.61 57.5877 2110.54 55.9673 Q2108.51 54.3469 2101.59 52.8481 L2098.99 52.2405 Q2092.07 50.7821 2088.99 47.7845 Q2085.91 44.7463 2085.91 39.4801 Q2085.91 33.0797 2090.45 29.5959 Q2094.98 26.1121 2103.33 26.1121 Q2107.46 26.1121 2111.11 26.7198 Q2114.75 27.3274 2117.83 28.5427 Z" fill="#000000" fill-rule="evenodd" fill-opacity="1"></path><circle clip-path="url(#clip092)" cx="309.067" cy="1386.39" r="14.4" fill="#009af9" fill-rule="evenodd" fill-opacity="1" stroke="#000000" stroke-opacity="1" stroke-width="3.2"></circle>
<circle clip-path="url(#clip092)" cx="408.275" cy="1383.33" r="14.4" fill="#009af9" fill-rule="evenodd" fill-opacity="1" stroke="#000000" stroke-opacity="1" stroke-width="3.2"></circle>
<circle clip-path="url(#clip092)" cx="507.483" cy="1375.71" r="14.4" fill="#009af9" fill-rule="evenodd" fill-opacity="1" stroke="#000000" stroke-opacity="1" stroke-width="3.2"></circle>
<circle clip-path="url(#clip092)" cx="606.692" cy="1364.91" r="14.4" fill="#009af9" fill-rule="evenodd" fill-opacity="1" stroke="#000000" stroke-opacity="1" stroke-width="3.2"></circle>
<circle clip-path="url(#clip092)" cx="705.9" cy="1342.41" r="14.4" fill="#009af9" fill-rule="evenodd" fill-opacity="1" stroke="#000000" stroke-opacity="1" stroke-width="3.2"></circle>
<circle clip-path="url(#clip092)" cx="805.108" cy="1347.39" r="14.4" fill="#009af9" fill-rule="evenodd" fill-opacity="1" stroke="#000000" stroke-opacity="1" stroke-width="3.2"></circle>
<circle clip-path="url(#clip092)" cx="904.316" cy="1322.37" r="14.4" fill="#009af9" fill-rule="evenodd" fill-opacity="1" stroke="#000000" stroke-opacity="1" stroke-width="3.2"></circle>
<circle clip-path="url(#clip092)" cx="1003.52" cy="1299.34" r="14.4" fill="#009af9" fill-rule="evenodd" fill-opacity="1" stroke="#000000" stroke-opacity="1" stroke-width="3.2"></circle>
<circle clip-path="url(#clip092)" cx="1102.73" cy="1247.72" r="14.4" fill="#009af9" fill-rule="evenodd" fill-opacity="1" stroke="#000000" stroke-opacity="1" stroke-width="3.2"></circle>
<circle clip-path="url(#clip092)" cx="1201.94" cy="1206.07" r="14.4" fill="#009af9" fill-rule="evenodd" fill-opacity="1" stroke="#000000" stroke-opacity="1" stroke-width="3.2"></circle>
<circle clip-path="url(#clip092)" cx="1301.15" cy="1162.31" r="14.4" fill="#009af9" fill-rule="evenodd" fill-opacity="1" stroke="#000000" stroke-opacity="1" stroke-width="3.2"></circle>
<circle clip-path="url(#clip092)" cx="1400.36" cy="1079.9" r="14.4" fill="#009af9" fill-rule="evenodd" fill-opacity="1" stroke="#000000" stroke-opacity="1" stroke-width="3.2"></circle>
<circle clip-path="url(#clip092)" cx="1499.57" cy="1039.74" r="14.4" fill="#009af9" fill-rule="evenodd" fill-opacity="1" stroke="#000000" stroke-opacity="1" stroke-width="3.2"></circle>
<circle clip-path="url(#clip092)" cx="1598.77" cy="986.449" r="14.4" fill="#009af9" fill-rule="evenodd" fill-opacity="1" stroke="#000000" stroke-opacity="1" stroke-width="3.2"></circle>
<circle clip-path="url(#clip092)" cx="1697.98" cy="905.81" r="14.4" fill="#009af9" fill-rule="evenodd" fill-opacity="1" stroke="#000000" stroke-opacity="1" stroke-width="3.2"></circle>
<circle clip-path="url(#clip092)" cx="1797.19" cy="315.595" r="14.4" fill="#009af9" fill-rule="evenodd" fill-opacity="1" stroke="#000000" stroke-opacity="1" stroke-width="3.2"></circle>
<circle clip-path="url(#clip092)" cx="1896.4" cy="680.14" r="14.4" fill="#009af9" fill-rule="evenodd" fill-opacity="1" stroke="#000000" stroke-opacity="1" stroke-width="3.2"></circle>
<circle clip-path="url(#clip092)" cx="1995.61" cy="585.267" r="14.4" fill="#009af9" fill-rule="evenodd" fill-opacity="1" stroke="#000000" stroke-opacity="1" stroke-width="3.2"></circle>
<circle clip-path="url(#clip092)" cx="2094.81" cy="485.19" r="14.4" fill="#009af9" fill-rule="evenodd" fill-opacity="1" stroke="#000000" stroke-opacity="1" stroke-width="3.2"></circle>
<circle clip-path="url(#clip092)" cx="2194.02" cy="383.774" r="14.4" fill="#009af9" fill-rule="evenodd" fill-opacity="1" stroke="#000000" stroke-opacity="1" stroke-width="3.2"></circle>
<circle clip-path="url(#clip092)" cx="2293.23" cy="263.566" r="14.4" fill="#009af9" fill-rule="evenodd" fill-opacity="1" stroke="#000000" stroke-opacity="1" stroke-width="3.2"></circle>
<circle clip-path="url(#clip092)" cx="309.067" cy="1386.39" r="14.4" fill="#e26f46" fill-rule="evenodd" fill-opacity="1" stroke="#000000" stroke-opacity="1" stroke-width="3.2"></circle>
<circle clip-path="url(#clip092)" cx="408.275" cy="1379.22" r="14.4" fill="#e26f46" fill-rule="evenodd" fill-opacity="1" stroke="#000000" stroke-opacity="1" stroke-width="3.2"></circle>
<circle clip-path="url(#clip092)" cx="507.483" cy="1373.42" r="14.4" fill="#e26f46" fill-rule="evenodd" fill-opacity="1" stroke="#000000" stroke-opacity="1" stroke-width="3.2"></circle>
<circle clip-path="url(#clip092)" cx="606.692" cy="1364.08" r="14.4" fill="#e26f46" fill-rule="evenodd" fill-opacity="1" stroke="#000000" stroke-opacity="1" stroke-width="3.2"></circle>
<circle clip-path="url(#clip092)" cx="705.9" cy="1355.43" r="14.4" fill="#e26f46" fill-rule="evenodd" fill-opacity="1" stroke="#000000" stroke-opacity="1" stroke-width="3.2"></circle>
<circle clip-path="url(#clip092)" cx="805.108" cy="1349.52" r="14.4" fill="#e26f46" fill-rule="evenodd" fill-opacity="1" stroke="#000000" stroke-opacity="1" stroke-width="3.2"></circle>
<circle clip-path="url(#clip092)" cx="904.316" cy="1319.49" r="14.4" fill="#e26f46" fill-rule="evenodd" fill-opacity="1" stroke="#000000" stroke-opacity="1" stroke-width="3.2"></circle>
<circle clip-path="url(#clip092)" cx="1003.52" cy="1288.61" r="14.4" fill="#e26f46" fill-rule="evenodd" fill-opacity="1" stroke="#000000" stroke-opacity="1" stroke-width="3.2"></circle>
<circle clip-path="url(#clip092)" cx="1102.73" cy="1252.6" r="14.4" fill="#e26f46" fill-rule="evenodd" fill-opacity="1" stroke="#000000" stroke-opacity="1" stroke-width="3.2"></circle>
<circle clip-path="url(#clip092)" cx="1201.94" cy="1212.62" r="14.4" fill="#e26f46" fill-rule="evenodd" fill-opacity="1" stroke="#000000" stroke-opacity="1" stroke-width="3.2"></circle>
<circle clip-path="url(#clip092)" cx="1301.15" cy="1165.09" r="14.4" fill="#e26f46" fill-rule="evenodd" fill-opacity="1" stroke="#000000" stroke-opacity="1" stroke-width="3.2"></circle>
<circle clip-path="url(#clip092)" cx="1400.36" cy="1103.2" r="14.4" fill="#e26f46" fill-rule="evenodd" fill-opacity="1" stroke="#000000" stroke-opacity="1" stroke-width="3.2"></circle>
<circle clip-path="url(#clip092)" cx="1499.57" cy="1062.96" r="14.4" fill="#e26f46" fill-rule="evenodd" fill-opacity="1" stroke="#000000" stroke-opacity="1" stroke-width="3.2"></circle>
<circle clip-path="url(#clip092)" cx="1598.77" cy="988.304" r="14.4" fill="#e26f46" fill-rule="evenodd" fill-opacity="1" stroke="#000000" stroke-opacity="1" stroke-width="3.2"></circle>
<circle clip-path="url(#clip092)" cx="1697.98" cy="919.961" r="14.4" fill="#e26f46" fill-rule="evenodd" fill-opacity="1" stroke="#000000" stroke-opacity="1" stroke-width="3.2"></circle>
<circle clip-path="url(#clip092)" cx="1797.19" cy="828.41" r="14.4" fill="#e26f46" fill-rule="evenodd" fill-opacity="1" stroke="#000000" stroke-opacity="1" stroke-width="3.2"></circle>
<circle clip-path="url(#clip092)" cx="1896.4" cy="739.635" r="14.4" fill="#e26f46" fill-rule="evenodd" fill-opacity="1" stroke="#000000" stroke-opacity="1" stroke-width="3.2"></circle>
<circle clip-path="url(#clip092)" cx="1995.61" cy="589.659" r="14.4" fill="#e26f46" fill-rule="evenodd" fill-opacity="1" stroke="#000000" stroke-opacity="1" stroke-width="3.2"></circle>
<circle clip-path="url(#clip092)" cx="2094.81" cy="214.332" r="14.4" fill="#e26f46" fill-rule="evenodd" fill-opacity="1" stroke="#000000" stroke-opacity="1" stroke-width="3.2"></circle>
<circle clip-path="url(#clip092)" cx="2194.02" cy="391.485" r="14.4" fill="#e26f46" fill-rule="evenodd" fill-opacity="1" stroke="#000000" stroke-opacity="1" stroke-width="3.2"></circle>
<circle clip-path="url(#clip092)" cx="2293.23" cy="253.447" r="14.4" fill="#e26f46" fill-rule="evenodd" fill-opacity="1" stroke="#000000" stroke-opacity="1" stroke-width="3.2"></circle>
<circle clip-path="url(#clip092)" cx="309.067" cy="1386.4" r="14.4" fill="#3da44d" fill-rule="evenodd" fill-opacity="1" stroke="#000000" stroke-opacity="1" stroke-width="3.2"></circle>
<circle clip-path="url(#clip092)" cx="408.275" cy="1384.6" r="14.4" fill="#3da44d" fill-rule="evenodd" fill-opacity="1" stroke="#000000" stroke-opacity="1" stroke-width="3.2"></circle>
<circle clip-path="url(#clip092)" cx="507.483" cy="1381.46" r="14.4" fill="#3da44d" fill-rule="evenodd" fill-opacity="1" stroke="#000000" stroke-opacity="1" stroke-width="3.2"></circle>
<circle clip-path="url(#clip092)" cx="606.692" cy="1375.07" r="14.4" fill="#3da44d" fill-rule="evenodd" fill-opacity="1" stroke="#000000" stroke-opacity="1" stroke-width="3.2"></circle>
<circle clip-path="url(#clip092)" cx="705.9" cy="1353.84" r="14.4" fill="#3da44d" fill-rule="evenodd" fill-opacity="1" stroke="#000000" stroke-opacity="1" stroke-width="3.2"></circle>
<circle clip-path="url(#clip092)" cx="805.108" cy="1339.2" r="14.4" fill="#3da44d" fill-rule="evenodd" fill-opacity="1" stroke="#000000" stroke-opacity="1" stroke-width="3.2"></circle>
<circle clip-path="url(#clip092)" cx="904.316" cy="1324.45" r="14.4" fill="#3da44d" fill-rule="evenodd" fill-opacity="1" stroke="#000000" stroke-opacity="1" stroke-width="3.2"></circle>
<circle clip-path="url(#clip092)" cx="1003.52" cy="1301.59" r="14.4" fill="#3da44d" fill-rule="evenodd" fill-opacity="1" stroke="#000000" stroke-opacity="1" stroke-width="3.2"></circle>
<circle clip-path="url(#clip092)" cx="1102.73" cy="1268.32" r="14.4" fill="#3da44d" fill-rule="evenodd" fill-opacity="1" stroke="#000000" stroke-opacity="1" stroke-width="3.2"></circle>
<circle clip-path="url(#clip092)" cx="1201.94" cy="1253.28" r="14.4" fill="#3da44d" fill-rule="evenodd" fill-opacity="1" stroke="#000000" stroke-opacity="1" stroke-width="3.2"></circle>
<circle clip-path="url(#clip092)" cx="1301.15" cy="1189.52" r="14.4" fill="#3da44d" fill-rule="evenodd" fill-opacity="1" stroke="#000000" stroke-opacity="1" stroke-width="3.2"></circle>
<circle clip-path="url(#clip092)" cx="1400.36" cy="1132.67" r="14.4" fill="#3da44d" fill-rule="evenodd" fill-opacity="1" stroke="#000000" stroke-opacity="1" stroke-width="3.2"></circle>
<circle clip-path="url(#clip092)" cx="1499.57" cy="1074.86" r="14.4" fill="#3da44d" fill-rule="evenodd" fill-opacity="1" stroke="#000000" stroke-opacity="1" stroke-width="3.2"></circle>
<circle clip-path="url(#clip092)" cx="1598.77" cy="1010.55" r="14.4" fill="#3da44d" fill-rule="evenodd" fill-opacity="1" stroke="#000000" stroke-opacity="1" stroke-width="3.2"></circle>
<circle clip-path="url(#clip092)" cx="1697.98" cy="930.355" r="14.4" fill="#3da44d" fill-rule="evenodd" fill-opacity="1" stroke="#000000" stroke-opacity="1" stroke-width="3.2"></circle>
<circle clip-path="url(#clip092)" cx="1797.19" cy="843.85" r="14.4" fill="#3da44d" fill-rule="evenodd" fill-opacity="1" stroke="#000000" stroke-opacity="1" stroke-width="3.2"></circle>
<circle clip-path="url(#clip092)" cx="1896.4" cy="730.565" r="14.4" fill="#3da44d" fill-rule="evenodd" fill-opacity="1" stroke="#000000" stroke-opacity="1" stroke-width="3.2"></circle>
<circle clip-path="url(#clip092)" cx="1995.61" cy="610.342" r="14.4" fill="#3da44d" fill-rule="evenodd" fill-opacity="1" stroke="#000000" stroke-opacity="1" stroke-width="3.2"></circle>
<circle clip-path="url(#clip092)" cx="2094.81" cy="515.769" r="14.4" fill="#3da44d" fill-rule="evenodd" fill-opacity="1" stroke="#000000" stroke-opacity="1" stroke-width="3.2"></circle>
<circle clip-path="url(#clip092)" cx="2194.02" cy="269.161" r="14.4" fill="#3da44d" fill-rule="evenodd" fill-opacity="1" stroke="#000000" stroke-opacity="1" stroke-width="3.2"></circle>
<circle clip-path="url(#clip092)" cx="2293.23" cy="160.256" r="14.4" fill="#3da44d" fill-rule="evenodd" fill-opacity="1" stroke="#000000" stroke-opacity="1" stroke-width="3.2"></circle>
</svg>