<svg xmlns="http://www.w3.org/2000/svg" xmlns:xlink="http://www.w3.org/1999/xlink" width="600" height="400" viewBox="0 0 2400 1600">
<defs>
  <clipPath id="clip250">
    <rect x="0" y="0" width="2400" height="1600"></rect>
  </clipPath>
</defs>
<path clip-path="url(#clip250)" d="
M0 1600 L2400 1600 L2400 0 L0 0  Z
  " fill="#ffffff" fill-rule="evenodd" fill-opacity="1"></path>
<defs>
  <clipPath id="clip251">
    <rect x="480" y="0" width="1681" height="1600"></rect>
  </clipPath>
</defs>
<path clip-path="url(#clip250)" d="
M398.649 1423.18 L2352.76 1423.18 L2352.76 123.472 L398.649 123.472  Z
  " fill="#ffffff" fill-rule="evenodd" fill-opacity="1"></path>
<defs>
  <clipPath id="clip252">
    <rect x="398" y="123" width="1955" height="1301"></rect>
  </clipPath>
</defs>
<polyline clip-path="url(#clip252)" style="stroke:#000000; stroke-linecap:round; stroke-linejoin:round; stroke-width:2; stroke-opacity:0.1; fill:none" points="
  841.088,1423.18 841.088,123.472 
  "></polyline>
<polyline clip-path="url(#clip252)" style="stroke:#000000; stroke-linecap:round; stroke-linejoin:round; stroke-width:2; stroke-opacity:0.1; fill:none" points="
  1326.22,1423.18 1326.22,123.472 
  "></polyline>
<polyline clip-path="url(#clip252)" style="stroke:#000000; stroke-linecap:round; stroke-linejoin:round; stroke-width:2; stroke-opacity:0.1; fill:none" points="
  1811.35,1423.18 1811.35,123.472 
  "></polyline>
<polyline clip-path="url(#clip252)" style="stroke:#000000; stroke-linecap:round; stroke-linejoin:round; stroke-width:2; stroke-opacity:0.1; fill:none" points="
  2296.48,1423.18 2296.48,123.472 
  "></polyline>
<polyline clip-path="url(#clip250)" style="stroke:#000000; stroke-linecap:round; stroke-linejoin:round; stroke-width:4; stroke-opacity:1; fill:none" points="
  398.649,1423.18 2352.76,1423.18 
  "></polyline>
<polyline clip-path="url(#clip250)" style="stroke:#000000; stroke-linecap:round; stroke-linejoin:round; stroke-width:4; stroke-opacity:1; fill:none" points="
  841.088,1423.18 841.088,1404.28 
  "></polyline>
<polyline clip-path="url(#clip250)" style="stroke:#000000; stroke-linecap:round; stroke-linejoin:round; stroke-width:4; stroke-opacity:1; fill:none" points="
  1326.22,1423.18 1326.22,1404.28 
  "></polyline>
<polyline clip-path="url(#clip250)" style="stroke:#000000; stroke-linecap:round; stroke-linejoin:round; stroke-width:4; stroke-opacity:1; fill:none" points="
  1811.35,1423.18 1811.35,1404.28 
  "></polyline>
<polyline clip-path="url(#clip250)" style="stroke:#000000; stroke-linecap:round; stroke-linejoin:round; stroke-width:4; stroke-opacity:1; fill:none" points="
  2296.48,1423.18 2296.48,1404.28 
  "></polyline>
<path clip-path="url(#clip250)" d="M800.706 1451.02 L819.063 1451.02 L819.063 1454.96 L804.989 1454.96 L804.989 1463.43 Q806.007 1463.08 807.026 1462.92 Q808.044 1462.73 809.063 1462.73 Q814.85 1462.73 818.229 1465.9 Q821.609 1469.08 821.609 1474.49 Q821.609 1480.07 818.137 1483.17 Q814.665 1486.25 808.345 1486.25 Q806.169 1486.25 803.901 1485.88 Q801.655 1485.51 799.248 1484.77 L799.248 1480.07 Q801.331 1481.2 803.553 1481.76 Q805.776 1482.32 808.253 1482.32 Q812.257 1482.32 814.595 1480.21 Q816.933 1478.1 816.933 1474.49 Q816.933 1470.88 814.595 1468.77 Q812.257 1466.67 808.253 1466.67 Q806.378 1466.67 804.503 1467.08 Q802.651 1467.5 800.706 1468.38 L800.706 1451.02 Z" fill="#000000" fill-rule="evenodd" fill-opacity="1"></path><path clip-path="url(#clip250)" d="M840.822 1454.1 Q837.211 1454.1 835.382 1457.66 Q833.576 1461.2 833.576 1468.33 Q833.576 1475.44 835.382 1479.01 Q837.211 1482.55 840.822 1482.55 Q844.456 1482.55 846.262 1479.01 Q848.09 1475.44 848.09 1468.33 Q848.09 1461.2 846.262 1457.66 Q844.456 1454.1 840.822 1454.1 M840.822 1450.39 Q846.632 1450.39 849.687 1455 Q852.766 1459.58 852.766 1468.33 Q852.766 1477.06 849.687 1481.67 Q846.632 1486.25 840.822 1486.25 Q835.012 1486.25 831.933 1481.67 Q828.877 1477.06 828.877 1468.33 Q828.877 1459.58 831.933 1455 Q835.012 1450.39 840.822 1450.39 Z" fill="#000000" fill-rule="evenodd" fill-opacity="1"></path><path clip-path="url(#clip250)" d="M870.984 1454.1 Q867.373 1454.1 865.544 1457.66 Q863.738 1461.2 863.738 1468.33 Q863.738 1475.44 865.544 1479.01 Q867.373 1482.55 870.984 1482.55 Q874.618 1482.55 876.423 1479.01 Q878.252 1475.44 878.252 1468.33 Q878.252 1461.2 876.423 1457.66 Q874.618 1454.1 870.984 1454.1 M870.984 1450.39 Q876.794 1450.39 879.849 1455 Q882.928 1459.58 882.928 1468.33 Q882.928 1477.06 879.849 1481.67 Q876.794 1486.25 870.984 1486.25 Q865.173 1486.25 862.095 1481.67 Q859.039 1477.06 859.039 1468.33 Q859.039 1459.58 862.095 1455 Q865.173 1450.39 870.984 1450.39 Z" fill="#000000" fill-rule="evenodd" fill-opacity="1"></path><path clip-path="url(#clip250)" d="M1270.74 1481.64 L1278.38 1481.64 L1278.38 1455.28 L1270.07 1456.95 L1270.07 1452.69 L1278.34 1451.02 L1283.01 1451.02 L1283.01 1481.64 L1290.65 1481.64 L1290.65 1485.58 L1270.74 1485.58 L1270.74 1481.64 Z" fill="#000000" fill-rule="evenodd" fill-opacity="1"></path><path clip-path="url(#clip250)" d="M1310.1 1454.1 Q1306.49 1454.1 1304.66 1457.66 Q1302.85 1461.2 1302.85 1468.33 Q1302.85 1475.44 1304.66 1479.01 Q1306.49 1482.55 1310.1 1482.55 Q1313.73 1482.55 1315.54 1479.01 Q1317.36 1475.44 1317.36 1468.33 Q1317.36 1461.2 1315.54 1457.66 Q1313.73 1454.1 1310.1 1454.1 M1310.1 1450.39 Q1315.91 1450.39 1318.96 1455 Q1322.04 1459.58 1322.04 1468.33 Q1322.04 1477.06 1318.96 1481.67 Q1315.91 1486.25 1310.1 1486.25 Q1304.29 1486.25 1301.21 1481.67 Q1298.15 1477.06 1298.15 1468.33 Q1298.15 1459.58 1301.21 1455 Q1304.29 1450.39 1310.1 1450.39 Z" fill="#000000" fill-rule="evenodd" fill-opacity="1"></path><path clip-path="url(#clip250)" d="M1340.26 1454.1 Q1336.65 1454.1 1334.82 1457.66 Q1333.01 1461.2 1333.01 1468.33 Q1333.01 1475.44 1334.82 1479.01 Q1336.65 1482.55 1340.26 1482.55 Q1343.89 1482.55 1345.7 1479.01 Q1347.53 1475.44 1347.53 1468.33 Q1347.53 1461.2 1345.7 1457.66 Q1343.89 1454.1 1340.26 1454.1 M1340.26 1450.39 Q1346.07 1450.39 1349.12 1455 Q1352.2 1459.58 1352.2 1468.33 Q1352.2 1477.06 1349.12 1481.67 Q1346.07 1486.25 1340.26 1486.25 Q1334.45 1486.25 1331.37 1481.67 Q1328.31 1477.06 1328.31 1468.33 Q1328.31 1459.58 1331.37 1455 Q1334.45 1450.39 1340.26 1450.39 Z" fill="#000000" fill-rule="evenodd" fill-opacity="1"></path><path clip-path="url(#clip250)" d="M1370.42 1454.1 Q1366.81 1454.1 1364.98 1457.66 Q1363.17 1461.2 1363.17 1468.33 Q1363.17 1475.44 1364.98 1479.01 Q1366.81 1482.55 1370.42 1482.55 Q1374.05 1482.55 1375.86 1479.01 Q1377.69 1475.44 1377.69 1468.33 Q1377.69 1461.2 1375.86 1457.66 Q1374.05 1454.1 1370.42 1454.1 M1370.42 1450.39 Q1376.23 1450.39 1379.29 1455 Q1382.36 1459.58 1382.36 1468.33 Q1382.36 1477.06 1379.29 1481.67 Q1376.23 1486.25 1370.42 1486.25 Q1364.61 1486.25 1361.53 1481.67 Q1358.48 1477.06 1358.48 1468.33 Q1358.48 1459.58 1361.53 1455 Q1364.61 1450.39 1370.42 1450.39 Z" fill="#000000" fill-rule="evenodd" fill-opacity="1"></path><path clip-path="url(#clip250)" d="M1755.88 1481.64 L1763.51 1481.64 L1763.51 1455.28 L1755.2 1456.95 L1755.2 1452.69 L1763.47 1451.02 L1768.14 1451.02 L1768.14 1481.64 L1775.78 1481.64 L1775.78 1485.58 L1755.88 1485.58 L1755.88 1481.64 Z" fill="#000000" fill-rule="evenodd" fill-opacity="1"></path><path clip-path="url(#clip250)" d="M1785.27 1451.02 L1803.63 1451.02 L1803.63 1454.96 L1789.56 1454.96 L1789.56 1463.43 Q1790.57 1463.08 1791.59 1462.92 Q1792.61 1462.73 1793.63 1462.73 Q1799.42 1462.73 1802.8 1465.9 Q1806.18 1469.08 1806.18 1474.49 Q1806.18 1480.07 1802.7 1483.17 Q1799.23 1486.25 1792.91 1486.25 Q1790.74 1486.25 1788.47 1485.88 Q1786.22 1485.51 1783.82 1484.77 L1783.82 1480.07 Q1785.9 1481.2 1788.12 1481.76 Q1790.34 1482.32 1792.82 1482.32 Q1796.82 1482.32 1799.16 1480.21 Q1801.5 1478.1 1801.5 1474.49 Q1801.5 1470.88 1799.16 1468.77 Q1796.82 1466.67 1792.82 1466.67 Q1790.94 1466.67 1789.07 1467.08 Q1787.22 1467.5 1785.27 1468.38 L1785.27 1451.02 Z" fill="#000000" fill-rule="evenodd" fill-opacity="1"></path><path clip-path="url(#clip250)" d="M1825.39 1454.1 Q1821.78 1454.1 1819.95 1457.66 Q1818.14 1461.2 1818.14 1468.33 Q1818.14 1475.44 1819.95 1479.01 Q1821.78 1482.55 1825.39 1482.55 Q1829.02 1482.55 1830.83 1479.01 Q1832.66 1475.44 1832.66 1468.33 Q1832.66 1461.2 1830.83 1457.66 Q1829.02 1454.1 1825.39 1454.1 M1825.39 1450.39 Q1831.2 1450.39 1834.25 1455 Q1837.33 1459.58 1837.33 1468.33 Q1837.33 1477.06 1834.25 1481.67 Q1831.2 1486.25 1825.39 1486.25 Q1819.58 1486.25 1816.5 1481.67 Q1813.44 1477.06 1813.44 1468.33 Q1813.44 1459.58 1816.5 1455 Q1819.58 1450.39 1825.39 1450.39 Z" fill="#000000" fill-rule="evenodd" fill-opacity="1"></path><path clip-path="url(#clip250)" d="M1855.55 1454.1 Q1851.94 1454.1 1850.11 1457.66 Q1848.31 1461.2 1848.31 1468.33 Q1848.31 1475.44 1850.11 1479.01 Q1851.94 1482.55 1855.55 1482.55 Q1859.19 1482.55 1860.99 1479.01 Q1862.82 1475.44 1862.82 1468.33 Q1862.82 1461.2 1860.99 1457.66 Q1859.19 1454.1 1855.55 1454.1 M1855.55 1450.39 Q1861.36 1450.39 1864.42 1455 Q1867.5 1459.58 1867.5 1468.33 Q1867.5 1477.06 1864.42 1481.67 Q1861.36 1486.25 1855.55 1486.25 Q1849.74 1486.25 1846.66 1481.67 Q1843.61 1477.06 1843.61 1468.33 Q1843.61 1459.58 1846.66 1455 Q1849.74 1450.39 1855.55 1450.39 Z" fill="#000000" fill-rule="evenodd" fill-opacity="1"></path><path clip-path="url(#clip250)" d="M2245.09 1481.64 L2261.41 1481.64 L2261.41 1485.58 L2239.47 1485.58 L2239.47 1481.64 Q2242.13 1478.89 2246.71 1474.26 Q2251.32 1469.61 2252.5 1468.27 Q2254.74 1465.74 2255.62 1464.01 Q2256.53 1462.25 2256.53 1460.56 Q2256.53 1457.8 2254.58 1456.07 Q2252.66 1454.33 2249.56 1454.33 Q2247.36 1454.33 2244.91 1455.09 Q2242.48 1455.86 2239.7 1457.41 L2239.7 1452.69 Q2242.52 1451.55 2244.98 1450.97 Q2247.43 1450.39 2249.47 1450.39 Q2254.84 1450.39 2258.03 1453.08 Q2261.23 1455.77 2261.23 1460.26 Q2261.23 1462.39 2260.42 1464.31 Q2259.63 1466.2 2257.52 1468.8 Q2256.94 1469.47 2253.84 1472.69 Q2250.74 1475.88 2245.09 1481.64 Z" fill="#000000" fill-rule="evenodd" fill-opacity="1"></path><path clip-path="url(#clip250)" d="M2281.23 1454.1 Q2277.62 1454.1 2275.79 1457.66 Q2273.98 1461.2 2273.98 1468.33 Q2273.98 1475.44 2275.79 1479.01 Q2277.62 1482.55 2281.23 1482.55 Q2284.86 1482.55 2286.67 1479.01 Q2288.49 1475.44 2288.49 1468.33 Q2288.49 1461.2 2286.67 1457.66 Q2284.86 1454.1 2281.23 1454.1 M2281.23 1450.39 Q2287.04 1450.39 2290.09 1455 Q2293.17 1459.58 2293.17 1468.33 Q2293.17 1477.06 2290.09 1481.67 Q2287.04 1486.25 2281.23 1486.25 Q2275.42 1486.25 2272.34 1481.67 Q2269.28 1477.06 2269.28 1468.33 Q2269.28 1459.58 2272.34 1455 Q2275.42 1450.39 2281.23 1450.39 Z" fill="#000000" fill-rule="evenodd" fill-opacity="1"></path><path clip-path="url(#clip250)" d="M2311.39 1454.1 Q2307.78 1454.1 2305.95 1457.66 Q2304.14 1461.2 2304.14 1468.33 Q2304.14 1475.44 2305.95 1479.01 Q2307.78 1482.55 2311.39 1482.55 Q2315.02 1482.55 2316.83 1479.01 Q2318.66 1475.44 2318.66 1468.33 Q2318.66 1461.2 2316.83 1457.66 Q2315.02 1454.1 2311.39 1454.1 M2311.39 1450.39 Q2317.2 1450.39 2320.25 1455 Q2323.33 1459.58 2323.33 1468.33 Q2323.33 1477.06 2320.25 1481.67 Q2317.2 1486.25 2311.39 1486.25 Q2305.58 1486.25 2302.5 1481.67 Q2299.44 1477.06 2299.44 1468.33 Q2299.44 1459.58 2302.5 1455 Q2305.58 1450.39 2311.39 1450.39 Z" fill="#000000" fill-rule="evenodd" fill-opacity="1"></path><path clip-path="url(#clip250)" d="M2341.55 1454.1 Q2337.94 1454.1 2336.11 1457.66 Q2334.3 1461.2 2334.3 1468.33 Q2334.3 1475.44 2336.11 1479.01 Q2337.94 1482.55 2341.55 1482.55 Q2345.18 1482.55 2346.99 1479.01 Q2348.82 1475.44 2348.82 1468.33 Q2348.82 1461.2 2346.99 1457.66 Q2345.18 1454.1 2341.55 1454.1 M2341.55 1450.39 Q2347.36 1450.39 2350.42 1455 Q2353.49 1459.58 2353.49 1468.33 Q2353.49 1477.06 2350.42 1481.67 Q2347.36 1486.25 2341.55 1486.25 Q2335.74 1486.25 2332.66 1481.67 Q2329.61 1477.06 2329.61 1468.33 Q2329.61 1459.58 2332.66 1455 Q2335.74 1450.39 2341.55 1450.39 Z" fill="#000000" fill-rule="evenodd" fill-opacity="1"></path><path clip-path="url(#clip250)" d="M1141.73 1520.52 L1150.39 1520.52 L1171.46 1560.28 L1171.46 1520.52 L1177.7 1520.52 L1177.7 1568.04 L1169.04 1568.04 L1147.97 1528.29 L1147.97 1568.04 L1141.73 1568.04 L1141.73 1520.52 Z" fill="#000000" fill-rule="evenodd" fill-opacity="1"></path><path clip-path="url(#clip250)" d="M1225.03 1518.58 Q1220.76 1525.9 1218.69 1533.06 Q1216.62 1540.23 1216.62 1547.58 Q1216.62 1554.93 1218.69 1562.16 Q1220.79 1569.35 1225.03 1576.64 L1219.93 1576.64 Q1215.16 1569.16 1212.77 1561.93 Q1210.42 1554.71 1210.42 1547.58 Q1210.42 1540.48 1212.77 1533.29 Q1215.13 1526.09 1219.93 1518.58 L1225.03 1518.58 Z" fill="#000000" fill-rule="evenodd" fill-opacity="1"></path><path clip-path="url(#clip250)" d="M1264.14 1539.24 Q1266.34 1535.29 1269.39 1533.41 Q1272.45 1531.54 1276.59 1531.54 Q1282.16 1531.54 1285.18 1535.45 Q1288.21 1539.33 1288.21 1546.53 L1288.21 1568.04 L1282.32 1568.04 L1282.32 1546.72 Q1282.32 1541.59 1280.5 1539.11 Q1278.69 1536.63 1274.96 1536.63 Q1270.41 1536.63 1267.77 1539.65 Q1265.13 1542.68 1265.13 1547.9 L1265.13 1568.04 L1259.24 1568.04 L1259.24 1546.72 Q1259.24 1541.56 1257.43 1539.11 Q1255.61 1536.63 1251.83 1536.63 Q1247.34 1536.63 1244.7 1539.68 Q1242.05 1542.71 1242.05 1547.9 L1242.05 1568.04 L1236.17 1568.04 L1236.17 1532.4 L1242.05 1532.4 L1242.05 1537.93 Q1244.06 1534.66 1246.86 1533.1 Q1249.66 1531.54 1253.51 1531.54 Q1257.4 1531.54 1260.1 1533.51 Q1262.84 1535.48 1264.14 1539.24 Z" fill="#000000" fill-rule="evenodd" fill-opacity="1"></path><path clip-path="url(#clip250)" d="M1316.09 1550.12 Q1308.99 1550.12 1306.25 1551.75 Q1303.52 1553.37 1303.52 1557.29 Q1303.52 1560.4 1305.55 1562.25 Q1307.62 1564.07 1311.15 1564.07 Q1316.02 1564.07 1318.95 1560.63 Q1321.91 1557.16 1321.91 1551.43 L1321.91 1550.12 L1316.09 1550.12 M1327.77 1547.71 L1327.77 1568.04 L1321.91 1568.04 L1321.91 1562.63 Q1319.91 1565.88 1316.91 1567.44 Q1313.92 1568.97 1309.59 1568.97 Q1304.12 1568.97 1300.87 1565.91 Q1297.66 1562.82 1297.66 1557.67 Q1297.66 1551.65 1301.67 1548.6 Q1305.71 1545.54 1313.7 1545.54 L1321.91 1545.54 L1321.91 1544.97 Q1321.91 1540.93 1319.24 1538.73 Q1316.6 1536.5 1311.79 1536.5 Q1308.74 1536.5 1305.84 1537.23 Q1302.94 1537.97 1300.27 1539.43 L1300.27 1534.02 Q1303.48 1532.78 1306.51 1532.17 Q1309.53 1531.54 1312.4 1531.54 Q1320.13 1531.54 1323.95 1535.55 Q1327.77 1539.56 1327.77 1547.71 Z" fill="#000000" fill-rule="evenodd" fill-opacity="1"></path><path clip-path="url(#clip250)" d="M1345.62 1522.27 L1345.62 1532.4 L1357.69 1532.4 L1357.69 1536.95 L1345.62 1536.95 L1345.62 1556.3 Q1345.62 1560.66 1346.8 1561.9 Q1348.01 1563.14 1351.67 1563.14 L1357.69 1563.14 L1357.69 1568.04 L1351.67 1568.04 Q1344.89 1568.04 1342.31 1565.53 Q1339.74 1562.98 1339.74 1556.3 L1339.74 1536.95 L1335.44 1536.95 L1335.44 1532.4 L1339.74 1532.4 L1339.74 1522.27 L1345.62 1522.27 Z" fill="#000000" fill-rule="evenodd" fill-opacity="1"></path><path clip-path="url(#clip250)" d="M1386.05 1537.87 Q1385.06 1537.3 1383.88 1537.04 Q1382.74 1536.76 1381.34 1536.76 Q1376.37 1536.76 1373.7 1540 Q1371.06 1543.22 1371.06 1549.27 L1371.06 1568.04 L1365.17 1568.04 L1365.17 1532.4 L1371.06 1532.4 L1371.06 1537.93 Q1372.9 1534.69 1375.86 1533.13 Q1378.82 1531.54 1383.05 1531.54 Q1383.66 1531.54 1384.39 1531.63 Q1385.12 1531.7 1386.01 1531.85 L1386.05 1537.87 Z" fill="#000000" fill-rule="evenodd" fill-opacity="1"></path><path clip-path="url(#clip250)" d="M1392.19 1532.4 L1398.05 1532.4 L1398.05 1568.04 L1392.19 1568.04 L1392.19 1532.4 M1392.19 1518.52 L1398.05 1518.52 L1398.05 1525.93 L1392.19 1525.93 L1392.19 1518.52 Z" fill="#000000" fill-rule="evenodd" fill-opacity="1"></path><path clip-path="url(#clip250)" d="M1439.93 1532.4 L1427.04 1549.74 L1440.6 1568.04 L1433.69 1568.04 L1423.32 1554.04 L1412.94 1568.04 L1406.03 1568.04 L1419.88 1549.39 L1407.21 1532.4 L1414.12 1532.4 L1423.57 1545.1 L1433.03 1532.4 L1439.93 1532.4 Z" fill="#000000" fill-rule="evenodd" fill-opacity="1"></path><path clip-path="url(#clip250)" d="M1492.32 1533.45 L1492.32 1538.98 Q1489.84 1537.71 1487.17 1537.07 Q1484.49 1536.44 1481.63 1536.44 Q1477.27 1536.44 1475.07 1537.77 Q1472.91 1539.11 1472.91 1541.79 Q1472.91 1543.82 1474.47 1545 Q1476.03 1546.15 1480.74 1547.2 L1482.74 1547.64 Q1488.98 1548.98 1491.59 1551.43 Q1494.23 1553.85 1494.23 1558.21 Q1494.23 1563.17 1490.28 1566.07 Q1486.37 1568.97 1479.5 1568.97 Q1476.63 1568.97 1473.51 1568.39 Q1470.42 1567.85 1466.99 1566.74 L1466.99 1560.69 Q1470.23 1562.38 1473.38 1563.24 Q1476.54 1564.07 1479.62 1564.07 Q1483.76 1564.07 1485.99 1562.66 Q1488.22 1561.23 1488.22 1558.65 Q1488.22 1556.27 1486.59 1554.99 Q1485 1553.72 1479.56 1552.54 L1477.52 1552.07 Q1472.08 1550.92 1469.66 1548.56 Q1467.24 1546.18 1467.24 1542.04 Q1467.24 1537.01 1470.81 1534.27 Q1474.37 1531.54 1480.93 1531.54 Q1484.17 1531.54 1487.04 1532.01 Q1489.9 1532.49 1492.32 1533.45 Z" fill="#000000" fill-rule="evenodd" fill-opacity="1"></path><path clip-path="url(#clip250)" d="M1503.56 1532.4 L1509.41 1532.4 L1509.41 1568.04 L1503.56 1568.04 L1503.56 1532.4 M1503.56 1518.52 L1509.41 1518.52 L1509.41 1525.93 L1503.56 1525.93 L1503.56 1518.52 Z" fill="#000000" fill-rule="evenodd" fill-opacity="1"></path><path clip-path="url(#clip250)" d="M1519.12 1532.4 L1546.94 1532.4 L1546.94 1537.74 L1524.91 1563.37 L1546.94 1563.37 L1546.94 1568.04 L1518.33 1568.04 L1518.33 1562.7 L1540.35 1537.07 L1519.12 1537.07 L1519.12 1532.4 Z" fill="#000000" fill-rule="evenodd" fill-opacity="1"></path><path clip-path="url(#clip250)" d="M1586.38 1548.76 L1586.38 1551.62 L1559.45 1551.62 Q1559.83 1557.67 1563.08 1560.85 Q1566.36 1564 1572.18 1564 Q1575.55 1564 1578.7 1563.17 Q1581.89 1562.35 1585.01 1560.69 L1585.01 1566.23 Q1581.86 1567.57 1578.55 1568.27 Q1575.24 1568.97 1571.83 1568.97 Q1563.3 1568.97 1558.3 1564 Q1553.34 1559.04 1553.34 1550.57 Q1553.34 1541.82 1558.05 1536.69 Q1562.79 1531.54 1570.81 1531.54 Q1578 1531.54 1582.17 1536.18 Q1586.38 1540.8 1586.38 1548.76 M1580.52 1547.04 Q1580.46 1542.23 1577.81 1539.37 Q1575.2 1536.5 1570.87 1536.5 Q1565.97 1536.5 1563.01 1539.27 Q1560.08 1542.04 1559.64 1547.07 L1580.52 1547.04 Z" fill="#000000" fill-rule="evenodd" fill-opacity="1"></path><path clip-path="url(#clip250)" d="M1595.06 1518.58 L1600.16 1518.58 Q1604.93 1526.09 1607.29 1533.29 Q1609.67 1540.48 1609.67 1547.58 Q1609.67 1554.71 1607.29 1561.93 Q1604.93 1569.16 1600.16 1576.64 L1595.06 1576.64 Q1599.3 1569.35 1601.37 1562.16 Q1603.47 1554.93 1603.47 1547.58 Q1603.47 1540.23 1601.37 1533.06 Q1599.3 1525.9 1595.06 1518.58 Z" fill="#000000" fill-rule="evenodd" fill-opacity="1"></path><polyline clip-path="url(#clip252)" style="stroke:#000000; stroke-linecap:round; stroke-linejoin:round; stroke-width:2; stroke-opacity:0.1; fill:none" points="
  398.649,1170.53 2352.76,1170.53 
  "></polyline>
<polyline clip-path="url(#clip252)" style="stroke:#000000; stroke-linecap:round; stroke-linejoin:round; stroke-width:2; stroke-opacity:0.1; fill:none" points="
  398.649,882 2352.76,882 
  "></polyline>
<polyline clip-path="url(#clip252)" style="stroke:#000000; stroke-linecap:round; stroke-linejoin:round; stroke-width:2; stroke-opacity:0.1; fill:none" points="
  398.649,593.471 2352.76,593.471 
  "></polyline>
<polyline clip-path="url(#clip252)" style="stroke:#000000; stroke-linecap:round; stroke-linejoin:round; stroke-width:2; stroke-opacity:0.1; fill:none" points="
  398.649,304.943 2352.76,304.943 
  "></polyline>
<polyline clip-path="url(#clip250)" style="stroke:#000000; stroke-linecap:round; stroke-linejoin:round; stroke-width:4; stroke-opacity:1; fill:none" points="
  398.649,1423.18 398.649,123.472 
  "></polyline>
<polyline clip-path="url(#clip250)" style="stroke:#000000; stroke-linecap:round; stroke-linejoin:round; stroke-width:4; stroke-opacity:1; fill:none" points="
  398.649,1170.53 417.546,1170.53 
  "></polyline>
<polyline clip-path="url(#clip250)" style="stroke:#000000; stroke-linecap:round; stroke-linejoin:round; stroke-width:4; stroke-opacity:1; fill:none" points="
  398.649,882 417.546,882 
  "></polyline>
<polyline clip-path="url(#clip250)" style="stroke:#000000; stroke-linecap:round; stroke-linejoin:round; stroke-width:4; stroke-opacity:1; fill:none" points="
  398.649,593.471 417.546,593.471 
  "></polyline>
<polyline clip-path="url(#clip250)" style="stroke:#000000; stroke-linecap:round; stroke-linejoin:round; stroke-width:4; stroke-opacity:1; fill:none" points="
  398.649,304.943 417.546,304.943 
  "></polyline>
<path clip-path="url(#clip250)" d="M116.668 1190.32 L124.306 1190.32 L124.306 1163.96 L115.996 1165.62 L115.996 1161.36 L124.26 1159.7 L128.936 1159.7 L128.936 1190.32 L136.575 1190.32 L136.575 1194.26 L116.668 1194.26 L116.668 1190.32 Z" fill="#000000" fill-rule="evenodd" fill-opacity="1"></path><path clip-path="url(#clip250)" d="M146.019 1188.38 L150.903 1188.38 L150.903 1194.26 L146.019 1194.26 L146.019 1188.38 Z" fill="#000000" fill-rule="evenodd" fill-opacity="1"></path><path clip-path="url(#clip250)" d="M161.135 1159.7 L179.491 1159.7 L179.491 1163.63 L165.417 1163.63 L165.417 1172.1 Q166.436 1171.76 167.454 1171.59 Q168.473 1171.41 169.491 1171.41 Q175.278 1171.41 178.658 1174.58 Q182.038 1177.75 182.038 1183.17 Q182.038 1188.75 178.565 1191.85 Q175.093 1194.93 168.774 1194.93 Q166.598 1194.93 164.329 1194.56 Q162.084 1194.19 159.677 1193.45 L159.677 1188.75 Q161.76 1189.88 163.982 1190.44 Q166.204 1190.99 168.681 1190.99 Q172.686 1190.99 175.024 1188.89 Q177.362 1186.78 177.362 1183.17 Q177.362 1179.56 175.024 1177.45 Q172.686 1175.34 168.681 1175.34 Q166.806 1175.34 164.931 1175.76 Q163.079 1176.18 161.135 1177.06 L161.135 1159.7 Z" fill="#000000" fill-rule="evenodd" fill-opacity="1"></path><path clip-path="url(#clip250)" d="M201.25 1162.78 Q197.639 1162.78 195.811 1166.34 Q194.005 1169.88 194.005 1177.01 Q194.005 1184.12 195.811 1187.68 Q197.639 1191.22 201.25 1191.22 Q204.885 1191.22 206.69 1187.68 Q208.519 1184.12 208.519 1177.01 Q208.519 1169.88 206.69 1166.34 Q204.885 1162.78 201.25 1162.78 M201.25 1159.07 Q207.061 1159.07 210.116 1163.68 Q213.195 1168.26 213.195 1177.01 Q213.195 1185.74 210.116 1190.34 Q207.061 1194.93 201.25 1194.93 Q195.44 1194.93 192.362 1190.34 Q189.306 1185.74 189.306 1177.01 Q189.306 1168.26 192.362 1163.68 Q195.44 1159.07 201.25 1159.07 Z" fill="#000000" fill-rule="evenodd" fill-opacity="1"></path><path clip-path="url(#clip250)" d="M249.584 1168.79 L239.005 1179.42 L249.584 1190 L246.829 1192.8 L236.204 1182.17 L225.579 1192.8 L222.848 1190 L233.403 1179.42 L222.848 1168.79 L225.579 1165.99 L236.204 1176.62 L246.829 1165.99 L249.584 1168.79 Z" fill="#000000" fill-rule="evenodd" fill-opacity="1"></path><path clip-path="url(#clip250)" d="M261.945 1190.32 L269.583 1190.32 L269.583 1163.96 L261.273 1165.62 L261.273 1161.36 L269.537 1159.7 L274.213 1159.7 L274.213 1190.32 L281.852 1190.32 L281.852 1194.26 L261.945 1194.26 L261.945 1190.32 Z" fill="#000000" fill-rule="evenodd" fill-opacity="1"></path><path clip-path="url(#clip250)" d="M301.296 1162.78 Q297.685 1162.78 295.856 1166.34 Q294.051 1169.88 294.051 1177.01 Q294.051 1184.12 295.856 1187.68 Q297.685 1191.22 301.296 1191.22 Q304.93 1191.22 306.736 1187.68 Q308.565 1184.12 308.565 1177.01 Q308.565 1169.88 306.736 1166.34 Q304.93 1162.78 301.296 1162.78 M301.296 1159.07 Q307.106 1159.07 310.162 1163.68 Q313.241 1168.26 313.241 1177.01 Q313.241 1185.74 310.162 1190.34 Q307.106 1194.93 301.296 1194.93 Q295.486 1194.93 292.407 1190.34 Q289.352 1185.74 289.352 1177.01 Q289.352 1168.26 292.407 1163.68 Q295.486 1159.07 301.296 1159.07 Z" fill="#000000" fill-rule="evenodd" fill-opacity="1"></path><path clip-path="url(#clip250)" d="M313.241 1153.17 L337.352 1153.17 L337.352 1156.37 L313.241 1156.37 L313.241 1153.17 Z" fill="#000000" fill-rule="evenodd" fill-opacity="1"></path><path clip-path="url(#clip250)" d="M344.593 1138.77 L362.649 1138.77 L362.649 1140.38 L352.455 1166.85 L348.486 1166.85 L358.078 1141.96 L344.593 1141.96 L344.593 1138.77 Z" fill="#000000" fill-rule="evenodd" fill-opacity="1"></path><path clip-path="url(#clip250)" d="M119.885 901.792 L136.204 901.792 L136.204 905.728 L114.26 905.728 L114.26 901.792 Q116.922 899.038 121.505 894.408 Q126.112 889.756 127.292 888.413 Q129.538 885.89 130.417 884.154 Q131.32 882.394 131.32 880.705 Q131.32 877.95 129.376 876.214 Q127.455 874.478 124.353 874.478 Q122.154 874.478 119.7 875.242 Q117.269 876.006 114.492 877.557 L114.492 872.834 Q117.316 871.7 119.769 871.121 Q122.223 870.543 124.26 870.543 Q129.63 870.543 132.825 873.228 Q136.019 875.913 136.019 880.404 Q136.019 882.533 135.209 884.455 Q134.422 886.353 132.316 888.945 Q131.737 889.617 128.635 892.834 Q125.533 896.029 119.885 901.792 Z" fill="#000000" fill-rule="evenodd" fill-opacity="1"></path><path clip-path="url(#clip250)" d="M146.019 899.848 L150.903 899.848 L150.903 905.728 L146.019 905.728 L146.019 899.848 Z" fill="#000000" fill-rule="evenodd" fill-opacity="1"></path><path clip-path="url(#clip250)" d="M171.089 874.246 Q167.477 874.246 165.649 877.811 Q163.843 881.353 163.843 888.482 Q163.843 895.589 165.649 899.154 Q167.477 902.695 171.089 902.695 Q174.723 902.695 176.528 899.154 Q178.357 895.589 178.357 888.482 Q178.357 881.353 176.528 877.811 Q174.723 874.246 171.089 874.246 M171.089 870.543 Q176.899 870.543 179.954 875.149 Q183.033 879.732 183.033 888.482 Q183.033 897.209 179.954 901.816 Q176.899 906.399 171.089 906.399 Q165.278 906.399 162.2 901.816 Q159.144 897.209 159.144 888.482 Q159.144 879.732 162.2 875.149 Q165.278 870.543 171.089 870.543 Z" fill="#000000" fill-rule="evenodd" fill-opacity="1"></path><path clip-path="url(#clip250)" d="M201.25 874.246 Q197.639 874.246 195.811 877.811 Q194.005 881.353 194.005 888.482 Q194.005 895.589 195.811 899.154 Q197.639 902.695 201.25 902.695 Q204.885 902.695 206.69 899.154 Q208.519 895.589 208.519 888.482 Q208.519 881.353 206.69 877.811 Q204.885 874.246 201.25 874.246 M201.25 870.543 Q207.061 870.543 210.116 875.149 Q213.195 879.732 213.195 888.482 Q213.195 897.209 210.116 901.816 Q207.061 906.399 201.25 906.399 Q195.44 906.399 192.362 901.816 Q189.306 897.209 189.306 888.482 Q189.306 879.732 192.362 875.149 Q195.44 870.543 201.25 870.543 Z" fill="#000000" fill-rule="evenodd" fill-opacity="1"></path><path clip-path="url(#clip250)" d="M249.584 880.265 L239.005 890.89 L249.584 901.468 L246.829 904.269 L236.204 893.644 L225.579 904.269 L222.848 901.468 L233.403 890.89 L222.848 880.265 L225.579 877.464 L236.204 888.089 L246.829 877.464 L249.584 880.265 Z" fill="#000000" fill-rule="evenodd" fill-opacity="1"></path><path clip-path="url(#clip250)" d="M261.945 901.792 L269.583 901.792 L269.583 875.427 L261.273 877.094 L261.273 872.834 L269.537 871.168 L274.213 871.168 L274.213 901.792 L281.852 901.792 L281.852 905.728 L261.945 905.728 L261.945 901.792 Z" fill="#000000" fill-rule="evenodd" fill-opacity="1"></path><path clip-path="url(#clip250)" d="M301.296 874.246 Q297.685 874.246 295.856 877.811 Q294.051 881.353 294.051 888.482 Q294.051 895.589 295.856 899.154 Q297.685 902.695 301.296 902.695 Q304.93 902.695 306.736 899.154 Q308.565 895.589 308.565 888.482 Q308.565 881.353 306.736 877.811 Q304.93 874.246 301.296 874.246 M301.296 870.543 Q307.106 870.543 310.162 875.149 Q313.241 879.732 313.241 888.482 Q313.241 897.209 310.162 901.816 Q307.106 906.399 301.296 906.399 Q295.486 906.399 292.407 901.816 Q289.352 897.209 289.352 888.482 Q289.352 879.732 292.407 875.149 Q295.486 870.543 301.296 870.543 Z" fill="#000000" fill-rule="evenodd" fill-opacity="1"></path><path clip-path="url(#clip250)" d="M313.241 864.644 L337.352 864.644 L337.352 867.841 L313.241 867.841 L313.241 864.644 Z" fill="#000000" fill-rule="evenodd" fill-opacity="1"></path><path clip-path="url(#clip250)" d="M344.593 850.237 L362.649 850.237 L362.649 851.855 L352.455 878.317 L348.486 878.317 L358.078 853.435 L344.593 853.435 L344.593 850.237 Z" fill="#000000" fill-rule="evenodd" fill-opacity="1"></path><path clip-path="url(#clip250)" d="M119.885 613.264 L136.204 613.264 L136.204 617.199 L114.26 617.199 L114.26 613.264 Q116.922 610.509 121.505 605.88 Q126.112 601.227 127.292 599.884 Q129.538 597.361 130.417 595.625 Q131.32 593.866 131.32 592.176 Q131.32 589.421 129.376 587.685 Q127.455 585.949 124.353 585.949 Q122.154 585.949 119.7 586.713 Q117.269 587.477 114.492 589.028 L114.492 584.306 Q117.316 583.171 119.769 582.593 Q122.223 582.014 124.26 582.014 Q129.63 582.014 132.825 584.699 Q136.019 587.384 136.019 591.875 Q136.019 594.005 135.209 595.926 Q134.422 597.824 132.316 600.417 Q131.737 601.088 128.635 604.306 Q125.533 607.5 119.885 613.264 Z" fill="#000000" fill-rule="evenodd" fill-opacity="1"></path><path clip-path="url(#clip250)" d="M146.019 611.319 L150.903 611.319 L150.903 617.199 L146.019 617.199 L146.019 611.319 Z" fill="#000000" fill-rule="evenodd" fill-opacity="1"></path><path clip-path="url(#clip250)" d="M161.135 582.639 L179.491 582.639 L179.491 586.574 L165.417 586.574 L165.417 595.046 Q166.436 594.699 167.454 594.537 Q168.473 594.352 169.491 594.352 Q175.278 594.352 178.658 597.523 Q182.038 600.694 182.038 606.111 Q182.038 611.69 178.565 614.792 Q175.093 617.87 168.774 617.87 Q166.598 617.87 164.329 617.5 Q162.084 617.13 159.677 616.389 L159.677 611.69 Q161.76 612.824 163.982 613.38 Q166.204 613.935 168.681 613.935 Q172.686 613.935 175.024 611.829 Q177.362 609.722 177.362 606.111 Q177.362 602.5 175.024 600.393 Q172.686 598.287 168.681 598.287 Q166.806 598.287 164.931 598.704 Q163.079 599.12 161.135 600 L161.135 582.639 Z" fill="#000000" fill-rule="evenodd" fill-opacity="1"></path><path clip-path="url(#clip250)" d="M201.25 585.718 Q197.639 585.718 195.811 589.282 Q194.005 592.824 194.005 599.954 Q194.005 607.06 195.811 610.625 Q197.639 614.167 201.25 614.167 Q204.885 614.167 206.69 610.625 Q208.519 607.06 208.519 599.954 Q208.519 592.824 206.69 589.282 Q204.885 585.718 201.25 585.718 M201.25 582.014 Q207.061 582.014 210.116 586.62 Q213.195 591.204 213.195 599.954 Q213.195 608.68 210.116 613.287 Q207.061 617.87 201.25 617.87 Q195.44 617.87 192.362 613.287 Q189.306 608.68 189.306 599.954 Q189.306 591.204 192.362 586.62 Q195.44 582.014 201.25 582.014 Z" fill="#000000" fill-rule="evenodd" fill-opacity="1"></path><path clip-path="url(#clip250)" d="M249.584 591.736 L239.005 602.361 L249.584 612.94 L246.829 615.741 L236.204 605.116 L225.579 615.741 L222.848 612.94 L233.403 602.361 L222.848 591.736 L225.579 588.935 L236.204 599.56 L246.829 588.935 L249.584 591.736 Z" fill="#000000" fill-rule="evenodd" fill-opacity="1"></path><path clip-path="url(#clip250)" d="M261.945 613.264 L269.583 613.264 L269.583 586.898 L261.273 588.565 L261.273 584.306 L269.537 582.639 L274.213 582.639 L274.213 613.264 L281.852 613.264 L281.852 617.199 L261.945 617.199 L261.945 613.264 Z" fill="#000000" fill-rule="evenodd" fill-opacity="1"></path><path clip-path="url(#clip250)" d="M301.296 585.718 Q297.685 585.718 295.856 589.282 Q294.051 592.824 294.051 599.954 Q294.051 607.06 295.856 610.625 Q297.685 614.167 301.296 614.167 Q304.93 614.167 306.736 610.625 Q308.565 607.06 308.565 599.954 Q308.565 592.824 306.736 589.282 Q304.93 585.718 301.296 585.718 M301.296 582.014 Q307.106 582.014 310.162 586.62 Q313.241 591.204 313.241 599.954 Q313.241 608.68 310.162 613.287 Q307.106 617.87 301.296 617.87 Q295.486 617.87 292.407 613.287 Q289.352 608.68 289.352 599.954 Q289.352 591.204 292.407 586.62 Q295.486 582.014 301.296 582.014 Z" fill="#000000" fill-rule="evenodd" fill-opacity="1"></path><path clip-path="url(#clip250)" d="M313.241 576.115 L337.352 576.115 L337.352 579.313 L313.241 579.313 L313.241 576.115 Z" fill="#000000" fill-rule="evenodd" fill-opacity="1"></path><path clip-path="url(#clip250)" d="M344.593 561.709 L362.649 561.709 L362.649 563.326 L352.455 589.789 L348.486 589.789 L358.078 564.906 L344.593 564.906 L344.593 561.709 Z" fill="#000000" fill-rule="evenodd" fill-opacity="1"></path><path clip-path="url(#clip250)" d="M130.024 310.036 Q133.38 310.754 135.255 313.022 Q137.154 315.291 137.154 318.624 Q137.154 323.74 133.635 326.541 Q130.117 329.342 123.635 329.342 Q121.459 329.342 119.144 328.902 Q116.853 328.485 114.399 327.629 L114.399 323.115 Q116.343 324.249 118.658 324.828 Q120.973 325.406 123.496 325.406 Q127.894 325.406 130.186 323.67 Q132.501 321.934 132.501 318.624 Q132.501 315.568 130.348 313.856 Q128.218 312.119 124.399 312.119 L120.371 312.119 L120.371 308.277 L124.584 308.277 Q128.033 308.277 129.862 306.911 Q131.691 305.522 131.691 302.93 Q131.691 300.268 129.792 298.856 Q127.917 297.42 124.399 297.42 Q122.478 297.42 120.279 297.837 Q118.08 298.254 115.441 299.133 L115.441 294.967 Q118.103 294.226 120.418 293.856 Q122.755 293.485 124.816 293.485 Q130.14 293.485 133.242 295.916 Q136.343 298.323 136.343 302.444 Q136.343 305.314 134.7 307.305 Q133.056 309.272 130.024 310.036 Z" fill="#000000" fill-rule="evenodd" fill-opacity="1"></path><path clip-path="url(#clip250)" d="M146.019 322.791 L150.903 322.791 L150.903 328.67 L146.019 328.67 L146.019 322.791 Z" fill="#000000" fill-rule="evenodd" fill-opacity="1"></path><path clip-path="url(#clip250)" d="M171.089 297.189 Q167.477 297.189 165.649 300.754 Q163.843 304.295 163.843 311.425 Q163.843 318.531 165.649 322.096 Q167.477 325.638 171.089 325.638 Q174.723 325.638 176.528 322.096 Q178.357 318.531 178.357 311.425 Q178.357 304.295 176.528 300.754 Q174.723 297.189 171.089 297.189 M171.089 293.485 Q176.899 293.485 179.954 298.092 Q183.033 302.675 183.033 311.425 Q183.033 320.152 179.954 324.758 Q176.899 329.342 171.089 329.342 Q165.278 329.342 162.2 324.758 Q159.144 320.152 159.144 311.425 Q159.144 302.675 162.2 298.092 Q165.278 293.485 171.089 293.485 Z" fill="#000000" fill-rule="evenodd" fill-opacity="1"></path><path clip-path="url(#clip250)" d="M201.25 297.189 Q197.639 297.189 195.811 300.754 Q194.005 304.295 194.005 311.425 Q194.005 318.531 195.811 322.096 Q197.639 325.638 201.25 325.638 Q204.885 325.638 206.69 322.096 Q208.519 318.531 208.519 311.425 Q208.519 304.295 206.69 300.754 Q204.885 297.189 201.25 297.189 M201.25 293.485 Q207.061 293.485 210.116 298.092 Q213.195 302.675 213.195 311.425 Q213.195 320.152 210.116 324.758 Q207.061 329.342 201.25 329.342 Q195.44 329.342 192.362 324.758 Q189.306 320.152 189.306 311.425 Q189.306 302.675 192.362 298.092 Q195.44 293.485 201.25 293.485 Z" fill="#000000" fill-rule="evenodd" fill-opacity="1"></path><path clip-path="url(#clip250)" d="M249.584 303.207 L239.005 313.832 L249.584 324.411 L246.829 327.212 L236.204 316.587 L225.579 327.212 L222.848 324.411 L233.403 313.832 L222.848 303.207 L225.579 300.407 L236.204 311.031 L246.829 300.407 L249.584 303.207 Z" fill="#000000" fill-rule="evenodd" fill-opacity="1"></path><path clip-path="url(#clip250)" d="M261.945 324.735 L269.583 324.735 L269.583 298.369 L261.273 300.036 L261.273 295.777 L269.537 294.11 L274.213 294.11 L274.213 324.735 L281.852 324.735 L281.852 328.67 L261.945 328.67 L261.945 324.735 Z" fill="#000000" fill-rule="evenodd" fill-opacity="1"></path><path clip-path="url(#clip250)" d="M301.296 297.189 Q297.685 297.189 295.856 300.754 Q294.051 304.295 294.051 311.425 Q294.051 318.531 295.856 322.096 Q297.685 325.638 301.296 325.638 Q304.93 325.638 306.736 322.096 Q308.565 318.531 308.565 311.425 Q308.565 304.295 306.736 300.754 Q304.93 297.189 301.296 297.189 M301.296 293.485 Q307.106 293.485 310.162 298.092 Q313.241 302.675 313.241 311.425 Q313.241 320.152 310.162 324.758 Q307.106 329.342 301.296 329.342 Q295.486 329.342 292.407 324.758 Q289.352 320.152 289.352 311.425 Q289.352 302.675 292.407 298.092 Q295.486 293.485 301.296 293.485 Z" fill="#000000" fill-rule="evenodd" fill-opacity="1"></path><path clip-path="url(#clip250)" d="M313.241 287.587 L337.352 287.587 L337.352 290.784 L313.241 290.784 L313.241 287.587 Z" fill="#000000" fill-rule="evenodd" fill-opacity="1"></path><path clip-path="url(#clip250)" d="M344.593 273.18 L362.649 273.18 L362.649 274.797 L352.455 301.26 L348.486 301.26 L358.078 276.377 L344.593 276.377 L344.593 273.18 Z" fill="#000000" fill-rule="evenodd" fill-opacity="1"></path><path clip-path="url(#clip250)" d="M41.7242 968.292 Q42.4244 966.223 44.7161 964.281 Q47.0077 962.308 51.0181 960.335 L64.0042 953.81 L64.0042 960.716 L51.8138 966.796 Q47.0395 969.151 45.48 971.379 Q43.9204 973.575 43.9204 977.395 L43.9204 984.397 L64.0042 984.397 L64.0042 990.826 L16.4842 990.826 L16.4842 976.312 Q16.4842 968.164 19.8898 964.154 Q23.2955 960.144 30.1704 960.144 Q34.6582 960.144 37.6183 962.244 Q40.5784 964.313 41.7242 968.292 M21.7677 984.397 L38.6368 984.397 L38.6368 976.312 Q38.6368 971.665 36.5043 969.31 Q34.34 966.923 30.1704 966.923 Q26.0009 966.923 23.9002 969.31 Q21.7677 971.665 21.7677 976.312 L21.7677 984.397 Z" fill="#000000" fill-rule="evenodd" fill-opacity="1"></path><path clip-path="url(#clip250)" d="M44.7161 918.225 L47.5806 918.225 L47.5806 945.152 Q53.6281 944.77 56.8109 941.524 Q59.9619 938.246 59.9619 932.421 Q59.9619 929.047 59.1344 925.896 Q58.3069 922.713 56.6518 919.594 L62.1899 919.594 Q63.5267 922.745 64.227 926.055 Q64.9272 929.365 64.9272 932.771 Q64.9272 941.301 59.9619 946.298 Q54.9967 951.263 46.5303 951.263 Q37.7774 951.263 32.6531 946.553 Q27.4968 941.81 27.4968 933.79 Q27.4968 926.596 32.1438 922.427 Q36.7589 918.225 44.7161 918.225 M42.9973 924.082 Q38.1912 924.145 35.3266 926.787 Q32.4621 929.397 32.4621 933.726 Q32.4621 938.627 35.2312 941.588 Q38.0002 944.516 43.0292 944.961 L42.9973 924.082 Z" fill="#000000" fill-rule="evenodd" fill-opacity="1"></path><path clip-path="url(#clip250)" d="M14.479 908.613 L14.479 902.757 L64.0042 902.757 L64.0042 908.613 L14.479 908.613 Z" fill="#000000" fill-rule="evenodd" fill-opacity="1"></path><path clip-path="url(#clip250)" d="M46.0847 874.302 Q46.0847 881.4 47.7079 884.137 Q49.3312 886.874 53.2461 886.874 Q56.3653 886.874 58.2114 884.837 Q60.0256 882.768 60.0256 879.235 Q60.0256 874.366 56.5881 871.437 Q53.1188 868.477 47.3897 868.477 L46.0847 868.477 L46.0847 874.302 M43.6657 862.621 L64.0042 862.621 L64.0042 868.477 L58.5933 868.477 Q61.8398 870.483 63.3994 873.474 Q64.9272 876.466 64.9272 880.795 Q64.9272 886.27 61.8716 889.516 Q58.7843 892.731 53.6281 892.731 Q47.6125 892.731 44.5569 888.72 Q41.5014 884.678 41.5014 876.689 L41.5014 868.477 L40.9285 868.477 Q36.8862 868.477 34.6901 871.151 Q32.4621 873.793 32.4621 878.599 Q32.4621 881.654 33.1941 884.551 Q33.9262 887.447 35.3903 890.121 L29.9795 890.121 Q28.7381 886.906 28.1334 883.882 Q27.4968 880.859 27.4968 877.994 Q27.4968 870.26 31.5072 866.44 Q35.5176 862.621 43.6657 862.621 Z" fill="#000000" fill-rule="evenodd" fill-opacity="1"></path><path clip-path="url(#clip250)" d="M18.2347 844.765 L28.3562 844.765 L28.3562 832.702 L32.9077 832.702 L32.9077 844.765 L52.2594 844.765 Q56.6199 844.765 57.8613 843.587 Q59.1026 842.378 59.1026 838.718 L59.1026 832.702 L64.0042 832.702 L64.0042 838.718 Q64.0042 845.497 61.4897 848.075 Q58.9434 850.653 52.2594 850.653 L32.9077 850.653 L32.9077 854.95 L28.3562 854.95 L28.3562 850.653 L18.2347 850.653 L18.2347 844.765 Z" fill="#000000" fill-rule="evenodd" fill-opacity="1"></path><path clip-path="url(#clip250)" d="M28.3562 825 L28.3562 819.143 L64.0042 819.143 L64.0042 825 L28.3562 825 M14.479 825 L14.479 819.143 L21.895 819.143 L21.895 825 L14.479 825 Z" fill="#000000" fill-rule="evenodd" fill-opacity="1"></path><path clip-path="url(#clip250)" d="M28.3562 811.091 L28.3562 804.884 L58.275 793.744 L28.3562 782.604 L28.3562 776.397 L64.0042 789.765 L64.0042 797.723 L28.3562 811.091 Z" fill="#000000" fill-rule="evenodd" fill-opacity="1"></path><path clip-path="url(#clip250)" d="M44.7161 737.821 L47.5806 737.821 L47.5806 764.748 Q53.6281 764.366 56.8109 761.12 Q59.9619 757.841 59.9619 752.017 Q59.9619 748.643 59.1344 745.492 Q58.3069 742.309 56.6518 739.19 L62.1899 739.19 Q63.5267 742.341 64.227 745.651 Q64.9272 748.961 64.9272 752.367 Q64.9272 760.897 59.9619 765.894 Q54.9967 770.859 46.5303 770.859 Q37.7774 770.859 32.6531 766.149 Q27.4968 761.406 27.4968 753.385 Q27.4968 746.192 32.1438 742.023 Q36.7589 737.821 44.7161 737.821 M42.9973 743.678 Q38.1912 743.741 35.3266 746.383 Q32.4621 748.993 32.4621 753.322 Q32.4621 758.223 35.2312 761.183 Q38.0002 764.112 43.0292 764.557 L42.9973 743.678 Z" fill="#000000" fill-rule="evenodd" fill-opacity="1"></path><path clip-path="url(#clip250)" d="M44.7161 676.997 L47.5806 676.997 L47.5806 703.924 Q53.6281 703.542 56.8109 700.295 Q59.9619 697.017 59.9619 691.192 Q59.9619 687.819 59.1344 684.668 Q58.3069 681.485 56.6518 678.366 L62.1899 678.366 Q63.5267 681.517 64.227 684.827 Q64.9272 688.137 64.9272 691.543 Q64.9272 700.073 59.9619 705.07 Q54.9967 710.035 46.5303 710.035 Q37.7774 710.035 32.6531 705.324 Q27.4968 700.582 27.4968 692.561 Q27.4968 685.368 32.1438 681.198 Q36.7589 676.997 44.7161 676.997 M42.9973 682.853 Q38.1912 682.917 35.3266 685.559 Q32.4621 688.169 32.4621 692.497 Q32.4621 697.399 35.2312 700.359 Q38.0002 703.287 43.0292 703.733 L42.9973 682.853 Z" fill="#000000" fill-rule="evenodd" fill-opacity="1"></path><path clip-path="url(#clip250)" d="M33.8307 646.728 Q33.2578 647.715 33.0032 648.892 Q32.7167 650.038 32.7167 651.439 Q32.7167 656.404 35.9632 659.077 Q39.1779 661.719 45.2253 661.719 L64.0042 661.719 L64.0042 667.608 L28.3562 667.608 L28.3562 661.719 L33.8944 661.719 Q30.6479 659.873 29.0883 656.913 Q27.4968 653.953 27.4968 649.72 Q27.4968 649.115 27.5923 648.383 Q27.656 647.651 27.8151 646.76 L33.8307 646.728 Z" fill="#000000" fill-rule="evenodd" fill-opacity="1"></path><path clip-path="url(#clip250)" d="M33.8307 621.074 Q33.2578 622.061 33.0032 623.239 Q32.7167 624.384 32.7167 625.785 Q32.7167 630.75 35.9632 633.424 Q39.1779 636.065 45.2253 636.065 L64.0042 636.065 L64.0042 641.954 L28.3562 641.954 L28.3562 636.065 L33.8944 636.065 Q30.6479 634.219 29.0883 631.259 Q27.4968 628.299 27.4968 624.066 Q27.4968 623.461 27.5923 622.729 Q27.656 621.997 27.8151 621.106 L33.8307 621.074 Z" fill="#000000" fill-rule="evenodd" fill-opacity="1"></path><path clip-path="url(#clip250)" d="M32.4621 602.55 Q32.4621 607.261 36.1542 609.998 Q39.8145 612.735 46.212 612.735 Q52.6095 612.735 56.3017 610.03 Q59.9619 607.292 59.9619 602.55 Q59.9619 597.871 56.2698 595.134 Q52.5777 592.397 46.212 592.397 Q39.8781 592.397 36.186 595.134 Q32.4621 597.871 32.4621 602.55 M27.4968 602.55 Q27.4968 594.911 32.4621 590.551 Q37.4273 586.19 46.212 586.19 Q54.9649 586.19 59.9619 590.551 Q64.9272 594.911 64.9272 602.55 Q64.9272 610.221 59.9619 614.581 Q54.9649 618.91 46.212 618.91 Q37.4273 618.91 32.4621 614.581 Q27.4968 610.221 27.4968 602.55 Z" fill="#000000" fill-rule="evenodd" fill-opacity="1"></path><path clip-path="url(#clip250)" d="M33.8307 555.826 Q33.2578 556.812 33.0032 557.99 Q32.7167 559.136 32.7167 560.536 Q32.7167 565.502 35.9632 568.175 Q39.1779 570.817 45.2253 570.817 L64.0042 570.817 L64.0042 576.705 L28.3562 576.705 L28.3562 570.817 L33.8944 570.817 Q30.6479 568.971 29.0883 566.011 Q27.4968 563.051 27.4968 558.818 Q27.4968 558.213 27.5923 557.481 Q27.656 556.749 27.8151 555.858 L33.8307 555.826 Z" fill="#000000" fill-rule="evenodd" fill-opacity="1"></path><path clip-path="url(#clip250)" d="M861.278 44.2197 Q863.911 45.1109 866.382 48.0275 Q868.894 50.9442 871.405 56.0483 L879.71 72.576 L870.919 72.576 L863.182 57.061 Q860.184 50.9847 857.349 48.9997 Q854.553 47.0148 849.692 47.0148 L840.78 47.0148 L840.78 72.576 L832.598 72.576 L832.598 12.096 L851.07 12.096 Q861.44 12.096 866.544 16.4305 Q871.648 20.7649 871.648 29.5149 Q871.648 35.2267 868.975 38.994 Q866.342 42.7613 861.278 44.2197 M840.78 18.8205 L840.78 40.2903 L851.07 40.2903 Q856.984 40.2903 859.982 37.5762 Q863.02 34.8216 863.02 29.5149 Q863.02 24.2082 859.982 21.5346 Q856.984 18.8205 851.07 18.8205 L840.78 18.8205 Z" fill="#000000" fill-rule="evenodd" fill-opacity="1"></path><path clip-path="url(#clip250)" d="M924.999 48.0275 L924.999 51.6733 L890.728 51.6733 Q891.214 59.3701 895.346 63.421 Q899.518 67.4314 906.932 67.4314 Q911.226 67.4314 915.236 66.3781 Q919.287 65.3249 923.257 63.2184 L923.257 70.267 Q919.246 71.9684 915.033 72.8596 Q910.82 73.7508 906.486 73.7508 Q895.63 73.7508 889.27 67.4314 Q882.95 61.1119 882.95 50.3365 Q882.95 39.1965 888.946 32.6746 Q894.981 26.1121 905.19 26.1121 Q914.345 26.1121 919.651 32.0264 Q924.999 37.9003 924.999 48.0275 M917.545 45.84 Q917.464 39.7232 914.102 36.0774 Q910.78 32.4315 905.271 32.4315 Q899.032 32.4315 895.265 35.9558 Q891.538 39.4801 890.971 45.8805 L917.545 45.84 Z" fill="#000000" fill-rule="evenodd" fill-opacity="1"></path><path clip-path="url(#clip250)" d="M937.232 9.54393 L944.686 9.54393 L944.686 72.576 L937.232 72.576 L937.232 9.54393 Z" fill="#000000" fill-rule="evenodd" fill-opacity="1"></path><path clip-path="url(#clip250)" d="M980.901 49.7694 Q971.868 49.7694 968.384 51.8354 Q964.9 53.9013 964.9 58.8839 Q964.9 62.8538 967.493 65.2034 Q970.126 67.5124 974.622 67.5124 Q980.82 67.5124 984.547 63.1374 Q988.314 58.7219 988.314 51.4303 L988.314 49.7694 L980.901 49.7694 M995.768 46.6907 L995.768 72.576 L988.314 72.576 L988.314 65.6895 Q985.762 69.8214 981.954 71.8063 Q978.147 73.7508 972.637 73.7508 Q965.67 73.7508 961.538 69.8619 Q957.446 65.9325 957.446 59.3701 Q957.446 51.7138 962.551 47.825 Q967.695 43.9361 977.863 43.9361 L988.314 43.9361 L988.314 43.2069 Q988.314 38.0623 984.912 35.2672 Q981.549 32.4315 975.432 32.4315 Q971.544 32.4315 967.857 33.3632 Q964.171 34.295 960.768 36.1584 L960.768 29.2718 Q964.86 27.692 968.708 26.9223 Q972.556 26.1121 976.202 26.1121 Q986.046 26.1121 990.907 31.2163 Q995.768 36.3204 995.768 46.6907 Z" fill="#000000" fill-rule="evenodd" fill-opacity="1"></path><path clip-path="url(#clip250)" d="M1018.49 14.324 L1018.49 27.2059 L1033.85 27.2059 L1033.85 32.9987 L1018.49 32.9987 L1018.49 57.6282 Q1018.49 63.1779 1019.99 64.7578 Q1021.53 66.3376 1026.19 66.3376 L1033.85 66.3376 L1033.85 72.576 L1026.19 72.576 Q1017.56 72.576 1014.28 69.3758 Q1011 66.1351 1011 57.6282 L1011 32.9987 L1005.53 32.9987 L1005.53 27.2059 L1011 27.2059 L1011 14.324 L1018.49 14.324 Z" fill="#000000" fill-rule="evenodd" fill-opacity="1"></path><path clip-path="url(#clip250)" d="M1043.65 27.2059 L1051.1 27.2059 L1051.1 72.576 L1043.65 72.576 L1043.65 27.2059 M1043.65 9.54393 L1051.1 9.54393 L1051.1 18.9825 L1043.65 18.9825 L1043.65 9.54393 Z" fill="#000000" fill-rule="evenodd" fill-opacity="1"></path><path clip-path="url(#clip250)" d="M1061.35 27.2059 L1069.25 27.2059 L1083.43 65.2844 L1097.61 27.2059 L1105.51 27.2059 L1088.49 72.576 L1078.37 72.576 L1061.35 27.2059 Z" fill="#000000" fill-rule="evenodd" fill-opacity="1"></path><path clip-path="url(#clip250)" d="M1154.6 48.0275 L1154.6 51.6733 L1120.33 51.6733 Q1120.82 59.3701 1124.95 63.421 Q1129.12 67.4314 1136.54 67.4314 Q1140.83 67.4314 1144.84 66.3781 Q1148.89 65.3249 1152.86 63.2184 L1152.86 70.267 Q1148.85 71.9684 1144.64 72.8596 Q1140.43 73.7508 1136.09 73.7508 Q1125.23 73.7508 1118.87 67.4314 Q1112.56 61.1119 1112.56 50.3365 Q1112.56 39.1965 1118.55 32.6746 Q1124.59 26.1121 1134.79 26.1121 Q1143.95 26.1121 1149.26 32.0264 Q1154.6 37.9003 1154.6 48.0275 M1147.15 45.84 Q1147.07 39.7232 1143.71 36.0774 Q1140.39 32.4315 1134.88 32.4315 Q1128.64 32.4315 1124.87 35.9558 Q1121.14 39.4801 1120.58 45.8805 L1147.15 45.84 Z" fill="#000000" fill-rule="evenodd" fill-opacity="1"></path><path clip-path="url(#clip250)" d="M1232.02 48.0275 L1232.02 51.6733 L1197.75 51.6733 Q1198.23 59.3701 1202.36 63.421 Q1206.54 67.4314 1213.95 67.4314 Q1218.24 67.4314 1222.25 66.3781 Q1226.3 65.3249 1230.27 63.2184 L1230.27 70.267 Q1226.26 71.9684 1222.05 72.8596 Q1217.84 73.7508 1213.5 73.7508 Q1202.65 73.7508 1196.29 67.4314 Q1189.97 61.1119 1189.97 50.3365 Q1189.97 39.1965 1195.96 32.6746 Q1202 26.1121 1212.21 26.1121 Q1221.36 26.1121 1226.67 32.0264 Q1232.02 37.9003 1232.02 48.0275 M1224.56 45.84 Q1224.48 39.7232 1221.12 36.0774 Q1217.8 32.4315 1212.29 32.4315 Q1206.05 32.4315 1202.28 35.9558 Q1198.56 39.4801 1197.99 45.8805 L1224.56 45.84 Z" fill="#000000" fill-rule="evenodd" fill-opacity="1"></path><path clip-path="url(#clip250)" d="M1270.54 34.1734 Q1269.28 33.4443 1267.79 33.1202 Q1266.33 32.7556 1264.55 32.7556 Q1258.23 32.7556 1254.82 36.8875 Q1251.46 40.9789 1251.46 48.6757 L1251.46 72.576 L1243.97 72.576 L1243.97 27.2059 L1251.46 27.2059 L1251.46 34.2544 Q1253.81 30.1225 1257.58 28.1376 Q1261.35 26.1121 1266.73 26.1121 Q1267.5 26.1121 1268.43 26.2337 Q1269.37 26.3147 1270.5 26.5172 L1270.54 34.1734 Z" fill="#000000" fill-rule="evenodd" fill-opacity="1"></path><path clip-path="url(#clip250)" d="M1303.19 34.1734 Q1301.94 33.4443 1300.44 33.1202 Q1298.98 32.7556 1297.2 32.7556 Q1290.88 32.7556 1287.47 36.8875 Q1284.11 40.9789 1284.11 48.6757 L1284.11 72.576 L1276.62 72.576 L1276.62 27.2059 L1284.11 27.2059 L1284.11 34.2544 Q1286.46 30.1225 1290.23 28.1376 Q1294 26.1121 1299.38 26.1121 Q1300.15 26.1121 1301.08 26.2337 Q1302.02 26.3147 1303.15 26.5172 L1303.19 34.1734 Z" fill="#000000" fill-rule="evenodd" fill-opacity="1"></path><path clip-path="url(#clip250)" d="M1326.77 32.4315 Q1320.77 32.4315 1317.29 37.1306 Q1313.8 41.7891 1313.8 49.9314 Q1313.8 58.0738 1317.25 62.7728 Q1320.73 67.4314 1326.77 67.4314 Q1332.72 67.4314 1336.21 62.7323 Q1339.69 58.0333 1339.69 49.9314 Q1339.69 41.8701 1336.21 37.1711 Q1332.72 32.4315 1326.77 32.4315 M1326.77 26.1121 Q1336.49 26.1121 1342.04 32.4315 Q1347.59 38.7509 1347.59 49.9314 Q1347.59 61.0714 1342.04 67.4314 Q1336.49 73.7508 1326.77 73.7508 Q1317 73.7508 1311.45 67.4314 Q1305.95 61.0714 1305.95 49.9314 Q1305.95 38.7509 1311.45 32.4315 Q1317 26.1121 1326.77 26.1121 Z" fill="#000000" fill-rule="evenodd" fill-opacity="1"></path><path clip-path="url(#clip250)" d="M1386.23 34.1734 Q1384.98 33.4443 1383.48 33.1202 Q1382.02 32.7556 1380.24 32.7556 Q1373.92 32.7556 1370.52 36.8875 Q1367.15 40.9789 1367.15 48.6757 L1367.15 72.576 L1359.66 72.576 L1359.66 27.2059 L1367.15 27.2059 L1367.15 34.2544 Q1369.5 30.1225 1373.27 28.1376 Q1377.04 26.1121 1382.43 26.1121 Q1383.2 26.1121 1384.13 26.2337 Q1385.06 26.3147 1386.19 26.5172 L1386.23 34.1734 Z" fill="#000000" fill-rule="evenodd" fill-opacity="1"></path><path clip-path="url(#clip250)" d="M1438.01 32.4315 Q1432.01 32.4315 1428.53 37.1306 Q1425.04 41.7891 1425.04 49.9314 Q1425.04 58.0738 1428.49 62.7728 Q1431.97 67.4314 1438.01 67.4314 Q1443.96 67.4314 1447.44 62.7323 Q1450.93 58.0333 1450.93 49.9314 Q1450.93 41.8701 1447.44 37.1711 Q1443.96 32.4315 1438.01 32.4315 M1438.01 26.1121 Q1447.73 26.1121 1453.28 32.4315 Q1458.83 38.7509 1458.83 49.9314 Q1458.83 61.0714 1453.28 67.4314 Q1447.73 73.7508 1438.01 73.7508 Q1428.24 73.7508 1422.69 67.4314 Q1417.18 61.0714 1417.18 49.9314 Q1417.18 38.7509 1422.69 32.4315 Q1428.24 26.1121 1438.01 26.1121 Z" fill="#000000" fill-rule="evenodd" fill-opacity="1"></path><path clip-path="url(#clip250)" d="M1494.15 9.54393 L1494.15 15.7418 L1487.02 15.7418 Q1483.01 15.7418 1481.43 17.3622 Q1479.89 18.9825 1479.89 23.1955 L1479.89 27.2059 L1492.17 27.2059 L1492.17 32.9987 L1479.89 32.9987 L1479.89 72.576 L1472.4 72.576 L1472.4 32.9987 L1465.27 32.9987 L1465.27 27.2059 L1472.4 27.2059 L1472.4 24.0462 Q1472.4 16.471 1475.92 13.0277 Q1479.45 9.54393 1487.1 9.54393 L1494.15 9.54393 Z" fill="#000000" fill-rule="evenodd" fill-opacity="1"></path><path clip-path="url(#clip250)" d="M1572.37 16.7545 L1572.37 25.383 Q1568.24 21.5346 1563.54 19.6307 Q1558.88 17.7268 1553.62 17.7268 Q1543.25 17.7268 1537.74 24.0867 Q1532.23 30.4061 1532.23 42.3968 Q1532.23 54.3469 1537.74 60.7069 Q1543.25 67.0263 1553.62 67.0263 Q1558.88 67.0263 1563.54 65.1223 Q1568.24 63.2184 1572.37 59.3701 L1572.37 67.9175 Q1568.08 70.8341 1563.26 72.2924 Q1558.48 73.7508 1553.13 73.7508 Q1539.4 73.7508 1531.5 65.3654 Q1523.6 56.9395 1523.6 42.3968 Q1523.6 27.8135 1531.5 19.4281 Q1539.4 11.0023 1553.13 11.0023 Q1558.56 11.0023 1563.34 12.4606 Q1568.16 13.8784 1572.37 16.7545 Z" fill="#000000" fill-rule="evenodd" fill-opacity="1"></path><path clip-path="url(#clip250)" d="M1626.25 63.9476 L1626.25 47.7034 L1612.88 47.7034 L1612.88 40.9789 L1634.35 40.9789 L1634.35 66.9452 Q1629.61 70.3075 1623.9 72.0494 Q1618.19 73.7508 1611.71 73.7508 Q1597.53 73.7508 1589.51 65.4869 Q1581.53 57.1826 1581.53 42.3968 Q1581.53 27.5705 1589.51 19.3066 Q1597.53 11.0023 1611.71 11.0023 Q1617.62 11.0023 1622.93 12.4606 Q1628.28 13.9189 1632.77 16.7545 L1632.77 25.464 Q1628.24 21.6156 1623.13 19.6712 Q1618.03 17.7268 1612.4 17.7268 Q1601.3 17.7268 1595.71 23.9246 Q1590.16 30.1225 1590.16 42.3968 Q1590.16 54.6305 1595.71 60.8284 Q1601.3 67.0263 1612.4 67.0263 Q1616.73 67.0263 1620.13 66.2971 Q1623.54 65.5274 1626.25 63.9476 Z" fill="#000000" fill-rule="evenodd" fill-opacity="1"></path><path clip-path="url(#clip250)" d="M1704.27 28.5427 L1704.27 35.5912 Q1701.11 33.9709 1697.71 33.1607 Q1694.31 32.3505 1690.66 32.3505 Q1685.11 32.3505 1682.32 34.0519 Q1679.56 35.7533 1679.56 39.156 Q1679.56 41.7486 1681.55 43.2475 Q1683.53 44.7058 1689.53 46.0426 L1692.08 46.6097 Q1700.02 48.3111 1703.34 51.4303 Q1706.7 54.509 1706.7 60.0587 Q1706.7 66.3781 1701.68 70.0644 Q1696.7 73.7508 1687.95 73.7508 Q1684.3 73.7508 1680.33 73.0216 Q1676.4 72.3329 1672.03 70.9151 L1672.03 63.2184 Q1676.16 65.3654 1680.17 66.4591 Q1684.18 67.5124 1688.11 67.5124 Q1693.37 67.5124 1696.21 65.73 Q1699.05 63.9071 1699.05 60.6258 Q1699.05 57.5877 1696.98 55.9673 Q1694.95 54.3469 1688.03 52.8481 L1685.43 52.2405 Q1678.51 50.7821 1675.43 47.7845 Q1672.35 44.7463 1672.35 39.4801 Q1672.35 33.0797 1676.89 29.5959 Q1681.42 26.1121 1689.77 26.1121 Q1693.9 26.1121 1697.55 26.7198 Q1701.19 27.3274 1704.27 28.5427 Z" fill="#000000" fill-rule="evenodd" fill-opacity="1"></path><path clip-path="url(#clip250)" d="M1736.15 32.4315 Q1730.16 32.4315 1726.67 37.1306 Q1723.19 41.7891 1723.19 49.9314 Q1723.19 58.0738 1726.63 62.7728 Q1730.12 67.4314 1736.15 67.4314 Q1742.11 67.4314 1745.59 62.7323 Q1749.07 58.0333 1749.07 49.9314 Q1749.07 41.8701 1745.59 37.1711 Q1742.11 32.4315 1736.15 32.4315 M1736.15 26.1121 Q1745.87 26.1121 1751.42 32.4315 Q1756.97 38.7509 1756.97 49.9314 Q1756.97 61.0714 1751.42 67.4314 Q1745.87 73.7508 1736.15 73.7508 Q1726.39 73.7508 1720.84 67.4314 Q1715.33 61.0714 1715.33 49.9314 Q1715.33 38.7509 1720.84 32.4315 Q1726.39 26.1121 1736.15 26.1121 Z" fill="#000000" fill-rule="evenodd" fill-opacity="1"></path><path clip-path="url(#clip250)" d="M1769.33 9.54393 L1776.78 9.54393 L1776.78 72.576 L1769.33 72.576 L1769.33 9.54393 Z" fill="#000000" fill-rule="evenodd" fill-opacity="1"></path><path clip-path="url(#clip250)" d="M1787.03 27.2059 L1794.93 27.2059 L1809.11 65.2844 L1823.29 27.2059 L1831.19 27.2059 L1814.17 72.576 L1804.04 72.576 L1787.03 27.2059 Z" fill="#000000" fill-rule="evenodd" fill-opacity="1"></path><path clip-path="url(#clip250)" d="M1880.28 48.0275 L1880.28 51.6733 L1846.01 51.6733 Q1846.5 59.3701 1850.63 63.421 Q1854.8 67.4314 1862.22 67.4314 Q1866.51 67.4314 1870.52 66.3781 Q1874.57 65.3249 1878.54 63.2184 L1878.54 70.267 Q1874.53 71.9684 1870.32 72.8596 Q1866.1 73.7508 1861.77 73.7508 Q1850.91 73.7508 1844.55 67.4314 Q1838.23 61.1119 1838.23 50.3365 Q1838.23 39.1965 1844.23 32.6746 Q1850.27 26.1121 1860.47 26.1121 Q1869.63 26.1121 1874.94 32.0264 Q1880.28 37.9003 1880.28 48.0275 M1872.83 45.84 Q1872.75 39.7232 1869.39 36.0774 Q1866.06 32.4315 1860.55 32.4315 Q1854.32 32.4315 1850.55 35.9558 Q1846.82 39.4801 1846.26 45.8805 L1872.83 45.84 Z" fill="#000000" fill-rule="evenodd" fill-opacity="1"></path><path clip-path="url(#clip250)" d="M1918.81 34.1734 Q1917.55 33.4443 1916.05 33.1202 Q1914.59 32.7556 1912.81 32.7556 Q1906.49 32.7556 1903.09 36.8875 Q1899.73 40.9789 1899.73 48.6757 L1899.73 72.576 L1892.23 72.576 L1892.23 27.2059 L1899.73 27.2059 L1899.73 34.2544 Q1902.08 30.1225 1905.84 28.1376 Q1909.61 26.1121 1915 26.1121 Q1915.77 26.1121 1916.7 26.2337 Q1917.63 26.3147 1918.77 26.5172 L1918.81 34.1734 Z" fill="#000000" fill-rule="evenodd" fill-opacity="1"></path><circle clip-path="url(#clip252)" cx="453.954" cy="400.394" r="14.4" fill="#009af9" fill-rule="evenodd" fill-opacity="1" stroke="#000000" stroke-opacity="1" stroke-width="3.2"></circle>
<circle clip-path="url(#clip252)" cx="550.98" cy="565.367" r="14.4" fill="#009af9" fill-rule="evenodd" fill-opacity="1" stroke="#000000" stroke-opacity="1" stroke-width="3.2"></circle>
<circle clip-path="url(#clip252)" cx="648.006" cy="906.478" r="14.4" fill="#009af9" fill-rule="evenodd" fill-opacity="1" stroke="#000000" stroke-opacity="1" stroke-width="3.2"></circle>
<circle clip-path="url(#clip252)" cx="745.032" cy="616.19" r="14.4" fill="#009af9" fill-rule="evenodd" fill-opacity="1" stroke="#000000" stroke-opacity="1" stroke-width="3.2"></circle>
<circle clip-path="url(#clip252)" cx="842.058" cy="1029.66" r="14.4" fill="#009af9" fill-rule="evenodd" fill-opacity="1" stroke="#000000" stroke-opacity="1" stroke-width="3.2"></circle>
<circle clip-path="url(#clip252)" cx="939.084" cy="969.467" r="14.4" fill="#009af9" fill-rule="evenodd" fill-opacity="1" stroke="#000000" stroke-opacity="1" stroke-width="3.2"></circle>
<circle clip-path="url(#clip252)" cx="1036.11" cy="1042.72" r="14.4" fill="#009af9" fill-rule="evenodd" fill-opacity="1" stroke="#000000" stroke-opacity="1" stroke-width="3.2"></circle>
<circle clip-path="url(#clip252)" cx="1133.14" cy="965.218" r="14.4" fill="#009af9" fill-rule="evenodd" fill-opacity="1" stroke="#000000" stroke-opacity="1" stroke-width="3.2"></circle>
<circle clip-path="url(#clip252)" cx="1230.16" cy="929.918" r="14.4" fill="#009af9" fill-rule="evenodd" fill-opacity="1" stroke="#000000" stroke-opacity="1" stroke-width="3.2"></circle>
<circle clip-path="url(#clip252)" cx="1327.19" cy="1294.8" r="14.4" fill="#009af9" fill-rule="evenodd" fill-opacity="1" stroke="#000000" stroke-opacity="1" stroke-width="3.2"></circle>
<circle clip-path="url(#clip252)" cx="1424.22" cy="1222.12" r="14.4" fill="#009af9" fill-rule="evenodd" fill-opacity="1" stroke="#000000" stroke-opacity="1" stroke-width="3.2"></circle>
<circle clip-path="url(#clip252)" cx="1521.24" cy="1126.55" r="14.4" fill="#009af9" fill-rule="evenodd" fill-opacity="1" stroke="#000000" stroke-opacity="1" stroke-width="3.2"></circle>
<circle clip-path="url(#clip252)" cx="1618.27" cy="1291.89" r="14.4" fill="#009af9" fill-rule="evenodd" fill-opacity="1" stroke="#000000" stroke-opacity="1" stroke-width="3.2"></circle>
<circle clip-path="url(#clip252)" cx="1715.29" cy="1175.33" r="14.4" fill="#009af9" fill-rule="evenodd" fill-opacity="1" stroke="#000000" stroke-opacity="1" stroke-width="3.2"></circle>
<circle clip-path="url(#clip252)" cx="1812.32" cy="1132.69" r="14.4" fill="#009af9" fill-rule="evenodd" fill-opacity="1" stroke="#000000" stroke-opacity="1" stroke-width="3.2"></circle>
<circle clip-path="url(#clip252)" cx="1909.35" cy="1255.96" r="14.4" fill="#009af9" fill-rule="evenodd" fill-opacity="1" stroke="#000000" stroke-opacity="1" stroke-width="3.2"></circle>
<circle clip-path="url(#clip252)" cx="2006.37" cy="1194.55" r="14.4" fill="#009af9" fill-rule="evenodd" fill-opacity="1" stroke="#000000" stroke-opacity="1" stroke-width="3.2"></circle>
<circle clip-path="url(#clip252)" cx="2103.4" cy="1173.33" r="14.4" fill="#009af9" fill-rule="evenodd" fill-opacity="1" stroke="#000000" stroke-opacity="1" stroke-width="3.2"></circle>
<circle clip-path="url(#clip252)" cx="2200.42" cy="1304.69" r="14.4" fill="#009af9" fill-rule="evenodd" fill-opacity="1" stroke="#000000" stroke-opacity="1" stroke-width="3.2"></circle>
<circle clip-path="url(#clip252)" cx="2297.45" cy="1328.04" r="14.4" fill="#009af9" fill-rule="evenodd" fill-opacity="1" stroke="#000000" stroke-opacity="1" stroke-width="3.2"></circle>
<circle clip-path="url(#clip252)" cx="453.954" cy="870.521" r="14.4" fill="#e26f46" fill-rule="evenodd" fill-opacity="1" stroke="#000000" stroke-opacity="1" stroke-width="3.2"></circle>
<circle clip-path="url(#clip252)" cx="550.98" cy="338" r="14.4" fill="#e26f46" fill-rule="evenodd" fill-opacity="1" stroke="#000000" stroke-opacity="1" stroke-width="3.2"></circle>
<circle clip-path="url(#clip252)" cx="648.006" cy="1009.82" r="14.4" fill="#e26f46" fill-rule="evenodd" fill-opacity="1" stroke="#000000" stroke-opacity="1" stroke-width="3.2"></circle>
<circle clip-path="url(#clip252)" cx="745.032" cy="919.138" r="14.4" fill="#e26f46" fill-rule="evenodd" fill-opacity="1" stroke="#000000" stroke-opacity="1" stroke-width="3.2"></circle>
<circle clip-path="url(#clip252)" cx="842.058" cy="987.781" r="14.4" fill="#e26f46" fill-rule="evenodd" fill-opacity="1" stroke="#000000" stroke-opacity="1" stroke-width="3.2"></circle>
<circle clip-path="url(#clip252)" cx="939.084" cy="955.584" r="14.4" fill="#e26f46" fill-rule="evenodd" fill-opacity="1" stroke="#000000" stroke-opacity="1" stroke-width="3.2"></circle>
<circle clip-path="url(#clip252)" cx="1036.11" cy="1128.96" r="14.4" fill="#e26f46" fill-rule="evenodd" fill-opacity="1" stroke="#000000" stroke-opacity="1" stroke-width="3.2"></circle>
<circle clip-path="url(#clip252)" cx="1133.14" cy="980.448" r="14.4" fill="#e26f46" fill-rule="evenodd" fill-opacity="1" stroke="#000000" stroke-opacity="1" stroke-width="3.2"></circle>
<circle clip-path="url(#clip252)" cx="1230.16" cy="1111.46" r="14.4" fill="#e26f46" fill-rule="evenodd" fill-opacity="1" stroke="#000000" stroke-opacity="1" stroke-width="3.2"></circle>
<circle clip-path="url(#clip252)" cx="1327.19" cy="1106.7" r="14.4" fill="#e26f46" fill-rule="evenodd" fill-opacity="1" stroke="#000000" stroke-opacity="1" stroke-width="3.2"></circle>
<circle clip-path="url(#clip252)" cx="1424.22" cy="1070.74" r="14.4" fill="#e26f46" fill-rule="evenodd" fill-opacity="1" stroke="#000000" stroke-opacity="1" stroke-width="3.2"></circle>
<circle clip-path="url(#clip252)" cx="1521.24" cy="1195.15" r="14.4" fill="#e26f46" fill-rule="evenodd" fill-opacity="1" stroke="#000000" stroke-opacity="1" stroke-width="3.2"></circle>
<circle clip-path="url(#clip252)" cx="1618.27" cy="1086.63" r="14.4" fill="#e26f46" fill-rule="evenodd" fill-opacity="1" stroke="#000000" stroke-opacity="1" stroke-width="3.2"></circle>
<circle clip-path="url(#clip252)" cx="1715.29" cy="1141.7" r="14.4" fill="#e26f46" fill-rule="evenodd" fill-opacity="1" stroke="#000000" stroke-opacity="1" stroke-width="3.2"></circle>
<circle clip-path="url(#clip252)" cx="1812.32" cy="1203.32" r="14.4" fill="#e26f46" fill-rule="evenodd" fill-opacity="1" stroke="#000000" stroke-opacity="1" stroke-width="3.2"></circle>
<circle clip-path="url(#clip252)" cx="1909.35" cy="1280.42" r="14.4" fill="#e26f46" fill-rule="evenodd" fill-opacity="1" stroke="#000000" stroke-opacity="1" stroke-width="3.2"></circle>
<circle clip-path="url(#clip252)" cx="2006.37" cy="1301.52" r="14.4" fill="#e26f46" fill-rule="evenodd" fill-opacity="1" stroke="#000000" stroke-opacity="1" stroke-width="3.2"></circle>
<circle clip-path="url(#clip252)" cx="2103.4" cy="1192.43" r="14.4" fill="#e26f46" fill-rule="evenodd" fill-opacity="1" stroke="#000000" stroke-opacity="1" stroke-width="3.2"></circle>
<circle clip-path="url(#clip252)" cx="2200.42" cy="1254.71" r="14.4" fill="#e26f46" fill-rule="evenodd" fill-opacity="1" stroke="#000000" stroke-opacity="1" stroke-width="3.2"></circle>
<circle clip-path="url(#clip252)" cx="2297.45" cy="1261.41" r="14.4" fill="#e26f46" fill-rule="evenodd" fill-opacity="1" stroke="#000000" stroke-opacity="1" stroke-width="3.2"></circle>
<circle clip-path="url(#clip252)" cx="453.954" cy="160.256" r="14.4" fill="#3da44d" fill-rule="evenodd" fill-opacity="1" stroke="#000000" stroke-opacity="1" stroke-width="3.2"></circle>
<circle clip-path="url(#clip252)" cx="550.98" cy="858.415" r="14.4" fill="#3da44d" fill-rule="evenodd" fill-opacity="1" stroke="#000000" stroke-opacity="1" stroke-width="3.2"></circle>
<circle clip-path="url(#clip252)" cx="648.006" cy="1013.09" r="14.4" fill="#3da44d" fill-rule="evenodd" fill-opacity="1" stroke="#000000" stroke-opacity="1" stroke-width="3.2"></circle>
<circle clip-path="url(#clip252)" cx="745.032" cy="852.104" r="14.4" fill="#3da44d" fill-rule="evenodd" fill-opacity="1" stroke="#000000" stroke-opacity="1" stroke-width="3.2"></circle>
<circle clip-path="url(#clip252)" cx="842.058" cy="939.311" r="14.4" fill="#3da44d" fill-rule="evenodd" fill-opacity="1" stroke="#000000" stroke-opacity="1" stroke-width="3.2"></circle>
<circle clip-path="url(#clip252)" cx="939.084" cy="1051.08" r="14.4" fill="#3da44d" fill-rule="evenodd" fill-opacity="1" stroke="#000000" stroke-opacity="1" stroke-width="3.2"></circle>
<circle clip-path="url(#clip252)" cx="1036.11" cy="1158.23" r="14.4" fill="#3da44d" fill-rule="evenodd" fill-opacity="1" stroke="#000000" stroke-opacity="1" stroke-width="3.2"></circle>
<circle clip-path="url(#clip252)" cx="1133.14" cy="1090.72" r="14.4" fill="#3da44d" fill-rule="evenodd" fill-opacity="1" stroke="#000000" stroke-opacity="1" stroke-width="3.2"></circle>
<circle clip-path="url(#clip252)" cx="1230.16" cy="1168.5" r="14.4" fill="#3da44d" fill-rule="evenodd" fill-opacity="1" stroke="#000000" stroke-opacity="1" stroke-width="3.2"></circle>
<circle clip-path="url(#clip252)" cx="1327.19" cy="1143.45" r="14.4" fill="#3da44d" fill-rule="evenodd" fill-opacity="1" stroke="#000000" stroke-opacity="1" stroke-width="3.2"></circle>
<circle clip-path="url(#clip252)" cx="1424.22" cy="1212.26" r="14.4" fill="#3da44d" fill-rule="evenodd" fill-opacity="1" stroke="#000000" stroke-opacity="1" stroke-width="3.2"></circle>
<circle clip-path="url(#clip252)" cx="1521.24" cy="1084.42" r="14.4" fill="#3da44d" fill-rule="evenodd" fill-opacity="1" stroke="#000000" stroke-opacity="1" stroke-width="3.2"></circle>
<circle clip-path="url(#clip252)" cx="1618.27" cy="1191.49" r="14.4" fill="#3da44d" fill-rule="evenodd" fill-opacity="1" stroke="#000000" stroke-opacity="1" stroke-width="3.2"></circle>
<circle clip-path="url(#clip252)" cx="1715.29" cy="1242.15" r="14.4" fill="#3da44d" fill-rule="evenodd" fill-opacity="1" stroke="#000000" stroke-opacity="1" stroke-width="3.2"></circle>
<circle clip-path="url(#clip252)" cx="1812.32" cy="1157.5" r="14.4" fill="#3da44d" fill-rule="evenodd" fill-opacity="1" stroke="#000000" stroke-opacity="1" stroke-width="3.2"></circle>
<circle clip-path="url(#clip252)" cx="1909.35" cy="1191.98" r="14.4" fill="#3da44d" fill-rule="evenodd" fill-opacity="1" stroke="#000000" stroke-opacity="1" stroke-width="3.2"></circle>
<circle clip-path="url(#clip252)" cx="2006.37" cy="1202.86" r="14.4" fill="#3da44d" fill-rule="evenodd" fill-opacity="1" stroke="#000000" stroke-opacity="1" stroke-width="3.2"></circle>
<circle clip-path="url(#clip252)" cx="2103.4" cy="1386.4" r="14.4" fill="#3da44d" fill-rule="evenodd" fill-opacity="1" stroke="#000000" stroke-opacity="1" stroke-width="3.2"></circle>
<circle clip-path="url(#clip252)" cx="2200.42" cy="1214.39" r="14.4" fill="#3da44d" fill-rule="evenodd" fill-opacity="1" stroke="#000000" stroke-opacity="1" stroke-width="3.2"></circle>
<circle clip-path="url(#clip252)" cx="2297.45" cy="1250.13" r="14.4" fill="#3da44d" fill-rule="evenodd" fill-opacity="1" stroke="#000000" stroke-opacity="1" stroke-width="3.2"></circle>
</svg>