<svg xmlns="http://www.w3.org/2000/svg" xmlns:xlink="http://www.w3.org/1999/xlink" width="600" height="400" viewBox="0 0 2400 1600">
<defs>
  <clipPath id="clip330">
    <rect x="0" y="0" width="2400" height="1600"></rect>
  </clipPath>
</defs>
<path clip-path="url(#clip330)" d="
M0 1600 L2400 1600 L2400 0 L0 0  Z
  " fill="#ffffff" fill-rule="evenodd" fill-opacity="1"></path>
<defs>
  <clipPath id="clip331">
    <rect x="480" y="0" width="1681" height="1600"></rect>
  </clipPath>
</defs>
<path clip-path="url(#clip330)" d="
M156.598 1486.45 L2352.76 1486.45 L2352.76 123.472 L156.598 123.472  Z
  " fill="#ffffff" fill-rule="evenodd" fill-opacity="1"></path>
<defs>
  <clipPath id="clip332">
    <rect x="156" y="123" width="2197" height="1364"></rect>
  </clipPath>
</defs>
<polyline clip-path="url(#clip332)" style="stroke:#000000; stroke-linecap:round; stroke-linejoin:round; stroke-width:2; stroke-opacity:0.1; fill:none" points="
  218.754,1486.45 218.754,123.472 
  "></polyline>
<polyline clip-path="url(#clip332)" style="stroke:#000000; stroke-linecap:round; stroke-linejoin:round; stroke-width:2; stroke-opacity:0.1; fill:none" points="
  909.369,1486.45 909.369,123.472 
  "></polyline>
<polyline clip-path="url(#clip332)" style="stroke:#000000; stroke-linecap:round; stroke-linejoin:round; stroke-width:2; stroke-opacity:0.1; fill:none" points="
  1599.98,1486.45 1599.98,123.472 
  "></polyline>
<polyline clip-path="url(#clip332)" style="stroke:#000000; stroke-linecap:round; stroke-linejoin:round; stroke-width:2; stroke-opacity:0.1; fill:none" points="
  2290.6,1486.45 2290.6,123.472 
  "></polyline>
<polyline clip-path="url(#clip330)" style="stroke:#000000; stroke-linecap:round; stroke-linejoin:round; stroke-width:4; stroke-opacity:1; fill:none" points="
  156.598,1486.45 2352.76,1486.45 
  "></polyline>
<polyline clip-path="url(#clip330)" style="stroke:#000000; stroke-linecap:round; stroke-linejoin:round; stroke-width:4; stroke-opacity:1; fill:none" points="
  218.754,1486.45 218.754,1467.55 
  "></polyline>
<polyline clip-path="url(#clip330)" style="stroke:#000000; stroke-linecap:round; stroke-linejoin:round; stroke-width:4; stroke-opacity:1; fill:none" points="
  909.369,1486.45 909.369,1467.55 
  "></polyline>
<polyline clip-path="url(#clip330)" style="stroke:#000000; stroke-linecap:round; stroke-linejoin:round; stroke-width:4; stroke-opacity:1; fill:none" points="
  1599.98,1486.45 1599.98,1467.55 
  "></polyline>
<polyline clip-path="url(#clip330)" style="stroke:#000000; stroke-linecap:round; stroke-linejoin:round; stroke-width:4; stroke-opacity:1; fill:none" points="
  2290.6,1486.45 2290.6,1467.55 
  "></polyline>
<path clip-path="url(#clip330)" d="M218.754 1517.37 Q215.143 1517.37 213.314 1520.93 Q211.508 1524.47 211.508 1531.6 Q211.508 1538.71 213.314 1542.27 Q215.143 1545.82 218.754 1545.82 Q222.388 1545.82 224.193 1542.27 Q226.022 1538.71 226.022 1531.6 Q226.022 1524.47 224.193 1520.93 Q222.388 1517.37 218.754 1517.37 M218.754 1513.66 Q224.564 1513.66 227.619 1518.27 Q230.698 1522.85 230.698 1531.6 Q230.698 1540.33 227.619 1544.94 Q224.564 1549.52 218.754 1549.52 Q212.943 1549.52 209.865 1544.94 Q206.809 1540.33 206.809 1531.6 Q206.809 1522.85 209.865 1518.27 Q212.943 1513.66 218.754 1513.66 Z" fill="#000000" fill-rule="evenodd" fill-opacity="1"></path><path clip-path="url(#clip330)" d="M899.751 1544.91 L907.39 1544.91 L907.39 1518.55 L899.08 1520.21 L899.08 1515.95 L907.344 1514.29 L912.02 1514.29 L912.02 1544.91 L919.659 1544.91 L919.659 1548.85 L899.751 1548.85 L899.751 1544.91 Z" fill="#000000" fill-rule="evenodd" fill-opacity="1"></path><path clip-path="url(#clip330)" d="M1594.64 1544.91 L1610.96 1544.91 L1610.96 1548.85 L1589.01 1548.85 L1589.01 1544.91 Q1591.67 1542.16 1596.26 1537.53 Q1600.86 1532.88 1602.05 1531.53 Q1604.29 1529.01 1605.17 1527.27 Q1606.07 1525.51 1606.07 1523.82 Q1606.07 1521.07 1604.13 1519.33 Q1602.21 1517.6 1599.11 1517.6 Q1596.91 1517.6 1594.45 1518.36 Q1592.02 1519.13 1589.24 1520.68 L1589.24 1515.95 Q1592.07 1514.82 1594.52 1514.24 Q1596.98 1513.66 1599.01 1513.66 Q1604.38 1513.66 1607.58 1516.35 Q1610.77 1519.03 1610.77 1523.52 Q1610.77 1525.65 1609.96 1527.57 Q1609.17 1529.47 1607.07 1532.07 Q1606.49 1532.74 1603.39 1535.95 Q1600.29 1539.15 1594.64 1544.91 Z" fill="#000000" fill-rule="evenodd" fill-opacity="1"></path><path clip-path="url(#clip330)" d="M2294.85 1530.21 Q2298.2 1530.93 2300.08 1533.2 Q2301.98 1535.47 2301.98 1538.8 Q2301.98 1543.92 2298.46 1546.72 Q2294.94 1549.52 2288.46 1549.52 Q2286.28 1549.52 2283.97 1549.08 Q2281.68 1548.66 2279.22 1547.81 L2279.22 1543.29 Q2281.17 1544.43 2283.48 1545.01 Q2285.8 1545.58 2288.32 1545.58 Q2292.72 1545.58 2295.01 1543.85 Q2297.33 1542.11 2297.33 1538.8 Q2297.33 1535.75 2295.17 1534.03 Q2293.04 1532.3 2289.22 1532.3 L2285.2 1532.3 L2285.2 1528.45 L2289.41 1528.45 Q2292.86 1528.45 2294.69 1527.09 Q2296.51 1525.7 2296.51 1523.11 Q2296.51 1520.45 2294.62 1519.03 Q2292.74 1517.6 2289.22 1517.6 Q2287.3 1517.6 2285.1 1518.01 Q2282.9 1518.43 2280.26 1519.31 L2280.26 1515.14 Q2282.93 1514.4 2285.24 1514.03 Q2287.58 1513.66 2289.64 1513.66 Q2294.96 1513.66 2298.07 1516.09 Q2301.17 1518.5 2301.17 1522.62 Q2301.17 1525.49 2299.52 1527.48 Q2297.88 1529.45 2294.85 1530.21 Z" fill="#000000" fill-rule="evenodd" fill-opacity="1"></path><polyline clip-path="url(#clip332)" style="stroke:#000000; stroke-linecap:round; stroke-linejoin:round; stroke-width:2; stroke-opacity:0.1; fill:none" points="
  156.598,1236.24 2352.76,1236.24 
  "></polyline>
<polyline clip-path="url(#clip332)" style="stroke:#000000; stroke-linecap:round; stroke-linejoin:round; stroke-width:2; stroke-opacity:0.1; fill:none" points="
  156.598,967.695 2352.76,967.695 
  "></polyline>
<polyline clip-path="url(#clip332)" style="stroke:#000000; stroke-linecap:round; stroke-linejoin:round; stroke-width:2; stroke-opacity:0.1; fill:none" points="
  156.598,699.146 2352.76,699.146 
  "></polyline>
<polyline clip-path="url(#clip332)" style="stroke:#000000; stroke-linecap:round; stroke-linejoin:round; stroke-width:2; stroke-opacity:0.1; fill:none" points="
  156.598,430.596 2352.76,430.596 
  "></polyline>
<polyline clip-path="url(#clip332)" style="stroke:#000000; stroke-linecap:round; stroke-linejoin:round; stroke-width:2; stroke-opacity:0.1; fill:none" points="
  156.598,162.047 2352.76,162.047 
  "></polyline>
<polyline clip-path="url(#clip330)" style="stroke:#000000; stroke-linecap:round; stroke-linejoin:round; stroke-width:4; stroke-opacity:1; fill:none" points="
  156.598,1486.45 156.598,123.472 
  "></polyline>
<polyline clip-path="url(#clip330)" style="stroke:#000000; stroke-linecap:round; stroke-linejoin:round; stroke-width:4; stroke-opacity:1; fill:none" points="
  156.598,1236.24 175.496,1236.24 
  "></polyline>
<polyline clip-path="url(#clip330)" style="stroke:#000000; stroke-linecap:round; stroke-linejoin:round; stroke-width:4; stroke-opacity:1; fill:none" points="
  156.598,967.695 175.496,967.695 
  "></polyline>
<polyline clip-path="url(#clip330)" style="stroke:#000000; stroke-linecap:round; stroke-linejoin:round; stroke-width:4; stroke-opacity:1; fill:none" points="
  156.598,699.146 175.496,699.146 
  "></polyline>
<polyline clip-path="url(#clip330)" style="stroke:#000000; stroke-linecap:round; stroke-linejoin:round; stroke-width:4; stroke-opacity:1; fill:none" points="
  156.598,430.596 175.496,430.596 
  "></polyline>
<polyline clip-path="url(#clip330)" style="stroke:#000000; stroke-linecap:round; stroke-linejoin:round; stroke-width:4; stroke-opacity:1; fill:none" points="
  156.598,162.047 175.496,162.047 
  "></polyline>
<path clip-path="url(#clip330)" d="M65.0198 1222.04 Q61.4087 1222.04 59.58 1225.61 Q57.7745 1229.15 57.7745 1236.28 Q57.7745 1243.39 59.58 1246.95 Q61.4087 1250.49 65.0198 1250.49 Q68.6541 1250.49 70.4596 1246.95 Q72.2883 1243.39 72.2883 1236.28 Q72.2883 1229.15 70.4596 1225.61 Q68.6541 1222.04 65.0198 1222.04 M65.0198 1218.34 Q70.83 1218.34 73.8855 1222.95 Q76.9642 1227.53 76.9642 1236.28 Q76.9642 1245.01 73.8855 1249.61 Q70.83 1254.2 65.0198 1254.2 Q59.2097 1254.2 56.131 1249.61 Q53.0754 1245.01 53.0754 1236.28 Q53.0754 1227.53 56.131 1222.95 Q59.2097 1218.34 65.0198 1218.34 Z" fill="#000000" fill-rule="evenodd" fill-opacity="1"></path><path clip-path="url(#clip330)" d="M85.1818 1247.64 L90.066 1247.64 L90.066 1253.52 L85.1818 1253.52 L85.1818 1247.64 Z" fill="#000000" fill-rule="evenodd" fill-opacity="1"></path><path clip-path="url(#clip330)" d="M104.279 1249.59 L120.598 1249.59 L120.598 1253.52 L98.6539 1253.52 L98.6539 1249.59 Q101.316 1246.83 105.899 1242.2 Q110.506 1237.55 111.686 1236.21 Q113.932 1233.69 114.811 1231.95 Q115.714 1230.19 115.714 1228.5 Q115.714 1225.75 113.77 1224.01 Q111.848 1222.27 108.746 1222.27 Q106.547 1222.27 104.094 1223.04 Q101.663 1223.8 98.8854 1225.35 L98.8854 1220.63 Q101.709 1219.5 104.163 1218.92 Q106.617 1218.34 108.654 1218.34 Q114.024 1218.34 117.219 1221.02 Q120.413 1223.71 120.413 1228.2 Q120.413 1230.33 119.603 1232.25 Q118.816 1234.15 116.709 1236.74 Q116.131 1237.41 113.029 1240.63 Q109.927 1243.83 104.279 1249.59 Z" fill="#000000" fill-rule="evenodd" fill-opacity="1"></path><path clip-path="url(#clip330)" d="M62.9365 953.494 Q59.3254 953.494 57.4967 957.058 Q55.6912 960.6 55.6912 967.73 Q55.6912 974.836 57.4967 978.401 Q59.3254 981.943 62.9365 981.943 Q66.5707 981.943 68.3763 978.401 Q70.205 974.836 70.205 967.73 Q70.205 960.6 68.3763 957.058 Q66.5707 953.494 62.9365 953.494 M62.9365 949.79 Q68.7467 949.79 71.8022 954.396 Q74.8809 958.98 74.8809 967.73 Q74.8809 976.456 71.8022 981.063 Q68.7467 985.646 62.9365 985.646 Q57.1264 985.646 54.0477 981.063 Q50.9921 976.456 50.9921 967.73 Q50.9921 958.98 54.0477 954.396 Q57.1264 949.79 62.9365 949.79 Z" fill="#000000" fill-rule="evenodd" fill-opacity="1"></path><path clip-path="url(#clip330)" d="M83.0984 979.095 L87.9827 979.095 L87.9827 984.975 L83.0984 984.975 L83.0984 979.095 Z" fill="#000000" fill-rule="evenodd" fill-opacity="1"></path><path clip-path="url(#clip330)" d="M111.015 954.489 L99.2095 972.938 L111.015 972.938 L111.015 954.489 M109.788 950.415 L115.668 950.415 L115.668 972.938 L120.598 972.938 L120.598 976.827 L115.668 976.827 L115.668 984.975 L111.015 984.975 L111.015 976.827 L95.4132 976.827 L95.4132 972.313 L109.788 950.415 Z" fill="#000000" fill-rule="evenodd" fill-opacity="1"></path><path clip-path="url(#clip330)" d="M63.2606 684.944 Q59.6495 684.944 57.8208 688.509 Q56.0152 692.051 56.0152 699.18 Q56.0152 706.287 57.8208 709.852 Q59.6495 713.393 63.2606 713.393 Q66.8948 713.393 68.7004 709.852 Q70.5291 706.287 70.5291 699.18 Q70.5291 692.051 68.7004 688.509 Q66.8948 684.944 63.2606 684.944 M63.2606 681.241 Q69.0707 681.241 72.1263 685.847 Q75.205 690.43 75.205 699.18 Q75.205 707.907 72.1263 712.514 Q69.0707 717.097 63.2606 717.097 Q57.4504 717.097 54.3717 712.514 Q51.3162 707.907 51.3162 699.18 Q51.3162 690.43 54.3717 685.847 Q57.4504 681.241 63.2606 681.241 Z" fill="#000000" fill-rule="evenodd" fill-opacity="1"></path><path clip-path="url(#clip330)" d="M83.4225 710.546 L88.3067 710.546 L88.3067 716.426 L83.4225 716.426 L83.4225 710.546 Z" fill="#000000" fill-rule="evenodd" fill-opacity="1"></path><path clip-path="url(#clip330)" d="M109.071 697.282 Q105.922 697.282 104.071 699.435 Q102.242 701.588 102.242 705.338 Q102.242 709.065 104.071 711.24 Q105.922 713.393 109.071 713.393 Q112.219 713.393 114.047 711.24 Q115.899 709.065 115.899 705.338 Q115.899 701.588 114.047 699.435 Q112.219 697.282 109.071 697.282 M118.353 682.63 L118.353 686.889 Q116.594 686.055 114.788 685.616 Q113.006 685.176 111.246 685.176 Q106.617 685.176 104.163 688.301 Q101.733 691.426 101.385 697.745 Q102.751 695.731 104.811 694.666 Q106.871 693.579 109.348 693.579 Q114.557 693.579 117.566 696.75 Q120.598 699.898 120.598 705.338 Q120.598 710.662 117.45 713.879 Q114.302 717.097 109.071 717.097 Q103.075 717.097 99.9039 712.514 Q96.7326 707.907 96.7326 699.18 Q96.7326 690.986 100.621 686.125 Q104.51 681.241 111.061 681.241 Q112.82 681.241 114.603 681.588 Q116.408 681.935 118.353 682.63 Z" fill="#000000" fill-rule="evenodd" fill-opacity="1"></path><path clip-path="url(#clip330)" d="M63.5152 416.395 Q59.9041 416.395 58.0754 419.96 Q56.2699 423.501 56.2699 430.631 Q56.2699 437.737 58.0754 441.302 Q59.9041 444.844 63.5152 444.844 Q67.1494 444.844 68.955 441.302 Q70.7837 437.737 70.7837 430.631 Q70.7837 423.501 68.955 419.96 Q67.1494 416.395 63.5152 416.395 M63.5152 412.691 Q69.3254 412.691 72.3809 417.298 Q75.4596 421.881 75.4596 430.631 Q75.4596 439.358 72.3809 443.964 Q69.3254 448.548 63.5152 448.548 Q57.7051 448.548 54.6264 443.964 Q51.5708 439.358 51.5708 430.631 Q51.5708 421.881 54.6264 417.298 Q57.7051 412.691 63.5152 412.691 Z" fill="#000000" fill-rule="evenodd" fill-opacity="1"></path><path clip-path="url(#clip330)" d="M83.6771 441.997 L88.5614 441.997 L88.5614 447.876 L83.6771 447.876 L83.6771 441.997 Z" fill="#000000" fill-rule="evenodd" fill-opacity="1"></path><path clip-path="url(#clip330)" d="M108.746 431.464 Q105.413 431.464 103.492 433.247 Q101.594 435.029 101.594 438.154 Q101.594 441.279 103.492 443.061 Q105.413 444.844 108.746 444.844 Q112.08 444.844 114.001 443.061 Q115.922 441.256 115.922 438.154 Q115.922 435.029 114.001 433.247 Q112.103 431.464 108.746 431.464 M104.071 429.474 Q101.061 428.733 99.3715 426.673 Q97.7048 424.613 97.7048 421.65 Q97.7048 417.506 100.645 415.099 Q103.608 412.691 108.746 412.691 Q113.908 412.691 116.848 415.099 Q119.788 417.506 119.788 421.65 Q119.788 424.613 118.098 426.673 Q116.432 428.733 113.445 429.474 Q116.825 430.261 118.7 432.552 Q120.598 434.844 120.598 438.154 Q120.598 443.177 117.52 445.862 Q114.464 448.548 108.746 448.548 Q103.029 448.548 99.9502 445.862 Q96.8947 443.177 96.8947 438.154 Q96.8947 434.844 98.7928 432.552 Q100.691 430.261 104.071 429.474 M102.358 422.089 Q102.358 424.775 104.024 426.279 Q105.714 427.784 108.746 427.784 Q111.756 427.784 113.445 426.279 Q115.158 424.775 115.158 422.089 Q115.158 419.404 113.445 417.9 Q111.756 416.395 108.746 416.395 Q105.714 416.395 104.024 417.9 Q102.358 419.404 102.358 422.089 Z" fill="#000000" fill-rule="evenodd" fill-opacity="1"></path><path clip-path="url(#clip330)" d="M54.2328 175.392 L61.8717 175.392 L61.8717 149.026 L53.5616 150.693 L53.5616 146.434 L61.8254 144.767 L66.5013 144.767 L66.5013 175.392 L74.1402 175.392 L74.1402 179.327 L54.2328 179.327 L54.2328 175.392 Z" fill="#000000" fill-rule="evenodd" fill-opacity="1"></path><path clip-path="url(#clip330)" d="M83.5845 173.447 L88.4688 173.447 L88.4688 179.327 L83.5845 179.327 L83.5845 173.447 Z" fill="#000000" fill-rule="evenodd" fill-opacity="1"></path><path clip-path="url(#clip330)" d="M108.654 147.846 Q105.043 147.846 103.214 151.41 Q101.409 154.952 101.409 162.082 Q101.409 169.188 103.214 172.753 Q105.043 176.295 108.654 176.295 Q112.288 176.295 114.094 172.753 Q115.922 169.188 115.922 162.082 Q115.922 154.952 114.094 151.41 Q112.288 147.846 108.654 147.846 M108.654 144.142 Q114.464 144.142 117.52 148.748 Q120.598 153.332 120.598 162.082 Q120.598 170.808 117.52 175.415 Q114.464 179.998 108.654 179.998 Q102.844 179.998 99.765 175.415 Q96.7095 170.808 96.7095 162.082 Q96.7095 153.332 99.765 148.748 Q102.844 144.142 108.654 144.142 Z" fill="#000000" fill-rule="evenodd" fill-opacity="1"></path><path clip-path="url(#clip330)" d="M573.842 12.096 L608.598 12.096 L608.598 18.9825 L582.024 18.9825 L582.024 36.8065 L606.006 36.8065 L606.006 43.6931 L582.024 43.6931 L582.024 72.576 L573.842 72.576 L573.842 12.096 Z" fill="#000000" fill-rule="evenodd" fill-opacity="1"></path><path clip-path="url(#clip330)" d="M635.861 32.4315 Q629.866 32.4315 626.382 37.1306 Q622.898 41.7891 622.898 49.9314 Q622.898 58.0738 626.341 62.7728 Q629.825 67.4314 635.861 67.4314 Q641.816 67.4314 645.3 62.7323 Q648.783 58.0333 648.783 49.9314 Q648.783 41.8701 645.3 37.1711 Q641.816 32.4315 635.861 32.4315 M635.861 26.1121 Q645.583 26.1121 651.133 32.4315 Q656.683 38.7509 656.683 49.9314 Q656.683 61.0714 651.133 67.4314 Q645.583 73.7508 635.861 73.7508 Q626.098 73.7508 620.549 67.4314 Q615.039 61.0714 615.039 49.9314 Q615.039 38.7509 620.549 32.4315 Q626.098 26.1121 635.861 26.1121 Z" fill="#000000" fill-rule="evenodd" fill-opacity="1"></path><path clip-path="url(#clip330)" d="M695.328 34.1734 Q694.072 33.4443 692.574 33.1202 Q691.115 32.7556 689.333 32.7556 Q683.013 32.7556 679.611 36.8875 Q676.248 40.9789 676.248 48.6757 L676.248 72.576 L668.754 72.576 L668.754 27.2059 L676.248 27.2059 L676.248 34.2544 Q678.598 30.1225 682.365 28.1376 Q686.133 26.1121 691.52 26.1121 Q692.29 26.1121 693.222 26.2337 Q694.153 26.3147 695.288 26.5172 L695.328 34.1734 Z" fill="#000000" fill-rule="evenodd" fill-opacity="1"></path><path clip-path="url(#clip330)" d="M698.812 27.2059 L706.266 27.2059 L715.583 62.6108 L724.859 27.2059 L733.65 27.2059 L742.967 62.6108 L752.243 27.2059 L759.697 27.2059 L747.828 72.576 L739.037 72.576 L729.275 35.3887 L719.472 72.576 L710.681 72.576 L698.812 27.2059 Z" fill="#000000" fill-rule="evenodd" fill-opacity="1"></path><path clip-path="url(#clip330)" d="M791.618 49.7694 Q782.585 49.7694 779.101 51.8354 Q775.617 53.9013 775.617 58.8839 Q775.617 62.8538 778.21 65.2034 Q780.843 67.5124 785.339 67.5124 Q791.537 67.5124 795.264 63.1374 Q799.031 58.7219 799.031 51.4303 L799.031 49.7694 L791.618 49.7694 M806.485 46.6907 L806.485 72.576 L799.031 72.576 L799.031 65.6895 Q796.479 69.8214 792.671 71.8063 Q788.864 73.7508 783.354 73.7508 Q776.387 73.7508 772.255 69.8619 Q768.163 65.9325 768.163 59.3701 Q768.163 51.7138 773.268 47.825 Q778.412 43.9361 788.58 43.9361 L799.031 43.9361 L799.031 43.2069 Q799.031 38.0623 795.629 35.2672 Q792.266 32.4315 786.149 32.4315 Q782.261 32.4315 778.574 33.3632 Q774.888 34.295 771.485 36.1584 L771.485 29.2718 Q775.577 27.692 779.425 26.9223 Q783.273 26.1121 786.919 26.1121 Q796.763 26.1121 801.624 31.2163 Q806.485 36.3204 806.485 46.6907 Z" fill="#000000" fill-rule="evenodd" fill-opacity="1"></path><path clip-path="url(#clip330)" d="M848.128 34.1734 Q846.873 33.4443 845.374 33.1202 Q843.915 32.7556 842.133 32.7556 Q835.814 32.7556 832.411 36.8875 Q829.049 40.9789 829.049 48.6757 L829.049 72.576 L821.554 72.576 L821.554 27.2059 L829.049 27.2059 L829.049 34.2544 Q831.398 30.1225 835.165 28.1376 Q838.933 26.1121 844.32 26.1121 Q845.09 26.1121 846.022 26.2337 Q846.954 26.3147 848.088 26.5172 L848.128 34.1734 Z" fill="#000000" fill-rule="evenodd" fill-opacity="1"></path><path clip-path="url(#clip330)" d="M884.343 34.0924 L884.343 9.54393 L891.797 9.54393 L891.797 72.576 L884.343 72.576 L884.343 65.7705 Q881.994 69.8214 878.389 71.8063 Q874.824 73.7508 869.801 73.7508 Q861.577 73.7508 856.392 67.1883 Q851.248 60.6258 851.248 49.9314 Q851.248 39.2371 856.392 32.6746 Q861.577 26.1121 869.801 26.1121 Q874.824 26.1121 878.389 28.0971 Q881.994 30.0415 884.343 34.0924 M858.944 49.9314 Q858.944 58.1548 862.306 62.8538 Q865.709 67.5124 871.624 67.5124 Q877.538 67.5124 880.941 62.8538 Q884.343 58.1548 884.343 49.9314 Q884.343 41.7081 880.941 37.0496 Q877.538 32.3505 871.624 32.3505 Q865.709 32.3505 862.306 37.0496 Q858.944 41.7081 858.944 49.9314 Z" fill="#000000" fill-rule="evenodd" fill-opacity="1"></path><path clip-path="url(#clip330)" d="M933.845 12.096 L972.086 12.096 L972.086 18.9825 L942.028 18.9825 L942.028 36.8875 L970.83 36.8875 L970.83 43.7741 L942.028 43.7741 L942.028 65.6895 L972.815 65.6895 L972.815 72.576 L933.845 72.576 L933.845 12.096 Z" fill="#000000" fill-rule="evenodd" fill-opacity="1"></path><path clip-path="url(#clip330)" d="M985.17 54.671 L985.17 27.2059 L992.624 27.2059 L992.624 54.3874 Q992.624 60.8284 995.136 64.0691 Q997.647 67.2693 1002.67 67.2693 Q1008.71 67.2693 1012.19 63.421 Q1015.71 59.5726 1015.71 52.9291 L1015.71 27.2059 L1023.17 27.2059 L1023.17 72.576 L1015.71 72.576 L1015.71 65.6084 Q1013 69.7404 1009.39 71.7658 Q1005.83 73.7508 1001.09 73.7508 Q993.272 73.7508 989.221 68.8897 Q985.17 64.0286 985.17 54.671 M1003.93 26.1121 L1003.93 26.1121 Z" fill="#000000" fill-rule="evenodd" fill-opacity="1"></path><path clip-path="url(#clip330)" d="M1038.52 9.54393 L1045.97 9.54393 L1045.97 72.576 L1038.52 72.576 L1038.52 9.54393 Z" fill="#000000" fill-rule="evenodd" fill-opacity="1"></path><path clip-path="url(#clip330)" d="M1100.38 48.0275 L1100.38 51.6733 L1066.11 51.6733 Q1066.59 59.3701 1070.73 63.421 Q1074.9 67.4314 1082.31 67.4314 Q1086.61 67.4314 1090.62 66.3781 Q1094.67 65.3249 1098.64 63.2184 L1098.64 70.267 Q1094.63 71.9684 1090.41 72.8596 Q1086.2 73.7508 1081.87 73.7508 Q1071.01 73.7508 1064.65 67.4314 Q1058.33 61.1119 1058.33 50.3365 Q1058.33 39.1965 1064.33 32.6746 Q1070.36 26.1121 1080.57 26.1121 Q1089.72 26.1121 1095.03 32.0264 Q1100.38 37.9003 1100.38 48.0275 M1092.92 45.84 Q1092.84 39.7232 1089.48 36.0774 Q1086.16 32.4315 1080.65 32.4315 Q1074.41 32.4315 1070.64 35.9558 Q1066.92 39.4801 1066.35 45.8805 L1092.92 45.84 Z" fill="#000000" fill-rule="evenodd" fill-opacity="1"></path><path clip-path="url(#clip330)" d="M1138.9 34.1734 Q1137.65 33.4443 1136.15 33.1202 Q1134.69 32.7556 1132.91 32.7556 Q1126.59 32.7556 1123.18 36.8875 Q1119.82 40.9789 1119.82 48.6757 L1119.82 72.576 L1112.33 72.576 L1112.33 27.2059 L1119.82 27.2059 L1119.82 34.2544 Q1122.17 30.1225 1125.94 28.1376 Q1129.71 26.1121 1135.09 26.1121 Q1135.86 26.1121 1136.8 26.2337 Q1137.73 26.3147 1138.86 26.5172 L1138.9 34.1734 Z" fill="#000000" fill-rule="evenodd" fill-opacity="1"></path><path clip-path="url(#clip330)" d="M1193.71 49.7694 Q1184.68 49.7694 1181.19 51.8354 Q1177.71 53.9013 1177.71 58.8839 Q1177.71 62.8538 1180.3 65.2034 Q1182.94 67.5124 1187.43 67.5124 Q1193.63 67.5124 1197.36 63.1374 Q1201.12 58.7219 1201.12 51.4303 L1201.12 49.7694 L1193.71 49.7694 M1208.58 46.6907 L1208.58 72.576 L1201.12 72.576 L1201.12 65.6895 Q1198.57 69.8214 1194.76 71.8063 Q1190.96 73.7508 1185.45 73.7508 Q1178.48 73.7508 1174.35 69.8619 Q1170.26 65.9325 1170.26 59.3701 Q1170.26 51.7138 1175.36 47.825 Q1180.51 43.9361 1190.67 43.9361 L1201.12 43.9361 L1201.12 43.2069 Q1201.12 38.0623 1197.72 35.2672 Q1194.36 32.4315 1188.24 32.4315 Q1184.35 32.4315 1180.67 33.3632 Q1176.98 34.295 1173.58 36.1584 L1173.58 29.2718 Q1177.67 27.692 1181.52 26.9223 Q1185.37 26.1121 1189.01 26.1121 Q1198.86 26.1121 1203.72 31.2163 Q1208.58 36.3204 1208.58 46.6907 Z" fill="#000000" fill-rule="evenodd" fill-opacity="1"></path><path clip-path="url(#clip330)" d="M1261.64 45.1919 L1261.64 72.576 L1254.19 72.576 L1254.19 45.4349 Q1254.19 38.994 1251.68 35.7938 Q1249.17 32.5936 1244.14 32.5936 Q1238.11 32.5936 1234.63 36.4419 Q1231.14 40.2903 1231.14 46.9338 L1231.14 72.576 L1223.65 72.576 L1223.65 27.2059 L1231.14 27.2059 L1231.14 34.2544 Q1233.81 30.163 1237.42 28.1376 Q1241.07 26.1121 1245.81 26.1121 Q1253.62 26.1121 1257.63 30.9732 Q1261.64 35.7938 1261.64 45.1919 Z" fill="#000000" fill-rule="evenodd" fill-opacity="1"></path><path clip-path="url(#clip330)" d="M1306.37 34.0924 L1306.37 9.54393 L1313.82 9.54393 L1313.82 72.576 L1306.37 72.576 L1306.37 65.7705 Q1304.02 69.8214 1300.41 71.8063 Q1296.85 73.7508 1291.82 73.7508 Q1283.6 73.7508 1278.42 67.1883 Q1273.27 60.6258 1273.27 49.9314 Q1273.27 39.2371 1278.42 32.6746 Q1283.6 26.1121 1291.82 26.1121 Q1296.85 26.1121 1300.41 28.0971 Q1304.02 30.0415 1306.37 34.0924 M1280.97 49.9314 Q1280.97 58.1548 1284.33 62.8538 Q1287.73 67.5124 1293.65 67.5124 Q1299.56 67.5124 1302.96 62.8538 Q1306.37 58.1548 1306.37 49.9314 Q1306.37 41.7081 1302.96 37.0496 Q1299.56 32.3505 1293.65 32.3505 Q1287.73 32.3505 1284.33 37.0496 Q1280.97 41.7081 1280.97 49.9314 Z" fill="#000000" fill-rule="evenodd" fill-opacity="1"></path><path clip-path="url(#clip330)" d="M1355.87 12.096 L1394.11 12.096 L1394.11 18.9825 L1364.05 18.9825 L1364.05 36.8875 L1392.85 36.8875 L1392.85 43.7741 L1364.05 43.7741 L1364.05 65.6895 L1394.84 65.6895 L1394.84 72.576 L1355.87 72.576 L1355.87 12.096 Z" fill="#000000" fill-rule="evenodd" fill-opacity="1"></path><path clip-path="url(#clip330)" d="M1445.68 27.2059 L1429.27 49.2833 L1446.53 72.576 L1437.74 72.576 L1424.53 54.752 L1411.33 72.576 L1402.54 72.576 L1420.16 48.8377 L1404.03 27.2059 L1412.82 27.2059 L1424.86 43.369 L1436.89 27.2059 L1445.68 27.2059 Z" fill="#000000" fill-rule="evenodd" fill-opacity="1"></path><path clip-path="url(#clip330)" d="M1477.68 49.7694 Q1468.65 49.7694 1465.16 51.8354 Q1461.68 53.9013 1461.68 58.8839 Q1461.68 62.8538 1464.27 65.2034 Q1466.9 67.5124 1471.4 67.5124 Q1477.6 67.5124 1481.33 63.1374 Q1485.09 58.7219 1485.09 51.4303 L1485.09 49.7694 L1477.68 49.7694 M1492.55 46.6907 L1492.55 72.576 L1485.09 72.576 L1485.09 65.6895 Q1482.54 69.8214 1478.73 71.8063 Q1474.92 73.7508 1469.42 73.7508 Q1462.45 73.7508 1458.32 69.8619 Q1454.22 65.9325 1454.22 59.3701 Q1454.22 51.7138 1459.33 47.825 Q1464.47 43.9361 1474.64 43.9361 L1485.09 43.9361 L1485.09 43.2069 Q1485.09 38.0623 1481.69 35.2672 Q1478.33 32.4315 1472.21 32.4315 Q1468.32 32.4315 1464.64 33.3632 Q1460.95 34.295 1457.55 36.1584 L1457.55 29.2718 Q1461.64 27.692 1465.49 26.9223 Q1469.33 26.1121 1472.98 26.1121 Q1482.82 26.1121 1487.69 31.2163 Q1492.55 36.3204 1492.55 46.6907 Z" fill="#000000" fill-rule="evenodd" fill-opacity="1"></path><path clip-path="url(#clip330)" d="M1540.55 28.9478 L1540.55 35.9153 Q1537.39 34.1734 1534.19 33.3227 Q1531.03 32.4315 1527.79 32.4315 Q1520.54 32.4315 1516.53 37.0496 Q1512.52 41.6271 1512.52 49.9314 Q1512.52 58.2358 1516.53 62.8538 Q1520.54 67.4314 1527.79 67.4314 Q1531.03 67.4314 1534.19 66.5807 Q1537.39 65.6895 1540.55 63.9476 L1540.55 70.8341 Q1537.43 72.2924 1534.07 73.0216 Q1530.75 73.7508 1526.98 73.7508 Q1516.73 73.7508 1510.69 67.3098 Q1504.66 60.8689 1504.66 49.9314 Q1504.66 38.832 1510.73 32.472 Q1516.85 26.1121 1527.46 26.1121 Q1530.91 26.1121 1534.19 26.8413 Q1537.47 27.5299 1540.55 28.9478 Z" fill="#000000" fill-rule="evenodd" fill-opacity="1"></path><path clip-path="url(#clip330)" d="M1560.88 14.324 L1560.88 27.2059 L1576.24 27.2059 L1576.24 32.9987 L1560.88 32.9987 L1560.88 57.6282 Q1560.88 63.1779 1562.38 64.7578 Q1563.92 66.3376 1568.58 66.3376 L1576.24 66.3376 L1576.24 72.576 L1568.58 72.576 Q1559.95 72.576 1556.67 69.3758 Q1553.39 66.1351 1553.39 57.6282 L1553.39 32.9987 L1547.92 32.9987 L1547.92 27.2059 L1553.39 27.2059 L1553.39 14.324 L1560.88 14.324 Z" fill="#000000" fill-rule="evenodd" fill-opacity="1"></path><path clip-path="url(#clip330)" d="M1648.99 14.0809 L1648.99 22.0612 Q1644.33 19.8332 1640.2 18.7395 Q1636.07 17.6457 1632.22 17.6457 Q1625.54 17.6457 1621.89 20.2383 Q1618.29 22.8309 1618.29 27.611 Q1618.29 31.6214 1620.68 33.6873 Q1623.11 35.7128 1629.83 36.9686 L1634.77 37.9813 Q1643.93 39.7232 1648.26 44.1387 Q1652.64 48.5136 1652.64 55.8863 Q1652.64 64.6767 1646.72 69.2137 Q1640.85 73.7508 1629.47 73.7508 Q1625.17 73.7508 1620.31 72.7785 Q1615.49 71.8063 1610.31 69.9024 L1610.31 61.4765 Q1615.29 64.2716 1620.07 65.6895 Q1624.85 67.1073 1629.47 67.1073 Q1636.47 67.1073 1640.28 64.3527 Q1644.09 61.598 1644.09 56.4939 Q1644.09 52.0379 1641.34 49.5264 Q1638.62 47.0148 1632.38 45.759 L1627.4 44.7868 Q1618.25 42.9639 1614.15 39.075 Q1610.06 35.1862 1610.06 28.2591 Q1610.06 20.2383 1615.69 15.6203 Q1621.36 11.0023 1631.29 11.0023 Q1635.54 11.0023 1639.96 11.7719 Q1644.37 12.5416 1648.99 14.0809 Z" fill="#000000" fill-rule="evenodd" fill-opacity="1"></path><path clip-path="url(#clip330)" d="M1682.66 32.4315 Q1676.66 32.4315 1673.18 37.1306 Q1669.69 41.7891 1669.69 49.9314 Q1669.69 58.0738 1673.14 62.7728 Q1676.62 67.4314 1682.66 67.4314 Q1688.61 67.4314 1692.09 62.7323 Q1695.58 58.0333 1695.58 49.9314 Q1695.58 41.8701 1692.09 37.1711 Q1688.61 32.4315 1682.66 32.4315 M1682.66 26.1121 Q1692.38 26.1121 1697.93 32.4315 Q1703.48 38.7509 1703.48 49.9314 Q1703.48 61.0714 1697.93 67.4314 Q1692.38 73.7508 1682.66 73.7508 Q1672.89 73.7508 1667.34 67.4314 Q1661.83 61.0714 1661.83 49.9314 Q1661.83 38.7509 1667.34 32.4315 Q1672.89 26.1121 1682.66 26.1121 Z" fill="#000000" fill-rule="evenodd" fill-opacity="1"></path><path clip-path="url(#clip330)" d="M1715.83 9.54393 L1723.29 9.54393 L1723.29 72.576 L1715.83 72.576 L1715.83 9.54393 Z" fill="#000000" fill-rule="evenodd" fill-opacity="1"></path><path clip-path="url(#clip330)" d="M1738.11 54.671 L1738.11 27.2059 L1745.57 27.2059 L1745.57 54.3874 Q1745.57 60.8284 1748.08 64.0691 Q1750.59 67.2693 1755.61 67.2693 Q1761.65 67.2693 1765.13 63.421 Q1768.66 59.5726 1768.66 52.9291 L1768.66 27.2059 L1776.11 27.2059 L1776.11 72.576 L1768.66 72.576 L1768.66 65.6084 Q1765.94 69.7404 1762.34 71.7658 Q1758.77 73.7508 1754.03 73.7508 Q1746.21 73.7508 1742.16 68.8897 Q1738.11 64.0286 1738.11 54.671 M1756.87 26.1121 L1756.87 26.1121 Z" fill="#000000" fill-rule="evenodd" fill-opacity="1"></path><path clip-path="url(#clip330)" d="M1798.84 14.324 L1798.84 27.2059 L1814.19 27.2059 L1814.19 32.9987 L1798.84 32.9987 L1798.84 57.6282 Q1798.84 63.1779 1800.33 64.7578 Q1801.87 66.3376 1806.53 66.3376 L1814.19 66.3376 L1814.19 72.576 L1806.53 72.576 Q1797.9 72.576 1794.62 69.3758 Q1791.34 66.1351 1791.34 57.6282 L1791.34 32.9987 L1785.87 32.9987 L1785.87 27.2059 L1791.34 27.2059 L1791.34 14.324 L1798.84 14.324 Z" fill="#000000" fill-rule="evenodd" fill-opacity="1"></path><path clip-path="url(#clip330)" d="M1823.99 27.2059 L1831.44 27.2059 L1831.44 72.576 L1823.99 72.576 L1823.99 27.2059 M1823.99 9.54393 L1831.44 9.54393 L1831.44 18.9825 L1823.99 18.9825 L1823.99 9.54393 Z" fill="#000000" fill-rule="evenodd" fill-opacity="1"></path><path clip-path="url(#clip330)" d="M1864.62 32.4315 Q1858.63 32.4315 1855.14 37.1306 Q1851.66 41.7891 1851.66 49.9314 Q1851.66 58.0738 1855.1 62.7728 Q1858.59 67.4314 1864.62 67.4314 Q1870.58 67.4314 1874.06 62.7323 Q1877.54 58.0333 1877.54 49.9314 Q1877.54 41.8701 1874.06 37.1711 Q1870.58 32.4315 1864.62 32.4315 M1864.62 26.1121 Q1874.34 26.1121 1879.89 32.4315 Q1885.44 38.7509 1885.44 49.9314 Q1885.44 61.0714 1879.89 67.4314 Q1874.34 73.7508 1864.62 73.7508 Q1854.86 73.7508 1849.31 67.4314 Q1843.8 61.0714 1843.8 49.9314 Q1843.8 38.7509 1849.31 32.4315 Q1854.86 26.1121 1864.62 26.1121 Z" fill="#000000" fill-rule="evenodd" fill-opacity="1"></path><path clip-path="url(#clip330)" d="M1935.51 45.1919 L1935.51 72.576 L1928.06 72.576 L1928.06 45.4349 Q1928.06 38.994 1925.55 35.7938 Q1923.04 32.5936 1918.01 32.5936 Q1911.98 32.5936 1908.49 36.4419 Q1905.01 40.2903 1905.01 46.9338 L1905.01 72.576 L1897.52 72.576 L1897.52 27.2059 L1905.01 27.2059 L1905.01 34.2544 Q1907.68 30.163 1911.29 28.1376 Q1914.93 26.1121 1919.67 26.1121 Q1927.49 26.1121 1931.5 30.9732 Q1935.51 35.7938 1935.51 45.1919 Z" fill="#000000" fill-rule="evenodd" fill-opacity="1"></path><polyline clip-path="url(#clip332)" style="stroke:#009af9; stroke-linecap:round; stroke-linejoin:round; stroke-width:4; stroke-opacity:1; fill:none" points="
  218.754,162.047 225.66,175.407 232.566,188.635 239.472,201.731 246.378,214.697 253.284,227.533 260.191,240.242 267.097,252.825 274.003,265.282 280.909,277.616 
  287.815,289.826 294.721,301.915 301.628,313.884 308.534,325.734 315.44,337.466 322.346,349.081 329.252,360.58 336.158,371.965 343.064,383.237 349.971,394.397 
  356.877,405.446 363.783,416.384 370.689,427.214 377.595,437.936 384.501,448.552 391.408,459.061 398.314,469.467 405.22,479.768 412.126,489.968 419.032,500.065 
  425.938,510.062 432.844,519.96 439.751,529.759 446.657,539.461 453.563,549.066 460.469,558.576 467.375,567.991 474.281,577.312 481.188,586.541 488.094,595.678 
  495,604.724 501.906,613.679 508.812,622.546 515.718,631.325 522.625,640.016 529.531,648.621 536.437,657.14 543.343,665.574 550.249,673.924 557.155,682.192 
  564.061,690.377 570.968,698.48 577.874,706.503 584.78,714.446 591.686,722.31 598.592,730.096 605.498,737.805 612.405,745.436 619.311,752.992 626.217,760.473 
  633.123,767.879 640.029,775.211 646.935,782.471 653.841,789.658 660.748,796.773 667.654,803.818 674.56,810.793 681.466,817.699 688.372,824.535 695.278,831.304 
  702.185,838.005 709.091,844.64 715.997,851.209 722.903,857.712 729.809,864.151 736.715,870.525 743.622,876.836 750.528,883.084 757.434,889.27 764.34,895.395 
  771.246,901.459 778.152,907.462 785.058,913.405 791.965,919.29 798.871,925.116 805.777,930.884 812.683,936.594 819.589,942.248 826.495,947.845 833.402,953.387 
  840.308,958.874 847.214,964.306 854.12,969.684 861.026,975.008 867.932,980.279 874.838,985.498 881.745,990.665 888.651,995.781 895.557,1000.85 902.463,1005.86 
  909.369,1010.82 916.275,1015.74 923.182,1020.61 930.088,1025.42 936.994,1030.19 943.9,1034.92 950.806,1039.59 957.712,1044.22 964.619,1048.8 971.525,1053.34 
  978.431,1057.83 985.337,1062.28 992.243,1066.68 999.149,1071.04 1006.06,1075.36 1012.96,1079.63 1019.87,1083.86 1026.77,1088.05 1033.68,1092.2 1040.59,1096.3 
  1047.49,1100.37 1054.4,1104.39 1061.3,1108.37 1068.21,1112.32 1075.12,1116.22 1082.02,1120.09 1088.93,1123.92 1095.84,1127.71 1102.74,1131.46 1109.65,1135.17 
  1116.55,1138.85 1123.46,1142.49 1130.37,1146.1 1137.27,1149.67 1144.18,1153.2 1151.08,1156.7 1157.99,1160.16 1164.9,1163.59 1171.8,1166.99 1178.71,1170.35 
  1185.62,1173.68 1192.52,1176.97 1199.43,1180.23 1206.33,1183.46 1213.24,1186.66 1220.15,1189.83 1227.05,1192.96 1233.96,1196.06 1240.86,1199.13 1247.77,1202.18 
  1254.68,1205.19 1261.58,1208.17 1268.49,1211.12 1275.4,1214.04 1282.3,1216.93 1289.21,1219.8 1296.11,1222.63 1303.02,1225.44 1309.93,1228.22 1316.83,1230.97 
  1323.74,1233.7 1330.64,1236.4 1337.55,1239.07 1344.46,1241.71 1351.36,1244.33 1358.27,1246.92 1365.18,1249.49 1372.08,1252.03 1378.99,1254.54 1385.89,1257.03 
  1392.8,1259.5 1399.71,1261.94 1406.61,1264.35 1413.52,1266.75 1420.42,1269.11 1427.33,1271.46 1434.24,1273.78 1441.14,1276.08 1448.05,1278.36 1454.96,1280.61 
  1461.86,1282.84 1468.77,1285.05 1475.67,1287.23 1482.58,1289.4 1489.49,1291.54 1496.39,1293.66 1503.3,1295.76 1510.2,1297.84 1517.11,1299.9 1524.02,1301.94 
  1530.92,1303.96 1537.83,1305.96 1544.74,1307.94 1551.64,1309.9 1558.55,1311.84 1565.45,1313.76 1572.36,1315.66 1579.27,1317.54 1586.17,1319.4 1593.08,1321.25 
  1599.98,1323.07 1606.89,1324.88 1613.8,1326.67 1620.7,1328.44 1627.61,1330.2 1634.52,1331.94 1641.42,1333.66 1648.33,1335.36 1655.23,1337.04 1662.14,1338.71 
  1669.05,1340.37 1675.95,1342 1682.86,1343.62 1689.76,1345.23 1696.67,1346.81 1703.58,1348.38 1710.48,1349.94 1717.39,1351.48 1724.3,1353.01 1731.2,1354.52 
  1738.11,1356.01 1745.01,1357.49 1751.92,1358.96 1758.83,1360.41 1765.73,1361.85 1772.64,1363.27 1779.54,1364.68 1786.45,1366.07 1793.36,1367.45 1800.26,1368.82 
  1807.17,1370.17 1814.08,1371.51 1820.98,1372.84 1827.89,1374.15 1834.79,1375.45 1841.7,1376.74 1848.61,1378.01 1855.51,1379.27 1862.42,1380.52 1869.32,1381.76 
  1876.23,1382.98 1883.14,1384.19 1890.04,1385.39 1896.95,1386.58 1903.86,1387.76 1910.76,1388.92 1917.67,1390.08 1924.57,1391.22 1931.48,1392.35 1938.39,1393.47 
  1945.29,1394.57 1952.2,1395.67 1959.11,1396.76 1966.01,1397.83 1972.92,1398.9 1979.82,1399.95 1986.73,1400.99 1993.64,1402.03 2000.54,1403.05 2007.45,1404.06 
  2014.35,1405.06 2021.26,1406.06 2028.17,1407.04 2035.07,1408.01 2041.98,1408.97 2048.89,1409.93 2055.79,1410.87 2062.7,1411.81 2069.6,1412.73 2076.51,1413.65 
  2083.42,1414.55 2090.32,1415.45 2097.23,1416.34 2104.13,1417.22 2111.04,1418.09 2117.95,1418.95 2124.85,1419.81 2131.76,1420.65 2138.67,1421.49 2145.57,1422.32 
  2152.48,1423.14 2159.38,1423.95 2166.29,1424.76 2173.2,1425.55 2180.1,1426.34 2187.01,1427.12 2193.91,1427.9 2200.82,1428.66 2207.73,1429.42 2214.63,1430.17 
  2221.54,1430.91 2228.45,1431.65 2235.35,1432.37 2242.26,1433.09 2249.16,1433.81 2256.07,1434.51 2262.98,1435.21 2269.88,1435.91 2276.79,1436.59 2283.69,1437.27 
  2290.6,1437.94 
  "></polyline>
<circle clip-path="url(#clip332)" cx="218.754" cy="162.047" r="14.4" fill="#e26f46" fill-rule="evenodd" fill-opacity="1" stroke="#000000" stroke-opacity="1" stroke-width="3.2"></circle>
<circle clip-path="url(#clip332)" cx="287.815" cy="296.322" r="14.4" fill="#e26f46" fill-rule="evenodd" fill-opacity="1" stroke="#000000" stroke-opacity="1" stroke-width="3.2"></circle>
<circle clip-path="url(#clip332)" cx="356.877" cy="417.169" r="14.4" fill="#e26f46" fill-rule="evenodd" fill-opacity="1" stroke="#000000" stroke-opacity="1" stroke-width="3.2"></circle>
<circle clip-path="url(#clip332)" cx="425.938" cy="525.931" r="14.4" fill="#e26f46" fill-rule="evenodd" fill-opacity="1" stroke="#000000" stroke-opacity="1" stroke-width="3.2"></circle>
<circle clip-path="url(#clip332)" cx="495" cy="623.818" r="14.4" fill="#e26f46" fill-rule="evenodd" fill-opacity="1" stroke="#000000" stroke-opacity="1" stroke-width="3.2"></circle>
<circle clip-path="url(#clip332)" cx="564.061" cy="711.915" r="14.4" fill="#e26f46" fill-rule="evenodd" fill-opacity="1" stroke="#000000" stroke-opacity="1" stroke-width="3.2"></circle>
<circle clip-path="url(#clip332)" cx="633.123" cy="791.203" r="14.4" fill="#e26f46" fill-rule="evenodd" fill-opacity="1" stroke="#000000" stroke-opacity="1" stroke-width="3.2"></circle>
<circle clip-path="url(#clip332)" cx="702.185" cy="862.562" r="14.4" fill="#e26f46" fill-rule="evenodd" fill-opacity="1" stroke="#000000" stroke-opacity="1" stroke-width="3.2"></circle>
<circle clip-path="url(#clip332)" cx="771.246" cy="926.785" r="14.4" fill="#e26f46" fill-rule="evenodd" fill-opacity="1" stroke="#000000" stroke-opacity="1" stroke-width="3.2"></circle>
<circle clip-path="url(#clip332)" cx="840.308" cy="984.586" r="14.4" fill="#e26f46" fill-rule="evenodd" fill-opacity="1" stroke="#000000" stroke-opacity="1" stroke-width="3.2"></circle>
<circle clip-path="url(#clip332)" cx="909.369" cy="1036.61" r="14.4" fill="#e26f46" fill-rule="evenodd" fill-opacity="1" stroke="#000000" stroke-opacity="1" stroke-width="3.2"></circle>
<circle clip-path="url(#clip332)" cx="978.431" cy="1083.43" r="14.4" fill="#e26f46" fill-rule="evenodd" fill-opacity="1" stroke="#000000" stroke-opacity="1" stroke-width="3.2"></circle>
<circle clip-path="url(#clip332)" cx="1047.49" cy="1125.56" r="14.4" fill="#e26f46" fill-rule="evenodd" fill-opacity="1" stroke="#000000" stroke-opacity="1" stroke-width="3.2"></circle>
<circle clip-path="url(#clip332)" cx="1116.55" cy="1163.49" r="14.4" fill="#e26f46" fill-rule="evenodd" fill-opacity="1" stroke="#000000" stroke-opacity="1" stroke-width="3.2"></circle>
<circle clip-path="url(#clip332)" cx="1185.62" cy="1197.62" r="14.4" fill="#e26f46" fill-rule="evenodd" fill-opacity="1" stroke="#000000" stroke-opacity="1" stroke-width="3.2"></circle>
<circle clip-path="url(#clip332)" cx="1254.68" cy="1228.33" r="14.4" fill="#e26f46" fill-rule="evenodd" fill-opacity="1" stroke="#000000" stroke-opacity="1" stroke-width="3.2"></circle>
<circle clip-path="url(#clip332)" cx="1323.74" cy="1255.98" r="14.4" fill="#e26f46" fill-rule="evenodd" fill-opacity="1" stroke="#000000" stroke-opacity="1" stroke-width="3.2"></circle>
<circle clip-path="url(#clip332)" cx="1392.8" cy="1280.86" r="14.4" fill="#e26f46" fill-rule="evenodd" fill-opacity="1" stroke="#000000" stroke-opacity="1" stroke-width="3.2"></circle>
<circle clip-path="url(#clip332)" cx="1461.86" cy="1303.25" r="14.4" fill="#e26f46" fill-rule="evenodd" fill-opacity="1" stroke="#000000" stroke-opacity="1" stroke-width="3.2"></circle>
<circle clip-path="url(#clip332)" cx="1530.92" cy="1323.41" r="14.4" fill="#e26f46" fill-rule="evenodd" fill-opacity="1" stroke="#000000" stroke-opacity="1" stroke-width="3.2"></circle>
<circle clip-path="url(#clip332)" cx="1599.98" cy="1341.55" r="14.4" fill="#e26f46" fill-rule="evenodd" fill-opacity="1" stroke="#000000" stroke-opacity="1" stroke-width="3.2"></circle>
<circle clip-path="url(#clip332)" cx="1669.05" cy="1357.87" r="14.4" fill="#e26f46" fill-rule="evenodd" fill-opacity="1" stroke="#000000" stroke-opacity="1" stroke-width="3.2"></circle>
<circle clip-path="url(#clip332)" cx="1738.11" cy="1372.56" r="14.4" fill="#e26f46" fill-rule="evenodd" fill-opacity="1" stroke="#000000" stroke-opacity="1" stroke-width="3.2"></circle>
<circle clip-path="url(#clip332)" cx="1807.17" cy="1385.79" r="14.4" fill="#e26f46" fill-rule="evenodd" fill-opacity="1" stroke="#000000" stroke-opacity="1" stroke-width="3.2"></circle>
<circle clip-path="url(#clip332)" cx="1876.23" cy="1397.69" r="14.4" fill="#e26f46" fill-rule="evenodd" fill-opacity="1" stroke="#000000" stroke-opacity="1" stroke-width="3.2"></circle>
<circle clip-path="url(#clip332)" cx="1945.29" cy="1408.4" r="14.4" fill="#e26f46" fill-rule="evenodd" fill-opacity="1" stroke="#000000" stroke-opacity="1" stroke-width="3.2"></circle>
<circle clip-path="url(#clip332)" cx="2014.35" cy="1418.04" r="14.4" fill="#e26f46" fill-rule="evenodd" fill-opacity="1" stroke="#000000" stroke-opacity="1" stroke-width="3.2"></circle>
<circle clip-path="url(#clip332)" cx="2083.42" cy="1426.71" r="14.4" fill="#e26f46" fill-rule="evenodd" fill-opacity="1" stroke="#000000" stroke-opacity="1" stroke-width="3.2"></circle>
<circle clip-path="url(#clip332)" cx="2152.48" cy="1434.52" r="14.4" fill="#e26f46" fill-rule="evenodd" fill-opacity="1" stroke="#000000" stroke-opacity="1" stroke-width="3.2"></circle>
<circle clip-path="url(#clip332)" cx="2221.54" cy="1441.55" r="14.4" fill="#e26f46" fill-rule="evenodd" fill-opacity="1" stroke="#000000" stroke-opacity="1" stroke-width="3.2"></circle>
<circle clip-path="url(#clip332)" cx="2290.6" cy="1447.87" r="14.4" fill="#e26f46" fill-rule="evenodd" fill-opacity="1" stroke="#000000" stroke-opacity="1" stroke-width="3.2"></circle>
<path clip-path="url(#clip330)" d="
M1712.64 324.425 L2279.55 324.425 L2279.55 168.905 L1712.64 168.905  Z
  " fill="#ffffff" fill-rule="evenodd" fill-opacity="1"></path>
<polyline clip-path="url(#clip330)" style="stroke:#000000; stroke-linecap:round; stroke-linejoin:round; stroke-width:4; stroke-opacity:1; fill:none" points="
  1712.64,324.425 2279.55,324.425 2279.55,168.905 1712.64,168.905 1712.64,324.425 
  "></polyline>
<polyline clip-path="url(#clip330)" style="stroke:#009af9; stroke-linecap:round; stroke-linejoin:round; stroke-width:4; stroke-opacity:1; fill:none" points="
  1737.04,220.745 1883.45,220.745 
  "></polyline>
<path clip-path="url(#clip330)" d="M1907.86 203.465 L1929.71 203.465 L1929.71 207.4 L1912.53 207.4 L1912.53 217.631 L1928.99 217.631 L1928.99 221.566 L1912.53 221.566 L1912.53 234.089 L1930.12 234.089 L1930.12 238.025 L1907.86 238.025 L1907.86 203.465 Z" fill="#000000" fill-rule="evenodd" fill-opacity="1"></path><path clip-path="url(#clip330)" d="M1959.17 212.099 L1949.8 224.715 L1959.66 238.025 L1954.64 238.025 L1947.09 227.84 L1939.55 238.025 L1934.52 238.025 L1944.59 224.46 L1935.38 212.099 L1940.4 212.099 L1947.28 221.335 L1954.15 212.099 L1959.17 212.099 Z" fill="#000000" fill-rule="evenodd" fill-opacity="1"></path><path clip-path="url(#clip330)" d="M1977.46 224.992 Q1972.3 224.992 1970.31 226.173 Q1968.32 227.353 1968.32 230.201 Q1968.32 232.469 1969.8 233.812 Q1971.3 235.131 1973.87 235.131 Q1977.42 235.131 1979.54 232.631 Q1981.7 230.108 1981.7 225.941 L1981.7 224.992 L1977.46 224.992 M1985.96 223.233 L1985.96 238.025 L1981.7 238.025 L1981.7 234.089 Q1980.24 236.451 1978.06 237.585 Q1975.89 238.696 1972.74 238.696 Q1968.76 238.696 1966.4 236.474 Q1964.06 234.228 1964.06 230.478 Q1964.06 226.103 1966.98 223.881 Q1969.92 221.659 1975.73 221.659 L1981.7 221.659 L1981.7 221.242 Q1981.7 218.303 1979.75 216.705 Q1977.83 215.085 1974.34 215.085 Q1972.11 215.085 1970.01 215.617 Q1967.9 216.15 1965.96 217.215 L1965.96 213.279 Q1968.29 212.377 1970.49 211.937 Q1972.69 211.474 1974.78 211.474 Q1980.4 211.474 1983.18 214.391 Q1985.96 217.307 1985.96 223.233 Z" fill="#000000" fill-rule="evenodd" fill-opacity="1"></path><path clip-path="url(#clip330)" d="M2013.39 213.094 L2013.39 217.076 Q2011.58 216.08 2009.75 215.594 Q2007.95 215.085 2006.1 215.085 Q2001.95 215.085 1999.66 217.724 Q1997.37 220.34 1997.37 225.085 Q1997.37 229.83 1999.66 232.469 Q2001.95 235.085 2006.1 235.085 Q2007.95 235.085 2009.75 234.599 Q2011.58 234.089 2013.39 233.094 L2013.39 237.029 Q2011.6 237.863 2009.68 238.279 Q2007.79 238.696 2005.63 238.696 Q1999.78 238.696 1996.33 235.015 Q1992.88 231.335 1992.88 225.085 Q1992.88 218.742 1996.35 215.108 Q1999.85 211.474 2005.91 211.474 Q2007.88 211.474 2009.75 211.891 Q2011.63 212.284 2013.39 213.094 Z" fill="#000000" fill-rule="evenodd" fill-opacity="1"></path><path clip-path="url(#clip330)" d="M2025.01 204.738 L2025.01 212.099 L2033.78 212.099 L2033.78 215.409 L2025.01 215.409 L2025.01 229.483 Q2025.01 232.654 2025.86 233.557 Q2026.74 234.46 2029.41 234.46 L2033.78 234.46 L2033.78 238.025 L2029.41 238.025 Q2024.48 238.025 2022.6 236.196 Q2020.73 234.344 2020.73 229.483 L2020.73 215.409 L2017.6 215.409 L2017.6 212.099 L2020.73 212.099 L2020.73 204.738 L2025.01 204.738 Z" fill="#000000" fill-rule="evenodd" fill-opacity="1"></path><circle clip-path="url(#clip330)" cx="1810.25" cy="272.585" r="23.04" fill="#e26f46" fill-rule="evenodd" fill-opacity="1" stroke="#000000" stroke-opacity="1" stroke-width="5.12"></circle>
<path clip-path="url(#clip330)" d="M1907.86 255.305 L1927.72 255.305 L1927.72 259.24 L1912.53 259.24 L1912.53 269.425 L1926.23 269.425 L1926.23 273.36 L1912.53 273.36 L1912.53 289.865 L1907.86 289.865 L1907.86 255.305 Z" fill="#000000" fill-rule="evenodd" fill-opacity="1"></path><path clip-path="url(#clip330)" d="M1943.29 266.925 Q1939.87 266.925 1937.88 269.61 Q1935.89 272.272 1935.89 276.925 Q1935.89 281.578 1937.86 284.263 Q1939.85 286.925 1943.29 286.925 Q1946.7 286.925 1948.69 284.24 Q1950.68 281.555 1950.68 276.925 Q1950.68 272.318 1948.69 269.633 Q1946.7 266.925 1943.29 266.925 M1943.29 263.314 Q1948.85 263.314 1952.02 266.925 Q1955.19 270.536 1955.19 276.925 Q1955.19 283.291 1952.02 286.925 Q1948.85 290.536 1943.29 290.536 Q1937.72 290.536 1934.55 286.925 Q1931.4 283.291 1931.4 276.925 Q1931.4 270.536 1934.55 266.925 Q1937.72 263.314 1943.29 263.314 Z" fill="#000000" fill-rule="evenodd" fill-opacity="1"></path><path clip-path="url(#clip330)" d="M1977.28 267.92 Q1976.56 267.504 1975.7 267.318 Q1974.87 267.11 1973.85 267.11 Q1970.24 267.11 1968.29 269.471 Q1966.37 271.809 1966.37 276.207 L1966.37 289.865 L1962.09 289.865 L1962.09 263.939 L1966.37 263.939 L1966.37 267.967 Q1967.72 265.606 1969.87 264.471 Q1972.02 263.314 1975.1 263.314 Q1975.54 263.314 1976.07 263.383 Q1976.6 263.43 1977.25 263.545 L1977.28 267.92 Z" fill="#000000" fill-rule="evenodd" fill-opacity="1"></path><path clip-path="url(#clip330)" d="M1979.27 263.939 L1983.53 263.939 L1988.85 284.17 L1994.15 263.939 L1999.17 263.939 L2004.5 284.17 L2009.8 263.939 L2014.06 263.939 L2007.28 289.865 L2002.25 289.865 L1996.67 268.615 L1991.07 289.865 L1986.05 289.865 L1979.27 263.939 Z" fill="#000000" fill-rule="evenodd" fill-opacity="1"></path><path clip-path="url(#clip330)" d="M2032.3 276.832 Q2027.14 276.832 2025.15 278.013 Q2023.16 279.193 2023.16 282.041 Q2023.16 284.309 2024.64 285.652 Q2026.14 286.971 2028.71 286.971 Q2032.25 286.971 2034.38 284.471 Q2036.54 281.948 2036.54 277.781 L2036.54 276.832 L2032.3 276.832 M2040.79 275.073 L2040.79 289.865 L2036.54 289.865 L2036.54 285.929 Q2035.08 288.291 2032.9 289.425 Q2030.73 290.536 2027.58 290.536 Q2023.6 290.536 2021.23 288.314 Q2018.9 286.068 2018.9 282.318 Q2018.9 277.943 2021.81 275.721 Q2024.75 273.499 2030.56 273.499 L2036.54 273.499 L2036.54 273.082 Q2036.54 270.143 2034.59 268.545 Q2032.67 266.925 2029.17 266.925 Q2026.95 266.925 2024.85 267.457 Q2022.74 267.99 2020.79 269.055 L2020.79 265.119 Q2023.13 264.217 2025.33 263.777 Q2027.53 263.314 2029.61 263.314 Q2035.24 263.314 2038.02 266.231 Q2040.79 269.147 2040.79 275.073 Z" fill="#000000" fill-rule="evenodd" fill-opacity="1"></path><path clip-path="url(#clip330)" d="M2064.59 267.92 Q2063.87 267.504 2063.02 267.318 Q2062.18 267.11 2061.16 267.11 Q2057.55 267.11 2055.61 269.471 Q2053.69 271.809 2053.69 276.207 L2053.69 289.865 L2049.41 289.865 L2049.41 263.939 L2053.69 263.939 L2053.69 267.967 Q2055.03 265.606 2057.18 264.471 Q2059.34 263.314 2062.41 263.314 Q2062.85 263.314 2063.39 263.383 Q2063.92 263.43 2064.57 263.545 L2064.59 267.92 Z" fill="#000000" fill-rule="evenodd" fill-opacity="1"></path><path clip-path="url(#clip330)" d="M2085.28 267.874 L2085.28 253.846 L2089.54 253.846 L2089.54 289.865 L2085.28 289.865 L2085.28 285.976 Q2083.94 288.291 2081.88 289.425 Q2079.85 290.536 2076.97 290.536 Q2072.28 290.536 2069.31 286.786 Q2066.37 283.036 2066.37 276.925 Q2066.37 270.814 2069.31 267.064 Q2072.28 263.314 2076.97 263.314 Q2079.85 263.314 2081.88 264.448 Q2083.94 265.559 2085.28 267.874 M2070.77 276.925 Q2070.77 281.624 2072.69 284.309 Q2074.64 286.971 2078.02 286.971 Q2081.4 286.971 2083.34 284.309 Q2085.28 281.624 2085.28 276.925 Q2085.28 272.226 2083.34 269.564 Q2081.4 266.879 2078.02 266.879 Q2074.64 266.879 2072.69 269.564 Q2070.77 272.226 2070.77 276.925 Z" fill="#000000" fill-rule="evenodd" fill-opacity="1"></path><path clip-path="url(#clip330)" d="M2113.57 255.305 L2135.42 255.305 L2135.42 259.24 L2118.25 259.24 L2118.25 269.471 L2134.71 269.471 L2134.71 273.406 L2118.25 273.406 L2118.25 285.929 L2135.84 285.929 L2135.84 289.865 L2113.57 289.865 L2113.57 255.305 Z" fill="#000000" fill-rule="evenodd" fill-opacity="1"></path><path clip-path="url(#clip330)" d="M2142.9 279.633 L2142.9 263.939 L2147.16 263.939 L2147.16 279.471 Q2147.16 283.152 2148.59 285.004 Q2150.03 286.832 2152.9 286.832 Q2156.35 286.832 2158.34 284.633 Q2160.35 282.434 2160.35 278.638 L2160.35 263.939 L2164.61 263.939 L2164.61 289.865 L2160.35 289.865 L2160.35 285.883 Q2158.8 288.244 2156.74 289.402 Q2154.71 290.536 2152 290.536 Q2147.53 290.536 2145.22 287.758 Q2142.9 284.98 2142.9 279.633 M2153.62 263.314 L2153.62 263.314 Z" fill="#000000" fill-rule="evenodd" fill-opacity="1"></path><path clip-path="url(#clip330)" d="M2173.39 253.846 L2177.65 253.846 L2177.65 289.865 L2173.39 289.865 L2173.39 253.846 Z" fill="#000000" fill-rule="evenodd" fill-opacity="1"></path><path clip-path="url(#clip330)" d="M2208.73 275.837 L2208.73 277.92 L2189.15 277.92 Q2189.43 282.318 2191.79 284.633 Q2194.17 286.925 2198.41 286.925 Q2200.86 286.925 2203.15 286.323 Q2205.47 285.721 2207.74 284.517 L2207.74 288.545 Q2205.45 289.517 2203.04 290.027 Q2200.63 290.536 2198.15 290.536 Q2191.95 290.536 2188.32 286.925 Q2184.71 283.314 2184.71 277.156 Q2184.71 270.791 2188.13 267.064 Q2191.58 263.314 2197.41 263.314 Q2202.65 263.314 2205.68 266.693 Q2208.73 270.05 2208.73 275.837 M2204.47 274.587 Q2204.43 271.092 2202.51 269.008 Q2200.61 266.925 2197.46 266.925 Q2193.9 266.925 2191.74 268.939 Q2189.61 270.953 2189.29 274.61 L2204.47 274.587 Z" fill="#000000" fill-rule="evenodd" fill-opacity="1"></path><path clip-path="url(#clip330)" d="M2230.75 267.92 Q2230.03 267.504 2229.17 267.318 Q2228.34 267.11 2227.32 267.11 Q2223.71 267.11 2221.77 269.471 Q2219.84 271.809 2219.84 276.207 L2219.84 289.865 L2215.56 289.865 L2215.56 263.939 L2219.84 263.939 L2219.84 267.967 Q2221.19 265.606 2223.34 264.471 Q2225.49 263.314 2228.57 263.314 Q2229.01 263.314 2229.54 263.383 Q2230.08 263.43 2230.72 263.545 L2230.75 267.92 Z" fill="#000000" fill-rule="evenodd" fill-opacity="1"></path></svg>