<svg xmlns="http://www.w3.org/2000/svg" xmlns:xlink="http://www.w3.org/1999/xlink" width="600" height="400" viewBox="0 0 2400 1600">
<defs>
  <clipPath id="clip290">
    <rect x="0" y="0" width="2400" height="1600"></rect>
  </clipPath>
</defs>
<path clip-path="url(#clip290)" d="
M0 1600 L2400 1600 L2400 0 L0 0  Z
  " fill="#ffffff" fill-rule="evenodd" fill-opacity="1"></path>
<defs>
  <clipPath id="clip291">
    <rect x="480" y="0" width="1681" height="1600"></rect>
  </clipPath>
</defs>
<path clip-path="url(#clip290)" d="
M252.764 1410.9 L2352.76 1410.9 L2352.76 123.472 L252.764 123.472  Z
  " fill="#ffffff" fill-rule="evenodd" fill-opacity="1"></path>
<defs>
  <clipPath id="clip292">
    <rect x="252" y="123" width="2101" height="1288"></rect>
  </clipPath>
</defs>
<polyline clip-path="url(#clip292)" style="stroke:#000000; stroke-linecap:round; stroke-linejoin:round; stroke-width:2; stroke-opacity:0.1; fill:none" points="
  312.198,1410.9 312.198,123.472 
  "></polyline>
<polyline clip-path="url(#clip292)" style="stroke:#000000; stroke-linecap:round; stroke-linejoin:round; stroke-width:2; stroke-opacity:0.1; fill:none" points="
  1074.14,1410.9 1074.14,123.472 
  "></polyline>
<polyline clip-path="url(#clip292)" style="stroke:#000000; stroke-linecap:round; stroke-linejoin:round; stroke-width:2; stroke-opacity:0.1; fill:none" points="
  1836.08,1410.9 1836.08,123.472 
  "></polyline>
<polyline clip-path="url(#clip290)" style="stroke:#000000; stroke-linecap:round; stroke-linejoin:round; stroke-width:4; stroke-opacity:1; fill:none" points="
  252.764,1410.9 2352.76,1410.9 
  "></polyline>
<polyline clip-path="url(#clip290)" style="stroke:#000000; stroke-linecap:round; stroke-linejoin:round; stroke-width:4; stroke-opacity:1; fill:none" points="
  312.198,1410.9 312.198,1392 
  "></polyline>
<polyline clip-path="url(#clip290)" style="stroke:#000000; stroke-linecap:round; stroke-linejoin:round; stroke-width:4; stroke-opacity:1; fill:none" points="
  1074.14,1410.9 1074.14,1392 
  "></polyline>
<polyline clip-path="url(#clip290)" style="stroke:#000000; stroke-linecap:round; stroke-linejoin:round; stroke-width:4; stroke-opacity:1; fill:none" points="
  1836.08,1410.9 1836.08,1392 
  "></polyline>
<path clip-path="url(#clip290)" d="M278.525 1485.02 L286.164 1485.02 L286.164 1458.66 L277.854 1460.32 L277.854 1456.06 L286.118 1454.4 L290.794 1454.4 L290.794 1485.02 L298.433 1485.02 L298.433 1488.96 L278.525 1488.96 L278.525 1485.02 Z" fill="#000000" fill-rule="evenodd" fill-opacity="1"></path><path clip-path="url(#clip290)" d="M317.877 1457.48 Q314.266 1457.48 312.437 1461.04 Q310.632 1464.58 310.632 1471.71 Q310.632 1478.82 312.437 1482.38 Q314.266 1485.92 317.877 1485.92 Q321.511 1485.92 323.317 1482.38 Q325.145 1478.82 325.145 1471.71 Q325.145 1464.58 323.317 1461.04 Q321.511 1457.48 317.877 1457.48 M317.877 1453.77 Q323.687 1453.77 326.743 1458.38 Q329.821 1462.96 329.821 1471.71 Q329.821 1480.44 326.743 1485.04 Q323.687 1489.63 317.877 1489.63 Q312.067 1489.63 308.988 1485.04 Q305.933 1480.44 305.933 1471.71 Q305.933 1462.96 308.988 1458.38 Q312.067 1453.77 317.877 1453.77 Z" fill="#000000" fill-rule="evenodd" fill-opacity="1"></path><path clip-path="url(#clip290)" d="M330.367 1458.35 L336.573 1458.35 L336.573 1436.93 L329.821 1438.28 L329.821 1434.82 L336.536 1433.47 L340.335 1433.47 L340.335 1458.35 L346.541 1458.35 L346.541 1461.55 L330.367 1461.55 L330.367 1458.35 Z" fill="#000000" fill-rule="evenodd" fill-opacity="1"></path><path clip-path="url(#clip290)" d="M1039.91 1485.02 L1047.55 1485.02 L1047.55 1458.66 L1039.24 1460.32 L1039.24 1456.06 L1047.5 1454.4 L1052.18 1454.4 L1052.18 1485.02 L1059.82 1485.02 L1059.82 1488.96 L1039.91 1488.96 L1039.91 1485.02 Z" fill="#000000" fill-rule="evenodd" fill-opacity="1"></path><path clip-path="url(#clip290)" d="M1079.26 1457.48 Q1075.65 1457.48 1073.82 1461.04 Q1072.02 1464.58 1072.02 1471.71 Q1072.02 1478.82 1073.82 1482.38 Q1075.65 1485.92 1079.26 1485.92 Q1082.9 1485.92 1084.7 1482.38 Q1086.53 1478.82 1086.53 1471.71 Q1086.53 1464.58 1084.7 1461.04 Q1082.9 1457.48 1079.26 1457.48 M1079.26 1453.77 Q1085.07 1453.77 1088.13 1458.38 Q1091.21 1462.96 1091.21 1471.71 Q1091.21 1480.44 1088.13 1485.04 Q1085.07 1489.63 1079.26 1489.63 Q1073.45 1489.63 1070.37 1485.04 Q1067.32 1480.44 1067.32 1471.71 Q1067.32 1462.96 1070.37 1458.38 Q1073.45 1453.77 1079.26 1453.77 Z" fill="#000000" fill-rule="evenodd" fill-opacity="1"></path><path clip-path="url(#clip290)" d="M1095.78 1458.35 L1109.04 1458.35 L1109.04 1461.55 L1091.21 1461.55 L1091.21 1458.35 Q1093.37 1456.11 1097.09 1452.35 Q1100.84 1448.57 1101.8 1447.48 Q1103.62 1445.43 1104.34 1444.02 Q1105.07 1442.59 1105.07 1441.22 Q1105.07 1438.98 1103.49 1437.57 Q1101.93 1436.16 1099.41 1436.16 Q1097.62 1436.16 1095.63 1436.78 Q1093.65 1437.4 1091.4 1438.66 L1091.4 1434.82 Q1093.69 1433.9 1095.68 1433.43 Q1097.68 1432.96 1099.33 1432.96 Q1103.7 1432.96 1106.29 1435.14 Q1108.89 1437.32 1108.89 1440.97 Q1108.89 1442.7 1108.23 1444.26 Q1107.59 1445.8 1105.88 1447.91 Q1105.41 1448.46 1102.89 1451.07 Q1100.37 1453.67 1095.78 1458.35 Z" fill="#000000" fill-rule="evenodd" fill-opacity="1"></path><path clip-path="url(#clip290)" d="M1801.52 1485.02 L1809.16 1485.02 L1809.16 1458.66 L1800.85 1460.32 L1800.85 1456.06 L1809.12 1454.4 L1813.79 1454.4 L1813.79 1485.02 L1821.43 1485.02 L1821.43 1488.96 L1801.52 1488.96 L1801.52 1485.02 Z" fill="#000000" fill-rule="evenodd" fill-opacity="1"></path><path clip-path="url(#clip290)" d="M1840.88 1457.48 Q1837.26 1457.48 1835.44 1461.04 Q1833.63 1464.58 1833.63 1471.71 Q1833.63 1478.82 1835.44 1482.38 Q1837.26 1485.92 1840.88 1485.92 Q1844.51 1485.92 1846.32 1482.38 Q1848.14 1478.82 1848.14 1471.71 Q1848.14 1464.58 1846.32 1461.04 Q1844.51 1457.48 1840.88 1457.48 M1840.88 1453.77 Q1846.69 1453.77 1849.74 1458.38 Q1852.82 1462.96 1852.82 1471.71 Q1852.82 1480.44 1849.74 1485.04 Q1846.69 1489.63 1840.88 1489.63 Q1835.07 1489.63 1831.99 1485.04 Q1828.93 1480.44 1828.93 1471.71 Q1828.93 1462.96 1831.99 1458.38 Q1835.07 1453.77 1840.88 1453.77 Z" fill="#000000" fill-rule="evenodd" fill-opacity="1"></path><path clip-path="url(#clip290)" d="M1865.52 1446.41 Q1868.24 1446.99 1869.77 1448.83 Q1871.31 1450.68 1871.31 1453.38 Q1871.31 1457.54 1868.45 1459.82 Q1865.59 1462.09 1860.32 1462.09 Q1858.56 1462.09 1856.68 1461.73 Q1854.81 1461.4 1852.82 1460.7 L1852.82 1457.03 Q1854.4 1457.95 1856.28 1458.42 Q1858.16 1458.89 1860.21 1458.89 Q1863.78 1458.89 1865.65 1457.48 Q1867.53 1456.07 1867.53 1453.38 Q1867.53 1450.9 1865.78 1449.51 Q1864.05 1448.1 1860.94 1448.1 L1857.67 1448.1 L1857.67 1444.98 L1861.1 1444.98 Q1863.9 1444.98 1865.38 1443.87 Q1866.87 1442.74 1866.87 1440.63 Q1866.87 1438.47 1865.33 1437.32 Q1863.8 1436.16 1860.94 1436.16 Q1859.38 1436.16 1857.6 1436.49 Q1855.81 1436.83 1853.67 1437.55 L1853.67 1434.16 Q1855.83 1433.56 1857.71 1433.26 Q1859.61 1432.96 1861.28 1432.96 Q1865.61 1432.96 1868.13 1434.93 Q1870.65 1436.89 1870.65 1440.24 Q1870.65 1442.57 1869.31 1444.19 Q1867.98 1445.79 1865.52 1446.41 Z" fill="#000000" fill-rule="evenodd" fill-opacity="1"></path><path clip-path="url(#clip290)" d="M1072.42 1526.67 L1082 1526.67 L1094.12 1559 L1106.31 1526.67 L1115.89 1526.67 L1115.89 1574.19 L1109.62 1574.19 L1109.62 1532.46 L1097.37 1565.05 L1090.91 1565.05 L1078.66 1532.46 L1078.66 1574.19 L1072.42 1574.19 L1072.42 1526.67 Z" fill="#000000" fill-rule="evenodd" fill-opacity="1"></path><path clip-path="url(#clip290)" d="M1144.6 1556.27 Q1137.51 1556.27 1134.77 1557.89 Q1132.03 1559.51 1132.03 1563.43 Q1132.03 1566.55 1134.07 1568.39 Q1136.14 1570.21 1139.67 1570.21 Q1144.54 1570.21 1147.47 1566.77 Q1150.43 1563.3 1150.43 1557.57 L1150.43 1556.27 L1144.6 1556.27 M1156.29 1553.85 L1156.29 1574.19 L1150.43 1574.19 L1150.43 1568.77 Q1148.42 1572.02 1145.43 1573.58 Q1142.44 1575.11 1138.11 1575.11 Q1132.64 1575.11 1129.39 1572.05 Q1126.18 1568.97 1126.18 1563.81 Q1126.18 1557.79 1130.19 1554.74 Q1134.23 1551.68 1142.22 1551.68 L1150.43 1551.68 L1150.43 1551.11 Q1150.43 1547.07 1147.75 1544.87 Q1145.11 1542.64 1140.31 1542.64 Q1137.25 1542.64 1134.36 1543.38 Q1131.46 1544.11 1128.79 1545.57 L1128.79 1540.16 Q1132 1538.92 1135.02 1538.31 Q1138.05 1537.68 1140.91 1537.68 Q1148.65 1537.68 1152.47 1541.69 Q1156.29 1545.7 1156.29 1553.85 Z" fill="#000000" fill-rule="evenodd" fill-opacity="1"></path><path clip-path="url(#clip290)" d="M1174.14 1528.42 L1174.14 1538.54 L1186.2 1538.54 L1186.2 1543.09 L1174.14 1543.09 L1174.14 1562.44 Q1174.14 1566.8 1175.32 1568.04 Q1176.53 1569.28 1180.19 1569.28 L1186.2 1569.28 L1186.2 1574.19 L1180.19 1574.19 Q1173.41 1574.19 1170.83 1571.67 Q1168.25 1569.12 1168.25 1562.44 L1168.25 1543.09 L1163.96 1543.09 L1163.96 1538.54 L1168.25 1538.54 L1168.25 1528.42 L1174.14 1528.42 Z" fill="#000000" fill-rule="evenodd" fill-opacity="1"></path><path clip-path="url(#clip290)" d="M1214.56 1544.01 Q1213.58 1543.44 1212.4 1543.18 Q1211.25 1542.9 1209.85 1542.9 Q1204.89 1542.9 1202.21 1546.14 Q1199.57 1549.36 1199.57 1555.41 L1199.57 1574.19 L1193.68 1574.19 L1193.68 1538.54 L1199.57 1538.54 L1199.57 1544.08 Q1201.42 1540.83 1204.38 1539.27 Q1207.34 1537.68 1211.57 1537.68 Q1212.18 1537.68 1212.91 1537.77 Q1213.64 1537.84 1214.53 1538 L1214.56 1544.01 Z" fill="#000000" fill-rule="evenodd" fill-opacity="1"></path><path clip-path="url(#clip290)" d="M1220.71 1538.54 L1226.56 1538.54 L1226.56 1574.19 L1220.71 1574.19 L1220.71 1538.54 M1220.71 1524.66 L1226.56 1524.66 L1226.56 1532.08 L1220.71 1532.08 L1220.71 1524.66 Z" fill="#000000" fill-rule="evenodd" fill-opacity="1"></path><path clip-path="url(#clip290)" d="M1268.45 1538.54 L1255.56 1555.88 L1269.12 1574.19 L1262.21 1574.19 L1251.83 1560.18 L1241.46 1574.19 L1234.55 1574.19 L1248.4 1555.53 L1235.73 1538.54 L1242.64 1538.54 L1252.09 1551.24 L1261.54 1538.54 L1268.45 1538.54 Z" fill="#000000" fill-rule="evenodd" fill-opacity="1"></path><path clip-path="url(#clip290)" d="M1320.84 1539.59 L1320.84 1545.13 Q1318.36 1543.85 1315.68 1543.22 Q1313.01 1542.58 1310.14 1542.58 Q1305.78 1542.58 1303.59 1543.92 Q1301.42 1545.25 1301.42 1547.93 Q1301.42 1549.96 1302.98 1551.14 Q1304.54 1552.29 1309.25 1553.34 L1311.26 1553.78 Q1317.5 1555.12 1320.11 1557.57 Q1322.75 1559.99 1322.75 1564.35 Q1322.75 1569.32 1318.8 1572.21 Q1314.89 1575.11 1308.01 1575.11 Q1305.15 1575.11 1302.03 1574.54 Q1298.94 1573.99 1295.5 1572.88 L1295.5 1566.83 Q1298.75 1568.52 1301.9 1569.38 Q1305.05 1570.21 1308.14 1570.21 Q1312.28 1570.21 1314.5 1568.81 Q1316.73 1567.37 1316.73 1564.8 Q1316.73 1562.41 1315.11 1561.14 Q1313.52 1559.86 1308.08 1558.68 L1306.04 1558.21 Q1300.6 1557.06 1298.18 1554.71 Q1295.76 1552.32 1295.76 1548.18 Q1295.76 1543.15 1299.32 1540.42 Q1302.89 1537.68 1309.44 1537.68 Q1312.69 1537.68 1315.55 1538.16 Q1318.42 1538.63 1320.84 1539.59 Z" fill="#000000" fill-rule="evenodd" fill-opacity="1"></path><path clip-path="url(#clip290)" d="M1332.07 1538.54 L1337.93 1538.54 L1337.93 1574.19 L1332.07 1574.19 L1332.07 1538.54 M1332.07 1524.66 L1337.93 1524.66 L1337.93 1532.08 L1332.07 1532.08 L1332.07 1524.66 Z" fill="#000000" fill-rule="evenodd" fill-opacity="1"></path><path clip-path="url(#clip290)" d="M1347.64 1538.54 L1375.46 1538.54 L1375.46 1543.88 L1353.43 1569.51 L1375.46 1569.51 L1375.46 1574.19 L1346.84 1574.19 L1346.84 1568.84 L1368.87 1543.22 L1347.64 1543.22 L1347.64 1538.54 Z" fill="#000000" fill-rule="evenodd" fill-opacity="1"></path><path clip-path="url(#clip290)" d="M1414.89 1554.9 L1414.89 1557.76 L1387.96 1557.76 Q1388.35 1563.81 1391.59 1566.99 Q1394.87 1570.14 1400.7 1570.14 Q1404.07 1570.14 1407.22 1569.32 Q1410.4 1568.49 1413.52 1566.83 L1413.52 1572.37 Q1410.37 1573.71 1407.06 1574.41 Q1403.75 1575.11 1400.35 1575.11 Q1391.82 1575.11 1386.82 1570.14 Q1381.85 1565.18 1381.85 1556.71 Q1381.85 1547.96 1386.56 1542.83 Q1391.31 1537.68 1399.33 1537.68 Q1406.52 1537.68 1410.69 1542.33 Q1414.89 1546.94 1414.89 1554.9 M1409.04 1553.18 Q1408.97 1548.37 1406.33 1545.51 Q1403.72 1542.64 1399.39 1542.64 Q1394.49 1542.64 1391.53 1545.41 Q1388.6 1548.18 1388.16 1553.21 L1409.04 1553.18 Z" fill="#000000" fill-rule="evenodd" fill-opacity="1"></path><path clip-path="url(#clip290)" d="M1459.29 1524.72 Q1455.03 1532.04 1452.96 1539.21 Q1450.89 1546.37 1450.89 1553.72 Q1450.89 1561.07 1452.96 1568.3 Q1455.06 1575.49 1459.29 1582.78 L1454.2 1582.78 Q1449.43 1575.3 1447.04 1568.07 Q1444.68 1560.85 1444.68 1553.72 Q1444.68 1546.62 1447.04 1539.43 Q1449.39 1532.24 1454.2 1524.72 L1459.29 1524.72 Z" fill="#000000" fill-rule="evenodd" fill-opacity="1"></path><path clip-path="url(#clip290)" d="M1470.91 1526.67 L1479.57 1526.67 L1500.64 1566.42 L1500.64 1526.67 L1506.88 1526.67 L1506.88 1574.19 L1498.22 1574.19 L1477.15 1534.43 L1477.15 1574.19 L1470.91 1574.19 L1470.91 1526.67 Z" fill="#000000" fill-rule="evenodd" fill-opacity="1"></path><path clip-path="url(#clip290)" d="M1518.49 1524.72 L1523.59 1524.72 Q1528.36 1532.24 1530.72 1539.43 Q1533.1 1546.62 1533.1 1553.72 Q1533.1 1560.85 1530.72 1568.07 Q1528.36 1575.3 1523.59 1582.78 L1518.49 1582.78 Q1522.73 1575.49 1524.8 1568.3 Q1526.9 1561.07 1526.9 1553.72 Q1526.9 1546.37 1524.8 1539.21 Q1522.73 1532.04 1518.49 1524.72 Z" fill="#000000" fill-rule="evenodd" fill-opacity="1"></path><polyline clip-path="url(#clip292)" style="stroke:#000000; stroke-linecap:round; stroke-linejoin:round; stroke-width:2; stroke-opacity:0.1; fill:none" points="
  252.764,1384.74 2352.76,1384.74 
  "></polyline>
<polyline clip-path="url(#clip292)" style="stroke:#000000; stroke-linecap:round; stroke-linejoin:round; stroke-width:2; stroke-opacity:0.1; fill:none" points="
  252.764,1183.73 2352.76,1183.73 
  "></polyline>
<polyline clip-path="url(#clip292)" style="stroke:#000000; stroke-linecap:round; stroke-linejoin:round; stroke-width:2; stroke-opacity:0.1; fill:none" points="
  252.764,982.711 2352.76,982.711 
  "></polyline>
<polyline clip-path="url(#clip292)" style="stroke:#000000; stroke-linecap:round; stroke-linejoin:round; stroke-width:2; stroke-opacity:0.1; fill:none" points="
  252.764,781.696 2352.76,781.696 
  "></polyline>
<polyline clip-path="url(#clip292)" style="stroke:#000000; stroke-linecap:round; stroke-linejoin:round; stroke-width:2; stroke-opacity:0.1; fill:none" points="
  252.764,580.68 2352.76,580.68 
  "></polyline>
<polyline clip-path="url(#clip292)" style="stroke:#000000; stroke-linecap:round; stroke-linejoin:round; stroke-width:2; stroke-opacity:0.1; fill:none" points="
  252.764,379.665 2352.76,379.665 
  "></polyline>
<polyline clip-path="url(#clip292)" style="stroke:#000000; stroke-linecap:round; stroke-linejoin:round; stroke-width:2; stroke-opacity:0.1; fill:none" points="
  252.764,178.649 2352.76,178.649 
  "></polyline>
<polyline clip-path="url(#clip290)" style="stroke:#000000; stroke-linecap:round; stroke-linejoin:round; stroke-width:4; stroke-opacity:1; fill:none" points="
  252.764,1410.9 252.764,123.472 
  "></polyline>
<polyline clip-path="url(#clip290)" style="stroke:#000000; stroke-linecap:round; stroke-linejoin:round; stroke-width:4; stroke-opacity:1; fill:none" points="
  252.764,1384.74 271.662,1384.74 
  "></polyline>
<polyline clip-path="url(#clip290)" style="stroke:#000000; stroke-linecap:round; stroke-linejoin:round; stroke-width:4; stroke-opacity:1; fill:none" points="
  252.764,1183.73 271.662,1183.73 
  "></polyline>
<polyline clip-path="url(#clip290)" style="stroke:#000000; stroke-linecap:round; stroke-linejoin:round; stroke-width:4; stroke-opacity:1; fill:none" points="
  252.764,982.711 271.662,982.711 
  "></polyline>
<polyline clip-path="url(#clip290)" style="stroke:#000000; stroke-linecap:round; stroke-linejoin:round; stroke-width:4; stroke-opacity:1; fill:none" points="
  252.764,781.696 271.662,781.696 
  "></polyline>
<polyline clip-path="url(#clip290)" style="stroke:#000000; stroke-linecap:round; stroke-linejoin:round; stroke-width:4; stroke-opacity:1; fill:none" points="
  252.764,580.68 271.662,580.68 
  "></polyline>
<polyline clip-path="url(#clip290)" style="stroke:#000000; stroke-linecap:round; stroke-linejoin:round; stroke-width:4; stroke-opacity:1; fill:none" points="
  252.764,379.665 271.662,379.665 
  "></polyline>
<polyline clip-path="url(#clip290)" style="stroke:#000000; stroke-linecap:round; stroke-linejoin:round; stroke-width:4; stroke-opacity:1; fill:none" points="
  252.764,178.649 271.662,178.649 
  "></polyline>
<path clip-path="url(#clip290)" d="M115.195 1404.53 L122.834 1404.53 L122.834 1378.17 L114.523 1379.84 L114.523 1375.58 L122.787 1373.91 L127.463 1373.91 L127.463 1404.53 L135.102 1404.53 L135.102 1408.47 L115.195 1408.47 L115.195 1404.53 Z" fill="#000000" fill-rule="evenodd" fill-opacity="1"></path><path clip-path="url(#clip290)" d="M154.546 1376.99 Q150.935 1376.99 149.107 1380.55 Q147.301 1384.1 147.301 1391.22 Q147.301 1398.33 149.107 1401.9 Q150.935 1405.44 154.546 1405.44 Q158.181 1405.44 159.986 1401.9 Q161.815 1398.33 161.815 1391.22 Q161.815 1384.1 159.986 1380.55 Q158.181 1376.99 154.546 1376.99 M154.546 1373.29 Q160.357 1373.29 163.412 1377.89 Q166.491 1382.47 166.491 1391.22 Q166.491 1399.95 163.412 1404.56 Q160.357 1409.14 154.546 1409.14 Q148.736 1409.14 145.658 1404.56 Q142.602 1399.95 142.602 1391.22 Q142.602 1382.47 145.658 1377.89 Q148.736 1373.29 154.546 1373.29 Z" fill="#000000" fill-rule="evenodd" fill-opacity="1"></path><path clip-path="url(#clip290)" d="M166.491 1367.39 L190.602 1367.39 L190.602 1370.58 L166.491 1370.58 L166.491 1367.39 Z" fill="#000000" fill-rule="evenodd" fill-opacity="1"></path><path clip-path="url(#clip290)" d="M207.398 1365.51 Q204.84 1365.51 203.335 1367.25 Q201.849 1369 201.849 1372.05 Q201.849 1375.08 203.335 1376.85 Q204.84 1378.6 207.398 1378.6 Q209.956 1378.6 211.441 1376.85 Q212.946 1375.08 212.946 1372.05 Q212.946 1369 211.441 1367.25 Q209.956 1365.51 207.398 1365.51 M214.94 1353.6 L214.94 1357.06 Q213.51 1356.38 212.043 1356.03 Q210.595 1355.67 209.166 1355.67 Q205.404 1355.67 203.41 1358.21 Q201.436 1360.75 201.153 1365.88 Q202.263 1364.25 203.937 1363.38 Q205.611 1362.5 207.623 1362.5 Q211.855 1362.5 214.3 1365.07 Q216.764 1367.63 216.764 1372.05 Q216.764 1376.38 214.206 1378.99 Q211.648 1381.61 207.398 1381.61 Q202.526 1381.61 199.95 1377.88 Q197.373 1374.14 197.373 1367.05 Q197.373 1360.39 200.533 1356.44 Q203.693 1352.47 209.015 1352.47 Q210.445 1352.47 211.893 1352.75 Q213.36 1353.04 214.94 1353.6 Z" fill="#000000" fill-rule="evenodd" fill-opacity="1"></path><path clip-path="url(#clip290)" d="M116.135 1203.52 L123.774 1203.52 L123.774 1177.15 L115.464 1178.82 L115.464 1174.56 L123.728 1172.89 L128.404 1172.89 L128.404 1203.52 L136.042 1203.52 L136.042 1207.45 L116.135 1207.45 L116.135 1203.52 Z" fill="#000000" fill-rule="evenodd" fill-opacity="1"></path><path clip-path="url(#clip290)" d="M155.487 1175.97 Q151.876 1175.97 150.047 1179.54 Q148.241 1183.08 148.241 1190.21 Q148.241 1197.32 150.047 1200.88 Q151.876 1204.42 155.487 1204.42 Q159.121 1204.42 160.927 1200.88 Q162.755 1197.32 162.755 1190.21 Q162.755 1183.08 160.927 1179.54 Q159.121 1175.97 155.487 1175.97 M155.487 1172.27 Q161.297 1172.27 164.352 1176.88 Q167.431 1181.46 167.431 1190.21 Q167.431 1198.94 164.352 1203.54 Q161.297 1208.13 155.487 1208.13 Q149.677 1208.13 146.598 1203.54 Q143.542 1198.94 143.542 1190.21 Q143.542 1181.46 146.598 1176.88 Q149.677 1172.27 155.487 1172.27 Z" fill="#000000" fill-rule="evenodd" fill-opacity="1"></path><path clip-path="url(#clip290)" d="M167.431 1166.37 L191.543 1166.37 L191.543 1169.57 L167.431 1169.57 L167.431 1166.37 Z" fill="#000000" fill-rule="evenodd" fill-opacity="1"></path><path clip-path="url(#clip290)" d="M199.781 1151.96 L214.695 1151.96 L214.695 1155.16 L203.26 1155.16 L203.26 1162.05 Q204.088 1161.76 204.915 1161.63 Q205.743 1161.48 206.57 1161.48 Q211.272 1161.48 214.018 1164.06 Q216.764 1166.63 216.764 1171.04 Q216.764 1175.57 213.943 1178.09 Q211.122 1180.59 205.987 1180.59 Q204.219 1180.59 202.376 1180.29 Q200.552 1179.99 198.596 1179.39 L198.596 1175.57 Q200.288 1176.49 202.094 1176.94 Q203.899 1177.39 205.912 1177.39 Q209.166 1177.39 211.065 1175.68 Q212.965 1173.97 212.965 1171.04 Q212.965 1168.1 211.065 1166.39 Q209.166 1164.68 205.912 1164.68 Q204.388 1164.68 202.865 1165.02 Q201.36 1165.36 199.781 1166.07 L199.781 1151.96 Z" fill="#000000" fill-rule="evenodd" fill-opacity="1"></path><path clip-path="url(#clip290)" d="M114.931 1002.5 L122.57 1002.5 L122.57 976.138 L114.26 977.805 L114.26 973.546 L122.524 971.879 L127.2 971.879 L127.2 1002.5 L134.839 1002.5 L134.839 1006.44 L114.931 1006.44 L114.931 1002.5 Z" fill="#000000" fill-rule="evenodd" fill-opacity="1"></path><path clip-path="url(#clip290)" d="M154.283 974.958 Q150.672 974.958 148.843 978.523 Q147.038 982.064 147.038 989.194 Q147.038 996.3 148.843 999.865 Q150.672 1003.41 154.283 1003.41 Q157.917 1003.41 159.723 999.865 Q161.552 996.3 161.552 989.194 Q161.552 982.064 159.723 978.523 Q157.917 974.958 154.283 974.958 M154.283 971.254 Q160.093 971.254 163.149 975.861 Q166.227 980.444 166.227 989.194 Q166.227 997.921 163.149 1002.53 Q160.093 1007.11 154.283 1007.11 Q148.473 1007.11 145.394 1002.53 Q142.339 997.921 142.339 989.194 Q142.339 980.444 145.394 975.861 Q148.473 971.254 154.283 971.254 Z" fill="#000000" fill-rule="evenodd" fill-opacity="1"></path><path clip-path="url(#clip290)" d="M166.227 965.355 L190.339 965.355 L190.339 968.553 L166.227 968.553 L166.227 965.355 Z" fill="#000000" fill-rule="evenodd" fill-opacity="1"></path><path clip-path="url(#clip290)" d="M208.978 954.259 L199.386 969.249 L208.978 969.249 L208.978 954.259 M207.981 950.949 L212.758 950.949 L212.758 969.249 L216.764 969.249 L216.764 972.408 L212.758 972.408 L212.758 979.029 L208.978 979.029 L208.978 972.408 L196.301 972.408 L196.301 968.741 L207.981 950.949 Z" fill="#000000" fill-rule="evenodd" fill-opacity="1"></path><path clip-path="url(#clip290)" d="M115.853 801.488 L123.492 801.488 L123.492 775.123 L115.182 776.789 L115.182 772.53 L123.446 770.864 L128.121 770.864 L128.121 801.488 L135.76 801.488 L135.76 805.424 L115.853 805.424 L115.853 801.488 Z" fill="#000000" fill-rule="evenodd" fill-opacity="1"></path><path clip-path="url(#clip290)" d="M155.205 773.942 Q151.594 773.942 149.765 777.507 Q147.959 781.049 147.959 788.178 Q147.959 795.285 149.765 798.85 Q151.594 802.391 155.205 802.391 Q158.839 802.391 160.644 798.85 Q162.473 795.285 162.473 788.178 Q162.473 781.049 160.644 777.507 Q158.839 773.942 155.205 773.942 M155.205 770.239 Q161.015 770.239 164.07 774.845 Q167.149 779.428 167.149 788.178 Q167.149 796.905 164.07 801.512 Q161.015 806.095 155.205 806.095 Q149.395 806.095 146.316 801.512 Q143.26 796.905 143.26 788.178 Q143.26 779.428 146.316 774.845 Q149.395 770.239 155.205 770.239 Z" fill="#000000" fill-rule="evenodd" fill-opacity="1"></path><path clip-path="url(#clip290)" d="M167.149 764.34 L191.261 764.34 L191.261 767.537 L167.149 767.537 L167.149 764.34 Z" fill="#000000" fill-rule="evenodd" fill-opacity="1"></path><path clip-path="url(#clip290)" d="M210.971 762.873 Q213.698 763.456 215.222 765.299 Q216.764 767.142 216.764 769.851 Q216.764 774.007 213.905 776.283 Q211.046 778.559 205.78 778.559 Q204.012 778.559 202.132 778.201 Q200.27 777.863 198.276 777.167 L198.276 773.499 Q199.856 774.421 201.737 774.891 Q203.617 775.361 205.667 775.361 Q209.241 775.361 211.103 773.951 Q212.984 772.54 212.984 769.851 Q212.984 767.368 211.234 765.976 Q209.504 764.566 206.401 764.566 L203.128 764.566 L203.128 761.444 L206.551 761.444 Q209.354 761.444 210.84 760.334 Q212.325 759.205 212.325 757.099 Q212.325 754.936 210.783 753.789 Q209.26 752.623 206.401 752.623 Q204.84 752.623 203.053 752.961 Q201.266 753.3 199.122 754.014 L199.122 750.629 Q201.285 750.027 203.166 749.726 Q205.066 749.425 206.739 749.425 Q211.065 749.425 213.585 751.4 Q216.106 753.356 216.106 756.704 Q216.106 759.036 214.77 760.654 Q213.435 762.252 210.971 762.873 Z" fill="#000000" fill-rule="evenodd" fill-opacity="1"></path><path clip-path="url(#clip290)" d="M116.624 600.473 L124.263 600.473 L124.263 574.107 L115.953 575.774 L115.953 571.515 L124.217 569.848 L128.893 569.848 L128.893 600.473 L136.531 600.473 L136.531 604.408 L116.624 604.408 L116.624 600.473 Z" fill="#000000" fill-rule="evenodd" fill-opacity="1"></path><path clip-path="url(#clip290)" d="M155.976 572.927 Q152.365 572.927 150.536 576.492 Q148.73 580.033 148.73 587.163 Q148.73 594.269 150.536 597.834 Q152.365 601.376 155.976 601.376 Q159.61 601.376 161.416 597.834 Q163.244 594.269 163.244 587.163 Q163.244 580.033 161.416 576.492 Q159.61 572.927 155.976 572.927 M155.976 569.223 Q161.786 569.223 164.841 573.829 Q167.92 578.413 167.92 587.163 Q167.92 595.89 164.841 600.496 Q161.786 605.079 155.976 605.079 Q150.166 605.079 147.087 600.496 Q144.031 595.89 144.031 587.163 Q144.031 578.413 147.087 573.829 Q150.166 569.223 155.976 569.223 Z" fill="#000000" fill-rule="evenodd" fill-opacity="1"></path><path clip-path="url(#clip290)" d="M167.92 563.324 L192.032 563.324 L192.032 566.522 L167.92 566.522 L167.92 563.324 Z" fill="#000000" fill-rule="evenodd" fill-opacity="1"></path><path clip-path="url(#clip290)" d="M203.504 573.8 L216.764 573.8 L216.764 576.998 L198.934 576.998 L198.934 573.8 Q201.097 571.562 204.821 567.801 Q208.564 564.02 209.523 562.929 Q211.347 560.879 212.062 559.469 Q212.796 558.039 212.796 556.666 Q212.796 554.428 211.216 553.018 Q209.655 551.607 207.134 551.607 Q205.348 551.607 203.354 552.228 Q201.379 552.848 199.122 554.109 L199.122 550.272 Q201.417 549.35 203.41 548.88 Q205.404 548.41 207.059 548.41 Q211.423 548.41 214.018 550.592 Q216.613 552.773 216.613 556.422 Q216.613 558.152 215.955 559.713 Q215.316 561.256 213.604 563.362 Q213.134 563.907 210.614 566.522 Q208.094 569.117 203.504 573.8 Z" fill="#000000" fill-rule="evenodd" fill-opacity="1"></path><path clip-path="url(#clip290)" d="M116.323 399.457 L123.962 399.457 L123.962 373.092 L115.652 374.758 L115.652 370.499 L123.916 368.833 L128.592 368.833 L128.592 399.457 L136.231 399.457 L136.231 403.393 L116.323 403.393 L116.323 399.457 Z" fill="#000000" fill-rule="evenodd" fill-opacity="1"></path><path clip-path="url(#clip290)" d="M155.675 371.911 Q152.064 371.911 150.235 375.476 Q148.43 379.018 148.43 386.147 Q148.43 393.254 150.235 396.818 Q152.064 400.36 155.675 400.36 Q159.309 400.36 161.115 396.818 Q162.943 393.254 162.943 386.147 Q162.943 379.018 161.115 375.476 Q159.309 371.911 155.675 371.911 M155.675 368.208 Q161.485 368.208 164.541 372.814 Q167.619 377.397 167.619 386.147 Q167.619 394.874 164.541 399.48 Q161.485 404.064 155.675 404.064 Q149.865 404.064 146.786 399.48 Q143.73 394.874 143.73 386.147 Q143.73 377.397 146.786 372.814 Q149.865 368.208 155.675 368.208 Z" fill="#000000" fill-rule="evenodd" fill-opacity="1"></path><path clip-path="url(#clip290)" d="M167.619 362.309 L191.731 362.309 L191.731 365.506 L167.619 365.506 L167.619 362.309 Z" fill="#000000" fill-rule="evenodd" fill-opacity="1"></path><path clip-path="url(#clip290)" d="M200.589 372.785 L206.796 372.785 L206.796 351.363 L200.044 352.717 L200.044 349.256 L206.758 347.902 L210.557 347.902 L210.557 372.785 L216.764 372.785 L216.764 375.982 L200.589 375.982 L200.589 372.785 Z" fill="#000000" fill-rule="evenodd" fill-opacity="1"></path><path clip-path="url(#clip290)" d="M146.058 198.442 L153.697 198.442 L153.697 172.076 L145.387 173.743 L145.387 169.484 L153.651 167.817 L158.327 167.817 L158.327 198.442 L165.966 198.442 L165.966 202.377 L146.058 202.377 L146.058 198.442 Z" fill="#000000" fill-rule="evenodd" fill-opacity="1"></path><path clip-path="url(#clip290)" d="M185.41 170.896 Q181.799 170.896 179.97 174.46 Q178.165 178.002 178.165 185.132 Q178.165 192.238 179.97 195.803 Q181.799 199.345 185.41 199.345 Q189.044 199.345 190.85 195.803 Q192.678 192.238 192.678 185.132 Q192.678 178.002 190.85 174.46 Q189.044 170.896 185.41 170.896 M185.41 167.192 Q191.22 167.192 194.276 171.798 Q197.354 176.382 197.354 185.132 Q197.354 193.859 194.276 198.465 Q191.22 203.048 185.41 203.048 Q179.6 203.048 176.521 198.465 Q173.466 193.859 173.466 185.132 Q173.466 176.382 176.521 171.798 Q179.6 167.192 185.41 167.192 Z" fill="#000000" fill-rule="evenodd" fill-opacity="1"></path><path clip-path="url(#clip290)" d="M207.059 149.388 Q204.125 149.388 202.639 152.284 Q201.172 155.162 201.172 160.955 Q201.172 166.729 202.639 169.625 Q204.125 172.503 207.059 172.503 Q210.012 172.503 211.479 169.625 Q212.965 166.729 212.965 160.955 Q212.965 155.162 211.479 152.284 Q210.012 149.388 207.059 149.388 M207.059 146.379 Q211.78 146.379 214.263 150.122 Q216.764 153.845 216.764 160.955 Q216.764 168.045 214.263 171.788 Q211.78 175.512 207.059 175.512 Q202.338 175.512 199.837 171.788 Q197.354 168.045 197.354 160.955 Q197.354 153.845 199.837 150.122 Q202.338 146.379 207.059 146.379 Z" fill="#000000" fill-rule="evenodd" fill-opacity="1"></path><path clip-path="url(#clip290)" d="M20.1444 1071.97 L26.9239 1071.97 Q23.9002 1075.22 22.4043 1078.91 Q20.9083 1082.57 20.9083 1086.71 Q20.9083 1094.86 25.9054 1099.19 Q30.8707 1103.52 40.2919 1103.52 Q49.6813 1103.52 54.6784 1099.19 Q59.6436 1094.86 59.6436 1086.71 Q59.6436 1082.57 58.1477 1078.91 Q56.6518 1075.22 53.6281 1071.97 L60.3439 1071.97 Q62.6355 1075.35 63.7814 1079.14 Q64.9272 1082.89 64.9272 1087.09 Q64.9272 1097.88 58.3387 1104.09 Q51.7183 1110.3 40.2919 1110.3 Q28.8336 1110.3 22.2451 1104.09 Q15.6248 1097.88 15.6248 1087.09 Q15.6248 1082.83 16.7706 1079.07 Q17.8846 1075.28 20.1444 1071.97 Z" fill="#000000" fill-rule="evenodd" fill-opacity="1"></path><path clip-path="url(#clip290)" d="M32.4621 1048.48 Q32.4621 1053.2 36.1542 1055.93 Q39.8145 1058.67 46.212 1058.67 Q52.6095 1058.67 56.3017 1055.96 Q59.9619 1053.23 59.9619 1048.48 Q59.9619 1043.81 56.2698 1041.07 Q52.5777 1038.33 46.212 1038.33 Q39.8781 1038.33 36.186 1041.07 Q32.4621 1043.81 32.4621 1048.48 M27.4968 1048.48 Q27.4968 1040.85 32.4621 1036.49 Q37.4273 1032.13 46.212 1032.13 Q54.9649 1032.13 59.9619 1036.49 Q64.9272 1040.85 64.9272 1048.48 Q64.9272 1056.16 59.9619 1060.52 Q54.9649 1064.84 46.212 1064.84 Q37.4273 1064.84 32.4621 1060.52 Q27.4968 1056.16 27.4968 1048.48 Z" fill="#000000" fill-rule="evenodd" fill-opacity="1"></path><path clip-path="url(#clip290)" d="M35.1993 994.663 Q31.2526 992.467 29.3747 989.411 Q27.4968 986.356 27.4968 982.218 Q27.4968 976.648 31.4117 973.624 Q35.2948 970.601 42.4881 970.601 L64.0042 970.601 L64.0042 976.489 L42.679 976.489 Q37.5546 976.489 35.072 978.303 Q32.5894 980.117 32.5894 983.841 Q32.5894 988.393 35.6131 991.034 Q38.6368 993.676 43.8567 993.676 L64.0042 993.676 L64.0042 999.565 L42.679 999.565 Q37.5228 999.565 35.072 1001.38 Q32.5894 1003.19 32.5894 1006.98 Q32.5894 1011.47 35.6449 1014.11 Q38.6686 1016.75 43.8567 1016.75 L64.0042 1016.75 L64.0042 1022.64 L28.3562 1022.64 L28.3562 1016.75 L33.8944 1016.75 Q30.616 1014.75 29.0564 1011.95 Q27.4968 1009.14 27.4968 1005.29 Q27.4968 1001.41 29.4702 998.705 Q31.4436 995.968 35.1993 994.663 Z" fill="#000000" fill-rule="evenodd" fill-opacity="1"></path><path clip-path="url(#clip290)" d="M58.657 953.254 L77.5631 953.254 L77.5631 959.142 L28.3562 959.142 L28.3562 953.254 L33.7671 953.254 Q30.5842 951.408 29.0564 948.607 Q27.4968 945.774 27.4968 941.859 Q27.4968 935.366 32.6531 931.324 Q37.8093 927.25 46.212 927.25 Q54.6147 927.25 59.771 931.324 Q64.9272 935.366 64.9272 941.859 Q64.9272 945.774 63.3994 948.607 Q61.8398 951.408 58.657 953.254 M46.212 933.329 Q39.7508 933.329 36.0905 936.003 Q32.3984 938.645 32.3984 943.292 Q32.3984 947.939 36.0905 950.612 Q39.7508 953.254 46.212 953.254 Q52.6732 953.254 56.3653 950.612 Q60.0256 947.939 60.0256 943.292 Q60.0256 938.645 56.3653 936.003 Q52.6732 933.329 46.212 933.329 Z" fill="#000000" fill-rule="evenodd" fill-opacity="1"></path><path clip-path="url(#clip290)" d="M49.9359 918.147 L28.3562 918.147 L28.3562 912.291 L49.7131 912.291 Q54.7739 912.291 57.3202 910.317 Q59.8346 908.344 59.8346 904.397 Q59.8346 899.655 56.8109 896.917 Q53.7872 894.148 48.5673 894.148 L28.3562 894.148 L28.3562 888.292 L64.0042 888.292 L64.0042 894.148 L58.5296 894.148 Q61.7762 896.281 63.3676 899.114 Q64.9272 901.915 64.9272 905.639 Q64.9272 911.781 61.1078 914.964 Q57.2883 918.147 49.9359 918.147 M27.4968 903.411 L27.4968 903.411 Z" fill="#000000" fill-rule="evenodd" fill-opacity="1"></path><path clip-path="url(#clip290)" d="M18.2347 870.436 L28.3562 870.436 L28.3562 858.373 L32.9077 858.373 L32.9077 870.436 L52.2594 870.436 Q56.6199 870.436 57.8613 869.258 Q59.1026 868.049 59.1026 864.389 L59.1026 858.373 L64.0042 858.373 L64.0042 864.389 Q64.0042 871.168 61.4897 873.746 Q58.9434 876.324 52.2594 876.324 L32.9077 876.324 L32.9077 880.621 L28.3562 880.621 L28.3562 876.324 L18.2347 876.324 L18.2347 870.436 Z" fill="#000000" fill-rule="evenodd" fill-opacity="1"></path><path clip-path="url(#clip290)" d="M46.0847 834.47 Q46.0847 841.568 47.7079 844.305 Q49.3312 847.042 53.2461 847.042 Q56.3653 847.042 58.2114 845.005 Q60.0256 842.936 60.0256 839.403 Q60.0256 834.534 56.5881 831.605 Q53.1188 828.645 47.3897 828.645 L46.0847 828.645 L46.0847 834.47 M43.6657 822.789 L64.0042 822.789 L64.0042 828.645 L58.5933 828.645 Q61.8398 830.65 63.3994 833.642 Q64.9272 836.634 64.9272 840.963 Q64.9272 846.437 61.8716 849.684 Q58.7843 852.899 53.6281 852.899 Q47.6125 852.899 44.5569 848.888 Q41.5014 844.846 41.5014 836.857 L41.5014 828.645 L40.9285 828.645 Q36.8862 828.645 34.6901 831.319 Q32.4621 833.961 32.4621 838.767 Q32.4621 841.822 33.1941 844.719 Q33.9262 847.615 35.3903 850.289 L29.9795 850.289 Q28.7381 847.074 28.1334 844.05 Q27.4968 841.027 27.4968 838.162 Q27.4968 830.428 31.5072 826.608 Q35.5176 822.789 43.6657 822.789 Z" fill="#000000" fill-rule="evenodd" fill-opacity="1"></path><path clip-path="url(#clip290)" d="M18.2347 804.933 L28.3562 804.933 L28.3562 792.87 L32.9077 792.87 L32.9077 804.933 L52.2594 804.933 Q56.6199 804.933 57.8613 803.755 Q59.1026 802.546 59.1026 798.886 L59.1026 792.87 L64.0042 792.87 L64.0042 798.886 Q64.0042 805.665 61.4897 808.243 Q58.9434 810.821 52.2594 810.821 L32.9077 810.821 L32.9077 815.118 L28.3562 815.118 L28.3562 810.821 L18.2347 810.821 L18.2347 804.933 Z" fill="#000000" fill-rule="evenodd" fill-opacity="1"></path><path clip-path="url(#clip290)" d="M28.3562 785.168 L28.3562 779.311 L64.0042 779.311 L64.0042 785.168 L28.3562 785.168 M14.479 785.168 L14.479 779.311 L21.895 779.311 L21.895 785.168 L14.479 785.168 Z" fill="#000000" fill-rule="evenodd" fill-opacity="1"></path><path clip-path="url(#clip290)" d="M32.4621 753.243 Q32.4621 757.954 36.1542 760.691 Q39.8145 763.429 46.212 763.429 Q52.6095 763.429 56.3017 760.723 Q59.9619 757.986 59.9619 753.243 Q59.9619 748.565 56.2698 745.827 Q52.5777 743.09 46.212 743.09 Q39.8781 743.09 36.186 745.827 Q32.4621 748.565 32.4621 753.243 M27.4968 753.243 Q27.4968 745.605 32.4621 741.244 Q37.4273 736.884 46.212 736.884 Q54.9649 736.884 59.9619 741.244 Q64.9272 745.605 64.9272 753.243 Q64.9272 760.914 59.9619 765.275 Q54.9649 769.603 46.212 769.603 Q37.4273 769.603 32.4621 765.275 Q27.4968 760.914 27.4968 753.243 Z" fill="#000000" fill-rule="evenodd" fill-opacity="1"></path><path clip-path="url(#clip290)" d="M42.4881 697.544 L64.0042 697.544 L64.0042 703.4 L42.679 703.4 Q37.6183 703.4 35.1038 705.373 Q32.5894 707.347 32.5894 711.293 Q32.5894 716.036 35.6131 718.773 Q38.6368 721.51 43.8567 721.51 L64.0042 721.51 L64.0042 727.399 L28.3562 727.399 L28.3562 721.51 L33.8944 721.51 Q30.6797 719.41 29.0883 716.577 Q27.4968 713.712 27.4968 709.989 Q27.4968 703.846 31.3163 700.695 Q35.1038 697.544 42.4881 697.544 Z" fill="#000000" fill-rule="evenodd" fill-opacity="1"></path><path clip-path="url(#clip290)" d="M18.2347 659.349 L28.3562 659.349 L28.3562 647.286 L32.9077 647.286 L32.9077 659.349 L52.2594 659.349 Q56.6199 659.349 57.8613 658.172 Q59.1026 656.962 59.1026 653.302 L59.1026 647.286 L64.0042 647.286 L64.0042 653.302 Q64.0042 660.081 61.4897 662.659 Q58.9434 665.238 52.2594 665.238 L32.9077 665.238 L32.9077 669.534 L28.3562 669.534 L28.3562 665.238 L18.2347 665.238 L18.2347 659.349 Z" fill="#000000" fill-rule="evenodd" fill-opacity="1"></path><path clip-path="url(#clip290)" d="M28.3562 639.584 L28.3562 633.727 L64.0042 633.727 L64.0042 639.584 L28.3562 639.584 M14.479 639.584 L14.479 633.727 L21.895 633.727 L21.895 639.584 L14.479 639.584 Z" fill="#000000" fill-rule="evenodd" fill-opacity="1"></path><path clip-path="url(#clip290)" d="M35.1993 593.719 Q31.2526 591.523 29.3747 588.467 Q27.4968 585.412 27.4968 581.274 Q27.4968 575.704 31.4117 572.68 Q35.2948 569.657 42.4881 569.657 L64.0042 569.657 L64.0042 575.545 L42.679 575.545 Q37.5546 575.545 35.072 577.359 Q32.5894 579.173 32.5894 582.897 Q32.5894 587.449 35.6131 590.09 Q38.6368 592.732 43.8567 592.732 L64.0042 592.732 L64.0042 598.62 L42.679 598.62 Q37.5228 598.62 35.072 600.435 Q32.5894 602.249 32.5894 606.037 Q32.5894 610.524 35.6449 613.166 Q38.6686 615.808 43.8567 615.808 L64.0042 615.808 L64.0042 621.696 L28.3562 621.696 L28.3562 615.808 L33.8944 615.808 Q30.616 613.803 29.0564 611.002 Q27.4968 608.201 27.4968 604.35 Q27.4968 600.467 29.4702 597.761 Q31.4436 595.024 35.1993 593.719 Z" fill="#000000" fill-rule="evenodd" fill-opacity="1"></path><path clip-path="url(#clip290)" d="M44.7161 527.484 L47.5806 527.484 L47.5806 554.411 Q53.6281 554.029 56.8109 550.782 Q59.9619 547.504 59.9619 541.679 Q59.9619 538.305 59.1344 535.154 Q58.3069 531.972 56.6518 528.852 L62.1899 528.852 Q63.5267 532.003 64.227 535.314 Q64.9272 538.624 64.9272 542.029 Q64.9272 550.559 59.9619 555.556 Q54.9967 560.522 46.5303 560.522 Q37.7774 560.522 32.6531 555.811 Q27.4968 551.069 27.4968 543.048 Q27.4968 535.855 32.1438 531.685 Q36.7589 527.484 44.7161 527.484 M42.9973 533.34 Q38.1912 533.404 35.3266 536.046 Q32.4621 538.656 32.4621 542.984 Q32.4621 547.886 35.2312 550.846 Q38.0002 553.774 43.0292 554.22 L42.9973 533.34 Z" fill="#000000" fill-rule="evenodd" fill-opacity="1"></path><path clip-path="url(#clip290)" d="M14.5426 483.083 Q21.8632 487.348 29.0246 489.417 Q36.186 491.486 43.5384 491.486 Q50.8908 491.486 58.1159 489.417 Q65.3091 487.316 72.5979 483.083 L72.5979 488.175 Q65.1182 492.95 57.8931 495.337 Q50.668 497.692 43.5384 497.692 Q36.4406 497.692 29.2474 495.337 Q22.0542 492.982 14.5426 488.175 L14.5426 483.083 Z" fill="#000000" fill-rule="evenodd" fill-opacity="1"></path><path clip-path="url(#clip290)" d="M29.4065 448.995 L34.9447 448.995 Q33.6716 451.477 33.035 454.151 Q32.3984 456.824 32.3984 459.689 Q32.3984 464.049 33.7352 466.246 Q35.072 468.41 37.7456 468.41 Q39.7826 468.41 40.9603 466.85 Q42.1061 465.291 43.1565 460.58 L43.6021 458.575 Q44.9389 452.337 47.3897 449.727 Q49.8086 447.085 54.1691 447.085 Q59.1344 447.085 62.0308 451.032 Q64.9272 454.946 64.9272 461.821 Q64.9272 464.686 64.3543 467.805 Q63.8132 470.893 62.6992 474.33 L56.6518 474.33 Q58.3387 471.084 59.198 467.933 Q60.0256 464.781 60.0256 461.694 Q60.0256 457.556 58.6251 455.328 Q57.1929 453.1 54.6147 453.1 Q52.2276 453.1 50.9545 454.724 Q49.6813 456.315 48.5037 461.758 L48.0262 463.795 Q46.8804 469.237 44.5251 471.656 Q42.138 474.075 38.0002 474.075 Q32.9713 474.075 30.2341 470.511 Q27.4968 466.946 27.4968 460.389 Q27.4968 457.143 27.9743 454.278 Q28.4517 451.414 29.4065 448.995 Z" fill="#000000" fill-rule="evenodd" fill-opacity="1"></path><path clip-path="url(#clip290)" d="M14.5426 438.682 L14.5426 433.59 Q22.0542 428.815 29.2474 426.46 Q36.4406 424.073 43.5384 424.073 Q50.668 424.073 57.8931 426.46 Q65.1182 428.815 72.5979 433.59 L72.5979 438.682 Q65.3091 434.449 58.1159 432.38 Q50.8908 430.279 43.5384 430.279 Q36.186 430.279 29.0246 432.38 Q21.8632 434.449 14.5426 438.682 Z" fill="#000000" fill-rule="evenodd" fill-opacity="1"></path><path clip-path="url(#clip290)" d="M705.9 12.096 L714.083 12.096 L714.083 65.6895 L743.533 65.6895 L743.533 72.576 L705.9 72.576 L705.9 12.096 Z" fill="#000000" fill-rule="evenodd" fill-opacity="1"></path><path clip-path="url(#clip290)" d="M747.057 12.096 L755.28 12.096 L755.28 48.8377 Q755.28 58.5599 758.805 62.8538 Q762.329 67.1073 770.228 67.1073 Q778.087 67.1073 781.611 62.8538 Q785.135 58.5599 785.135 48.8377 L785.135 12.096 L793.359 12.096 L793.359 49.8504 Q793.359 61.6791 787.485 67.7149 Q781.652 73.7508 770.228 73.7508 Q758.764 73.7508 752.89 67.7149 Q747.057 61.6791 747.057 49.8504 L747.057 12.096 Z" fill="#000000" fill-rule="evenodd" fill-opacity="1"></path><path clip-path="url(#clip290)" d="M857.728 9.54393 L857.728 15.7418 L850.598 15.7418 Q846.588 15.7418 845.008 17.3622 Q843.468 18.9825 843.468 23.1955 L843.468 27.2059 L855.743 27.2059 L855.743 32.9987 L843.468 32.9987 L843.468 72.576 L835.974 72.576 L835.974 32.9987 L828.845 32.9987 L828.845 27.2059 L835.974 27.2059 L835.974 24.0462 Q835.974 16.471 839.499 13.0277 Q843.023 9.54393 850.679 9.54393 L857.728 9.54393 Z" fill="#000000" fill-rule="evenodd" fill-opacity="1"></path><path clip-path="url(#clip290)" d="M884.585 49.7694 Q875.552 49.7694 872.068 51.8354 Q868.584 53.9013 868.584 58.8839 Q868.584 62.8538 871.177 65.2034 Q873.81 67.5124 878.306 67.5124 Q884.504 67.5124 888.231 63.1374 Q891.998 58.7219 891.998 51.4303 L891.998 49.7694 L884.585 49.7694 M899.452 46.6907 L899.452 72.576 L891.998 72.576 L891.998 65.6895 Q889.446 69.8214 885.638 71.8063 Q881.83 73.7508 876.321 73.7508 Q869.354 73.7508 865.222 69.8619 Q861.13 65.9325 861.13 59.3701 Q861.13 51.7138 866.234 47.825 Q871.379 43.9361 881.547 43.9361 L891.998 43.9361 L891.998 43.2069 Q891.998 38.0623 888.595 35.2672 Q885.233 32.4315 879.116 32.4315 Q875.227 32.4315 871.541 33.3632 Q867.855 34.295 864.452 36.1584 L864.452 29.2718 Q868.544 27.692 872.392 26.9223 Q876.24 26.1121 879.886 26.1121 Q889.73 26.1121 894.591 31.2163 Q899.452 36.3204 899.452 46.6907 Z" fill="#000000" fill-rule="evenodd" fill-opacity="1"></path><path clip-path="url(#clip290)" d="M947.455 28.9478 L947.455 35.9153 Q944.295 34.1734 941.095 33.3227 Q937.935 32.4315 934.695 32.4315 Q927.444 32.4315 923.433 37.0496 Q919.423 41.6271 919.423 49.9314 Q919.423 58.2358 923.433 62.8538 Q927.444 67.4314 934.695 67.4314 Q937.935 67.4314 941.095 66.5807 Q944.295 65.6895 947.455 63.9476 L947.455 70.8341 Q944.336 72.2924 940.974 73.0216 Q937.652 73.7508 933.885 73.7508 Q923.636 73.7508 917.6 67.3098 Q911.564 60.8689 911.564 49.9314 Q911.564 38.832 917.64 32.472 Q923.757 26.1121 934.371 26.1121 Q937.814 26.1121 941.095 26.8413 Q944.376 27.5299 947.455 28.9478 Z" fill="#000000" fill-rule="evenodd" fill-opacity="1"></path><path clip-path="url(#clip290)" d="M967.791 14.324 L967.791 27.2059 L983.144 27.2059 L983.144 32.9987 L967.791 32.9987 L967.791 57.6282 Q967.791 63.1779 969.289 64.7578 Q970.829 66.3376 975.487 66.3376 L983.144 66.3376 L983.144 72.576 L975.487 72.576 Q966.859 72.576 963.578 69.3758 Q960.296 66.1351 960.296 57.6282 L960.296 32.9987 L954.828 32.9987 L954.828 27.2059 L960.296 27.2059 L960.296 14.324 L967.791 14.324 Z" fill="#000000" fill-rule="evenodd" fill-opacity="1"></path><path clip-path="url(#clip290)" d="M1010.53 32.4315 Q1004.53 32.4315 1001.05 37.1306 Q997.565 41.7891 997.565 49.9314 Q997.565 58.0738 1001.01 62.7728 Q1004.49 67.4314 1010.53 67.4314 Q1016.48 67.4314 1019.97 62.7323 Q1023.45 58.0333 1023.45 49.9314 Q1023.45 41.8701 1019.97 37.1711 Q1016.48 32.4315 1010.53 32.4315 M1010.53 26.1121 Q1020.25 26.1121 1025.8 32.4315 Q1031.35 38.7509 1031.35 49.9314 Q1031.35 61.0714 1025.8 67.4314 Q1020.25 73.7508 1010.53 73.7508 Q1000.77 73.7508 995.215 67.4314 Q989.706 61.0714 989.706 49.9314 Q989.706 38.7509 995.215 32.4315 Q1000.77 26.1121 1010.53 26.1121 Z" fill="#000000" fill-rule="evenodd" fill-opacity="1"></path><path clip-path="url(#clip290)" d="M1069.99 34.1734 Q1068.74 33.4443 1067.24 33.1202 Q1065.78 32.7556 1064 32.7556 Q1057.68 32.7556 1054.28 36.8875 Q1050.92 40.9789 1050.92 48.6757 L1050.92 72.576 L1043.42 72.576 L1043.42 27.2059 L1050.92 27.2059 L1050.92 34.2544 Q1053.26 30.1225 1057.03 28.1376 Q1060.8 26.1121 1066.19 26.1121 Q1066.96 26.1121 1067.89 26.2337 Q1068.82 26.3147 1069.95 26.5172 L1069.99 34.1734 Z" fill="#000000" fill-rule="evenodd" fill-opacity="1"></path><path clip-path="url(#clip290)" d="M1077.81 27.2059 L1085.27 27.2059 L1085.27 72.576 L1077.81 72.576 L1077.81 27.2059 M1077.81 9.54393 L1085.27 9.54393 L1085.27 18.9825 L1077.81 18.9825 L1077.81 9.54393 Z" fill="#000000" fill-rule="evenodd" fill-opacity="1"></path><path clip-path="url(#clip290)" d="M1097.62 27.2059 L1133.03 27.2059 L1133.03 34.0114 L1104.99 66.6212 L1133.03 66.6212 L1133.03 72.576 L1096.61 72.576 L1096.61 65.7705 L1124.64 33.1607 L1097.62 33.1607 L1097.62 27.2059 Z" fill="#000000" fill-rule="evenodd" fill-opacity="1"></path><path clip-path="url(#clip290)" d="M1165.03 49.7694 Q1156 49.7694 1152.51 51.8354 Q1149.03 53.9013 1149.03 58.8839 Q1149.03 62.8538 1151.62 65.2034 Q1154.25 67.5124 1158.75 67.5124 Q1164.95 67.5124 1168.67 63.1374 Q1172.44 58.7219 1172.44 51.4303 L1172.44 49.7694 L1165.03 49.7694 M1179.9 46.6907 L1179.9 72.576 L1172.44 72.576 L1172.44 65.6895 Q1169.89 69.8214 1166.08 71.8063 Q1162.27 73.7508 1156.77 73.7508 Q1149.8 73.7508 1145.67 69.8619 Q1141.57 65.9325 1141.57 59.3701 Q1141.57 51.7138 1146.68 47.825 Q1151.82 43.9361 1161.99 43.9361 L1172.44 43.9361 L1172.44 43.2069 Q1172.44 38.0623 1169.04 35.2672 Q1165.68 32.4315 1159.56 32.4315 Q1155.67 32.4315 1151.99 33.3632 Q1148.3 34.295 1144.9 36.1584 L1144.9 29.2718 Q1148.99 27.692 1152.84 26.9223 Q1156.68 26.1121 1160.33 26.1121 Q1170.17 26.1121 1175.03 31.2163 Q1179.9 36.3204 1179.9 46.6907 Z" fill="#000000" fill-rule="evenodd" fill-opacity="1"></path><path clip-path="url(#clip290)" d="M1202.62 14.324 L1202.62 27.2059 L1217.97 27.2059 L1217.97 32.9987 L1202.62 32.9987 L1202.62 57.6282 Q1202.62 63.1779 1204.12 64.7578 Q1205.66 66.3376 1210.32 66.3376 L1217.97 66.3376 L1217.97 72.576 L1210.32 72.576 Q1201.69 72.576 1198.41 69.3758 Q1195.13 66.1351 1195.13 57.6282 L1195.13 32.9987 L1189.66 32.9987 L1189.66 27.2059 L1195.13 27.2059 L1195.13 14.324 L1202.62 14.324 Z" fill="#000000" fill-rule="evenodd" fill-opacity="1"></path><path clip-path="url(#clip290)" d="M1227.78 27.2059 L1235.23 27.2059 L1235.23 72.576 L1227.78 72.576 L1227.78 27.2059 M1227.78 9.54393 L1235.23 9.54393 L1235.23 18.9825 L1227.78 18.9825 L1227.78 9.54393 Z" fill="#000000" fill-rule="evenodd" fill-opacity="1"></path><path clip-path="url(#clip290)" d="M1268.41 32.4315 Q1262.41 32.4315 1258.93 37.1306 Q1255.45 41.7891 1255.45 49.9314 Q1255.45 58.0738 1258.89 62.7728 Q1262.37 67.4314 1268.41 67.4314 Q1274.36 67.4314 1277.85 62.7323 Q1281.33 58.0333 1281.33 49.9314 Q1281.33 41.8701 1277.85 37.1711 Q1274.36 32.4315 1268.41 32.4315 M1268.41 26.1121 Q1278.13 26.1121 1283.68 32.4315 Q1289.23 38.7509 1289.23 49.9314 Q1289.23 61.0714 1283.68 67.4314 Q1278.13 73.7508 1268.41 73.7508 Q1258.65 73.7508 1253.1 67.4314 Q1247.59 61.0714 1247.59 49.9314 Q1247.59 38.7509 1253.1 32.4315 Q1258.65 26.1121 1268.41 26.1121 Z" fill="#000000" fill-rule="evenodd" fill-opacity="1"></path><path clip-path="url(#clip290)" d="M1339.3 45.1919 L1339.3 72.576 L1331.85 72.576 L1331.85 45.4349 Q1331.85 38.994 1329.33 35.7938 Q1326.82 32.5936 1321.8 32.5936 Q1315.76 32.5936 1312.28 36.4419 Q1308.8 40.2903 1308.8 46.9338 L1308.8 72.576 L1301.3 72.576 L1301.3 27.2059 L1308.8 27.2059 L1308.8 34.2544 Q1311.47 30.163 1315.07 28.1376 Q1318.72 26.1121 1323.46 26.1121 Q1331.28 26.1121 1335.29 30.9732 Q1339.3 35.7938 1339.3 45.1919 Z" fill="#000000" fill-rule="evenodd" fill-opacity="1"></path><path clip-path="url(#clip290)" d="M1387.75 65.7705 L1387.75 89.8329 L1380.25 89.8329 L1380.25 27.2059 L1387.75 27.2059 L1387.75 34.0924 Q1390.1 30.0415 1393.66 28.0971 Q1397.27 26.1121 1402.25 26.1121 Q1410.51 26.1121 1415.66 32.6746 Q1420.84 39.2371 1420.84 49.9314 Q1420.84 60.6258 1415.66 67.1883 Q1410.51 73.7508 1402.25 73.7508 Q1397.27 73.7508 1393.66 71.8063 Q1390.1 69.8214 1387.75 65.7705 M1413.11 49.9314 Q1413.11 41.7081 1409.7 37.0496 Q1406.34 32.3505 1400.43 32.3505 Q1394.51 32.3505 1391.11 37.0496 Q1387.75 41.7081 1387.75 49.9314 Q1387.75 58.1548 1391.11 62.8538 Q1394.51 67.5124 1400.43 67.5124 Q1406.34 67.5124 1409.7 62.8538 Q1413.11 58.1548 1413.11 49.9314 Z" fill="#000000" fill-rule="evenodd" fill-opacity="1"></path><path clip-path="url(#clip290)" d="M1472.01 48.0275 L1472.01 51.6733 L1437.74 51.6733 Q1438.22 59.3701 1442.35 63.421 Q1446.53 67.4314 1453.94 67.4314 Q1458.23 67.4314 1462.24 66.3781 Q1466.29 65.3249 1470.26 63.2184 L1470.26 70.267 Q1466.25 71.9684 1462.04 72.8596 Q1457.83 73.7508 1453.49 73.7508 Q1442.64 73.7508 1436.28 67.4314 Q1429.96 61.1119 1429.96 50.3365 Q1429.96 39.1965 1435.95 32.6746 Q1441.99 26.1121 1452.2 26.1121 Q1461.35 26.1121 1466.66 32.0264 Q1472.01 37.9003 1472.01 48.0275 M1464.55 45.84 Q1464.47 39.7232 1461.11 36.0774 Q1457.79 32.4315 1452.28 32.4315 Q1446.04 32.4315 1442.27 35.9558 Q1438.55 39.4801 1437.98 45.8805 L1464.55 45.84 Z" fill="#000000" fill-rule="evenodd" fill-opacity="1"></path><path clip-path="url(#clip290)" d="M1510.53 34.1734 Q1509.28 33.4443 1507.78 33.1202 Q1506.32 32.7556 1504.54 32.7556 Q1498.22 32.7556 1494.81 36.8875 Q1491.45 40.9789 1491.45 48.6757 L1491.45 72.576 L1483.96 72.576 L1483.96 27.2059 L1491.45 27.2059 L1491.45 34.2544 Q1493.8 30.1225 1497.57 28.1376 Q1501.34 26.1121 1506.72 26.1121 Q1507.49 26.1121 1508.42 26.2337 Q1509.36 26.3147 1510.49 26.5172 L1510.53 34.1734 Z" fill="#000000" fill-rule="evenodd" fill-opacity="1"></path><path clip-path="url(#clip290)" d="M1541.32 9.54393 L1541.32 15.7418 L1534.19 15.7418 Q1530.18 15.7418 1528.6 17.3622 Q1527.06 18.9825 1527.06 23.1955 L1527.06 27.2059 L1539.33 27.2059 L1539.33 32.9987 L1527.06 32.9987 L1527.06 72.576 L1519.56 72.576 L1519.56 32.9987 L1512.43 32.9987 L1512.43 27.2059 L1519.56 27.2059 L1519.56 24.0462 Q1519.56 16.471 1523.09 13.0277 Q1526.61 9.54393 1534.27 9.54393 L1541.32 9.54393 Z" fill="#000000" fill-rule="evenodd" fill-opacity="1"></path><path clip-path="url(#clip290)" d="M1565.14 32.4315 Q1559.14 32.4315 1555.66 37.1306 Q1552.17 41.7891 1552.17 49.9314 Q1552.17 58.0738 1555.62 62.7728 Q1559.1 67.4314 1565.14 67.4314 Q1571.09 67.4314 1574.58 62.7323 Q1578.06 58.0333 1578.06 49.9314 Q1578.06 41.8701 1574.58 37.1711 Q1571.09 32.4315 1565.14 32.4315 M1565.14 26.1121 Q1574.86 26.1121 1580.41 32.4315 Q1585.96 38.7509 1585.96 49.9314 Q1585.96 61.0714 1580.41 67.4314 Q1574.86 73.7508 1565.14 73.7508 Q1555.37 73.7508 1549.82 67.4314 Q1544.32 61.0714 1544.32 49.9314 Q1544.32 38.7509 1549.82 32.4315 Q1555.37 26.1121 1565.14 26.1121 Z" fill="#000000" fill-rule="evenodd" fill-opacity="1"></path><path clip-path="url(#clip290)" d="M1624.6 34.1734 Q1623.35 33.4443 1621.85 33.1202 Q1620.39 32.7556 1618.61 32.7556 Q1612.29 32.7556 1608.89 36.8875 Q1605.52 40.9789 1605.52 48.6757 L1605.52 72.576 L1598.03 72.576 L1598.03 27.2059 L1605.52 27.2059 L1605.52 34.2544 Q1607.87 30.1225 1611.64 28.1376 Q1615.41 26.1121 1620.8 26.1121 Q1621.57 26.1121 1622.5 26.2337 Q1623.43 26.3147 1624.56 26.5172 L1624.6 34.1734 Z" fill="#000000" fill-rule="evenodd" fill-opacity="1"></path><path clip-path="url(#clip290)" d="M1666.29 35.9153 Q1669.08 30.8922 1672.97 28.5022 Q1676.86 26.1121 1682.13 26.1121 Q1689.22 26.1121 1693.06 31.0947 Q1696.91 36.0368 1696.91 45.1919 L1696.91 72.576 L1689.42 72.576 L1689.42 45.4349 Q1689.42 38.913 1687.11 35.7533 Q1684.8 32.5936 1680.06 32.5936 Q1674.27 32.5936 1670.91 36.4419 Q1667.54 40.2903 1667.54 46.9338 L1667.54 72.576 L1660.05 72.576 L1660.05 45.4349 Q1660.05 38.8725 1657.74 35.7533 Q1655.43 32.5936 1650.61 32.5936 Q1644.9 32.5936 1641.54 36.4824 Q1638.17 40.3308 1638.17 46.9338 L1638.17 72.576 L1630.68 72.576 L1630.68 27.2059 L1638.17 27.2059 L1638.17 34.2544 Q1640.73 30.082 1644.29 28.0971 Q1647.86 26.1121 1652.76 26.1121 Q1657.7 26.1121 1661.14 28.6237 Q1664.63 31.1352 1666.29 35.9153 Z" fill="#000000" fill-rule="evenodd" fill-opacity="1"></path><path clip-path="url(#clip290)" d="M1732.4 49.7694 Q1723.37 49.7694 1719.88 51.8354 Q1716.4 53.9013 1716.4 58.8839 Q1716.4 62.8538 1718.99 65.2034 Q1721.62 67.5124 1726.12 67.5124 Q1732.32 67.5124 1736.04 63.1374 Q1739.81 58.7219 1739.81 51.4303 L1739.81 49.7694 L1732.4 49.7694 M1747.27 46.6907 L1747.27 72.576 L1739.81 72.576 L1739.81 65.6895 Q1737.26 69.8214 1733.45 71.8063 Q1729.64 73.7508 1724.13 73.7508 Q1717.17 73.7508 1713.04 69.8619 Q1708.94 65.9325 1708.94 59.3701 Q1708.94 51.7138 1714.05 47.825 Q1719.19 43.9361 1729.36 43.9361 L1739.81 43.9361 L1739.81 43.2069 Q1739.81 38.0623 1736.41 35.2672 Q1733.05 32.4315 1726.93 32.4315 Q1723.04 32.4315 1719.35 33.3632 Q1715.67 34.295 1712.27 36.1584 L1712.27 29.2718 Q1716.36 27.692 1720.21 26.9223 Q1724.05 26.1121 1727.7 26.1121 Q1737.54 26.1121 1742.4 31.2163 Q1747.27 36.3204 1747.27 46.6907 Z" fill="#000000" fill-rule="evenodd" fill-opacity="1"></path><path clip-path="url(#clip290)" d="M1800.33 45.1919 L1800.33 72.576 L1792.88 72.576 L1792.88 45.4349 Q1792.88 38.994 1790.37 35.7938 Q1787.86 32.5936 1782.83 32.5936 Q1776.8 32.5936 1773.31 36.4419 Q1769.83 40.2903 1769.83 46.9338 L1769.83 72.576 L1762.34 72.576 L1762.34 27.2059 L1769.83 27.2059 L1769.83 34.2544 Q1772.5 30.163 1776.11 28.1376 Q1779.75 26.1121 1784.49 26.1121 Q1792.31 26.1121 1796.32 30.9732 Q1800.33 35.7938 1800.33 45.1919 Z" fill="#000000" fill-rule="evenodd" fill-opacity="1"></path><path clip-path="url(#clip290)" d="M1847.85 28.9478 L1847.85 35.9153 Q1844.69 34.1734 1841.49 33.3227 Q1838.33 32.4315 1835.09 32.4315 Q1827.84 32.4315 1823.83 37.0496 Q1819.82 41.6271 1819.82 49.9314 Q1819.82 58.2358 1823.83 62.8538 Q1827.84 67.4314 1835.09 67.4314 Q1838.33 67.4314 1841.49 66.5807 Q1844.69 65.6895 1847.85 63.9476 L1847.85 70.8341 Q1844.73 72.2924 1841.37 73.0216 Q1838.05 73.7508 1834.28 73.7508 Q1824.03 73.7508 1817.99 67.3098 Q1811.96 60.8689 1811.96 49.9314 Q1811.96 38.832 1818.03 32.472 Q1824.15 26.1121 1834.77 26.1121 Q1838.21 26.1121 1841.49 26.8413 Q1844.77 27.5299 1847.85 28.9478 Z" fill="#000000" fill-rule="evenodd" fill-opacity="1"></path><path clip-path="url(#clip290)" d="M1899.62 48.0275 L1899.62 51.6733 L1865.35 51.6733 Q1865.84 59.3701 1869.97 63.421 Q1874.14 67.4314 1881.55 67.4314 Q1885.85 67.4314 1889.86 66.3781 Q1893.91 65.3249 1897.88 63.2184 L1897.88 70.267 Q1893.87 71.9684 1889.65 72.8596 Q1885.44 73.7508 1881.11 73.7508 Q1870.25 73.7508 1863.89 67.4314 Q1857.57 61.1119 1857.57 50.3365 Q1857.57 39.1965 1863.57 32.6746 Q1869.6 26.1121 1879.81 26.1121 Q1888.97 26.1121 1894.27 32.0264 Q1899.62 37.9003 1899.62 48.0275 M1892.17 45.84 Q1892.09 39.7232 1888.72 36.0774 Q1885.4 32.4315 1879.89 32.4315 Q1873.65 32.4315 1869.89 35.9558 Q1866.16 39.4801 1865.59 45.8805 L1892.17 45.84 Z" fill="#000000" fill-rule="evenodd" fill-opacity="1"></path><polyline clip-path="url(#clip292)" style="stroke:#009af9; stroke-linecap:round; stroke-linejoin:round; stroke-width:4; stroke-opacity:1; fill:none" points="
  312.198,1142.7 467.725,1165.42 628.383,1132.82 770.932,1116.73 926.459,1090.03 1074.14,1062.07 1227.59,983.92 1379.98,999.948 1532.05,827.414 1683.71,900.919 
  1836.08,659.961 1988.49,813.324 2140.87,657.548 2293.32,729.254 
  "></polyline>
<circle clip-path="url(#clip292)" cx="312.198" cy="1142.7" r="14.4" fill="#009af9" fill-rule="evenodd" fill-opacity="1" stroke="#000000" stroke-opacity="1" stroke-width="3.2"></circle>
<circle clip-path="url(#clip292)" cx="467.725" cy="1165.42" r="14.4" fill="#009af9" fill-rule="evenodd" fill-opacity="1" stroke="#000000" stroke-opacity="1" stroke-width="3.2"></circle>
<circle clip-path="url(#clip292)" cx="628.383" cy="1132.82" r="14.4" fill="#009af9" fill-rule="evenodd" fill-opacity="1" stroke="#000000" stroke-opacity="1" stroke-width="3.2"></circle>
<circle clip-path="url(#clip292)" cx="770.932" cy="1116.73" r="14.4" fill="#009af9" fill-rule="evenodd" fill-opacity="1" stroke="#000000" stroke-opacity="1" stroke-width="3.2"></circle>
<circle clip-path="url(#clip292)" cx="926.459" cy="1090.03" r="14.4" fill="#009af9" fill-rule="evenodd" fill-opacity="1" stroke="#000000" stroke-opacity="1" stroke-width="3.2"></circle>
<circle clip-path="url(#clip292)" cx="1074.14" cy="1062.07" r="14.4" fill="#009af9" fill-rule="evenodd" fill-opacity="1" stroke="#000000" stroke-opacity="1" stroke-width="3.2"></circle>
<circle clip-path="url(#clip292)" cx="1227.59" cy="983.92" r="14.4" fill="#009af9" fill-rule="evenodd" fill-opacity="1" stroke="#000000" stroke-opacity="1" stroke-width="3.2"></circle>
<circle clip-path="url(#clip292)" cx="1379.98" cy="999.948" r="14.4" fill="#009af9" fill-rule="evenodd" fill-opacity="1" stroke="#000000" stroke-opacity="1" stroke-width="3.2"></circle>
<circle clip-path="url(#clip292)" cx="1532.05" cy="827.414" r="14.4" fill="#009af9" fill-rule="evenodd" fill-opacity="1" stroke="#000000" stroke-opacity="1" stroke-width="3.2"></circle>
<circle clip-path="url(#clip292)" cx="1683.71" cy="900.919" r="14.4" fill="#009af9" fill-rule="evenodd" fill-opacity="1" stroke="#000000" stroke-opacity="1" stroke-width="3.2"></circle>
<circle clip-path="url(#clip292)" cx="1836.08" cy="659.961" r="14.4" fill="#009af9" fill-rule="evenodd" fill-opacity="1" stroke="#000000" stroke-opacity="1" stroke-width="3.2"></circle>
<circle clip-path="url(#clip292)" cx="1988.49" cy="813.324" r="14.4" fill="#009af9" fill-rule="evenodd" fill-opacity="1" stroke="#000000" stroke-opacity="1" stroke-width="3.2"></circle>
<circle clip-path="url(#clip292)" cx="2140.87" cy="657.548" r="14.4" fill="#009af9" fill-rule="evenodd" fill-opacity="1" stroke="#000000" stroke-opacity="1" stroke-width="3.2"></circle>
<circle clip-path="url(#clip292)" cx="2293.32" cy="729.254" r="14.4" fill="#009af9" fill-rule="evenodd" fill-opacity="1" stroke="#000000" stroke-opacity="1" stroke-width="3.2"></circle>
<polyline clip-path="url(#clip292)" style="stroke:#009af9; stroke-linecap:round; stroke-linejoin:round; stroke-width:4; stroke-opacity:1; fill:none" points="
  312.198,1167.81 467.725,1159.44 628.383,889.8 770.932,1127.12 926.459,1102.01 1074.14,1062.43 1227.59,968.139 1379.98,877.224 1532.05,714.4 1683.71,763.724 
  1836.08,813.287 1988.49,837.851 2140.87,786.185 2293.32,728.854 
  "></polyline>
<circle clip-path="url(#clip292)" cx="312.198" cy="1167.81" r="14.4" fill="#009af9" fill-rule="evenodd" fill-opacity="1" stroke="#000000" stroke-opacity="1" stroke-width="3.2"></circle>
<circle clip-path="url(#clip292)" cx="467.725" cy="1159.44" r="14.4" fill="#009af9" fill-rule="evenodd" fill-opacity="1" stroke="#000000" stroke-opacity="1" stroke-width="3.2"></circle>
<circle clip-path="url(#clip292)" cx="628.383" cy="889.8" r="14.4" fill="#009af9" fill-rule="evenodd" fill-opacity="1" stroke="#000000" stroke-opacity="1" stroke-width="3.2"></circle>
<circle clip-path="url(#clip292)" cx="770.932" cy="1127.12" r="14.4" fill="#009af9" fill-rule="evenodd" fill-opacity="1" stroke="#000000" stroke-opacity="1" stroke-width="3.2"></circle>
<circle clip-path="url(#clip292)" cx="926.459" cy="1102.01" r="14.4" fill="#009af9" fill-rule="evenodd" fill-opacity="1" stroke="#000000" stroke-opacity="1" stroke-width="3.2"></circle>
<circle clip-path="url(#clip292)" cx="1074.14" cy="1062.43" r="14.4" fill="#009af9" fill-rule="evenodd" fill-opacity="1" stroke="#000000" stroke-opacity="1" stroke-width="3.2"></circle>
<circle clip-path="url(#clip292)" cx="1227.59" cy="968.139" r="14.4" fill="#009af9" fill-rule="evenodd" fill-opacity="1" stroke="#000000" stroke-opacity="1" stroke-width="3.2"></circle>
<circle clip-path="url(#clip292)" cx="1379.98" cy="877.224" r="14.4" fill="#009af9" fill-rule="evenodd" fill-opacity="1" stroke="#000000" stroke-opacity="1" stroke-width="3.2"></circle>
<circle clip-path="url(#clip292)" cx="1532.05" cy="714.4" r="14.4" fill="#009af9" fill-rule="evenodd" fill-opacity="1" stroke="#000000" stroke-opacity="1" stroke-width="3.2"></circle>
<circle clip-path="url(#clip292)" cx="1683.71" cy="763.724" r="14.4" fill="#009af9" fill-rule="evenodd" fill-opacity="1" stroke="#000000" stroke-opacity="1" stroke-width="3.2"></circle>
<circle clip-path="url(#clip292)" cx="1836.08" cy="813.287" r="14.4" fill="#009af9" fill-rule="evenodd" fill-opacity="1" stroke="#000000" stroke-opacity="1" stroke-width="3.2"></circle>
<circle clip-path="url(#clip292)" cx="1988.49" cy="837.851" r="14.4" fill="#009af9" fill-rule="evenodd" fill-opacity="1" stroke="#000000" stroke-opacity="1" stroke-width="3.2"></circle>
<circle clip-path="url(#clip292)" cx="2140.87" cy="786.185" r="14.4" fill="#009af9" fill-rule="evenodd" fill-opacity="1" stroke="#000000" stroke-opacity="1" stroke-width="3.2"></circle>
<circle clip-path="url(#clip292)" cx="2293.32" cy="728.854" r="14.4" fill="#009af9" fill-rule="evenodd" fill-opacity="1" stroke="#000000" stroke-opacity="1" stroke-width="3.2"></circle>
<polyline clip-path="url(#clip292)" style="stroke:#009af9; stroke-linecap:round; stroke-linejoin:round; stroke-width:4; stroke-opacity:1; fill:none" points="
  312.198,1180.86 467.725,1163.09 628.383,868.465 770.932,1121.59 926.459,1095.55 1074.14,1055.88 1227.59,863.109 1379.98,996.685 1532.05,847.702 1683.71,916.515 
  1836.08,741.045 1988.49,390.658 2140.87,457.532 2293.32,745.32 
  "></polyline>
<circle clip-path="url(#clip292)" cx="312.198" cy="1180.86" r="14.4" fill="#009af9" fill-rule="evenodd" fill-opacity="1" stroke="#000000" stroke-opacity="1" stroke-width="3.2"></circle>
<circle clip-path="url(#clip292)" cx="467.725" cy="1163.09" r="14.4" fill="#009af9" fill-rule="evenodd" fill-opacity="1" stroke="#000000" stroke-opacity="1" stroke-width="3.2"></circle>
<circle clip-path="url(#clip292)" cx="628.383" cy="868.465" r="14.4" fill="#009af9" fill-rule="evenodd" fill-opacity="1" stroke="#000000" stroke-opacity="1" stroke-width="3.2"></circle>
<circle clip-path="url(#clip292)" cx="770.932" cy="1121.59" r="14.4" fill="#009af9" fill-rule="evenodd" fill-opacity="1" stroke="#000000" stroke-opacity="1" stroke-width="3.2"></circle>
<circle clip-path="url(#clip292)" cx="926.459" cy="1095.55" r="14.4" fill="#009af9" fill-rule="evenodd" fill-opacity="1" stroke="#000000" stroke-opacity="1" stroke-width="3.2"></circle>
<circle clip-path="url(#clip292)" cx="1074.14" cy="1055.88" r="14.4" fill="#009af9" fill-rule="evenodd" fill-opacity="1" stroke="#000000" stroke-opacity="1" stroke-width="3.2"></circle>
<circle clip-path="url(#clip292)" cx="1227.59" cy="863.109" r="14.4" fill="#009af9" fill-rule="evenodd" fill-opacity="1" stroke="#000000" stroke-opacity="1" stroke-width="3.2"></circle>
<circle clip-path="url(#clip292)" cx="1379.98" cy="996.685" r="14.4" fill="#009af9" fill-rule="evenodd" fill-opacity="1" stroke="#000000" stroke-opacity="1" stroke-width="3.2"></circle>
<circle clip-path="url(#clip292)" cx="1532.05" cy="847.702" r="14.4" fill="#009af9" fill-rule="evenodd" fill-opacity="1" stroke="#000000" stroke-opacity="1" stroke-width="3.2"></circle>
<circle clip-path="url(#clip292)" cx="1683.71" cy="916.515" r="14.4" fill="#009af9" fill-rule="evenodd" fill-opacity="1" stroke="#000000" stroke-opacity="1" stroke-width="3.2"></circle>
<circle clip-path="url(#clip292)" cx="1836.08" cy="741.045" r="14.4" fill="#009af9" fill-rule="evenodd" fill-opacity="1" stroke="#000000" stroke-opacity="1" stroke-width="3.2"></circle>
<circle clip-path="url(#clip292)" cx="1988.49" cy="390.658" r="14.4" fill="#009af9" fill-rule="evenodd" fill-opacity="1" stroke="#000000" stroke-opacity="1" stroke-width="3.2"></circle>
<circle clip-path="url(#clip292)" cx="2140.87" cy="457.532" r="14.4" fill="#009af9" fill-rule="evenodd" fill-opacity="1" stroke="#000000" stroke-opacity="1" stroke-width="3.2"></circle>
<circle clip-path="url(#clip292)" cx="2293.32" cy="745.32" r="14.4" fill="#009af9" fill-rule="evenodd" fill-opacity="1" stroke="#000000" stroke-opacity="1" stroke-width="3.2"></circle>
<polyline clip-path="url(#clip292)" style="stroke:#e26f46; stroke-linecap:round; stroke-linejoin:round; stroke-width:4; stroke-opacity:1; fill:none" points="
  312.198,1346.99 467.725,1284.13 628.383,1213.32 770.932,1103.01 926.459,1075.2 1074.14,916.582 1227.59,866.415 1379.98,709.282 1532.05,785.803 1683.71,668.949 
  1836.08,588.103 1988.49,485.249 2140.87,159.909 2293.32,177.666 
  "></polyline>
<circle clip-path="url(#clip292)" cx="312.198" cy="1346.99" r="14.4" fill="#e26f46" fill-rule="evenodd" fill-opacity="1" stroke="#000000" stroke-opacity="1" stroke-width="3.2"></circle>
<circle clip-path="url(#clip292)" cx="467.725" cy="1284.13" r="14.4" fill="#e26f46" fill-rule="evenodd" fill-opacity="1" stroke="#000000" stroke-opacity="1" stroke-width="3.2"></circle>
<circle clip-path="url(#clip292)" cx="628.383" cy="1213.32" r="14.4" fill="#e26f46" fill-rule="evenodd" fill-opacity="1" stroke="#000000" stroke-opacity="1" stroke-width="3.2"></circle>
<circle clip-path="url(#clip292)" cx="770.932" cy="1103.01" r="14.4" fill="#e26f46" fill-rule="evenodd" fill-opacity="1" stroke="#000000" stroke-opacity="1" stroke-width="3.2"></circle>
<circle clip-path="url(#clip292)" cx="926.459" cy="1075.2" r="14.4" fill="#e26f46" fill-rule="evenodd" fill-opacity="1" stroke="#000000" stroke-opacity="1" stroke-width="3.2"></circle>
<circle clip-path="url(#clip292)" cx="1074.14" cy="916.582" r="14.4" fill="#e26f46" fill-rule="evenodd" fill-opacity="1" stroke="#000000" stroke-opacity="1" stroke-width="3.2"></circle>
<circle clip-path="url(#clip292)" cx="1227.59" cy="866.415" r="14.4" fill="#e26f46" fill-rule="evenodd" fill-opacity="1" stroke="#000000" stroke-opacity="1" stroke-width="3.2"></circle>
<circle clip-path="url(#clip292)" cx="1379.98" cy="709.282" r="14.4" fill="#e26f46" fill-rule="evenodd" fill-opacity="1" stroke="#000000" stroke-opacity="1" stroke-width="3.2"></circle>
<circle clip-path="url(#clip292)" cx="1532.05" cy="785.803" r="14.4" fill="#e26f46" fill-rule="evenodd" fill-opacity="1" stroke="#000000" stroke-opacity="1" stroke-width="3.2"></circle>
<circle clip-path="url(#clip292)" cx="1683.71" cy="668.949" r="14.4" fill="#e26f46" fill-rule="evenodd" fill-opacity="1" stroke="#000000" stroke-opacity="1" stroke-width="3.2"></circle>
<circle clip-path="url(#clip292)" cx="1836.08" cy="588.103" r="14.4" fill="#e26f46" fill-rule="evenodd" fill-opacity="1" stroke="#000000" stroke-opacity="1" stroke-width="3.2"></circle>
<circle clip-path="url(#clip292)" cx="1988.49" cy="485.249" r="14.4" fill="#e26f46" fill-rule="evenodd" fill-opacity="1" stroke="#000000" stroke-opacity="1" stroke-width="3.2"></circle>
<circle clip-path="url(#clip292)" cx="2140.87" cy="159.909" r="14.4" fill="#e26f46" fill-rule="evenodd" fill-opacity="1" stroke="#000000" stroke-opacity="1" stroke-width="3.2"></circle>
<circle clip-path="url(#clip292)" cx="2293.32" cy="177.666" r="14.4" fill="#e26f46" fill-rule="evenodd" fill-opacity="1" stroke="#000000" stroke-opacity="1" stroke-width="3.2"></circle>
<polyline clip-path="url(#clip292)" style="stroke:#e26f46; stroke-linecap:round; stroke-linejoin:round; stroke-width:4; stroke-opacity:1; fill:none" points="
  312.198,1359.65 467.725,1096.48 628.383,1150.54 770.932,1074.99 926.459,859.161 1074.14,853.533 1227.59,908.462 1379.98,848.332 1532.05,787.739 1683.71,658.113 
  1836.08,591.644 1988.49,500.534 2140.87,395.014 2293.32,273.56 
  "></polyline>
<circle clip-path="url(#clip292)" cx="312.198" cy="1359.65" r="14.4" fill="#e26f46" fill-rule="evenodd" fill-opacity="1" stroke="#000000" stroke-opacity="1" stroke-width="3.2"></circle>
<circle clip-path="url(#clip292)" cx="467.725" cy="1096.48" r="14.4" fill="#e26f46" fill-rule="evenodd" fill-opacity="1" stroke="#000000" stroke-opacity="1" stroke-width="3.2"></circle>
<circle clip-path="url(#clip292)" cx="628.383" cy="1150.54" r="14.4" fill="#e26f46" fill-rule="evenodd" fill-opacity="1" stroke="#000000" stroke-opacity="1" stroke-width="3.2"></circle>
<circle clip-path="url(#clip292)" cx="770.932" cy="1074.99" r="14.4" fill="#e26f46" fill-rule="evenodd" fill-opacity="1" stroke="#000000" stroke-opacity="1" stroke-width="3.2"></circle>
<circle clip-path="url(#clip292)" cx="926.459" cy="859.161" r="14.4" fill="#e26f46" fill-rule="evenodd" fill-opacity="1" stroke="#000000" stroke-opacity="1" stroke-width="3.2"></circle>
<circle clip-path="url(#clip292)" cx="1074.14" cy="853.533" r="14.4" fill="#e26f46" fill-rule="evenodd" fill-opacity="1" stroke="#000000" stroke-opacity="1" stroke-width="3.2"></circle>
<circle clip-path="url(#clip292)" cx="1227.59" cy="908.462" r="14.4" fill="#e26f46" fill-rule="evenodd" fill-opacity="1" stroke="#000000" stroke-opacity="1" stroke-width="3.2"></circle>
<circle clip-path="url(#clip292)" cx="1379.98" cy="848.332" r="14.4" fill="#e26f46" fill-rule="evenodd" fill-opacity="1" stroke="#000000" stroke-opacity="1" stroke-width="3.2"></circle>
<circle clip-path="url(#clip292)" cx="1532.05" cy="787.739" r="14.4" fill="#e26f46" fill-rule="evenodd" fill-opacity="1" stroke="#000000" stroke-opacity="1" stroke-width="3.2"></circle>
<circle clip-path="url(#clip292)" cx="1683.71" cy="658.113" r="14.4" fill="#e26f46" fill-rule="evenodd" fill-opacity="1" stroke="#000000" stroke-opacity="1" stroke-width="3.2"></circle>
<circle clip-path="url(#clip292)" cx="1836.08" cy="591.644" r="14.4" fill="#e26f46" fill-rule="evenodd" fill-opacity="1" stroke="#000000" stroke-opacity="1" stroke-width="3.2"></circle>
<circle clip-path="url(#clip292)" cx="1988.49" cy="500.534" r="14.4" fill="#e26f46" fill-rule="evenodd" fill-opacity="1" stroke="#000000" stroke-opacity="1" stroke-width="3.2"></circle>
<circle clip-path="url(#clip292)" cx="2140.87" cy="395.014" r="14.4" fill="#e26f46" fill-rule="evenodd" fill-opacity="1" stroke="#000000" stroke-opacity="1" stroke-width="3.2"></circle>
<circle clip-path="url(#clip292)" cx="2293.32" cy="273.56" r="14.4" fill="#e26f46" fill-rule="evenodd" fill-opacity="1" stroke="#000000" stroke-opacity="1" stroke-width="3.2"></circle>
<polyline clip-path="url(#clip292)" style="stroke:#e26f46; stroke-linecap:round; stroke-linejoin:round; stroke-width:4; stroke-opacity:1; fill:none" points="
  312.198,1374.46 467.725,1292.55 628.383,1178.77 770.932,1177.41 926.459,1074.88 1074.14,942.549 1227.59,891.986 1379.98,804.49 1532.05,799.332 1683.71,716.645 
  1836.08,613.983 1988.49,502.013 2140.87,227.019 2293.32,271.284 
  "></polyline>
<circle clip-path="url(#clip292)" cx="312.198" cy="1374.46" r="14.4" fill="#e26f46" fill-rule="evenodd" fill-opacity="1" stroke="#000000" stroke-opacity="1" stroke-width="3.2"></circle>
<circle clip-path="url(#clip292)" cx="467.725" cy="1292.55" r="14.4" fill="#e26f46" fill-rule="evenodd" fill-opacity="1" stroke="#000000" stroke-opacity="1" stroke-width="3.2"></circle>
<circle clip-path="url(#clip292)" cx="628.383" cy="1178.77" r="14.4" fill="#e26f46" fill-rule="evenodd" fill-opacity="1" stroke="#000000" stroke-opacity="1" stroke-width="3.2"></circle>
<circle clip-path="url(#clip292)" cx="770.932" cy="1177.41" r="14.4" fill="#e26f46" fill-rule="evenodd" fill-opacity="1" stroke="#000000" stroke-opacity="1" stroke-width="3.2"></circle>
<circle clip-path="url(#clip292)" cx="926.459" cy="1074.88" r="14.4" fill="#e26f46" fill-rule="evenodd" fill-opacity="1" stroke="#000000" stroke-opacity="1" stroke-width="3.2"></circle>
<circle clip-path="url(#clip292)" cx="1074.14" cy="942.549" r="14.4" fill="#e26f46" fill-rule="evenodd" fill-opacity="1" stroke="#000000" stroke-opacity="1" stroke-width="3.2"></circle>
<circle clip-path="url(#clip292)" cx="1227.59" cy="891.986" r="14.4" fill="#e26f46" fill-rule="evenodd" fill-opacity="1" stroke="#000000" stroke-opacity="1" stroke-width="3.2"></circle>
<circle clip-path="url(#clip292)" cx="1379.98" cy="804.49" r="14.4" fill="#e26f46" fill-rule="evenodd" fill-opacity="1" stroke="#000000" stroke-opacity="1" stroke-width="3.2"></circle>
<circle clip-path="url(#clip292)" cx="1532.05" cy="799.332" r="14.4" fill="#e26f46" fill-rule="evenodd" fill-opacity="1" stroke="#000000" stroke-opacity="1" stroke-width="3.2"></circle>
<circle clip-path="url(#clip292)" cx="1683.71" cy="716.645" r="14.4" fill="#e26f46" fill-rule="evenodd" fill-opacity="1" stroke="#000000" stroke-opacity="1" stroke-width="3.2"></circle>
<circle clip-path="url(#clip292)" cx="1836.08" cy="613.983" r="14.4" fill="#e26f46" fill-rule="evenodd" fill-opacity="1" stroke="#000000" stroke-opacity="1" stroke-width="3.2"></circle>
<circle clip-path="url(#clip292)" cx="1988.49" cy="502.013" r="14.4" fill="#e26f46" fill-rule="evenodd" fill-opacity="1" stroke="#000000" stroke-opacity="1" stroke-width="3.2"></circle>
<circle clip-path="url(#clip292)" cx="2140.87" cy="227.019" r="14.4" fill="#e26f46" fill-rule="evenodd" fill-opacity="1" stroke="#000000" stroke-opacity="1" stroke-width="3.2"></circle>
<circle clip-path="url(#clip292)" cx="2293.32" cy="271.284" r="14.4" fill="#e26f46" fill-rule="evenodd" fill-opacity="1" stroke="#000000" stroke-opacity="1" stroke-width="3.2"></circle>
<path clip-path="url(#clip290)" d="
M1897.32 1367.98 L2282.76 1367.98 L2282.76 1212.46 L1897.32 1212.46  Z
  " fill="#ffffff" fill-rule="evenodd" fill-opacity="1"></path>
<polyline clip-path="url(#clip290)" style="stroke:#000000; stroke-linecap:round; stroke-linejoin:round; stroke-width:4; stroke-opacity:1; fill:none" points="
  1897.32,1367.98 2282.76,1367.98 2282.76,1212.46 1897.32,1212.46 1897.32,1367.98 
  "></polyline>
<polyline clip-path="url(#clip290)" style="stroke:#009af9; stroke-linecap:round; stroke-linejoin:round; stroke-width:4; stroke-opacity:1; fill:none" points="
  1920.65,1264.3 2060.65,1264.3 
  "></polyline>
<circle clip-path="url(#clip290)" cx="1990.65" cy="1264.3" r="19.4444" fill="#009af9" fill-rule="evenodd" fill-opacity="1" stroke="#000000" stroke-opacity="1" stroke-width="5.12"></circle>
<path clip-path="url(#clip290)" d="M2102.41 1256.42 L2102.41 1260.45 Q2100.6 1259.52 2098.66 1259.06 Q2096.72 1258.6 2094.63 1258.6 Q2091.46 1258.6 2089.86 1259.57 Q2088.29 1260.54 2088.29 1262.49 Q2088.29 1263.97 2089.42 1264.82 Q2090.56 1265.66 2093.98 1266.42 L2095.44 1266.74 Q2099.98 1267.72 2101.88 1269.5 Q2103.8 1271.26 2103.8 1274.43 Q2103.8 1278.04 2100.93 1280.15 Q2098.08 1282.25 2093.08 1282.25 Q2091 1282.25 2088.73 1281.84 Q2086.48 1281.44 2083.98 1280.63 L2083.98 1276.24 Q2086.35 1277.46 2088.64 1278.09 Q2090.93 1278.69 2093.17 1278.69 Q2096.18 1278.69 2097.8 1277.67 Q2099.42 1276.63 2099.42 1274.75 Q2099.42 1273.02 2098.24 1272.09 Q2097.09 1271.17 2093.13 1270.31 L2091.65 1269.96 Q2087.69 1269.13 2085.93 1267.42 Q2084.17 1265.68 2084.17 1262.67 Q2084.17 1259.01 2086.76 1257.02 Q2089.35 1255.03 2094.12 1255.03 Q2096.48 1255.03 2098.57 1255.38 Q2100.65 1255.73 2102.41 1256.42 Z" fill="#000000" fill-rule="evenodd" fill-opacity="1"></path><path clip-path="url(#clip290)" d="M2114.7 1277.69 L2114.7 1291.44 L2110.42 1291.44 L2110.42 1255.66 L2114.7 1255.66 L2114.7 1259.59 Q2116.04 1257.28 2118.08 1256.17 Q2120.14 1255.03 2122.99 1255.03 Q2127.71 1255.03 2130.65 1258.78 Q2133.61 1262.53 2133.61 1268.64 Q2133.61 1274.75 2130.65 1278.5 Q2127.71 1282.25 2122.99 1282.25 Q2120.14 1282.25 2118.08 1281.14 Q2116.04 1280.01 2114.7 1277.69 M2129.19 1268.64 Q2129.19 1263.94 2127.25 1261.28 Q2125.33 1258.6 2121.95 1258.6 Q2118.57 1258.6 2116.62 1261.28 Q2114.7 1263.94 2114.7 1268.64 Q2114.7 1273.34 2116.62 1276.03 Q2118.57 1278.69 2121.95 1278.69 Q2125.33 1278.69 2127.25 1276.03 Q2129.19 1273.34 2129.19 1268.64 Z" fill="#000000" fill-rule="evenodd" fill-opacity="1"></path><path clip-path="url(#clip290)" d="M2152.46 1268.55 Q2147.29 1268.55 2145.3 1269.73 Q2143.31 1270.91 2143.31 1273.76 Q2143.31 1276.03 2144.79 1277.37 Q2146.3 1278.69 2148.87 1278.69 Q2152.41 1278.69 2154.54 1276.19 Q2156.69 1273.67 2156.69 1269.5 L2156.69 1268.55 L2152.46 1268.55 M2160.95 1266.79 L2160.95 1281.58 L2156.69 1281.58 L2156.69 1277.65 Q2155.23 1280.01 2153.06 1281.14 Q2150.88 1282.25 2147.73 1282.25 Q2143.75 1282.25 2141.39 1280.03 Q2139.05 1277.79 2139.05 1274.04 Q2139.05 1269.66 2141.97 1267.44 Q2144.91 1265.22 2150.72 1265.22 L2156.69 1265.22 L2156.69 1264.8 Q2156.69 1261.86 2154.75 1260.26 Q2152.83 1258.64 2149.33 1258.64 Q2147.11 1258.64 2145 1259.18 Q2142.9 1259.71 2140.95 1260.77 L2140.95 1256.84 Q2143.29 1255.93 2145.49 1255.49 Q2147.69 1255.03 2149.77 1255.03 Q2155.4 1255.03 2158.17 1257.95 Q2160.95 1260.87 2160.95 1266.79 Z" fill="#000000" fill-rule="evenodd" fill-opacity="1"></path><path clip-path="url(#clip290)" d="M2184.75 1259.64 Q2184.03 1259.22 2183.17 1259.04 Q2182.34 1258.83 2181.32 1258.83 Q2177.71 1258.83 2175.77 1261.19 Q2173.84 1263.53 2173.84 1267.93 L2173.84 1281.58 L2169.56 1281.58 L2169.56 1255.66 L2173.84 1255.66 L2173.84 1259.68 Q2175.19 1257.32 2177.34 1256.19 Q2179.49 1255.03 2182.57 1255.03 Q2183.01 1255.03 2183.54 1255.1 Q2184.08 1255.15 2184.72 1255.26 L2184.75 1259.64 Z" fill="#000000" fill-rule="evenodd" fill-opacity="1"></path><path clip-path="url(#clip290)" d="M2205.74 1256.42 L2205.74 1260.45 Q2203.94 1259.52 2201.99 1259.06 Q2200.05 1258.6 2197.96 1258.6 Q2194.79 1258.6 2193.2 1259.57 Q2191.62 1260.54 2191.62 1262.49 Q2191.62 1263.97 2192.76 1264.82 Q2193.89 1265.66 2197.32 1266.42 L2198.78 1266.74 Q2203.31 1267.72 2205.21 1269.5 Q2207.13 1271.26 2207.13 1274.43 Q2207.13 1278.04 2204.26 1280.15 Q2201.41 1282.25 2196.41 1282.25 Q2194.33 1282.25 2192.06 1281.84 Q2189.82 1281.44 2187.32 1280.63 L2187.32 1276.24 Q2189.68 1277.46 2191.97 1278.09 Q2194.26 1278.69 2196.51 1278.69 Q2199.52 1278.69 2201.14 1277.67 Q2202.76 1276.63 2202.76 1274.75 Q2202.76 1273.02 2201.58 1272.09 Q2200.42 1271.17 2196.46 1270.31 L2194.98 1269.96 Q2191.02 1269.13 2189.26 1267.42 Q2187.5 1265.68 2187.5 1262.67 Q2187.5 1259.01 2190.09 1257.02 Q2192.69 1255.03 2197.46 1255.03 Q2199.82 1255.03 2201.9 1255.38 Q2203.98 1255.73 2205.74 1256.42 Z" fill="#000000" fill-rule="evenodd" fill-opacity="1"></path><path clip-path="url(#clip290)" d="M2236.09 1267.55 L2236.09 1269.64 L2216.51 1269.64 Q2216.78 1274.04 2219.15 1276.35 Q2221.53 1278.64 2225.77 1278.64 Q2228.22 1278.64 2230.51 1278.04 Q2232.83 1277.44 2235.09 1276.24 L2235.09 1280.26 Q2232.8 1281.24 2230.4 1281.74 Q2227.99 1282.25 2225.51 1282.25 Q2219.31 1282.25 2215.67 1278.64 Q2212.06 1275.03 2212.06 1268.87 Q2212.06 1262.51 2215.49 1258.78 Q2218.94 1255.03 2224.77 1255.03 Q2230 1255.03 2233.03 1258.41 Q2236.09 1261.77 2236.09 1267.55 M2231.83 1266.3 Q2231.78 1262.81 2229.86 1260.73 Q2227.96 1258.64 2224.82 1258.64 Q2221.25 1258.64 2219.1 1260.66 Q2216.97 1262.67 2216.65 1266.33 L2231.83 1266.3 Z" fill="#000000" fill-rule="evenodd" fill-opacity="1"></path><polyline clip-path="url(#clip290)" style="stroke:#e26f46; stroke-linecap:round; stroke-linejoin:round; stroke-width:4; stroke-opacity:1; fill:none" points="
  1920.65,1316.14 2060.65,1316.14 
  "></polyline>
<circle clip-path="url(#clip290)" cx="1990.65" cy="1316.14" r="19.4444" fill="#e26f46" fill-rule="evenodd" fill-opacity="1" stroke="#000000" stroke-opacity="1" stroke-width="5.12"></circle>
<path clip-path="url(#clip290)" d="M2102.9 1311.43 L2102.9 1297.4 L2107.16 1297.4 L2107.16 1333.42 L2102.9 1333.42 L2102.9 1329.53 Q2101.55 1331.85 2099.49 1332.98 Q2097.46 1334.09 2094.59 1334.09 Q2089.89 1334.09 2086.92 1330.34 Q2083.98 1326.59 2083.98 1320.48 Q2083.98 1314.37 2086.92 1310.62 Q2089.89 1306.87 2094.59 1306.87 Q2097.46 1306.87 2099.49 1308.01 Q2101.55 1309.12 2102.9 1311.43 M2088.38 1320.48 Q2088.38 1325.18 2090.3 1327.87 Q2092.25 1330.53 2095.63 1330.53 Q2099.01 1330.53 2100.95 1327.87 Q2102.9 1325.18 2102.9 1320.48 Q2102.9 1315.78 2100.95 1313.12 Q2099.01 1310.44 2095.63 1310.44 Q2092.25 1310.44 2090.3 1313.12 Q2088.38 1315.78 2088.38 1320.48 Z" fill="#000000" fill-rule="evenodd" fill-opacity="1"></path><path clip-path="url(#clip290)" d="M2138.1 1319.39 L2138.1 1321.48 L2118.52 1321.48 Q2118.8 1325.88 2121.16 1328.19 Q2123.54 1330.48 2127.78 1330.48 Q2130.23 1330.48 2132.53 1329.88 Q2134.84 1329.28 2137.11 1328.08 L2137.11 1332.1 Q2134.82 1333.08 2132.41 1333.58 Q2130 1334.09 2127.53 1334.09 Q2121.32 1334.09 2117.69 1330.48 Q2114.08 1326.87 2114.08 1320.71 Q2114.08 1314.35 2117.5 1310.62 Q2120.95 1306.87 2126.78 1306.87 Q2132.02 1306.87 2135.05 1310.25 Q2138.1 1313.61 2138.1 1319.39 M2133.84 1318.14 Q2133.8 1314.65 2131.88 1312.57 Q2129.98 1310.48 2126.83 1310.48 Q2123.27 1310.48 2121.11 1312.5 Q2118.98 1314.51 2118.66 1318.17 L2133.84 1318.14 Z" fill="#000000" fill-rule="evenodd" fill-opacity="1"></path><path clip-path="url(#clip290)" d="M2166.65 1317.77 L2166.65 1333.42 L2162.39 1333.42 L2162.39 1317.91 Q2162.39 1314.23 2160.95 1312.4 Q2159.52 1310.58 2156.65 1310.58 Q2153.2 1310.58 2151.21 1312.77 Q2149.22 1314.97 2149.22 1318.77 L2149.22 1333.42 L2144.93 1333.42 L2144.93 1307.5 L2149.22 1307.5 L2149.22 1311.52 Q2150.74 1309.19 2152.8 1308.03 Q2154.89 1306.87 2157.59 1306.87 Q2162.06 1306.87 2164.35 1309.65 Q2166.65 1312.4 2166.65 1317.77 Z" fill="#000000" fill-rule="evenodd" fill-opacity="1"></path><path clip-path="url(#clip290)" d="M2191.67 1308.26 L2191.67 1312.29 Q2189.86 1311.36 2187.92 1310.9 Q2185.97 1310.44 2183.89 1310.44 Q2180.72 1310.44 2179.12 1311.41 Q2177.55 1312.38 2177.55 1314.33 Q2177.55 1315.81 2178.68 1316.66 Q2179.82 1317.5 2183.24 1318.26 L2184.7 1318.58 Q2189.24 1319.56 2191.14 1321.34 Q2193.06 1323.1 2193.06 1326.27 Q2193.06 1329.88 2190.19 1331.99 Q2187.34 1334.09 2182.34 1334.09 Q2180.26 1334.09 2177.99 1333.68 Q2175.74 1333.28 2173.24 1332.47 L2173.24 1328.08 Q2175.6 1329.3 2177.9 1329.93 Q2180.19 1330.53 2182.43 1330.53 Q2185.44 1330.53 2187.06 1329.51 Q2188.68 1328.47 2188.68 1326.59 Q2188.68 1324.86 2187.5 1323.93 Q2186.34 1323.01 2182.39 1322.15 L2180.9 1321.8 Q2176.95 1320.97 2175.19 1319.26 Q2173.43 1317.52 2173.43 1314.51 Q2173.43 1310.85 2176.02 1308.86 Q2178.61 1306.87 2183.38 1306.87 Q2185.74 1306.87 2187.83 1307.22 Q2189.91 1307.57 2191.67 1308.26 Z" fill="#000000" fill-rule="evenodd" fill-opacity="1"></path><path clip-path="url(#clip290)" d="M2222.02 1319.39 L2222.02 1321.48 L2202.43 1321.48 Q2202.71 1325.88 2205.07 1328.19 Q2207.46 1330.48 2211.69 1330.48 Q2214.15 1330.48 2216.44 1329.88 Q2218.75 1329.28 2221.02 1328.08 L2221.02 1332.1 Q2218.73 1333.08 2216.32 1333.58 Q2213.91 1334.09 2211.44 1334.09 Q2205.23 1334.09 2201.6 1330.48 Q2197.99 1326.87 2197.99 1320.71 Q2197.99 1314.35 2201.41 1310.62 Q2204.86 1306.87 2210.7 1306.87 Q2215.93 1306.87 2218.96 1310.25 Q2222.02 1313.61 2222.02 1319.39 M2217.76 1318.14 Q2217.71 1314.65 2215.79 1312.57 Q2213.89 1310.48 2210.74 1310.48 Q2207.18 1310.48 2205.03 1312.5 Q2202.9 1314.51 2202.57 1318.17 L2217.76 1318.14 Z" fill="#000000" fill-rule="evenodd" fill-opacity="1"></path></svg>