<svg xmlns="http://www.w3.org/2000/svg" xmlns:xlink="http://www.w3.org/1999/xlink" width="600" height="400" viewBox="0 0 2400 1600">
<defs>
  <clipPath id="clip680">
    <rect x="0" y="0" width="2400" height="1600"></rect>
  </clipPath>
</defs>
<path clip-path="url(#clip680)" d="
M0 1600 L2400 1600 L2400 0 L0 0  Z
  " fill="#ffffff" fill-rule="evenodd" fill-opacity="1"></path>
<defs>
  <clipPath id="clip681">
    <rect x="480" y="0" width="1681" height="1600"></rect>
  </clipPath>
</defs>
<path clip-path="url(#clip680)" d="
M242.621 1423.18 L2352.76 1423.18 L2352.76 183.952 L242.621 183.952  Z
  " fill="#ffffff" fill-rule="evenodd" fill-opacity="1"></path>
<defs>
  <clipPath id="clip682">
    <rect x="242" y="183" width="2111" height="1240"></rect>
  </clipPath>
</defs>
<polyline clip-path="url(#clip682)" style="stroke:#000000; stroke-linecap:round; stroke-linejoin:round; stroke-width:2; stroke-opacity:0.1; fill:none" points="
  567.823,1423.18 567.823,183.952 
  "></polyline>
<polyline clip-path="url(#clip682)" style="stroke:#000000; stroke-linecap:round; stroke-linejoin:round; stroke-width:2; stroke-opacity:0.1; fill:none" points="
  966.045,1423.18 966.045,183.952 
  "></polyline>
<polyline clip-path="url(#clip682)" style="stroke:#000000; stroke-linecap:round; stroke-linejoin:round; stroke-width:2; stroke-opacity:0.1; fill:none" points="
  1364.27,1423.18 1364.27,183.952 
  "></polyline>
<polyline clip-path="url(#clip682)" style="stroke:#000000; stroke-linecap:round; stroke-linejoin:round; stroke-width:2; stroke-opacity:0.1; fill:none" points="
  1762.49,1423.18 1762.49,183.952 
  "></polyline>
<polyline clip-path="url(#clip682)" style="stroke:#000000; stroke-linecap:round; stroke-linejoin:round; stroke-width:2; stroke-opacity:0.1; fill:none" points="
  2160.71,1423.18 2160.71,183.952 
  "></polyline>
<polyline clip-path="url(#clip680)" style="stroke:#000000; stroke-linecap:round; stroke-linejoin:round; stroke-width:4; stroke-opacity:1; fill:none" points="
  242.621,1423.18 2352.76,1423.18 
  "></polyline>
<polyline clip-path="url(#clip680)" style="stroke:#000000; stroke-linecap:round; stroke-linejoin:round; stroke-width:4; stroke-opacity:1; fill:none" points="
  567.823,1423.18 567.823,1404.28 
  "></polyline>
<polyline clip-path="url(#clip680)" style="stroke:#000000; stroke-linecap:round; stroke-linejoin:round; stroke-width:4; stroke-opacity:1; fill:none" points="
  966.045,1423.18 966.045,1404.28 
  "></polyline>
<polyline clip-path="url(#clip680)" style="stroke:#000000; stroke-linecap:round; stroke-linejoin:round; stroke-width:4; stroke-opacity:1; fill:none" points="
  1364.27,1423.18 1364.27,1404.28 
  "></polyline>
<polyline clip-path="url(#clip680)" style="stroke:#000000; stroke-linecap:round; stroke-linejoin:round; stroke-width:4; stroke-opacity:1; fill:none" points="
  1762.49,1423.18 1762.49,1404.28 
  "></polyline>
<polyline clip-path="url(#clip680)" style="stroke:#000000; stroke-linecap:round; stroke-linejoin:round; stroke-width:4; stroke-opacity:1; fill:none" points="
  2160.71,1423.18 2160.71,1404.28 
  "></polyline>
<path clip-path="url(#clip680)" d="M535.774 1481.64 L543.413 1481.64 L543.413 1455.28 L535.103 1456.95 L535.103 1452.69 L543.367 1451.02 L548.043 1451.02 L548.043 1481.64 L555.682 1481.64 L555.682 1485.58 L535.774 1485.58 L535.774 1481.64 Z" fill="#000000" fill-rule="evenodd" fill-opacity="1"></path><path clip-path="url(#clip680)" d="M565.126 1479.7 L570.01 1479.7 L570.01 1485.58 L565.126 1485.58 L565.126 1479.7 Z" fill="#000000" fill-rule="evenodd" fill-opacity="1"></path><path clip-path="url(#clip680)" d="M584.223 1481.64 L600.542 1481.64 L600.542 1485.58 L578.598 1485.58 L578.598 1481.64 Q581.26 1478.89 585.844 1474.26 Q590.45 1469.61 591.631 1468.27 Q593.876 1465.74 594.755 1464.01 Q595.658 1462.25 595.658 1460.56 Q595.658 1457.8 593.714 1456.07 Q591.793 1454.33 588.691 1454.33 Q586.492 1454.33 584.038 1455.09 Q581.607 1455.86 578.83 1457.41 L578.83 1452.69 Q581.654 1451.55 584.107 1450.97 Q586.561 1450.39 588.598 1450.39 Q593.968 1450.39 597.163 1453.08 Q600.357 1455.77 600.357 1460.26 Q600.357 1462.39 599.547 1464.31 Q598.76 1466.2 596.654 1468.8 Q596.075 1469.47 592.973 1472.69 Q589.871 1475.88 584.223 1481.64 Z" fill="#000000" fill-rule="evenodd" fill-opacity="1"></path><path clip-path="url(#clip680)" d="M933.695 1481.64 L941.334 1481.64 L941.334 1455.28 L933.024 1456.95 L933.024 1452.69 L941.288 1451.02 L945.964 1451.02 L945.964 1481.64 L953.602 1481.64 L953.602 1485.58 L933.695 1485.58 L933.695 1481.64 Z" fill="#000000" fill-rule="evenodd" fill-opacity="1"></path><path clip-path="url(#clip680)" d="M963.047 1479.7 L967.931 1479.7 L967.931 1485.58 L963.047 1485.58 L963.047 1479.7 Z" fill="#000000" fill-rule="evenodd" fill-opacity="1"></path><path clip-path="url(#clip680)" d="M978.163 1451.02 L996.519 1451.02 L996.519 1454.96 L982.445 1454.96 L982.445 1463.43 Q983.463 1463.08 984.482 1462.92 Q985.5 1462.73 986.519 1462.73 Q992.306 1462.73 995.686 1465.9 Q999.065 1469.08 999.065 1474.49 Q999.065 1480.07 995.593 1483.17 Q992.121 1486.25 985.801 1486.25 Q983.625 1486.25 981.357 1485.88 Q979.112 1485.51 976.704 1484.77 L976.704 1480.07 Q978.788 1481.2 981.01 1481.76 Q983.232 1482.32 985.709 1482.32 Q989.713 1482.32 992.051 1480.21 Q994.389 1478.1 994.389 1474.49 Q994.389 1470.88 992.051 1468.77 Q989.713 1466.67 985.709 1466.67 Q983.834 1466.67 981.959 1467.08 Q980.107 1467.5 978.163 1468.38 L978.163 1451.02 Z" fill="#000000" fill-rule="evenodd" fill-opacity="1"></path><path clip-path="url(#clip680)" d="M1331.47 1481.64 L1339.1 1481.64 L1339.1 1455.28 L1330.79 1456.95 L1330.79 1452.69 L1339.06 1451.02 L1343.73 1451.02 L1343.73 1481.64 L1351.37 1481.64 L1351.37 1485.58 L1331.47 1485.58 L1331.47 1481.64 Z" fill="#000000" fill-rule="evenodd" fill-opacity="1"></path><path clip-path="url(#clip680)" d="M1360.82 1479.7 L1365.7 1479.7 L1365.7 1485.58 L1360.82 1485.58 L1360.82 1479.7 Z" fill="#000000" fill-rule="evenodd" fill-opacity="1"></path><path clip-path="url(#clip680)" d="M1385.89 1469.17 Q1382.55 1469.17 1380.63 1470.95 Q1378.73 1472.73 1378.73 1475.86 Q1378.73 1478.98 1380.63 1480.77 Q1382.55 1482.55 1385.89 1482.55 Q1389.22 1482.55 1391.14 1480.77 Q1393.06 1478.96 1393.06 1475.86 Q1393.06 1472.73 1391.14 1470.95 Q1389.24 1469.17 1385.89 1469.17 M1381.21 1467.18 Q1378.2 1466.44 1376.51 1464.38 Q1374.84 1462.32 1374.84 1459.35 Q1374.84 1455.21 1377.78 1452.8 Q1380.75 1450.39 1385.89 1450.39 Q1391.05 1450.39 1393.99 1452.8 Q1396.93 1455.21 1396.93 1459.35 Q1396.93 1462.32 1395.24 1464.38 Q1393.57 1466.44 1390.59 1467.18 Q1393.97 1467.96 1395.84 1470.26 Q1397.74 1472.55 1397.74 1475.86 Q1397.74 1480.88 1394.66 1483.57 Q1391.6 1486.25 1385.89 1486.25 Q1380.17 1486.25 1377.09 1483.57 Q1374.03 1480.88 1374.03 1475.86 Q1374.03 1472.55 1375.93 1470.26 Q1377.83 1467.96 1381.21 1467.18 M1379.5 1459.79 Q1379.5 1462.48 1381.16 1463.98 Q1382.85 1465.49 1385.89 1465.49 Q1388.9 1465.49 1390.59 1463.98 Q1392.3 1462.48 1392.3 1459.79 Q1392.3 1457.11 1390.59 1455.6 Q1388.9 1454.1 1385.89 1454.1 Q1382.85 1454.1 1381.16 1455.6 Q1379.5 1457.11 1379.5 1459.79 Z" fill="#000000" fill-rule="evenodd" fill-opacity="1"></path><path clip-path="url(#clip680)" d="M1734.34 1481.64 L1750.66 1481.64 L1750.66 1485.58 L1728.72 1485.58 L1728.72 1481.64 Q1731.38 1478.89 1735.96 1474.26 Q1740.57 1469.61 1741.75 1468.27 Q1743.99 1465.74 1744.87 1464.01 Q1745.78 1462.25 1745.78 1460.56 Q1745.78 1457.8 1743.83 1456.07 Q1741.91 1454.33 1738.81 1454.33 Q1736.61 1454.33 1734.15 1455.09 Q1731.72 1455.86 1728.95 1457.41 L1728.95 1452.69 Q1731.77 1451.55 1734.22 1450.97 Q1736.68 1450.39 1738.72 1450.39 Q1744.09 1450.39 1747.28 1453.08 Q1750.47 1455.77 1750.47 1460.26 Q1750.47 1462.39 1749.66 1464.31 Q1748.88 1466.2 1746.77 1468.8 Q1746.19 1469.47 1743.09 1472.69 Q1739.99 1475.88 1734.34 1481.64 Z" fill="#000000" fill-rule="evenodd" fill-opacity="1"></path><path clip-path="url(#clip680)" d="M1760.47 1479.7 L1765.36 1479.7 L1765.36 1485.58 L1760.47 1485.58 L1760.47 1479.7 Z" fill="#000000" fill-rule="evenodd" fill-opacity="1"></path><path clip-path="url(#clip680)" d="M1776.35 1481.64 L1783.99 1481.64 L1783.99 1455.28 L1775.68 1456.95 L1775.68 1452.69 L1783.95 1451.02 L1788.62 1451.02 L1788.62 1481.64 L1796.26 1481.64 L1796.26 1485.58 L1776.35 1485.58 L1776.35 1481.64 Z" fill="#000000" fill-rule="evenodd" fill-opacity="1"></path><path clip-path="url(#clip680)" d="M2131.71 1481.64 L2148.02 1481.64 L2148.02 1485.58 L2126.08 1485.58 L2126.08 1481.64 Q2128.74 1478.89 2133.33 1474.26 Q2137.93 1469.61 2139.11 1468.27 Q2141.36 1465.74 2142.24 1464.01 Q2143.14 1462.25 2143.14 1460.56 Q2143.14 1457.8 2141.2 1456.07 Q2139.27 1454.33 2136.17 1454.33 Q2133.97 1454.33 2131.52 1455.09 Q2129.09 1455.86 2126.31 1457.41 L2126.31 1452.69 Q2129.14 1451.55 2131.59 1450.97 Q2134.04 1450.39 2136.08 1450.39 Q2141.45 1450.39 2144.65 1453.08 Q2147.84 1455.77 2147.84 1460.26 Q2147.84 1462.39 2147.03 1464.31 Q2146.24 1466.2 2144.14 1468.8 Q2143.56 1469.47 2140.46 1472.69 Q2137.35 1475.88 2131.71 1481.64 Z" fill="#000000" fill-rule="evenodd" fill-opacity="1"></path><path clip-path="url(#clip680)" d="M2157.84 1479.7 L2162.72 1479.7 L2162.72 1485.58 L2157.84 1485.58 L2157.84 1479.7 Z" fill="#000000" fill-rule="evenodd" fill-opacity="1"></path><path clip-path="url(#clip680)" d="M2185.76 1455.09 L2173.95 1473.54 L2185.76 1473.54 L2185.76 1455.09 M2184.53 1451.02 L2190.41 1451.02 L2190.41 1473.54 L2195.34 1473.54 L2195.34 1477.43 L2190.41 1477.43 L2190.41 1485.58 L2185.76 1485.58 L2185.76 1477.43 L2170.15 1477.43 L2170.15 1472.92 L2184.53 1451.02 Z" fill="#000000" fill-rule="evenodd" fill-opacity="1"></path><path clip-path="url(#clip680)" d="M1146.3 1518.52 L1152.15 1518.52 L1152.15 1568.04 L1146.3 1568.04 L1146.3 1518.52 Z" fill="#000000" fill-rule="evenodd" fill-opacity="1"></path><path clip-path="url(#clip680)" d="M1178.22 1536.5 Q1173.51 1536.5 1170.77 1540.19 Q1168.03 1543.85 1168.03 1550.25 Q1168.03 1556.65 1170.74 1560.34 Q1173.48 1564 1178.22 1564 Q1182.9 1564 1185.64 1560.31 Q1188.37 1556.62 1188.37 1550.25 Q1188.37 1543.92 1185.64 1540.23 Q1182.9 1536.5 1178.22 1536.5 M1178.22 1531.54 Q1185.86 1531.54 1190.22 1536.5 Q1194.58 1541.47 1194.58 1550.25 Q1194.58 1559 1190.22 1564 Q1185.86 1568.97 1178.22 1568.97 Q1170.55 1568.97 1166.19 1564 Q1161.86 1559 1161.86 1550.25 Q1161.86 1541.47 1166.19 1536.5 Q1170.55 1531.54 1178.22 1531.54 Z" fill="#000000" fill-rule="evenodd" fill-opacity="1"></path><path clip-path="url(#clip680)" d="M1227.75 1549.81 Q1227.75 1543.44 1225.1 1539.94 Q1222.49 1536.44 1217.75 1536.44 Q1213.04 1536.44 1210.4 1539.94 Q1207.79 1543.44 1207.79 1549.81 Q1207.79 1556.14 1210.4 1559.64 Q1213.04 1563.14 1217.75 1563.14 Q1222.49 1563.14 1225.1 1559.64 Q1227.75 1556.14 1227.75 1549.81 M1233.6 1563.62 Q1233.6 1572.72 1229.56 1577.15 Q1225.52 1581.6 1217.18 1581.6 Q1214.09 1581.6 1211.35 1581.13 Q1208.62 1580.68 1206.04 1579.72 L1206.04 1574.03 Q1208.62 1575.43 1211.13 1576.1 Q1213.65 1576.76 1216.26 1576.76 Q1222.02 1576.76 1224.88 1573.74 Q1227.75 1570.75 1227.75 1564.67 L1227.75 1561.77 Q1225.93 1564.92 1223.1 1566.48 Q1220.27 1568.04 1216.32 1568.04 Q1209.76 1568.04 1205.75 1563.05 Q1201.74 1558.05 1201.74 1549.81 Q1201.74 1541.53 1205.75 1536.53 Q1209.76 1531.54 1216.32 1531.54 Q1220.27 1531.54 1223.1 1533.1 Q1225.93 1534.66 1227.75 1537.81 L1227.75 1532.4 L1233.6 1532.4 L1233.6 1563.62 Z" fill="#000000" fill-rule="evenodd" fill-opacity="1"></path><path clip-path="url(#clip680)" d="M1272.75 1578.87 L1272.75 1583.42 L1238.89 1583.42 L1238.89 1578.87 L1272.75 1578.87 Z" fill="#000000" fill-rule="evenodd" fill-opacity="1"></path><path clip-path="url(#clip680)" d="M1280.2 1562.63 L1290.7 1562.63 L1290.7 1526.38 L1279.28 1528.67 L1279.28 1522.82 L1290.64 1520.52 L1297.07 1520.52 L1297.07 1562.63 L1307.57 1562.63 L1307.57 1568.04 L1280.2 1568.04 L1280.2 1562.63 Z" fill="#000000" fill-rule="evenodd" fill-opacity="1"></path><path clip-path="url(#clip680)" d="M1334.31 1524.76 Q1329.34 1524.76 1326.83 1529.66 Q1324.34 1534.53 1324.34 1544.33 Q1324.34 1554.1 1326.83 1559 Q1329.34 1563.87 1334.31 1563.87 Q1339.3 1563.87 1341.79 1559 Q1344.3 1554.1 1344.3 1544.33 Q1344.3 1534.53 1341.79 1529.66 Q1339.3 1524.76 1334.31 1524.76 M1334.31 1519.66 Q1342.3 1519.66 1346.5 1526 Q1350.73 1532.3 1350.73 1544.33 Q1350.73 1556.33 1346.5 1562.66 Q1342.3 1568.97 1334.31 1568.97 Q1326.32 1568.97 1322.08 1562.66 Q1317.88 1556.33 1317.88 1544.33 Q1317.88 1532.3 1322.08 1526 Q1326.32 1519.66 1334.31 1519.66 Z" fill="#000000" fill-rule="evenodd" fill-opacity="1"></path><path clip-path="url(#clip680)" d="M1375.27 1518.58 Q1371.01 1525.9 1368.94 1533.06 Q1366.87 1540.23 1366.87 1547.58 Q1366.87 1554.93 1368.94 1562.16 Q1371.04 1569.35 1375.27 1576.64 L1370.18 1576.64 Q1365.4 1569.16 1363.02 1561.93 Q1360.66 1554.71 1360.66 1547.58 Q1360.66 1540.48 1363.02 1533.29 Q1365.37 1526.09 1370.18 1518.58 L1375.27 1518.58 Z" fill="#000000" fill-rule="evenodd" fill-opacity="1"></path><path clip-path="url(#clip680)" d="M1386.89 1520.52 L1395.55 1520.52 L1416.62 1560.28 L1416.62 1520.52 L1422.85 1520.52 L1422.85 1568.04 L1414.2 1568.04 L1393.13 1528.29 L1393.13 1568.04 L1386.89 1568.04 L1386.89 1520.52 Z" fill="#000000" fill-rule="evenodd" fill-opacity="1"></path><path clip-path="url(#clip680)" d="M1434.47 1518.58 L1439.56 1518.58 Q1444.34 1526.09 1446.69 1533.29 Q1449.08 1540.48 1449.08 1547.58 Q1449.08 1554.71 1446.69 1561.93 Q1444.34 1569.16 1439.56 1576.64 L1434.47 1576.64 Q1438.7 1569.35 1440.77 1562.16 Q1442.87 1554.93 1442.87 1547.58 Q1442.87 1540.23 1440.77 1533.06 Q1438.7 1525.9 1434.47 1518.58 Z" fill="#000000" fill-rule="evenodd" fill-opacity="1"></path><polyline clip-path="url(#clip682)" style="stroke:#000000; stroke-linecap:round; stroke-linejoin:round; stroke-width:2; stroke-opacity:0.1; fill:none" points="
  242.621,1155.16 2352.76,1155.16 
  "></polyline>
<polyline clip-path="url(#clip682)" style="stroke:#000000; stroke-linecap:round; stroke-linejoin:round; stroke-width:2; stroke-opacity:0.1; fill:none" points="
  242.621,850.444 2352.76,850.444 
  "></polyline>
<polyline clip-path="url(#clip682)" style="stroke:#000000; stroke-linecap:round; stroke-linejoin:round; stroke-width:2; stroke-opacity:0.1; fill:none" points="
  242.621,545.729 2352.76,545.729 
  "></polyline>
<polyline clip-path="url(#clip682)" style="stroke:#000000; stroke-linecap:round; stroke-linejoin:round; stroke-width:2; stroke-opacity:0.1; fill:none" points="
  242.621,241.015 2352.76,241.015 
  "></polyline>
<polyline clip-path="url(#clip680)" style="stroke:#000000; stroke-linecap:round; stroke-linejoin:round; stroke-width:4; stroke-opacity:1; fill:none" points="
  242.621,1423.18 242.621,183.952 
  "></polyline>
<polyline clip-path="url(#clip680)" style="stroke:#000000; stroke-linecap:round; stroke-linejoin:round; stroke-width:4; stroke-opacity:1; fill:none" points="
  242.621,1155.16 261.518,1155.16 
  "></polyline>
<polyline clip-path="url(#clip680)" style="stroke:#000000; stroke-linecap:round; stroke-linejoin:round; stroke-width:4; stroke-opacity:1; fill:none" points="
  242.621,850.444 261.518,850.444 
  "></polyline>
<polyline clip-path="url(#clip680)" style="stroke:#000000; stroke-linecap:round; stroke-linejoin:round; stroke-width:4; stroke-opacity:1; fill:none" points="
  242.621,545.729 261.518,545.729 
  "></polyline>
<polyline clip-path="url(#clip680)" style="stroke:#000000; stroke-linecap:round; stroke-linejoin:round; stroke-width:4; stroke-opacity:1; fill:none" points="
  242.621,241.015 261.518,241.015 
  "></polyline>
<path clip-path="url(#clip680)" d="M114.839 1155.61 L144.515 1155.61 L144.515 1159.54 L114.839 1159.54 L114.839 1155.61 Z" fill="#000000" fill-rule="evenodd" fill-opacity="1"></path><path clip-path="url(#clip680)" d="M158.635 1168.5 L174.954 1168.5 L174.954 1172.44 L153.01 1172.44 L153.01 1168.5 Q155.672 1165.75 160.255 1161.12 Q164.862 1156.47 166.042 1155.12 Q168.288 1152.6 169.167 1150.86 Q170.07 1149.1 170.07 1147.41 Q170.07 1144.66 168.126 1142.92 Q166.204 1141.19 163.102 1141.19 Q160.903 1141.19 158.45 1141.95 Q156.019 1142.72 153.241 1144.27 L153.241 1139.54 Q156.065 1138.41 158.519 1137.83 Q160.973 1137.25 163.01 1137.25 Q168.38 1137.25 171.575 1139.94 Q174.769 1142.62 174.769 1147.11 Q174.769 1149.24 173.959 1151.16 Q173.172 1153.06 171.065 1155.66 Q170.487 1156.33 167.385 1159.54 Q164.283 1162.74 158.635 1168.5 Z" fill="#000000" fill-rule="evenodd" fill-opacity="1"></path><path clip-path="url(#clip680)" d="M194.769 1156.03 Q191.436 1156.03 189.514 1157.81 Q187.616 1159.59 187.616 1162.72 Q187.616 1165.84 189.514 1167.62 Q191.436 1169.41 194.769 1169.41 Q198.102 1169.41 200.024 1167.62 Q201.945 1165.82 201.945 1162.72 Q201.945 1159.59 200.024 1157.81 Q198.125 1156.03 194.769 1156.03 M190.093 1154.04 Q187.084 1153.29 185.394 1151.23 Q183.727 1149.17 183.727 1146.21 Q183.727 1142.07 186.667 1139.66 Q189.63 1137.25 194.769 1137.25 Q199.931 1137.25 202.871 1139.66 Q205.811 1142.07 205.811 1146.21 Q205.811 1149.17 204.121 1151.23 Q202.454 1153.29 199.468 1154.04 Q202.848 1154.82 204.723 1157.11 Q206.621 1159.41 206.621 1162.72 Q206.621 1167.74 203.542 1170.42 Q200.487 1173.11 194.769 1173.11 Q189.051 1173.11 185.973 1170.42 Q182.917 1167.74 182.917 1162.72 Q182.917 1159.41 184.815 1157.11 Q186.713 1154.82 190.093 1154.04 M188.38 1146.65 Q188.38 1149.34 190.047 1150.84 Q191.737 1152.35 194.769 1152.35 Q197.778 1152.35 199.468 1150.84 Q201.181 1149.34 201.181 1146.65 Q201.181 1143.97 199.468 1142.46 Q197.778 1140.96 194.769 1140.96 Q191.737 1140.96 190.047 1142.46 Q188.38 1143.97 188.38 1146.65 Z" fill="#000000" fill-rule="evenodd" fill-opacity="1"></path><path clip-path="url(#clip680)" d="M114.584 850.895 L144.26 850.895 L144.26 854.83 L114.584 854.83 L114.584 850.895 Z" fill="#000000" fill-rule="evenodd" fill-opacity="1"></path><path clip-path="url(#clip680)" d="M158.38 863.788 L174.7 863.788 L174.7 867.724 L152.755 867.724 L152.755 863.788 Q155.417 861.034 160.001 856.404 Q164.607 851.751 165.788 850.409 Q168.033 847.886 168.913 846.15 Q169.815 844.39 169.815 842.701 Q169.815 839.946 167.871 838.21 Q165.95 836.474 162.848 836.474 Q160.649 836.474 158.195 837.238 Q155.765 838.002 152.987 839.552 L152.987 834.83 Q155.811 833.696 158.265 833.117 Q160.718 832.539 162.755 832.539 Q168.126 832.539 171.32 835.224 Q174.514 837.909 174.514 842.4 Q174.514 844.529 173.704 846.451 Q172.917 848.349 170.811 850.941 Q170.232 851.613 167.13 854.83 Q164.028 858.025 158.38 863.788 Z" fill="#000000" fill-rule="evenodd" fill-opacity="1"></path><path clip-path="url(#clip680)" d="M195.093 848.58 Q191.945 848.58 190.093 850.733 Q188.264 852.886 188.264 856.636 Q188.264 860.363 190.093 862.538 Q191.945 864.691 195.093 864.691 Q198.241 864.691 200.07 862.538 Q201.922 860.363 201.922 856.636 Q201.922 852.886 200.07 850.733 Q198.241 848.58 195.093 848.58 M204.375 833.927 L204.375 838.187 Q202.616 837.353 200.811 836.914 Q199.028 836.474 197.269 836.474 Q192.639 836.474 190.186 839.599 Q187.755 842.724 187.408 849.043 Q188.774 847.029 190.834 845.964 Q192.894 844.876 195.371 844.876 Q200.579 844.876 203.588 848.048 Q206.621 851.196 206.621 856.636 Q206.621 861.96 203.473 865.177 Q200.325 868.395 195.093 868.395 Q189.098 868.395 185.926 863.812 Q182.755 859.205 182.755 850.478 Q182.755 842.284 186.644 837.423 Q190.533 832.539 197.084 832.539 Q198.843 832.539 200.625 832.886 Q202.431 833.233 204.375 833.927 Z" fill="#000000" fill-rule="evenodd" fill-opacity="1"></path><path clip-path="url(#clip680)" d="M114.26 546.181 L143.936 546.181 L143.936 550.116 L114.26 550.116 L114.26 546.181 Z" fill="#000000" fill-rule="evenodd" fill-opacity="1"></path><path clip-path="url(#clip680)" d="M158.056 559.074 L174.376 559.074 L174.376 563.009 L152.431 563.009 L152.431 559.074 Q155.093 556.319 159.677 551.69 Q164.283 547.037 165.464 545.694 Q167.709 543.171 168.589 541.435 Q169.491 539.676 169.491 537.986 Q169.491 535.232 167.547 533.495 Q165.626 531.759 162.524 531.759 Q160.325 531.759 157.871 532.523 Q155.44 533.287 152.663 534.838 L152.663 530.116 Q155.487 528.982 157.94 528.403 Q160.394 527.824 162.431 527.824 Q167.802 527.824 170.996 530.509 Q174.19 533.195 174.19 537.685 Q174.19 539.815 173.38 541.736 Q172.593 543.634 170.487 546.227 Q169.908 546.898 166.806 550.116 Q163.704 553.31 158.056 559.074 Z" fill="#000000" fill-rule="evenodd" fill-opacity="1"></path><path clip-path="url(#clip680)" d="M197.037 532.523 L185.232 550.972 L197.037 550.972 L197.037 532.523 M195.811 528.449 L201.69 528.449 L201.69 550.972 L206.621 550.972 L206.621 554.861 L201.69 554.861 L201.69 563.009 L197.037 563.009 L197.037 554.861 L181.436 554.861 L181.436 550.347 L195.811 528.449 Z" fill="#000000" fill-rule="evenodd" fill-opacity="1"></path><path clip-path="url(#clip680)" d="M116.343 241.466 L146.019 241.466 L146.019 245.401 L116.343 245.401 L116.343 241.466 Z" fill="#000000" fill-rule="evenodd" fill-opacity="1"></path><path clip-path="url(#clip680)" d="M160.14 254.36 L176.459 254.36 L176.459 258.295 L154.515 258.295 L154.515 254.36 Q157.177 251.605 161.76 246.975 Q166.366 242.323 167.547 240.98 Q169.792 238.457 170.672 236.721 Q171.575 234.962 171.575 233.272 Q171.575 230.517 169.63 228.781 Q167.709 227.045 164.607 227.045 Q162.408 227.045 159.954 227.809 Q157.524 228.573 154.746 230.124 L154.746 225.401 Q157.57 224.267 160.024 223.688 Q162.477 223.11 164.515 223.11 Q169.885 223.11 173.079 225.795 Q176.274 228.48 176.274 232.971 Q176.274 235.1 175.464 237.022 Q174.677 238.92 172.57 241.512 Q171.991 242.184 168.889 245.401 Q165.788 248.596 160.14 254.36 Z" fill="#000000" fill-rule="evenodd" fill-opacity="1"></path><path clip-path="url(#clip680)" d="M190.301 254.36 L206.621 254.36 L206.621 258.295 L184.676 258.295 L184.676 254.36 Q187.338 251.605 191.922 246.975 Q196.528 242.323 197.709 240.98 Q199.954 238.457 200.834 236.721 Q201.737 234.962 201.737 233.272 Q201.737 230.517 199.792 228.781 Q197.871 227.045 194.769 227.045 Q192.57 227.045 190.116 227.809 Q187.686 228.573 184.908 230.124 L184.908 225.401 Q187.732 224.267 190.186 223.688 Q192.639 223.11 194.676 223.11 Q200.047 223.11 203.241 225.795 Q206.436 228.48 206.436 232.971 Q206.436 235.1 205.625 237.022 Q204.838 238.92 202.732 241.512 Q202.153 242.184 199.051 245.401 Q195.95 248.596 190.301 254.36 Z" fill="#000000" fill-rule="evenodd" fill-opacity="1"></path><path clip-path="url(#clip680)" d="M14.479 1091.88 L14.479 1086.03 L64.0042 1086.03 L64.0042 1091.88 L14.479 1091.88 Z" fill="#000000" fill-rule="evenodd" fill-opacity="1"></path><path clip-path="url(#clip680)" d="M32.4621 1059.96 Q32.4621 1064.67 36.1542 1067.41 Q39.8145 1070.15 46.212 1070.15 Q52.6095 1070.15 56.3017 1067.44 Q59.9619 1064.7 59.9619 1059.96 Q59.9619 1055.28 56.2698 1052.54 Q52.5777 1049.81 46.212 1049.81 Q39.8781 1049.81 36.186 1052.54 Q32.4621 1055.28 32.4621 1059.96 M27.4968 1059.96 Q27.4968 1052.32 32.4621 1047.96 Q37.4273 1043.6 46.212 1043.6 Q54.9649 1043.6 59.9619 1047.96 Q64.9272 1052.32 64.9272 1059.96 Q64.9272 1067.63 59.9619 1071.99 Q54.9649 1076.32 46.212 1076.32 Q37.4273 1076.32 32.4621 1071.99 Q27.4968 1067.63 27.4968 1059.96 Z" fill="#000000" fill-rule="evenodd" fill-opacity="1"></path><path clip-path="url(#clip680)" d="M45.7664 1010.44 Q39.4007 1010.44 35.8996 1013.08 Q32.3984 1015.69 32.3984 1020.43 Q32.3984 1025.14 35.8996 1027.78 Q39.4007 1030.39 45.7664 1030.39 Q52.1003 1030.39 55.6014 1027.78 Q59.1026 1025.14 59.1026 1020.43 Q59.1026 1015.69 55.6014 1013.08 Q52.1003 1010.44 45.7664 1010.44 M59.58 1004.58 Q68.683 1004.58 73.1071 1008.62 Q77.5631 1012.66 77.5631 1021 Q77.5631 1024.09 77.0857 1026.83 Q76.6401 1029.56 75.6852 1032.14 L69.9879 1032.14 Q71.3884 1029.56 72.0568 1027.05 Q72.7252 1024.54 72.7252 1021.93 Q72.7252 1016.16 69.7015 1013.3 Q66.7096 1010.44 60.6303 1010.44 L57.7339 1010.44 Q60.885 1012.25 62.4446 1015.08 Q64.0042 1017.92 64.0042 1021.86 Q64.0042 1028.42 59.0071 1032.43 Q54.01 1036.44 45.7664 1036.44 Q37.491 1036.44 32.4939 1032.43 Q27.4968 1028.42 27.4968 1021.86 Q27.4968 1017.92 29.0564 1015.08 Q30.616 1012.25 33.7671 1010.44 L28.3562 1010.44 L28.3562 1004.58 L59.58 1004.58 Z" fill="#000000" fill-rule="evenodd" fill-opacity="1"></path><path clip-path="url(#clip680)" d="M74.8259 965.43 L79.3773 965.43 L79.3773 999.296 L74.8259 999.296 L74.8259 965.43 Z" fill="#000000" fill-rule="evenodd" fill-opacity="1"></path><path clip-path="url(#clip680)" d="M58.5933 957.982 L58.5933 947.479 L22.3406 947.479 L24.6323 958.905 L18.7758 958.905 L16.4842 947.542 L16.4842 941.113 L58.5933 941.113 L58.5933 930.61 L64.0042 930.61 L64.0042 957.982 L58.5933 957.982 Z" fill="#000000" fill-rule="evenodd" fill-opacity="1"></path><path clip-path="url(#clip680)" d="M20.7174 903.874 Q20.7174 908.839 25.6189 911.353 Q30.4887 913.836 40.2919 913.836 Q50.0633 913.836 54.9649 911.353 Q59.8346 908.839 59.8346 903.874 Q59.8346 898.877 54.9649 896.394 Q50.0633 893.879 40.2919 893.879 Q30.4887 893.879 25.6189 896.394 Q20.7174 898.877 20.7174 903.874 M15.6248 903.874 Q15.6248 895.885 21.9587 891.683 Q28.2607 887.45 40.2919 887.45 Q52.2913 887.45 58.6251 891.683 Q64.9272 895.885 64.9272 903.874 Q64.9272 911.863 58.6251 916.096 Q52.2913 920.297 40.2919 920.297 Q28.2607 920.297 21.9587 916.096 Q15.6248 911.863 15.6248 903.874 Z" fill="#000000" fill-rule="evenodd" fill-opacity="1"></path><path clip-path="url(#clip680)" d="M14.5426 862.91 Q21.8632 867.175 29.0246 869.244 Q36.186 871.313 43.5384 871.313 Q50.8908 871.313 58.1159 869.244 Q65.3091 867.143 72.5979 862.91 L72.5979 868.003 Q65.1182 872.777 57.8931 875.164 Q50.668 877.52 43.5384 877.52 Q36.4406 877.52 29.2474 875.164 Q22.0542 872.809 14.5426 868.003 L14.5426 862.91 Z" fill="#000000" fill-rule="evenodd" fill-opacity="1"></path><path clip-path="url(#clip680)" d="M14.1925 844.004 L79.3773 844.004 L79.3773 849.415 L14.1925 849.415 L14.1925 844.004 Z" fill="#000000" fill-rule="evenodd" fill-opacity="1"></path><path clip-path="url(#clip680)" d="M21.7677 822.902 L39.6235 822.902 L39.6235 814.817 Q39.6235 810.33 37.3 807.879 Q34.9765 805.428 30.6797 805.428 Q26.4147 805.428 24.0912 807.879 Q21.7677 810.33 21.7677 814.817 L21.7677 822.902 M16.4842 829.331 L16.4842 814.817 Q16.4842 806.828 20.1126 802.754 Q23.7092 798.648 30.6797 798.648 Q37.7138 798.648 41.3104 802.754 Q44.907 806.828 44.907 814.817 L44.907 822.902 L64.0042 822.902 L64.0042 829.331 L16.4842 829.331 Z" fill="#000000" fill-rule="evenodd" fill-opacity="1"></path><path clip-path="url(#clip680)" d="M22.818 778.31 L46.4666 787.031 L46.4666 769.557 L22.818 778.31 M16.4842 781.938 L16.4842 774.65 L64.0042 756.539 L64.0042 763.223 L51.8138 767.552 L51.8138 788.973 L64.0042 793.301 L64.0042 800.081 L16.4842 781.938 Z" fill="#000000" fill-rule="evenodd" fill-opacity="1"></path><path clip-path="url(#clip680)" d="M43.5384 754.248 L43.5384 737.092 L48.7583 737.092 L48.7583 754.248 L43.5384 754.248 Z" fill="#000000" fill-rule="evenodd" fill-opacity="1"></path><path clip-path="url(#clip680)" d="M16.4842 727.512 L16.4842 721.082 L58.5933 721.082 L58.5933 697.943 L64.0042 697.943 L64.0042 727.512 L16.4842 727.512 Z" fill="#000000" fill-rule="evenodd" fill-opacity="1"></path><path clip-path="url(#clip680)" d="M16.4842 695.174 L16.4842 688.713 L45.3526 688.713 Q52.9915 688.713 56.3653 685.944 Q59.7073 683.175 59.7073 676.968 Q59.7073 670.793 56.3653 668.024 Q52.9915 665.255 45.3526 665.255 L16.4842 665.255 L16.4842 658.794 L46.1484 658.794 Q55.4423 658.794 60.1847 663.409 Q64.9272 667.992 64.9272 676.968 Q64.9272 685.975 60.1847 690.591 Q55.4423 695.174 46.1484 695.174 L16.4842 695.174 Z" fill="#000000" fill-rule="evenodd" fill-opacity="1"></path><path clip-path="url(#clip680)" d="M14.1925 639.442 L79.3773 639.442 L79.3773 644.853 L14.1925 644.853 L14.1925 639.442 Z" fill="#000000" fill-rule="evenodd" fill-opacity="1"></path><path clip-path="url(#clip680)" d="M16.4842 600.739 L34.2127 583.456 L34.2127 589.853 L21.6404 603.858 L34.2127 617.862 L34.2127 624.26 L16.4842 606.977 L16.4842 600.739 Z" fill="#000000" fill-rule="evenodd" fill-opacity="1"></path><path clip-path="url(#clip680)" d="M58.5933 564.04 L58.5933 541.601 L64.0042 541.601 L64.0042 571.775 L58.5933 571.775 Q54.8057 568.114 48.44 561.812 Q42.0425 555.478 40.1964 553.855 Q36.7271 550.768 34.34 549.558 Q31.921 548.317 29.5975 548.317 Q25.8099 548.317 23.4228 550.991 Q21.0356 553.632 21.0356 557.897 Q21.0356 560.921 22.086 564.295 Q23.1363 567.637 25.2688 571.456 L18.7758 571.456 Q17.2162 567.573 16.4205 564.2 Q15.6248 560.826 15.6248 558.025 Q15.6248 550.641 19.3169 546.248 Q23.009 541.856 29.1837 541.856 Q32.112 541.856 34.7537 542.97 Q37.3637 544.052 40.9285 546.948 Q41.8515 547.744 46.2757 552.009 Q50.668 556.274 58.5933 564.04 Z" fill="#000000" fill-rule="evenodd" fill-opacity="1"></path><path clip-path="url(#clip680)" d="M14.5426 529.857 L14.5426 524.764 Q22.0542 519.99 29.2474 517.634 Q36.4406 515.247 43.5384 515.247 Q50.668 515.247 57.8931 517.634 Q65.1182 519.99 72.5979 524.764 L72.5979 529.857 Q65.3091 525.623 58.1159 523.554 Q50.8908 521.454 43.5384 521.454 Q36.186 521.454 29.0246 523.554 Q21.8632 525.623 14.5426 529.857 Z" fill="#000000" fill-rule="evenodd" fill-opacity="1"></path><path clip-path="url(#clip680)" d="M840.888 39.9885 L840.888 62.7141 L851.177 62.7141 Q856.889 62.7141 860.008 59.7569 Q863.128 56.7998 863.128 51.331 Q863.128 45.9028 860.008 42.9457 Q856.889 39.9885 851.177 39.9885 L840.888 39.9885 M832.705 33.264 L851.177 33.264 Q861.345 33.264 866.53 37.882 Q871.756 42.4596 871.756 51.331 Q871.756 60.2835 866.53 64.8611 Q861.345 69.4386 851.177 69.4386 L840.888 69.4386 L840.888 93.744 L832.705 93.744 L832.705 33.264 Z" fill="#000000" fill-rule="evenodd" fill-opacity="1"></path><path clip-path="url(#clip680)" d="M882.734 33.264 L890.917 33.264 L890.917 86.8575 L920.367 86.8575 L920.367 93.744 L882.734 93.744 L882.734 33.264 Z" fill="#000000" fill-rule="evenodd" fill-opacity="1"></path><path clip-path="url(#clip680)" d="M923.891 33.264 L932.114 33.264 L932.114 70.0057 Q932.114 79.7279 935.639 84.0218 Q939.163 88.2753 947.062 88.2753 Q954.921 88.2753 958.445 84.0218 Q961.97 79.7279 961.97 70.0057 L961.97 33.264 L970.193 33.264 L970.193 71.0184 Q970.193 82.8471 964.319 88.8829 Q958.486 94.9188 947.062 94.9188 Q935.598 94.9188 929.724 88.8829 Q923.891 82.8471 923.891 71.0184 L923.891 33.264 Z" fill="#000000" fill-rule="evenodd" fill-opacity="1"></path><path clip-path="url(#clip680)" d="M1011.92 33.264 L1046.67 33.264 L1046.67 40.1505 L1020.1 40.1505 L1020.1 57.9745 L1044.08 57.9745 L1044.08 64.8611 L1020.1 64.8611 L1020.1 93.744 L1011.92 93.744 L1011.92 33.264 Z" fill="#000000" fill-rule="evenodd" fill-opacity="1"></path><path clip-path="url(#clip680)" d="M1072.32 70.9374 Q1063.28 70.9374 1059.8 73.0034 Q1056.32 75.0693 1056.32 80.0519 Q1056.32 84.0218 1058.91 86.3714 Q1061.54 88.6804 1066.04 88.6804 Q1072.24 88.6804 1075.96 84.3054 Q1079.73 79.8899 1079.73 72.5983 L1079.73 70.9374 L1072.32 70.9374 M1087.18 67.8587 L1087.18 93.744 L1079.73 93.744 L1079.73 86.8575 Q1077.18 90.9894 1073.37 92.9743 Q1069.56 94.9188 1064.05 94.9188 Q1057.08 94.9188 1052.95 91.0299 Q1048.86 87.1005 1048.86 80.5381 Q1048.86 72.8818 1053.97 68.993 Q1059.11 65.1041 1069.28 65.1041 L1079.73 65.1041 L1079.73 64.3749 Q1079.73 59.2303 1076.33 56.4352 Q1072.96 53.5995 1066.85 53.5995 Q1062.96 53.5995 1059.27 54.5312 Q1055.59 55.463 1052.18 57.3264 L1052.18 50.4398 Q1056.27 48.86 1060.12 48.0903 Q1063.97 47.2801 1067.62 47.2801 Q1077.46 47.2801 1082.32 52.3843 Q1087.18 57.4884 1087.18 67.8587 Z" fill="#000000" fill-rule="evenodd" fill-opacity="1"></path><path clip-path="url(#clip680)" d="M1135.19 50.1158 L1135.19 57.0833 Q1132.03 55.3414 1128.83 54.4907 Q1125.67 53.5995 1122.43 53.5995 Q1115.17 53.5995 1111.16 58.2176 Q1107.15 62.7951 1107.15 71.0994 Q1107.15 79.4038 1111.16 84.0218 Q1115.17 88.5994 1122.43 88.5994 Q1125.67 88.5994 1128.83 87.7487 Q1132.03 86.8575 1135.19 85.1156 L1135.19 92.0021 Q1132.07 93.4604 1128.7 94.1896 Q1125.38 94.9188 1121.62 94.9188 Q1111.37 94.9188 1105.33 88.4778 Q1099.3 82.0369 1099.3 71.0994 Q1099.3 60 1105.37 53.64 Q1111.49 47.2801 1122.1 47.2801 Q1125.55 47.2801 1128.83 48.0093 Q1132.11 48.6979 1135.19 50.1158 Z" fill="#000000" fill-rule="evenodd" fill-opacity="1"></path><path clip-path="url(#clip680)" d="M1155.52 35.492 L1155.52 48.3739 L1170.87 48.3739 L1170.87 54.1667 L1155.52 54.1667 L1155.52 78.7962 Q1155.52 84.3459 1157.02 85.9258 Q1158.56 87.5056 1163.22 87.5056 L1170.87 87.5056 L1170.87 93.744 L1163.22 93.744 Q1154.59 93.744 1151.31 90.5438 Q1148.03 87.3031 1148.03 78.7962 L1148.03 54.1667 L1142.56 54.1667 L1142.56 48.3739 L1148.03 48.3739 L1148.03 35.492 L1155.52 35.492 Z" fill="#000000" fill-rule="evenodd" fill-opacity="1"></path><path clip-path="url(#clip680)" d="M1198.26 53.5995 Q1192.26 53.5995 1188.78 58.2986 Q1185.3 62.9571 1185.3 71.0994 Q1185.3 79.2418 1188.74 83.9408 Q1192.22 88.5994 1198.26 88.5994 Q1204.21 88.5994 1207.7 83.9003 Q1211.18 79.2013 1211.18 71.0994 Q1211.18 63.0381 1207.7 58.3391 Q1204.21 53.5995 1198.26 53.5995 M1198.26 47.2801 Q1207.98 47.2801 1213.53 53.5995 Q1219.08 59.9189 1219.08 71.0994 Q1219.08 82.2394 1213.53 88.5994 Q1207.98 94.9188 1198.26 94.9188 Q1188.5 94.9188 1182.95 88.5994 Q1177.44 82.2394 1177.44 71.0994 Q1177.44 59.9189 1182.95 53.5995 Q1188.5 47.2801 1198.26 47.2801 Z" fill="#000000" fill-rule="evenodd" fill-opacity="1"></path><path clip-path="url(#clip680)" d="M1257.73 55.3414 Q1256.47 54.6123 1254.97 54.2882 Q1253.51 53.9236 1251.73 53.9236 Q1245.41 53.9236 1242.01 58.0555 Q1238.65 62.1469 1238.65 69.8437 L1238.65 93.744 L1231.15 93.744 L1231.15 48.3739 L1238.65 48.3739 L1238.65 55.4224 Q1241 51.2905 1244.76 49.3056 Q1248.53 47.2801 1253.92 47.2801 Q1254.69 47.2801 1255.62 47.4017 Q1256.55 47.4827 1257.69 47.6852 L1257.73 55.3414 Z" fill="#000000" fill-rule="evenodd" fill-opacity="1"></path><path clip-path="url(#clip680)" d="M1265.54 48.3739 L1273 48.3739 L1273 93.744 L1265.54 93.744 L1265.54 48.3739 M1265.54 30.7119 L1273 30.7119 L1273 40.1505 L1265.54 40.1505 L1265.54 30.7119 Z" fill="#000000" fill-rule="evenodd" fill-opacity="1"></path><path clip-path="url(#clip680)" d="M1285.35 48.3739 L1320.76 48.3739 L1320.76 55.1794 L1292.73 87.7892 L1320.76 87.7892 L1320.76 93.744 L1284.34 93.744 L1284.34 86.9385 L1312.37 54.3287 L1285.35 54.3287 L1285.35 48.3739 Z" fill="#000000" fill-rule="evenodd" fill-opacity="1"></path><path clip-path="url(#clip680)" d="M1352.76 70.9374 Q1343.73 70.9374 1340.24 73.0034 Q1336.76 75.0693 1336.76 80.0519 Q1336.76 84.0218 1339.35 86.3714 Q1341.98 88.6804 1346.48 88.6804 Q1352.68 88.6804 1356.41 84.3054 Q1360.17 79.8899 1360.17 72.5983 L1360.17 70.9374 L1352.76 70.9374 M1367.63 67.8587 L1367.63 93.744 L1360.17 93.744 L1360.17 86.8575 Q1357.62 90.9894 1353.81 92.9743 Q1350.01 94.9188 1344.5 94.9188 Q1337.53 94.9188 1333.4 91.0299 Q1329.31 87.1005 1329.31 80.5381 Q1329.31 72.8818 1334.41 68.993 Q1339.55 65.1041 1349.72 65.1041 L1360.17 65.1041 L1360.17 64.3749 Q1360.17 59.2303 1356.77 56.4352 Q1353.41 53.5995 1347.29 53.5995 Q1343.4 53.5995 1339.72 54.5312 Q1336.03 55.463 1332.63 57.3264 L1332.63 50.4398 Q1336.72 48.86 1340.57 48.0903 Q1344.42 47.2801 1348.06 47.2801 Q1357.91 47.2801 1362.77 52.3843 Q1367.63 57.4884 1367.63 67.8587 Z" fill="#000000" fill-rule="evenodd" fill-opacity="1"></path><path clip-path="url(#clip680)" d="M1390.35 35.492 L1390.35 48.3739 L1405.71 48.3739 L1405.71 54.1667 L1390.35 54.1667 L1390.35 78.7962 Q1390.35 84.3459 1391.85 85.9258 Q1393.39 87.5056 1398.05 87.5056 L1405.71 87.5056 L1405.71 93.744 L1398.05 93.744 Q1389.42 93.744 1386.14 90.5438 Q1382.86 87.3031 1382.86 78.7962 L1382.86 54.1667 L1377.39 54.1667 L1377.39 48.3739 L1382.86 48.3739 L1382.86 35.492 L1390.35 35.492 Z" fill="#000000" fill-rule="evenodd" fill-opacity="1"></path><path clip-path="url(#clip680)" d="M1415.51 48.3739 L1422.96 48.3739 L1422.96 93.744 L1415.51 93.744 L1415.51 48.3739 M1415.51 30.7119 L1422.96 30.7119 L1422.96 40.1505 L1415.51 40.1505 L1415.51 30.7119 Z" fill="#000000" fill-rule="evenodd" fill-opacity="1"></path><path clip-path="url(#clip680)" d="M1456.14 53.5995 Q1450.14 53.5995 1446.66 58.2986 Q1443.18 62.9571 1443.18 71.0994 Q1443.18 79.2418 1446.62 83.9408 Q1450.1 88.5994 1456.14 88.5994 Q1462.09 88.5994 1465.58 83.9003 Q1469.06 79.2013 1469.06 71.0994 Q1469.06 63.0381 1465.58 58.3391 Q1462.09 53.5995 1456.14 53.5995 M1456.14 47.2801 Q1465.86 47.2801 1471.41 53.5995 Q1476.96 59.9189 1476.96 71.0994 Q1476.96 82.2394 1471.41 88.5994 Q1465.86 94.9188 1456.14 94.9188 Q1446.38 94.9188 1440.83 88.5994 Q1435.32 82.2394 1435.32 71.0994 Q1435.32 59.9189 1440.83 53.5995 Q1446.38 47.2801 1456.14 47.2801 Z" fill="#000000" fill-rule="evenodd" fill-opacity="1"></path><path clip-path="url(#clip680)" d="M1527.03 66.3599 L1527.03 93.744 L1519.58 93.744 L1519.58 66.6029 Q1519.58 60.162 1517.07 56.9618 Q1514.55 53.7616 1509.53 53.7616 Q1503.49 53.7616 1500.01 57.6099 Q1496.53 61.4583 1496.53 68.1018 L1496.53 93.744 L1489.03 93.744 L1489.03 48.3739 L1496.53 48.3739 L1496.53 55.4224 Q1499.2 51.331 1502.81 49.3056 Q1506.45 47.2801 1511.19 47.2801 Q1519.01 47.2801 1523.02 52.1412 Q1527.03 56.9618 1527.03 66.3599 Z" fill="#000000" fill-rule="evenodd" fill-opacity="1"></path><path clip-path="url(#clip680)" d="M1568.59 33.264 L1606.83 33.264 L1606.83 40.1505 L1576.78 40.1505 L1576.78 58.0555 L1605.58 58.0555 L1605.58 64.9421 L1576.78 64.9421 L1576.78 86.8575 L1607.56 86.8575 L1607.56 93.744 L1568.59 93.744 L1568.59 33.264 Z" fill="#000000" fill-rule="evenodd" fill-opacity="1"></path><path clip-path="url(#clip680)" d="M1646.98 55.3414 Q1645.72 54.6123 1644.22 54.2882 Q1642.76 53.9236 1640.98 53.9236 Q1634.66 53.9236 1631.26 58.0555 Q1627.9 62.1469 1627.9 69.8437 L1627.9 93.744 L1620.4 93.744 L1620.4 48.3739 L1627.9 48.3739 L1627.9 55.4224 Q1630.25 51.2905 1634.01 49.3056 Q1637.78 47.2801 1643.17 47.2801 Q1643.94 47.2801 1644.87 47.4017 Q1645.8 47.4827 1646.94 47.6852 L1646.98 55.3414 Z" fill="#000000" fill-rule="evenodd" fill-opacity="1"></path><path clip-path="url(#clip680)" d="M1679.63 55.3414 Q1678.37 54.6123 1676.87 54.2882 Q1675.41 53.9236 1673.63 53.9236 Q1667.31 53.9236 1663.91 58.0555 Q1660.55 62.1469 1660.55 69.8437 L1660.55 93.744 L1653.05 93.744 L1653.05 48.3739 L1660.55 48.3739 L1660.55 55.4224 Q1662.9 51.2905 1666.66 49.3056 Q1670.43 47.2801 1675.82 47.2801 Q1676.59 47.2801 1677.52 47.4017 Q1678.45 47.4827 1679.59 47.6852 L1679.63 55.3414 Z" fill="#000000" fill-rule="evenodd" fill-opacity="1"></path><path clip-path="url(#clip680)" d="M1703.2 53.5995 Q1697.21 53.5995 1693.72 58.2986 Q1690.24 62.9571 1690.24 71.0994 Q1690.24 79.2418 1693.68 83.9408 Q1697.17 88.5994 1703.2 88.5994 Q1709.16 88.5994 1712.64 83.9003 Q1716.13 79.2013 1716.13 71.0994 Q1716.13 63.0381 1712.64 58.3391 Q1709.16 53.5995 1703.2 53.5995 M1703.2 47.2801 Q1712.93 47.2801 1718.48 53.5995 Q1724.03 59.9189 1724.03 71.0994 Q1724.03 82.2394 1718.48 88.5994 Q1712.93 94.9188 1703.2 94.9188 Q1693.44 94.9188 1687.89 88.5994 Q1682.38 82.2394 1682.38 71.0994 Q1682.38 59.9189 1687.89 53.5995 Q1693.44 47.2801 1703.2 47.2801 Z" fill="#000000" fill-rule="evenodd" fill-opacity="1"></path><path clip-path="url(#clip680)" d="M1762.67 55.3414 Q1761.42 54.6123 1759.92 54.2882 Q1758.46 53.9236 1756.68 53.9236 Q1750.36 53.9236 1746.95 58.0555 Q1743.59 62.1469 1743.59 69.8437 L1743.59 93.744 L1736.1 93.744 L1736.1 48.3739 L1743.59 48.3739 L1743.59 55.4224 Q1745.94 51.2905 1749.71 49.3056 Q1753.48 47.2801 1758.86 47.2801 Q1759.63 47.2801 1760.56 47.4017 Q1761.5 47.4827 1762.63 47.6852 L1762.67 55.3414 Z" fill="#000000" fill-rule="evenodd" fill-opacity="1"></path><path clip-path="url(#clip680)" d="M1011.41 121.432 L1011.41 127.63 L1004.28 127.63 Q1000.27 127.63 998.691 129.25 Q997.152 130.871 997.152 135.083 L997.152 139.094 L1009.43 139.094 L1009.43 144.887 L997.152 144.887 L997.152 184.464 L989.658 184.464 L989.658 144.887 L982.528 144.887 L982.528 139.094 L989.658 139.094 L989.658 135.934 Q989.658 128.359 993.182 124.916 Q996.706 121.432 1004.36 121.432 L1011.41 121.432 Z" fill="#000000" fill-rule="evenodd" fill-opacity="1"></path><path clip-path="url(#clip680)" d="M1017.65 139.094 L1025.1 139.094 L1025.1 184.464 L1017.65 184.464 L1017.65 139.094 M1017.65 121.432 L1025.1 121.432 L1025.1 130.871 L1017.65 130.871 L1017.65 121.432 Z" fill="#000000" fill-rule="evenodd" fill-opacity="1"></path><path clip-path="url(#clip680)" d="M1048.07 126.212 L1048.07 139.094 L1063.42 139.094 L1063.42 144.887 L1048.07 144.887 L1048.07 169.516 Q1048.07 175.066 1049.57 176.646 Q1051.11 178.226 1055.77 178.226 L1063.42 178.226 L1063.42 184.464 L1055.77 184.464 Q1047.14 184.464 1043.86 181.264 Q1040.58 178.023 1040.58 169.516 L1040.58 144.887 L1035.11 144.887 L1035.11 139.094 L1040.58 139.094 L1040.58 126.212 L1048.07 126.212 Z" fill="#000000" fill-rule="evenodd" fill-opacity="1"></path><path clip-path="url(#clip680)" d="M1128.52 140.431 L1128.52 147.479 Q1125.36 145.859 1121.96 145.049 Q1118.56 144.239 1114.91 144.239 Q1109.36 144.239 1106.57 145.94 Q1103.81 147.641 1103.81 151.044 Q1103.81 153.637 1105.8 155.135 Q1107.78 156.594 1113.78 157.931 L1116.33 158.498 Q1124.27 160.199 1127.59 163.318 Q1130.95 166.397 1130.95 171.947 Q1130.95 178.266 1125.93 181.952 Q1120.95 185.639 1112.2 185.639 Q1108.55 185.639 1104.58 184.91 Q1100.65 184.221 1096.28 182.803 L1096.28 175.106 Q1100.41 177.253 1104.42 178.347 Q1108.43 179.4 1112.36 179.4 Q1117.63 179.4 1120.46 177.618 Q1123.3 175.795 1123.3 172.514 Q1123.3 169.476 1121.23 167.855 Q1119.21 166.235 1112.28 164.736 L1109.69 164.128 Q1102.76 162.67 1099.68 159.672 Q1096.6 156.634 1096.6 151.368 Q1096.6 144.968 1101.14 141.484 Q1105.68 138 1114.02 138 Q1118.15 138 1121.8 138.608 Q1125.44 139.215 1128.52 140.431 Z" fill="#000000" fill-rule="evenodd" fill-opacity="1"></path><path clip-path="url(#clip680)" d="M1142.82 121.432 L1150.28 121.432 L1150.28 184.464 L1142.82 184.464 L1142.82 121.432 Z" fill="#000000" fill-rule="evenodd" fill-opacity="1"></path><path clip-path="url(#clip680)" d="M1183.45 144.32 Q1177.46 144.32 1173.97 149.019 Q1170.49 153.677 1170.49 161.819 Q1170.49 169.962 1173.93 174.661 Q1177.42 179.319 1183.45 179.319 Q1189.41 179.319 1192.89 174.62 Q1196.38 169.921 1196.38 161.819 Q1196.38 153.758 1192.89 149.059 Q1189.41 144.32 1183.45 144.32 M1183.45 138 Q1193.18 138 1198.72 144.32 Q1204.27 150.639 1204.27 161.819 Q1204.27 172.959 1198.72 179.319 Q1193.18 185.639 1183.45 185.639 Q1173.69 185.639 1168.14 179.319 Q1162.63 172.959 1162.63 161.819 Q1162.63 150.639 1168.14 144.32 Q1173.69 138 1183.45 138 Z" fill="#000000" fill-rule="evenodd" fill-opacity="1"></path><path clip-path="url(#clip680)" d="M1223.84 177.658 L1223.84 201.721 L1216.35 201.721 L1216.35 139.094 L1223.84 139.094 L1223.84 145.98 Q1226.19 141.93 1229.75 139.985 Q1233.36 138 1238.34 138 Q1246.61 138 1251.75 144.563 Q1256.94 151.125 1256.94 161.819 Q1256.94 172.514 1251.75 179.076 Q1246.61 185.639 1238.34 185.639 Q1233.36 185.639 1229.75 183.694 Q1226.19 181.709 1223.84 177.658 M1249.2 161.819 Q1249.2 153.596 1245.8 148.938 Q1242.43 144.239 1236.52 144.239 Q1230.61 144.239 1227.2 148.938 Q1223.84 153.596 1223.84 161.819 Q1223.84 170.043 1227.2 174.742 Q1230.61 179.4 1236.52 179.4 Q1242.43 179.4 1245.8 174.742 Q1249.2 170.043 1249.2 161.819 Z" fill="#000000" fill-rule="evenodd" fill-opacity="1"></path><path clip-path="url(#clip680)" d="M1308.1 159.916 L1308.1 163.561 L1273.83 163.561 Q1274.31 171.258 1278.45 175.309 Q1282.62 179.319 1290.03 179.319 Q1294.33 179.319 1298.34 178.266 Q1302.39 177.213 1306.36 175.106 L1306.36 182.155 Q1302.35 183.856 1298.13 184.748 Q1293.92 185.639 1289.59 185.639 Q1278.73 185.639 1272.37 179.319 Q1266.05 173 1266.05 162.225 Q1266.05 151.085 1272.05 144.563 Q1278.08 138 1288.29 138 Q1297.45 138 1302.75 143.914 Q1308.1 149.788 1308.1 159.916 M1300.65 157.728 Q1300.56 151.611 1297.2 147.965 Q1293.88 144.32 1288.37 144.32 Q1282.13 144.32 1278.37 147.844 Q1274.64 151.368 1274.07 157.769 L1300.65 157.728 Z" fill="#000000" fill-rule="evenodd" fill-opacity="1"></path><path clip-path="url(#clip680)" d="M1347.68 146.791 L1399.61 146.791 L1399.61 153.596 L1347.68 153.596 L1347.68 146.791 M1347.68 163.318 L1399.61 163.318 L1399.61 170.205 L1347.68 170.205 L1347.68 163.318 Z" fill="#000000" fill-rule="evenodd" fill-opacity="1"></path><path clip-path="url(#clip680)" d="M1443.72 123.984 L1475.85 123.984 L1475.85 130.871 L1451.22 130.871 L1451.22 145.697 Q1453 145.089 1454.78 144.806 Q1456.56 144.482 1458.35 144.482 Q1468.47 144.482 1474.39 150.031 Q1480.3 155.581 1480.3 165.06 Q1480.3 174.823 1474.23 180.251 Q1468.15 185.639 1457.09 185.639 Q1453.28 185.639 1449.31 184.991 Q1445.38 184.342 1441.17 183.046 L1441.17 174.823 Q1444.82 176.808 1448.71 177.78 Q1452.59 178.752 1456.93 178.752 Q1463.94 178.752 1468.03 175.066 Q1472.12 171.38 1472.12 165.06 Q1472.12 158.741 1468.03 155.054 Q1463.94 151.368 1456.93 151.368 Q1453.65 151.368 1450.37 152.097 Q1447.13 152.826 1443.72 154.366 L1443.72 123.984 Z" fill="#000000" fill-rule="evenodd" fill-opacity="1"></path><path clip-path="url(#clip680)" d="M1496.43 174.175 L1504.97 174.175 L1504.97 184.464 L1496.43 184.464 L1496.43 174.175 Z" fill="#000000" fill-rule="evenodd" fill-opacity="1"></path><path clip-path="url(#clip680)" d="M1540.3 129.372 Q1533.98 129.372 1530.78 135.61 Q1527.62 141.808 1527.62 154.285 Q1527.62 166.721 1530.78 172.959 Q1533.98 179.157 1540.3 179.157 Q1546.66 179.157 1549.82 172.959 Q1553.02 166.721 1553.02 154.285 Q1553.02 141.808 1549.82 135.61 Q1546.66 129.372 1540.3 129.372 M1540.3 122.89 Q1550.46 122.89 1555.81 130.952 Q1561.2 138.972 1561.2 154.285 Q1561.2 169.557 1555.81 177.618 Q1550.46 185.639 1540.3 185.639 Q1530.13 185.639 1524.74 177.618 Q1519.39 169.557 1519.39 154.285 Q1519.39 138.972 1524.74 130.952 Q1530.13 122.89 1540.3 122.89 Z" fill="#000000" fill-rule="evenodd" fill-opacity="1"></path><path clip-path="url(#clip680)" d="M1600.37 151.854 Q1606.25 153.11 1609.53 157.08 Q1612.85 161.05 1612.85 166.883 Q1612.85 175.836 1606.69 180.737 Q1600.53 185.639 1589.19 185.639 Q1585.38 185.639 1581.33 184.869 Q1577.32 184.14 1573.03 182.641 L1573.03 174.742 Q1576.43 176.727 1580.48 177.739 Q1584.53 178.752 1588.95 178.752 Q1596.65 178.752 1600.66 175.714 Q1604.71 172.676 1604.71 166.883 Q1604.71 161.536 1600.94 158.538 Q1597.21 155.5 1590.53 155.5 L1583.48 155.5 L1583.48 148.776 L1590.85 148.776 Q1596.89 148.776 1600.09 146.386 Q1603.29 143.955 1603.29 139.418 Q1603.29 134.759 1599.97 132.288 Q1596.69 129.777 1590.53 129.777 Q1587.17 129.777 1583.32 130.506 Q1579.47 131.235 1574.85 132.774 L1574.85 125.483 Q1579.51 124.187 1583.56 123.538 Q1587.65 122.89 1591.26 122.89 Q1600.57 122.89 1606 127.144 Q1611.43 131.357 1611.43 138.567 Q1611.43 143.59 1608.55 147.074 Q1605.68 150.517 1600.37 151.854 Z" fill="#000000" fill-rule="evenodd" fill-opacity="1"></path><circle clip-path="url(#clip682)" cx="302.342" cy="1388.11" r="14.4" fill="#009af9" fill-rule="evenodd" fill-opacity="1" stroke="#000000" stroke-opacity="1" stroke-width="3.2"></circle>
<circle clip-path="url(#clip682)" cx="496.313" cy="1276.52" r="14.4" fill="#009af9" fill-rule="evenodd" fill-opacity="1" stroke="#000000" stroke-opacity="1" stroke-width="3.2"></circle>
<circle clip-path="url(#clip682)" cx="730.057" cy="1105.68" r="14.4" fill="#009af9" fill-rule="evenodd" fill-opacity="1" stroke="#000000" stroke-opacity="1" stroke-width="3.2"></circle>
<circle clip-path="url(#clip682)" cx="954.578" cy="983.813" r="14.4" fill="#009af9" fill-rule="evenodd" fill-opacity="1" stroke="#000000" stroke-opacity="1" stroke-width="3.2"></circle>
<circle clip-path="url(#clip682)" cx="1182.09" cy="860.192" r="14.4" fill="#009af9" fill-rule="evenodd" fill-opacity="1" stroke="#000000" stroke-opacity="1" stroke-width="3.2"></circle>
<circle clip-path="url(#clip682)" cx="1407.42" cy="722.796" r="14.4" fill="#009af9" fill-rule="evenodd" fill-opacity="1" stroke="#000000" stroke-opacity="1" stroke-width="3.2"></circle>
<circle clip-path="url(#clip682)" cx="1629.75" cy="612.725" r="14.4" fill="#009af9" fill-rule="evenodd" fill-opacity="1" stroke="#000000" stroke-opacity="1" stroke-width="3.2"></circle>
<circle clip-path="url(#clip682)" cx="1847.91" cy="464.087" r="14.4" fill="#009af9" fill-rule="evenodd" fill-opacity="1" stroke="#000000" stroke-opacity="1" stroke-width="3.2"></circle>
<circle clip-path="url(#clip682)" cx="2071.03" cy="380.34" r="14.4" fill="#009af9" fill-rule="evenodd" fill-opacity="1" stroke="#000000" stroke-opacity="1" stroke-width="3.2"></circle>
<circle clip-path="url(#clip682)" cx="2293.04" cy="219.025" r="14.4" fill="#009af9" fill-rule="evenodd" fill-opacity="1" stroke="#000000" stroke-opacity="1" stroke-width="3.2"></circle>
<polyline clip-path="url(#clip682)" style="stroke:#e26f46; stroke-linecap:round; stroke-linejoin:round; stroke-width:4; stroke-opacity:1; fill:none" points="
  302.342,1372.89 496.313,1260.8 730.057,1125.73 954.578,995.993 1182.09,864.524 1407.42,734.317 1629.75,605.843 1847.91,479.776 2071.03,350.847 2293.04,222.559 
  
  "></polyline>
</svg>