<svg xmlns="http://www.w3.org/2000/svg" xmlns:xlink="http://www.w3.org/1999/xlink" width="600" height="400" viewBox="0 0 2400 1600">
<defs>
  <clipPath id="clip760">
    <rect x="0" y="0" width="2400" height="1600"></rect>
  </clipPath>
</defs>
<path clip-path="url(#clip760)" d="
M0 1600 L2400 1600 L2400 0 L0 0  Z
  " fill="#ffffff" fill-rule="evenodd" fill-opacity="1"></path>
<defs>
  <clipPath id="clip761">
    <rect x="480" y="0" width="1681" height="1600"></rect>
  </clipPath>
</defs>
<path clip-path="url(#clip760)" d="
M212.459 1423.18 L2352.76 1423.18 L2352.76 183.952 L212.459 183.952  Z
  " fill="#ffffff" fill-rule="evenodd" fill-opacity="1"></path>
<defs>
  <clipPath id="clip762">
    <rect x="212" y="183" width="2141" height="1240"></rect>
  </clipPath>
</defs>
<polyline clip-path="url(#clip762)" style="stroke:#000000; stroke-linecap:round; stroke-linejoin:round; stroke-width:2; stroke-opacity:0.1; fill:none" points="
  542.309,1423.18 542.309,183.952 
  "></polyline>
<polyline clip-path="url(#clip762)" style="stroke:#000000; stroke-linecap:round; stroke-linejoin:round; stroke-width:2; stroke-opacity:0.1; fill:none" points="
  946.223,1423.18 946.223,183.952 
  "></polyline>
<polyline clip-path="url(#clip762)" style="stroke:#000000; stroke-linecap:round; stroke-linejoin:round; stroke-width:2; stroke-opacity:0.1; fill:none" points="
  1350.14,1423.18 1350.14,183.952 
  "></polyline>
<polyline clip-path="url(#clip762)" style="stroke:#000000; stroke-linecap:round; stroke-linejoin:round; stroke-width:2; stroke-opacity:0.1; fill:none" points="
  1754.05,1423.18 1754.05,183.952 
  "></polyline>
<polyline clip-path="url(#clip762)" style="stroke:#000000; stroke-linecap:round; stroke-linejoin:round; stroke-width:2; stroke-opacity:0.1; fill:none" points="
  2157.96,1423.18 2157.96,183.952 
  "></polyline>
<polyline clip-path="url(#clip760)" style="stroke:#000000; stroke-linecap:round; stroke-linejoin:round; stroke-width:4; stroke-opacity:1; fill:none" points="
  212.459,1423.18 2352.76,1423.18 
  "></polyline>
<polyline clip-path="url(#clip760)" style="stroke:#000000; stroke-linecap:round; stroke-linejoin:round; stroke-width:4; stroke-opacity:1; fill:none" points="
  542.309,1423.18 542.309,1404.28 
  "></polyline>
<polyline clip-path="url(#clip760)" style="stroke:#000000; stroke-linecap:round; stroke-linejoin:round; stroke-width:4; stroke-opacity:1; fill:none" points="
  946.223,1423.18 946.223,1404.28 
  "></polyline>
<polyline clip-path="url(#clip760)" style="stroke:#000000; stroke-linecap:round; stroke-linejoin:round; stroke-width:4; stroke-opacity:1; fill:none" points="
  1350.14,1423.18 1350.14,1404.28 
  "></polyline>
<polyline clip-path="url(#clip760)" style="stroke:#000000; stroke-linecap:round; stroke-linejoin:round; stroke-width:4; stroke-opacity:1; fill:none" points="
  1754.05,1423.18 1754.05,1404.28 
  "></polyline>
<polyline clip-path="url(#clip760)" style="stroke:#000000; stroke-linecap:round; stroke-linejoin:round; stroke-width:4; stroke-opacity:1; fill:none" points="
  2157.96,1423.18 2157.96,1404.28 
  "></polyline>
<path clip-path="url(#clip760)" d="M510.261 1481.64 L517.9 1481.64 L517.9 1455.28 L509.59 1456.95 L509.59 1452.69 L517.853 1451.02 L522.529 1451.02 L522.529 1481.64 L530.168 1481.64 L530.168 1485.58 L510.261 1485.58 L510.261 1481.64 Z" fill="#000000" fill-rule="evenodd" fill-opacity="1"></path><path clip-path="url(#clip760)" d="M539.613 1479.7 L544.497 1479.7 L544.497 1485.58 L539.613 1485.58 L539.613 1479.7 Z" fill="#000000" fill-rule="evenodd" fill-opacity="1"></path><path clip-path="url(#clip760)" d="M558.71 1481.64 L575.029 1481.64 L575.029 1485.58 L553.085 1485.58 L553.085 1481.64 Q555.747 1478.89 560.33 1474.26 Q564.936 1469.61 566.117 1468.27 Q568.362 1465.74 569.242 1464.01 Q570.145 1462.25 570.145 1460.56 Q570.145 1457.8 568.2 1456.07 Q566.279 1454.33 563.177 1454.33 Q560.978 1454.33 558.524 1455.09 Q556.094 1455.86 553.316 1457.41 L553.316 1452.69 Q556.14 1451.55 558.594 1450.97 Q561.048 1450.39 563.085 1450.39 Q568.455 1450.39 571.649 1453.08 Q574.844 1455.77 574.844 1460.26 Q574.844 1462.39 574.034 1464.31 Q573.247 1466.2 571.14 1468.8 Q570.561 1469.47 567.46 1472.69 Q564.358 1475.88 558.71 1481.64 Z" fill="#000000" fill-rule="evenodd" fill-opacity="1"></path><path clip-path="url(#clip760)" d="M913.874 1481.64 L921.513 1481.64 L921.513 1455.28 L913.202 1456.95 L913.202 1452.69 L921.466 1451.02 L926.142 1451.02 L926.142 1481.64 L933.781 1481.64 L933.781 1485.58 L913.874 1485.58 L913.874 1481.64 Z" fill="#000000" fill-rule="evenodd" fill-opacity="1"></path><path clip-path="url(#clip760)" d="M943.225 1479.7 L948.11 1479.7 L948.11 1485.58 L943.225 1485.58 L943.225 1479.7 Z" fill="#000000" fill-rule="evenodd" fill-opacity="1"></path><path clip-path="url(#clip760)" d="M958.341 1451.02 L976.698 1451.02 L976.698 1454.96 L962.624 1454.96 L962.624 1463.43 Q963.642 1463.08 964.661 1462.92 Q965.679 1462.73 966.698 1462.73 Q972.485 1462.73 975.864 1465.9 Q979.244 1469.08 979.244 1474.49 Q979.244 1480.07 975.772 1483.17 Q972.299 1486.25 965.98 1486.25 Q963.804 1486.25 961.536 1485.88 Q959.29 1485.51 956.883 1484.77 L956.883 1480.07 Q958.966 1481.2 961.188 1481.76 Q963.411 1482.32 965.887 1482.32 Q969.892 1482.32 972.23 1480.21 Q974.568 1478.1 974.568 1474.49 Q974.568 1470.88 972.23 1468.77 Q969.892 1466.67 965.887 1466.67 Q964.012 1466.67 962.137 1467.08 Q960.286 1467.5 958.341 1468.38 L958.341 1451.02 Z" fill="#000000" fill-rule="evenodd" fill-opacity="1"></path><path clip-path="url(#clip760)" d="M1317.34 1481.64 L1324.98 1481.64 L1324.98 1455.28 L1316.66 1456.95 L1316.66 1452.69 L1324.93 1451.02 L1329.6 1451.02 L1329.6 1481.64 L1337.24 1481.64 L1337.24 1485.58 L1317.34 1485.58 L1317.34 1481.64 Z" fill="#000000" fill-rule="evenodd" fill-opacity="1"></path><path clip-path="url(#clip760)" d="M1346.69 1479.7 L1351.57 1479.7 L1351.57 1485.58 L1346.69 1485.58 L1346.69 1479.7 Z" fill="#000000" fill-rule="evenodd" fill-opacity="1"></path><path clip-path="url(#clip760)" d="M1371.76 1469.17 Q1368.42 1469.17 1366.5 1470.95 Q1364.6 1472.73 1364.6 1475.86 Q1364.6 1478.98 1366.5 1480.77 Q1368.42 1482.55 1371.76 1482.55 Q1375.09 1482.55 1377.01 1480.77 Q1378.93 1478.96 1378.93 1475.86 Q1378.93 1472.73 1377.01 1470.95 Q1375.11 1469.17 1371.76 1469.17 M1367.08 1467.18 Q1364.07 1466.44 1362.38 1464.38 Q1360.72 1462.32 1360.72 1459.35 Q1360.72 1455.21 1363.66 1452.8 Q1366.62 1450.39 1371.76 1450.39 Q1376.92 1450.39 1379.86 1452.8 Q1382.8 1455.21 1382.8 1459.35 Q1382.8 1462.32 1381.11 1464.38 Q1379.44 1466.44 1376.46 1467.18 Q1379.84 1467.96 1381.71 1470.26 Q1383.61 1472.55 1383.61 1475.86 Q1383.61 1480.88 1380.53 1483.57 Q1377.47 1486.25 1371.76 1486.25 Q1366.04 1486.25 1362.96 1483.57 Q1359.91 1480.88 1359.91 1475.86 Q1359.91 1472.55 1361.8 1470.26 Q1363.7 1467.96 1367.08 1467.18 M1365.37 1459.79 Q1365.37 1462.48 1367.04 1463.98 Q1368.72 1465.49 1371.76 1465.49 Q1374.77 1465.49 1376.46 1463.98 Q1378.17 1462.48 1378.17 1459.79 Q1378.17 1457.11 1376.46 1455.6 Q1374.77 1454.1 1371.76 1454.1 Q1368.72 1454.1 1367.04 1455.6 Q1365.37 1457.11 1365.37 1459.79 Z" fill="#000000" fill-rule="evenodd" fill-opacity="1"></path><path clip-path="url(#clip760)" d="M1725.9 1481.64 L1742.22 1481.64 L1742.22 1485.58 L1720.28 1485.58 L1720.28 1481.64 Q1722.94 1478.89 1727.52 1474.26 Q1732.13 1469.61 1733.31 1468.27 Q1735.56 1465.74 1736.44 1464.01 Q1737.34 1462.25 1737.34 1460.56 Q1737.34 1457.8 1735.39 1456.07 Q1733.47 1454.33 1730.37 1454.33 Q1728.17 1454.33 1725.72 1455.09 Q1723.29 1455.86 1720.51 1457.41 L1720.51 1452.69 Q1723.33 1451.55 1725.79 1450.97 Q1728.24 1450.39 1730.28 1450.39 Q1735.65 1450.39 1738.84 1453.08 Q1742.04 1455.77 1742.04 1460.26 Q1742.04 1462.39 1741.23 1464.31 Q1740.44 1466.2 1738.33 1468.8 Q1737.75 1469.47 1734.65 1472.69 Q1731.55 1475.88 1725.9 1481.64 Z" fill="#000000" fill-rule="evenodd" fill-opacity="1"></path><path clip-path="url(#clip760)" d="M1752.04 1479.7 L1756.92 1479.7 L1756.92 1485.58 L1752.04 1485.58 L1752.04 1479.7 Z" fill="#000000" fill-rule="evenodd" fill-opacity="1"></path><path clip-path="url(#clip760)" d="M1767.92 1481.64 L1775.56 1481.64 L1775.56 1455.28 L1767.25 1456.95 L1767.25 1452.69 L1775.51 1451.02 L1780.19 1451.02 L1780.19 1481.64 L1787.82 1481.64 L1787.82 1485.58 L1767.92 1485.58 L1767.92 1481.64 Z" fill="#000000" fill-rule="evenodd" fill-opacity="1"></path><path clip-path="url(#clip760)" d="M2128.96 1481.64 L2145.28 1481.64 L2145.28 1485.58 L2123.34 1485.58 L2123.34 1481.64 Q2126 1478.89 2130.58 1474.26 Q2135.19 1469.61 2136.37 1468.27 Q2138.61 1465.74 2139.49 1464.01 Q2140.4 1462.25 2140.4 1460.56 Q2140.4 1457.8 2138.45 1456.07 Q2136.53 1454.33 2133.43 1454.33 Q2131.23 1454.33 2128.78 1455.09 Q2126.34 1455.86 2123.57 1457.41 L2123.57 1452.69 Q2126.39 1451.55 2128.84 1450.97 Q2131.3 1450.39 2133.34 1450.39 Q2138.71 1450.39 2141.9 1453.08 Q2145.09 1455.77 2145.09 1460.26 Q2145.09 1462.39 2144.28 1464.31 Q2143.5 1466.2 2141.39 1468.8 Q2140.81 1469.47 2137.71 1472.69 Q2134.61 1475.88 2128.96 1481.64 Z" fill="#000000" fill-rule="evenodd" fill-opacity="1"></path><path clip-path="url(#clip760)" d="M2155.09 1479.7 L2159.98 1479.7 L2159.98 1485.58 L2155.09 1485.58 L2155.09 1479.7 Z" fill="#000000" fill-rule="evenodd" fill-opacity="1"></path><path clip-path="url(#clip760)" d="M2183.01 1455.09 L2171.21 1473.54 L2183.01 1473.54 L2183.01 1455.09 M2181.78 1451.02 L2187.66 1451.02 L2187.66 1473.54 L2192.59 1473.54 L2192.59 1477.43 L2187.66 1477.43 L2187.66 1485.58 L2183.01 1485.58 L2183.01 1477.43 L2167.41 1477.43 L2167.41 1472.92 L2181.78 1451.02 Z" fill="#000000" fill-rule="evenodd" fill-opacity="1"></path><path clip-path="url(#clip760)" d="M1131.21 1518.52 L1137.07 1518.52 L1137.07 1568.04 L1131.21 1568.04 L1131.21 1518.52 Z" fill="#000000" fill-rule="evenodd" fill-opacity="1"></path><path clip-path="url(#clip760)" d="M1163.14 1536.5 Q1158.43 1536.5 1155.69 1540.19 Q1152.95 1543.85 1152.95 1550.25 Q1152.95 1556.65 1155.66 1560.34 Q1158.4 1564 1163.14 1564 Q1167.82 1564 1170.56 1560.31 Q1173.29 1556.62 1173.29 1550.25 Q1173.29 1543.92 1170.56 1540.23 Q1167.82 1536.5 1163.14 1536.5 M1163.14 1531.54 Q1170.78 1531.54 1175.14 1536.5 Q1179.5 1541.47 1179.5 1550.25 Q1179.5 1559 1175.14 1564 Q1170.78 1568.97 1163.14 1568.97 Q1155.47 1568.97 1151.11 1564 Q1146.78 1559 1146.78 1550.25 Q1146.78 1541.47 1151.11 1536.5 Q1155.47 1531.54 1163.14 1531.54 Z" fill="#000000" fill-rule="evenodd" fill-opacity="1"></path><path clip-path="url(#clip760)" d="M1212.66 1549.81 Q1212.66 1543.44 1210.02 1539.94 Q1207.41 1536.44 1202.67 1536.44 Q1197.96 1536.44 1195.32 1539.94 Q1192.71 1543.44 1192.71 1549.81 Q1192.71 1556.14 1195.32 1559.64 Q1197.96 1563.14 1202.67 1563.14 Q1207.41 1563.14 1210.02 1559.64 Q1212.66 1556.14 1212.66 1549.81 M1218.52 1563.62 Q1218.52 1572.72 1214.48 1577.15 Q1210.44 1581.6 1202.1 1581.6 Q1199.01 1581.6 1196.27 1581.13 Q1193.54 1580.68 1190.96 1579.72 L1190.96 1574.03 Q1193.54 1575.43 1196.05 1576.1 Q1198.56 1576.76 1201.17 1576.76 Q1206.94 1576.76 1209.8 1573.74 Q1212.66 1570.75 1212.66 1564.67 L1212.66 1561.77 Q1210.85 1564.92 1208.02 1566.48 Q1205.18 1568.04 1201.24 1568.04 Q1194.68 1568.04 1190.67 1563.05 Q1186.66 1558.05 1186.66 1549.81 Q1186.66 1541.53 1190.67 1536.53 Q1194.68 1531.54 1201.24 1531.54 Q1205.18 1531.54 1208.02 1533.1 Q1210.85 1534.66 1212.66 1537.81 L1212.66 1532.4 L1218.52 1532.4 L1218.52 1563.62 Z" fill="#000000" fill-rule="evenodd" fill-opacity="1"></path><path clip-path="url(#clip760)" d="M1257.67 1578.87 L1257.67 1583.42 L1223.8 1583.42 L1223.8 1578.87 L1257.67 1578.87 Z" fill="#000000" fill-rule="evenodd" fill-opacity="1"></path><path clip-path="url(#clip760)" d="M1265.12 1562.63 L1275.62 1562.63 L1275.62 1526.38 L1264.19 1528.67 L1264.19 1522.82 L1275.56 1520.52 L1281.99 1520.52 L1281.99 1562.63 L1292.49 1562.63 L1292.49 1568.04 L1265.12 1568.04 L1265.12 1562.63 Z" fill="#000000" fill-rule="evenodd" fill-opacity="1"></path><path clip-path="url(#clip760)" d="M1319.23 1524.76 Q1314.26 1524.76 1311.75 1529.66 Q1309.26 1534.53 1309.26 1544.33 Q1309.26 1554.1 1311.75 1559 Q1314.26 1563.87 1319.23 1563.87 Q1324.22 1563.87 1326.71 1559 Q1329.22 1554.1 1329.22 1544.33 Q1329.22 1534.53 1326.71 1529.66 Q1324.22 1524.76 1319.23 1524.76 M1319.23 1519.66 Q1327.22 1519.66 1331.42 1526 Q1335.65 1532.3 1335.65 1544.33 Q1335.65 1556.33 1331.42 1562.66 Q1327.22 1568.97 1319.23 1568.97 Q1311.24 1568.97 1307 1562.66 Q1302.8 1556.33 1302.8 1544.33 Q1302.8 1532.3 1307 1526 Q1311.24 1519.66 1319.23 1519.66 Z" fill="#000000" fill-rule="evenodd" fill-opacity="1"></path><path clip-path="url(#clip760)" d="M1360.19 1518.58 Q1355.92 1525.9 1353.86 1533.06 Q1351.79 1540.23 1351.79 1547.58 Q1351.79 1554.93 1353.86 1562.16 Q1355.96 1569.35 1360.19 1576.64 L1355.1 1576.64 Q1350.32 1569.16 1347.94 1561.93 Q1345.58 1554.71 1345.58 1547.58 Q1345.58 1540.48 1347.94 1533.29 Q1350.29 1526.09 1355.1 1518.58 L1360.19 1518.58 Z" fill="#000000" fill-rule="evenodd" fill-opacity="1"></path><path clip-path="url(#clip760)" d="M1371.81 1520.52 L1380.46 1520.52 L1401.53 1560.28 L1401.53 1520.52 L1407.77 1520.52 L1407.77 1568.04 L1399.12 1568.04 L1378.05 1528.29 L1378.05 1568.04 L1371.81 1568.04 L1371.81 1520.52 Z" fill="#000000" fill-rule="evenodd" fill-opacity="1"></path><path clip-path="url(#clip760)" d="M1419.39 1518.58 L1424.48 1518.58 Q1429.26 1526.09 1431.61 1533.29 Q1434 1540.48 1434 1547.58 Q1434 1554.71 1431.61 1561.93 Q1429.26 1569.16 1424.48 1576.64 L1419.39 1576.64 Q1423.62 1569.35 1425.69 1562.16 Q1427.79 1554.93 1427.79 1547.58 Q1427.79 1540.23 1425.69 1533.06 Q1423.62 1525.9 1419.39 1518.58 Z" fill="#000000" fill-rule="evenodd" fill-opacity="1"></path><polyline clip-path="url(#clip762)" style="stroke:#000000; stroke-linecap:round; stroke-linejoin:round; stroke-width:2; stroke-opacity:0.1; fill:none" points="
  212.459,1355.02 2352.76,1355.02 
  "></polyline>
<polyline clip-path="url(#clip762)" style="stroke:#000000; stroke-linecap:round; stroke-linejoin:round; stroke-width:2; stroke-opacity:0.1; fill:none" points="
  212.459,1085.77 2352.76,1085.77 
  "></polyline>
<polyline clip-path="url(#clip762)" style="stroke:#000000; stroke-linecap:round; stroke-linejoin:round; stroke-width:2; stroke-opacity:0.1; fill:none" points="
  212.459,816.523 2352.76,816.523 
  "></polyline>
<polyline clip-path="url(#clip762)" style="stroke:#000000; stroke-linecap:round; stroke-linejoin:round; stroke-width:2; stroke-opacity:0.1; fill:none" points="
  212.459,547.276 2352.76,547.276 
  "></polyline>
<polyline clip-path="url(#clip762)" style="stroke:#000000; stroke-linecap:round; stroke-linejoin:round; stroke-width:2; stroke-opacity:0.1; fill:none" points="
  212.459,278.029 2352.76,278.029 
  "></polyline>
<polyline clip-path="url(#clip760)" style="stroke:#000000; stroke-linecap:round; stroke-linejoin:round; stroke-width:4; stroke-opacity:1; fill:none" points="
  212.459,1423.18 212.459,183.952 
  "></polyline>
<polyline clip-path="url(#clip760)" style="stroke:#000000; stroke-linecap:round; stroke-linejoin:round; stroke-width:4; stroke-opacity:1; fill:none" points="
  212.459,1355.02 231.357,1355.02 
  "></polyline>
<polyline clip-path="url(#clip760)" style="stroke:#000000; stroke-linecap:round; stroke-linejoin:round; stroke-width:4; stroke-opacity:1; fill:none" points="
  212.459,1085.77 231.357,1085.77 
  "></polyline>
<polyline clip-path="url(#clip760)" style="stroke:#000000; stroke-linecap:round; stroke-linejoin:round; stroke-width:4; stroke-opacity:1; fill:none" points="
  212.459,816.523 231.357,816.523 
  "></polyline>
<polyline clip-path="url(#clip760)" style="stroke:#000000; stroke-linecap:round; stroke-linejoin:round; stroke-width:4; stroke-opacity:1; fill:none" points="
  212.459,547.276 231.357,547.276 
  "></polyline>
<polyline clip-path="url(#clip760)" style="stroke:#000000; stroke-linecap:round; stroke-linejoin:round; stroke-width:4; stroke-opacity:1; fill:none" points="
  212.459,278.029 231.357,278.029 
  "></polyline>
<path clip-path="url(#clip760)" d="M114.26 1355.47 L143.936 1355.47 L143.936 1359.4 L114.26 1359.4 L114.26 1355.47 Z" fill="#000000" fill-rule="evenodd" fill-opacity="1"></path><path clip-path="url(#clip760)" d="M166.876 1341.81 L155.07 1360.26 L166.876 1360.26 L166.876 1341.81 M165.649 1337.74 L171.528 1337.74 L171.528 1360.26 L176.459 1360.26 L176.459 1364.15 L171.528 1364.15 L171.528 1372.3 L166.876 1372.3 L166.876 1364.15 L151.274 1364.15 L151.274 1359.64 L165.649 1337.74 Z" fill="#000000" fill-rule="evenodd" fill-opacity="1"></path><path clip-path="url(#clip760)" d="M115.394 1086.22 L145.07 1086.22 L145.07 1090.16 L115.394 1090.16 L115.394 1086.22 Z" fill="#000000" fill-rule="evenodd" fill-opacity="1"></path><path clip-path="url(#clip760)" d="M169.329 1084.42 Q172.686 1085.13 174.561 1087.4 Q176.459 1089.67 176.459 1093 Q176.459 1098.12 172.94 1100.92 Q169.422 1103.72 162.94 1103.72 Q160.765 1103.72 158.45 1103.28 Q156.158 1102.87 153.704 1102.01 L153.704 1097.49 Q155.649 1098.63 157.964 1099.21 Q160.278 1099.79 162.802 1099.79 Q167.2 1099.79 169.491 1098.05 Q171.806 1096.31 171.806 1093 Q171.806 1089.95 169.653 1088.24 Q167.524 1086.5 163.704 1086.5 L159.677 1086.5 L159.677 1082.66 L163.89 1082.66 Q167.339 1082.66 169.167 1081.29 Q170.996 1079.9 170.996 1077.31 Q170.996 1074.65 169.098 1073.24 Q167.223 1071.8 163.704 1071.8 Q161.783 1071.8 159.584 1072.22 Q157.385 1072.63 154.746 1073.51 L154.746 1069.35 Q157.408 1068.61 159.723 1068.24 Q162.061 1067.87 164.121 1067.87 Q169.445 1067.87 172.547 1070.3 Q175.649 1072.7 175.649 1076.82 Q175.649 1079.69 174.005 1081.68 Q172.362 1083.65 169.329 1084.42 Z" fill="#000000" fill-rule="evenodd" fill-opacity="1"></path><path clip-path="url(#clip760)" d="M116.343 816.975 L146.019 816.975 L146.019 820.91 L116.343 820.91 L116.343 816.975 Z" fill="#000000" fill-rule="evenodd" fill-opacity="1"></path><path clip-path="url(#clip760)" d="M160.14 829.868 L176.459 829.868 L176.459 833.803 L154.515 833.803 L154.515 829.868 Q157.177 827.113 161.76 822.484 Q166.366 817.831 167.547 816.489 Q169.792 813.965 170.672 812.229 Q171.575 810.47 171.575 808.78 Q171.575 806.026 169.63 804.29 Q167.709 802.553 164.607 802.553 Q162.408 802.553 159.954 803.317 Q157.524 804.081 154.746 805.632 L154.746 800.91 Q157.57 799.776 160.024 799.197 Q162.477 798.618 164.515 798.618 Q169.885 798.618 173.079 801.303 Q176.274 803.989 176.274 808.479 Q176.274 810.609 175.464 812.53 Q174.677 814.428 172.57 817.021 Q171.991 817.692 168.889 820.91 Q165.788 824.104 160.14 829.868 Z" fill="#000000" fill-rule="evenodd" fill-opacity="1"></path><path clip-path="url(#clip760)" d="M115.973 547.727 L145.649 547.727 L145.649 551.663 L115.973 551.663 L115.973 547.727 Z" fill="#000000" fill-rule="evenodd" fill-opacity="1"></path><path clip-path="url(#clip760)" d="M156.552 560.621 L164.19 560.621 L164.19 534.255 L155.88 535.922 L155.88 531.663 L164.144 529.996 L168.82 529.996 L168.82 560.621 L176.459 560.621 L176.459 564.556 L156.552 564.556 L156.552 560.621 Z" fill="#000000" fill-rule="evenodd" fill-opacity="1"></path><path clip-path="url(#clip760)" d="M164.515 263.828 Q160.903 263.828 159.075 267.392 Q157.269 270.934 157.269 278.064 Q157.269 285.17 159.075 288.735 Q160.903 292.277 164.515 292.277 Q168.149 292.277 169.954 288.735 Q171.783 285.17 171.783 278.064 Q171.783 270.934 169.954 267.392 Q168.149 263.828 164.515 263.828 M164.515 260.124 Q170.325 260.124 173.38 264.73 Q176.459 269.314 176.459 278.064 Q176.459 286.79 173.38 291.397 Q170.325 295.98 164.515 295.98 Q158.704 295.98 155.626 291.397 Q152.57 286.79 152.57 278.064 Q152.57 269.314 155.626 264.73 Q158.704 260.124 164.515 260.124 Z" fill="#000000" fill-rule="evenodd" fill-opacity="1"></path><path clip-path="url(#clip760)" d="M14.479 1194.83 L14.479 1188.98 L64.0042 1188.98 L64.0042 1194.83 L14.479 1194.83 Z" fill="#000000" fill-rule="evenodd" fill-opacity="1"></path><path clip-path="url(#clip760)" d="M32.4621 1162.91 Q32.4621 1167.62 36.1542 1170.36 Q39.8145 1173.1 46.212 1173.1 Q52.6095 1173.1 56.3017 1170.39 Q59.9619 1167.65 59.9619 1162.91 Q59.9619 1158.23 56.2698 1155.49 Q52.5777 1152.76 46.212 1152.76 Q39.8781 1152.76 36.186 1155.49 Q32.4621 1158.23 32.4621 1162.91 M27.4968 1162.91 Q27.4968 1155.27 32.4621 1150.91 Q37.4273 1146.55 46.212 1146.55 Q54.9649 1146.55 59.9619 1150.91 Q64.9272 1155.27 64.9272 1162.91 Q64.9272 1170.58 59.9619 1174.94 Q54.9649 1179.27 46.212 1179.27 Q37.4273 1179.27 32.4621 1174.94 Q27.4968 1170.58 27.4968 1162.91 Z" fill="#000000" fill-rule="evenodd" fill-opacity="1"></path><path clip-path="url(#clip760)" d="M45.7664 1113.38 Q39.4007 1113.38 35.8996 1116.03 Q32.3984 1118.64 32.3984 1123.38 Q32.3984 1128.09 35.8996 1130.73 Q39.4007 1133.34 45.7664 1133.34 Q52.1003 1133.34 55.6014 1130.73 Q59.1026 1128.09 59.1026 1123.38 Q59.1026 1118.64 55.6014 1116.03 Q52.1003 1113.38 45.7664 1113.38 M59.58 1107.53 Q68.683 1107.53 73.1071 1111.57 Q77.5631 1115.61 77.5631 1123.95 Q77.5631 1127.04 77.0857 1129.78 Q76.6401 1132.51 75.6852 1135.09 L69.9879 1135.09 Q71.3884 1132.51 72.0568 1130 Q72.7252 1127.48 72.7252 1124.88 Q72.7252 1119.11 69.7015 1116.25 Q66.7096 1113.38 60.6303 1113.38 L57.7339 1113.38 Q60.885 1115.2 62.4446 1118.03 Q64.0042 1120.86 64.0042 1124.81 Q64.0042 1131.37 59.0071 1135.38 Q54.01 1139.39 45.7664 1139.39 Q37.491 1139.39 32.4939 1135.38 Q27.4968 1131.37 27.4968 1124.81 Q27.4968 1120.86 29.0564 1118.03 Q30.616 1115.2 33.7671 1113.38 L28.3562 1113.38 L28.3562 1107.53 L59.58 1107.53 Z" fill="#000000" fill-rule="evenodd" fill-opacity="1"></path><path clip-path="url(#clip760)" d="M74.8259 1068.38 L79.3773 1068.38 L79.3773 1102.24 L74.8259 1102.24 L74.8259 1068.38 Z" fill="#000000" fill-rule="evenodd" fill-opacity="1"></path><path clip-path="url(#clip760)" d="M58.5933 1060.93 L58.5933 1050.43 L22.3406 1050.43 L24.6323 1061.85 L18.7758 1061.85 L16.4842 1050.49 L16.4842 1044.06 L58.5933 1044.06 L58.5933 1033.56 L64.0042 1033.56 L64.0042 1060.93 L58.5933 1060.93 Z" fill="#000000" fill-rule="evenodd" fill-opacity="1"></path><path clip-path="url(#clip760)" d="M20.7174 1006.82 Q20.7174 1011.79 25.6189 1014.3 Q30.4887 1016.79 40.2919 1016.79 Q50.0633 1016.79 54.9649 1014.3 Q59.8346 1011.79 59.8346 1006.82 Q59.8346 1001.83 54.9649 999.343 Q50.0633 996.829 40.2919 996.829 Q30.4887 996.829 25.6189 999.343 Q20.7174 1001.83 20.7174 1006.82 M15.6248 1006.82 Q15.6248 998.834 21.9587 994.633 Q28.2607 990.399 40.2919 990.399 Q52.2913 990.399 58.6251 994.633 Q64.9272 998.834 64.9272 1006.82 Q64.9272 1014.81 58.6251 1019.05 Q52.2913 1023.25 40.2919 1023.25 Q28.2607 1023.25 21.9587 1019.05 Q15.6248 1014.81 15.6248 1006.82 Z" fill="#000000" fill-rule="evenodd" fill-opacity="1"></path><path clip-path="url(#clip760)" d="M14.5426 965.86 Q21.8632 970.125 29.0246 972.194 Q36.186 974.262 43.5384 974.262 Q50.8908 974.262 58.1159 972.194 Q65.3091 970.093 72.5979 965.86 L72.5979 970.952 Q65.1182 975.727 57.8931 978.114 Q50.668 980.469 43.5384 980.469 Q36.4406 980.469 29.2474 978.114 Q22.0542 975.758 14.5426 970.952 L14.5426 965.86 Z" fill="#000000" fill-rule="evenodd" fill-opacity="1"></path><path clip-path="url(#clip760)" d="M44.7161 924.005 L47.5806 924.005 L47.5806 950.932 Q53.6281 950.55 56.8109 947.304 Q59.9619 944.025 59.9619 938.201 Q59.9619 934.827 59.1344 931.676 Q58.3069 928.493 56.6518 925.374 L62.1899 925.374 Q63.5267 928.525 64.227 931.835 Q64.9272 935.145 64.9272 938.551 Q64.9272 947.081 59.9619 952.078 Q54.9967 957.043 46.5303 957.043 Q37.7774 957.043 32.6531 952.333 Q27.4968 947.59 27.4968 939.569 Q27.4968 932.376 32.1438 928.207 Q36.7589 924.005 44.7161 924.005 M42.9973 929.862 Q38.1912 929.925 35.3266 932.567 Q32.4621 935.177 32.4621 939.506 Q32.4621 944.407 35.2312 947.367 Q38.0002 950.296 43.0292 950.741 L42.9973 929.862 Z" fill="#000000" fill-rule="evenodd" fill-opacity="1"></path><path clip-path="url(#clip760)" d="M14.479 914.393 L14.479 908.536 L64.0042 908.536 L64.0042 914.393 L14.479 914.393 Z" fill="#000000" fill-rule="evenodd" fill-opacity="1"></path><path clip-path="url(#clip760)" d="M46.0847 880.082 Q46.0847 887.18 47.7079 889.917 Q49.3312 892.654 53.2461 892.654 Q56.3653 892.654 58.2114 890.617 Q60.0256 888.548 60.0256 885.015 Q60.0256 880.145 56.5881 877.217 Q53.1188 874.257 47.3897 874.257 L46.0847 874.257 L46.0847 880.082 M43.6657 868.401 L64.0042 868.401 L64.0042 874.257 L58.5933 874.257 Q61.8398 876.262 63.3994 879.254 Q64.9272 882.246 64.9272 886.575 Q64.9272 892.049 61.8716 895.296 Q58.7843 898.51 53.6281 898.51 Q47.6125 898.51 44.5569 894.5 Q41.5014 890.458 41.5014 882.469 L41.5014 874.257 L40.9285 874.257 Q36.8862 874.257 34.6901 876.931 Q32.4621 879.573 32.4621 884.379 Q32.4621 887.434 33.1941 890.331 Q33.9262 893.227 35.3903 895.901 L29.9795 895.901 Q28.7381 892.686 28.1334 889.662 Q27.4968 886.638 27.4968 883.774 Q27.4968 876.04 31.5072 872.22 Q35.5176 868.401 43.6657 868.401 Z" fill="#000000" fill-rule="evenodd" fill-opacity="1"></path><path clip-path="url(#clip760)" d="M58.657 850.672 L77.5631 850.672 L77.5631 856.56 L28.3562 856.56 L28.3562 850.672 L33.7671 850.672 Q30.5842 848.826 29.0564 846.025 Q27.4968 843.193 27.4968 839.278 Q27.4968 832.785 32.6531 828.742 Q37.8093 824.668 46.212 824.668 Q54.6147 824.668 59.771 828.742 Q64.9272 832.785 64.9272 839.278 Q64.9272 843.193 63.3994 846.025 Q61.8398 848.826 58.657 850.672 M46.212 830.748 Q39.7508 830.748 36.0905 833.421 Q32.3984 836.063 32.3984 840.71 Q32.3984 845.357 36.0905 848.03 Q39.7508 850.672 46.212 850.672 Q52.6732 850.672 56.3653 848.03 Q60.0256 845.357 60.0256 840.71 Q60.0256 836.063 56.3653 833.421 Q52.6732 830.748 46.212 830.748 Z" fill="#000000" fill-rule="evenodd" fill-opacity="1"></path><path clip-path="url(#clip760)" d="M29.4065 792.235 L34.9447 792.235 Q33.6716 794.718 33.035 797.391 Q32.3984 800.065 32.3984 802.929 Q32.3984 807.29 33.7352 809.486 Q35.072 811.65 37.7456 811.65 Q39.7826 811.65 40.9603 810.091 Q42.1061 808.531 43.1565 803.821 L43.6021 801.815 Q44.9389 795.577 47.3897 792.967 Q49.8086 790.325 54.1691 790.325 Q59.1344 790.325 62.0308 794.272 Q64.9272 798.187 64.9272 805.062 Q64.9272 807.926 64.3543 811.046 Q63.8132 814.133 62.6992 817.571 L56.6518 817.571 Q58.3387 814.324 59.198 811.173 Q60.0256 808.022 60.0256 804.935 Q60.0256 800.797 58.6251 798.569 Q57.1929 796.341 54.6147 796.341 Q52.2276 796.341 50.9545 797.964 Q49.6813 799.556 48.5037 804.998 L48.0262 807.035 Q46.8804 812.478 44.5251 814.897 Q42.138 817.316 38.0002 817.316 Q32.9713 817.316 30.2341 813.751 Q27.4968 810.186 27.4968 803.63 Q27.4968 800.383 27.9743 797.519 Q28.4517 794.654 29.4065 792.235 Z" fill="#000000" fill-rule="evenodd" fill-opacity="1"></path><path clip-path="url(#clip760)" d="M44.7161 750.508 L47.5806 750.508 L47.5806 777.435 Q53.6281 777.053 56.8109 773.806 Q59.9619 770.528 59.9619 764.703 Q59.9619 761.33 59.1344 758.178 Q58.3069 754.996 56.6518 751.876 L62.1899 751.876 Q63.5267 755.027 64.227 758.338 Q64.9272 761.648 64.9272 765.053 Q64.9272 773.584 59.9619 778.581 Q54.9967 783.546 46.5303 783.546 Q37.7774 783.546 32.6531 778.835 Q27.4968 774.093 27.4968 766.072 Q27.4968 758.879 32.1438 754.709 Q36.7589 750.508 44.7161 750.508 M42.9973 756.364 Q38.1912 756.428 35.3266 759.07 Q32.4621 761.68 32.4621 766.008 Q32.4621 770.91 35.2312 773.87 Q38.0002 776.798 43.0292 777.244 L42.9973 756.364 Z" fill="#000000" fill-rule="evenodd" fill-opacity="1"></path><path clip-path="url(#clip760)" d="M33.7671 717.438 L14.479 717.438 L14.479 711.582 L64.0042 711.582 L64.0042 717.438 L58.657 717.438 Q61.8398 719.284 63.3994 722.117 Q64.9272 724.918 64.9272 728.864 Q64.9272 735.326 59.771 739.4 Q54.6147 743.442 46.212 743.442 Q37.8093 743.442 32.6531 739.4 Q27.4968 735.326 27.4968 728.864 Q27.4968 724.918 29.0564 722.117 Q30.5842 719.284 33.7671 717.438 M46.212 737.394 Q52.6732 737.394 56.3653 734.753 Q60.0256 732.079 60.0256 727.432 Q60.0256 722.785 56.3653 720.112 Q52.6732 717.438 46.212 717.438 Q39.7508 717.438 36.0905 720.112 Q32.3984 722.785 32.3984 727.432 Q32.3984 732.079 36.0905 734.753 Q39.7508 737.394 46.212 737.394 Z" fill="#000000" fill-rule="evenodd" fill-opacity="1"></path><path clip-path="url(#clip760)" d="M18.2347 673.005 L28.3562 673.005 L28.3562 660.942 L32.9077 660.942 L32.9077 673.005 L52.2594 673.005 Q56.6199 673.005 57.8613 671.828 Q59.1026 670.618 59.1026 666.958 L59.1026 660.942 L64.0042 660.942 L64.0042 666.958 Q64.0042 673.737 61.4897 676.316 Q58.9434 678.894 52.2594 678.894 L32.9077 678.894 L32.9077 683.19 L28.3562 683.19 L28.3562 678.894 L18.2347 678.894 L18.2347 673.005 Z" fill="#000000" fill-rule="evenodd" fill-opacity="1"></path><path clip-path="url(#clip760)" d="M28.3562 653.24 L28.3562 647.383 L64.0042 647.383 L64.0042 653.24 L28.3562 653.24 M14.479 653.24 L14.479 647.383 L21.895 647.383 L21.895 653.24 L14.479 653.24 Z" fill="#000000" fill-rule="evenodd" fill-opacity="1"></path><path clip-path="url(#clip760)" d="M35.1993 607.375 Q31.2526 605.179 29.3747 602.123 Q27.4968 599.068 27.4968 594.93 Q27.4968 589.36 31.4117 586.336 Q35.2948 583.313 42.4881 583.313 L64.0042 583.313 L64.0042 589.201 L42.679 589.201 Q37.5546 589.201 35.072 591.015 Q32.5894 592.829 32.5894 596.553 Q32.5894 601.105 35.6131 603.746 Q38.6368 606.388 43.8567 606.388 L64.0042 606.388 L64.0042 612.276 L42.679 612.276 Q37.5228 612.276 35.072 614.091 Q32.5894 615.905 32.5894 619.693 Q32.5894 624.18 35.6449 626.822 Q38.6686 629.464 43.8567 629.464 L64.0042 629.464 L64.0042 635.352 L28.3562 635.352 L28.3562 629.464 L33.8944 629.464 Q30.616 627.459 29.0564 624.658 Q27.4968 621.857 27.4968 618.006 Q27.4968 614.123 29.4702 611.417 Q31.4436 608.68 35.1993 607.375 Z" fill="#000000" fill-rule="evenodd" fill-opacity="1"></path><path clip-path="url(#clip760)" d="M44.7161 541.14 L47.5806 541.14 L47.5806 568.067 Q53.6281 567.685 56.8109 564.438 Q59.9619 561.16 59.9619 555.335 Q59.9619 551.961 59.1344 548.81 Q58.3069 545.628 56.6518 542.508 L62.1899 542.508 Q63.5267 545.659 64.227 548.97 Q64.9272 552.28 64.9272 555.685 Q64.9272 564.215 59.9619 569.212 Q54.9967 574.178 46.5303 574.178 Q37.7774 574.178 32.6531 569.467 Q27.4968 564.725 27.4968 556.704 Q27.4968 549.511 32.1438 545.341 Q36.7589 541.14 44.7161 541.14 M42.9973 546.996 Q38.1912 547.06 35.3266 549.702 Q32.4621 552.312 32.4621 556.64 Q32.4621 561.542 35.2312 564.502 Q38.0002 567.43 43.0292 567.876 L42.9973 546.996 Z" fill="#000000" fill-rule="evenodd" fill-opacity="1"></path><path clip-path="url(#clip760)" d="M14.5426 496.739 Q21.8632 501.004 29.0246 503.073 Q36.186 505.142 43.5384 505.142 Q50.8908 505.142 58.1159 503.073 Q65.3091 500.972 72.5979 496.739 L72.5979 501.831 Q65.1182 506.606 57.8931 508.993 Q50.668 511.348 43.5384 511.348 Q36.4406 511.348 29.2474 508.993 Q22.0542 506.638 14.5426 501.831 L14.5426 496.739 Z" fill="#000000" fill-rule="evenodd" fill-opacity="1"></path><path clip-path="url(#clip760)" d="M29.4065 462.651 L34.9447 462.651 Q33.6716 465.133 33.035 467.807 Q32.3984 470.48 32.3984 473.345 Q32.3984 477.705 33.7352 479.902 Q35.072 482.066 37.7456 482.066 Q39.7826 482.066 40.9603 480.506 Q42.1061 478.947 43.1565 474.236 L43.6021 472.231 Q44.9389 465.993 47.3897 463.383 Q49.8086 460.741 54.1691 460.741 Q59.1344 460.741 62.0308 464.688 Q64.9272 468.603 64.9272 475.477 Q64.9272 478.342 64.3543 481.461 Q63.8132 484.549 62.6992 487.986 L56.6518 487.986 Q58.3387 484.74 59.198 481.589 Q60.0256 478.438 60.0256 475.35 Q60.0256 471.212 58.6251 468.984 Q57.1929 466.756 54.6147 466.756 Q52.2276 466.756 50.9545 468.38 Q49.6813 469.971 48.5037 475.414 L48.0262 477.451 Q46.8804 482.894 44.5251 485.312 Q42.138 487.731 38.0002 487.731 Q32.9713 487.731 30.2341 484.167 Q27.4968 480.602 27.4968 474.045 Q27.4968 470.799 27.9743 467.934 Q28.4517 465.07 29.4065 462.651 Z" fill="#000000" fill-rule="evenodd" fill-opacity="1"></path><path clip-path="url(#clip760)" d="M14.5426 452.338 L14.5426 447.246 Q22.0542 442.471 29.2474 440.116 Q36.4406 437.729 43.5384 437.729 Q50.668 437.729 57.8931 440.116 Q65.1182 442.471 72.5979 447.246 L72.5979 452.338 Q65.3091 448.105 58.1159 446.036 Q50.8908 443.935 43.5384 443.935 Q36.186 443.935 29.0246 446.036 Q21.8632 448.105 14.5426 452.338 Z" fill="#000000" fill-rule="evenodd" fill-opacity="1"></path><path clip-path="url(#clip760)" d="M14.5426 426.907 L14.5426 421.815 Q22.0542 417.04 29.2474 414.685 Q36.4406 412.298 43.5384 412.298 Q50.668 412.298 57.8931 414.685 Q65.1182 417.04 72.5979 421.815 L72.5979 426.907 Q65.3091 422.674 58.1159 420.605 Q50.8908 418.504 43.5384 418.504 Q36.186 418.504 29.0246 420.605 Q21.8632 422.674 14.5426 426.907 Z" fill="#000000" fill-rule="evenodd" fill-opacity="1"></path><path clip-path="url(#clip760)" d="M944.6 39.9885 L944.6 62.7141 L954.889 62.7141 Q960.601 62.7141 963.72 59.7569 Q966.839 56.7998 966.839 51.331 Q966.839 45.9028 963.72 42.9457 Q960.601 39.9885 954.889 39.9885 L944.6 39.9885 M936.417 33.264 L954.889 33.264 Q965.057 33.264 970.242 37.882 Q975.468 42.4596 975.468 51.331 Q975.468 60.2835 970.242 64.8611 Q965.057 69.4386 954.889 69.4386 L944.6 69.4386 L944.6 93.744 L936.417 93.744 L936.417 33.264 Z" fill="#000000" fill-rule="evenodd" fill-opacity="1"></path><path clip-path="url(#clip760)" d="M986.446 33.264 L994.629 33.264 L994.629 86.8575 L1024.08 86.8575 L1024.08 93.744 L986.446 93.744 L986.446 33.264 Z" fill="#000000" fill-rule="evenodd" fill-opacity="1"></path><path clip-path="url(#clip760)" d="M1027.6 33.264 L1035.83 33.264 L1035.83 70.0057 Q1035.83 79.7279 1039.35 84.0218 Q1042.87 88.2753 1050.77 88.2753 Q1058.63 88.2753 1062.16 84.0218 Q1065.68 79.7279 1065.68 70.0057 L1065.68 33.264 L1073.9 33.264 L1073.9 71.0184 Q1073.9 82.8471 1068.03 88.8829 Q1062.2 94.9188 1050.77 94.9188 Q1039.31 94.9188 1033.44 88.8829 Q1027.6 82.8471 1027.6 71.0184 L1027.6 33.264 Z" fill="#000000" fill-rule="evenodd" fill-opacity="1"></path><path clip-path="url(#clip760)" d="M1123.81 39.9885 L1123.81 62.7141 L1134.1 62.7141 Q1139.81 62.7141 1142.93 59.7569 Q1146.05 56.7998 1146.05 51.331 Q1146.05 45.9028 1142.93 42.9457 Q1139.81 39.9885 1134.1 39.9885 L1123.81 39.9885 M1115.63 33.264 L1134.1 33.264 Q1144.27 33.264 1149.45 37.882 Q1154.68 42.4596 1154.68 51.331 Q1154.68 60.2835 1149.45 64.8611 Q1144.27 69.4386 1134.1 69.4386 L1123.81 69.4386 L1123.81 93.744 L1115.63 93.744 L1115.63 33.264 Z" fill="#000000" fill-rule="evenodd" fill-opacity="1"></path><path clip-path="url(#clip760)" d="M1201.18 69.1955 L1201.18 72.8413 L1166.91 72.8413 Q1167.4 80.5381 1171.53 84.589 Q1175.7 88.5994 1183.12 88.5994 Q1187.41 88.5994 1191.42 87.5461 Q1195.47 86.4929 1199.44 84.3864 L1199.44 91.435 Q1195.43 93.1364 1191.22 94.0276 Q1187.01 94.9188 1182.67 94.9188 Q1171.82 94.9188 1165.46 88.5994 Q1159.14 82.2799 1159.14 71.5045 Q1159.14 60.3645 1165.13 53.8426 Q1171.17 47.2801 1181.38 47.2801 Q1190.53 47.2801 1195.84 53.1944 Q1201.18 59.0683 1201.18 69.1955 M1193.73 67.008 Q1193.65 60.8912 1190.29 57.2454 Q1186.97 53.5995 1181.46 53.5995 Q1175.22 53.5995 1171.45 57.1238 Q1167.72 60.6481 1167.16 67.0485 L1193.73 67.008 Z" fill="#000000" fill-rule="evenodd" fill-opacity="1"></path><path clip-path="url(#clip760)" d="M1239.71 55.3414 Q1238.45 54.6123 1236.95 54.2882 Q1235.5 53.9236 1233.71 53.9236 Q1227.39 53.9236 1223.99 58.0555 Q1220.63 62.1469 1220.63 69.8437 L1220.63 93.744 L1213.13 93.744 L1213.13 48.3739 L1220.63 48.3739 L1220.63 55.4224 Q1222.98 51.2905 1226.75 49.3056 Q1230.51 47.2801 1235.9 47.2801 Q1236.67 47.2801 1237.6 47.4017 Q1238.53 47.4827 1239.67 47.6852 L1239.71 55.3414 Z" fill="#000000" fill-rule="evenodd" fill-opacity="1"></path><path clip-path="url(#clip760)" d="M1270.5 30.7119 L1270.5 36.9098 L1263.37 36.9098 Q1259.36 36.9098 1257.78 38.5302 Q1256.24 40.1505 1256.24 44.3635 L1256.24 48.3739 L1268.51 48.3739 L1268.51 54.1667 L1256.24 54.1667 L1256.24 93.744 L1248.74 93.744 L1248.74 54.1667 L1241.61 54.1667 L1241.61 48.3739 L1248.74 48.3739 L1248.74 45.2142 Q1248.74 37.639 1252.27 34.1957 Q1255.79 30.7119 1263.45 30.7119 L1270.5 30.7119 Z" fill="#000000" fill-rule="evenodd" fill-opacity="1"></path><path clip-path="url(#clip760)" d="M1294.31 53.5995 Q1288.32 53.5995 1284.84 58.2986 Q1281.35 62.9571 1281.35 71.0994 Q1281.35 79.2418 1284.79 83.9408 Q1288.28 88.5994 1294.31 88.5994 Q1300.27 88.5994 1303.75 83.9003 Q1307.24 79.2013 1307.24 71.0994 Q1307.24 63.0381 1303.75 58.3391 Q1300.27 53.5995 1294.31 53.5995 M1294.31 47.2801 Q1304.04 47.2801 1309.59 53.5995 Q1315.14 59.9189 1315.14 71.0994 Q1315.14 82.2394 1309.59 88.5994 Q1304.04 94.9188 1294.31 94.9188 Q1284.55 94.9188 1279 88.5994 Q1273.49 82.2394 1273.49 71.0994 Q1273.49 59.9189 1279 53.5995 Q1284.55 47.2801 1294.31 47.2801 Z" fill="#000000" fill-rule="evenodd" fill-opacity="1"></path><path clip-path="url(#clip760)" d="M1353.78 55.3414 Q1352.53 54.6123 1351.03 54.2882 Q1349.57 53.9236 1347.79 53.9236 Q1341.47 53.9236 1338.06 58.0555 Q1334.7 62.1469 1334.7 69.8437 L1334.7 93.744 L1327.21 93.744 L1327.21 48.3739 L1334.7 48.3739 L1334.7 55.4224 Q1337.05 51.2905 1340.82 49.3056 Q1344.59 47.2801 1349.97 47.2801 Q1350.74 47.2801 1351.68 47.4017 Q1352.61 47.4827 1353.74 47.6852 L1353.78 55.3414 Z" fill="#000000" fill-rule="evenodd" fill-opacity="1"></path><path clip-path="url(#clip760)" d="M1395.47 57.0833 Q1398.26 52.0602 1402.15 49.6702 Q1406.04 47.2801 1411.3 47.2801 Q1418.39 47.2801 1422.24 52.2627 Q1426.09 57.2048 1426.09 66.3599 L1426.09 93.744 L1418.6 93.744 L1418.6 66.6029 Q1418.6 60.081 1416.29 56.9213 Q1413.98 53.7616 1409.24 53.7616 Q1403.45 53.7616 1400.08 57.6099 Q1396.72 61.4583 1396.72 68.1018 L1396.72 93.744 L1389.23 93.744 L1389.23 66.6029 Q1389.23 60.0405 1386.92 56.9213 Q1384.61 53.7616 1379.79 53.7616 Q1374.08 53.7616 1370.71 57.6504 Q1367.35 61.4988 1367.35 68.1018 L1367.35 93.744 L1359.86 93.744 L1359.86 48.3739 L1367.35 48.3739 L1367.35 55.4224 Q1369.9 51.25 1373.47 49.2651 Q1377.03 47.2801 1381.94 47.2801 Q1386.88 47.2801 1390.32 49.7917 Q1393.8 52.3032 1395.47 57.0833 Z" fill="#000000" fill-rule="evenodd" fill-opacity="1"></path><path clip-path="url(#clip760)" d="M1461.58 70.9374 Q1452.54 70.9374 1449.06 73.0034 Q1445.58 75.0693 1445.58 80.0519 Q1445.58 84.0218 1448.17 86.3714 Q1450.8 88.6804 1455.3 88.6804 Q1461.5 88.6804 1465.22 84.3054 Q1468.99 79.8899 1468.99 72.5983 L1468.99 70.9374 L1461.58 70.9374 M1476.44 67.8587 L1476.44 93.744 L1468.99 93.744 L1468.99 86.8575 Q1466.44 90.9894 1462.63 92.9743 Q1458.82 94.9188 1453.31 94.9188 Q1446.34 94.9188 1442.21 91.0299 Q1438.12 87.1005 1438.12 80.5381 Q1438.12 72.8818 1443.23 68.993 Q1448.37 65.1041 1458.54 65.1041 L1468.99 65.1041 L1468.99 64.3749 Q1468.99 59.2303 1465.59 56.4352 Q1462.22 53.5995 1456.11 53.5995 Q1452.22 53.5995 1448.53 54.5312 Q1444.85 55.463 1441.44 57.3264 L1441.44 50.4398 Q1445.53 48.86 1449.38 48.0903 Q1453.23 47.2801 1456.88 47.2801 Q1466.72 47.2801 1471.58 52.3843 Q1476.44 57.4884 1476.44 67.8587 Z" fill="#000000" fill-rule="evenodd" fill-opacity="1"></path><path clip-path="url(#clip760)" d="M1529.51 66.3599 L1529.51 93.744 L1522.06 93.744 L1522.06 66.6029 Q1522.06 60.162 1519.54 56.9618 Q1517.03 53.7616 1512.01 53.7616 Q1505.97 53.7616 1502.49 57.6099 Q1499.01 61.4583 1499.01 68.1018 L1499.01 93.744 L1491.51 93.744 L1491.51 48.3739 L1499.01 48.3739 L1499.01 55.4224 Q1501.68 51.331 1505.29 49.3056 Q1508.93 47.2801 1513.67 47.2801 Q1521.49 47.2801 1525.5 52.1412 Q1529.51 56.9618 1529.51 66.3599 Z" fill="#000000" fill-rule="evenodd" fill-opacity="1"></path><path clip-path="url(#clip760)" d="M1577.03 50.1158 L1577.03 57.0833 Q1573.87 55.3414 1570.67 54.4907 Q1567.51 53.5995 1564.27 53.5995 Q1557.02 53.5995 1553.01 58.2176 Q1548.99 62.7951 1548.99 71.0994 Q1548.99 79.4038 1553.01 84.0218 Q1557.02 88.5994 1564.27 88.5994 Q1567.51 88.5994 1570.67 87.7487 Q1573.87 86.8575 1577.03 85.1156 L1577.03 92.0021 Q1573.91 93.4604 1570.55 94.1896 Q1567.22 94.9188 1563.46 94.9188 Q1553.21 94.9188 1547.17 88.4778 Q1541.14 82.0369 1541.14 71.0994 Q1541.14 60 1547.21 53.64 Q1553.33 47.2801 1563.94 47.2801 Q1567.39 47.2801 1570.67 48.0093 Q1573.95 48.6979 1577.03 50.1158 Z" fill="#000000" fill-rule="evenodd" fill-opacity="1"></path><path clip-path="url(#clip760)" d="M1628.8 69.1955 L1628.8 72.8413 L1594.53 72.8413 Q1595.01 80.5381 1599.15 84.589 Q1603.32 88.5994 1610.73 88.5994 Q1615.02 88.5994 1619.03 87.5461 Q1623.09 86.4929 1627.06 84.3864 L1627.06 91.435 Q1623.05 93.1364 1618.83 94.0276 Q1614.62 94.9188 1610.29 94.9188 Q1599.43 94.9188 1593.07 88.5994 Q1586.75 82.2799 1586.75 71.5045 Q1586.75 60.3645 1592.74 53.8426 Q1598.78 47.2801 1608.99 47.2801 Q1618.14 47.2801 1623.45 53.1944 Q1628.8 59.0683 1628.8 69.1955 M1621.34 67.008 Q1621.26 60.8912 1617.9 57.2454 Q1614.58 53.5995 1609.07 53.5995 Q1602.83 53.5995 1599.06 57.1238 Q1595.34 60.6481 1594.77 67.0485 L1621.34 67.008 Z" fill="#000000" fill-rule="evenodd" fill-opacity="1"></path><path clip-path="url(#clip760)" d="M995.763 121.432 L995.763 127.63 L988.633 127.63 Q984.623 127.63 983.043 129.25 Q981.504 130.871 981.504 135.083 L981.504 139.094 L993.778 139.094 L993.778 144.887 L981.504 144.887 L981.504 184.464 L974.01 184.464 L974.01 144.887 L966.88 144.887 L966.88 139.094 L974.01 139.094 L974.01 135.934 Q974.01 128.359 977.534 124.916 Q981.058 121.432 988.714 121.432 L995.763 121.432 Z" fill="#000000" fill-rule="evenodd" fill-opacity="1"></path><path clip-path="url(#clip760)" d="M1002 139.094 L1009.45 139.094 L1009.45 184.464 L1002 184.464 L1002 139.094 M1002 121.432 L1009.45 121.432 L1009.45 130.871 L1002 130.871 L1002 121.432 Z" fill="#000000" fill-rule="evenodd" fill-opacity="1"></path><path clip-path="url(#clip760)" d="M1032.42 126.212 L1032.42 139.094 L1047.78 139.094 L1047.78 144.887 L1032.42 144.887 L1032.42 169.516 Q1032.42 175.066 1033.92 176.646 Q1035.46 178.226 1040.12 178.226 L1047.78 178.226 L1047.78 184.464 L1040.12 184.464 Q1031.49 184.464 1028.21 181.264 Q1024.93 178.023 1024.93 169.516 L1024.93 144.887 L1019.46 144.887 L1019.46 139.094 L1024.93 139.094 L1024.93 126.212 L1032.42 126.212 Z" fill="#000000" fill-rule="evenodd" fill-opacity="1"></path><path clip-path="url(#clip760)" d="M1112.87 140.431 L1112.87 147.479 Q1109.71 145.859 1106.31 145.049 Q1102.91 144.239 1099.26 144.239 Q1093.71 144.239 1090.92 145.94 Q1088.16 147.641 1088.16 151.044 Q1088.16 153.637 1090.15 155.135 Q1092.13 156.594 1098.13 157.931 L1100.68 158.498 Q1108.62 160.199 1111.94 163.318 Q1115.31 166.397 1115.31 171.947 Q1115.31 178.266 1110.28 181.952 Q1105.3 185.639 1096.55 185.639 Q1092.9 185.639 1088.93 184.91 Q1085 184.221 1080.63 182.803 L1080.63 175.106 Q1084.76 177.253 1088.77 178.347 Q1092.78 179.4 1096.71 179.4 Q1101.98 179.4 1104.81 177.618 Q1107.65 175.795 1107.65 172.514 Q1107.65 169.476 1105.58 167.855 Q1103.56 166.235 1096.63 164.736 L1094.04 164.128 Q1087.11 162.67 1084.03 159.672 Q1080.95 156.634 1080.95 151.368 Q1080.95 144.968 1085.49 141.484 Q1090.03 138 1098.37 138 Q1102.5 138 1106.15 138.608 Q1109.8 139.215 1112.87 140.431 Z" fill="#000000" fill-rule="evenodd" fill-opacity="1"></path><path clip-path="url(#clip760)" d="M1127.17 121.432 L1134.63 121.432 L1134.63 184.464 L1127.17 184.464 L1127.17 121.432 Z" fill="#000000" fill-rule="evenodd" fill-opacity="1"></path><path clip-path="url(#clip760)" d="M1167.8 144.32 Q1161.81 144.32 1158.33 149.019 Q1154.84 153.677 1154.84 161.819 Q1154.84 169.962 1158.29 174.661 Q1161.77 179.319 1167.8 179.319 Q1173.76 179.319 1177.24 174.62 Q1180.73 169.921 1180.73 161.819 Q1180.73 153.758 1177.24 149.059 Q1173.76 144.32 1167.8 144.32 M1167.8 138 Q1177.53 138 1183.08 144.32 Q1188.63 150.639 1188.63 161.819 Q1188.63 172.959 1183.08 179.319 Q1177.53 185.639 1167.8 185.639 Q1158.04 185.639 1152.49 179.319 Q1146.98 172.959 1146.98 161.819 Q1146.98 150.639 1152.49 144.32 Q1158.04 138 1167.8 138 Z" fill="#000000" fill-rule="evenodd" fill-opacity="1"></path><path clip-path="url(#clip760)" d="M1208.19 177.658 L1208.19 201.721 L1200.7 201.721 L1200.7 139.094 L1208.19 139.094 L1208.19 145.98 Q1210.54 141.93 1214.11 139.985 Q1217.71 138 1222.69 138 Q1230.96 138 1236.1 144.563 Q1241.29 151.125 1241.29 161.819 Q1241.29 172.514 1236.1 179.076 Q1230.96 185.639 1222.69 185.639 Q1217.71 185.639 1214.11 183.694 Q1210.54 181.709 1208.19 177.658 M1233.55 161.819 Q1233.55 153.596 1230.15 148.938 Q1226.79 144.239 1220.87 144.239 Q1214.96 144.239 1211.55 148.938 Q1208.19 153.596 1208.19 161.819 Q1208.19 170.043 1211.55 174.742 Q1214.96 179.4 1220.87 179.4 Q1226.79 179.4 1230.15 174.742 Q1233.55 170.043 1233.55 161.819 Z" fill="#000000" fill-rule="evenodd" fill-opacity="1"></path><path clip-path="url(#clip760)" d="M1292.45 159.916 L1292.45 163.561 L1258.18 163.561 Q1258.67 171.258 1262.8 175.309 Q1266.97 179.319 1274.38 179.319 Q1278.68 179.319 1282.69 178.266 Q1286.74 177.213 1290.71 175.106 L1290.71 182.155 Q1286.7 183.856 1282.49 184.748 Q1278.27 185.639 1273.94 185.639 Q1263.08 185.639 1256.72 179.319 Q1250.4 173 1250.4 162.225 Q1250.4 151.085 1256.4 144.563 Q1262.43 138 1272.64 138 Q1281.8 138 1287.1 143.914 Q1292.45 149.788 1292.45 159.916 M1285 157.728 Q1284.92 151.611 1281.55 147.965 Q1278.23 144.32 1272.72 144.32 Q1266.48 144.32 1262.72 147.844 Q1258.99 151.368 1258.42 157.769 L1285 157.728 Z" fill="#000000" fill-rule="evenodd" fill-opacity="1"></path><path clip-path="url(#clip760)" d="M1332.03 146.791 L1383.96 146.791 L1383.96 153.596 L1332.03 153.596 L1332.03 146.791 M1332.03 163.318 L1383.96 163.318 L1383.96 170.205 L1332.03 170.205 L1332.03 163.318 Z" fill="#000000" fill-rule="evenodd" fill-opacity="1"></path><path clip-path="url(#clip760)" d="M1435.04 177.577 L1463.6 177.577 L1463.6 184.464 L1425.2 184.464 L1425.2 177.577 Q1429.86 172.757 1437.88 164.655 Q1445.94 156.513 1448.01 154.163 Q1451.94 149.748 1453.47 146.71 Q1455.05 143.631 1455.05 140.674 Q1455.05 135.853 1451.65 132.815 Q1448.29 129.777 1442.86 129.777 Q1439.01 129.777 1434.72 131.114 Q1430.47 132.45 1425.6 135.164 L1425.6 126.901 Q1430.55 124.916 1434.84 123.903 Q1439.13 122.89 1442.7 122.89 Q1452.1 122.89 1457.69 127.589 Q1463.28 132.288 1463.28 140.147 Q1463.28 143.874 1461.86 147.236 Q1460.48 150.558 1456.8 155.095 Q1455.78 156.27 1450.36 161.9 Q1444.93 167.491 1435.04 177.577 Z" fill="#000000" fill-rule="evenodd" fill-opacity="1"></path><path clip-path="url(#clip760)" d="M1480.78 174.175 L1489.33 174.175 L1489.33 184.464 L1480.78 184.464 L1480.78 174.175 Z" fill="#000000" fill-rule="evenodd" fill-opacity="1"></path><path clip-path="url(#clip760)" d="M1507.39 183.208 L1507.39 175.755 Q1510.47 177.213 1513.63 177.983 Q1516.79 178.752 1519.83 178.752 Q1527.93 178.752 1532.18 173.324 Q1536.48 167.855 1537.09 156.756 Q1534.74 160.24 1531.13 162.103 Q1527.53 163.966 1523.15 163.966 Q1514.08 163.966 1508.77 158.498 Q1503.5 152.988 1503.5 143.469 Q1503.5 134.152 1509.01 128.521 Q1514.52 122.89 1523.68 122.89 Q1534.17 122.89 1539.68 130.952 Q1545.23 138.972 1545.23 154.285 Q1545.23 168.584 1538.42 177.132 Q1531.66 185.639 1520.19 185.639 Q1517.11 185.639 1513.95 185.031 Q1510.79 184.423 1507.39 183.208 M1523.68 157.566 Q1529.19 157.566 1532.39 153.799 Q1535.63 150.031 1535.63 143.469 Q1535.63 136.947 1532.39 133.18 Q1529.19 129.372 1523.68 129.372 Q1518.17 129.372 1514.93 133.18 Q1511.73 136.947 1511.73 143.469 Q1511.73 150.031 1514.93 153.799 Q1518.17 157.566 1523.68 157.566 Z" fill="#000000" fill-rule="evenodd" fill-opacity="1"></path><path clip-path="url(#clip760)" d="M1577.43 129.372 Q1571.11 129.372 1567.91 135.61 Q1564.75 141.808 1564.75 154.285 Q1564.75 166.721 1567.91 172.959 Q1571.11 179.157 1577.43 179.157 Q1583.79 179.157 1586.95 172.959 Q1590.15 166.721 1590.15 154.285 Q1590.15 141.808 1586.95 135.61 Q1583.79 129.372 1577.43 129.372 M1577.43 122.89 Q1587.6 122.89 1592.95 130.952 Q1598.33 138.972 1598.33 154.285 Q1598.33 169.557 1592.95 177.618 Q1587.6 185.639 1577.43 185.639 Q1567.26 185.639 1561.88 177.618 Q1556.53 169.557 1556.53 154.285 Q1556.53 138.972 1561.88 130.952 Q1567.26 122.89 1577.43 122.89 Z" fill="#000000" fill-rule="evenodd" fill-opacity="1"></path><circle clip-path="url(#clip762)" cx="273.033" cy="1372.88" r="14.4" fill="#009af9" fill-rule="evenodd" fill-opacity="1" stroke="#000000" stroke-opacity="1" stroke-width="3.2"></circle>
<circle clip-path="url(#clip762)" cx="469.777" cy="1357.18" r="14.4" fill="#009af9" fill-rule="evenodd" fill-opacity="1" stroke="#000000" stroke-opacity="1" stroke-width="3.2"></circle>
<circle clip-path="url(#clip762)" cx="706.863" cy="1105.74" r="14.4" fill="#009af9" fill-rule="evenodd" fill-opacity="1" stroke="#000000" stroke-opacity="1" stroke-width="3.2"></circle>
<circle clip-path="url(#clip762)" cx="934.593" cy="1027.75" r="14.4" fill="#009af9" fill-rule="evenodd" fill-opacity="1" stroke="#000000" stroke-opacity="1" stroke-width="3.2"></circle>
<circle clip-path="url(#clip762)" cx="1165.36" cy="893.915" r="14.4" fill="#009af9" fill-rule="evenodd" fill-opacity="1" stroke="#000000" stroke-opacity="1" stroke-width="3.2"></circle>
<circle clip-path="url(#clip762)" cx="1393.91" cy="647.994" r="14.4" fill="#009af9" fill-rule="evenodd" fill-opacity="1" stroke="#000000" stroke-opacity="1" stroke-width="3.2"></circle>
<circle clip-path="url(#clip762)" cx="1619.41" cy="520.307" r="14.4" fill="#009af9" fill-rule="evenodd" fill-opacity="1" stroke="#000000" stroke-opacity="1" stroke-width="3.2"></circle>
<circle clip-path="url(#clip762)" cx="1840.69" cy="485.942" r="14.4" fill="#009af9" fill-rule="evenodd" fill-opacity="1" stroke="#000000" stroke-opacity="1" stroke-width="3.2"></circle>
<circle clip-path="url(#clip762)" cx="2067" cy="400.799" r="14.4" fill="#009af9" fill-rule="evenodd" fill-opacity="1" stroke="#000000" stroke-opacity="1" stroke-width="3.2"></circle>
<circle clip-path="url(#clip762)" cx="2292.18" cy="259.772" r="14.4" fill="#009af9" fill-rule="evenodd" fill-opacity="1" stroke="#000000" stroke-opacity="1" stroke-width="3.2"></circle>
<polyline clip-path="url(#clip762)" style="stroke:#e26f46; stroke-linecap:round; stroke-linejoin:round; stroke-width:4; stroke-opacity:1; fill:none" points="
  273.033,1388.11 469.777,1274.19 706.863,1136.92 934.593,1005.07 1165.36,871.454 1393.91,739.124 1619.41,608.556 1840.69,480.435 2067,349.403 2292.18,219.025 
  
  "></polyline>
</svg>