<svg xmlns="http://www.w3.org/2000/svg" xmlns:xlink="http://www.w3.org/1999/xlink" width="600" height="400" viewBox="0 0 2400 1600">
<defs>
  <clipPath id="clip720">
    <rect x="0" y="0" width="2400" height="1600"></rect>
  </clipPath>
</defs>
<path clip-path="url(#clip720)" d="
M0 1600 L2400 1600 L2400 0 L0 0  Z
  " fill="#ffffff" fill-rule="evenodd" fill-opacity="1"></path>
<defs>
  <clipPath id="clip721">
    <rect x="480" y="0" width="1681" height="1600"></rect>
  </clipPath>
</defs>
<path clip-path="url(#clip720)" d="
M242.621 1423.18 L2352.76 1423.18 L2352.76 183.952 L242.621 183.952  Z
  " fill="#ffffff" fill-rule="evenodd" fill-opacity="1"></path>
<defs>
  <clipPath id="clip722">
    <rect x="242" y="183" width="2111" height="1240"></rect>
  </clipPath>
</defs>
<polyline clip-path="url(#clip722)" style="stroke:#000000; stroke-linecap:round; stroke-linejoin:round; stroke-width:2; stroke-opacity:0.1; fill:none" points="
  567.823,1423.18 567.823,183.952 
  "></polyline>
<polyline clip-path="url(#clip722)" style="stroke:#000000; stroke-linecap:round; stroke-linejoin:round; stroke-width:2; stroke-opacity:0.1; fill:none" points="
  966.045,1423.18 966.045,183.952 
  "></polyline>
<polyline clip-path="url(#clip722)" style="stroke:#000000; stroke-linecap:round; stroke-linejoin:round; stroke-width:2; stroke-opacity:0.1; fill:none" points="
  1364.27,1423.18 1364.27,183.952 
  "></polyline>
<polyline clip-path="url(#clip722)" style="stroke:#000000; stroke-linecap:round; stroke-linejoin:round; stroke-width:2; stroke-opacity:0.1; fill:none" points="
  1762.49,1423.18 1762.49,183.952 
  "></polyline>
<polyline clip-path="url(#clip722)" style="stroke:#000000; stroke-linecap:round; stroke-linejoin:round; stroke-width:2; stroke-opacity:0.1; fill:none" points="
  2160.71,1423.18 2160.71,183.952 
  "></polyline>
<polyline clip-path="url(#clip720)" style="stroke:#000000; stroke-linecap:round; stroke-linejoin:round; stroke-width:4; stroke-opacity:1; fill:none" points="
  242.621,1423.18 2352.76,1423.18 
  "></polyline>
<polyline clip-path="url(#clip720)" style="stroke:#000000; stroke-linecap:round; stroke-linejoin:round; stroke-width:4; stroke-opacity:1; fill:none" points="
  567.823,1423.18 567.823,1404.28 
  "></polyline>
<polyline clip-path="url(#clip720)" style="stroke:#000000; stroke-linecap:round; stroke-linejoin:round; stroke-width:4; stroke-opacity:1; fill:none" points="
  966.045,1423.18 966.045,1404.28 
  "></polyline>
<polyline clip-path="url(#clip720)" style="stroke:#000000; stroke-linecap:round; stroke-linejoin:round; stroke-width:4; stroke-opacity:1; fill:none" points="
  1364.27,1423.18 1364.27,1404.28 
  "></polyline>
<polyline clip-path="url(#clip720)" style="stroke:#000000; stroke-linecap:round; stroke-linejoin:round; stroke-width:4; stroke-opacity:1; fill:none" points="
  1762.49,1423.18 1762.49,1404.28 
  "></polyline>
<polyline clip-path="url(#clip720)" style="stroke:#000000; stroke-linecap:round; stroke-linejoin:round; stroke-width:4; stroke-opacity:1; fill:none" points="
  2160.71,1423.18 2160.71,1404.28 
  "></polyline>
<path clip-path="url(#clip720)" d="M535.774 1481.64 L543.413 1481.64 L543.413 1455.28 L535.103 1456.95 L535.103 1452.69 L543.367 1451.02 L548.043 1451.02 L548.043 1481.64 L555.682 1481.64 L555.682 1485.58 L535.774 1485.58 L535.774 1481.64 Z" fill="#000000" fill-rule="evenodd" fill-opacity="1"></path><path clip-path="url(#clip720)" d="M565.126 1479.7 L570.01 1479.7 L570.01 1485.58 L565.126 1485.58 L565.126 1479.7 Z" fill="#000000" fill-rule="evenodd" fill-opacity="1"></path><path clip-path="url(#clip720)" d="M584.223 1481.64 L600.542 1481.64 L600.542 1485.58 L578.598 1485.58 L578.598 1481.64 Q581.26 1478.89 585.844 1474.26 Q590.45 1469.61 591.631 1468.27 Q593.876 1465.74 594.755 1464.01 Q595.658 1462.25 595.658 1460.56 Q595.658 1457.8 593.714 1456.07 Q591.793 1454.33 588.691 1454.33 Q586.492 1454.33 584.038 1455.09 Q581.607 1455.86 578.83 1457.41 L578.83 1452.69 Q581.654 1451.55 584.107 1450.97 Q586.561 1450.39 588.598 1450.39 Q593.968 1450.39 597.163 1453.08 Q600.357 1455.77 600.357 1460.26 Q600.357 1462.39 599.547 1464.31 Q598.76 1466.2 596.654 1468.8 Q596.075 1469.47 592.973 1472.69 Q589.871 1475.88 584.223 1481.64 Z" fill="#000000" fill-rule="evenodd" fill-opacity="1"></path><path clip-path="url(#clip720)" d="M933.695 1481.64 L941.334 1481.64 L941.334 1455.28 L933.024 1456.95 L933.024 1452.69 L941.288 1451.02 L945.964 1451.02 L945.964 1481.64 L953.602 1481.64 L953.602 1485.58 L933.695 1485.58 L933.695 1481.64 Z" fill="#000000" fill-rule="evenodd" fill-opacity="1"></path><path clip-path="url(#clip720)" d="M963.047 1479.7 L967.931 1479.7 L967.931 1485.58 L963.047 1485.58 L963.047 1479.7 Z" fill="#000000" fill-rule="evenodd" fill-opacity="1"></path><path clip-path="url(#clip720)" d="M978.163 1451.02 L996.519 1451.02 L996.519 1454.96 L982.445 1454.96 L982.445 1463.43 Q983.463 1463.08 984.482 1462.92 Q985.5 1462.73 986.519 1462.73 Q992.306 1462.73 995.686 1465.9 Q999.065 1469.08 999.065 1474.49 Q999.065 1480.07 995.593 1483.17 Q992.121 1486.25 985.801 1486.25 Q983.625 1486.25 981.357 1485.88 Q979.112 1485.51 976.704 1484.77 L976.704 1480.07 Q978.788 1481.2 981.01 1481.76 Q983.232 1482.32 985.709 1482.32 Q989.713 1482.32 992.051 1480.21 Q994.389 1478.1 994.389 1474.49 Q994.389 1470.88 992.051 1468.77 Q989.713 1466.67 985.709 1466.67 Q983.834 1466.67 981.959 1467.08 Q980.107 1467.5 978.163 1468.38 L978.163 1451.02 Z" fill="#000000" fill-rule="evenodd" fill-opacity="1"></path><path clip-path="url(#clip720)" d="M1331.47 1481.64 L1339.1 1481.64 L1339.1 1455.28 L1330.79 1456.95 L1330.79 1452.69 L1339.06 1451.02 L1343.73 1451.02 L1343.73 1481.64 L1351.37 1481.64 L1351.37 1485.58 L1331.47 1485.58 L1331.47 1481.64 Z" fill="#000000" fill-rule="evenodd" fill-opacity="1"></path><path clip-path="url(#clip720)" d="M1360.82 1479.7 L1365.7 1479.7 L1365.7 1485.58 L1360.82 1485.58 L1360.82 1479.7 Z" fill="#000000" fill-rule="evenodd" fill-opacity="1"></path><path clip-path="url(#clip720)" d="M1385.89 1469.17 Q1382.55 1469.17 1380.63 1470.95 Q1378.73 1472.73 1378.73 1475.86 Q1378.73 1478.98 1380.63 1480.77 Q1382.55 1482.55 1385.89 1482.55 Q1389.22 1482.55 1391.14 1480.77 Q1393.06 1478.96 1393.06 1475.86 Q1393.06 1472.73 1391.14 1470.95 Q1389.24 1469.17 1385.89 1469.17 M1381.21 1467.18 Q1378.2 1466.44 1376.51 1464.38 Q1374.84 1462.32 1374.84 1459.35 Q1374.84 1455.21 1377.78 1452.8 Q1380.75 1450.39 1385.89 1450.39 Q1391.05 1450.39 1393.99 1452.8 Q1396.93 1455.21 1396.93 1459.35 Q1396.93 1462.32 1395.24 1464.38 Q1393.57 1466.44 1390.59 1467.18 Q1393.97 1467.96 1395.84 1470.26 Q1397.74 1472.55 1397.74 1475.86 Q1397.74 1480.88 1394.66 1483.57 Q1391.6 1486.25 1385.89 1486.25 Q1380.17 1486.25 1377.09 1483.57 Q1374.03 1480.88 1374.03 1475.86 Q1374.03 1472.55 1375.93 1470.26 Q1377.83 1467.96 1381.21 1467.18 M1379.5 1459.79 Q1379.5 1462.48 1381.16 1463.98 Q1382.85 1465.49 1385.89 1465.49 Q1388.9 1465.49 1390.59 1463.98 Q1392.3 1462.48 1392.3 1459.79 Q1392.3 1457.11 1390.59 1455.6 Q1388.9 1454.1 1385.89 1454.1 Q1382.85 1454.1 1381.16 1455.6 Q1379.5 1457.11 1379.5 1459.79 Z" fill="#000000" fill-rule="evenodd" fill-opacity="1"></path><path clip-path="url(#clip720)" d="M1734.34 1481.64 L1750.66 1481.64 L1750.66 1485.58 L1728.72 1485.58 L1728.72 1481.64 Q1731.38 1478.89 1735.96 1474.26 Q1740.57 1469.61 1741.75 1468.27 Q1743.99 1465.74 1744.87 1464.01 Q1745.78 1462.25 1745.78 1460.56 Q1745.78 1457.8 1743.83 1456.07 Q1741.91 1454.33 1738.81 1454.33 Q1736.61 1454.33 1734.15 1455.09 Q1731.72 1455.86 1728.95 1457.41 L1728.95 1452.69 Q1731.77 1451.55 1734.22 1450.97 Q1736.68 1450.39 1738.72 1450.39 Q1744.09 1450.39 1747.28 1453.08 Q1750.47 1455.77 1750.47 1460.26 Q1750.47 1462.39 1749.66 1464.31 Q1748.88 1466.2 1746.77 1468.8 Q1746.19 1469.47 1743.09 1472.69 Q1739.99 1475.88 1734.34 1481.64 Z" fill="#000000" fill-rule="evenodd" fill-opacity="1"></path><path clip-path="url(#clip720)" d="M1760.47 1479.7 L1765.36 1479.7 L1765.36 1485.58 L1760.47 1485.58 L1760.47 1479.7 Z" fill="#000000" fill-rule="evenodd" fill-opacity="1"></path><path clip-path="url(#clip720)" d="M1776.35 1481.64 L1783.99 1481.64 L1783.99 1455.28 L1775.68 1456.95 L1775.68 1452.69 L1783.95 1451.02 L1788.62 1451.02 L1788.62 1481.64 L1796.26 1481.64 L1796.26 1485.58 L1776.35 1485.58 L1776.35 1481.64 Z" fill="#000000" fill-rule="evenodd" fill-opacity="1"></path><path clip-path="url(#clip720)" d="M2131.71 1481.64 L2148.02 1481.64 L2148.02 1485.58 L2126.08 1485.58 L2126.08 1481.64 Q2128.74 1478.89 2133.33 1474.26 Q2137.93 1469.61 2139.11 1468.27 Q2141.36 1465.74 2142.24 1464.01 Q2143.14 1462.25 2143.14 1460.56 Q2143.14 1457.8 2141.2 1456.07 Q2139.27 1454.33 2136.17 1454.33 Q2133.97 1454.33 2131.52 1455.09 Q2129.09 1455.86 2126.31 1457.41 L2126.31 1452.69 Q2129.14 1451.55 2131.59 1450.97 Q2134.04 1450.39 2136.08 1450.39 Q2141.45 1450.39 2144.65 1453.08 Q2147.84 1455.77 2147.84 1460.26 Q2147.84 1462.39 2147.03 1464.31 Q2146.24 1466.2 2144.14 1468.8 Q2143.56 1469.47 2140.46 1472.69 Q2137.35 1475.88 2131.71 1481.64 Z" fill="#000000" fill-rule="evenodd" fill-opacity="1"></path><path clip-path="url(#clip720)" d="M2157.84 1479.7 L2162.72 1479.7 L2162.72 1485.58 L2157.84 1485.58 L2157.84 1479.7 Z" fill="#000000" fill-rule="evenodd" fill-opacity="1"></path><path clip-path="url(#clip720)" d="M2185.76 1455.09 L2173.95 1473.54 L2185.76 1473.54 L2185.76 1455.09 M2184.53 1451.02 L2190.41 1451.02 L2190.41 1473.54 L2195.34 1473.54 L2195.34 1477.43 L2190.41 1477.43 L2190.41 1485.58 L2185.76 1485.58 L2185.76 1477.43 L2170.15 1477.43 L2170.15 1472.92 L2184.53 1451.02 Z" fill="#000000" fill-rule="evenodd" fill-opacity="1"></path><path clip-path="url(#clip720)" d="M1146.3 1518.52 L1152.15 1518.52 L1152.15 1568.04 L1146.3 1568.04 L1146.3 1518.52 Z" fill="#000000" fill-rule="evenodd" fill-opacity="1"></path><path clip-path="url(#clip720)" d="M1178.22 1536.5 Q1173.51 1536.5 1170.77 1540.19 Q1168.03 1543.85 1168.03 1550.25 Q1168.03 1556.65 1170.74 1560.34 Q1173.48 1564 1178.22 1564 Q1182.9 1564 1185.64 1560.31 Q1188.37 1556.62 1188.37 1550.25 Q1188.37 1543.92 1185.64 1540.23 Q1182.9 1536.5 1178.22 1536.5 M1178.22 1531.54 Q1185.86 1531.54 1190.22 1536.5 Q1194.58 1541.47 1194.58 1550.25 Q1194.58 1559 1190.22 1564 Q1185.86 1568.97 1178.22 1568.97 Q1170.55 1568.97 1166.19 1564 Q1161.86 1559 1161.86 1550.25 Q1161.86 1541.47 1166.19 1536.5 Q1170.55 1531.54 1178.22 1531.54 Z" fill="#000000" fill-rule="evenodd" fill-opacity="1"></path><path clip-path="url(#clip720)" d="M1227.75 1549.81 Q1227.75 1543.44 1225.1 1539.94 Q1222.49 1536.44 1217.75 1536.44 Q1213.04 1536.44 1210.4 1539.94 Q1207.79 1543.44 1207.79 1549.81 Q1207.79 1556.14 1210.4 1559.64 Q1213.04 1563.14 1217.75 1563.14 Q1222.49 1563.14 1225.1 1559.64 Q1227.75 1556.14 1227.75 1549.81 M1233.6 1563.62 Q1233.6 1572.72 1229.56 1577.15 Q1225.52 1581.6 1217.18 1581.6 Q1214.09 1581.6 1211.35 1581.13 Q1208.62 1580.68 1206.04 1579.72 L1206.04 1574.03 Q1208.62 1575.43 1211.13 1576.1 Q1213.65 1576.76 1216.26 1576.76 Q1222.02 1576.76 1224.88 1573.74 Q1227.75 1570.75 1227.75 1564.67 L1227.75 1561.77 Q1225.93 1564.92 1223.1 1566.48 Q1220.27 1568.04 1216.32 1568.04 Q1209.76 1568.04 1205.75 1563.05 Q1201.74 1558.05 1201.74 1549.81 Q1201.74 1541.53 1205.75 1536.53 Q1209.76 1531.54 1216.32 1531.54 Q1220.27 1531.54 1223.1 1533.1 Q1225.93 1534.66 1227.75 1537.81 L1227.75 1532.4 L1233.6 1532.4 L1233.6 1563.62 Z" fill="#000000" fill-rule="evenodd" fill-opacity="1"></path><path clip-path="url(#clip720)" d="M1272.75 1578.87 L1272.75 1583.42 L1238.89 1583.42 L1238.89 1578.87 L1272.75 1578.87 Z" fill="#000000" fill-rule="evenodd" fill-opacity="1"></path><path clip-path="url(#clip720)" d="M1280.2 1562.63 L1290.7 1562.63 L1290.7 1526.38 L1279.28 1528.67 L1279.28 1522.82 L1290.64 1520.52 L1297.07 1520.52 L1297.07 1562.63 L1307.57 1562.63 L1307.57 1568.04 L1280.2 1568.04 L1280.2 1562.63 Z" fill="#000000" fill-rule="evenodd" fill-opacity="1"></path><path clip-path="url(#clip720)" d="M1334.31 1524.76 Q1329.34 1524.76 1326.83 1529.66 Q1324.34 1534.53 1324.34 1544.33 Q1324.34 1554.1 1326.83 1559 Q1329.34 1563.87 1334.31 1563.87 Q1339.3 1563.87 1341.79 1559 Q1344.3 1554.1 1344.3 1544.33 Q1344.3 1534.53 1341.79 1529.66 Q1339.3 1524.76 1334.31 1524.76 M1334.31 1519.66 Q1342.3 1519.66 1346.5 1526 Q1350.73 1532.3 1350.73 1544.33 Q1350.73 1556.33 1346.5 1562.66 Q1342.3 1568.97 1334.31 1568.97 Q1326.32 1568.97 1322.08 1562.66 Q1317.88 1556.33 1317.88 1544.33 Q1317.88 1532.3 1322.08 1526 Q1326.32 1519.66 1334.31 1519.66 Z" fill="#000000" fill-rule="evenodd" fill-opacity="1"></path><path clip-path="url(#clip720)" d="M1375.27 1518.58 Q1371.01 1525.9 1368.94 1533.06 Q1366.87 1540.23 1366.87 1547.58 Q1366.87 1554.93 1368.94 1562.16 Q1371.04 1569.35 1375.27 1576.64 L1370.18 1576.64 Q1365.4 1569.16 1363.02 1561.93 Q1360.66 1554.71 1360.66 1547.58 Q1360.66 1540.48 1363.02 1533.29 Q1365.37 1526.09 1370.18 1518.58 L1375.27 1518.58 Z" fill="#000000" fill-rule="evenodd" fill-opacity="1"></path><path clip-path="url(#clip720)" d="M1386.89 1520.52 L1395.55 1520.52 L1416.62 1560.28 L1416.62 1520.52 L1422.85 1520.52 L1422.85 1568.04 L1414.2 1568.04 L1393.13 1528.29 L1393.13 1568.04 L1386.89 1568.04 L1386.89 1520.52 Z" fill="#000000" fill-rule="evenodd" fill-opacity="1"></path><path clip-path="url(#clip720)" d="M1434.47 1518.58 L1439.56 1518.58 Q1444.34 1526.09 1446.69 1533.29 Q1449.08 1540.48 1449.08 1547.58 Q1449.08 1554.71 1446.69 1561.93 Q1444.34 1569.16 1439.56 1576.64 L1434.47 1576.64 Q1438.7 1569.35 1440.77 1562.16 Q1442.87 1554.93 1442.87 1547.58 Q1442.87 1540.23 1440.77 1533.06 Q1438.7 1525.9 1434.47 1518.58 Z" fill="#000000" fill-rule="evenodd" fill-opacity="1"></path><polyline clip-path="url(#clip722)" style="stroke:#000000; stroke-linecap:round; stroke-linejoin:round; stroke-width:2; stroke-opacity:0.1; fill:none" points="
  242.621,1199.69 2352.76,1199.69 
  "></polyline>
<polyline clip-path="url(#clip722)" style="stroke:#000000; stroke-linecap:round; stroke-linejoin:round; stroke-width:2; stroke-opacity:0.1; fill:none" points="
  242.621,862.189 2352.76,862.189 
  "></polyline>
<polyline clip-path="url(#clip722)" style="stroke:#000000; stroke-linecap:round; stroke-linejoin:round; stroke-width:2; stroke-opacity:0.1; fill:none" points="
  242.621,524.691 2352.76,524.691 
  "></polyline>
<polyline clip-path="url(#clip722)" style="stroke:#000000; stroke-linecap:round; stroke-linejoin:round; stroke-width:2; stroke-opacity:0.1; fill:none" points="
  242.621,187.193 2352.76,187.193 
  "></polyline>
<polyline clip-path="url(#clip720)" style="stroke:#000000; stroke-linecap:round; stroke-linejoin:round; stroke-width:4; stroke-opacity:1; fill:none" points="
  242.621,1423.18 242.621,183.952 
  "></polyline>
<polyline clip-path="url(#clip720)" style="stroke:#000000; stroke-linecap:round; stroke-linejoin:round; stroke-width:4; stroke-opacity:1; fill:none" points="
  242.621,1199.69 261.518,1199.69 
  "></polyline>
<polyline clip-path="url(#clip720)" style="stroke:#000000; stroke-linecap:round; stroke-linejoin:round; stroke-width:4; stroke-opacity:1; fill:none" points="
  242.621,862.189 261.518,862.189 
  "></polyline>
<polyline clip-path="url(#clip720)" style="stroke:#000000; stroke-linecap:round; stroke-linejoin:round; stroke-width:4; stroke-opacity:1; fill:none" points="
  242.621,524.691 261.518,524.691 
  "></polyline>
<polyline clip-path="url(#clip720)" style="stroke:#000000; stroke-linecap:round; stroke-linejoin:round; stroke-width:4; stroke-opacity:1; fill:none" points="
  242.621,187.193 261.518,187.193 
  "></polyline>
<path clip-path="url(#clip720)" d="M114.746 1200.14 L144.422 1200.14 L144.422 1204.07 L114.746 1204.07 L114.746 1200.14 Z" fill="#000000" fill-rule="evenodd" fill-opacity="1"></path><path clip-path="url(#clip720)" d="M168.681 1198.33 Q172.038 1199.05 173.913 1201.32 Q175.811 1203.59 175.811 1206.92 Q175.811 1212.04 172.292 1214.84 Q168.774 1217.64 162.292 1217.64 Q160.116 1217.64 157.802 1217.2 Q155.51 1216.78 153.056 1215.93 L153.056 1211.41 Q155.001 1212.55 157.315 1213.12 Q159.63 1213.7 162.153 1213.7 Q166.552 1213.7 168.843 1211.97 Q171.158 1210.23 171.158 1206.92 Q171.158 1203.87 169.005 1202.15 Q166.876 1200.42 163.056 1200.42 L159.028 1200.42 L159.028 1196.57 L163.241 1196.57 Q166.69 1196.57 168.519 1195.21 Q170.348 1193.82 170.348 1191.23 Q170.348 1188.56 168.45 1187.15 Q166.575 1185.72 163.056 1185.72 Q161.135 1185.72 158.936 1186.13 Q156.737 1186.55 154.098 1187.43 L154.098 1183.26 Q156.76 1182.52 159.075 1182.15 Q161.413 1181.78 163.473 1181.78 Q168.797 1181.78 171.899 1184.21 Q175.001 1186.62 175.001 1190.74 Q175.001 1193.61 173.357 1195.6 Q171.714 1197.57 168.681 1198.33 Z" fill="#000000" fill-rule="evenodd" fill-opacity="1"></path><path clip-path="url(#clip720)" d="M194.676 1185.49 Q191.065 1185.49 189.237 1189.05 Q187.431 1192.59 187.431 1199.72 Q187.431 1206.83 189.237 1210.39 Q191.065 1213.94 194.676 1213.94 Q198.311 1213.94 200.116 1210.39 Q201.945 1206.83 201.945 1199.72 Q201.945 1192.59 200.116 1189.05 Q198.311 1185.49 194.676 1185.49 M194.676 1181.78 Q200.487 1181.78 203.542 1186.39 Q206.621 1190.97 206.621 1199.72 Q206.621 1208.45 203.542 1213.06 Q200.487 1217.64 194.676 1217.64 Q188.866 1217.64 185.788 1213.06 Q182.732 1208.45 182.732 1199.72 Q182.732 1190.97 185.788 1186.39 Q188.866 1181.78 194.676 1181.78 Z" fill="#000000" fill-rule="evenodd" fill-opacity="1"></path><path clip-path="url(#clip720)" d="M114.839 862.641 L144.515 862.641 L144.515 866.576 L114.839 866.576 L114.839 862.641 Z" fill="#000000" fill-rule="evenodd" fill-opacity="1"></path><path clip-path="url(#clip720)" d="M158.635 875.534 L174.954 875.534 L174.954 879.469 L153.01 879.469 L153.01 875.534 Q155.672 872.78 160.255 868.15 Q164.862 863.497 166.042 862.155 Q168.288 859.632 169.167 857.895 Q170.07 856.136 170.07 854.446 Q170.07 851.692 168.126 849.956 Q166.204 848.22 163.102 848.22 Q160.903 848.22 158.45 848.983 Q156.019 849.747 153.241 851.298 L153.241 846.576 Q156.065 845.442 158.519 844.863 Q160.973 844.284 163.01 844.284 Q168.38 844.284 171.575 846.97 Q174.769 849.655 174.769 854.146 Q174.769 856.275 173.959 858.196 Q173.172 860.095 171.065 862.687 Q170.487 863.358 167.385 866.576 Q164.283 869.77 158.635 875.534 Z" fill="#000000" fill-rule="evenodd" fill-opacity="1"></path><path clip-path="url(#clip720)" d="M194.769 863.057 Q191.436 863.057 189.514 864.84 Q187.616 866.622 187.616 869.747 Q187.616 872.872 189.514 874.655 Q191.436 876.437 194.769 876.437 Q198.102 876.437 200.024 874.655 Q201.945 872.849 201.945 869.747 Q201.945 866.622 200.024 864.84 Q198.125 863.057 194.769 863.057 M190.093 861.067 Q187.084 860.326 185.394 858.266 Q183.727 856.206 183.727 853.243 Q183.727 849.099 186.667 846.692 Q189.63 844.284 194.769 844.284 Q199.931 844.284 202.871 846.692 Q205.811 849.099 205.811 853.243 Q205.811 856.206 204.121 858.266 Q202.454 860.326 199.468 861.067 Q202.848 861.854 204.723 864.145 Q206.621 866.437 206.621 869.747 Q206.621 874.77 203.542 877.456 Q200.487 880.141 194.769 880.141 Q189.051 880.141 185.973 877.456 Q182.917 874.77 182.917 869.747 Q182.917 866.437 184.815 864.145 Q186.713 861.854 190.093 861.067 M188.38 853.683 Q188.38 856.368 190.047 857.872 Q191.737 859.377 194.769 859.377 Q197.778 859.377 199.468 857.872 Q201.181 856.368 201.181 853.683 Q201.181 850.997 199.468 849.493 Q197.778 847.988 194.769 847.988 Q191.737 847.988 190.047 849.493 Q188.38 850.997 188.38 853.683 Z" fill="#000000" fill-rule="evenodd" fill-opacity="1"></path><path clip-path="url(#clip720)" d="M114.584 525.143 L144.26 525.143 L144.26 529.078 L114.584 529.078 L114.584 525.143 Z" fill="#000000" fill-rule="evenodd" fill-opacity="1"></path><path clip-path="url(#clip720)" d="M158.38 538.036 L174.7 538.036 L174.7 541.971 L152.755 541.971 L152.755 538.036 Q155.417 535.282 160.001 530.652 Q164.607 525.999 165.788 524.657 Q168.033 522.134 168.913 520.397 Q169.815 518.638 169.815 516.948 Q169.815 514.194 167.871 512.458 Q165.95 510.722 162.848 510.722 Q160.649 510.722 158.195 511.485 Q155.765 512.249 152.987 513.8 L152.987 509.078 Q155.811 507.944 158.265 507.365 Q160.718 506.786 162.755 506.786 Q168.126 506.786 171.32 509.472 Q174.514 512.157 174.514 516.647 Q174.514 518.777 173.704 520.698 Q172.917 522.597 170.811 525.189 Q170.232 525.86 167.13 529.078 Q164.028 532.272 158.38 538.036 Z" fill="#000000" fill-rule="evenodd" fill-opacity="1"></path><path clip-path="url(#clip720)" d="M195.093 522.828 Q191.945 522.828 190.093 524.981 Q188.264 527.134 188.264 530.884 Q188.264 534.61 190.093 536.786 Q191.945 538.939 195.093 538.939 Q198.241 538.939 200.07 536.786 Q201.922 534.61 201.922 530.884 Q201.922 527.134 200.07 524.981 Q198.241 522.828 195.093 522.828 M204.375 508.175 L204.375 512.435 Q202.616 511.601 200.811 511.161 Q199.028 510.722 197.269 510.722 Q192.639 510.722 190.186 513.847 Q187.755 516.972 187.408 523.291 Q188.774 521.277 190.834 520.212 Q192.894 519.124 195.371 519.124 Q200.579 519.124 203.588 522.296 Q206.621 525.444 206.621 530.884 Q206.621 536.208 203.473 539.425 Q200.325 542.643 195.093 542.643 Q189.098 542.643 185.926 538.059 Q182.755 533.453 182.755 524.726 Q182.755 516.532 186.644 511.671 Q190.533 506.786 197.084 506.786 Q198.843 506.786 200.625 507.134 Q202.431 507.481 204.375 508.175 Z" fill="#000000" fill-rule="evenodd" fill-opacity="1"></path><path clip-path="url(#clip720)" d="M114.26 187.645 L143.936 187.645 L143.936 191.58 L114.26 191.58 L114.26 187.645 Z" fill="#000000" fill-rule="evenodd" fill-opacity="1"></path><path clip-path="url(#clip720)" d="M158.056 200.538 L174.376 200.538 L174.376 204.473 L152.431 204.473 L152.431 200.538 Q155.093 197.784 159.677 193.154 Q164.283 188.501 165.464 187.159 Q167.709 184.636 168.589 182.899 Q169.491 181.14 169.491 179.45 Q169.491 176.696 167.547 174.96 Q165.626 173.224 162.524 173.224 Q160.325 173.224 157.871 173.987 Q155.44 174.751 152.663 176.302 L152.663 171.58 Q155.487 170.446 157.94 169.867 Q160.394 169.288 162.431 169.288 Q167.802 169.288 170.996 171.974 Q174.19 174.659 174.19 179.149 Q174.19 181.279 173.38 183.2 Q172.593 185.099 170.487 187.691 Q169.908 188.362 166.806 191.58 Q163.704 194.774 158.056 200.538 Z" fill="#000000" fill-rule="evenodd" fill-opacity="1"></path><path clip-path="url(#clip720)" d="M197.037 173.987 L185.232 192.436 L197.037 192.436 L197.037 173.987 M195.811 169.913 L201.69 169.913 L201.69 192.436 L206.621 192.436 L206.621 196.325 L201.69 196.325 L201.69 204.473 L197.037 204.473 L197.037 196.325 L181.436 196.325 L181.436 191.811 L195.811 169.913 Z" fill="#000000" fill-rule="evenodd" fill-opacity="1"></path><path clip-path="url(#clip720)" d="M14.479 1095.34 L14.479 1089.48 L64.0042 1089.48 L64.0042 1095.34 L14.479 1095.34 Z" fill="#000000" fill-rule="evenodd" fill-opacity="1"></path><path clip-path="url(#clip720)" d="M32.4621 1063.41 Q32.4621 1068.12 36.1542 1070.86 Q39.8145 1073.6 46.212 1073.6 Q52.6095 1073.6 56.3017 1070.89 Q59.9619 1068.16 59.9619 1063.41 Q59.9619 1058.74 56.2698 1056 Q52.5777 1053.26 46.212 1053.26 Q39.8781 1053.26 36.186 1056 Q32.4621 1058.74 32.4621 1063.41 M27.4968 1063.41 Q27.4968 1055.78 32.4621 1051.41 Q37.4273 1047.05 46.212 1047.05 Q54.9649 1047.05 59.9619 1051.41 Q64.9272 1055.78 64.9272 1063.41 Q64.9272 1071.08 59.9619 1075.45 Q54.9649 1079.77 46.212 1079.77 Q37.4273 1079.77 32.4621 1075.45 Q27.4968 1071.08 27.4968 1063.41 Z" fill="#000000" fill-rule="evenodd" fill-opacity="1"></path><path clip-path="url(#clip720)" d="M45.7664 1013.89 Q39.4007 1013.89 35.8996 1016.53 Q32.3984 1019.14 32.3984 1023.88 Q32.3984 1028.59 35.8996 1031.24 Q39.4007 1033.85 45.7664 1033.85 Q52.1003 1033.85 55.6014 1031.24 Q59.1026 1028.59 59.1026 1023.88 Q59.1026 1019.14 55.6014 1016.53 Q52.1003 1013.89 45.7664 1013.89 M59.58 1008.03 Q68.683 1008.03 73.1071 1012.07 Q77.5631 1016.12 77.5631 1024.46 Q77.5631 1027.54 77.0857 1030.28 Q76.6401 1033.02 75.6852 1035.6 L69.9879 1035.6 Q71.3884 1033.02 72.0568 1030.5 Q72.7252 1027.99 72.7252 1025.38 Q72.7252 1019.62 69.7015 1016.75 Q66.7096 1013.89 60.6303 1013.89 L57.7339 1013.89 Q60.885 1015.7 62.4446 1018.54 Q64.0042 1021.37 64.0042 1025.32 Q64.0042 1031.87 59.0071 1035.88 Q54.01 1039.89 45.7664 1039.89 Q37.491 1039.89 32.4939 1035.88 Q27.4968 1031.87 27.4968 1025.32 Q27.4968 1021.37 29.0564 1018.54 Q30.616 1015.7 33.7671 1013.89 L28.3562 1013.89 L28.3562 1008.03 L59.58 1008.03 Z" fill="#000000" fill-rule="evenodd" fill-opacity="1"></path><path clip-path="url(#clip720)" d="M74.8259 968.883 L79.3773 968.883 L79.3773 1002.75 L74.8259 1002.75 L74.8259 968.883 Z" fill="#000000" fill-rule="evenodd" fill-opacity="1"></path><path clip-path="url(#clip720)" d="M58.5933 961.436 L58.5933 950.932 L22.3406 950.932 L24.6323 962.359 L18.7758 962.359 L16.4842 950.996 L16.4842 944.566 L58.5933 944.566 L58.5933 934.063 L64.0042 934.063 L64.0042 961.436 L58.5933 961.436 Z" fill="#000000" fill-rule="evenodd" fill-opacity="1"></path><path clip-path="url(#clip720)" d="M20.7174 907.327 Q20.7174 912.292 25.6189 914.807 Q30.4887 917.289 40.2919 917.289 Q50.0633 917.289 54.9649 914.807 Q59.8346 912.292 59.8346 907.327 Q59.8346 902.33 54.9649 899.847 Q50.0633 897.333 40.2919 897.333 Q30.4887 897.333 25.6189 899.847 Q20.7174 902.33 20.7174 907.327 M15.6248 907.327 Q15.6248 899.338 21.9587 895.137 Q28.2607 890.903 40.2919 890.903 Q52.2913 890.903 58.6251 895.137 Q64.9272 899.338 64.9272 907.327 Q64.9272 915.316 58.6251 919.549 Q52.2913 923.751 40.2919 923.751 Q28.2607 923.751 21.9587 919.549 Q15.6248 915.316 15.6248 907.327 Z" fill="#000000" fill-rule="evenodd" fill-opacity="1"></path><path clip-path="url(#clip720)" d="M14.5426 866.364 Q21.8632 870.629 29.0246 872.698 Q36.186 874.766 43.5384 874.766 Q50.8908 874.766 58.1159 872.698 Q65.3091 870.597 72.5979 866.364 L72.5979 871.456 Q65.1182 876.231 57.8931 878.618 Q50.668 880.973 43.5384 880.973 Q36.4406 880.973 29.2474 878.618 Q22.0542 876.262 14.5426 871.456 L14.5426 866.364 Z" fill="#000000" fill-rule="evenodd" fill-opacity="1"></path><path clip-path="url(#clip720)" d="M14.1925 847.458 L79.3773 847.458 L79.3773 852.868 L14.1925 852.868 L14.1925 847.458 Z" fill="#000000" fill-rule="evenodd" fill-opacity="1"></path><path clip-path="url(#clip720)" d="M22.818 816.902 L46.4666 825.623 L46.4666 808.149 L22.818 816.902 M16.4842 820.531 L16.4842 813.242 L64.0042 795.131 L64.0042 801.815 L51.8138 806.144 L51.8138 827.565 L64.0042 831.893 L64.0042 838.673 L16.4842 820.531 Z" fill="#000000" fill-rule="evenodd" fill-opacity="1"></path><path clip-path="url(#clip720)" d="M28.3562 758.815 L45.7028 771.706 L64.0042 758.147 L64.0042 765.053 L49.9996 775.43 L64.0042 785.806 L64.0042 792.712 L45.3526 778.867 L28.3562 791.535 L28.3562 784.628 L41.0558 775.175 L28.3562 765.722 L28.3562 758.815 Z" fill="#000000" fill-rule="evenodd" fill-opacity="1"></path><path clip-path="url(#clip720)" d="M43.5384 732.111 L43.5384 714.955 L48.7583 714.955 L48.7583 732.111 L43.5384 732.111 Z" fill="#000000" fill-rule="evenodd" fill-opacity="1"></path><path clip-path="url(#clip720)" d="M46.212 659.319 Q39.7508 659.319 36.0905 661.993 Q32.3984 664.634 32.3984 669.281 Q32.3984 673.928 36.0905 676.602 Q39.7508 679.244 46.212 679.244 Q52.6732 679.244 56.3653 676.602 Q60.0256 673.928 60.0256 669.281 Q60.0256 664.634 56.3653 661.993 Q52.6732 659.319 46.212 659.319 M33.7671 679.244 Q30.5842 677.398 29.0564 674.597 Q27.4968 671.764 27.4968 667.849 Q27.4968 661.356 32.6531 657.314 Q37.8093 653.24 46.212 653.24 Q54.6147 653.24 59.771 657.314 Q64.9272 661.356 64.9272 667.849 Q64.9272 671.764 63.3994 674.597 Q61.8398 677.398 58.657 679.244 L64.0042 679.244 L64.0042 685.132 L14.479 685.132 L14.479 679.244 L33.7671 679.244 Z" fill="#000000" fill-rule="evenodd" fill-opacity="1"></path><path clip-path="url(#clip720)" d="M14.1925 635.989 L79.3773 635.989 L79.3773 641.4 L14.1925 641.4 L14.1925 635.989 Z" fill="#000000" fill-rule="evenodd" fill-opacity="1"></path><path clip-path="url(#clip720)" d="M16.4842 597.285 L34.2127 580.002 L34.2127 586.4 L21.6404 600.404 L34.2127 614.409 L34.2127 620.807 L16.4842 603.524 L16.4842 597.285 Z" fill="#000000" fill-rule="evenodd" fill-opacity="1"></path><path clip-path="url(#clip720)" d="M58.5933 560.587 L58.5933 538.148 L64.0042 538.148 L64.0042 568.321 L58.5933 568.321 Q54.8057 564.661 48.44 558.359 Q42.0425 552.025 40.1964 550.402 Q36.7271 547.314 34.34 546.105 Q31.921 544.864 29.5975 544.864 Q25.8099 544.864 23.4228 547.537 Q21.0356 550.179 21.0356 554.444 Q21.0356 557.468 22.086 560.842 Q23.1363 564.184 25.2688 568.003 L18.7758 568.003 Q17.2162 564.12 16.4205 560.746 Q15.6248 557.372 15.6248 554.571 Q15.6248 547.187 19.3169 542.795 Q23.009 538.402 29.1837 538.402 Q32.112 538.402 34.7537 539.516 Q37.3637 540.599 40.9285 543.495 Q41.8515 544.291 46.2757 548.556 Q50.668 552.821 58.5933 560.587 Z" fill="#000000" fill-rule="evenodd" fill-opacity="1"></path><path clip-path="url(#clip720)" d="M14.5426 526.403 L14.5426 521.311 Q22.0542 516.536 29.2474 514.181 Q36.4406 511.794 43.5384 511.794 Q50.668 511.794 57.8931 514.181 Q65.1182 516.536 72.5979 521.311 L72.5979 526.403 Q65.3091 522.17 58.1159 520.101 Q50.8908 518 43.5384 518 Q36.186 518 29.0246 520.101 Q21.8632 522.17 14.5426 526.403 Z" fill="#000000" fill-rule="evenodd" fill-opacity="1"></path><path clip-path="url(#clip720)" d="M975.682 39.9885 L975.682 62.7141 L985.971 62.7141 Q991.683 62.7141 994.802 59.7569 Q997.921 56.7998 997.921 51.331 Q997.921 45.9028 994.802 42.9457 Q991.683 39.9885 985.971 39.9885 L975.682 39.9885 M967.499 33.264 L985.971 33.264 Q996.139 33.264 1001.32 37.882 Q1006.55 42.4596 1006.55 51.331 Q1006.55 60.2835 1001.32 64.8611 Q996.139 69.4386 985.971 69.4386 L975.682 69.4386 L975.682 93.744 L967.499 93.744 L967.499 33.264 Z" fill="#000000" fill-rule="evenodd" fill-opacity="1"></path><path clip-path="url(#clip720)" d="M1017.53 33.264 L1025.71 33.264 L1025.71 86.8575 L1055.16 86.8575 L1055.16 93.744 L1017.53 93.744 L1017.53 33.264 Z" fill="#000000" fill-rule="evenodd" fill-opacity="1"></path><path clip-path="url(#clip720)" d="M1058.68 33.264 L1066.91 33.264 L1066.91 70.0057 Q1066.91 79.7279 1070.43 84.0218 Q1073.96 88.2753 1081.86 88.2753 Q1089.71 88.2753 1093.24 84.0218 Q1096.76 79.7279 1096.76 70.0057 L1096.76 33.264 L1104.99 33.264 L1104.99 71.0184 Q1104.99 82.8471 1099.11 88.8829 Q1093.28 94.9188 1081.86 94.9188 Q1070.39 94.9188 1064.52 88.8829 Q1058.68 82.8471 1058.68 71.0184 L1058.68 33.264 Z" fill="#000000" fill-rule="evenodd" fill-opacity="1"></path><path clip-path="url(#clip720)" d="M1182.97 35.2489 L1182.97 43.2292 Q1178.31 41.0012 1174.18 39.9075 Q1170.04 38.8137 1166.2 38.8137 Q1159.51 38.8137 1155.87 41.4063 Q1152.26 43.9989 1152.26 48.779 Q1152.26 52.7894 1154.65 54.8553 Q1157.08 56.8808 1163.81 58.1366 L1168.75 59.1493 Q1177.9 60.8912 1182.24 65.3067 Q1186.61 69.6816 1186.61 77.0543 Q1186.61 85.8447 1180.7 90.3817 Q1174.82 94.9188 1163.44 94.9188 Q1159.15 94.9188 1154.29 93.9465 Q1149.47 92.9743 1144.28 91.0704 L1144.28 82.6445 Q1149.26 85.4396 1154.04 86.8575 Q1158.82 88.2753 1163.44 88.2753 Q1170.45 88.2753 1174.26 85.5207 Q1178.07 82.766 1178.07 77.6619 Q1178.07 73.2059 1175.31 70.6944 Q1172.6 68.1828 1166.36 66.927 L1161.38 65.9548 Q1152.22 64.1319 1148.13 60.243 Q1144.04 56.3542 1144.04 49.4271 Q1144.04 41.4063 1149.67 36.7883 Q1155.34 32.1703 1165.26 32.1703 Q1169.52 32.1703 1173.93 32.9399 Q1178.35 33.7096 1182.97 35.2489 Z" fill="#000000" fill-rule="evenodd" fill-opacity="1"></path><path clip-path="url(#clip720)" d="M1216.63 53.5995 Q1210.63 53.5995 1207.15 58.2986 Q1203.67 62.9571 1203.67 71.0994 Q1203.67 79.2418 1207.11 83.9408 Q1210.59 88.5994 1216.63 88.5994 Q1222.58 88.5994 1226.07 83.9003 Q1229.55 79.2013 1229.55 71.0994 Q1229.55 63.0381 1226.07 58.3391 Q1222.58 53.5995 1216.63 53.5995 M1216.63 47.2801 Q1226.35 47.2801 1231.9 53.5995 Q1237.45 59.9189 1237.45 71.0994 Q1237.45 82.2394 1231.9 88.5994 Q1226.35 94.9188 1216.63 94.9188 Q1206.87 94.9188 1201.32 88.5994 Q1195.81 82.2394 1195.81 71.0994 Q1195.81 59.9189 1201.32 53.5995 Q1206.87 47.2801 1216.63 47.2801 Z" fill="#000000" fill-rule="evenodd" fill-opacity="1"></path><path clip-path="url(#clip720)" d="M1249.81 30.7119 L1257.26 30.7119 L1257.26 93.744 L1249.81 93.744 L1249.81 30.7119 Z" fill="#000000" fill-rule="evenodd" fill-opacity="1"></path><path clip-path="url(#clip720)" d="M1267.51 48.3739 L1275.41 48.3739 L1289.59 86.4524 L1303.76 48.3739 L1311.66 48.3739 L1294.65 93.744 L1284.52 93.744 L1267.51 48.3739 Z" fill="#000000" fill-rule="evenodd" fill-opacity="1"></path><path clip-path="url(#clip720)" d="M1360.76 69.1955 L1360.76 72.8413 L1326.49 72.8413 Q1326.98 80.5381 1331.11 84.589 Q1335.28 88.5994 1342.69 88.5994 Q1346.99 88.5994 1351 87.5461 Q1355.05 86.4929 1359.02 84.3864 L1359.02 91.435 Q1355.01 93.1364 1350.8 94.0276 Q1346.58 94.9188 1342.25 94.9188 Q1331.39 94.9188 1325.03 88.5994 Q1318.71 82.2799 1318.71 71.5045 Q1318.71 60.3645 1324.71 53.8426 Q1330.74 47.2801 1340.95 47.2801 Q1350.11 47.2801 1355.41 53.1944 Q1360.76 59.0683 1360.76 69.1955 M1353.31 67.008 Q1353.23 60.8912 1349.86 57.2454 Q1346.54 53.5995 1341.03 53.5995 Q1334.79 53.5995 1331.03 57.1238 Q1327.3 60.6481 1326.73 67.0485 L1353.31 67.008 Z" fill="#000000" fill-rule="evenodd" fill-opacity="1"></path><path clip-path="url(#clip720)" d="M1399.29 55.3414 Q1398.03 54.6123 1396.53 54.2882 Q1395.07 53.9236 1393.29 53.9236 Q1386.97 53.9236 1383.57 58.0555 Q1380.21 62.1469 1380.21 69.8437 L1380.21 93.744 L1372.71 93.744 L1372.71 48.3739 L1380.21 48.3739 L1380.21 55.4224 Q1382.55 51.2905 1386.32 49.3056 Q1390.09 47.2801 1395.48 47.2801 Q1396.25 47.2801 1397.18 47.4017 Q1398.11 47.4827 1399.24 47.6852 L1399.29 55.3414 Z" fill="#000000" fill-rule="evenodd" fill-opacity="1"></path><path clip-path="url(#clip720)" d="M1433.8 33.264 L1472.04 33.264 L1472.04 40.1505 L1441.98 40.1505 L1441.98 58.0555 L1470.78 58.0555 L1470.78 64.9421 L1441.98 64.9421 L1441.98 86.8575 L1472.77 86.8575 L1472.77 93.744 L1433.8 93.744 L1433.8 33.264 Z" fill="#000000" fill-rule="evenodd" fill-opacity="1"></path><path clip-path="url(#clip720)" d="M1512.18 55.3414 Q1510.93 54.6123 1509.43 54.2882 Q1507.97 53.9236 1506.19 53.9236 Q1499.87 53.9236 1496.47 58.0555 Q1493.1 62.1469 1493.1 69.8437 L1493.1 93.744 L1485.61 93.744 L1485.61 48.3739 L1493.1 48.3739 L1493.1 55.4224 Q1495.45 51.2905 1499.22 49.3056 Q1502.99 47.2801 1508.38 47.2801 Q1509.15 47.2801 1510.08 47.4017 Q1511.01 47.4827 1512.14 47.6852 L1512.18 55.3414 Z" fill="#000000" fill-rule="evenodd" fill-opacity="1"></path><path clip-path="url(#clip720)" d="M1544.83 55.3414 Q1543.58 54.6123 1542.08 54.2882 Q1540.62 53.9236 1538.84 53.9236 Q1532.52 53.9236 1529.12 58.0555 Q1525.75 62.1469 1525.75 69.8437 L1525.75 93.744 L1518.26 93.744 L1518.26 48.3739 L1525.75 48.3739 L1525.75 55.4224 Q1528.1 51.2905 1531.87 49.3056 Q1535.64 47.2801 1541.03 47.2801 Q1541.8 47.2801 1542.73 47.4017 Q1543.66 47.4827 1544.79 47.6852 L1544.83 55.3414 Z" fill="#000000" fill-rule="evenodd" fill-opacity="1"></path><path clip-path="url(#clip720)" d="M1568.41 53.5995 Q1562.41 53.5995 1558.93 58.2986 Q1555.45 62.9571 1555.45 71.0994 Q1555.45 79.2418 1558.89 83.9408 Q1562.37 88.5994 1568.41 88.5994 Q1574.37 88.5994 1577.85 83.9003 Q1581.33 79.2013 1581.33 71.0994 Q1581.33 63.0381 1577.85 58.3391 Q1574.37 53.5995 1568.41 53.5995 M1568.41 47.2801 Q1578.13 47.2801 1583.68 53.5995 Q1589.23 59.9189 1589.23 71.0994 Q1589.23 82.2394 1583.68 88.5994 Q1578.13 94.9188 1568.41 94.9188 Q1558.65 94.9188 1553.1 88.5994 Q1547.59 82.2394 1547.59 71.0994 Q1547.59 59.9189 1553.1 53.5995 Q1558.65 47.2801 1568.41 47.2801 Z" fill="#000000" fill-rule="evenodd" fill-opacity="1"></path><path clip-path="url(#clip720)" d="M1627.88 55.3414 Q1626.62 54.6123 1625.12 54.2882 Q1623.66 53.9236 1621.88 53.9236 Q1615.56 53.9236 1612.16 58.0555 Q1608.8 62.1469 1608.8 69.8437 L1608.8 93.744 L1601.3 93.744 L1601.3 48.3739 L1608.8 48.3739 L1608.8 55.4224 Q1611.15 51.2905 1614.91 49.3056 Q1618.68 47.2801 1624.07 47.2801 Q1624.84 47.2801 1625.77 47.4017 Q1626.7 47.4827 1627.84 47.6852 L1627.88 55.3414 Z" fill="#000000" fill-rule="evenodd" fill-opacity="1"></path><path clip-path="url(#clip720)" d="M1010.42 121.432 L1010.42 127.63 L1003.29 127.63 Q999.278 127.63 997.699 129.25 Q996.159 130.871 996.159 135.083 L996.159 139.094 L1008.43 139.094 L1008.43 144.887 L996.159 144.887 L996.159 184.464 L988.665 184.464 L988.665 144.887 L981.536 144.887 L981.536 139.094 L988.665 139.094 L988.665 135.934 Q988.665 128.359 992.189 124.916 Q995.714 121.432 1003.37 121.432 L1010.42 121.432 Z" fill="#000000" fill-rule="evenodd" fill-opacity="1"></path><path clip-path="url(#clip720)" d="M1016.66 139.094 L1024.11 139.094 L1024.11 184.464 L1016.66 184.464 L1016.66 139.094 M1016.66 121.432 L1024.11 121.432 L1024.11 130.871 L1016.66 130.871 L1016.66 121.432 Z" fill="#000000" fill-rule="evenodd" fill-opacity="1"></path><path clip-path="url(#clip720)" d="M1047.08 126.212 L1047.08 139.094 L1062.43 139.094 L1062.43 144.887 L1047.08 144.887 L1047.08 169.516 Q1047.08 175.066 1048.58 176.646 Q1050.12 178.226 1054.78 178.226 L1062.43 178.226 L1062.43 184.464 L1054.78 184.464 Q1046.15 184.464 1042.87 181.264 Q1039.58 178.023 1039.58 169.516 L1039.58 144.887 L1034.12 144.887 L1034.12 139.094 L1039.58 139.094 L1039.58 126.212 L1047.08 126.212 Z" fill="#000000" fill-rule="evenodd" fill-opacity="1"></path><path clip-path="url(#clip720)" d="M1127.53 140.431 L1127.53 147.479 Q1124.37 145.859 1120.97 145.049 Q1117.56 144.239 1113.92 144.239 Q1108.37 144.239 1105.57 145.94 Q1102.82 147.641 1102.82 151.044 Q1102.82 153.637 1104.8 155.135 Q1106.79 156.594 1112.78 157.931 L1115.34 158.498 Q1123.28 160.199 1126.6 163.318 Q1129.96 166.397 1129.96 171.947 Q1129.96 178.266 1124.94 181.952 Q1119.95 185.639 1111.2 185.639 Q1107.56 185.639 1103.59 184.91 Q1099.66 184.221 1095.28 182.803 L1095.28 175.106 Q1099.42 177.253 1103.43 178.347 Q1107.44 179.4 1111.37 179.4 Q1116.63 179.4 1119.47 177.618 Q1122.3 175.795 1122.3 172.514 Q1122.3 169.476 1120.24 167.855 Q1118.21 166.235 1111.29 164.736 L1108.69 164.128 Q1101.77 162.67 1098.69 159.672 Q1095.61 156.634 1095.61 151.368 Q1095.61 144.968 1100.15 141.484 Q1104.68 138 1113.03 138 Q1117.16 138 1120.81 138.608 Q1124.45 139.215 1127.53 140.431 Z" fill="#000000" fill-rule="evenodd" fill-opacity="1"></path><path clip-path="url(#clip720)" d="M1141.83 121.432 L1149.28 121.432 L1149.28 184.464 L1141.83 184.464 L1141.83 121.432 Z" fill="#000000" fill-rule="evenodd" fill-opacity="1"></path><path clip-path="url(#clip720)" d="M1182.46 144.32 Q1176.47 144.32 1172.98 149.019 Q1169.5 153.677 1169.5 161.819 Q1169.5 169.962 1172.94 174.661 Q1176.42 179.319 1182.46 179.319 Q1188.42 179.319 1191.9 174.62 Q1195.38 169.921 1195.38 161.819 Q1195.38 153.758 1191.9 149.059 Q1188.42 144.32 1182.46 144.32 M1182.46 138 Q1192.18 138 1197.73 144.32 Q1203.28 150.639 1203.28 161.819 Q1203.28 172.959 1197.73 179.319 Q1192.18 185.639 1182.46 185.639 Q1172.7 185.639 1167.15 179.319 Q1161.64 172.959 1161.64 161.819 Q1161.64 150.639 1167.15 144.32 Q1172.7 138 1182.46 138 Z" fill="#000000" fill-rule="evenodd" fill-opacity="1"></path><path clip-path="url(#clip720)" d="M1222.85 177.658 L1222.85 201.721 L1215.35 201.721 L1215.35 139.094 L1222.85 139.094 L1222.85 145.98 Q1225.2 141.93 1228.76 139.985 Q1232.37 138 1237.35 138 Q1245.61 138 1250.76 144.563 Q1255.94 151.125 1255.94 161.819 Q1255.94 172.514 1250.76 179.076 Q1245.61 185.639 1237.35 185.639 Q1232.37 185.639 1228.76 183.694 Q1225.2 181.709 1222.85 177.658 M1248.21 161.819 Q1248.21 153.596 1244.8 148.938 Q1241.44 144.239 1235.53 144.239 Q1229.61 144.239 1226.21 148.938 Q1222.85 153.596 1222.85 161.819 Q1222.85 170.043 1226.21 174.742 Q1229.61 179.4 1235.53 179.4 Q1241.44 179.4 1244.8 174.742 Q1248.21 170.043 1248.21 161.819 Z" fill="#000000" fill-rule="evenodd" fill-opacity="1"></path><path clip-path="url(#clip720)" d="M1307.11 159.916 L1307.11 163.561 L1272.84 163.561 Q1273.32 171.258 1277.45 175.309 Q1281.63 179.319 1289.04 179.319 Q1293.33 179.319 1297.34 178.266 Q1301.39 177.213 1305.36 175.106 L1305.36 182.155 Q1301.35 183.856 1297.14 184.748 Q1292.93 185.639 1288.59 185.639 Q1277.74 185.639 1271.38 179.319 Q1265.06 173 1265.06 162.225 Q1265.06 151.085 1271.05 144.563 Q1277.09 138 1287.3 138 Q1296.45 138 1301.76 143.914 Q1307.11 149.788 1307.11 159.916 M1299.65 157.728 Q1299.57 151.611 1296.21 147.965 Q1292.89 144.32 1287.38 144.32 Q1281.14 144.32 1277.37 147.844 Q1273.65 151.368 1273.08 157.769 L1299.65 157.728 Z" fill="#000000" fill-rule="evenodd" fill-opacity="1"></path><path clip-path="url(#clip720)" d="M1346.68 146.791 L1398.62 146.791 L1398.62 153.596 L1346.68 153.596 L1346.68 146.791 M1346.68 163.318 L1398.62 163.318 L1398.62 170.205 L1346.68 170.205 L1346.68 163.318 Z" fill="#000000" fill-rule="evenodd" fill-opacity="1"></path><path clip-path="url(#clip720)" d="M1465.13 131.114 L1444.47 163.399 L1465.13 163.399 L1465.13 131.114 M1462.99 123.984 L1473.27 123.984 L1473.27 163.399 L1481.9 163.399 L1481.9 170.205 L1473.27 170.205 L1473.27 184.464 L1465.13 184.464 L1465.13 170.205 L1437.83 170.205 L1437.83 162.306 L1462.99 123.984 Z" fill="#000000" fill-rule="evenodd" fill-opacity="1"></path><path clip-path="url(#clip720)" d="M1495.43 174.175 L1503.98 174.175 L1503.98 184.464 L1495.43 184.464 L1495.43 174.175 Z" fill="#000000" fill-rule="evenodd" fill-opacity="1"></path><path clip-path="url(#clip720)" d="M1544.29 131.114 L1523.63 163.399 L1544.29 163.399 L1544.29 131.114 M1542.14 123.984 L1552.43 123.984 L1552.43 163.399 L1561.06 163.399 L1561.06 170.205 L1552.43 170.205 L1552.43 184.464 L1544.29 184.464 L1544.29 170.205 L1516.98 170.205 L1516.98 162.306 L1542.14 123.984 Z" fill="#000000" fill-rule="evenodd" fill-opacity="1"></path><path clip-path="url(#clip720)" d="M1597.07 131.114 L1576.41 163.399 L1597.07 163.399 L1597.07 131.114 M1594.92 123.984 L1605.21 123.984 L1605.21 163.399 L1613.84 163.399 L1613.84 170.205 L1605.21 170.205 L1605.21 184.464 L1597.07 184.464 L1597.07 170.205 L1569.77 170.205 L1569.77 162.306 L1594.92 123.984 Z" fill="#000000" fill-rule="evenodd" fill-opacity="1"></path><circle clip-path="url(#clip722)" cx="302.342" cy="1388.11" r="14.4" fill="#009af9" fill-rule="evenodd" fill-opacity="1" stroke="#000000" stroke-opacity="1" stroke-width="3.2"></circle>
<circle clip-path="url(#clip722)" cx="496.313" cy="1229.6" r="14.4" fill="#009af9" fill-rule="evenodd" fill-opacity="1" stroke="#000000" stroke-opacity="1" stroke-width="3.2"></circle>
<circle clip-path="url(#clip722)" cx="730.057" cy="1013.8" r="14.4" fill="#009af9" fill-rule="evenodd" fill-opacity="1" stroke="#000000" stroke-opacity="1" stroke-width="3.2"></circle>
<circle clip-path="url(#clip722)" cx="954.578" cy="998.014" r="14.4" fill="#009af9" fill-rule="evenodd" fill-opacity="1" stroke="#000000" stroke-opacity="1" stroke-width="3.2"></circle>
<circle clip-path="url(#clip722)" cx="1182.09" cy="830.861" r="14.4" fill="#009af9" fill-rule="evenodd" fill-opacity="1" stroke="#000000" stroke-opacity="1" stroke-width="3.2"></circle>
<circle clip-path="url(#clip722)" cx="1407.42" cy="815.826" r="14.4" fill="#009af9" fill-rule="evenodd" fill-opacity="1" stroke="#000000" stroke-opacity="1" stroke-width="3.2"></circle>
<circle clip-path="url(#clip722)" cx="1629.75" cy="515.733" r="14.4" fill="#009af9" fill-rule="evenodd" fill-opacity="1" stroke="#000000" stroke-opacity="1" stroke-width="3.2"></circle>
<circle clip-path="url(#clip722)" cx="1847.91" cy="462.413" r="14.4" fill="#009af9" fill-rule="evenodd" fill-opacity="1" stroke="#000000" stroke-opacity="1" stroke-width="3.2"></circle>
<circle clip-path="url(#clip722)" cx="2071.03" cy="344.122" r="14.4" fill="#009af9" fill-rule="evenodd" fill-opacity="1" stroke="#000000" stroke-opacity="1" stroke-width="3.2"></circle>
<circle clip-path="url(#clip722)" cx="2293.04" cy="239.968" r="14.4" fill="#009af9" fill-rule="evenodd" fill-opacity="1" stroke="#000000" stroke-opacity="1" stroke-width="3.2"></circle>
<polyline clip-path="url(#clip722)" style="stroke:#e26f46; stroke-linecap:round; stroke-linejoin:round; stroke-width:4; stroke-opacity:1; fill:none" points="
  302.342,1341.63 496.313,1232.25 730.057,1100.43 954.578,973.817 1182.09,845.517 1407.42,718.448 1629.75,593.071 1847.91,470.043 2071.03,344.22 2293.04,219.025 
  
  "></polyline>
</svg>