<svg xmlns="http://www.w3.org/2000/svg" xmlns:xlink="http://www.w3.org/1999/xlink" width="600" height="400" viewBox="0 0 2400 1600">
<defs>
  <clipPath id="clip380">
    <rect x="0" y="0" width="2400" height="1600"></rect>
  </clipPath>
</defs>
<path clip-path="url(#clip380)" d="
M0 1600 L2400 1600 L2400 0 L0 0  Z
  " fill="#ffffff" fill-rule="evenodd" fill-opacity="1"></path>
<defs>
  <clipPath id="clip381">
    <rect x="480" y="0" width="1681" height="1600"></rect>
  </clipPath>
</defs>
<path clip-path="url(#clip380)" d="
M287.366 1423.18 L2352.76 1423.18 L2352.76 183.952 L287.366 183.952  Z
  " fill="#ffffff" fill-rule="evenodd" fill-opacity="1"></path>
<defs>
  <clipPath id="clip382">
    <rect x="287" y="183" width="2066" height="1240"></rect>
  </clipPath>
</defs>
<polyline clip-path="url(#clip382)" style="stroke:#000000; stroke-linecap:round; stroke-linejoin:round; stroke-width:2; stroke-opacity:0.1; fill:none" points="
  640.902,1423.18 640.902,183.952 
  "></polyline>
<polyline clip-path="url(#clip382)" style="stroke:#000000; stroke-linecap:round; stroke-linejoin:round; stroke-width:2; stroke-opacity:0.1; fill:none" points="
  1064.01,1423.18 1064.01,183.952 
  "></polyline>
<polyline clip-path="url(#clip382)" style="stroke:#000000; stroke-linecap:round; stroke-linejoin:round; stroke-width:2; stroke-opacity:0.1; fill:none" points="
  1487.12,1423.18 1487.12,183.952 
  "></polyline>
<polyline clip-path="url(#clip382)" style="stroke:#000000; stroke-linecap:round; stroke-linejoin:round; stroke-width:2; stroke-opacity:0.1; fill:none" points="
  1910.22,1423.18 1910.22,183.952 
  "></polyline>
<polyline clip-path="url(#clip382)" style="stroke:#000000; stroke-linecap:round; stroke-linejoin:round; stroke-width:2; stroke-opacity:0.1; fill:none" points="
  2333.33,1423.18 2333.33,183.952 
  "></polyline>
<polyline clip-path="url(#clip380)" style="stroke:#000000; stroke-linecap:round; stroke-linejoin:round; stroke-width:4; stroke-opacity:1; fill:none" points="
  287.366,1423.18 2352.76,1423.18 
  "></polyline>
<polyline clip-path="url(#clip380)" style="stroke:#000000; stroke-linecap:round; stroke-linejoin:round; stroke-width:4; stroke-opacity:1; fill:none" points="
  640.902,1423.18 640.902,1404.28 
  "></polyline>
<polyline clip-path="url(#clip380)" style="stroke:#000000; stroke-linecap:round; stroke-linejoin:round; stroke-width:4; stroke-opacity:1; fill:none" points="
  1064.01,1423.18 1064.01,1404.28 
  "></polyline>
<polyline clip-path="url(#clip380)" style="stroke:#000000; stroke-linecap:round; stroke-linejoin:round; stroke-width:4; stroke-opacity:1; fill:none" points="
  1487.12,1423.18 1487.12,1404.28 
  "></polyline>
<polyline clip-path="url(#clip380)" style="stroke:#000000; stroke-linecap:round; stroke-linejoin:round; stroke-width:4; stroke-opacity:1; fill:none" points="
  1910.22,1423.18 1910.22,1404.28 
  "></polyline>
<polyline clip-path="url(#clip380)" style="stroke:#000000; stroke-linecap:round; stroke-linejoin:round; stroke-width:4; stroke-opacity:1; fill:none" points="
  2333.33,1423.18 2333.33,1404.28 
  "></polyline>
<path clip-path="url(#clip380)" d="M645.149 1466.95 Q648.506 1467.66 650.381 1469.93 Q652.279 1472.2 652.279 1475.53 Q652.279 1480.65 648.76 1483.45 Q645.242 1486.25 638.76 1486.25 Q636.585 1486.25 634.27 1485.81 Q631.978 1485.39 629.524 1484.54 L629.524 1480.02 Q631.469 1481.16 633.784 1481.74 Q636.098 1482.32 638.622 1482.32 Q643.02 1482.32 645.311 1480.58 Q647.626 1478.84 647.626 1475.53 Q647.626 1472.48 645.473 1470.77 Q643.344 1469.03 639.524 1469.03 L635.497 1469.03 L635.497 1465.19 L639.71 1465.19 Q643.159 1465.19 644.987 1463.82 Q646.816 1462.43 646.816 1459.84 Q646.816 1457.18 644.918 1455.77 Q643.043 1454.33 639.524 1454.33 Q637.603 1454.33 635.404 1454.75 Q633.205 1455.16 630.566 1456.04 L630.566 1451.88 Q633.228 1451.14 635.543 1450.77 Q637.881 1450.39 639.941 1450.39 Q645.265 1450.39 648.367 1452.83 Q651.469 1455.23 651.469 1459.35 Q651.469 1462.22 649.825 1464.21 Q648.182 1466.18 645.149 1466.95 Z" fill="#000000" fill-rule="evenodd" fill-opacity="1"></path><path clip-path="url(#clip380)" d="M1067.02 1455.09 L1055.21 1473.54 L1067.02 1473.54 L1067.02 1455.09 M1065.79 1451.02 L1071.67 1451.02 L1071.67 1473.54 L1076.6 1473.54 L1076.6 1477.43 L1071.67 1477.43 L1071.67 1485.58 L1067.02 1485.58 L1067.02 1477.43 L1051.42 1477.43 L1051.42 1472.92 L1065.79 1451.02 Z" fill="#000000" fill-rule="evenodd" fill-opacity="1"></path><path clip-path="url(#clip380)" d="M1477.39 1451.02 L1495.75 1451.02 L1495.75 1454.96 L1481.68 1454.96 L1481.68 1463.43 Q1482.7 1463.08 1483.71 1462.92 Q1484.73 1462.73 1485.75 1462.73 Q1491.54 1462.73 1494.92 1465.9 Q1498.3 1469.08 1498.3 1474.49 Q1498.3 1480.07 1494.82 1483.17 Q1491.35 1486.25 1485.03 1486.25 Q1482.86 1486.25 1480.59 1485.88 Q1478.34 1485.51 1475.94 1484.77 L1475.94 1480.07 Q1478.02 1481.2 1480.24 1481.76 Q1482.46 1482.32 1484.94 1482.32 Q1488.94 1482.32 1491.28 1480.21 Q1493.62 1478.1 1493.62 1474.49 Q1493.62 1470.88 1491.28 1468.77 Q1488.94 1466.67 1484.94 1466.67 Q1483.07 1466.67 1481.19 1467.08 Q1479.34 1467.5 1477.39 1468.38 L1477.39 1451.02 Z" fill="#000000" fill-rule="evenodd" fill-opacity="1"></path><path clip-path="url(#clip380)" d="M1910.63 1466.44 Q1907.48 1466.44 1905.63 1468.59 Q1903.8 1470.74 1903.8 1474.49 Q1903.8 1478.22 1905.63 1480.39 Q1907.48 1482.55 1910.63 1482.55 Q1913.78 1482.55 1915.61 1480.39 Q1917.46 1478.22 1917.46 1474.49 Q1917.46 1470.74 1915.61 1468.59 Q1913.78 1466.44 1910.63 1466.44 M1919.91 1451.78 L1919.91 1456.04 Q1918.15 1455.21 1916.35 1454.77 Q1914.56 1454.33 1912.8 1454.33 Q1908.17 1454.33 1905.72 1457.45 Q1903.29 1460.58 1902.94 1466.9 Q1904.31 1464.89 1906.37 1463.82 Q1908.43 1462.73 1910.91 1462.73 Q1916.11 1462.73 1919.12 1465.9 Q1922.16 1469.05 1922.16 1474.49 Q1922.16 1479.82 1919.01 1483.03 Q1915.86 1486.25 1910.63 1486.25 Q1904.63 1486.25 1901.46 1481.67 Q1898.29 1477.06 1898.29 1468.33 Q1898.29 1460.14 1902.18 1455.28 Q1906.07 1450.39 1912.62 1450.39 Q1914.38 1450.39 1916.16 1450.74 Q1917.97 1451.09 1919.91 1451.78 Z" fill="#000000" fill-rule="evenodd" fill-opacity="1"></path><path clip-path="url(#clip380)" d="M2322.22 1451.02 L2344.44 1451.02 L2344.44 1453.01 L2331.9 1485.58 L2327.01 1485.58 L2338.82 1454.96 L2322.22 1454.96 L2322.22 1451.02 Z" fill="#000000" fill-rule="evenodd" fill-opacity="1"></path><path clip-path="url(#clip380)" d="M1226.44 1518.52 L1232.29 1518.52 L1232.29 1568.04 L1226.44 1568.04 L1226.44 1518.52 Z" fill="#000000" fill-rule="evenodd" fill-opacity="1"></path><path clip-path="url(#clip380)" d="M1258.36 1536.5 Q1253.65 1536.5 1250.91 1540.19 Q1248.18 1543.85 1248.18 1550.25 Q1248.18 1556.65 1250.88 1560.34 Q1253.62 1564 1258.36 1564 Q1263.04 1564 1265.78 1560.31 Q1268.51 1556.62 1268.51 1550.25 Q1268.51 1543.92 1265.78 1540.23 Q1263.04 1536.5 1258.36 1536.5 M1258.36 1531.54 Q1266 1531.54 1270.36 1536.5 Q1274.72 1541.47 1274.72 1550.25 Q1274.72 1559 1270.36 1564 Q1266 1568.97 1258.36 1568.97 Q1250.69 1568.97 1246.33 1564 Q1242 1559 1242 1550.25 Q1242 1541.47 1246.33 1536.5 Q1250.69 1531.54 1258.36 1531.54 Z" fill="#000000" fill-rule="evenodd" fill-opacity="1"></path><path clip-path="url(#clip380)" d="M1307.89 1549.81 Q1307.89 1543.44 1305.24 1539.94 Q1302.63 1536.44 1297.89 1536.44 Q1293.18 1536.44 1290.54 1539.94 Q1287.93 1543.44 1287.93 1549.81 Q1287.93 1556.14 1290.54 1559.64 Q1293.18 1563.14 1297.89 1563.14 Q1302.63 1563.14 1305.24 1559.64 Q1307.89 1556.14 1307.89 1549.81 M1313.74 1563.62 Q1313.74 1572.72 1309.7 1577.15 Q1305.66 1581.6 1297.32 1581.6 Q1294.23 1581.6 1291.49 1581.13 Q1288.76 1580.68 1286.18 1579.72 L1286.18 1574.03 Q1288.76 1575.43 1291.27 1576.1 Q1293.79 1576.76 1296.4 1576.76 Q1302.16 1576.76 1305.02 1573.74 Q1307.89 1570.75 1307.89 1564.67 L1307.89 1561.77 Q1306.07 1564.92 1303.24 1566.48 Q1300.41 1568.04 1296.46 1568.04 Q1289.9 1568.04 1285.89 1563.05 Q1281.88 1558.05 1281.88 1549.81 Q1281.88 1541.53 1285.89 1536.53 Q1289.9 1531.54 1296.46 1531.54 Q1300.41 1531.54 1303.24 1533.1 Q1306.07 1534.66 1307.89 1537.81 L1307.89 1532.4 L1313.74 1532.4 L1313.74 1563.62 Z" fill="#000000" fill-rule="evenodd" fill-opacity="1"></path><path clip-path="url(#clip380)" d="M1339.87 1518.58 Q1335.61 1525.9 1333.54 1533.06 Q1331.47 1540.23 1331.47 1547.58 Q1331.47 1554.93 1333.54 1562.16 Q1335.64 1569.35 1339.87 1576.64 L1334.78 1576.64 Q1330.01 1569.16 1327.62 1561.93 Q1325.26 1554.71 1325.26 1547.58 Q1325.26 1540.48 1327.62 1533.29 Q1329.98 1526.09 1334.78 1518.58 L1339.87 1518.58 Z" fill="#000000" fill-rule="evenodd" fill-opacity="1"></path><path clip-path="url(#clip380)" d="M1351.49 1520.52 L1360.15 1520.52 L1381.22 1560.28 L1381.22 1520.52 L1387.46 1520.52 L1387.46 1568.04 L1378.8 1568.04 L1357.73 1528.29 L1357.73 1568.04 L1351.49 1568.04 L1351.49 1520.52 Z" fill="#000000" fill-rule="evenodd" fill-opacity="1"></path><path clip-path="url(#clip380)" d="M1399.08 1518.58 L1404.17 1518.58 Q1408.94 1526.09 1411.3 1533.29 Q1413.68 1540.48 1413.68 1547.58 Q1413.68 1554.71 1411.3 1561.93 Q1408.94 1569.16 1404.17 1576.64 L1399.08 1576.64 Q1403.31 1569.35 1405.38 1562.16 Q1407.48 1554.93 1407.48 1547.58 Q1407.48 1540.23 1405.38 1533.06 Q1403.31 1525.9 1399.08 1518.58 Z" fill="#000000" fill-rule="evenodd" fill-opacity="1"></path><polyline clip-path="url(#clip382)" style="stroke:#000000; stroke-linecap:round; stroke-linejoin:round; stroke-width:2; stroke-opacity:0.1; fill:none" points="
  287.366,1421.62 2352.76,1421.62 
  "></polyline>
<polyline clip-path="url(#clip382)" style="stroke:#000000; stroke-linecap:round; stroke-linejoin:round; stroke-width:2; stroke-opacity:0.1; fill:none" points="
  287.366,1213.28 2352.76,1213.28 
  "></polyline>
<polyline clip-path="url(#clip382)" style="stroke:#000000; stroke-linecap:round; stroke-linejoin:round; stroke-width:2; stroke-opacity:0.1; fill:none" points="
  287.366,1004.95 2352.76,1004.95 
  "></polyline>
<polyline clip-path="url(#clip382)" style="stroke:#000000; stroke-linecap:round; stroke-linejoin:round; stroke-width:2; stroke-opacity:0.1; fill:none" points="
  287.366,796.607 2352.76,796.607 
  "></polyline>
<polyline clip-path="url(#clip382)" style="stroke:#000000; stroke-linecap:round; stroke-linejoin:round; stroke-width:2; stroke-opacity:0.1; fill:none" points="
  287.366,588.269 2352.76,588.269 
  "></polyline>
<polyline clip-path="url(#clip382)" style="stroke:#000000; stroke-linecap:round; stroke-linejoin:round; stroke-width:2; stroke-opacity:0.1; fill:none" points="
  287.366,379.931 2352.76,379.931 
  "></polyline>
<polyline clip-path="url(#clip380)" style="stroke:#000000; stroke-linecap:round; stroke-linejoin:round; stroke-width:4; stroke-opacity:1; fill:none" points="
  287.366,1423.18 287.366,183.952 
  "></polyline>
<polyline clip-path="url(#clip380)" style="stroke:#000000; stroke-linecap:round; stroke-linejoin:round; stroke-width:4; stroke-opacity:1; fill:none" points="
  287.366,1421.62 306.264,1421.62 
  "></polyline>
<polyline clip-path="url(#clip380)" style="stroke:#000000; stroke-linecap:round; stroke-linejoin:round; stroke-width:4; stroke-opacity:1; fill:none" points="
  287.366,1213.28 306.264,1213.28 
  "></polyline>
<polyline clip-path="url(#clip380)" style="stroke:#000000; stroke-linecap:round; stroke-linejoin:round; stroke-width:4; stroke-opacity:1; fill:none" points="
  287.366,1004.95 306.264,1004.95 
  "></polyline>
<polyline clip-path="url(#clip380)" style="stroke:#000000; stroke-linecap:round; stroke-linejoin:round; stroke-width:4; stroke-opacity:1; fill:none" points="
  287.366,796.607 306.264,796.607 
  "></polyline>
<polyline clip-path="url(#clip380)" style="stroke:#000000; stroke-linecap:round; stroke-linejoin:round; stroke-width:4; stroke-opacity:1; fill:none" points="
  287.366,588.269 306.264,588.269 
  "></polyline>
<polyline clip-path="url(#clip380)" style="stroke:#000000; stroke-linecap:round; stroke-linejoin:round; stroke-width:4; stroke-opacity:1; fill:none" points="
  287.366,379.931 306.264,379.931 
  "></polyline>
<path clip-path="url(#clip380)" d="M114.26 1422.07 L143.936 1422.07 L143.936 1426.01 L114.26 1426.01 L114.26 1422.07 Z" fill="#000000" fill-rule="evenodd" fill-opacity="1"></path><path clip-path="url(#clip380)" d="M154.839 1434.97 L162.477 1434.97 L162.477 1408.6 L154.167 1410.27 L154.167 1406.01 L162.431 1404.34 L167.107 1404.34 L167.107 1434.97 L174.746 1434.97 L174.746 1438.9 L154.839 1438.9 L154.839 1434.97 Z" fill="#000000" fill-rule="evenodd" fill-opacity="1"></path><path clip-path="url(#clip380)" d="M194.19 1407.42 Q190.579 1407.42 188.75 1410.98 Q186.945 1414.53 186.945 1421.66 Q186.945 1428.76 188.75 1432.33 Q190.579 1435.87 194.19 1435.87 Q197.825 1435.87 199.63 1432.33 Q201.459 1428.76 201.459 1421.66 Q201.459 1414.53 199.63 1410.98 Q197.825 1407.42 194.19 1407.42 M194.19 1403.72 Q200 1403.72 203.056 1408.32 Q206.135 1412.91 206.135 1421.66 Q206.135 1430.38 203.056 1434.99 Q200 1439.57 194.19 1439.57 Q188.38 1439.57 185.301 1434.99 Q182.246 1430.38 182.246 1421.66 Q182.246 1412.91 185.301 1408.32 Q188.38 1403.72 194.19 1403.72 Z" fill="#000000" fill-rule="evenodd" fill-opacity="1"></path><path clip-path="url(#clip380)" d="M214.352 1433.02 L219.236 1433.02 L219.236 1438.9 L214.352 1438.9 L214.352 1433.02 Z" fill="#000000" fill-rule="evenodd" fill-opacity="1"></path><path clip-path="url(#clip380)" d="M239.422 1407.42 Q235.81 1407.42 233.982 1410.98 Q232.176 1414.53 232.176 1421.66 Q232.176 1428.76 233.982 1432.33 Q235.81 1435.87 239.422 1435.87 Q243.056 1435.87 244.861 1432.33 Q246.69 1428.76 246.69 1421.66 Q246.69 1414.53 244.861 1410.98 Q243.056 1407.42 239.422 1407.42 M239.422 1403.72 Q245.232 1403.72 248.287 1408.32 Q251.366 1412.91 251.366 1421.66 Q251.366 1430.38 248.287 1434.99 Q245.232 1439.57 239.422 1439.57 Q233.611 1439.57 230.533 1434.99 Q227.477 1430.38 227.477 1421.66 Q227.477 1412.91 230.533 1408.32 Q233.611 1403.72 239.422 1403.72 Z" fill="#000000" fill-rule="evenodd" fill-opacity="1"></path><path clip-path="url(#clip380)" d="M145.417 1213.73 L175.093 1213.73 L175.093 1217.67 L145.417 1217.67 L145.417 1213.73 Z" fill="#000000" fill-rule="evenodd" fill-opacity="1"></path><path clip-path="url(#clip380)" d="M184.005 1196 L206.227 1196 L206.227 1197.99 L193.681 1230.56 L188.797 1230.56 L200.602 1199.94 L184.005 1199.94 L184.005 1196 Z" fill="#000000" fill-rule="evenodd" fill-opacity="1"></path><path clip-path="url(#clip380)" d="M215.348 1224.68 L220.232 1224.68 L220.232 1230.56 L215.348 1230.56 L215.348 1224.68 Z" fill="#000000" fill-rule="evenodd" fill-opacity="1"></path><path clip-path="url(#clip380)" d="M230.463 1196 L248.82 1196 L248.82 1199.94 L234.746 1199.94 L234.746 1208.41 Q235.764 1208.06 236.783 1207.9 Q237.801 1207.72 238.82 1207.72 Q244.607 1207.72 247.986 1210.89 Q251.366 1214.06 251.366 1219.48 Q251.366 1225.05 247.894 1228.16 Q244.421 1231.23 238.102 1231.23 Q235.926 1231.23 233.658 1230.86 Q231.412 1230.49 229.005 1229.75 L229.005 1225.05 Q231.088 1226.19 233.31 1226.74 Q235.533 1227.3 238.009 1227.3 Q242.014 1227.3 244.352 1225.19 Q246.69 1223.09 246.69 1219.48 Q246.69 1215.86 244.352 1213.76 Q242.014 1211.65 238.009 1211.65 Q236.135 1211.65 234.26 1212.07 Q232.408 1212.48 230.463 1213.36 L230.463 1196 Z" fill="#000000" fill-rule="evenodd" fill-opacity="1"></path><path clip-path="url(#clip380)" d="M144.422 1005.4 L174.098 1005.4 L174.098 1009.33 L144.422 1009.33 L144.422 1005.4 Z" fill="#000000" fill-rule="evenodd" fill-opacity="1"></path><path clip-path="url(#clip380)" d="M184.237 987.665 L202.593 987.665 L202.593 991.6 L188.519 991.6 L188.519 1000.07 Q189.538 999.725 190.556 999.563 Q191.575 999.378 192.593 999.378 Q198.38 999.378 201.76 1002.55 Q205.139 1005.72 205.139 1011.14 Q205.139 1016.72 201.667 1019.82 Q198.195 1022.9 191.875 1022.9 Q189.7 1022.9 187.431 1022.53 Q185.186 1022.16 182.778 1021.41 L182.778 1016.72 Q184.862 1017.85 187.084 1018.41 Q189.306 1018.96 191.783 1018.96 Q195.787 1018.96 198.125 1016.85 Q200.463 1014.75 200.463 1011.14 Q200.463 1007.53 198.125 1005.42 Q195.787 1003.31 191.783 1003.31 Q189.908 1003.31 188.033 1003.73 Q186.181 1004.15 184.237 1005.03 L184.237 987.665 Z" fill="#000000" fill-rule="evenodd" fill-opacity="1"></path><path clip-path="url(#clip380)" d="M214.352 1016.35 L219.236 1016.35 L219.236 1022.23 L214.352 1022.23 L214.352 1016.35 Z" fill="#000000" fill-rule="evenodd" fill-opacity="1"></path><path clip-path="url(#clip380)" d="M239.422 990.744 Q235.81 990.744 233.982 994.309 Q232.176 997.85 232.176 1004.98 Q232.176 1012.09 233.982 1015.65 Q235.81 1019.19 239.422 1019.19 Q243.056 1019.19 244.861 1015.65 Q246.69 1012.09 246.69 1004.98 Q246.69 997.85 244.861 994.309 Q243.056 990.744 239.422 990.744 M239.422 987.04 Q245.232 987.04 248.287 991.646 Q251.366 996.23 251.366 1004.98 Q251.366 1013.71 248.287 1018.31 Q245.232 1022.9 239.422 1022.9 Q233.611 1022.9 230.533 1018.31 Q227.477 1013.71 227.477 1004.98 Q227.477 996.23 230.533 991.646 Q233.611 987.04 239.422 987.04 Z" fill="#000000" fill-rule="evenodd" fill-opacity="1"></path><path clip-path="url(#clip380)" d="M145.417 797.058 L175.093 797.058 L175.093 800.993 L145.417 800.993 L145.417 797.058 Z" fill="#000000" fill-rule="evenodd" fill-opacity="1"></path><path clip-path="url(#clip380)" d="M189.213 809.952 L205.533 809.952 L205.533 813.887 L183.588 813.887 L183.588 809.952 Q186.251 807.197 190.834 802.568 Q195.44 797.915 196.621 796.572 Q198.866 794.049 199.746 792.313 Q200.649 790.554 200.649 788.864 Q200.649 786.109 198.704 784.373 Q196.783 782.637 193.681 782.637 Q191.482 782.637 189.028 783.401 Q186.598 784.165 183.82 785.716 L183.82 780.994 Q186.644 779.859 189.098 779.281 Q191.551 778.702 193.588 778.702 Q198.959 778.702 202.153 781.387 Q205.348 784.072 205.348 788.563 Q205.348 790.693 204.537 792.614 Q203.75 794.512 201.644 797.105 Q201.065 797.776 197.963 800.993 Q194.862 804.188 189.213 809.952 Z" fill="#000000" fill-rule="evenodd" fill-opacity="1"></path><path clip-path="url(#clip380)" d="M215.348 808.007 L220.232 808.007 L220.232 813.887 L215.348 813.887 L215.348 808.007 Z" fill="#000000" fill-rule="evenodd" fill-opacity="1"></path><path clip-path="url(#clip380)" d="M230.463 779.327 L248.82 779.327 L248.82 783.262 L234.746 783.262 L234.746 791.734 Q235.764 791.387 236.783 791.225 Q237.801 791.04 238.82 791.04 Q244.607 791.04 247.986 794.211 Q251.366 797.382 251.366 802.799 Q251.366 808.378 247.894 811.48 Q244.421 814.558 238.102 814.558 Q235.926 814.558 233.658 814.188 Q231.412 813.817 229.005 813.077 L229.005 808.378 Q231.088 809.512 233.31 810.068 Q235.533 810.623 238.009 810.623 Q242.014 810.623 244.352 808.517 Q246.69 806.41 246.69 802.799 Q246.69 799.188 244.352 797.081 Q242.014 794.975 238.009 794.975 Q236.135 794.975 234.26 795.392 Q232.408 795.808 230.463 796.688 L230.463 779.327 Z" fill="#000000" fill-rule="evenodd" fill-opacity="1"></path><path clip-path="url(#clip380)" d="M194.19 574.068 Q190.579 574.068 188.75 577.632 Q186.945 581.174 186.945 588.304 Q186.945 595.41 188.75 598.975 Q190.579 602.516 194.19 602.516 Q197.825 602.516 199.63 598.975 Q201.459 595.41 201.459 588.304 Q201.459 581.174 199.63 577.632 Q197.825 574.068 194.19 574.068 M194.19 570.364 Q200 570.364 203.056 574.97 Q206.135 579.554 206.135 588.304 Q206.135 597.03 203.056 601.637 Q200 606.22 194.19 606.22 Q188.38 606.22 185.301 601.637 Q182.246 597.03 182.246 588.304 Q182.246 579.554 185.301 574.97 Q188.38 570.364 194.19 570.364 Z" fill="#000000" fill-rule="evenodd" fill-opacity="1"></path><path clip-path="url(#clip380)" d="M214.352 599.669 L219.236 599.669 L219.236 605.549 L214.352 605.549 L214.352 599.669 Z" fill="#000000" fill-rule="evenodd" fill-opacity="1"></path><path clip-path="url(#clip380)" d="M239.422 574.068 Q235.81 574.068 233.982 577.632 Q232.176 581.174 232.176 588.304 Q232.176 595.41 233.982 598.975 Q235.81 602.516 239.422 602.516 Q243.056 602.516 244.861 598.975 Q246.69 595.41 246.69 588.304 Q246.69 581.174 244.861 577.632 Q243.056 574.068 239.422 574.068 M239.422 570.364 Q245.232 570.364 248.287 574.97 Q251.366 579.554 251.366 588.304 Q251.366 597.03 248.287 601.637 Q245.232 606.22 239.422 606.22 Q233.611 606.22 230.533 601.637 Q227.477 597.03 227.477 588.304 Q227.477 579.554 230.533 574.97 Q233.611 570.364 239.422 570.364 Z" fill="#000000" fill-rule="evenodd" fill-opacity="1"></path><path clip-path="url(#clip380)" d="M189.213 393.276 L205.533 393.276 L205.533 397.211 L183.588 397.211 L183.588 393.276 Q186.251 390.521 190.834 385.891 Q195.44 381.239 196.621 379.896 Q198.866 377.373 199.746 375.637 Q200.649 373.878 200.649 372.188 Q200.649 369.433 198.704 367.697 Q196.783 365.961 193.681 365.961 Q191.482 365.961 189.028 366.725 Q186.598 367.489 183.82 369.04 L183.82 364.317 Q186.644 363.183 189.098 362.604 Q191.551 362.026 193.588 362.026 Q198.959 362.026 202.153 364.711 Q205.348 367.396 205.348 371.887 Q205.348 374.016 204.537 375.938 Q203.75 377.836 201.644 380.428 Q201.065 381.1 197.963 384.317 Q194.862 387.512 189.213 393.276 Z" fill="#000000" fill-rule="evenodd" fill-opacity="1"></path><path clip-path="url(#clip380)" d="M215.348 391.331 L220.232 391.331 L220.232 397.211 L215.348 397.211 L215.348 391.331 Z" fill="#000000" fill-rule="evenodd" fill-opacity="1"></path><path clip-path="url(#clip380)" d="M230.463 362.651 L248.82 362.651 L248.82 366.586 L234.746 366.586 L234.746 375.058 Q235.764 374.711 236.783 374.549 Q237.801 374.364 238.82 374.364 Q244.607 374.364 247.986 377.535 Q251.366 380.706 251.366 386.123 Q251.366 391.702 247.894 394.803 Q244.421 397.882 238.102 397.882 Q235.926 397.882 233.658 397.512 Q231.412 397.141 229.005 396.401 L229.005 391.702 Q231.088 392.836 233.31 393.391 Q235.533 393.947 238.009 393.947 Q242.014 393.947 244.352 391.84 Q246.69 389.734 246.69 386.123 Q246.69 382.512 244.352 380.405 Q242.014 378.299 238.009 378.299 Q236.135 378.299 234.26 378.715 Q232.408 379.132 230.463 380.012 L230.463 362.651 Z" fill="#000000" fill-rule="evenodd" fill-opacity="1"></path><path clip-path="url(#clip380)" d="M14.479 1137.61 L14.479 1131.75 L64.0042 1131.75 L64.0042 1137.61 L14.479 1137.61 Z" fill="#000000" fill-rule="evenodd" fill-opacity="1"></path><path clip-path="url(#clip380)" d="M32.4621 1105.68 Q32.4621 1110.39 36.1542 1113.13 Q39.8145 1115.87 46.212 1115.87 Q52.6095 1115.87 56.3017 1113.16 Q59.9619 1110.42 59.9619 1105.68 Q59.9619 1101 56.2698 1098.27 Q52.5777 1095.53 46.212 1095.53 Q39.8781 1095.53 36.186 1098.27 Q32.4621 1101 32.4621 1105.68 M27.4968 1105.68 Q27.4968 1098.04 32.4621 1093.68 Q37.4273 1089.32 46.212 1089.32 Q54.9649 1089.32 59.9619 1093.68 Q64.9272 1098.04 64.9272 1105.68 Q64.9272 1113.35 59.9619 1117.71 Q54.9649 1122.04 46.212 1122.04 Q37.4273 1122.04 32.4621 1117.71 Q27.4968 1113.35 27.4968 1105.68 Z" fill="#000000" fill-rule="evenodd" fill-opacity="1"></path><path clip-path="url(#clip380)" d="M45.7664 1056.16 Q39.4007 1056.16 35.8996 1058.8 Q32.3984 1061.41 32.3984 1066.15 Q32.3984 1070.86 35.8996 1073.5 Q39.4007 1076.11 45.7664 1076.11 Q52.1003 1076.11 55.6014 1073.5 Q59.1026 1070.86 59.1026 1066.15 Q59.1026 1061.41 55.6014 1058.8 Q52.1003 1056.16 45.7664 1056.16 M59.58 1050.3 Q68.683 1050.3 73.1071 1054.34 Q77.5631 1058.39 77.5631 1066.72 Q77.5631 1069.81 77.0857 1072.55 Q76.6401 1075.29 75.6852 1077.86 L69.9879 1077.86 Q71.3884 1075.29 72.0568 1072.77 Q72.7252 1070.26 72.7252 1067.65 Q72.7252 1061.89 69.7015 1059.02 Q66.7096 1056.16 60.6303 1056.16 L57.7339 1056.16 Q60.885 1057.97 62.4446 1060.8 Q64.0042 1063.64 64.0042 1067.58 Q64.0042 1074.14 59.0071 1078.15 Q54.01 1082.16 45.7664 1082.16 Q37.491 1082.16 32.4939 1078.15 Q27.4968 1074.14 27.4968 1067.58 Q27.4968 1063.64 29.0564 1060.8 Q30.616 1057.97 33.7671 1056.16 L28.3562 1056.16 L28.3562 1050.3 L59.58 1050.3 Z" fill="#000000" fill-rule="evenodd" fill-opacity="1"></path><path clip-path="url(#clip380)" d="M14.5426 1024.17 Q21.8632 1028.43 29.0246 1030.5 Q36.186 1032.57 43.5384 1032.57 Q50.8908 1032.57 58.1159 1030.5 Q65.3091 1028.4 72.5979 1024.17 L72.5979 1029.26 Q65.1182 1034.04 57.8931 1036.42 Q50.668 1038.78 43.5384 1038.78 Q36.4406 1038.78 29.2474 1036.42 Q22.0542 1034.07 14.5426 1029.26 L14.5426 1024.17 Z" fill="#000000" fill-rule="evenodd" fill-opacity="1"></path><path clip-path="url(#clip380)" d="M16.4842 1012.55 L16.4842 982.506 L21.895 982.506 L21.895 1006.12 L35.9632 1006.12 L35.9632 983.493 L41.3741 983.493 L41.3741 1006.12 L58.5933 1006.12 L58.5933 981.933 L64.0042 981.933 L64.0042 1012.55 L16.4842 1012.55 Z" fill="#000000" fill-rule="evenodd" fill-opacity="1"></path><path clip-path="url(#clip380)" d="M14.479 971.621 L14.479 965.764 L64.0042 965.764 L64.0042 971.621 L14.479 971.621 Z" fill="#000000" fill-rule="evenodd" fill-opacity="1"></path><path clip-path="url(#clip380)" d="M46.0847 937.309 Q46.0847 944.407 47.7079 947.144 Q49.3312 949.882 53.2461 949.882 Q56.3653 949.882 58.2114 947.845 Q60.0256 945.776 60.0256 942.243 Q60.0256 937.373 56.5881 934.445 Q53.1188 931.485 47.3897 931.485 L46.0847 931.485 L46.0847 937.309 M43.6657 925.628 L64.0042 925.628 L64.0042 931.485 L58.5933 931.485 Q61.8398 933.49 63.3994 936.482 Q64.9272 939.474 64.9272 943.803 Q64.9272 949.277 61.8716 952.524 Q58.7843 955.738 53.6281 955.738 Q47.6125 955.738 44.5569 951.728 Q41.5014 947.686 41.5014 939.697 L41.5014 931.485 L40.9285 931.485 Q36.8862 931.485 34.6901 934.158 Q32.4621 936.8 32.4621 941.606 Q32.4621 944.662 33.1941 947.558 Q33.9262 950.455 35.3903 953.128 L29.9795 953.128 Q28.7381 949.914 28.1334 946.89 Q27.4968 943.866 27.4968 941.002 Q27.4968 933.267 31.5072 929.448 Q35.5176 925.628 43.6657 925.628 Z" fill="#000000" fill-rule="evenodd" fill-opacity="1"></path><path clip-path="url(#clip380)" d="M58.657 907.9 L77.5631 907.9 L77.5631 913.788 L28.3562 913.788 L28.3562 907.9 L33.7671 907.9 Q30.5842 906.054 29.0564 903.253 Q27.4968 900.42 27.4968 896.505 Q27.4968 890.012 32.6531 885.97 Q37.8093 881.896 46.212 881.896 Q54.6147 881.896 59.771 885.97 Q64.9272 890.012 64.9272 896.505 Q64.9272 900.42 63.3994 903.253 Q61.8398 906.054 58.657 907.9 M46.212 887.975 Q39.7508 887.975 36.0905 890.649 Q32.3984 893.291 32.3984 897.938 Q32.3984 902.585 36.0905 905.258 Q39.7508 907.9 46.212 907.9 Q52.6732 907.9 56.3653 905.258 Q60.0256 902.585 60.0256 897.938 Q60.0256 893.291 56.3653 890.649 Q52.6732 887.975 46.212 887.975 Z" fill="#000000" fill-rule="evenodd" fill-opacity="1"></path><path clip-path="url(#clip380)" d="M29.4065 849.463 L34.9447 849.463 Q33.6716 851.945 33.035 854.619 Q32.3984 857.293 32.3984 860.157 Q32.3984 864.518 33.7352 866.714 Q35.072 868.878 37.7456 868.878 Q39.7826 868.878 40.9603 867.319 Q42.1061 865.759 43.1565 861.048 L43.6021 859.043 Q44.9389 852.805 47.3897 850.195 Q49.8086 847.553 54.1691 847.553 Q59.1344 847.553 62.0308 851.5 Q64.9272 855.415 64.9272 862.29 Q64.9272 865.154 64.3543 868.273 Q63.8132 871.361 62.6992 874.798 L56.6518 874.798 Q58.3387 871.552 59.198 868.401 Q60.0256 865.25 60.0256 862.162 Q60.0256 858.025 58.6251 855.797 Q57.1929 853.569 54.6147 853.569 Q52.2276 853.569 50.9545 855.192 Q49.6813 856.783 48.5037 862.226 L48.0262 864.263 Q46.8804 869.706 44.5251 872.125 Q42.138 874.544 38.0002 874.544 Q32.9713 874.544 30.2341 870.979 Q27.4968 867.414 27.4968 860.857 Q27.4968 857.611 27.9743 854.746 Q28.4517 851.882 29.4065 849.463 Z" fill="#000000" fill-rule="evenodd" fill-opacity="1"></path><path clip-path="url(#clip380)" d="M44.7161 807.736 L47.5806 807.736 L47.5806 834.662 Q53.6281 834.281 56.8109 831.034 Q59.9619 827.756 59.9619 821.931 Q59.9619 818.557 59.1344 815.406 Q58.3069 812.223 56.6518 809.104 L62.1899 809.104 Q63.5267 812.255 64.227 815.565 Q64.9272 818.876 64.9272 822.281 Q64.9272 830.811 59.9619 835.808 Q54.9967 840.774 46.5303 840.774 Q37.7774 840.774 32.6531 836.063 Q27.4968 831.32 27.4968 823.3 Q27.4968 816.106 32.1438 811.937 Q36.7589 807.736 44.7161 807.736 M42.9973 813.592 Q38.1912 813.656 35.3266 816.297 Q32.4621 818.907 32.4621 823.236 Q32.4621 828.138 35.2312 831.098 Q38.0002 834.026 43.0292 834.471 L42.9973 813.592 Z" fill="#000000" fill-rule="evenodd" fill-opacity="1"></path><path clip-path="url(#clip380)" d="M33.7671 774.666 L14.479 774.666 L14.479 768.809 L64.0042 768.809 L64.0042 774.666 L58.657 774.666 Q61.8398 776.512 63.3994 779.344 Q64.9272 782.145 64.9272 786.092 Q64.9272 792.553 59.771 796.627 Q54.6147 800.67 46.212 800.67 Q37.8093 800.67 32.6531 796.627 Q27.4968 792.553 27.4968 786.092 Q27.4968 782.145 29.0564 779.344 Q30.5842 776.512 33.7671 774.666 M46.212 794.622 Q52.6732 794.622 56.3653 791.98 Q60.0256 789.307 60.0256 784.66 Q60.0256 780.013 56.3653 777.339 Q52.6732 774.666 46.212 774.666 Q39.7508 774.666 36.0905 777.339 Q32.3984 780.013 32.3984 784.66 Q32.3984 789.307 36.0905 791.98 Q39.7508 794.622 46.212 794.622 Z" fill="#000000" fill-rule="evenodd" fill-opacity="1"></path><path clip-path="url(#clip380)" d="M18.2347 730.233 L28.3562 730.233 L28.3562 718.17 L32.9077 718.17 L32.9077 730.233 L52.2594 730.233 Q56.6199 730.233 57.8613 729.055 Q59.1026 727.846 59.1026 724.186 L59.1026 718.17 L64.0042 718.17 L64.0042 724.186 Q64.0042 730.965 61.4897 733.543 Q58.9434 736.121 52.2594 736.121 L32.9077 736.121 L32.9077 740.418 L28.3562 740.418 L28.3562 736.121 L18.2347 736.121 L18.2347 730.233 Z" fill="#000000" fill-rule="evenodd" fill-opacity="1"></path><path clip-path="url(#clip380)" d="M28.3562 710.468 L28.3562 704.611 L64.0042 704.611 L64.0042 710.468 L28.3562 710.468 M14.479 710.468 L14.479 704.611 L21.895 704.611 L21.895 710.468 L14.479 710.468 Z" fill="#000000" fill-rule="evenodd" fill-opacity="1"></path><path clip-path="url(#clip380)" d="M35.1993 664.603 Q31.2526 662.406 29.3747 659.351 Q27.4968 656.295 27.4968 652.158 Q27.4968 646.588 31.4117 643.564 Q35.2948 640.54 42.4881 640.54 L64.0042 640.54 L64.0042 646.429 L42.679 646.429 Q37.5546 646.429 35.072 648.243 Q32.5894 650.057 32.5894 653.781 Q32.5894 658.332 35.6131 660.974 Q38.6368 663.616 43.8567 663.616 L64.0042 663.616 L64.0042 669.504 L42.679 669.504 Q37.5228 669.504 35.072 671.318 Q32.5894 673.133 32.5894 676.92 Q32.5894 681.408 35.6449 684.05 Q38.6686 686.692 43.8567 686.692 L64.0042 686.692 L64.0042 692.58 L28.3562 692.58 L28.3562 686.692 L33.8944 686.692 Q30.616 684.686 29.0564 681.886 Q27.4968 679.085 27.4968 675.233 Q27.4968 671.35 29.4702 668.645 Q31.4436 665.908 35.1993 664.603 Z" fill="#000000" fill-rule="evenodd" fill-opacity="1"></path><path clip-path="url(#clip380)" d="M44.7161 598.367 L47.5806 598.367 L47.5806 625.294 Q53.6281 624.912 56.8109 621.666 Q59.9619 618.388 59.9619 612.563 Q59.9619 609.189 59.1344 606.038 Q58.3069 602.855 56.6518 599.736 L62.1899 599.736 Q63.5267 602.887 64.227 606.197 Q64.9272 609.507 64.9272 612.913 Q64.9272 621.443 59.9619 626.44 Q54.9967 631.405 46.5303 631.405 Q37.7774 631.405 32.6531 626.695 Q27.4968 621.952 27.4968 613.932 Q27.4968 606.738 32.1438 602.569 Q36.7589 598.367 44.7161 598.367 M42.9973 604.224 Q38.1912 604.288 35.3266 606.929 Q32.4621 609.539 32.4621 613.868 Q32.4621 618.77 35.2312 621.73 Q38.0002 624.658 43.0292 625.103 L42.9973 604.224 Z" fill="#000000" fill-rule="evenodd" fill-opacity="1"></path><path clip-path="url(#clip380)" d="M14.5426 553.967 Q21.8632 558.232 29.0246 560.301 Q36.186 562.369 43.5384 562.369 Q50.8908 562.369 58.1159 560.301 Q65.3091 558.2 72.5979 553.967 L72.5979 559.059 Q65.1182 563.833 57.8931 566.221 Q50.668 568.576 43.5384 568.576 Q36.4406 568.576 29.2474 566.221 Q22.0542 563.865 14.5426 559.059 L14.5426 553.967 Z" fill="#000000" fill-rule="evenodd" fill-opacity="1"></path><path clip-path="url(#clip380)" d="M29.4065 519.878 L34.9447 519.878 Q33.6716 522.361 33.035 525.034 Q32.3984 527.708 32.3984 530.573 Q32.3984 534.933 33.7352 537.129 Q35.072 539.294 37.7456 539.294 Q39.7826 539.294 40.9603 537.734 Q42.1061 536.174 43.1565 531.464 L43.6021 529.459 Q44.9389 523.22 47.3897 520.61 Q49.8086 517.969 54.1691 517.969 Q59.1344 517.969 62.0308 521.915 Q64.9272 525.83 64.9272 532.705 Q64.9272 535.57 64.3543 538.689 Q63.8132 541.776 62.6992 545.214 L56.6518 545.214 Q58.3387 541.967 59.198 538.816 Q60.0256 535.665 60.0256 532.578 Q60.0256 528.44 58.6251 526.212 Q57.1929 523.984 54.6147 523.984 Q52.2276 523.984 50.9545 525.607 Q49.6813 527.199 48.5037 532.642 L48.0262 534.679 Q46.8804 540.121 44.5251 542.54 Q42.138 544.959 38.0002 544.959 Q32.9713 544.959 30.2341 541.394 Q27.4968 537.83 27.4968 531.273 Q27.4968 528.026 27.9743 525.162 Q28.4517 522.297 29.4065 519.878 Z" fill="#000000" fill-rule="evenodd" fill-opacity="1"></path><path clip-path="url(#clip380)" d="M14.5426 509.566 L14.5426 504.473 Q22.0542 499.699 29.2474 497.344 Q36.4406 494.957 43.5384 494.957 Q50.668 494.957 57.8931 497.344 Q65.1182 499.699 72.5979 504.473 L72.5979 509.566 Q65.3091 505.333 58.1159 503.264 Q50.8908 501.163 43.5384 501.163 Q36.186 501.163 29.0246 503.264 Q21.8632 505.333 14.5426 509.566 Z" fill="#000000" fill-rule="evenodd" fill-opacity="1"></path><path clip-path="url(#clip380)" d="M14.5426 484.135 L14.5426 479.042 Q22.0542 474.268 29.2474 471.913 Q36.4406 469.526 43.5384 469.526 Q50.668 469.526 57.8931 471.913 Q65.1182 474.268 72.5979 479.042 L72.5979 484.135 Q65.3091 479.902 58.1159 477.833 Q50.8908 475.732 43.5384 475.732 Q36.186 475.732 29.0246 477.833 Q21.8632 479.902 14.5426 484.135 Z" fill="#000000" fill-rule="evenodd" fill-opacity="1"></path><path clip-path="url(#clip380)" d="M982.053 39.9885 L982.053 62.7141 L992.343 62.7141 Q998.055 62.7141 1001.17 59.7569 Q1004.29 56.7998 1004.29 51.331 Q1004.29 45.9028 1001.17 42.9457 Q998.055 39.9885 992.343 39.9885 L982.053 39.9885 M973.871 33.264 L992.343 33.264 Q1002.51 33.264 1007.7 37.882 Q1012.92 42.4596 1012.92 51.331 Q1012.92 60.2835 1007.7 64.8611 Q1002.51 69.4386 992.343 69.4386 L982.053 69.4386 L982.053 93.744 L973.871 93.744 L973.871 33.264 Z" fill="#000000" fill-rule="evenodd" fill-opacity="1"></path><path clip-path="url(#clip380)" d="M1023.9 33.264 L1032.08 33.264 L1032.08 86.8575 L1061.53 86.8575 L1061.53 93.744 L1023.9 93.744 L1023.9 33.264 Z" fill="#000000" fill-rule="evenodd" fill-opacity="1"></path><path clip-path="url(#clip380)" d="M1065.06 33.264 L1073.28 33.264 L1073.28 70.0057 Q1073.28 79.7279 1076.8 84.0218 Q1080.33 88.2753 1088.23 88.2753 Q1096.09 88.2753 1099.61 84.0218 Q1103.13 79.7279 1103.13 70.0057 L1103.13 33.264 L1111.36 33.264 L1111.36 71.0184 Q1111.36 82.8471 1105.48 88.8829 Q1099.65 94.9188 1088.23 94.9188 Q1076.76 94.9188 1070.89 88.8829 Q1065.06 82.8471 1065.06 71.0184 L1065.06 33.264 Z" fill="#000000" fill-rule="evenodd" fill-opacity="1"></path><path clip-path="url(#clip380)" d="M1161.27 39.9885 L1161.27 62.7141 L1171.55 62.7141 Q1177.27 62.7141 1180.39 59.7569 Q1183.5 56.7998 1183.5 51.331 Q1183.5 45.9028 1180.39 42.9457 Q1177.27 39.9885 1171.55 39.9885 L1161.27 39.9885 M1153.08 33.264 L1171.55 33.264 Q1181.72 33.264 1186.91 37.882 Q1192.13 42.4596 1192.13 51.331 Q1192.13 60.2835 1186.91 64.8611 Q1181.72 69.4386 1171.55 69.4386 L1161.27 69.4386 L1161.27 93.744 L1153.08 93.744 L1153.08 33.264 Z" fill="#000000" fill-rule="evenodd" fill-opacity="1"></path><path clip-path="url(#clip380)" d="M1238.64 69.1955 L1238.64 72.8413 L1204.37 72.8413 Q1204.85 80.5381 1208.99 84.589 Q1213.16 88.5994 1220.57 88.5994 Q1224.86 88.5994 1228.88 87.5461 Q1232.93 86.4929 1236.9 84.3864 L1236.9 91.435 Q1232.89 93.1364 1228.67 94.0276 Q1224.46 94.9188 1220.13 94.9188 Q1209.27 94.9188 1202.91 88.5994 Q1196.59 82.2799 1196.59 71.5045 Q1196.59 60.3645 1202.58 53.8426 Q1208.62 47.2801 1218.83 47.2801 Q1227.98 47.2801 1233.29 53.1944 Q1238.64 59.0683 1238.64 69.1955 M1231.18 67.008 Q1231.1 60.8912 1227.74 57.2454 Q1224.42 53.5995 1218.91 53.5995 Q1212.67 53.5995 1208.9 57.1238 Q1205.18 60.6481 1204.61 67.0485 L1231.18 67.008 Z" fill="#000000" fill-rule="evenodd" fill-opacity="1"></path><path clip-path="url(#clip380)" d="M1277.16 55.3414 Q1275.91 54.6123 1274.41 54.2882 Q1272.95 53.9236 1271.17 53.9236 Q1264.85 53.9236 1261.44 58.0555 Q1258.08 62.1469 1258.08 69.8437 L1258.08 93.744 L1250.59 93.744 L1250.59 48.3739 L1258.08 48.3739 L1258.08 55.4224 Q1260.43 51.2905 1264.2 49.3056 Q1267.97 47.2801 1273.35 47.2801 Q1274.12 47.2801 1275.06 47.4017 Q1275.99 47.4827 1277.12 47.6852 L1277.16 55.3414 Z" fill="#000000" fill-rule="evenodd" fill-opacity="1"></path><path clip-path="url(#clip380)" d="M1307.95 30.7119 L1307.95 36.9098 L1300.82 36.9098 Q1296.81 36.9098 1295.23 38.5302 Q1293.69 40.1505 1293.69 44.3635 L1293.69 48.3739 L1305.96 48.3739 L1305.96 54.1667 L1293.69 54.1667 L1293.69 93.744 L1286.2 93.744 L1286.2 54.1667 L1279.07 54.1667 L1279.07 48.3739 L1286.2 48.3739 L1286.2 45.2142 Q1286.2 37.639 1289.72 34.1957 Q1293.24 30.7119 1300.9 30.7119 L1307.95 30.7119 Z" fill="#000000" fill-rule="evenodd" fill-opacity="1"></path><path clip-path="url(#clip380)" d="M1331.77 53.5995 Q1325.77 53.5995 1322.29 58.2986 Q1318.81 62.9571 1318.81 71.0994 Q1318.81 79.2418 1322.25 83.9408 Q1325.73 88.5994 1331.77 88.5994 Q1337.72 88.5994 1341.21 83.9003 Q1344.69 79.2013 1344.69 71.0994 Q1344.69 63.0381 1341.21 58.3391 Q1337.72 53.5995 1331.77 53.5995 M1331.77 47.2801 Q1341.49 47.2801 1347.04 53.5995 Q1352.59 59.9189 1352.59 71.0994 Q1352.59 82.2394 1347.04 88.5994 Q1341.49 94.9188 1331.77 94.9188 Q1322.01 94.9188 1316.46 88.5994 Q1310.95 82.2394 1310.95 71.0994 Q1310.95 59.9189 1316.46 53.5995 Q1322.01 47.2801 1331.77 47.2801 Z" fill="#000000" fill-rule="evenodd" fill-opacity="1"></path><path clip-path="url(#clip380)" d="M1391.24 55.3414 Q1389.98 54.6123 1388.48 54.2882 Q1387.02 53.9236 1385.24 53.9236 Q1378.92 53.9236 1375.52 58.0555 Q1372.16 62.1469 1372.16 69.8437 L1372.16 93.744 L1364.66 93.744 L1364.66 48.3739 L1372.16 48.3739 L1372.16 55.4224 Q1374.51 51.2905 1378.27 49.3056 Q1382.04 47.2801 1387.43 47.2801 Q1388.2 47.2801 1389.13 47.4017 Q1390.06 47.4827 1391.19 47.6852 L1391.24 55.3414 Z" fill="#000000" fill-rule="evenodd" fill-opacity="1"></path><path clip-path="url(#clip380)" d="M1432.92 57.0833 Q1435.71 52.0602 1439.6 49.6702 Q1443.49 47.2801 1448.76 47.2801 Q1455.85 47.2801 1459.7 52.2627 Q1463.54 57.2048 1463.54 66.3599 L1463.54 93.744 L1456.05 93.744 L1456.05 66.6029 Q1456.05 60.081 1453.74 56.9213 Q1451.43 53.7616 1446.69 53.7616 Q1440.9 53.7616 1437.54 57.6099 Q1434.17 61.4583 1434.17 68.1018 L1434.17 93.744 L1426.68 93.744 L1426.68 66.6029 Q1426.68 60.0405 1424.37 56.9213 Q1422.06 53.7616 1417.24 53.7616 Q1411.53 53.7616 1408.17 57.6504 Q1404.81 61.4988 1404.81 68.1018 L1404.81 93.744 L1397.31 93.744 L1397.31 48.3739 L1404.81 48.3739 L1404.81 55.4224 Q1407.36 51.25 1410.92 49.2651 Q1414.49 47.2801 1419.39 47.2801 Q1424.33 47.2801 1427.77 49.7917 Q1431.26 52.3032 1432.92 57.0833 Z" fill="#000000" fill-rule="evenodd" fill-opacity="1"></path><path clip-path="url(#clip380)" d="M1499.03 70.9374 Q1490 70.9374 1486.51 73.0034 Q1483.03 75.0693 1483.03 80.0519 Q1483.03 84.0218 1485.62 86.3714 Q1488.25 88.6804 1492.75 88.6804 Q1498.95 88.6804 1502.68 84.3054 Q1506.44 79.8899 1506.44 72.5983 L1506.44 70.9374 L1499.03 70.9374 M1513.9 67.8587 L1513.9 93.744 L1506.44 93.744 L1506.44 86.8575 Q1503.89 90.9894 1500.08 92.9743 Q1496.28 94.9188 1490.77 94.9188 Q1483.8 94.9188 1479.67 91.0299 Q1475.58 87.1005 1475.58 80.5381 Q1475.58 72.8818 1480.68 68.993 Q1485.82 65.1041 1495.99 65.1041 L1506.44 65.1041 L1506.44 64.3749 Q1506.44 59.2303 1503.04 56.4352 Q1499.68 53.5995 1493.56 53.5995 Q1489.67 53.5995 1485.99 54.5312 Q1482.3 55.463 1478.9 57.3264 L1478.9 50.4398 Q1482.99 48.86 1486.84 48.0903 Q1490.68 47.2801 1494.33 47.2801 Q1504.17 47.2801 1509.04 52.3843 Q1513.9 57.4884 1513.9 67.8587 Z" fill="#000000" fill-rule="evenodd" fill-opacity="1"></path><path clip-path="url(#clip380)" d="M1566.96 66.3599 L1566.96 93.744 L1559.51 93.744 L1559.51 66.6029 Q1559.51 60.162 1557 56.9618 Q1554.49 53.7616 1549.46 53.7616 Q1543.43 53.7616 1539.94 57.6099 Q1536.46 61.4583 1536.46 68.1018 L1536.46 93.744 L1528.97 93.744 L1528.97 48.3739 L1536.46 48.3739 L1536.46 55.4224 Q1539.13 51.331 1542.74 49.3056 Q1546.38 47.2801 1551.12 47.2801 Q1558.94 47.2801 1562.95 52.1412 Q1566.96 56.9618 1566.96 66.3599 Z" fill="#000000" fill-rule="evenodd" fill-opacity="1"></path><path clip-path="url(#clip380)" d="M1614.48 50.1158 L1614.48 57.0833 Q1611.32 55.3414 1608.12 54.4907 Q1604.96 53.5995 1601.72 53.5995 Q1594.47 53.5995 1590.46 58.2176 Q1586.45 62.7951 1586.45 71.0994 Q1586.45 79.4038 1590.46 84.0218 Q1594.47 88.5994 1601.72 88.5994 Q1604.96 88.5994 1608.12 87.7487 Q1611.32 86.8575 1614.48 85.1156 L1614.48 92.0021 Q1611.36 93.4604 1608 94.1896 Q1604.68 94.9188 1600.91 94.9188 Q1590.66 94.9188 1584.63 88.4778 Q1578.59 82.0369 1578.59 71.0994 Q1578.59 60 1584.67 53.64 Q1590.78 47.2801 1601.4 47.2801 Q1604.84 47.2801 1608.12 48.0093 Q1611.4 48.6979 1614.48 50.1158 Z" fill="#000000" fill-rule="evenodd" fill-opacity="1"></path><path clip-path="url(#clip380)" d="M1666.25 69.1955 L1666.25 72.8413 L1631.98 72.8413 Q1632.47 80.5381 1636.6 84.589 Q1640.77 88.5994 1648.18 88.5994 Q1652.48 88.5994 1656.49 87.5461 Q1660.54 86.4929 1664.51 84.3864 L1664.51 91.435 Q1660.5 93.1364 1656.29 94.0276 Q1652.07 94.9188 1647.74 94.9188 Q1636.88 94.9188 1630.52 88.5994 Q1624.2 82.2799 1624.2 71.5045 Q1624.2 60.3645 1630.2 53.8426 Q1636.23 47.2801 1646.44 47.2801 Q1655.6 47.2801 1660.9 53.1944 Q1666.25 59.0683 1666.25 69.1955 M1658.8 67.008 Q1658.72 60.8912 1655.35 57.2454 Q1652.03 53.5995 1646.52 53.5995 Q1640.28 53.5995 1636.52 57.1238 Q1632.79 60.6481 1632.22 67.0485 L1658.8 67.008 Z" fill="#000000" fill-rule="evenodd" fill-opacity="1"></path><path clip-path="url(#clip380)" d="M1033.07 121.432 L1033.07 127.63 L1025.95 127.63 Q1021.93 127.63 1020.35 129.25 Q1018.82 130.871 1018.82 135.083 L1018.82 139.094 L1031.09 139.094 L1031.09 144.887 L1018.82 144.887 L1018.82 184.464 L1011.32 184.464 L1011.32 144.887 L1004.19 144.887 L1004.19 139.094 L1011.32 139.094 L1011.32 135.934 Q1011.32 128.359 1014.85 124.916 Q1018.37 121.432 1026.03 121.432 L1033.07 121.432 Z" fill="#000000" fill-rule="evenodd" fill-opacity="1"></path><path clip-path="url(#clip380)" d="M1039.31 139.094 L1046.77 139.094 L1046.77 184.464 L1039.31 184.464 L1039.31 139.094 M1039.31 121.432 L1046.77 121.432 L1046.77 130.871 L1039.31 130.871 L1039.31 121.432 Z" fill="#000000" fill-rule="evenodd" fill-opacity="1"></path><path clip-path="url(#clip380)" d="M1069.74 126.212 L1069.74 139.094 L1085.09 139.094 L1085.09 144.887 L1069.74 144.887 L1069.74 169.516 Q1069.74 175.066 1071.23 176.646 Q1072.77 178.226 1077.43 178.226 L1085.09 178.226 L1085.09 184.464 L1077.43 184.464 Q1068.8 184.464 1065.52 181.264 Q1062.24 178.023 1062.24 169.516 L1062.24 144.887 L1056.77 144.887 L1056.77 139.094 L1062.24 139.094 L1062.24 126.212 L1069.74 126.212 Z" fill="#000000" fill-rule="evenodd" fill-opacity="1"></path><path clip-path="url(#clip380)" d="M1150.19 140.431 L1150.19 147.479 Q1147.03 145.859 1143.62 145.049 Q1140.22 144.239 1136.58 144.239 Q1131.03 144.239 1128.23 145.94 Q1125.48 147.641 1125.48 151.044 Q1125.48 153.637 1127.46 155.135 Q1129.45 156.594 1135.44 157.931 L1137.99 158.498 Q1145.93 160.199 1149.25 163.318 Q1152.62 166.397 1152.62 171.947 Q1152.62 178.266 1147.59 181.952 Q1142.61 185.639 1133.86 185.639 Q1130.22 185.639 1126.25 184.91 Q1122.32 184.221 1117.94 182.803 L1117.94 175.106 Q1122.07 177.253 1126.08 178.347 Q1130.09 179.4 1134.02 179.4 Q1139.29 179.4 1142.12 177.618 Q1144.96 175.795 1144.96 172.514 Q1144.96 169.476 1142.89 167.855 Q1140.87 166.235 1133.94 164.736 L1131.35 164.128 Q1124.42 162.67 1121.34 159.672 Q1118.27 156.634 1118.27 151.368 Q1118.27 144.968 1122.8 141.484 Q1127.34 138 1135.68 138 Q1139.82 138 1143.46 138.608 Q1147.11 139.215 1150.19 140.431 Z" fill="#000000" fill-rule="evenodd" fill-opacity="1"></path><path clip-path="url(#clip380)" d="M1164.49 121.432 L1171.94 121.432 L1171.94 184.464 L1164.49 184.464 L1164.49 121.432 Z" fill="#000000" fill-rule="evenodd" fill-opacity="1"></path><path clip-path="url(#clip380)" d="M1205.12 144.32 Q1199.12 144.32 1195.64 149.019 Q1192.15 153.677 1192.15 161.819 Q1192.15 169.962 1195.6 174.661 Q1199.08 179.319 1205.12 179.319 Q1211.07 179.319 1214.56 174.62 Q1218.04 169.921 1218.04 161.819 Q1218.04 153.758 1214.56 149.059 Q1211.07 144.32 1205.12 144.32 M1205.12 138 Q1214.84 138 1220.39 144.32 Q1225.94 150.639 1225.94 161.819 Q1225.94 172.959 1220.39 179.319 Q1214.84 185.639 1205.12 185.639 Q1195.35 185.639 1189.8 179.319 Q1184.29 172.959 1184.29 161.819 Q1184.29 150.639 1189.8 144.32 Q1195.35 138 1205.12 138 Z" fill="#000000" fill-rule="evenodd" fill-opacity="1"></path><path clip-path="url(#clip380)" d="M1245.5 177.658 L1245.5 201.721 L1238.01 201.721 L1238.01 139.094 L1245.5 139.094 L1245.5 145.98 Q1247.85 141.93 1251.42 139.985 Q1255.02 138 1260.01 138 Q1268.27 138 1273.41 144.563 Q1278.6 151.125 1278.6 161.819 Q1278.6 172.514 1273.41 179.076 Q1268.27 185.639 1260.01 185.639 Q1255.02 185.639 1251.42 183.694 Q1247.85 181.709 1245.5 177.658 M1270.86 161.819 Q1270.86 153.596 1267.46 148.938 Q1264.1 144.239 1258.18 144.239 Q1252.27 144.239 1248.87 148.938 Q1245.5 153.596 1245.5 161.819 Q1245.5 170.043 1248.87 174.742 Q1252.27 179.4 1258.18 179.4 Q1264.1 179.4 1267.46 174.742 Q1270.86 170.043 1270.86 161.819 Z" fill="#000000" fill-rule="evenodd" fill-opacity="1"></path><path clip-path="url(#clip380)" d="M1329.76 159.916 L1329.76 163.561 L1295.49 163.561 Q1295.98 171.258 1300.11 175.309 Q1304.28 179.319 1311.7 179.319 Q1315.99 179.319 1320 178.266 Q1324.05 177.213 1328.02 175.106 L1328.02 182.155 Q1324.01 183.856 1319.8 184.748 Q1315.58 185.639 1311.25 185.639 Q1300.39 185.639 1294.03 179.319 Q1287.71 173 1287.71 162.225 Q1287.71 151.085 1293.71 144.563 Q1299.75 138 1309.95 138 Q1319.11 138 1324.42 143.914 Q1329.76 149.788 1329.76 159.916 M1322.31 157.728 Q1322.23 151.611 1318.87 147.965 Q1315.54 144.32 1310.03 144.32 Q1303.8 144.32 1300.03 147.844 Q1296.3 151.368 1295.74 157.769 L1322.31 157.728 Z" fill="#000000" fill-rule="evenodd" fill-opacity="1"></path><path clip-path="url(#clip380)" d="M1369.34 146.791 L1421.27 146.791 L1421.27 153.596 L1369.34 153.596 L1369.34 146.791 M1369.34 163.318 L1421.27 163.318 L1421.27 170.205 L1369.34 170.205 L1369.34 163.318 Z" fill="#000000" fill-rule="evenodd" fill-opacity="1"></path><path clip-path="url(#clip380)" d="M1472.35 177.577 L1500.91 177.577 L1500.91 184.464 L1462.51 184.464 L1462.51 177.577 Q1467.17 172.757 1475.19 164.655 Q1483.25 156.513 1485.32 154.163 Q1489.25 149.748 1490.79 146.71 Q1492.37 143.631 1492.37 140.674 Q1492.37 135.853 1488.96 132.815 Q1485.6 129.777 1480.17 129.777 Q1476.32 129.777 1472.03 131.114 Q1467.78 132.45 1462.92 135.164 L1462.92 126.901 Q1467.86 124.916 1472.15 123.903 Q1476.45 122.89 1480.01 122.89 Q1489.41 122.89 1495 127.589 Q1500.59 132.288 1500.59 140.147 Q1500.59 143.874 1499.17 147.236 Q1497.79 150.558 1494.11 155.095 Q1493.1 156.27 1487.67 161.9 Q1482.24 167.491 1472.35 177.577 Z" fill="#000000" fill-rule="evenodd" fill-opacity="1"></path><path clip-path="url(#clip380)" d="M1518.09 174.175 L1526.64 174.175 L1526.64 184.464 L1518.09 184.464 L1518.09 174.175 Z" fill="#000000" fill-rule="evenodd" fill-opacity="1"></path><path clip-path="url(#clip380)" d="M1561.96 155.743 Q1556.13 155.743 1552.77 158.862 Q1549.44 161.981 1549.44 167.45 Q1549.44 172.919 1552.77 176.038 Q1556.13 179.157 1561.96 179.157 Q1567.79 179.157 1571.16 176.038 Q1574.52 172.878 1574.52 167.45 Q1574.52 161.981 1571.16 158.862 Q1567.83 155.743 1561.96 155.743 M1553.78 152.259 Q1548.51 150.963 1545.55 147.358 Q1542.64 143.752 1542.64 138.567 Q1542.64 131.316 1547.78 127.103 Q1552.97 122.89 1561.96 122.89 Q1570.99 122.89 1576.14 127.103 Q1581.28 131.316 1581.28 138.567 Q1581.28 143.752 1578.33 147.358 Q1575.41 150.963 1570.18 152.259 Q1576.1 153.637 1579.38 157.647 Q1582.7 161.657 1582.7 167.45 Q1582.7 176.241 1577.31 180.94 Q1571.97 185.639 1561.96 185.639 Q1551.95 185.639 1546.57 180.94 Q1541.22 176.241 1541.22 167.45 Q1541.22 161.657 1544.54 157.647 Q1547.86 153.637 1553.78 152.259 M1550.78 139.337 Q1550.78 144.036 1553.7 146.669 Q1556.65 149.302 1561.96 149.302 Q1567.23 149.302 1570.18 146.669 Q1573.18 144.036 1573.18 139.337 Q1573.18 134.638 1570.18 132.005 Q1567.23 129.372 1561.96 129.372 Q1556.65 129.372 1553.7 132.005 Q1550.78 134.638 1550.78 139.337 Z" fill="#000000" fill-rule="evenodd" fill-opacity="1"></path><path clip-path="url(#clip380)" d="M1615.76 150.963 Q1610.25 150.963 1607.01 154.73 Q1603.81 158.498 1603.81 165.06 Q1603.81 171.582 1607.01 175.39 Q1610.25 179.157 1615.76 179.157 Q1621.27 179.157 1624.47 175.39 Q1627.71 171.582 1627.71 165.06 Q1627.71 158.498 1624.47 154.73 Q1621.27 150.963 1615.76 150.963 M1632 125.321 L1632 132.774 Q1628.92 131.316 1625.76 130.546 Q1622.64 129.777 1619.56 129.777 Q1611.46 129.777 1607.17 135.246 Q1602.92 140.714 1602.31 151.773 Q1604.7 148.249 1608.3 146.386 Q1611.91 144.482 1616.24 144.482 Q1625.36 144.482 1630.62 150.031 Q1635.93 155.541 1635.93 165.06 Q1635.93 174.377 1630.42 180.008 Q1624.91 185.639 1615.76 185.639 Q1605.26 185.639 1599.72 177.618 Q1594.17 169.557 1594.17 154.285 Q1594.17 139.945 1600.97 131.438 Q1607.78 122.89 1619.24 122.89 Q1622.32 122.89 1625.44 123.498 Q1628.6 124.106 1632 125.321 Z" fill="#000000" fill-rule="evenodd" fill-opacity="1"></path><circle clip-path="url(#clip382)" cx="345.82" cy="1235.83" r="14.4" fill="#009af9" fill-rule="evenodd" fill-opacity="1" stroke="#000000" stroke-opacity="1" stroke-width="3.2"></circle>
<circle clip-path="url(#clip382)" cx="544.682" cy="1388.11" r="14.4" fill="#009af9" fill-rule="evenodd" fill-opacity="1" stroke="#000000" stroke-opacity="1" stroke-width="3.2"></circle>
<circle clip-path="url(#clip382)" cx="766.072" cy="1133.34" r="14.4" fill="#009af9" fill-rule="evenodd" fill-opacity="1" stroke="#000000" stroke-opacity="1" stroke-width="3.2"></circle>
<circle clip-path="url(#clip382)" cx="991.506" cy="944.271" r="14.4" fill="#009af9" fill-rule="evenodd" fill-opacity="1" stroke="#000000" stroke-opacity="1" stroke-width="3.2"></circle>
<circle clip-path="url(#clip382)" cx="1209.48" cy="838.214" r="14.4" fill="#009af9" fill-rule="evenodd" fill-opacity="1" stroke="#000000" stroke-opacity="1" stroke-width="3.2"></circle>
<circle clip-path="url(#clip382)" cx="1427.8" cy="746.142" r="14.4" fill="#009af9" fill-rule="evenodd" fill-opacity="1" stroke="#000000" stroke-opacity="1" stroke-width="3.2"></circle>
<circle clip-path="url(#clip382)" cx="1643.94" cy="642.643" r="14.4" fill="#009af9" fill-rule="evenodd" fill-opacity="1" stroke="#000000" stroke-opacity="1" stroke-width="3.2"></circle>
<circle clip-path="url(#clip382)" cx="1860.86" cy="526.749" r="14.4" fill="#009af9" fill-rule="evenodd" fill-opacity="1" stroke="#000000" stroke-opacity="1" stroke-width="3.2"></circle>
<circle clip-path="url(#clip382)" cx="2077.46" cy="383.397" r="14.4" fill="#009af9" fill-rule="evenodd" fill-opacity="1" stroke="#000000" stroke-opacity="1" stroke-width="3.2"></circle>
<circle clip-path="url(#clip382)" cx="2294.3" cy="219.025" r="14.4" fill="#009af9" fill-rule="evenodd" fill-opacity="1" stroke="#000000" stroke-opacity="1" stroke-width="3.2"></circle>
<polyline clip-path="url(#clip382)" style="stroke:#e26f46; stroke-linecap:round; stroke-linejoin:round; stroke-width:4; stroke-opacity:1; fill:none" points="
  345.82,1352.58 544.682,1240.52 766.072,1115.76 991.506,988.733 1209.48,865.906 1427.8,742.879 1643.94,621.087 1860.86,498.851 2077.46,376.794 2294.3,254.604 
  
  "></polyline>
<path clip-path="url(#clip380)" d="
M2001.99 380.78 L2283.91 380.78 L2283.91 225.26 L2001.99 225.26  Z
  " fill="#ffffff" fill-rule="evenodd" fill-opacity="1"></path>
<polyline clip-path="url(#clip380)" style="stroke:#000000; stroke-linecap:round; stroke-linejoin:round; stroke-width:4; stroke-opacity:1; fill:none" points="
  2001.99,380.78 2283.91,380.78 2283.91,225.26 2001.99,225.26 2001.99,380.78 
  "></polyline>
<circle clip-path="url(#clip380)" cx="2093.79" cy="277.1" r="23.04" fill="#009af9" fill-rule="evenodd" fill-opacity="1" stroke="#000000" stroke-opacity="1" stroke-width="5.12"></circle>
<path clip-path="url(#clip380)" d="M2199.42 296.787 Q2197.62 301.417 2195.91 302.829 Q2194.19 304.241 2191.32 304.241 L2187.92 304.241 L2187.92 300.676 L2190.42 300.676 Q2192.18 300.676 2193.15 299.843 Q2194.12 299.009 2195.3 295.907 L2196.07 293.963 L2185.58 268.454 L2190.1 268.454 L2198.2 288.732 L2206.3 268.454 L2210.81 268.454 L2199.42 296.787 Z" fill="#000000" fill-rule="evenodd" fill-opacity="1"></path><path clip-path="url(#clip380)" d="M2218.1 290.445 L2225.74 290.445 L2225.74 264.079 L2217.43 265.746 L2217.43 261.486 L2225.7 259.82 L2230.37 259.82 L2230.37 290.445 L2238.01 290.445 L2238.01 294.38 L2218.1 294.38 L2218.1 290.445 Z" fill="#000000" fill-rule="evenodd" fill-opacity="1"></path><polyline clip-path="url(#clip380)" style="stroke:#e26f46; stroke-linecap:round; stroke-linejoin:round; stroke-width:4; stroke-opacity:1; fill:none" points="
  2024.94,328.94 2162.63,328.94 
  "></polyline>
<path clip-path="url(#clip380)" d="M2199.42 348.627 Q2197.62 353.257 2195.91 354.669 Q2194.19 356.081 2191.32 356.081 L2187.92 356.081 L2187.92 352.516 L2190.42 352.516 Q2192.18 352.516 2193.15 351.683 Q2194.12 350.849 2195.3 347.747 L2196.07 345.803 L2185.58 320.294 L2190.1 320.294 L2198.2 340.572 L2206.3 320.294 L2210.81 320.294 L2199.42 348.627 Z" fill="#000000" fill-rule="evenodd" fill-opacity="1"></path><path clip-path="url(#clip380)" d="M2221.32 342.285 L2237.64 342.285 L2237.64 346.22 L2215.7 346.22 L2215.7 342.285 Q2218.36 339.53 2222.94 334.9 Q2227.55 330.248 2228.73 328.905 Q2230.98 326.382 2231.85 324.646 Q2232.76 322.887 2232.76 321.197 Q2232.76 318.442 2230.81 316.706 Q2228.89 314.97 2225.79 314.97 Q2223.59 314.97 2221.14 315.734 Q2218.71 316.498 2215.93 318.049 L2215.93 313.326 Q2218.75 312.192 2221.21 311.613 Q2223.66 311.035 2225.7 311.035 Q2231.07 311.035 2234.26 313.72 Q2237.46 316.405 2237.46 320.896 Q2237.46 323.025 2236.65 324.947 Q2235.86 326.845 2233.75 329.437 Q2233.17 330.109 2230.07 333.326 Q2226.97 336.521 2221.32 342.285 Z" fill="#000000" fill-rule="evenodd" fill-opacity="1"></path></svg>