<svg xmlns="http://www.w3.org/2000/svg" xmlns:xlink="http://www.w3.org/1999/xlink" width="600" height="400" viewBox="0 0 2400 1600">
<defs>
  <clipPath id="clip800">
    <rect x="0" y="0" width="2400" height="1600"></rect>
  </clipPath>
</defs>
<path clip-path="url(#clip800)" d="
M0 1600 L2400 1600 L2400 0 L0 0  Z
  " fill="#ffffff" fill-rule="evenodd" fill-opacity="1"></path>
<defs>
  <clipPath id="clip801">
    <rect x="480" y="0" width="1681" height="1600"></rect>
  </clipPath>
</defs>
<path clip-path="url(#clip800)" d="
M242.621 1423.18 L2352.76 1423.18 L2352.76 183.952 L242.621 183.952  Z
  " fill="#ffffff" fill-rule="evenodd" fill-opacity="1"></path>
<defs>
  <clipPath id="clip802">
    <rect x="242" y="183" width="2111" height="1240"></rect>
  </clipPath>
</defs>
<polyline clip-path="url(#clip802)" style="stroke:#000000; stroke-linecap:round; stroke-linejoin:round; stroke-width:2; stroke-opacity:0.1; fill:none" points="
  302.342,1423.18 302.342,183.952 
  "></polyline>
<polyline clip-path="url(#clip802)" style="stroke:#000000; stroke-linecap:round; stroke-linejoin:round; stroke-width:2; stroke-opacity:0.1; fill:none" points="
  800.015,1423.18 800.015,183.952 
  "></polyline>
<polyline clip-path="url(#clip802)" style="stroke:#000000; stroke-linecap:round; stroke-linejoin:round; stroke-width:2; stroke-opacity:0.1; fill:none" points="
  1297.69,1423.18 1297.69,183.952 
  "></polyline>
<polyline clip-path="url(#clip802)" style="stroke:#000000; stroke-linecap:round; stroke-linejoin:round; stroke-width:2; stroke-opacity:0.1; fill:none" points="
  1795.36,1423.18 1795.36,183.952 
  "></polyline>
<polyline clip-path="url(#clip802)" style="stroke:#000000; stroke-linecap:round; stroke-linejoin:round; stroke-width:2; stroke-opacity:0.1; fill:none" points="
  2293.04,1423.18 2293.04,183.952 
  "></polyline>
<polyline clip-path="url(#clip800)" style="stroke:#000000; stroke-linecap:round; stroke-linejoin:round; stroke-width:4; stroke-opacity:1; fill:none" points="
  242.621,1423.18 2352.76,1423.18 
  "></polyline>
<polyline clip-path="url(#clip800)" style="stroke:#000000; stroke-linecap:round; stroke-linejoin:round; stroke-width:4; stroke-opacity:1; fill:none" points="
  302.342,1423.18 302.342,1404.28 
  "></polyline>
<polyline clip-path="url(#clip800)" style="stroke:#000000; stroke-linecap:round; stroke-linejoin:round; stroke-width:4; stroke-opacity:1; fill:none" points="
  800.015,1423.18 800.015,1404.28 
  "></polyline>
<polyline clip-path="url(#clip800)" style="stroke:#000000; stroke-linecap:round; stroke-linejoin:round; stroke-width:4; stroke-opacity:1; fill:none" points="
  1297.69,1423.18 1297.69,1404.28 
  "></polyline>
<polyline clip-path="url(#clip800)" style="stroke:#000000; stroke-linecap:round; stroke-linejoin:round; stroke-width:4; stroke-opacity:1; fill:none" points="
  1795.36,1423.18 1795.36,1404.28 
  "></polyline>
<polyline clip-path="url(#clip800)" style="stroke:#000000; stroke-linecap:round; stroke-linejoin:round; stroke-width:4; stroke-opacity:1; fill:none" points="
  2293.04,1423.18 2293.04,1404.28 
  "></polyline>
<path clip-path="url(#clip800)" d="M269.495 1481.64 L277.133 1481.64 L277.133 1455.28 L268.823 1456.95 L268.823 1452.69 L277.087 1451.02 L281.763 1451.02 L281.763 1481.64 L289.402 1481.64 L289.402 1485.58 L269.495 1485.58 L269.495 1481.64 Z" fill="#000000" fill-rule="evenodd" fill-opacity="1"></path><path clip-path="url(#clip800)" d="M298.846 1479.7 L303.73 1479.7 L303.73 1485.58 L298.846 1485.58 L298.846 1479.7 Z" fill="#000000" fill-rule="evenodd" fill-opacity="1"></path><path clip-path="url(#clip800)" d="M323.916 1454.1 Q320.304 1454.1 318.476 1457.66 Q316.67 1461.2 316.67 1468.33 Q316.67 1475.44 318.476 1479.01 Q320.304 1482.55 323.916 1482.55 Q327.55 1482.55 329.355 1479.01 Q331.184 1475.44 331.184 1468.33 Q331.184 1461.2 329.355 1457.66 Q327.55 1454.1 323.916 1454.1 M323.916 1450.39 Q329.726 1450.39 332.781 1455 Q335.86 1459.58 335.86 1468.33 Q335.86 1477.06 332.781 1481.67 Q329.726 1486.25 323.916 1486.25 Q318.105 1486.25 315.027 1481.67 Q311.971 1477.06 311.971 1468.33 Q311.971 1459.58 315.027 1455 Q318.105 1450.39 323.916 1450.39 Z" fill="#000000" fill-rule="evenodd" fill-opacity="1"></path><path clip-path="url(#clip800)" d="M767.666 1481.64 L775.304 1481.64 L775.304 1455.28 L766.994 1456.95 L766.994 1452.69 L775.258 1451.02 L779.934 1451.02 L779.934 1481.64 L787.573 1481.64 L787.573 1485.58 L767.666 1485.58 L767.666 1481.64 Z" fill="#000000" fill-rule="evenodd" fill-opacity="1"></path><path clip-path="url(#clip800)" d="M797.017 1479.7 L801.902 1479.7 L801.902 1485.58 L797.017 1485.58 L797.017 1479.7 Z" fill="#000000" fill-rule="evenodd" fill-opacity="1"></path><path clip-path="url(#clip800)" d="M812.133 1451.02 L830.489 1451.02 L830.489 1454.96 L816.415 1454.96 L816.415 1463.43 Q817.434 1463.08 818.452 1462.92 Q819.471 1462.73 820.489 1462.73 Q826.276 1462.73 829.656 1465.9 Q833.036 1469.08 833.036 1474.49 Q833.036 1480.07 829.563 1483.17 Q826.091 1486.25 819.772 1486.25 Q817.596 1486.25 815.327 1485.88 Q813.082 1485.51 810.675 1484.77 L810.675 1480.07 Q812.758 1481.2 814.98 1481.76 Q817.202 1482.32 819.679 1482.32 Q823.684 1482.32 826.022 1480.21 Q828.36 1478.1 828.36 1474.49 Q828.36 1470.88 826.022 1468.77 Q823.684 1466.67 819.679 1466.67 Q817.804 1466.67 815.929 1467.08 Q814.077 1467.5 812.133 1468.38 L812.133 1451.02 Z" fill="#000000" fill-rule="evenodd" fill-opacity="1"></path><path clip-path="url(#clip800)" d="M1268.93 1481.64 L1285.25 1481.64 L1285.25 1485.58 L1263.3 1485.58 L1263.3 1481.64 Q1265.96 1478.89 1270.55 1474.26 Q1275.15 1469.61 1276.33 1468.27 Q1278.58 1465.74 1279.46 1464.01 Q1280.36 1462.25 1280.36 1460.56 Q1280.36 1457.8 1278.42 1456.07 Q1276.5 1454.33 1273.39 1454.33 Q1271.2 1454.33 1268.74 1455.09 Q1266.31 1455.86 1263.53 1457.41 L1263.53 1452.69 Q1266.36 1451.55 1268.81 1450.97 Q1271.26 1450.39 1273.3 1450.39 Q1278.67 1450.39 1281.87 1453.08 Q1285.06 1455.77 1285.06 1460.26 Q1285.06 1462.39 1284.25 1464.31 Q1283.46 1466.2 1281.36 1468.8 Q1280.78 1469.47 1277.68 1472.69 Q1274.58 1475.88 1268.93 1481.64 Z" fill="#000000" fill-rule="evenodd" fill-opacity="1"></path><path clip-path="url(#clip800)" d="M1295.06 1479.7 L1299.95 1479.7 L1299.95 1485.58 L1295.06 1485.58 L1295.06 1479.7 Z" fill="#000000" fill-rule="evenodd" fill-opacity="1"></path><path clip-path="url(#clip800)" d="M1320.13 1454.1 Q1316.52 1454.1 1314.69 1457.66 Q1312.89 1461.2 1312.89 1468.33 Q1312.89 1475.44 1314.69 1479.01 Q1316.52 1482.55 1320.13 1482.55 Q1323.76 1482.55 1325.57 1479.01 Q1327.4 1475.44 1327.4 1468.33 Q1327.4 1461.2 1325.57 1457.66 Q1323.76 1454.1 1320.13 1454.1 M1320.13 1450.39 Q1325.94 1450.39 1329 1455 Q1332.07 1459.58 1332.07 1468.33 Q1332.07 1477.06 1329 1481.67 Q1325.94 1486.25 1320.13 1486.25 Q1314.32 1486.25 1311.24 1481.67 Q1308.19 1477.06 1308.19 1468.33 Q1308.19 1459.58 1311.24 1455 Q1314.32 1450.39 1320.13 1450.39 Z" fill="#000000" fill-rule="evenodd" fill-opacity="1"></path><path clip-path="url(#clip800)" d="M1767.1 1481.64 L1783.42 1481.64 L1783.42 1485.58 L1761.47 1485.58 L1761.47 1481.64 Q1764.14 1478.89 1768.72 1474.26 Q1773.32 1469.61 1774.51 1468.27 Q1776.75 1465.74 1777.63 1464.01 Q1778.53 1462.25 1778.53 1460.56 Q1778.53 1457.8 1776.59 1456.07 Q1774.67 1454.33 1771.57 1454.33 Q1769.37 1454.33 1766.91 1455.09 Q1764.48 1455.86 1761.7 1457.41 L1761.7 1452.69 Q1764.53 1451.55 1766.98 1450.97 Q1769.44 1450.39 1771.47 1450.39 Q1776.84 1450.39 1780.04 1453.08 Q1783.23 1455.77 1783.23 1460.26 Q1783.23 1462.39 1782.42 1464.31 Q1781.63 1466.2 1779.53 1468.8 Q1778.95 1469.47 1775.85 1472.69 Q1772.75 1475.88 1767.1 1481.64 Z" fill="#000000" fill-rule="evenodd" fill-opacity="1"></path><path clip-path="url(#clip800)" d="M1793.23 1479.7 L1798.12 1479.7 L1798.12 1485.58 L1793.23 1485.58 L1793.23 1479.7 Z" fill="#000000" fill-rule="evenodd" fill-opacity="1"></path><path clip-path="url(#clip800)" d="M1808.35 1451.02 L1826.7 1451.02 L1826.7 1454.96 L1812.63 1454.96 L1812.63 1463.43 Q1813.65 1463.08 1814.67 1462.92 Q1815.69 1462.73 1816.7 1462.73 Q1822.49 1462.73 1825.87 1465.9 Q1829.25 1469.08 1829.25 1474.49 Q1829.25 1480.07 1825.78 1483.17 Q1822.31 1486.25 1815.99 1486.25 Q1813.81 1486.25 1811.54 1485.88 Q1809.3 1485.51 1806.89 1484.77 L1806.89 1480.07 Q1808.97 1481.2 1811.19 1481.76 Q1813.42 1482.32 1815.89 1482.32 Q1819.9 1482.32 1822.24 1480.21 Q1824.57 1478.1 1824.57 1474.49 Q1824.57 1470.88 1822.24 1468.77 Q1819.9 1466.67 1815.89 1466.67 Q1814.02 1466.67 1812.14 1467.08 Q1810.29 1467.5 1808.35 1468.38 L1808.35 1451.02 Z" fill="#000000" fill-rule="evenodd" fill-opacity="1"></path><path clip-path="url(#clip800)" d="M2274.34 1466.95 Q2277.7 1467.66 2279.57 1469.93 Q2281.47 1472.2 2281.47 1475.53 Q2281.47 1480.65 2277.95 1483.45 Q2274.44 1486.25 2267.95 1486.25 Q2265.78 1486.25 2263.46 1485.81 Q2261.17 1485.39 2258.72 1484.54 L2258.72 1480.02 Q2260.66 1481.16 2262.98 1481.74 Q2265.29 1482.32 2267.82 1482.32 Q2272.21 1482.32 2274.51 1480.58 Q2276.82 1478.84 2276.82 1475.53 Q2276.82 1472.48 2274.67 1470.77 Q2272.54 1469.03 2268.72 1469.03 L2264.69 1469.03 L2264.69 1465.19 L2268.9 1465.19 Q2272.35 1465.19 2274.18 1463.82 Q2276.01 1462.43 2276.01 1459.84 Q2276.01 1457.18 2274.11 1455.77 Q2272.24 1454.33 2268.72 1454.33 Q2266.8 1454.33 2264.6 1454.75 Q2262.4 1455.16 2259.76 1456.04 L2259.76 1451.88 Q2262.42 1451.14 2264.74 1450.77 Q2267.07 1450.39 2269.13 1450.39 Q2274.46 1450.39 2277.56 1452.83 Q2280.66 1455.23 2280.66 1459.35 Q2280.66 1462.22 2279.02 1464.21 Q2277.38 1466.18 2274.34 1466.95 Z" fill="#000000" fill-rule="evenodd" fill-opacity="1"></path><path clip-path="url(#clip800)" d="M2290.34 1479.7 L2295.22 1479.7 L2295.22 1485.58 L2290.34 1485.58 L2290.34 1479.7 Z" fill="#000000" fill-rule="evenodd" fill-opacity="1"></path><path clip-path="url(#clip800)" d="M2315.41 1454.1 Q2311.8 1454.1 2309.97 1457.66 Q2308.16 1461.2 2308.16 1468.33 Q2308.16 1475.44 2309.97 1479.01 Q2311.8 1482.55 2315.41 1482.55 Q2319.04 1482.55 2320.85 1479.01 Q2322.68 1475.44 2322.68 1468.33 Q2322.68 1461.2 2320.85 1457.66 Q2319.04 1454.1 2315.41 1454.1 M2315.41 1450.39 Q2321.22 1450.39 2324.27 1455 Q2327.35 1459.58 2327.35 1468.33 Q2327.35 1477.06 2324.27 1481.67 Q2321.22 1486.25 2315.41 1486.25 Q2309.6 1486.25 2306.52 1481.67 Q2303.46 1477.06 2303.46 1468.33 Q2303.46 1459.58 2306.52 1455 Q2309.6 1450.39 2315.41 1450.39 Z" fill="#000000" fill-rule="evenodd" fill-opacity="1"></path><path clip-path="url(#clip800)" d="M1146.3 1518.52 L1152.15 1518.52 L1152.15 1568.04 L1146.3 1568.04 L1146.3 1518.52 Z" fill="#000000" fill-rule="evenodd" fill-opacity="1"></path><path clip-path="url(#clip800)" d="M1178.22 1536.5 Q1173.51 1536.5 1170.77 1540.19 Q1168.03 1543.85 1168.03 1550.25 Q1168.03 1556.65 1170.74 1560.34 Q1173.48 1564 1178.22 1564 Q1182.9 1564 1185.64 1560.31 Q1188.37 1556.62 1188.37 1550.25 Q1188.37 1543.92 1185.64 1540.23 Q1182.9 1536.5 1178.22 1536.5 M1178.22 1531.54 Q1185.86 1531.54 1190.22 1536.5 Q1194.58 1541.47 1194.58 1550.25 Q1194.58 1559 1190.22 1564 Q1185.86 1568.97 1178.22 1568.97 Q1170.55 1568.97 1166.19 1564 Q1161.86 1559 1161.86 1550.25 Q1161.86 1541.47 1166.19 1536.5 Q1170.55 1531.54 1178.22 1531.54 Z" fill="#000000" fill-rule="evenodd" fill-opacity="1"></path><path clip-path="url(#clip800)" d="M1227.75 1549.81 Q1227.75 1543.44 1225.1 1539.94 Q1222.49 1536.44 1217.75 1536.44 Q1213.04 1536.44 1210.4 1539.94 Q1207.79 1543.44 1207.79 1549.81 Q1207.79 1556.14 1210.4 1559.64 Q1213.04 1563.14 1217.75 1563.14 Q1222.49 1563.14 1225.1 1559.64 Q1227.75 1556.14 1227.75 1549.81 M1233.6 1563.62 Q1233.6 1572.72 1229.56 1577.15 Q1225.52 1581.6 1217.18 1581.6 Q1214.09 1581.6 1211.35 1581.13 Q1208.62 1580.68 1206.04 1579.72 L1206.04 1574.03 Q1208.62 1575.43 1211.13 1576.1 Q1213.65 1576.76 1216.26 1576.76 Q1222.02 1576.76 1224.88 1573.74 Q1227.75 1570.75 1227.75 1564.67 L1227.75 1561.77 Q1225.93 1564.92 1223.1 1566.48 Q1220.27 1568.04 1216.32 1568.04 Q1209.76 1568.04 1205.75 1563.05 Q1201.74 1558.05 1201.74 1549.81 Q1201.74 1541.53 1205.75 1536.53 Q1209.76 1531.54 1216.32 1531.54 Q1220.27 1531.54 1223.1 1533.1 Q1225.93 1534.66 1227.75 1537.81 L1227.75 1532.4 L1233.6 1532.4 L1233.6 1563.62 Z" fill="#000000" fill-rule="evenodd" fill-opacity="1"></path><path clip-path="url(#clip800)" d="M1272.75 1578.87 L1272.75 1583.42 L1238.89 1583.42 L1238.89 1578.87 L1272.75 1578.87 Z" fill="#000000" fill-rule="evenodd" fill-opacity="1"></path><path clip-path="url(#clip800)" d="M1280.2 1562.63 L1290.7 1562.63 L1290.7 1526.38 L1279.28 1528.67 L1279.28 1522.82 L1290.64 1520.52 L1297.07 1520.52 L1297.07 1562.63 L1307.57 1562.63 L1307.57 1568.04 L1280.2 1568.04 L1280.2 1562.63 Z" fill="#000000" fill-rule="evenodd" fill-opacity="1"></path><path clip-path="url(#clip800)" d="M1334.31 1524.76 Q1329.34 1524.76 1326.83 1529.66 Q1324.34 1534.53 1324.34 1544.33 Q1324.34 1554.1 1326.83 1559 Q1329.34 1563.87 1334.31 1563.87 Q1339.3 1563.87 1341.79 1559 Q1344.3 1554.1 1344.3 1544.33 Q1344.3 1534.53 1341.79 1529.66 Q1339.3 1524.76 1334.31 1524.76 M1334.31 1519.66 Q1342.3 1519.66 1346.5 1526 Q1350.73 1532.3 1350.73 1544.33 Q1350.73 1556.33 1346.5 1562.66 Q1342.3 1568.97 1334.31 1568.97 Q1326.32 1568.97 1322.08 1562.66 Q1317.88 1556.33 1317.88 1544.33 Q1317.88 1532.3 1322.08 1526 Q1326.32 1519.66 1334.31 1519.66 Z" fill="#000000" fill-rule="evenodd" fill-opacity="1"></path><path clip-path="url(#clip800)" d="M1375.27 1518.58 Q1371.01 1525.9 1368.94 1533.06 Q1366.87 1540.23 1366.87 1547.58 Q1366.87 1554.93 1368.94 1562.16 Q1371.04 1569.35 1375.27 1576.64 L1370.18 1576.64 Q1365.4 1569.16 1363.02 1561.93 Q1360.66 1554.71 1360.66 1547.58 Q1360.66 1540.48 1363.02 1533.29 Q1365.37 1526.09 1370.18 1518.58 L1375.27 1518.58 Z" fill="#000000" fill-rule="evenodd" fill-opacity="1"></path><path clip-path="url(#clip800)" d="M1386.89 1520.52 L1395.55 1520.52 L1416.62 1560.28 L1416.62 1520.52 L1422.85 1520.52 L1422.85 1568.04 L1414.2 1568.04 L1393.13 1528.29 L1393.13 1568.04 L1386.89 1568.04 L1386.89 1520.52 Z" fill="#000000" fill-rule="evenodd" fill-opacity="1"></path><path clip-path="url(#clip800)" d="M1434.47 1518.58 L1439.56 1518.58 Q1444.34 1526.09 1446.69 1533.29 Q1449.08 1540.48 1449.08 1547.58 Q1449.08 1554.71 1446.69 1561.93 Q1444.34 1569.16 1439.56 1576.64 L1434.47 1576.64 Q1438.7 1569.35 1440.77 1562.16 Q1442.87 1554.93 1442.87 1547.58 Q1442.87 1540.23 1440.77 1533.06 Q1438.7 1525.9 1434.47 1518.58 Z" fill="#000000" fill-rule="evenodd" fill-opacity="1"></path><polyline clip-path="url(#clip802)" style="stroke:#000000; stroke-linecap:round; stroke-linejoin:round; stroke-width:2; stroke-opacity:0.1; fill:none" points="
  242.621,1193.91 2352.76,1193.91 
  "></polyline>
<polyline clip-path="url(#clip802)" style="stroke:#000000; stroke-linecap:round; stroke-linejoin:round; stroke-width:2; stroke-opacity:0.1; fill:none" points="
  242.621,960.448 2352.76,960.448 
  "></polyline>
<polyline clip-path="url(#clip802)" style="stroke:#000000; stroke-linecap:round; stroke-linejoin:round; stroke-width:2; stroke-opacity:0.1; fill:none" points="
  242.621,726.988 2352.76,726.988 
  "></polyline>
<polyline clip-path="url(#clip802)" style="stroke:#000000; stroke-linecap:round; stroke-linejoin:round; stroke-width:2; stroke-opacity:0.1; fill:none" points="
  242.621,493.529 2352.76,493.529 
  "></polyline>
<polyline clip-path="url(#clip802)" style="stroke:#000000; stroke-linecap:round; stroke-linejoin:round; stroke-width:2; stroke-opacity:0.1; fill:none" points="
  242.621,260.069 2352.76,260.069 
  "></polyline>
<polyline clip-path="url(#clip800)" style="stroke:#000000; stroke-linecap:round; stroke-linejoin:round; stroke-width:4; stroke-opacity:1; fill:none" points="
  242.621,1423.18 242.621,183.952 
  "></polyline>
<polyline clip-path="url(#clip800)" style="stroke:#000000; stroke-linecap:round; stroke-linejoin:round; stroke-width:4; stroke-opacity:1; fill:none" points="
  242.621,1193.91 261.518,1193.91 
  "></polyline>
<polyline clip-path="url(#clip800)" style="stroke:#000000; stroke-linecap:round; stroke-linejoin:round; stroke-width:4; stroke-opacity:1; fill:none" points="
  242.621,960.448 261.518,960.448 
  "></polyline>
<polyline clip-path="url(#clip800)" style="stroke:#000000; stroke-linecap:round; stroke-linejoin:round; stroke-width:4; stroke-opacity:1; fill:none" points="
  242.621,726.988 261.518,726.988 
  "></polyline>
<polyline clip-path="url(#clip800)" style="stroke:#000000; stroke-linecap:round; stroke-linejoin:round; stroke-width:4; stroke-opacity:1; fill:none" points="
  242.621,493.529 261.518,493.529 
  "></polyline>
<polyline clip-path="url(#clip800)" style="stroke:#000000; stroke-linecap:round; stroke-linejoin:round; stroke-width:4; stroke-opacity:1; fill:none" points="
  242.621,260.069 261.518,260.069 
  "></polyline>
<path clip-path="url(#clip800)" d="M114.839 1194.36 L144.515 1194.36 L144.515 1198.29 L114.839 1198.29 L114.839 1194.36 Z" fill="#000000" fill-rule="evenodd" fill-opacity="1"></path><path clip-path="url(#clip800)" d="M158.635 1207.25 L174.954 1207.25 L174.954 1211.19 L153.01 1211.19 L153.01 1207.25 Q155.672 1204.5 160.255 1199.87 Q164.862 1195.22 166.042 1193.87 Q168.288 1191.35 169.167 1189.61 Q170.07 1187.85 170.07 1186.16 Q170.07 1183.41 168.126 1181.67 Q166.204 1179.94 163.102 1179.94 Q160.903 1179.94 158.45 1180.7 Q156.019 1181.47 153.241 1183.02 L153.241 1178.29 Q156.065 1177.16 158.519 1176.58 Q160.973 1176 163.01 1176 Q168.38 1176 171.575 1178.69 Q174.769 1181.37 174.769 1185.86 Q174.769 1187.99 173.959 1189.91 Q173.172 1191.81 171.065 1194.41 Q170.487 1195.08 167.385 1198.29 Q164.283 1201.49 158.635 1207.25 Z" fill="#000000" fill-rule="evenodd" fill-opacity="1"></path><path clip-path="url(#clip800)" d="M194.769 1194.78 Q191.436 1194.78 189.514 1196.56 Q187.616 1198.34 187.616 1201.47 Q187.616 1204.59 189.514 1206.37 Q191.436 1208.16 194.769 1208.16 Q198.102 1208.16 200.024 1206.37 Q201.945 1204.57 201.945 1201.47 Q201.945 1198.34 200.024 1196.56 Q198.125 1194.78 194.769 1194.78 M190.093 1192.79 Q187.084 1192.04 185.394 1189.98 Q183.727 1187.92 183.727 1184.96 Q183.727 1180.82 186.667 1178.41 Q189.63 1176 194.769 1176 Q199.931 1176 202.871 1178.41 Q205.811 1180.82 205.811 1184.96 Q205.811 1187.92 204.121 1189.98 Q202.454 1192.04 199.468 1192.79 Q202.848 1193.57 204.723 1195.86 Q206.621 1198.16 206.621 1201.47 Q206.621 1206.49 203.542 1209.17 Q200.487 1211.86 194.769 1211.86 Q189.051 1211.86 185.973 1209.17 Q182.917 1206.49 182.917 1201.47 Q182.917 1198.16 184.815 1195.86 Q186.713 1193.57 190.093 1192.79 M188.38 1185.4 Q188.38 1188.09 190.047 1189.59 Q191.737 1191.1 194.769 1191.1 Q197.778 1191.1 199.468 1189.59 Q201.181 1188.09 201.181 1185.4 Q201.181 1182.72 199.468 1181.21 Q197.778 1179.71 194.769 1179.71 Q191.737 1179.71 190.047 1181.21 Q188.38 1182.72 188.38 1185.4 Z" fill="#000000" fill-rule="evenodd" fill-opacity="1"></path><path clip-path="url(#clip800)" d="M114.584 960.899 L144.26 960.899 L144.26 964.835 L114.584 964.835 L114.584 960.899 Z" fill="#000000" fill-rule="evenodd" fill-opacity="1"></path><path clip-path="url(#clip800)" d="M158.38 973.793 L174.7 973.793 L174.7 977.728 L152.755 977.728 L152.755 973.793 Q155.417 971.038 160.001 966.409 Q164.607 961.756 165.788 960.413 Q168.033 957.89 168.913 956.154 Q169.815 954.395 169.815 952.705 Q169.815 949.95 167.871 948.214 Q165.95 946.478 162.848 946.478 Q160.649 946.478 158.195 947.242 Q155.765 948.006 152.987 949.557 L152.987 944.835 Q155.811 943.7 158.265 943.122 Q160.718 942.543 162.755 942.543 Q168.126 942.543 171.32 945.228 Q174.514 947.913 174.514 952.404 Q174.514 954.534 173.704 956.455 Q172.917 958.353 170.811 960.946 Q170.232 961.617 167.13 964.835 Q164.028 968.029 158.38 973.793 Z" fill="#000000" fill-rule="evenodd" fill-opacity="1"></path><path clip-path="url(#clip800)" d="M195.093 958.585 Q191.945 958.585 190.093 960.737 Q188.264 962.89 188.264 966.64 Q188.264 970.367 190.093 972.543 Q191.945 974.696 195.093 974.696 Q198.241 974.696 200.07 972.543 Q201.922 970.367 201.922 966.64 Q201.922 962.89 200.07 960.737 Q198.241 958.585 195.093 958.585 M204.375 943.932 L204.375 948.191 Q202.616 947.358 200.811 946.918 Q199.028 946.478 197.269 946.478 Q192.639 946.478 190.186 949.603 Q187.755 952.728 187.408 959.048 Q188.774 957.034 190.834 955.969 Q192.894 954.881 195.371 954.881 Q200.579 954.881 203.588 958.052 Q206.621 961.2 206.621 966.64 Q206.621 971.964 203.473 975.182 Q200.325 978.399 195.093 978.399 Q189.098 978.399 185.926 973.816 Q182.755 969.21 182.755 960.483 Q182.755 952.288 186.644 947.427 Q190.533 942.543 197.084 942.543 Q198.843 942.543 200.625 942.89 Q202.431 943.238 204.375 943.932 Z" fill="#000000" fill-rule="evenodd" fill-opacity="1"></path><path clip-path="url(#clip800)" d="M114.26 727.44 L143.936 727.44 L143.936 731.375 L114.26 731.375 L114.26 727.44 Z" fill="#000000" fill-rule="evenodd" fill-opacity="1"></path><path clip-path="url(#clip800)" d="M158.056 740.333 L174.376 740.333 L174.376 744.268 L152.431 744.268 L152.431 740.333 Q155.093 737.579 159.677 732.949 Q164.283 728.296 165.464 726.954 Q167.709 724.431 168.589 722.694 Q169.491 720.935 169.491 719.245 Q169.491 716.491 167.547 714.755 Q165.626 713.019 162.524 713.019 Q160.325 713.019 157.871 713.782 Q155.44 714.546 152.663 716.097 L152.663 711.375 Q155.487 710.241 157.94 709.662 Q160.394 709.083 162.431 709.083 Q167.802 709.083 170.996 711.769 Q174.19 714.454 174.19 718.944 Q174.19 721.074 173.38 722.995 Q172.593 724.894 170.487 727.486 Q169.908 728.157 166.806 731.375 Q163.704 734.569 158.056 740.333 Z" fill="#000000" fill-rule="evenodd" fill-opacity="1"></path><path clip-path="url(#clip800)" d="M197.037 713.782 L185.232 732.231 L197.037 732.231 L197.037 713.782 M195.811 709.708 L201.69 709.708 L201.69 732.231 L206.621 732.231 L206.621 736.12 L201.69 736.12 L201.69 744.268 L197.037 744.268 L197.037 736.12 L181.436 736.12 L181.436 731.606 L195.811 709.708 Z" fill="#000000" fill-rule="evenodd" fill-opacity="1"></path><path clip-path="url(#clip800)" d="M116.343 493.98 L146.019 493.98 L146.019 497.915 L116.343 497.915 L116.343 493.98 Z" fill="#000000" fill-rule="evenodd" fill-opacity="1"></path><path clip-path="url(#clip800)" d="M160.14 506.874 L176.459 506.874 L176.459 510.809 L154.515 510.809 L154.515 506.874 Q157.177 504.119 161.76 499.489 Q166.366 494.837 167.547 493.494 Q169.792 490.971 170.672 489.235 Q171.575 487.476 171.575 485.786 Q171.575 483.031 169.63 481.295 Q167.709 479.559 164.607 479.559 Q162.408 479.559 159.954 480.323 Q157.524 481.087 154.746 482.638 L154.746 477.915 Q157.57 476.781 160.024 476.202 Q162.477 475.624 164.515 475.624 Q169.885 475.624 173.079 478.309 Q176.274 480.994 176.274 485.485 Q176.274 487.614 175.464 489.536 Q174.677 491.434 172.57 494.026 Q171.991 494.698 168.889 497.915 Q165.788 501.11 160.14 506.874 Z" fill="#000000" fill-rule="evenodd" fill-opacity="1"></path><path clip-path="url(#clip800)" d="M190.301 506.874 L206.621 506.874 L206.621 510.809 L184.676 510.809 L184.676 506.874 Q187.338 504.119 191.922 499.489 Q196.528 494.837 197.709 493.494 Q199.954 490.971 200.834 489.235 Q201.737 487.476 201.737 485.786 Q201.737 483.031 199.792 481.295 Q197.871 479.559 194.769 479.559 Q192.57 479.559 190.116 480.323 Q187.686 481.087 184.908 482.638 L184.908 477.915 Q187.732 476.781 190.186 476.202 Q192.639 475.624 194.676 475.624 Q200.047 475.624 203.241 478.309 Q206.436 480.994 206.436 485.485 Q206.436 487.614 205.625 489.536 Q204.838 491.434 202.732 494.026 Q202.153 494.698 199.051 497.915 Q195.95 501.11 190.301 506.874 Z" fill="#000000" fill-rule="evenodd" fill-opacity="1"></path><path clip-path="url(#clip800)" d="M114.746 260.52 L144.422 260.52 L144.422 264.456 L114.746 264.456 L114.746 260.52 Z" fill="#000000" fill-rule="evenodd" fill-opacity="1"></path><path clip-path="url(#clip800)" d="M158.542 273.414 L174.862 273.414 L174.862 277.349 L152.917 277.349 L152.917 273.414 Q155.579 270.659 160.163 266.03 Q164.769 261.377 165.95 260.034 Q168.195 257.511 169.075 255.775 Q169.977 254.016 169.977 252.326 Q169.977 249.571 168.033 247.835 Q166.112 246.099 163.01 246.099 Q160.811 246.099 158.357 246.863 Q155.927 247.627 153.149 249.178 L153.149 244.456 Q155.973 243.321 158.427 242.743 Q160.88 242.164 162.917 242.164 Q168.288 242.164 171.482 244.849 Q174.677 247.534 174.677 252.025 Q174.677 254.155 173.866 256.076 Q173.079 257.974 170.973 260.567 Q170.394 261.238 167.292 264.456 Q164.19 267.65 158.542 273.414 Z" fill="#000000" fill-rule="evenodd" fill-opacity="1"></path><path clip-path="url(#clip800)" d="M194.676 245.868 Q191.065 245.868 189.237 249.433 Q187.431 252.974 187.431 260.104 Q187.431 267.21 189.237 270.775 Q191.065 274.317 194.676 274.317 Q198.311 274.317 200.116 270.775 Q201.945 267.21 201.945 260.104 Q201.945 252.974 200.116 249.433 Q198.311 245.868 194.676 245.868 M194.676 242.164 Q200.487 242.164 203.542 246.77 Q206.621 251.354 206.621 260.104 Q206.621 268.831 203.542 273.437 Q200.487 278.02 194.676 278.02 Q188.866 278.02 185.788 273.437 Q182.732 268.831 182.732 260.104 Q182.732 251.354 185.788 246.77 Q188.866 242.164 194.676 242.164 Z" fill="#000000" fill-rule="evenodd" fill-opacity="1"></path><path clip-path="url(#clip800)" d="M14.479 1091.88 L14.479 1086.03 L64.0042 1086.03 L64.0042 1091.88 L14.479 1091.88 Z" fill="#000000" fill-rule="evenodd" fill-opacity="1"></path><path clip-path="url(#clip800)" d="M32.4621 1059.96 Q32.4621 1064.67 36.1542 1067.41 Q39.8145 1070.15 46.212 1070.15 Q52.6095 1070.15 56.3017 1067.44 Q59.9619 1064.7 59.9619 1059.96 Q59.9619 1055.28 56.2698 1052.54 Q52.5777 1049.81 46.212 1049.81 Q39.8781 1049.81 36.186 1052.54 Q32.4621 1055.28 32.4621 1059.96 M27.4968 1059.96 Q27.4968 1052.32 32.4621 1047.96 Q37.4273 1043.6 46.212 1043.6 Q54.9649 1043.6 59.9619 1047.96 Q64.9272 1052.32 64.9272 1059.96 Q64.9272 1067.63 59.9619 1071.99 Q54.9649 1076.32 46.212 1076.32 Q37.4273 1076.32 32.4621 1071.99 Q27.4968 1067.63 27.4968 1059.96 Z" fill="#000000" fill-rule="evenodd" fill-opacity="1"></path><path clip-path="url(#clip800)" d="M45.7664 1010.44 Q39.4007 1010.44 35.8996 1013.08 Q32.3984 1015.69 32.3984 1020.43 Q32.3984 1025.14 35.8996 1027.78 Q39.4007 1030.39 45.7664 1030.39 Q52.1003 1030.39 55.6014 1027.78 Q59.1026 1025.14 59.1026 1020.43 Q59.1026 1015.69 55.6014 1013.08 Q52.1003 1010.44 45.7664 1010.44 M59.58 1004.58 Q68.683 1004.58 73.1071 1008.62 Q77.5631 1012.66 77.5631 1021 Q77.5631 1024.09 77.0857 1026.83 Q76.6401 1029.56 75.6852 1032.14 L69.9879 1032.14 Q71.3884 1029.56 72.0568 1027.05 Q72.7252 1024.54 72.7252 1021.93 Q72.7252 1016.16 69.7015 1013.3 Q66.7096 1010.44 60.6303 1010.44 L57.7339 1010.44 Q60.885 1012.25 62.4446 1015.08 Q64.0042 1017.92 64.0042 1021.86 Q64.0042 1028.42 59.0071 1032.43 Q54.01 1036.44 45.7664 1036.44 Q37.491 1036.44 32.4939 1032.43 Q27.4968 1028.42 27.4968 1021.86 Q27.4968 1017.92 29.0564 1015.08 Q30.616 1012.25 33.7671 1010.44 L28.3562 1010.44 L28.3562 1004.58 L59.58 1004.58 Z" fill="#000000" fill-rule="evenodd" fill-opacity="1"></path><path clip-path="url(#clip800)" d="M74.8259 965.43 L79.3773 965.43 L79.3773 999.296 L74.8259 999.296 L74.8259 965.43 Z" fill="#000000" fill-rule="evenodd" fill-opacity="1"></path><path clip-path="url(#clip800)" d="M58.5933 957.982 L58.5933 947.479 L22.3406 947.479 L24.6323 958.905 L18.7758 958.905 L16.4842 947.542 L16.4842 941.113 L58.5933 941.113 L58.5933 930.61 L64.0042 930.61 L64.0042 957.982 L58.5933 957.982 Z" fill="#000000" fill-rule="evenodd" fill-opacity="1"></path><path clip-path="url(#clip800)" d="M20.7174 903.874 Q20.7174 908.839 25.6189 911.353 Q30.4887 913.836 40.2919 913.836 Q50.0633 913.836 54.9649 911.353 Q59.8346 908.839 59.8346 903.874 Q59.8346 898.877 54.9649 896.394 Q50.0633 893.879 40.2919 893.879 Q30.4887 893.879 25.6189 896.394 Q20.7174 898.877 20.7174 903.874 M15.6248 903.874 Q15.6248 895.885 21.9587 891.683 Q28.2607 887.45 40.2919 887.45 Q52.2913 887.45 58.6251 891.683 Q64.9272 895.885 64.9272 903.874 Q64.9272 911.863 58.6251 916.096 Q52.2913 920.297 40.2919 920.297 Q28.2607 920.297 21.9587 916.096 Q15.6248 911.863 15.6248 903.874 Z" fill="#000000" fill-rule="evenodd" fill-opacity="1"></path><path clip-path="url(#clip800)" d="M14.5426 862.91 Q21.8632 867.175 29.0246 869.244 Q36.186 871.313 43.5384 871.313 Q50.8908 871.313 58.1159 869.244 Q65.3091 867.143 72.5979 862.91 L72.5979 868.003 Q65.1182 872.777 57.8931 875.164 Q50.668 877.52 43.5384 877.52 Q36.4406 877.52 29.2474 875.164 Q22.0542 872.809 14.5426 868.003 L14.5426 862.91 Z" fill="#000000" fill-rule="evenodd" fill-opacity="1"></path><path clip-path="url(#clip800)" d="M14.1925 844.004 L79.3773 844.004 L79.3773 849.415 L14.1925 849.415 L14.1925 844.004 Z" fill="#000000" fill-rule="evenodd" fill-opacity="1"></path><path clip-path="url(#clip800)" d="M21.7677 822.902 L39.6235 822.902 L39.6235 814.817 Q39.6235 810.33 37.3 807.879 Q34.9765 805.428 30.6797 805.428 Q26.4147 805.428 24.0912 807.879 Q21.7677 810.33 21.7677 814.817 L21.7677 822.902 M16.4842 829.331 L16.4842 814.817 Q16.4842 806.828 20.1126 802.754 Q23.7092 798.648 30.6797 798.648 Q37.7138 798.648 41.3104 802.754 Q44.907 806.828 44.907 814.817 L44.907 822.902 L64.0042 822.902 L64.0042 829.331 L16.4842 829.331 Z" fill="#000000" fill-rule="evenodd" fill-opacity="1"></path><path clip-path="url(#clip800)" d="M22.818 778.31 L46.4666 787.031 L46.4666 769.557 L22.818 778.31 M16.4842 781.938 L16.4842 774.65 L64.0042 756.539 L64.0042 763.223 L51.8138 767.552 L51.8138 788.973 L64.0042 793.301 L64.0042 800.081 L16.4842 781.938 Z" fill="#000000" fill-rule="evenodd" fill-opacity="1"></path><path clip-path="url(#clip800)" d="M43.5384 754.248 L43.5384 737.092 L48.7583 737.092 L48.7583 754.248 L43.5384 754.248 Z" fill="#000000" fill-rule="evenodd" fill-opacity="1"></path><path clip-path="url(#clip800)" d="M16.4842 727.512 L16.4842 721.082 L58.5933 721.082 L58.5933 697.943 L64.0042 697.943 L64.0042 727.512 L16.4842 727.512 Z" fill="#000000" fill-rule="evenodd" fill-opacity="1"></path><path clip-path="url(#clip800)" d="M16.4842 695.174 L16.4842 688.713 L45.3526 688.713 Q52.9915 688.713 56.3653 685.944 Q59.7073 683.175 59.7073 676.968 Q59.7073 670.793 56.3653 668.024 Q52.9915 665.255 45.3526 665.255 L16.4842 665.255 L16.4842 658.794 L46.1484 658.794 Q55.4423 658.794 60.1847 663.409 Q64.9272 667.992 64.9272 676.968 Q64.9272 685.975 60.1847 690.591 Q55.4423 695.174 46.1484 695.174 L16.4842 695.174 Z" fill="#000000" fill-rule="evenodd" fill-opacity="1"></path><path clip-path="url(#clip800)" d="M14.1925 639.442 L79.3773 639.442 L79.3773 644.853 L14.1925 644.853 L14.1925 639.442 Z" fill="#000000" fill-rule="evenodd" fill-opacity="1"></path><path clip-path="url(#clip800)" d="M16.4842 600.739 L34.2127 583.456 L34.2127 589.853 L21.6404 603.858 L34.2127 617.862 L34.2127 624.26 L16.4842 606.977 L16.4842 600.739 Z" fill="#000000" fill-rule="evenodd" fill-opacity="1"></path><path clip-path="url(#clip800)" d="M58.5933 564.04 L58.5933 541.601 L64.0042 541.601 L64.0042 571.775 L58.5933 571.775 Q54.8057 568.114 48.44 561.812 Q42.0425 555.478 40.1964 553.855 Q36.7271 550.768 34.34 549.558 Q31.921 548.317 29.5975 548.317 Q25.8099 548.317 23.4228 550.991 Q21.0356 553.632 21.0356 557.897 Q21.0356 560.921 22.086 564.295 Q23.1363 567.637 25.2688 571.456 L18.7758 571.456 Q17.2162 567.573 16.4205 564.2 Q15.6248 560.826 15.6248 558.025 Q15.6248 550.641 19.3169 546.248 Q23.009 541.856 29.1837 541.856 Q32.112 541.856 34.7537 542.97 Q37.3637 544.052 40.9285 546.948 Q41.8515 547.744 46.2757 552.009 Q50.668 556.274 58.5933 564.04 Z" fill="#000000" fill-rule="evenodd" fill-opacity="1"></path><path clip-path="url(#clip800)" d="M14.5426 529.857 L14.5426 524.764 Q22.0542 519.99 29.2474 517.634 Q36.4406 515.247 43.5384 515.247 Q50.668 515.247 57.8931 517.634 Q65.1182 519.99 72.5979 524.764 L72.5979 529.857 Q65.3091 525.623 58.1159 523.554 Q50.8908 521.454 43.5384 521.454 Q36.186 521.454 29.0246 523.554 Q21.8632 525.623 14.5426 529.857 Z" fill="#000000" fill-rule="evenodd" fill-opacity="1"></path><path clip-path="url(#clip800)" d="M840.888 39.9885 L840.888 62.7141 L851.177 62.7141 Q856.889 62.7141 860.008 59.7569 Q863.128 56.7998 863.128 51.331 Q863.128 45.9028 860.008 42.9457 Q856.889 39.9885 851.177 39.9885 L840.888 39.9885 M832.705 33.264 L851.177 33.264 Q861.345 33.264 866.53 37.882 Q871.756 42.4596 871.756 51.331 Q871.756 60.2835 866.53 64.8611 Q861.345 69.4386 851.177 69.4386 L840.888 69.4386 L840.888 93.744 L832.705 93.744 L832.705 33.264 Z" fill="#000000" fill-rule="evenodd" fill-opacity="1"></path><path clip-path="url(#clip800)" d="M882.734 33.264 L890.917 33.264 L890.917 86.8575 L920.367 86.8575 L920.367 93.744 L882.734 93.744 L882.734 33.264 Z" fill="#000000" fill-rule="evenodd" fill-opacity="1"></path><path clip-path="url(#clip800)" d="M923.891 33.264 L932.114 33.264 L932.114 70.0057 Q932.114 79.7279 935.639 84.0218 Q939.163 88.2753 947.062 88.2753 Q954.921 88.2753 958.445 84.0218 Q961.97 79.7279 961.97 70.0057 L961.97 33.264 L970.193 33.264 L970.193 71.0184 Q970.193 82.8471 964.319 88.8829 Q958.486 94.9188 947.062 94.9188 Q935.598 94.9188 929.724 88.8829 Q923.891 82.8471 923.891 71.0184 L923.891 33.264 Z" fill="#000000" fill-rule="evenodd" fill-opacity="1"></path><path clip-path="url(#clip800)" d="M1011.92 33.264 L1046.67 33.264 L1046.67 40.1505 L1020.1 40.1505 L1020.1 57.9745 L1044.08 57.9745 L1044.08 64.8611 L1020.1 64.8611 L1020.1 93.744 L1011.92 93.744 L1011.92 33.264 Z" fill="#000000" fill-rule="evenodd" fill-opacity="1"></path><path clip-path="url(#clip800)" d="M1072.32 70.9374 Q1063.28 70.9374 1059.8 73.0034 Q1056.32 75.0693 1056.32 80.0519 Q1056.32 84.0218 1058.91 86.3714 Q1061.54 88.6804 1066.04 88.6804 Q1072.24 88.6804 1075.96 84.3054 Q1079.73 79.8899 1079.73 72.5983 L1079.73 70.9374 L1072.32 70.9374 M1087.18 67.8587 L1087.18 93.744 L1079.73 93.744 L1079.73 86.8575 Q1077.18 90.9894 1073.37 92.9743 Q1069.56 94.9188 1064.05 94.9188 Q1057.08 94.9188 1052.95 91.0299 Q1048.86 87.1005 1048.86 80.5381 Q1048.86 72.8818 1053.97 68.993 Q1059.11 65.1041 1069.28 65.1041 L1079.73 65.1041 L1079.73 64.3749 Q1079.73 59.2303 1076.33 56.4352 Q1072.96 53.5995 1066.85 53.5995 Q1062.96 53.5995 1059.27 54.5312 Q1055.59 55.463 1052.18 57.3264 L1052.18 50.4398 Q1056.27 48.86 1060.12 48.0903 Q1063.97 47.2801 1067.62 47.2801 Q1077.46 47.2801 1082.32 52.3843 Q1087.18 57.4884 1087.18 67.8587 Z" fill="#000000" fill-rule="evenodd" fill-opacity="1"></path><path clip-path="url(#clip800)" d="M1135.19 50.1158 L1135.19 57.0833 Q1132.03 55.3414 1128.83 54.4907 Q1125.67 53.5995 1122.43 53.5995 Q1115.17 53.5995 1111.16 58.2176 Q1107.15 62.7951 1107.15 71.0994 Q1107.15 79.4038 1111.16 84.0218 Q1115.17 88.5994 1122.43 88.5994 Q1125.67 88.5994 1128.83 87.7487 Q1132.03 86.8575 1135.19 85.1156 L1135.19 92.0021 Q1132.07 93.4604 1128.7 94.1896 Q1125.38 94.9188 1121.62 94.9188 Q1111.37 94.9188 1105.33 88.4778 Q1099.3 82.0369 1099.3 71.0994 Q1099.3 60 1105.37 53.64 Q1111.49 47.2801 1122.1 47.2801 Q1125.55 47.2801 1128.83 48.0093 Q1132.11 48.6979 1135.19 50.1158 Z" fill="#000000" fill-rule="evenodd" fill-opacity="1"></path><path clip-path="url(#clip800)" d="M1155.52 35.492 L1155.52 48.3739 L1170.87 48.3739 L1170.87 54.1667 L1155.52 54.1667 L1155.52 78.7962 Q1155.52 84.3459 1157.02 85.9258 Q1158.56 87.5056 1163.22 87.5056 L1170.87 87.5056 L1170.87 93.744 L1163.22 93.744 Q1154.59 93.744 1151.31 90.5438 Q1148.03 87.3031 1148.03 78.7962 L1148.03 54.1667 L1142.56 54.1667 L1142.56 48.3739 L1148.03 48.3739 L1148.03 35.492 L1155.52 35.492 Z" fill="#000000" fill-rule="evenodd" fill-opacity="1"></path><path clip-path="url(#clip800)" d="M1198.26 53.5995 Q1192.26 53.5995 1188.78 58.2986 Q1185.3 62.9571 1185.3 71.0994 Q1185.3 79.2418 1188.74 83.9408 Q1192.22 88.5994 1198.26 88.5994 Q1204.21 88.5994 1207.7 83.9003 Q1211.18 79.2013 1211.18 71.0994 Q1211.18 63.0381 1207.7 58.3391 Q1204.21 53.5995 1198.26 53.5995 M1198.26 47.2801 Q1207.98 47.2801 1213.53 53.5995 Q1219.08 59.9189 1219.08 71.0994 Q1219.08 82.2394 1213.53 88.5994 Q1207.98 94.9188 1198.26 94.9188 Q1188.5 94.9188 1182.95 88.5994 Q1177.44 82.2394 1177.44 71.0994 Q1177.44 59.9189 1182.95 53.5995 Q1188.5 47.2801 1198.26 47.2801 Z" fill="#000000" fill-rule="evenodd" fill-opacity="1"></path><path clip-path="url(#clip800)" d="M1257.73 55.3414 Q1256.47 54.6123 1254.97 54.2882 Q1253.51 53.9236 1251.73 53.9236 Q1245.41 53.9236 1242.01 58.0555 Q1238.65 62.1469 1238.65 69.8437 L1238.65 93.744 L1231.15 93.744 L1231.15 48.3739 L1238.65 48.3739 L1238.65 55.4224 Q1241 51.2905 1244.76 49.3056 Q1248.53 47.2801 1253.92 47.2801 Q1254.69 47.2801 1255.62 47.4017 Q1256.55 47.4827 1257.69 47.6852 L1257.73 55.3414 Z" fill="#000000" fill-rule="evenodd" fill-opacity="1"></path><path clip-path="url(#clip800)" d="M1265.54 48.3739 L1273 48.3739 L1273 93.744 L1265.54 93.744 L1265.54 48.3739 M1265.54 30.7119 L1273 30.7119 L1273 40.1505 L1265.54 40.1505 L1265.54 30.7119 Z" fill="#000000" fill-rule="evenodd" fill-opacity="1"></path><path clip-path="url(#clip800)" d="M1285.35 48.3739 L1320.76 48.3739 L1320.76 55.1794 L1292.73 87.7892 L1320.76 87.7892 L1320.76 93.744 L1284.34 93.744 L1284.34 86.9385 L1312.37 54.3287 L1285.35 54.3287 L1285.35 48.3739 Z" fill="#000000" fill-rule="evenodd" fill-opacity="1"></path><path clip-path="url(#clip800)" d="M1352.76 70.9374 Q1343.73 70.9374 1340.24 73.0034 Q1336.76 75.0693 1336.76 80.0519 Q1336.76 84.0218 1339.35 86.3714 Q1341.98 88.6804 1346.48 88.6804 Q1352.68 88.6804 1356.41 84.3054 Q1360.17 79.8899 1360.17 72.5983 L1360.17 70.9374 L1352.76 70.9374 M1367.63 67.8587 L1367.63 93.744 L1360.17 93.744 L1360.17 86.8575 Q1357.62 90.9894 1353.81 92.9743 Q1350.01 94.9188 1344.5 94.9188 Q1337.53 94.9188 1333.4 91.0299 Q1329.31 87.1005 1329.31 80.5381 Q1329.31 72.8818 1334.41 68.993 Q1339.55 65.1041 1349.72 65.1041 L1360.17 65.1041 L1360.17 64.3749 Q1360.17 59.2303 1356.77 56.4352 Q1353.41 53.5995 1347.29 53.5995 Q1343.4 53.5995 1339.72 54.5312 Q1336.03 55.463 1332.63 57.3264 L1332.63 50.4398 Q1336.72 48.86 1340.57 48.0903 Q1344.42 47.2801 1348.06 47.2801 Q1357.91 47.2801 1362.77 52.3843 Q1367.63 57.4884 1367.63 67.8587 Z" fill="#000000" fill-rule="evenodd" fill-opacity="1"></path><path clip-path="url(#clip800)" d="M1390.35 35.492 L1390.35 48.3739 L1405.71 48.3739 L1405.71 54.1667 L1390.35 54.1667 L1390.35 78.7962 Q1390.35 84.3459 1391.85 85.9258 Q1393.39 87.5056 1398.05 87.5056 L1405.71 87.5056 L1405.71 93.744 L1398.05 93.744 Q1389.42 93.744 1386.14 90.5438 Q1382.86 87.3031 1382.86 78.7962 L1382.86 54.1667 L1377.39 54.1667 L1377.39 48.3739 L1382.86 48.3739 L1382.86 35.492 L1390.35 35.492 Z" fill="#000000" fill-rule="evenodd" fill-opacity="1"></path><path clip-path="url(#clip800)" d="M1415.51 48.3739 L1422.96 48.3739 L1422.96 93.744 L1415.51 93.744 L1415.51 48.3739 M1415.51 30.7119 L1422.96 30.7119 L1422.96 40.1505 L1415.51 40.1505 L1415.51 30.7119 Z" fill="#000000" fill-rule="evenodd" fill-opacity="1"></path><path clip-path="url(#clip800)" d="M1456.14 53.5995 Q1450.14 53.5995 1446.66 58.2986 Q1443.18 62.9571 1443.18 71.0994 Q1443.18 79.2418 1446.62 83.9408 Q1450.1 88.5994 1456.14 88.5994 Q1462.09 88.5994 1465.58 83.9003 Q1469.06 79.2013 1469.06 71.0994 Q1469.06 63.0381 1465.58 58.3391 Q1462.09 53.5995 1456.14 53.5995 M1456.14 47.2801 Q1465.86 47.2801 1471.41 53.5995 Q1476.96 59.9189 1476.96 71.0994 Q1476.96 82.2394 1471.41 88.5994 Q1465.86 94.9188 1456.14 94.9188 Q1446.38 94.9188 1440.83 88.5994 Q1435.32 82.2394 1435.32 71.0994 Q1435.32 59.9189 1440.83 53.5995 Q1446.38 47.2801 1456.14 47.2801 Z" fill="#000000" fill-rule="evenodd" fill-opacity="1"></path><path clip-path="url(#clip800)" d="M1527.03 66.3599 L1527.03 93.744 L1519.58 93.744 L1519.58 66.6029 Q1519.58 60.162 1517.07 56.9618 Q1514.55 53.7616 1509.53 53.7616 Q1503.49 53.7616 1500.01 57.6099 Q1496.53 61.4583 1496.53 68.1018 L1496.53 93.744 L1489.03 93.744 L1489.03 48.3739 L1496.53 48.3739 L1496.53 55.4224 Q1499.2 51.331 1502.81 49.3056 Q1506.45 47.2801 1511.19 47.2801 Q1519.01 47.2801 1523.02 52.1412 Q1527.03 56.9618 1527.03 66.3599 Z" fill="#000000" fill-rule="evenodd" fill-opacity="1"></path><path clip-path="url(#clip800)" d="M1568.59 33.264 L1606.83 33.264 L1606.83 40.1505 L1576.78 40.1505 L1576.78 58.0555 L1605.58 58.0555 L1605.58 64.9421 L1576.78 64.9421 L1576.78 86.8575 L1607.56 86.8575 L1607.56 93.744 L1568.59 93.744 L1568.59 33.264 Z" fill="#000000" fill-rule="evenodd" fill-opacity="1"></path><path clip-path="url(#clip800)" d="M1646.98 55.3414 Q1645.72 54.6123 1644.22 54.2882 Q1642.76 53.9236 1640.98 53.9236 Q1634.66 53.9236 1631.26 58.0555 Q1627.9 62.1469 1627.9 69.8437 L1627.9 93.744 L1620.4 93.744 L1620.4 48.3739 L1627.9 48.3739 L1627.9 55.4224 Q1630.25 51.2905 1634.01 49.3056 Q1637.78 47.2801 1643.17 47.2801 Q1643.94 47.2801 1644.87 47.4017 Q1645.8 47.4827 1646.94 47.6852 L1646.98 55.3414 Z" fill="#000000" fill-rule="evenodd" fill-opacity="1"></path><path clip-path="url(#clip800)" d="M1679.63 55.3414 Q1678.37 54.6123 1676.87 54.2882 Q1675.41 53.9236 1673.63 53.9236 Q1667.31 53.9236 1663.91 58.0555 Q1660.55 62.1469 1660.55 69.8437 L1660.55 93.744 L1653.05 93.744 L1653.05 48.3739 L1660.55 48.3739 L1660.55 55.4224 Q1662.9 51.2905 1666.66 49.3056 Q1670.43 47.2801 1675.82 47.2801 Q1676.59 47.2801 1677.52 47.4017 Q1678.45 47.4827 1679.59 47.6852 L1679.63 55.3414 Z" fill="#000000" fill-rule="evenodd" fill-opacity="1"></path><path clip-path="url(#clip800)" d="M1703.2 53.5995 Q1697.21 53.5995 1693.72 58.2986 Q1690.24 62.9571 1690.24 71.0994 Q1690.24 79.2418 1693.68 83.9408 Q1697.17 88.5994 1703.2 88.5994 Q1709.16 88.5994 1712.64 83.9003 Q1716.13 79.2013 1716.13 71.0994 Q1716.13 63.0381 1712.64 58.3391 Q1709.16 53.5995 1703.2 53.5995 M1703.2 47.2801 Q1712.93 47.2801 1718.48 53.5995 Q1724.03 59.9189 1724.03 71.0994 Q1724.03 82.2394 1718.48 88.5994 Q1712.93 94.9188 1703.2 94.9188 Q1693.44 94.9188 1687.89 88.5994 Q1682.38 82.2394 1682.38 71.0994 Q1682.38 59.9189 1687.89 53.5995 Q1693.44 47.2801 1703.2 47.2801 Z" fill="#000000" fill-rule="evenodd" fill-opacity="1"></path><path clip-path="url(#clip800)" d="M1762.67 55.3414 Q1761.42 54.6123 1759.92 54.2882 Q1758.46 53.9236 1756.68 53.9236 Q1750.36 53.9236 1746.95 58.0555 Q1743.59 62.1469 1743.59 69.8437 L1743.59 93.744 L1736.1 93.744 L1736.1 48.3739 L1743.59 48.3739 L1743.59 55.4224 Q1745.94 51.2905 1749.71 49.3056 Q1753.48 47.2801 1758.86 47.2801 Q1759.63 47.2801 1760.56 47.4017 Q1761.5 47.4827 1762.63 47.6852 L1762.67 55.3414 Z" fill="#000000" fill-rule="evenodd" fill-opacity="1"></path><path clip-path="url(#clip800)" d="M1011.71 121.432 L1011.71 127.63 L1004.59 127.63 Q1000.57 127.63 998.995 129.25 Q997.456 130.871 997.456 135.083 L997.456 139.094 L1009.73 139.094 L1009.73 144.887 L997.456 144.887 L997.456 184.464 L989.961 184.464 L989.961 144.887 L982.832 144.887 L982.832 139.094 L989.961 139.094 L989.961 135.934 Q989.961 128.359 993.486 124.916 Q997.01 121.432 1004.67 121.432 L1011.71 121.432 Z" fill="#000000" fill-rule="evenodd" fill-opacity="1"></path><path clip-path="url(#clip800)" d="M1017.95 139.094 L1025.41 139.094 L1025.41 184.464 L1017.95 184.464 L1017.95 139.094 M1017.95 121.432 L1025.41 121.432 L1025.41 130.871 L1017.95 130.871 L1017.95 121.432 Z" fill="#000000" fill-rule="evenodd" fill-opacity="1"></path><path clip-path="url(#clip800)" d="M1048.38 126.212 L1048.38 139.094 L1063.73 139.094 L1063.73 144.887 L1048.38 144.887 L1048.38 169.516 Q1048.38 175.066 1049.87 176.646 Q1051.41 178.226 1056.07 178.226 L1063.73 178.226 L1063.73 184.464 L1056.07 184.464 Q1047.44 184.464 1044.16 181.264 Q1040.88 178.023 1040.88 169.516 L1040.88 144.887 L1035.41 144.887 L1035.41 139.094 L1040.88 139.094 L1040.88 126.212 L1048.38 126.212 Z" fill="#000000" fill-rule="evenodd" fill-opacity="1"></path><path clip-path="url(#clip800)" d="M1128.83 140.431 L1128.83 147.479 Q1125.67 145.859 1122.26 145.049 Q1118.86 144.239 1115.22 144.239 Q1109.67 144.239 1106.87 145.94 Q1104.12 147.641 1104.12 151.044 Q1104.12 153.637 1106.1 155.135 Q1108.09 156.594 1114.08 157.931 L1116.63 158.498 Q1124.57 160.199 1127.89 163.318 Q1131.26 166.397 1131.26 171.947 Q1131.26 178.266 1126.23 181.952 Q1121.25 185.639 1112.5 185.639 Q1108.86 185.639 1104.89 184.91 Q1100.96 184.221 1096.58 182.803 L1096.58 175.106 Q1100.71 177.253 1104.72 178.347 Q1108.73 179.4 1112.66 179.4 Q1117.93 179.4 1120.77 177.618 Q1123.6 175.795 1123.6 172.514 Q1123.6 169.476 1121.53 167.855 Q1119.51 166.235 1112.58 164.736 L1109.99 164.128 Q1103.06 162.67 1099.98 159.672 Q1096.91 156.634 1096.91 151.368 Q1096.91 144.968 1101.44 141.484 Q1105.98 138 1114.32 138 Q1118.46 138 1122.1 138.608 Q1125.75 139.215 1128.83 140.431 Z" fill="#000000" fill-rule="evenodd" fill-opacity="1"></path><path clip-path="url(#clip800)" d="M1143.13 121.432 L1150.58 121.432 L1150.58 184.464 L1143.13 184.464 L1143.13 121.432 Z" fill="#000000" fill-rule="evenodd" fill-opacity="1"></path><path clip-path="url(#clip800)" d="M1183.76 144.32 Q1177.76 144.32 1174.28 149.019 Q1170.79 153.677 1170.79 161.819 Q1170.79 169.962 1174.24 174.661 Q1177.72 179.319 1183.76 179.319 Q1189.71 179.319 1193.2 174.62 Q1196.68 169.921 1196.68 161.819 Q1196.68 153.758 1193.2 149.059 Q1189.71 144.32 1183.76 144.32 M1183.76 138 Q1193.48 138 1199.03 144.32 Q1204.58 150.639 1204.58 161.819 Q1204.58 172.959 1199.03 179.319 Q1193.48 185.639 1183.76 185.639 Q1173.99 185.639 1168.44 179.319 Q1162.94 172.959 1162.94 161.819 Q1162.94 150.639 1168.44 144.32 Q1173.99 138 1183.76 138 Z" fill="#000000" fill-rule="evenodd" fill-opacity="1"></path><path clip-path="url(#clip800)" d="M1224.14 177.658 L1224.14 201.721 L1216.65 201.721 L1216.65 139.094 L1224.14 139.094 L1224.14 145.98 Q1226.49 141.93 1230.06 139.985 Q1233.66 138 1238.65 138 Q1246.91 138 1252.05 144.563 Q1257.24 151.125 1257.24 161.819 Q1257.24 172.514 1252.05 179.076 Q1246.91 185.639 1238.65 185.639 Q1233.66 185.639 1230.06 183.694 Q1226.49 181.709 1224.14 177.658 M1249.5 161.819 Q1249.5 153.596 1246.1 148.938 Q1242.74 144.239 1236.82 144.239 Q1230.91 144.239 1227.51 148.938 Q1224.14 153.596 1224.14 161.819 Q1224.14 170.043 1227.51 174.742 Q1230.91 179.4 1236.82 179.4 Q1242.74 179.4 1246.1 174.742 Q1249.5 170.043 1249.5 161.819 Z" fill="#000000" fill-rule="evenodd" fill-opacity="1"></path><path clip-path="url(#clip800)" d="M1308.4 159.916 L1308.4 163.561 L1274.13 163.561 Q1274.62 171.258 1278.75 175.309 Q1282.92 179.319 1290.34 179.319 Q1294.63 179.319 1298.64 178.266 Q1302.69 177.213 1306.66 175.106 L1306.66 182.155 Q1302.65 183.856 1298.44 184.748 Q1294.22 185.639 1289.89 185.639 Q1279.03 185.639 1272.67 179.319 Q1266.35 173 1266.35 162.225 Q1266.35 151.085 1272.35 144.563 Q1278.39 138 1288.59 138 Q1297.75 138 1303.06 143.914 Q1308.4 149.788 1308.4 159.916 M1300.95 157.728 Q1300.87 151.611 1297.51 147.965 Q1294.18 144.32 1288.68 144.32 Q1282.44 144.32 1278.67 147.844 Q1274.94 151.368 1274.38 157.769 L1300.95 157.728 Z" fill="#000000" fill-rule="evenodd" fill-opacity="1"></path><path clip-path="url(#clip800)" d="M1347.98 146.791 L1399.91 146.791 L1399.91 153.596 L1347.98 153.596 L1347.98 146.791 M1347.98 163.318 L1399.91 163.318 L1399.91 170.205 L1347.98 170.205 L1347.98 163.318 Z" fill="#000000" fill-rule="evenodd" fill-opacity="1"></path><path clip-path="url(#clip800)" d="M1466.43 131.114 L1445.77 163.399 L1466.43 163.399 L1466.43 131.114 M1464.28 123.984 L1474.57 123.984 L1474.57 163.399 L1483.2 163.399 L1483.2 170.205 L1474.57 170.205 L1474.57 184.464 L1466.43 184.464 L1466.43 170.205 L1439.13 170.205 L1439.13 162.306 L1464.28 123.984 Z" fill="#000000" fill-rule="evenodd" fill-opacity="1"></path><path clip-path="url(#clip800)" d="M1496.73 174.175 L1505.28 174.175 L1505.28 184.464 L1496.73 184.464 L1496.73 174.175 Z" fill="#000000" fill-rule="evenodd" fill-opacity="1"></path><path clip-path="url(#clip800)" d="M1540.6 155.743 Q1534.77 155.743 1531.41 158.862 Q1528.08 161.981 1528.08 167.45 Q1528.08 172.919 1531.41 176.038 Q1534.77 179.157 1540.6 179.157 Q1546.43 179.157 1549.8 176.038 Q1553.16 172.878 1553.16 167.45 Q1553.16 161.981 1549.8 158.862 Q1546.47 155.743 1540.6 155.743 M1532.42 152.259 Q1527.15 150.963 1524.19 147.358 Q1521.28 143.752 1521.28 138.567 Q1521.28 131.316 1526.42 127.103 Q1531.61 122.89 1540.6 122.89 Q1549.63 122.89 1554.78 127.103 Q1559.92 131.316 1559.92 138.567 Q1559.92 143.752 1556.97 147.358 Q1554.05 150.963 1548.82 152.259 Q1554.74 153.637 1558.02 157.647 Q1561.34 161.657 1561.34 167.45 Q1561.34 176.241 1555.95 180.94 Q1550.61 185.639 1540.6 185.639 Q1530.6 185.639 1525.21 180.94 Q1519.86 176.241 1519.86 167.45 Q1519.86 161.657 1523.18 157.647 Q1526.5 153.637 1532.42 152.259 M1529.42 139.337 Q1529.42 144.036 1532.34 146.669 Q1535.29 149.302 1540.6 149.302 Q1545.87 149.302 1548.82 146.669 Q1551.82 144.036 1551.82 139.337 Q1551.82 134.638 1548.82 132.005 Q1545.87 129.372 1540.6 129.372 Q1535.29 129.372 1532.34 132.005 Q1529.42 134.638 1529.42 139.337 Z" fill="#000000" fill-rule="evenodd" fill-opacity="1"></path><path clip-path="url(#clip800)" d="M1575.97 123.984 L1608.09 123.984 L1608.09 130.871 L1583.46 130.871 L1583.46 145.697 Q1585.24 145.089 1587.02 144.806 Q1588.81 144.482 1590.59 144.482 Q1600.72 144.482 1606.63 150.031 Q1612.54 155.581 1612.54 165.06 Q1612.54 174.823 1606.47 180.251 Q1600.39 185.639 1589.33 185.639 Q1585.53 185.639 1581.56 184.991 Q1577.63 184.342 1573.41 183.046 L1573.41 174.823 Q1577.06 176.808 1580.95 177.78 Q1584.84 178.752 1589.17 178.752 Q1596.18 178.752 1600.27 175.066 Q1604.36 171.38 1604.36 165.06 Q1604.36 158.741 1600.27 155.054 Q1596.18 151.368 1589.17 151.368 Q1585.89 151.368 1582.61 152.097 Q1579.37 152.826 1575.97 154.366 L1575.97 123.984 Z" fill="#000000" fill-rule="evenodd" fill-opacity="1"></path><circle clip-path="url(#clip802)" cx="302.342" cy="1388.11" r="14.4" fill="#009af9" fill-rule="evenodd" fill-opacity="1" stroke="#000000" stroke-opacity="1" stroke-width="3.2"></circle>
<circle clip-path="url(#clip802)" cx="505.512" cy="1211.41" r="14.4" fill="#009af9" fill-rule="evenodd" fill-opacity="1" stroke="#000000" stroke-opacity="1" stroke-width="3.2"></circle>
<circle clip-path="url(#clip802)" cx="731.698" cy="1122.06" r="14.4" fill="#009af9" fill-rule="evenodd" fill-opacity="1" stroke="#000000" stroke-opacity="1" stroke-width="3.2"></circle>
<circle clip-path="url(#clip802)" cx="962.015" cy="967.446" r="14.4" fill="#009af9" fill-rule="evenodd" fill-opacity="1" stroke="#000000" stroke-opacity="1" stroke-width="3.2"></circle>
<circle clip-path="url(#clip802)" cx="1184.71" cy="822.178" r="14.4" fill="#009af9" fill-rule="evenodd" fill-opacity="1" stroke="#000000" stroke-opacity="1" stroke-width="3.2"></circle>
<circle clip-path="url(#clip802)" cx="1407.76" cy="708.043" r="14.4" fill="#009af9" fill-rule="evenodd" fill-opacity="1" stroke="#000000" stroke-opacity="1" stroke-width="3.2"></circle>
<circle clip-path="url(#clip802)" cx="1628.58" cy="599.245" r="14.4" fill="#009af9" fill-rule="evenodd" fill-opacity="1" stroke="#000000" stroke-opacity="1" stroke-width="3.2"></circle>
<circle clip-path="url(#clip802)" cx="1850.2" cy="461.187" r="14.4" fill="#009af9" fill-rule="evenodd" fill-opacity="1" stroke="#000000" stroke-opacity="1" stroke-width="3.2"></circle>
<circle clip-path="url(#clip802)" cx="2071.5" cy="330.825" r="14.4" fill="#009af9" fill-rule="evenodd" fill-opacity="1" stroke="#000000" stroke-opacity="1" stroke-width="3.2"></circle>
<circle clip-path="url(#clip802)" cx="2293.04" cy="258.41" r="14.4" fill="#009af9" fill-rule="evenodd" fill-opacity="1" stroke="#000000" stroke-opacity="1" stroke-width="3.2"></circle>
<polyline clip-path="url(#clip802)" style="stroke:#e26f46; stroke-linecap:round; stroke-linejoin:round; stroke-width:4; stroke-opacity:1; fill:none" points="
  302.342,1350.27 505.512,1234.81 731.698,1106.28 962.015,975.396 1184.71,848.848 1407.76,722.093 1628.58,596.611 1850.2,470.672 2071.5,344.917 2293.04,219.025 
  
  "></polyline>
</svg>