<svg xmlns="http://www.w3.org/2000/svg" xmlns:xlink="http://www.w3.org/1999/xlink" width="600" height="400" viewBox="0 0 2400 1600">
<defs>
  <clipPath id="clip880">
    <rect x="0" y="0" width="2400" height="1600"></rect>
  </clipPath>
</defs>
<path clip-path="url(#clip880)" d="
M0 1600 L2400 1600 L2400 0 L0 0  Z
  " fill="#ffffff" fill-rule="evenodd" fill-opacity="1"></path>
<defs>
  <clipPath id="clip881">
    <rect x="480" y="0" width="1681" height="1600"></rect>
  </clipPath>
</defs>
<path clip-path="url(#clip880)" d="
M212.459 1423.18 L2352.76 1423.18 L2352.76 183.952 L212.459 183.952  Z
  " fill="#ffffff" fill-rule="evenodd" fill-opacity="1"></path>
<defs>
  <clipPath id="clip882">
    <rect x="212" y="183" width="2141" height="1240"></rect>
  </clipPath>
</defs>
<polyline clip-path="url(#clip882)" style="stroke:#000000; stroke-linecap:round; stroke-linejoin:round; stroke-width:2; stroke-opacity:0.1; fill:none" points="
  273.033,1423.18 273.033,183.952 
  "></polyline>
<polyline clip-path="url(#clip882)" style="stroke:#000000; stroke-linecap:round; stroke-linejoin:round; stroke-width:2; stroke-opacity:0.1; fill:none" points="
  777.82,1423.18 777.82,183.952 
  "></polyline>
<polyline clip-path="url(#clip882)" style="stroke:#000000; stroke-linecap:round; stroke-linejoin:round; stroke-width:2; stroke-opacity:0.1; fill:none" points="
  1282.61,1423.18 1282.61,183.952 
  "></polyline>
<polyline clip-path="url(#clip882)" style="stroke:#000000; stroke-linecap:round; stroke-linejoin:round; stroke-width:2; stroke-opacity:0.1; fill:none" points="
  1787.39,1423.18 1787.39,183.952 
  "></polyline>
<polyline clip-path="url(#clip882)" style="stroke:#000000; stroke-linecap:round; stroke-linejoin:round; stroke-width:2; stroke-opacity:0.1; fill:none" points="
  2292.18,1423.18 2292.18,183.952 
  "></polyline>
<polyline clip-path="url(#clip880)" style="stroke:#000000; stroke-linecap:round; stroke-linejoin:round; stroke-width:4; stroke-opacity:1; fill:none" points="
  212.459,1423.18 2352.76,1423.18 
  "></polyline>
<polyline clip-path="url(#clip880)" style="stroke:#000000; stroke-linecap:round; stroke-linejoin:round; stroke-width:4; stroke-opacity:1; fill:none" points="
  273.033,1423.18 273.033,1404.28 
  "></polyline>
<polyline clip-path="url(#clip880)" style="stroke:#000000; stroke-linecap:round; stroke-linejoin:round; stroke-width:4; stroke-opacity:1; fill:none" points="
  777.82,1423.18 777.82,1404.28 
  "></polyline>
<polyline clip-path="url(#clip880)" style="stroke:#000000; stroke-linecap:round; stroke-linejoin:round; stroke-width:4; stroke-opacity:1; fill:none" points="
  1282.61,1423.18 1282.61,1404.28 
  "></polyline>
<polyline clip-path="url(#clip880)" style="stroke:#000000; stroke-linecap:round; stroke-linejoin:round; stroke-width:4; stroke-opacity:1; fill:none" points="
  1787.39,1423.18 1787.39,1404.28 
  "></polyline>
<polyline clip-path="url(#clip880)" style="stroke:#000000; stroke-linecap:round; stroke-linejoin:round; stroke-width:4; stroke-opacity:1; fill:none" points="
  2292.18,1423.18 2292.18,1404.28 
  "></polyline>
<path clip-path="url(#clip880)" d="M240.186 1481.64 L247.825 1481.64 L247.825 1455.28 L239.515 1456.95 L239.515 1452.69 L247.779 1451.02 L252.455 1451.02 L252.455 1481.64 L260.094 1481.64 L260.094 1485.58 L240.186 1485.58 L240.186 1481.64 Z" fill="#000000" fill-rule="evenodd" fill-opacity="1"></path><path clip-path="url(#clip880)" d="M269.538 1479.7 L274.422 1479.7 L274.422 1485.58 L269.538 1485.58 L269.538 1479.7 Z" fill="#000000" fill-rule="evenodd" fill-opacity="1"></path><path clip-path="url(#clip880)" d="M294.607 1454.1 Q290.996 1454.1 289.168 1457.66 Q287.362 1461.2 287.362 1468.33 Q287.362 1475.44 289.168 1479.01 Q290.996 1482.55 294.607 1482.55 Q298.242 1482.55 300.047 1479.01 Q301.876 1475.44 301.876 1468.33 Q301.876 1461.2 300.047 1457.66 Q298.242 1454.1 294.607 1454.1 M294.607 1450.39 Q300.417 1450.39 303.473 1455 Q306.552 1459.58 306.552 1468.33 Q306.552 1477.06 303.473 1481.67 Q300.417 1486.25 294.607 1486.25 Q288.797 1486.25 285.718 1481.67 Q282.663 1477.06 282.663 1468.33 Q282.663 1459.58 285.718 1455 Q288.797 1450.39 294.607 1450.39 Z" fill="#000000" fill-rule="evenodd" fill-opacity="1"></path><path clip-path="url(#clip880)" d="M745.471 1481.64 L753.11 1481.64 L753.11 1455.28 L744.8 1456.95 L744.8 1452.69 L753.064 1451.02 L757.739 1451.02 L757.739 1481.64 L765.378 1481.64 L765.378 1485.58 L745.471 1485.58 L745.471 1481.64 Z" fill="#000000" fill-rule="evenodd" fill-opacity="1"></path><path clip-path="url(#clip880)" d="M774.823 1479.7 L779.707 1479.7 L779.707 1485.58 L774.823 1485.58 L774.823 1479.7 Z" fill="#000000" fill-rule="evenodd" fill-opacity="1"></path><path clip-path="url(#clip880)" d="M789.938 1451.02 L808.295 1451.02 L808.295 1454.96 L794.221 1454.96 L794.221 1463.43 Q795.239 1463.08 796.258 1462.92 Q797.276 1462.73 798.295 1462.73 Q804.082 1462.73 807.461 1465.9 Q810.841 1469.08 810.841 1474.49 Q810.841 1480.07 807.369 1483.17 Q803.897 1486.25 797.577 1486.25 Q795.401 1486.25 793.133 1485.88 Q790.887 1485.51 788.48 1484.77 L788.48 1480.07 Q790.563 1481.2 792.786 1481.76 Q795.008 1482.32 797.485 1482.32 Q801.489 1482.32 803.827 1480.21 Q806.165 1478.1 806.165 1474.49 Q806.165 1470.88 803.827 1468.77 Q801.489 1466.67 797.485 1466.67 Q795.61 1466.67 793.735 1467.08 Q791.883 1467.5 789.938 1468.38 L789.938 1451.02 Z" fill="#000000" fill-rule="evenodd" fill-opacity="1"></path><path clip-path="url(#clip880)" d="M1253.85 1481.64 L1270.17 1481.64 L1270.17 1485.58 L1248.22 1485.58 L1248.22 1481.64 Q1250.88 1478.89 1255.47 1474.26 Q1260.07 1469.61 1261.25 1468.27 Q1263.5 1465.74 1264.38 1464.01 Q1265.28 1462.25 1265.28 1460.56 Q1265.28 1457.8 1263.34 1456.07 Q1261.42 1454.33 1258.31 1454.33 Q1256.11 1454.33 1253.66 1455.09 Q1251.23 1455.86 1248.45 1457.41 L1248.45 1452.69 Q1251.28 1451.55 1253.73 1450.97 Q1256.18 1450.39 1258.22 1450.39 Q1263.59 1450.39 1266.79 1453.08 Q1269.98 1455.77 1269.98 1460.26 Q1269.98 1462.39 1269.17 1464.31 Q1268.38 1466.2 1266.28 1468.8 Q1265.7 1469.47 1262.6 1472.69 Q1259.49 1475.88 1253.85 1481.64 Z" fill="#000000" fill-rule="evenodd" fill-opacity="1"></path><path clip-path="url(#clip880)" d="M1279.98 1479.7 L1284.86 1479.7 L1284.86 1485.58 L1279.98 1485.58 L1279.98 1479.7 Z" fill="#000000" fill-rule="evenodd" fill-opacity="1"></path><path clip-path="url(#clip880)" d="M1305.05 1454.1 Q1301.44 1454.1 1299.61 1457.66 Q1297.8 1461.2 1297.8 1468.33 Q1297.8 1475.44 1299.61 1479.01 Q1301.44 1482.55 1305.05 1482.55 Q1308.68 1482.55 1310.49 1479.01 Q1312.32 1475.44 1312.32 1468.33 Q1312.32 1461.2 1310.49 1457.66 Q1308.68 1454.1 1305.05 1454.1 M1305.05 1450.39 Q1310.86 1450.39 1313.92 1455 Q1316.99 1459.58 1316.99 1468.33 Q1316.99 1477.06 1313.92 1481.67 Q1310.86 1486.25 1305.05 1486.25 Q1299.24 1486.25 1296.16 1481.67 Q1293.11 1477.06 1293.11 1468.33 Q1293.11 1459.58 1296.16 1455 Q1299.24 1450.39 1305.05 1450.39 Z" fill="#000000" fill-rule="evenodd" fill-opacity="1"></path><path clip-path="url(#clip880)" d="M1759.13 1481.64 L1775.45 1481.64 L1775.45 1485.58 L1753.51 1485.58 L1753.51 1481.64 Q1756.17 1478.89 1760.75 1474.26 Q1765.36 1469.61 1766.54 1468.27 Q1768.78 1465.74 1769.66 1464.01 Q1770.57 1462.25 1770.57 1460.56 Q1770.57 1457.8 1768.62 1456.07 Q1766.7 1454.33 1763.6 1454.33 Q1761.4 1454.33 1758.95 1455.09 Q1756.51 1455.86 1753.74 1457.41 L1753.74 1452.69 Q1756.56 1451.55 1759.01 1450.97 Q1761.47 1450.39 1763.51 1450.39 Q1768.88 1450.39 1772.07 1453.08 Q1775.26 1455.77 1775.26 1460.26 Q1775.26 1462.39 1774.45 1464.31 Q1773.67 1466.2 1771.56 1468.8 Q1770.98 1469.47 1767.88 1472.69 Q1764.78 1475.88 1759.13 1481.64 Z" fill="#000000" fill-rule="evenodd" fill-opacity="1"></path><path clip-path="url(#clip880)" d="M1785.26 1479.7 L1790.15 1479.7 L1790.15 1485.58 L1785.26 1485.58 L1785.26 1479.7 Z" fill="#000000" fill-rule="evenodd" fill-opacity="1"></path><path clip-path="url(#clip880)" d="M1800.38 1451.02 L1818.74 1451.02 L1818.74 1454.96 L1804.66 1454.96 L1804.66 1463.43 Q1805.68 1463.08 1806.7 1462.92 Q1807.72 1462.73 1808.74 1462.73 Q1814.52 1462.73 1817.9 1465.9 Q1821.28 1469.08 1821.28 1474.49 Q1821.28 1480.07 1817.81 1483.17 Q1814.34 1486.25 1808.02 1486.25 Q1805.84 1486.25 1803.57 1485.88 Q1801.33 1485.51 1798.92 1484.77 L1798.92 1480.07 Q1801.01 1481.2 1803.23 1481.76 Q1805.45 1482.32 1807.93 1482.32 Q1811.93 1482.32 1814.27 1480.21 Q1816.61 1478.1 1816.61 1474.49 Q1816.61 1470.88 1814.27 1468.77 Q1811.93 1466.67 1807.93 1466.67 Q1806.05 1466.67 1804.18 1467.08 Q1802.32 1467.5 1800.38 1468.38 L1800.38 1451.02 Z" fill="#000000" fill-rule="evenodd" fill-opacity="1"></path><path clip-path="url(#clip880)" d="M2273.49 1466.95 Q2276.85 1467.66 2278.72 1469.93 Q2280.62 1472.2 2280.62 1475.53 Q2280.62 1480.65 2277.1 1483.45 Q2273.58 1486.25 2267.1 1486.25 Q2264.92 1486.25 2262.61 1485.81 Q2260.32 1485.39 2257.86 1484.54 L2257.86 1480.02 Q2259.81 1481.16 2262.12 1481.74 Q2264.44 1482.32 2266.96 1482.32 Q2271.36 1482.32 2273.65 1480.58 Q2275.97 1478.84 2275.97 1475.53 Q2275.97 1472.48 2273.81 1470.77 Q2271.68 1469.03 2267.86 1469.03 L2263.84 1469.03 L2263.84 1465.19 L2268.05 1465.19 Q2271.5 1465.19 2273.33 1463.82 Q2275.16 1462.43 2275.16 1459.84 Q2275.16 1457.18 2273.26 1455.77 Q2271.38 1454.33 2267.86 1454.33 Q2265.94 1454.33 2263.74 1454.75 Q2261.55 1455.16 2258.91 1456.04 L2258.91 1451.88 Q2261.57 1451.14 2263.88 1450.77 Q2266.22 1450.39 2268.28 1450.39 Q2273.61 1450.39 2276.71 1452.83 Q2279.81 1455.23 2279.81 1459.35 Q2279.81 1462.22 2278.17 1464.21 Q2276.52 1466.18 2273.49 1466.95 Z" fill="#000000" fill-rule="evenodd" fill-opacity="1"></path><path clip-path="url(#clip880)" d="M2289.48 1479.7 L2294.37 1479.7 L2294.37 1485.58 L2289.48 1485.58 L2289.48 1479.7 Z" fill="#000000" fill-rule="evenodd" fill-opacity="1"></path><path clip-path="url(#clip880)" d="M2314.55 1454.1 Q2310.94 1454.1 2309.11 1457.66 Q2307.31 1461.2 2307.31 1468.33 Q2307.31 1475.44 2309.11 1479.01 Q2310.94 1482.55 2314.55 1482.55 Q2318.19 1482.55 2319.99 1479.01 Q2321.82 1475.44 2321.82 1468.33 Q2321.82 1461.2 2319.99 1457.66 Q2318.19 1454.1 2314.55 1454.1 M2314.55 1450.39 Q2320.36 1450.39 2323.42 1455 Q2326.5 1459.58 2326.5 1468.33 Q2326.5 1477.06 2323.42 1481.67 Q2320.36 1486.25 2314.55 1486.25 Q2308.74 1486.25 2305.67 1481.67 Q2302.61 1477.06 2302.61 1468.33 Q2302.61 1459.58 2305.67 1455 Q2308.74 1450.39 2314.55 1450.39 Z" fill="#000000" fill-rule="evenodd" fill-opacity="1"></path><path clip-path="url(#clip880)" d="M1131.21 1518.52 L1137.07 1518.52 L1137.07 1568.04 L1131.21 1568.04 L1131.21 1518.52 Z" fill="#000000" fill-rule="evenodd" fill-opacity="1"></path><path clip-path="url(#clip880)" d="M1163.14 1536.5 Q1158.43 1536.5 1155.69 1540.19 Q1152.95 1543.85 1152.95 1550.25 Q1152.95 1556.65 1155.66 1560.34 Q1158.4 1564 1163.14 1564 Q1167.82 1564 1170.56 1560.31 Q1173.29 1556.62 1173.29 1550.25 Q1173.29 1543.92 1170.56 1540.23 Q1167.82 1536.5 1163.14 1536.5 M1163.14 1531.54 Q1170.78 1531.54 1175.14 1536.5 Q1179.5 1541.47 1179.5 1550.25 Q1179.5 1559 1175.14 1564 Q1170.78 1568.97 1163.14 1568.97 Q1155.47 1568.97 1151.11 1564 Q1146.78 1559 1146.78 1550.25 Q1146.78 1541.47 1151.11 1536.5 Q1155.47 1531.54 1163.14 1531.54 Z" fill="#000000" fill-rule="evenodd" fill-opacity="1"></path><path clip-path="url(#clip880)" d="M1212.66 1549.81 Q1212.66 1543.44 1210.02 1539.94 Q1207.41 1536.44 1202.67 1536.44 Q1197.96 1536.44 1195.32 1539.94 Q1192.71 1543.44 1192.71 1549.81 Q1192.71 1556.14 1195.32 1559.64 Q1197.96 1563.14 1202.67 1563.14 Q1207.41 1563.14 1210.02 1559.64 Q1212.66 1556.14 1212.66 1549.81 M1218.52 1563.62 Q1218.52 1572.72 1214.48 1577.15 Q1210.44 1581.6 1202.1 1581.6 Q1199.01 1581.6 1196.27 1581.13 Q1193.54 1580.68 1190.96 1579.72 L1190.96 1574.03 Q1193.54 1575.43 1196.05 1576.1 Q1198.56 1576.76 1201.17 1576.76 Q1206.94 1576.76 1209.8 1573.74 Q1212.66 1570.75 1212.66 1564.67 L1212.66 1561.77 Q1210.85 1564.92 1208.02 1566.48 Q1205.18 1568.04 1201.24 1568.04 Q1194.68 1568.04 1190.67 1563.05 Q1186.66 1558.05 1186.66 1549.81 Q1186.66 1541.53 1190.67 1536.53 Q1194.68 1531.54 1201.24 1531.54 Q1205.18 1531.54 1208.02 1533.1 Q1210.85 1534.66 1212.66 1537.81 L1212.66 1532.4 L1218.52 1532.4 L1218.52 1563.62 Z" fill="#000000" fill-rule="evenodd" fill-opacity="1"></path><path clip-path="url(#clip880)" d="M1257.67 1578.87 L1257.67 1583.42 L1223.8 1583.42 L1223.8 1578.87 L1257.67 1578.87 Z" fill="#000000" fill-rule="evenodd" fill-opacity="1"></path><path clip-path="url(#clip880)" d="M1265.12 1562.63 L1275.62 1562.63 L1275.62 1526.38 L1264.19 1528.67 L1264.19 1522.82 L1275.56 1520.52 L1281.99 1520.52 L1281.99 1562.63 L1292.49 1562.63 L1292.49 1568.04 L1265.12 1568.04 L1265.12 1562.63 Z" fill="#000000" fill-rule="evenodd" fill-opacity="1"></path><path clip-path="url(#clip880)" d="M1319.23 1524.76 Q1314.26 1524.76 1311.75 1529.66 Q1309.26 1534.53 1309.26 1544.33 Q1309.26 1554.1 1311.75 1559 Q1314.26 1563.87 1319.23 1563.87 Q1324.22 1563.87 1326.71 1559 Q1329.22 1554.1 1329.22 1544.33 Q1329.22 1534.53 1326.71 1529.66 Q1324.22 1524.76 1319.23 1524.76 M1319.23 1519.66 Q1327.22 1519.66 1331.42 1526 Q1335.65 1532.3 1335.65 1544.33 Q1335.65 1556.33 1331.42 1562.66 Q1327.22 1568.97 1319.23 1568.97 Q1311.24 1568.97 1307 1562.66 Q1302.8 1556.33 1302.8 1544.33 Q1302.8 1532.3 1307 1526 Q1311.24 1519.66 1319.23 1519.66 Z" fill="#000000" fill-rule="evenodd" fill-opacity="1"></path><path clip-path="url(#clip880)" d="M1360.19 1518.58 Q1355.92 1525.9 1353.86 1533.06 Q1351.79 1540.23 1351.79 1547.58 Q1351.79 1554.93 1353.86 1562.16 Q1355.96 1569.35 1360.19 1576.64 L1355.1 1576.64 Q1350.32 1569.16 1347.94 1561.93 Q1345.58 1554.71 1345.58 1547.58 Q1345.58 1540.48 1347.94 1533.29 Q1350.29 1526.09 1355.1 1518.58 L1360.19 1518.58 Z" fill="#000000" fill-rule="evenodd" fill-opacity="1"></path><path clip-path="url(#clip880)" d="M1371.81 1520.52 L1380.46 1520.52 L1401.53 1560.28 L1401.53 1520.52 L1407.77 1520.52 L1407.77 1568.04 L1399.12 1568.04 L1378.05 1528.29 L1378.05 1568.04 L1371.81 1568.04 L1371.81 1520.52 Z" fill="#000000" fill-rule="evenodd" fill-opacity="1"></path><path clip-path="url(#clip880)" d="M1419.39 1518.58 L1424.48 1518.58 Q1429.26 1526.09 1431.61 1533.29 Q1434 1540.48 1434 1547.58 Q1434 1554.71 1431.61 1561.93 Q1429.26 1569.16 1424.48 1576.64 L1419.39 1576.64 Q1423.62 1569.35 1425.69 1562.16 Q1427.79 1554.93 1427.79 1547.58 Q1427.79 1540.23 1425.69 1533.06 Q1423.62 1525.9 1419.39 1518.58 Z" fill="#000000" fill-rule="evenodd" fill-opacity="1"></path><polyline clip-path="url(#clip882)" style="stroke:#000000; stroke-linecap:round; stroke-linejoin:round; stroke-width:2; stroke-opacity:0.1; fill:none" points="
  212.459,1384.42 2352.76,1384.42 
  "></polyline>
<polyline clip-path="url(#clip882)" style="stroke:#000000; stroke-linecap:round; stroke-linejoin:round; stroke-width:2; stroke-opacity:0.1; fill:none" points="
  212.459,1187.23 2352.76,1187.23 
  "></polyline>
<polyline clip-path="url(#clip882)" style="stroke:#000000; stroke-linecap:round; stroke-linejoin:round; stroke-width:2; stroke-opacity:0.1; fill:none" points="
  212.459,990.04 2352.76,990.04 
  "></polyline>
<polyline clip-path="url(#clip882)" style="stroke:#000000; stroke-linecap:round; stroke-linejoin:round; stroke-width:2; stroke-opacity:0.1; fill:none" points="
  212.459,792.848 2352.76,792.848 
  "></polyline>
<polyline clip-path="url(#clip882)" style="stroke:#000000; stroke-linecap:round; stroke-linejoin:round; stroke-width:2; stroke-opacity:0.1; fill:none" points="
  212.459,595.656 2352.76,595.656 
  "></polyline>
<polyline clip-path="url(#clip882)" style="stroke:#000000; stroke-linecap:round; stroke-linejoin:round; stroke-width:2; stroke-opacity:0.1; fill:none" points="
  212.459,398.464 2352.76,398.464 
  "></polyline>
<polyline clip-path="url(#clip882)" style="stroke:#000000; stroke-linecap:round; stroke-linejoin:round; stroke-width:2; stroke-opacity:0.1; fill:none" points="
  212.459,201.272 2352.76,201.272 
  "></polyline>
<polyline clip-path="url(#clip880)" style="stroke:#000000; stroke-linecap:round; stroke-linejoin:round; stroke-width:4; stroke-opacity:1; fill:none" points="
  212.459,1423.18 212.459,183.952 
  "></polyline>
<polyline clip-path="url(#clip880)" style="stroke:#000000; stroke-linecap:round; stroke-linejoin:round; stroke-width:4; stroke-opacity:1; fill:none" points="
  212.459,1384.42 231.357,1384.42 
  "></polyline>
<polyline clip-path="url(#clip880)" style="stroke:#000000; stroke-linecap:round; stroke-linejoin:round; stroke-width:4; stroke-opacity:1; fill:none" points="
  212.459,1187.23 231.357,1187.23 
  "></polyline>
<polyline clip-path="url(#clip880)" style="stroke:#000000; stroke-linecap:round; stroke-linejoin:round; stroke-width:4; stroke-opacity:1; fill:none" points="
  212.459,990.04 231.357,990.04 
  "></polyline>
<polyline clip-path="url(#clip880)" style="stroke:#000000; stroke-linecap:round; stroke-linejoin:round; stroke-width:4; stroke-opacity:1; fill:none" points="
  212.459,792.848 231.357,792.848 
  "></polyline>
<polyline clip-path="url(#clip880)" style="stroke:#000000; stroke-linecap:round; stroke-linejoin:round; stroke-width:4; stroke-opacity:1; fill:none" points="
  212.459,595.656 231.357,595.656 
  "></polyline>
<polyline clip-path="url(#clip880)" style="stroke:#000000; stroke-linecap:round; stroke-linejoin:round; stroke-width:4; stroke-opacity:1; fill:none" points="
  212.459,398.464 231.357,398.464 
  "></polyline>
<polyline clip-path="url(#clip880)" style="stroke:#000000; stroke-linecap:round; stroke-linejoin:round; stroke-width:4; stroke-opacity:1; fill:none" points="
  212.459,201.272 231.357,201.272 
  "></polyline>
<path clip-path="url(#clip880)" d="M114.26 1384.88 L143.936 1384.88 L143.936 1388.81 L114.26 1388.81 L114.26 1384.88 Z" fill="#000000" fill-rule="evenodd" fill-opacity="1"></path><path clip-path="url(#clip880)" d="M166.876 1371.22 L155.07 1389.67 L166.876 1389.67 L166.876 1371.22 M165.649 1367.14 L171.528 1367.14 L171.528 1389.67 L176.459 1389.67 L176.459 1393.56 L171.528 1393.56 L171.528 1401.7 L166.876 1401.7 L166.876 1393.56 L151.274 1393.56 L151.274 1389.04 L165.649 1367.14 Z" fill="#000000" fill-rule="evenodd" fill-opacity="1"></path><path clip-path="url(#clip880)" d="M115.394 1187.68 L145.07 1187.68 L145.07 1191.62 L115.394 1191.62 L115.394 1187.68 Z" fill="#000000" fill-rule="evenodd" fill-opacity="1"></path><path clip-path="url(#clip880)" d="M169.329 1185.88 Q172.686 1186.6 174.561 1188.86 Q176.459 1191.13 176.459 1194.47 Q176.459 1199.58 172.94 1202.38 Q169.422 1205.18 162.94 1205.18 Q160.765 1205.18 158.45 1204.74 Q156.158 1204.33 153.704 1203.47 L153.704 1198.96 Q155.649 1200.09 157.964 1200.67 Q160.278 1201.25 162.802 1201.25 Q167.2 1201.25 169.491 1199.51 Q171.806 1197.78 171.806 1194.47 Q171.806 1191.41 169.653 1189.7 Q167.524 1187.96 163.704 1187.96 L159.677 1187.96 L159.677 1184.12 L163.89 1184.12 Q167.339 1184.12 169.167 1182.75 Q170.996 1181.36 170.996 1178.77 Q170.996 1176.11 169.098 1174.7 Q167.223 1173.26 163.704 1173.26 Q161.783 1173.26 159.584 1173.68 Q157.385 1174.1 154.746 1174.98 L154.746 1170.81 Q157.408 1170.07 159.723 1169.7 Q162.061 1169.33 164.121 1169.33 Q169.445 1169.33 172.547 1171.76 Q175.649 1174.17 175.649 1178.29 Q175.649 1181.16 174.005 1183.15 Q172.362 1185.11 169.329 1185.88 Z" fill="#000000" fill-rule="evenodd" fill-opacity="1"></path><path clip-path="url(#clip880)" d="M116.343 990.492 L146.019 990.492 L146.019 994.427 L116.343 994.427 L116.343 990.492 Z" fill="#000000" fill-rule="evenodd" fill-opacity="1"></path><path clip-path="url(#clip880)" d="M160.14 1003.39 L176.459 1003.39 L176.459 1007.32 L154.515 1007.32 L154.515 1003.39 Q157.177 1000.63 161.76 996.001 Q166.366 991.348 167.547 990.006 Q169.792 987.482 170.672 985.746 Q171.575 983.987 171.575 982.297 Q171.575 979.543 169.63 977.807 Q167.709 976.071 164.607 976.071 Q162.408 976.071 159.954 976.834 Q157.524 977.598 154.746 979.149 L154.746 974.427 Q157.57 973.293 160.024 972.714 Q162.477 972.135 164.515 972.135 Q169.885 972.135 173.079 974.821 Q176.274 977.506 176.274 981.996 Q176.274 984.126 175.464 986.047 Q174.677 987.945 172.57 990.538 Q171.991 991.209 168.889 994.427 Q165.788 997.621 160.14 1003.39 Z" fill="#000000" fill-rule="evenodd" fill-opacity="1"></path><path clip-path="url(#clip880)" d="M115.973 793.3 L145.649 793.3 L145.649 797.235 L115.973 797.235 L115.973 793.3 Z" fill="#000000" fill-rule="evenodd" fill-opacity="1"></path><path clip-path="url(#clip880)" d="M156.552 806.193 L164.19 806.193 L164.19 779.827 L155.88 781.494 L155.88 777.235 L164.144 775.568 L168.82 775.568 L168.82 806.193 L176.459 806.193 L176.459 810.128 L156.552 810.128 L156.552 806.193 Z" fill="#000000" fill-rule="evenodd" fill-opacity="1"></path><path clip-path="url(#clip880)" d="M164.515 581.455 Q160.903 581.455 159.075 585.019 Q157.269 588.561 157.269 595.691 Q157.269 602.797 159.075 606.362 Q160.903 609.904 164.515 609.904 Q168.149 609.904 169.954 606.362 Q171.783 602.797 171.783 595.691 Q171.783 588.561 169.954 585.019 Q168.149 581.455 164.515 581.455 M164.515 577.751 Q170.325 577.751 173.38 582.357 Q176.459 586.941 176.459 595.691 Q176.459 604.417 173.38 609.024 Q170.325 613.607 164.515 613.607 Q158.704 613.607 155.626 609.024 Q152.57 604.417 152.57 595.691 Q152.57 586.941 155.626 582.357 Q158.704 577.751 164.515 577.751 Z" fill="#000000" fill-rule="evenodd" fill-opacity="1"></path><path clip-path="url(#clip880)" d="M156.552 411.809 L164.19 411.809 L164.19 385.443 L155.88 387.11 L155.88 382.85 L164.144 381.184 L168.82 381.184 L168.82 411.809 L176.459 411.809 L176.459 415.744 L156.552 415.744 L156.552 411.809 Z" fill="#000000" fill-rule="evenodd" fill-opacity="1"></path><path clip-path="url(#clip880)" d="M160.14 214.616 L176.459 214.616 L176.459 218.552 L154.515 218.552 L154.515 214.616 Q157.177 211.862 161.76 207.232 Q166.366 202.579 167.547 201.237 Q169.792 198.714 170.672 196.978 Q171.575 195.218 171.575 193.529 Q171.575 190.774 169.63 189.038 Q167.709 187.302 164.607 187.302 Q162.408 187.302 159.954 188.066 Q157.524 188.829 154.746 190.38 L154.746 185.658 Q157.57 184.524 160.024 183.945 Q162.477 183.367 164.515 183.367 Q169.885 183.367 173.079 186.052 Q176.274 188.737 176.274 193.228 Q176.274 195.357 175.464 197.279 Q174.677 199.177 172.57 201.769 Q171.991 202.441 168.889 205.658 Q165.788 208.853 160.14 214.616 Z" fill="#000000" fill-rule="evenodd" fill-opacity="1"></path><path clip-path="url(#clip880)" d="M14.479 1194.83 L14.479 1188.98 L64.0042 1188.98 L64.0042 1194.83 L14.479 1194.83 Z" fill="#000000" fill-rule="evenodd" fill-opacity="1"></path><path clip-path="url(#clip880)" d="M32.4621 1162.91 Q32.4621 1167.62 36.1542 1170.36 Q39.8145 1173.1 46.212 1173.1 Q52.6095 1173.1 56.3017 1170.39 Q59.9619 1167.65 59.9619 1162.91 Q59.9619 1158.23 56.2698 1155.49 Q52.5777 1152.76 46.212 1152.76 Q39.8781 1152.76 36.186 1155.49 Q32.4621 1158.23 32.4621 1162.91 M27.4968 1162.91 Q27.4968 1155.27 32.4621 1150.91 Q37.4273 1146.55 46.212 1146.55 Q54.9649 1146.55 59.9619 1150.91 Q64.9272 1155.27 64.9272 1162.91 Q64.9272 1170.58 59.9619 1174.94 Q54.9649 1179.27 46.212 1179.27 Q37.4273 1179.27 32.4621 1174.94 Q27.4968 1170.58 27.4968 1162.91 Z" fill="#000000" fill-rule="evenodd" fill-opacity="1"></path><path clip-path="url(#clip880)" d="M45.7664 1113.38 Q39.4007 1113.38 35.8996 1116.03 Q32.3984 1118.64 32.3984 1123.38 Q32.3984 1128.09 35.8996 1130.73 Q39.4007 1133.34 45.7664 1133.34 Q52.1003 1133.34 55.6014 1130.73 Q59.1026 1128.09 59.1026 1123.38 Q59.1026 1118.64 55.6014 1116.03 Q52.1003 1113.38 45.7664 1113.38 M59.58 1107.53 Q68.683 1107.53 73.1071 1111.57 Q77.5631 1115.61 77.5631 1123.95 Q77.5631 1127.04 77.0857 1129.78 Q76.6401 1132.51 75.6852 1135.09 L69.9879 1135.09 Q71.3884 1132.51 72.0568 1130 Q72.7252 1127.48 72.7252 1124.88 Q72.7252 1119.11 69.7015 1116.25 Q66.7096 1113.38 60.6303 1113.38 L57.7339 1113.38 Q60.885 1115.2 62.4446 1118.03 Q64.0042 1120.86 64.0042 1124.81 Q64.0042 1131.37 59.0071 1135.38 Q54.01 1139.39 45.7664 1139.39 Q37.491 1139.39 32.4939 1135.38 Q27.4968 1131.37 27.4968 1124.81 Q27.4968 1120.86 29.0564 1118.03 Q30.616 1115.2 33.7671 1113.38 L28.3562 1113.38 L28.3562 1107.53 L59.58 1107.53 Z" fill="#000000" fill-rule="evenodd" fill-opacity="1"></path><path clip-path="url(#clip880)" d="M74.8259 1068.38 L79.3773 1068.38 L79.3773 1102.24 L74.8259 1102.24 L74.8259 1068.38 Z" fill="#000000" fill-rule="evenodd" fill-opacity="1"></path><path clip-path="url(#clip880)" d="M58.5933 1060.93 L58.5933 1050.43 L22.3406 1050.43 L24.6323 1061.85 L18.7758 1061.85 L16.4842 1050.49 L16.4842 1044.06 L58.5933 1044.06 L58.5933 1033.56 L64.0042 1033.56 L64.0042 1060.93 L58.5933 1060.93 Z" fill="#000000" fill-rule="evenodd" fill-opacity="1"></path><path clip-path="url(#clip880)" d="M20.7174 1006.82 Q20.7174 1011.79 25.6189 1014.3 Q30.4887 1016.79 40.2919 1016.79 Q50.0633 1016.79 54.9649 1014.3 Q59.8346 1011.79 59.8346 1006.82 Q59.8346 1001.83 54.9649 999.343 Q50.0633 996.829 40.2919 996.829 Q30.4887 996.829 25.6189 999.343 Q20.7174 1001.83 20.7174 1006.82 M15.6248 1006.82 Q15.6248 998.834 21.9587 994.633 Q28.2607 990.399 40.2919 990.399 Q52.2913 990.399 58.6251 994.633 Q64.9272 998.834 64.9272 1006.82 Q64.9272 1014.81 58.6251 1019.05 Q52.2913 1023.25 40.2919 1023.25 Q28.2607 1023.25 21.9587 1019.05 Q15.6248 1014.81 15.6248 1006.82 Z" fill="#000000" fill-rule="evenodd" fill-opacity="1"></path><path clip-path="url(#clip880)" d="M14.5426 965.86 Q21.8632 970.125 29.0246 972.194 Q36.186 974.262 43.5384 974.262 Q50.8908 974.262 58.1159 972.194 Q65.3091 970.093 72.5979 965.86 L72.5979 970.952 Q65.1182 975.727 57.8931 978.114 Q50.668 980.469 43.5384 980.469 Q36.4406 980.469 29.2474 978.114 Q22.0542 975.758 14.5426 970.952 L14.5426 965.86 Z" fill="#000000" fill-rule="evenodd" fill-opacity="1"></path><path clip-path="url(#clip880)" d="M44.7161 924.005 L47.5806 924.005 L47.5806 950.932 Q53.6281 950.55 56.8109 947.304 Q59.9619 944.025 59.9619 938.201 Q59.9619 934.827 59.1344 931.676 Q58.3069 928.493 56.6518 925.374 L62.1899 925.374 Q63.5267 928.525 64.227 931.835 Q64.9272 935.145 64.9272 938.551 Q64.9272 947.081 59.9619 952.078 Q54.9967 957.043 46.5303 957.043 Q37.7774 957.043 32.6531 952.333 Q27.4968 947.59 27.4968 939.569 Q27.4968 932.376 32.1438 928.207 Q36.7589 924.005 44.7161 924.005 M42.9973 929.862 Q38.1912 929.925 35.3266 932.567 Q32.4621 935.177 32.4621 939.506 Q32.4621 944.407 35.2312 947.367 Q38.0002 950.296 43.0292 950.741 L42.9973 929.862 Z" fill="#000000" fill-rule="evenodd" fill-opacity="1"></path><path clip-path="url(#clip880)" d="M14.479 914.393 L14.479 908.536 L64.0042 908.536 L64.0042 914.393 L14.479 914.393 Z" fill="#000000" fill-rule="evenodd" fill-opacity="1"></path><path clip-path="url(#clip880)" d="M46.0847 880.082 Q46.0847 887.18 47.7079 889.917 Q49.3312 892.654 53.2461 892.654 Q56.3653 892.654 58.2114 890.617 Q60.0256 888.548 60.0256 885.015 Q60.0256 880.145 56.5881 877.217 Q53.1188 874.257 47.3897 874.257 L46.0847 874.257 L46.0847 880.082 M43.6657 868.401 L64.0042 868.401 L64.0042 874.257 L58.5933 874.257 Q61.8398 876.262 63.3994 879.254 Q64.9272 882.246 64.9272 886.575 Q64.9272 892.049 61.8716 895.296 Q58.7843 898.51 53.6281 898.51 Q47.6125 898.51 44.5569 894.5 Q41.5014 890.458 41.5014 882.469 L41.5014 874.257 L40.9285 874.257 Q36.8862 874.257 34.6901 876.931 Q32.4621 879.573 32.4621 884.379 Q32.4621 887.434 33.1941 890.331 Q33.9262 893.227 35.3903 895.901 L29.9795 895.901 Q28.7381 892.686 28.1334 889.662 Q27.4968 886.638 27.4968 883.774 Q27.4968 876.04 31.5072 872.22 Q35.5176 868.401 43.6657 868.401 Z" fill="#000000" fill-rule="evenodd" fill-opacity="1"></path><path clip-path="url(#clip880)" d="M58.657 850.672 L77.5631 850.672 L77.5631 856.56 L28.3562 856.56 L28.3562 850.672 L33.7671 850.672 Q30.5842 848.826 29.0564 846.025 Q27.4968 843.193 27.4968 839.278 Q27.4968 832.785 32.6531 828.742 Q37.8093 824.668 46.212 824.668 Q54.6147 824.668 59.771 828.742 Q64.9272 832.785 64.9272 839.278 Q64.9272 843.193 63.3994 846.025 Q61.8398 848.826 58.657 850.672 M46.212 830.748 Q39.7508 830.748 36.0905 833.421 Q32.3984 836.063 32.3984 840.71 Q32.3984 845.357 36.0905 848.03 Q39.7508 850.672 46.212 850.672 Q52.6732 850.672 56.3653 848.03 Q60.0256 845.357 60.0256 840.71 Q60.0256 836.063 56.3653 833.421 Q52.6732 830.748 46.212 830.748 Z" fill="#000000" fill-rule="evenodd" fill-opacity="1"></path><path clip-path="url(#clip880)" d="M29.4065 792.235 L34.9447 792.235 Q33.6716 794.718 33.035 797.391 Q32.3984 800.065 32.3984 802.929 Q32.3984 807.29 33.7352 809.486 Q35.072 811.65 37.7456 811.65 Q39.7826 811.65 40.9603 810.091 Q42.1061 808.531 43.1565 803.821 L43.6021 801.815 Q44.9389 795.577 47.3897 792.967 Q49.8086 790.325 54.1691 790.325 Q59.1344 790.325 62.0308 794.272 Q64.9272 798.187 64.9272 805.062 Q64.9272 807.926 64.3543 811.046 Q63.8132 814.133 62.6992 817.571 L56.6518 817.571 Q58.3387 814.324 59.198 811.173 Q60.0256 808.022 60.0256 804.935 Q60.0256 800.797 58.6251 798.569 Q57.1929 796.341 54.6147 796.341 Q52.2276 796.341 50.9545 797.964 Q49.6813 799.556 48.5037 804.998 L48.0262 807.035 Q46.8804 812.478 44.5251 814.897 Q42.138 817.316 38.0002 817.316 Q32.9713 817.316 30.2341 813.751 Q27.4968 810.186 27.4968 803.63 Q27.4968 800.383 27.9743 797.519 Q28.4517 794.654 29.4065 792.235 Z" fill="#000000" fill-rule="evenodd" fill-opacity="1"></path><path clip-path="url(#clip880)" d="M44.7161 750.508 L47.5806 750.508 L47.5806 777.435 Q53.6281 777.053 56.8109 773.806 Q59.9619 770.528 59.9619 764.703 Q59.9619 761.33 59.1344 758.178 Q58.3069 754.996 56.6518 751.876 L62.1899 751.876 Q63.5267 755.027 64.227 758.338 Q64.9272 761.648 64.9272 765.053 Q64.9272 773.584 59.9619 778.581 Q54.9967 783.546 46.5303 783.546 Q37.7774 783.546 32.6531 778.835 Q27.4968 774.093 27.4968 766.072 Q27.4968 758.879 32.1438 754.709 Q36.7589 750.508 44.7161 750.508 M42.9973 756.364 Q38.1912 756.428 35.3266 759.07 Q32.4621 761.68 32.4621 766.008 Q32.4621 770.91 35.2312 773.87 Q38.0002 776.798 43.0292 777.244 L42.9973 756.364 Z" fill="#000000" fill-rule="evenodd" fill-opacity="1"></path><path clip-path="url(#clip880)" d="M33.7671 717.438 L14.479 717.438 L14.479 711.582 L64.0042 711.582 L64.0042 717.438 L58.657 717.438 Q61.8398 719.284 63.3994 722.117 Q64.9272 724.918 64.9272 728.864 Q64.9272 735.326 59.771 739.4 Q54.6147 743.442 46.212 743.442 Q37.8093 743.442 32.6531 739.4 Q27.4968 735.326 27.4968 728.864 Q27.4968 724.918 29.0564 722.117 Q30.5842 719.284 33.7671 717.438 M46.212 737.394 Q52.6732 737.394 56.3653 734.753 Q60.0256 732.079 60.0256 727.432 Q60.0256 722.785 56.3653 720.112 Q52.6732 717.438 46.212 717.438 Q39.7508 717.438 36.0905 720.112 Q32.3984 722.785 32.3984 727.432 Q32.3984 732.079 36.0905 734.753 Q39.7508 737.394 46.212 737.394 Z" fill="#000000" fill-rule="evenodd" fill-opacity="1"></path><path clip-path="url(#clip880)" d="M18.2347 673.005 L28.3562 673.005 L28.3562 660.942 L32.9077 660.942 L32.9077 673.005 L52.2594 673.005 Q56.6199 673.005 57.8613 671.828 Q59.1026 670.618 59.1026 666.958 L59.1026 660.942 L64.0042 660.942 L64.0042 666.958 Q64.0042 673.737 61.4897 676.316 Q58.9434 678.894 52.2594 678.894 L32.9077 678.894 L32.9077 683.19 L28.3562 683.19 L28.3562 678.894 L18.2347 678.894 L18.2347 673.005 Z" fill="#000000" fill-rule="evenodd" fill-opacity="1"></path><path clip-path="url(#clip880)" d="M28.3562 653.24 L28.3562 647.383 L64.0042 647.383 L64.0042 653.24 L28.3562 653.24 M14.479 653.24 L14.479 647.383 L21.895 647.383 L21.895 653.24 L14.479 653.24 Z" fill="#000000" fill-rule="evenodd" fill-opacity="1"></path><path clip-path="url(#clip880)" d="M35.1993 607.375 Q31.2526 605.179 29.3747 602.123 Q27.4968 599.068 27.4968 594.93 Q27.4968 589.36 31.4117 586.336 Q35.2948 583.313 42.4881 583.313 L64.0042 583.313 L64.0042 589.201 L42.679 589.201 Q37.5546 589.201 35.072 591.015 Q32.5894 592.829 32.5894 596.553 Q32.5894 601.105 35.6131 603.746 Q38.6368 606.388 43.8567 606.388 L64.0042 606.388 L64.0042 612.276 L42.679 612.276 Q37.5228 612.276 35.072 614.091 Q32.5894 615.905 32.5894 619.693 Q32.5894 624.18 35.6449 626.822 Q38.6686 629.464 43.8567 629.464 L64.0042 629.464 L64.0042 635.352 L28.3562 635.352 L28.3562 629.464 L33.8944 629.464 Q30.616 627.459 29.0564 624.658 Q27.4968 621.857 27.4968 618.006 Q27.4968 614.123 29.4702 611.417 Q31.4436 608.68 35.1993 607.375 Z" fill="#000000" fill-rule="evenodd" fill-opacity="1"></path><path clip-path="url(#clip880)" d="M44.7161 541.14 L47.5806 541.14 L47.5806 568.067 Q53.6281 567.685 56.8109 564.438 Q59.9619 561.16 59.9619 555.335 Q59.9619 551.961 59.1344 548.81 Q58.3069 545.628 56.6518 542.508 L62.1899 542.508 Q63.5267 545.659 64.227 548.97 Q64.9272 552.28 64.9272 555.685 Q64.9272 564.215 59.9619 569.212 Q54.9967 574.178 46.5303 574.178 Q37.7774 574.178 32.6531 569.467 Q27.4968 564.725 27.4968 556.704 Q27.4968 549.511 32.1438 545.341 Q36.7589 541.14 44.7161 541.14 M42.9973 546.996 Q38.1912 547.06 35.3266 549.702 Q32.4621 552.312 32.4621 556.64 Q32.4621 561.542 35.2312 564.502 Q38.0002 567.43 43.0292 567.876 L42.9973 546.996 Z" fill="#000000" fill-rule="evenodd" fill-opacity="1"></path><path clip-path="url(#clip880)" d="M14.5426 496.739 Q21.8632 501.004 29.0246 503.073 Q36.186 505.142 43.5384 505.142 Q50.8908 505.142 58.1159 503.073 Q65.3091 500.972 72.5979 496.739 L72.5979 501.831 Q65.1182 506.606 57.8931 508.993 Q50.668 511.348 43.5384 511.348 Q36.4406 511.348 29.2474 508.993 Q22.0542 506.638 14.5426 501.831 L14.5426 496.739 Z" fill="#000000" fill-rule="evenodd" fill-opacity="1"></path><path clip-path="url(#clip880)" d="M29.4065 462.651 L34.9447 462.651 Q33.6716 465.133 33.035 467.807 Q32.3984 470.48 32.3984 473.345 Q32.3984 477.705 33.7352 479.902 Q35.072 482.066 37.7456 482.066 Q39.7826 482.066 40.9603 480.506 Q42.1061 478.947 43.1565 474.236 L43.6021 472.231 Q44.9389 465.993 47.3897 463.383 Q49.8086 460.741 54.1691 460.741 Q59.1344 460.741 62.0308 464.688 Q64.9272 468.603 64.9272 475.477 Q64.9272 478.342 64.3543 481.461 Q63.8132 484.549 62.6992 487.986 L56.6518 487.986 Q58.3387 484.74 59.198 481.589 Q60.0256 478.438 60.0256 475.35 Q60.0256 471.212 58.6251 468.984 Q57.1929 466.756 54.6147 466.756 Q52.2276 466.756 50.9545 468.38 Q49.6813 469.971 48.5037 475.414 L48.0262 477.451 Q46.8804 482.894 44.5251 485.312 Q42.138 487.731 38.0002 487.731 Q32.9713 487.731 30.2341 484.167 Q27.4968 480.602 27.4968 474.045 Q27.4968 470.799 27.9743 467.934 Q28.4517 465.07 29.4065 462.651 Z" fill="#000000" fill-rule="evenodd" fill-opacity="1"></path><path clip-path="url(#clip880)" d="M14.5426 452.338 L14.5426 447.246 Q22.0542 442.471 29.2474 440.116 Q36.4406 437.729 43.5384 437.729 Q50.668 437.729 57.8931 440.116 Q65.1182 442.471 72.5979 447.246 L72.5979 452.338 Q65.3091 448.105 58.1159 446.036 Q50.8908 443.935 43.5384 443.935 Q36.186 443.935 29.0246 446.036 Q21.8632 448.105 14.5426 452.338 Z" fill="#000000" fill-rule="evenodd" fill-opacity="1"></path><path clip-path="url(#clip880)" d="M14.5426 426.907 L14.5426 421.815 Q22.0542 417.04 29.2474 414.685 Q36.4406 412.298 43.5384 412.298 Q50.668 412.298 57.8931 414.685 Q65.1182 417.04 72.5979 421.815 L72.5979 426.907 Q65.3091 422.674 58.1159 420.605 Q50.8908 418.504 43.5384 418.504 Q36.186 418.504 29.0246 420.605 Q21.8632 422.674 14.5426 426.907 Z" fill="#000000" fill-rule="evenodd" fill-opacity="1"></path><path clip-path="url(#clip880)" d="M944.6 39.9885 L944.6 62.7141 L954.889 62.7141 Q960.601 62.7141 963.72 59.7569 Q966.839 56.7998 966.839 51.331 Q966.839 45.9028 963.72 42.9457 Q960.601 39.9885 954.889 39.9885 L944.6 39.9885 M936.417 33.264 L954.889 33.264 Q965.057 33.264 970.242 37.882 Q975.468 42.4596 975.468 51.331 Q975.468 60.2835 970.242 64.8611 Q965.057 69.4386 954.889 69.4386 L944.6 69.4386 L944.6 93.744 L936.417 93.744 L936.417 33.264 Z" fill="#000000" fill-rule="evenodd" fill-opacity="1"></path><path clip-path="url(#clip880)" d="M986.446 33.264 L994.629 33.264 L994.629 86.8575 L1024.08 86.8575 L1024.08 93.744 L986.446 93.744 L986.446 33.264 Z" fill="#000000" fill-rule="evenodd" fill-opacity="1"></path><path clip-path="url(#clip880)" d="M1027.6 33.264 L1035.83 33.264 L1035.83 70.0057 Q1035.83 79.7279 1039.35 84.0218 Q1042.87 88.2753 1050.77 88.2753 Q1058.63 88.2753 1062.16 84.0218 Q1065.68 79.7279 1065.68 70.0057 L1065.68 33.264 L1073.9 33.264 L1073.9 71.0184 Q1073.9 82.8471 1068.03 88.8829 Q1062.2 94.9188 1050.77 94.9188 Q1039.31 94.9188 1033.44 88.8829 Q1027.6 82.8471 1027.6 71.0184 L1027.6 33.264 Z" fill="#000000" fill-rule="evenodd" fill-opacity="1"></path><path clip-path="url(#clip880)" d="M1123.81 39.9885 L1123.81 62.7141 L1134.1 62.7141 Q1139.81 62.7141 1142.93 59.7569 Q1146.05 56.7998 1146.05 51.331 Q1146.05 45.9028 1142.93 42.9457 Q1139.81 39.9885 1134.1 39.9885 L1123.81 39.9885 M1115.63 33.264 L1134.1 33.264 Q1144.27 33.264 1149.45 37.882 Q1154.68 42.4596 1154.68 51.331 Q1154.68 60.2835 1149.45 64.8611 Q1144.27 69.4386 1134.1 69.4386 L1123.81 69.4386 L1123.81 93.744 L1115.63 93.744 L1115.63 33.264 Z" fill="#000000" fill-rule="evenodd" fill-opacity="1"></path><path clip-path="url(#clip880)" d="M1201.18 69.1955 L1201.18 72.8413 L1166.91 72.8413 Q1167.4 80.5381 1171.53 84.589 Q1175.7 88.5994 1183.12 88.5994 Q1187.41 88.5994 1191.42 87.5461 Q1195.47 86.4929 1199.44 84.3864 L1199.44 91.435 Q1195.43 93.1364 1191.22 94.0276 Q1187.01 94.9188 1182.67 94.9188 Q1171.82 94.9188 1165.46 88.5994 Q1159.14 82.2799 1159.14 71.5045 Q1159.14 60.3645 1165.13 53.8426 Q1171.17 47.2801 1181.38 47.2801 Q1190.53 47.2801 1195.84 53.1944 Q1201.18 59.0683 1201.18 69.1955 M1193.73 67.008 Q1193.65 60.8912 1190.29 57.2454 Q1186.97 53.5995 1181.46 53.5995 Q1175.22 53.5995 1171.45 57.1238 Q1167.72 60.6481 1167.16 67.0485 L1193.73 67.008 Z" fill="#000000" fill-rule="evenodd" fill-opacity="1"></path><path clip-path="url(#clip880)" d="M1239.71 55.3414 Q1238.45 54.6123 1236.95 54.2882 Q1235.5 53.9236 1233.71 53.9236 Q1227.39 53.9236 1223.99 58.0555 Q1220.63 62.1469 1220.63 69.8437 L1220.63 93.744 L1213.13 93.744 L1213.13 48.3739 L1220.63 48.3739 L1220.63 55.4224 Q1222.98 51.2905 1226.75 49.3056 Q1230.51 47.2801 1235.9 47.2801 Q1236.67 47.2801 1237.6 47.4017 Q1238.53 47.4827 1239.67 47.6852 L1239.71 55.3414 Z" fill="#000000" fill-rule="evenodd" fill-opacity="1"></path><path clip-path="url(#clip880)" d="M1270.5 30.7119 L1270.5 36.9098 L1263.37 36.9098 Q1259.36 36.9098 1257.78 38.5302 Q1256.24 40.1505 1256.24 44.3635 L1256.24 48.3739 L1268.51 48.3739 L1268.51 54.1667 L1256.24 54.1667 L1256.24 93.744 L1248.74 93.744 L1248.74 54.1667 L1241.61 54.1667 L1241.61 48.3739 L1248.74 48.3739 L1248.74 45.2142 Q1248.74 37.639 1252.27 34.1957 Q1255.79 30.7119 1263.45 30.7119 L1270.5 30.7119 Z" fill="#000000" fill-rule="evenodd" fill-opacity="1"></path><path clip-path="url(#clip880)" d="M1294.31 53.5995 Q1288.32 53.5995 1284.84 58.2986 Q1281.35 62.9571 1281.35 71.0994 Q1281.35 79.2418 1284.79 83.9408 Q1288.28 88.5994 1294.31 88.5994 Q1300.27 88.5994 1303.75 83.9003 Q1307.24 79.2013 1307.24 71.0994 Q1307.24 63.0381 1303.75 58.3391 Q1300.27 53.5995 1294.31 53.5995 M1294.31 47.2801 Q1304.04 47.2801 1309.59 53.5995 Q1315.14 59.9189 1315.14 71.0994 Q1315.14 82.2394 1309.59 88.5994 Q1304.04 94.9188 1294.31 94.9188 Q1284.55 94.9188 1279 88.5994 Q1273.49 82.2394 1273.49 71.0994 Q1273.49 59.9189 1279 53.5995 Q1284.55 47.2801 1294.31 47.2801 Z" fill="#000000" fill-rule="evenodd" fill-opacity="1"></path><path clip-path="url(#clip880)" d="M1353.78 55.3414 Q1352.53 54.6123 1351.03 54.2882 Q1349.57 53.9236 1347.79 53.9236 Q1341.47 53.9236 1338.06 58.0555 Q1334.7 62.1469 1334.7 69.8437 L1334.7 93.744 L1327.21 93.744 L1327.21 48.3739 L1334.7 48.3739 L1334.7 55.4224 Q1337.05 51.2905 1340.82 49.3056 Q1344.59 47.2801 1349.97 47.2801 Q1350.74 47.2801 1351.68 47.4017 Q1352.61 47.4827 1353.74 47.6852 L1353.78 55.3414 Z" fill="#000000" fill-rule="evenodd" fill-opacity="1"></path><path clip-path="url(#clip880)" d="M1395.47 57.0833 Q1398.26 52.0602 1402.15 49.6702 Q1406.04 47.2801 1411.3 47.2801 Q1418.39 47.2801 1422.24 52.2627 Q1426.09 57.2048 1426.09 66.3599 L1426.09 93.744 L1418.6 93.744 L1418.6 66.6029 Q1418.6 60.081 1416.29 56.9213 Q1413.98 53.7616 1409.24 53.7616 Q1403.45 53.7616 1400.08 57.6099 Q1396.72 61.4583 1396.72 68.1018 L1396.72 93.744 L1389.23 93.744 L1389.23 66.6029 Q1389.23 60.0405 1386.92 56.9213 Q1384.61 53.7616 1379.79 53.7616 Q1374.08 53.7616 1370.71 57.6504 Q1367.35 61.4988 1367.35 68.1018 L1367.35 93.744 L1359.86 93.744 L1359.86 48.3739 L1367.35 48.3739 L1367.35 55.4224 Q1369.9 51.25 1373.47 49.2651 Q1377.03 47.2801 1381.94 47.2801 Q1386.88 47.2801 1390.32 49.7917 Q1393.8 52.3032 1395.47 57.0833 Z" fill="#000000" fill-rule="evenodd" fill-opacity="1"></path><path clip-path="url(#clip880)" d="M1461.58 70.9374 Q1452.54 70.9374 1449.06 73.0034 Q1445.58 75.0693 1445.58 80.0519 Q1445.58 84.0218 1448.17 86.3714 Q1450.8 88.6804 1455.3 88.6804 Q1461.5 88.6804 1465.22 84.3054 Q1468.99 79.8899 1468.99 72.5983 L1468.99 70.9374 L1461.58 70.9374 M1476.44 67.8587 L1476.44 93.744 L1468.99 93.744 L1468.99 86.8575 Q1466.44 90.9894 1462.63 92.9743 Q1458.82 94.9188 1453.31 94.9188 Q1446.34 94.9188 1442.21 91.0299 Q1438.12 87.1005 1438.12 80.5381 Q1438.12 72.8818 1443.23 68.993 Q1448.37 65.1041 1458.54 65.1041 L1468.99 65.1041 L1468.99 64.3749 Q1468.99 59.2303 1465.59 56.4352 Q1462.22 53.5995 1456.11 53.5995 Q1452.22 53.5995 1448.53 54.5312 Q1444.85 55.463 1441.44 57.3264 L1441.44 50.4398 Q1445.53 48.86 1449.38 48.0903 Q1453.23 47.2801 1456.88 47.2801 Q1466.72 47.2801 1471.58 52.3843 Q1476.44 57.4884 1476.44 67.8587 Z" fill="#000000" fill-rule="evenodd" fill-opacity="1"></path><path clip-path="url(#clip880)" d="M1529.51 66.3599 L1529.51 93.744 L1522.06 93.744 L1522.06 66.6029 Q1522.06 60.162 1519.54 56.9618 Q1517.03 53.7616 1512.01 53.7616 Q1505.97 53.7616 1502.49 57.6099 Q1499.01 61.4583 1499.01 68.1018 L1499.01 93.744 L1491.51 93.744 L1491.51 48.3739 L1499.01 48.3739 L1499.01 55.4224 Q1501.68 51.331 1505.29 49.3056 Q1508.93 47.2801 1513.67 47.2801 Q1521.49 47.2801 1525.5 52.1412 Q1529.51 56.9618 1529.51 66.3599 Z" fill="#000000" fill-rule="evenodd" fill-opacity="1"></path><path clip-path="url(#clip880)" d="M1577.03 50.1158 L1577.03 57.0833 Q1573.87 55.3414 1570.67 54.4907 Q1567.51 53.5995 1564.27 53.5995 Q1557.02 53.5995 1553.01 58.2176 Q1548.99 62.7951 1548.99 71.0994 Q1548.99 79.4038 1553.01 84.0218 Q1557.02 88.5994 1564.27 88.5994 Q1567.51 88.5994 1570.67 87.7487 Q1573.87 86.8575 1577.03 85.1156 L1577.03 92.0021 Q1573.91 93.4604 1570.55 94.1896 Q1567.22 94.9188 1563.46 94.9188 Q1553.21 94.9188 1547.17 88.4778 Q1541.14 82.0369 1541.14 71.0994 Q1541.14 60 1547.21 53.64 Q1553.33 47.2801 1563.94 47.2801 Q1567.39 47.2801 1570.67 48.0093 Q1573.95 48.6979 1577.03 50.1158 Z" fill="#000000" fill-rule="evenodd" fill-opacity="1"></path><path clip-path="url(#clip880)" d="M1628.8 69.1955 L1628.8 72.8413 L1594.53 72.8413 Q1595.01 80.5381 1599.15 84.589 Q1603.32 88.5994 1610.73 88.5994 Q1615.02 88.5994 1619.03 87.5461 Q1623.09 86.4929 1627.06 84.3864 L1627.06 91.435 Q1623.05 93.1364 1618.83 94.0276 Q1614.62 94.9188 1610.29 94.9188 Q1599.43 94.9188 1593.07 88.5994 Q1586.75 82.2799 1586.75 71.5045 Q1586.75 60.3645 1592.74 53.8426 Q1598.78 47.2801 1608.99 47.2801 Q1618.14 47.2801 1623.45 53.1944 Q1628.8 59.0683 1628.8 69.1955 M1621.34 67.008 Q1621.26 60.8912 1617.9 57.2454 Q1614.58 53.5995 1609.07 53.5995 Q1602.83 53.5995 1599.06 57.1238 Q1595.34 60.6481 1594.77 67.0485 L1621.34 67.008 Z" fill="#000000" fill-rule="evenodd" fill-opacity="1"></path><path clip-path="url(#clip880)" d="M996.553 121.432 L996.553 127.63 L989.423 127.63 Q985.413 127.63 983.833 129.25 Q982.294 130.871 982.294 135.083 L982.294 139.094 L994.568 139.094 L994.568 144.887 L982.294 144.887 L982.294 184.464 L974.799 184.464 L974.799 144.887 L967.67 144.887 L967.67 139.094 L974.799 139.094 L974.799 135.934 Q974.799 128.359 978.324 124.916 Q981.848 121.432 989.504 121.432 L996.553 121.432 Z" fill="#000000" fill-rule="evenodd" fill-opacity="1"></path><path clip-path="url(#clip880)" d="M1002.79 139.094 L1010.24 139.094 L1010.24 184.464 L1002.79 184.464 L1002.79 139.094 M1002.79 121.432 L1010.24 121.432 L1010.24 130.871 L1002.79 130.871 L1002.79 121.432 Z" fill="#000000" fill-rule="evenodd" fill-opacity="1"></path><path clip-path="url(#clip880)" d="M1033.21 126.212 L1033.21 139.094 L1048.57 139.094 L1048.57 144.887 L1033.21 144.887 L1033.21 169.516 Q1033.21 175.066 1034.71 176.646 Q1036.25 178.226 1040.91 178.226 L1048.57 178.226 L1048.57 184.464 L1040.91 184.464 Q1032.28 184.464 1029 181.264 Q1025.72 178.023 1025.72 169.516 L1025.72 144.887 L1020.25 144.887 L1020.25 139.094 L1025.72 139.094 L1025.72 126.212 L1033.21 126.212 Z" fill="#000000" fill-rule="evenodd" fill-opacity="1"></path><path clip-path="url(#clip880)" d="M1113.66 140.431 L1113.66 147.479 Q1110.5 145.859 1107.1 145.049 Q1103.7 144.239 1100.05 144.239 Q1094.5 144.239 1091.71 145.94 Q1088.95 147.641 1088.95 151.044 Q1088.95 153.637 1090.94 155.135 Q1092.92 156.594 1098.92 157.931 L1101.47 158.498 Q1109.41 160.199 1112.73 163.318 Q1116.09 166.397 1116.09 171.947 Q1116.09 178.266 1111.07 181.952 Q1106.09 185.639 1097.34 185.639 Q1093.69 185.639 1089.72 184.91 Q1085.79 184.221 1081.42 182.803 L1081.42 175.106 Q1085.55 177.253 1089.56 178.347 Q1093.57 179.4 1097.5 179.4 Q1102.77 179.4 1105.6 177.618 Q1108.44 175.795 1108.44 172.514 Q1108.44 169.476 1106.37 167.855 Q1104.35 166.235 1097.42 164.736 L1094.83 164.128 Q1087.9 162.67 1084.82 159.672 Q1081.74 156.634 1081.74 151.368 Q1081.74 144.968 1086.28 141.484 Q1090.82 138 1099.16 138 Q1103.29 138 1106.94 138.608 Q1110.59 139.215 1113.66 140.431 Z" fill="#000000" fill-rule="evenodd" fill-opacity="1"></path><path clip-path="url(#clip880)" d="M1127.96 121.432 L1135.42 121.432 L1135.42 184.464 L1127.96 184.464 L1127.96 121.432 Z" fill="#000000" fill-rule="evenodd" fill-opacity="1"></path><path clip-path="url(#clip880)" d="M1168.59 144.32 Q1162.6 144.32 1159.12 149.019 Q1155.63 153.677 1155.63 161.819 Q1155.63 169.962 1159.08 174.661 Q1162.56 179.319 1168.59 179.319 Q1174.55 179.319 1178.03 174.62 Q1181.52 169.921 1181.52 161.819 Q1181.52 153.758 1178.03 149.059 Q1174.55 144.32 1168.59 144.32 M1168.59 138 Q1178.32 138 1183.87 144.32 Q1189.42 150.639 1189.42 161.819 Q1189.42 172.959 1183.87 179.319 Q1178.32 185.639 1168.59 185.639 Q1158.83 185.639 1153.28 179.319 Q1147.77 172.959 1147.77 161.819 Q1147.77 150.639 1153.28 144.32 Q1158.83 138 1168.59 138 Z" fill="#000000" fill-rule="evenodd" fill-opacity="1"></path><path clip-path="url(#clip880)" d="M1208.98 177.658 L1208.98 201.721 L1201.49 201.721 L1201.49 139.094 L1208.98 139.094 L1208.98 145.98 Q1211.33 141.93 1214.9 139.985 Q1218.5 138 1223.48 138 Q1231.75 138 1236.89 144.563 Q1242.08 151.125 1242.08 161.819 Q1242.08 172.514 1236.89 179.076 Q1231.75 185.639 1223.48 185.639 Q1218.5 185.639 1214.9 183.694 Q1211.33 181.709 1208.98 177.658 M1234.34 161.819 Q1234.34 153.596 1230.94 148.938 Q1227.58 144.239 1221.66 144.239 Q1215.75 144.239 1212.34 148.938 Q1208.98 153.596 1208.98 161.819 Q1208.98 170.043 1212.34 174.742 Q1215.75 179.4 1221.66 179.4 Q1227.58 179.4 1230.94 174.742 Q1234.34 170.043 1234.34 161.819 Z" fill="#000000" fill-rule="evenodd" fill-opacity="1"></path><path clip-path="url(#clip880)" d="M1293.24 159.916 L1293.24 163.561 L1258.97 163.561 Q1259.46 171.258 1263.59 175.309 Q1267.76 179.319 1275.17 179.319 Q1279.47 179.319 1283.48 178.266 Q1287.53 177.213 1291.5 175.106 L1291.5 182.155 Q1287.49 183.856 1283.28 184.748 Q1279.06 185.639 1274.73 185.639 Q1263.87 185.639 1257.51 179.319 Q1251.19 173 1251.19 162.225 Q1251.19 151.085 1257.19 144.563 Q1263.22 138 1273.43 138 Q1282.59 138 1287.89 143.914 Q1293.24 149.788 1293.24 159.916 M1285.79 157.728 Q1285.71 151.611 1282.34 147.965 Q1279.02 144.32 1273.51 144.32 Q1267.27 144.32 1263.51 147.844 Q1259.78 151.368 1259.21 157.769 L1285.79 157.728 Z" fill="#000000" fill-rule="evenodd" fill-opacity="1"></path><path clip-path="url(#clip880)" d="M1332.82 146.791 L1384.75 146.791 L1384.75 153.596 L1332.82 153.596 L1332.82 146.791 M1332.82 163.318 L1384.75 163.318 L1384.75 170.205 L1332.82 170.205 L1332.82 163.318 Z" fill="#000000" fill-rule="evenodd" fill-opacity="1"></path><path clip-path="url(#clip880)" d="M1435.83 177.577 L1464.39 177.577 L1464.39 184.464 L1425.99 184.464 L1425.99 177.577 Q1430.65 172.757 1438.67 164.655 Q1446.73 156.513 1448.8 154.163 Q1452.73 149.748 1454.26 146.71 Q1455.84 143.631 1455.84 140.674 Q1455.84 135.853 1452.44 132.815 Q1449.08 129.777 1443.65 129.777 Q1439.8 129.777 1435.51 131.114 Q1431.26 132.45 1426.39 135.164 L1426.39 126.901 Q1431.34 124.916 1435.63 123.903 Q1439.92 122.89 1443.49 122.89 Q1452.89 122.89 1458.48 127.589 Q1464.07 132.288 1464.07 140.147 Q1464.07 143.874 1462.65 147.236 Q1461.27 150.558 1457.59 155.095 Q1456.57 156.27 1451.15 161.9 Q1445.72 167.491 1435.83 177.577 Z" fill="#000000" fill-rule="evenodd" fill-opacity="1"></path><path clip-path="url(#clip880)" d="M1481.57 174.175 L1490.11 174.175 L1490.11 184.464 L1481.57 184.464 L1481.57 174.175 Z" fill="#000000" fill-rule="evenodd" fill-opacity="1"></path><path clip-path="url(#clip880)" d="M1505.87 123.984 L1544.76 123.984 L1544.76 127.468 L1522.81 184.464 L1514.26 184.464 L1534.92 130.871 L1505.87 130.871 L1505.87 123.984 Z" fill="#000000" fill-rule="evenodd" fill-opacity="1"></path><path clip-path="url(#clip880)" d="M1558.66 123.984 L1597.54 123.984 L1597.54 127.468 L1575.59 184.464 L1567.04 184.464 L1587.7 130.871 L1558.66 130.871 L1558.66 123.984 Z" fill="#000000" fill-rule="evenodd" fill-opacity="1"></path><circle clip-path="url(#clip882)" cx="273.033" cy="1208.47" r="14.4" fill="#009af9" fill-rule="evenodd" fill-opacity="1" stroke="#000000" stroke-opacity="1" stroke-width="3.2"></circle>
<circle clip-path="url(#clip882)" cx="479.108" cy="1388.11" r="14.4" fill="#009af9" fill-rule="evenodd" fill-opacity="1" stroke="#000000" stroke-opacity="1" stroke-width="3.2"></circle>
<circle clip-path="url(#clip882)" cx="708.527" cy="1161.89" r="14.4" fill="#009af9" fill-rule="evenodd" fill-opacity="1" stroke="#000000" stroke-opacity="1" stroke-width="3.2"></circle>
<circle clip-path="url(#clip882)" cx="942.136" cy="932.419" r="14.4" fill="#009af9" fill-rule="evenodd" fill-opacity="1" stroke="#000000" stroke-opacity="1" stroke-width="3.2"></circle>
<circle clip-path="url(#clip882)" cx="1168.01" cy="831.257" r="14.4" fill="#009af9" fill-rule="evenodd" fill-opacity="1" stroke="#000000" stroke-opacity="1" stroke-width="3.2"></circle>
<circle clip-path="url(#clip882)" cx="1394.26" cy="696.583" r="14.4" fill="#009af9" fill-rule="evenodd" fill-opacity="1" stroke="#000000" stroke-opacity="1" stroke-width="3.2"></circle>
<circle clip-path="url(#clip882)" cx="1618.23" cy="648.28" r="14.4" fill="#009af9" fill-rule="evenodd" fill-opacity="1" stroke="#000000" stroke-opacity="1" stroke-width="3.2"></circle>
<circle clip-path="url(#clip882)" cx="1843.02" cy="534.621" r="14.4" fill="#009af9" fill-rule="evenodd" fill-opacity="1" stroke="#000000" stroke-opacity="1" stroke-width="3.2"></circle>
<circle clip-path="url(#clip882)" cx="2067.48" cy="380.544" r="14.4" fill="#009af9" fill-rule="evenodd" fill-opacity="1" stroke="#000000" stroke-opacity="1" stroke-width="3.2"></circle>
<circle clip-path="url(#clip882)" cx="2292.18" cy="219.025" r="14.4" fill="#009af9" fill-rule="evenodd" fill-opacity="1" stroke="#000000" stroke-opacity="1" stroke-width="3.2"></circle>
<polyline clip-path="url(#clip882)" style="stroke:#e26f46; stroke-linecap:round; stroke-linejoin:round; stroke-width:4; stroke-opacity:1; fill:none" points="
  273.033,1343.49 479.108,1232.13 708.527,1108.16 942.136,981.93 1168.01,859.876 1394.26,737.623 1618.23,616.597 1843.02,495.131 2067.48,373.841 2292.18,252.42 
  
  "></polyline>
</svg>