<svg xmlns="http://www.w3.org/2000/svg" xmlns:xlink="http://www.w3.org/1999/xlink" width="600" height="400" viewBox="0 0 2400 1600">
<defs>
  <clipPath id="clip840">
    <rect x="0" y="0" width="2400" height="1600"></rect>
  </clipPath>
</defs>
<path clip-path="url(#clip840)" d="
M0 1600 L2400 1600 L2400 0 L0 0  Z
  " fill="#ffffff" fill-rule="evenodd" fill-opacity="1"></path>
<defs>
  <clipPath id="clip841">
    <rect x="480" y="0" width="1681" height="1600"></rect>
  </clipPath>
</defs>
<path clip-path="url(#clip840)" d="
M242.621 1423.18 L2352.76 1423.18 L2352.76 183.952 L242.621 183.952  Z
  " fill="#ffffff" fill-rule="evenodd" fill-opacity="1"></path>
<defs>
  <clipPath id="clip842">
    <rect x="242" y="183" width="2111" height="1240"></rect>
  </clipPath>
</defs>
<polyline clip-path="url(#clip842)" style="stroke:#000000; stroke-linecap:round; stroke-linejoin:round; stroke-width:2; stroke-opacity:0.1; fill:none" points="
  302.342,1423.18 302.342,183.952 
  "></polyline>
<polyline clip-path="url(#clip842)" style="stroke:#000000; stroke-linecap:round; stroke-linejoin:round; stroke-width:2; stroke-opacity:0.1; fill:none" points="
  800.015,1423.18 800.015,183.952 
  "></polyline>
<polyline clip-path="url(#clip842)" style="stroke:#000000; stroke-linecap:round; stroke-linejoin:round; stroke-width:2; stroke-opacity:0.1; fill:none" points="
  1297.69,1423.18 1297.69,183.952 
  "></polyline>
<polyline clip-path="url(#clip842)" style="stroke:#000000; stroke-linecap:round; stroke-linejoin:round; stroke-width:2; stroke-opacity:0.1; fill:none" points="
  1795.36,1423.18 1795.36,183.952 
  "></polyline>
<polyline clip-path="url(#clip842)" style="stroke:#000000; stroke-linecap:round; stroke-linejoin:round; stroke-width:2; stroke-opacity:0.1; fill:none" points="
  2293.04,1423.18 2293.04,183.952 
  "></polyline>
<polyline clip-path="url(#clip840)" style="stroke:#000000; stroke-linecap:round; stroke-linejoin:round; stroke-width:4; stroke-opacity:1; fill:none" points="
  242.621,1423.18 2352.76,1423.18 
  "></polyline>
<polyline clip-path="url(#clip840)" style="stroke:#000000; stroke-linecap:round; stroke-linejoin:round; stroke-width:4; stroke-opacity:1; fill:none" points="
  302.342,1423.18 302.342,1404.28 
  "></polyline>
<polyline clip-path="url(#clip840)" style="stroke:#000000; stroke-linecap:round; stroke-linejoin:round; stroke-width:4; stroke-opacity:1; fill:none" points="
  800.015,1423.18 800.015,1404.28 
  "></polyline>
<polyline clip-path="url(#clip840)" style="stroke:#000000; stroke-linecap:round; stroke-linejoin:round; stroke-width:4; stroke-opacity:1; fill:none" points="
  1297.69,1423.18 1297.69,1404.28 
  "></polyline>
<polyline clip-path="url(#clip840)" style="stroke:#000000; stroke-linecap:round; stroke-linejoin:round; stroke-width:4; stroke-opacity:1; fill:none" points="
  1795.36,1423.18 1795.36,1404.28 
  "></polyline>
<polyline clip-path="url(#clip840)" style="stroke:#000000; stroke-linecap:round; stroke-linejoin:round; stroke-width:4; stroke-opacity:1; fill:none" points="
  2293.04,1423.18 2293.04,1404.28 
  "></polyline>
<path clip-path="url(#clip840)" d="M269.495 1481.64 L277.133 1481.64 L277.133 1455.28 L268.823 1456.95 L268.823 1452.69 L277.087 1451.02 L281.763 1451.02 L281.763 1481.64 L289.402 1481.64 L289.402 1485.58 L269.495 1485.58 L269.495 1481.64 Z" fill="#000000" fill-rule="evenodd" fill-opacity="1"></path><path clip-path="url(#clip840)" d="M298.846 1479.7 L303.73 1479.7 L303.73 1485.58 L298.846 1485.58 L298.846 1479.7 Z" fill="#000000" fill-rule="evenodd" fill-opacity="1"></path><path clip-path="url(#clip840)" d="M323.916 1454.1 Q320.304 1454.1 318.476 1457.66 Q316.67 1461.2 316.67 1468.33 Q316.67 1475.44 318.476 1479.01 Q320.304 1482.55 323.916 1482.55 Q327.55 1482.55 329.355 1479.01 Q331.184 1475.44 331.184 1468.33 Q331.184 1461.2 329.355 1457.66 Q327.55 1454.1 323.916 1454.1 M323.916 1450.39 Q329.726 1450.39 332.781 1455 Q335.86 1459.58 335.86 1468.33 Q335.86 1477.06 332.781 1481.67 Q329.726 1486.25 323.916 1486.25 Q318.105 1486.25 315.027 1481.67 Q311.971 1477.06 311.971 1468.33 Q311.971 1459.58 315.027 1455 Q318.105 1450.39 323.916 1450.39 Z" fill="#000000" fill-rule="evenodd" fill-opacity="1"></path><path clip-path="url(#clip840)" d="M767.666 1481.64 L775.304 1481.64 L775.304 1455.28 L766.994 1456.95 L766.994 1452.69 L775.258 1451.02 L779.934 1451.02 L779.934 1481.64 L787.573 1481.64 L787.573 1485.58 L767.666 1485.58 L767.666 1481.64 Z" fill="#000000" fill-rule="evenodd" fill-opacity="1"></path><path clip-path="url(#clip840)" d="M797.017 1479.7 L801.902 1479.7 L801.902 1485.58 L797.017 1485.58 L797.017 1479.7 Z" fill="#000000" fill-rule="evenodd" fill-opacity="1"></path><path clip-path="url(#clip840)" d="M812.133 1451.02 L830.489 1451.02 L830.489 1454.96 L816.415 1454.96 L816.415 1463.43 Q817.434 1463.08 818.452 1462.92 Q819.471 1462.73 820.489 1462.73 Q826.276 1462.73 829.656 1465.9 Q833.036 1469.08 833.036 1474.49 Q833.036 1480.07 829.563 1483.17 Q826.091 1486.25 819.772 1486.25 Q817.596 1486.25 815.327 1485.88 Q813.082 1485.51 810.675 1484.77 L810.675 1480.07 Q812.758 1481.2 814.98 1481.76 Q817.202 1482.32 819.679 1482.32 Q823.684 1482.32 826.022 1480.21 Q828.36 1478.1 828.36 1474.49 Q828.36 1470.88 826.022 1468.77 Q823.684 1466.67 819.679 1466.67 Q817.804 1466.67 815.929 1467.08 Q814.077 1467.5 812.133 1468.38 L812.133 1451.02 Z" fill="#000000" fill-rule="evenodd" fill-opacity="1"></path><path clip-path="url(#clip840)" d="M1268.93 1481.64 L1285.25 1481.64 L1285.25 1485.58 L1263.3 1485.58 L1263.3 1481.64 Q1265.96 1478.89 1270.55 1474.26 Q1275.15 1469.61 1276.33 1468.27 Q1278.58 1465.74 1279.46 1464.01 Q1280.36 1462.25 1280.36 1460.56 Q1280.36 1457.8 1278.42 1456.07 Q1276.5 1454.33 1273.39 1454.33 Q1271.2 1454.33 1268.74 1455.09 Q1266.31 1455.86 1263.53 1457.41 L1263.53 1452.69 Q1266.36 1451.55 1268.81 1450.97 Q1271.26 1450.39 1273.3 1450.39 Q1278.67 1450.39 1281.87 1453.08 Q1285.06 1455.77 1285.06 1460.26 Q1285.06 1462.39 1284.25 1464.31 Q1283.46 1466.2 1281.36 1468.8 Q1280.78 1469.47 1277.68 1472.69 Q1274.58 1475.88 1268.93 1481.64 Z" fill="#000000" fill-rule="evenodd" fill-opacity="1"></path><path clip-path="url(#clip840)" d="M1295.06 1479.7 L1299.95 1479.7 L1299.95 1485.58 L1295.06 1485.58 L1295.06 1479.7 Z" fill="#000000" fill-rule="evenodd" fill-opacity="1"></path><path clip-path="url(#clip840)" d="M1320.13 1454.1 Q1316.52 1454.1 1314.69 1457.66 Q1312.89 1461.2 1312.89 1468.33 Q1312.89 1475.44 1314.69 1479.01 Q1316.52 1482.55 1320.13 1482.55 Q1323.76 1482.55 1325.57 1479.01 Q1327.4 1475.44 1327.4 1468.33 Q1327.4 1461.2 1325.57 1457.66 Q1323.76 1454.1 1320.13 1454.1 M1320.13 1450.39 Q1325.94 1450.39 1329 1455 Q1332.07 1459.58 1332.07 1468.33 Q1332.07 1477.06 1329 1481.67 Q1325.94 1486.25 1320.13 1486.25 Q1314.32 1486.25 1311.24 1481.67 Q1308.19 1477.06 1308.19 1468.33 Q1308.19 1459.58 1311.24 1455 Q1314.32 1450.39 1320.13 1450.39 Z" fill="#000000" fill-rule="evenodd" fill-opacity="1"></path><path clip-path="url(#clip840)" d="M1767.1 1481.64 L1783.42 1481.64 L1783.42 1485.58 L1761.47 1485.58 L1761.47 1481.64 Q1764.14 1478.89 1768.72 1474.26 Q1773.32 1469.61 1774.51 1468.27 Q1776.75 1465.74 1777.63 1464.01 Q1778.53 1462.25 1778.53 1460.56 Q1778.53 1457.8 1776.59 1456.07 Q1774.67 1454.33 1771.57 1454.33 Q1769.37 1454.33 1766.91 1455.09 Q1764.48 1455.86 1761.7 1457.41 L1761.7 1452.69 Q1764.53 1451.55 1766.98 1450.97 Q1769.44 1450.39 1771.47 1450.39 Q1776.84 1450.39 1780.04 1453.08 Q1783.23 1455.77 1783.23 1460.26 Q1783.23 1462.39 1782.42 1464.31 Q1781.63 1466.2 1779.53 1468.8 Q1778.95 1469.47 1775.85 1472.69 Q1772.75 1475.88 1767.1 1481.64 Z" fill="#000000" fill-rule="evenodd" fill-opacity="1"></path><path clip-path="url(#clip840)" d="M1793.23 1479.7 L1798.12 1479.7 L1798.12 1485.58 L1793.23 1485.58 L1793.23 1479.7 Z" fill="#000000" fill-rule="evenodd" fill-opacity="1"></path><path clip-path="url(#clip840)" d="M1808.35 1451.02 L1826.7 1451.02 L1826.7 1454.96 L1812.63 1454.96 L1812.63 1463.43 Q1813.65 1463.08 1814.67 1462.92 Q1815.69 1462.73 1816.7 1462.73 Q1822.49 1462.73 1825.87 1465.9 Q1829.25 1469.08 1829.25 1474.49 Q1829.25 1480.07 1825.78 1483.17 Q1822.31 1486.25 1815.99 1486.25 Q1813.81 1486.25 1811.54 1485.88 Q1809.3 1485.51 1806.89 1484.77 L1806.89 1480.07 Q1808.97 1481.2 1811.19 1481.76 Q1813.42 1482.32 1815.89 1482.32 Q1819.9 1482.32 1822.24 1480.21 Q1824.57 1478.1 1824.57 1474.49 Q1824.57 1470.88 1822.24 1468.77 Q1819.9 1466.67 1815.89 1466.67 Q1814.02 1466.67 1812.14 1467.08 Q1810.29 1467.5 1808.35 1468.38 L1808.35 1451.02 Z" fill="#000000" fill-rule="evenodd" fill-opacity="1"></path><path clip-path="url(#clip840)" d="M2274.34 1466.95 Q2277.7 1467.66 2279.57 1469.93 Q2281.47 1472.2 2281.47 1475.53 Q2281.47 1480.65 2277.95 1483.45 Q2274.44 1486.25 2267.95 1486.25 Q2265.78 1486.25 2263.46 1485.81 Q2261.17 1485.39 2258.72 1484.54 L2258.72 1480.02 Q2260.66 1481.16 2262.98 1481.74 Q2265.29 1482.32 2267.82 1482.32 Q2272.21 1482.32 2274.51 1480.58 Q2276.82 1478.84 2276.82 1475.53 Q2276.82 1472.48 2274.67 1470.77 Q2272.54 1469.03 2268.72 1469.03 L2264.69 1469.03 L2264.69 1465.19 L2268.9 1465.19 Q2272.35 1465.19 2274.18 1463.82 Q2276.01 1462.43 2276.01 1459.84 Q2276.01 1457.18 2274.11 1455.77 Q2272.24 1454.33 2268.72 1454.33 Q2266.8 1454.33 2264.6 1454.75 Q2262.4 1455.16 2259.76 1456.04 L2259.76 1451.88 Q2262.42 1451.14 2264.74 1450.77 Q2267.07 1450.39 2269.13 1450.39 Q2274.46 1450.39 2277.56 1452.83 Q2280.66 1455.23 2280.66 1459.35 Q2280.66 1462.22 2279.02 1464.21 Q2277.38 1466.18 2274.34 1466.95 Z" fill="#000000" fill-rule="evenodd" fill-opacity="1"></path><path clip-path="url(#clip840)" d="M2290.34 1479.7 L2295.22 1479.7 L2295.22 1485.58 L2290.34 1485.58 L2290.34 1479.7 Z" fill="#000000" fill-rule="evenodd" fill-opacity="1"></path><path clip-path="url(#clip840)" d="M2315.41 1454.1 Q2311.8 1454.1 2309.97 1457.66 Q2308.16 1461.2 2308.16 1468.33 Q2308.16 1475.44 2309.97 1479.01 Q2311.8 1482.55 2315.41 1482.55 Q2319.04 1482.55 2320.85 1479.01 Q2322.68 1475.44 2322.68 1468.33 Q2322.68 1461.2 2320.85 1457.66 Q2319.04 1454.1 2315.41 1454.1 M2315.41 1450.39 Q2321.22 1450.39 2324.27 1455 Q2327.35 1459.58 2327.35 1468.33 Q2327.35 1477.06 2324.27 1481.67 Q2321.22 1486.25 2315.41 1486.25 Q2309.6 1486.25 2306.52 1481.67 Q2303.46 1477.06 2303.46 1468.33 Q2303.46 1459.58 2306.52 1455 Q2309.6 1450.39 2315.41 1450.39 Z" fill="#000000" fill-rule="evenodd" fill-opacity="1"></path><path clip-path="url(#clip840)" d="M1146.3 1518.52 L1152.15 1518.52 L1152.15 1568.04 L1146.3 1568.04 L1146.3 1518.52 Z" fill="#000000" fill-rule="evenodd" fill-opacity="1"></path><path clip-path="url(#clip840)" d="M1178.22 1536.5 Q1173.51 1536.5 1170.77 1540.19 Q1168.03 1543.85 1168.03 1550.25 Q1168.03 1556.65 1170.74 1560.34 Q1173.48 1564 1178.22 1564 Q1182.9 1564 1185.64 1560.31 Q1188.37 1556.62 1188.37 1550.25 Q1188.37 1543.92 1185.64 1540.23 Q1182.9 1536.5 1178.22 1536.5 M1178.22 1531.54 Q1185.86 1531.54 1190.22 1536.5 Q1194.58 1541.47 1194.58 1550.25 Q1194.58 1559 1190.22 1564 Q1185.86 1568.97 1178.22 1568.97 Q1170.55 1568.97 1166.19 1564 Q1161.86 1559 1161.86 1550.25 Q1161.86 1541.47 1166.19 1536.5 Q1170.55 1531.54 1178.22 1531.54 Z" fill="#000000" fill-rule="evenodd" fill-opacity="1"></path><path clip-path="url(#clip840)" d="M1227.75 1549.81 Q1227.75 1543.44 1225.1 1539.94 Q1222.49 1536.44 1217.75 1536.44 Q1213.04 1536.44 1210.4 1539.94 Q1207.79 1543.44 1207.79 1549.81 Q1207.79 1556.14 1210.4 1559.64 Q1213.04 1563.14 1217.75 1563.14 Q1222.49 1563.14 1225.1 1559.64 Q1227.75 1556.14 1227.75 1549.81 M1233.6 1563.62 Q1233.6 1572.72 1229.56 1577.15 Q1225.52 1581.6 1217.18 1581.6 Q1214.09 1581.6 1211.35 1581.13 Q1208.62 1580.68 1206.04 1579.72 L1206.04 1574.03 Q1208.62 1575.43 1211.13 1576.1 Q1213.65 1576.76 1216.26 1576.76 Q1222.02 1576.76 1224.88 1573.74 Q1227.75 1570.75 1227.75 1564.67 L1227.75 1561.77 Q1225.93 1564.92 1223.1 1566.48 Q1220.27 1568.04 1216.32 1568.04 Q1209.76 1568.04 1205.75 1563.05 Q1201.74 1558.05 1201.74 1549.81 Q1201.74 1541.53 1205.75 1536.53 Q1209.76 1531.54 1216.32 1531.54 Q1220.27 1531.54 1223.1 1533.1 Q1225.93 1534.66 1227.75 1537.81 L1227.75 1532.4 L1233.6 1532.4 L1233.6 1563.62 Z" fill="#000000" fill-rule="evenodd" fill-opacity="1"></path><path clip-path="url(#clip840)" d="M1272.75 1578.87 L1272.75 1583.42 L1238.89 1583.42 L1238.89 1578.87 L1272.75 1578.87 Z" fill="#000000" fill-rule="evenodd" fill-opacity="1"></path><path clip-path="url(#clip840)" d="M1280.2 1562.63 L1290.7 1562.63 L1290.7 1526.38 L1279.28 1528.67 L1279.28 1522.82 L1290.64 1520.52 L1297.07 1520.52 L1297.07 1562.63 L1307.57 1562.63 L1307.57 1568.04 L1280.2 1568.04 L1280.2 1562.63 Z" fill="#000000" fill-rule="evenodd" fill-opacity="1"></path><path clip-path="url(#clip840)" d="M1334.31 1524.76 Q1329.34 1524.76 1326.83 1529.66 Q1324.34 1534.53 1324.34 1544.33 Q1324.34 1554.1 1326.83 1559 Q1329.34 1563.87 1334.31 1563.87 Q1339.3 1563.87 1341.79 1559 Q1344.3 1554.1 1344.3 1544.33 Q1344.3 1534.53 1341.79 1529.66 Q1339.3 1524.76 1334.31 1524.76 M1334.31 1519.66 Q1342.3 1519.66 1346.5 1526 Q1350.73 1532.3 1350.73 1544.33 Q1350.73 1556.33 1346.5 1562.66 Q1342.3 1568.97 1334.31 1568.97 Q1326.32 1568.97 1322.08 1562.66 Q1317.88 1556.33 1317.88 1544.33 Q1317.88 1532.3 1322.08 1526 Q1326.32 1519.66 1334.31 1519.66 Z" fill="#000000" fill-rule="evenodd" fill-opacity="1"></path><path clip-path="url(#clip840)" d="M1375.27 1518.58 Q1371.01 1525.9 1368.94 1533.06 Q1366.87 1540.23 1366.87 1547.58 Q1366.87 1554.93 1368.94 1562.16 Q1371.04 1569.35 1375.27 1576.64 L1370.18 1576.64 Q1365.4 1569.16 1363.02 1561.93 Q1360.66 1554.71 1360.66 1547.58 Q1360.66 1540.48 1363.02 1533.29 Q1365.37 1526.09 1370.18 1518.58 L1375.27 1518.58 Z" fill="#000000" fill-rule="evenodd" fill-opacity="1"></path><path clip-path="url(#clip840)" d="M1386.89 1520.52 L1395.55 1520.52 L1416.62 1560.28 L1416.62 1520.52 L1422.85 1520.52 L1422.85 1568.04 L1414.2 1568.04 L1393.13 1528.29 L1393.13 1568.04 L1386.89 1568.04 L1386.89 1520.52 Z" fill="#000000" fill-rule="evenodd" fill-opacity="1"></path><path clip-path="url(#clip840)" d="M1434.47 1518.58 L1439.56 1518.58 Q1444.34 1526.09 1446.69 1533.29 Q1449.08 1540.48 1449.08 1547.58 Q1449.08 1554.71 1446.69 1561.93 Q1444.34 1569.16 1439.56 1576.64 L1434.47 1576.64 Q1438.7 1569.35 1440.77 1562.16 Q1442.87 1554.93 1442.87 1547.58 Q1442.87 1540.23 1440.77 1533.06 Q1438.7 1525.9 1434.47 1518.58 Z" fill="#000000" fill-rule="evenodd" fill-opacity="1"></path><polyline clip-path="url(#clip842)" style="stroke:#000000; stroke-linecap:round; stroke-linejoin:round; stroke-width:2; stroke-opacity:0.1; fill:none" points="
  242.621,1316.65 2352.76,1316.65 
  "></polyline>
<polyline clip-path="url(#clip842)" style="stroke:#000000; stroke-linecap:round; stroke-linejoin:round; stroke-width:2; stroke-opacity:0.1; fill:none" points="
  242.621,1051.1 2352.76,1051.1 
  "></polyline>
<polyline clip-path="url(#clip842)" style="stroke:#000000; stroke-linecap:round; stroke-linejoin:round; stroke-width:2; stroke-opacity:0.1; fill:none" points="
  242.621,785.545 2352.76,785.545 
  "></polyline>
<polyline clip-path="url(#clip842)" style="stroke:#000000; stroke-linecap:round; stroke-linejoin:round; stroke-width:2; stroke-opacity:0.1; fill:none" points="
  242.621,519.993 2352.76,519.993 
  "></polyline>
<polyline clip-path="url(#clip842)" style="stroke:#000000; stroke-linecap:round; stroke-linejoin:round; stroke-width:2; stroke-opacity:0.1; fill:none" points="
  242.621,254.441 2352.76,254.441 
  "></polyline>
<polyline clip-path="url(#clip840)" style="stroke:#000000; stroke-linecap:round; stroke-linejoin:round; stroke-width:4; stroke-opacity:1; fill:none" points="
  242.621,1423.18 242.621,183.952 
  "></polyline>
<polyline clip-path="url(#clip840)" style="stroke:#000000; stroke-linecap:round; stroke-linejoin:round; stroke-width:4; stroke-opacity:1; fill:none" points="
  242.621,1316.65 261.518,1316.65 
  "></polyline>
<polyline clip-path="url(#clip840)" style="stroke:#000000; stroke-linecap:round; stroke-linejoin:round; stroke-width:4; stroke-opacity:1; fill:none" points="
  242.621,1051.1 261.518,1051.1 
  "></polyline>
<polyline clip-path="url(#clip840)" style="stroke:#000000; stroke-linecap:round; stroke-linejoin:round; stroke-width:4; stroke-opacity:1; fill:none" points="
  242.621,785.545 261.518,785.545 
  "></polyline>
<polyline clip-path="url(#clip840)" style="stroke:#000000; stroke-linecap:round; stroke-linejoin:round; stroke-width:4; stroke-opacity:1; fill:none" points="
  242.621,519.993 261.518,519.993 
  "></polyline>
<polyline clip-path="url(#clip840)" style="stroke:#000000; stroke-linecap:round; stroke-linejoin:round; stroke-width:4; stroke-opacity:1; fill:none" points="
  242.621,254.441 261.518,254.441 
  "></polyline>
<path clip-path="url(#clip840)" d="M114.746 1317.1 L144.422 1317.1 L144.422 1321.04 L114.746 1321.04 L114.746 1317.1 Z" fill="#000000" fill-rule="evenodd" fill-opacity="1"></path><path clip-path="url(#clip840)" d="M168.681 1315.3 Q172.038 1316.01 173.913 1318.28 Q175.811 1320.55 175.811 1323.88 Q175.811 1329 172.292 1331.8 Q168.774 1334.6 162.292 1334.6 Q160.116 1334.6 157.802 1334.16 Q155.51 1333.74 153.056 1332.89 L153.056 1328.37 Q155.001 1329.51 157.315 1330.09 Q159.63 1330.67 162.153 1330.67 Q166.552 1330.67 168.843 1328.93 Q171.158 1327.19 171.158 1323.88 Q171.158 1320.83 169.005 1319.11 Q166.876 1317.38 163.056 1317.38 L159.028 1317.38 L159.028 1313.54 L163.241 1313.54 Q166.69 1313.54 168.519 1312.17 Q170.348 1310.78 170.348 1308.19 Q170.348 1305.53 168.45 1304.11 Q166.575 1302.68 163.056 1302.68 Q161.135 1302.68 158.936 1303.1 Q156.737 1303.51 154.098 1304.39 L154.098 1300.23 Q156.76 1299.49 159.075 1299.11 Q161.413 1298.74 163.473 1298.74 Q168.797 1298.74 171.899 1301.18 Q175.001 1303.58 175.001 1307.7 Q175.001 1310.57 173.357 1312.56 Q171.714 1314.53 168.681 1315.3 Z" fill="#000000" fill-rule="evenodd" fill-opacity="1"></path><path clip-path="url(#clip840)" d="M194.676 1302.45 Q191.065 1302.45 189.237 1306.01 Q187.431 1309.55 187.431 1316.68 Q187.431 1323.79 189.237 1327.36 Q191.065 1330.9 194.676 1330.9 Q198.311 1330.9 200.116 1327.36 Q201.945 1323.79 201.945 1316.68 Q201.945 1309.55 200.116 1306.01 Q198.311 1302.45 194.676 1302.45 M194.676 1298.74 Q200.487 1298.74 203.542 1303.35 Q206.621 1307.93 206.621 1316.68 Q206.621 1325.41 203.542 1330.02 Q200.487 1334.6 194.676 1334.6 Q188.866 1334.6 185.788 1330.02 Q182.732 1325.41 182.732 1316.68 Q182.732 1307.93 185.788 1303.35 Q188.866 1298.74 194.676 1298.74 Z" fill="#000000" fill-rule="evenodd" fill-opacity="1"></path><path clip-path="url(#clip840)" d="M114.839 1051.55 L144.515 1051.55 L144.515 1055.48 L114.839 1055.48 L114.839 1051.55 Z" fill="#000000" fill-rule="evenodd" fill-opacity="1"></path><path clip-path="url(#clip840)" d="M158.635 1064.44 L174.954 1064.44 L174.954 1068.38 L153.01 1068.38 L153.01 1064.44 Q155.672 1061.69 160.255 1057.06 Q164.862 1052.41 166.042 1051.06 Q168.288 1048.54 169.167 1046.8 Q170.07 1045.04 170.07 1043.35 Q170.07 1040.6 168.126 1038.86 Q166.204 1037.13 163.102 1037.13 Q160.903 1037.13 158.45 1037.89 Q156.019 1038.66 153.241 1040.21 L153.241 1035.48 Q156.065 1034.35 158.519 1033.77 Q160.973 1033.19 163.01 1033.19 Q168.38 1033.19 171.575 1035.88 Q174.769 1038.56 174.769 1043.05 Q174.769 1045.18 173.959 1047.1 Q173.172 1049 171.065 1051.6 Q170.487 1052.27 167.385 1055.48 Q164.283 1058.68 158.635 1064.44 Z" fill="#000000" fill-rule="evenodd" fill-opacity="1"></path><path clip-path="url(#clip840)" d="M194.769 1051.97 Q191.436 1051.97 189.514 1053.75 Q187.616 1055.53 187.616 1058.66 Q187.616 1061.78 189.514 1063.56 Q191.436 1065.34 194.769 1065.34 Q198.102 1065.34 200.024 1063.56 Q201.945 1061.76 201.945 1058.66 Q201.945 1055.53 200.024 1053.75 Q198.125 1051.97 194.769 1051.97 M190.093 1049.97 Q187.084 1049.23 185.394 1047.17 Q183.727 1045.11 183.727 1042.15 Q183.727 1038.01 186.667 1035.6 Q189.63 1033.19 194.769 1033.19 Q199.931 1033.19 202.871 1035.6 Q205.811 1038.01 205.811 1042.15 Q205.811 1045.11 204.121 1047.17 Q202.454 1049.23 199.468 1049.97 Q202.848 1050.76 204.723 1053.05 Q206.621 1055.35 206.621 1058.66 Q206.621 1063.68 203.542 1066.36 Q200.487 1069.05 194.769 1069.05 Q189.051 1069.05 185.973 1066.36 Q182.917 1063.68 182.917 1058.66 Q182.917 1055.35 184.815 1053.05 Q186.713 1050.76 190.093 1049.97 M188.38 1042.59 Q188.38 1045.28 190.047 1046.78 Q191.737 1048.28 194.769 1048.28 Q197.778 1048.28 199.468 1046.78 Q201.181 1045.28 201.181 1042.59 Q201.181 1039.91 199.468 1038.4 Q197.778 1036.9 194.769 1036.9 Q191.737 1036.9 190.047 1038.4 Q188.38 1039.91 188.38 1042.59 Z" fill="#000000" fill-rule="evenodd" fill-opacity="1"></path><path clip-path="url(#clip840)" d="M114.584 785.997 L144.26 785.997 L144.26 789.932 L114.584 789.932 L114.584 785.997 Z" fill="#000000" fill-rule="evenodd" fill-opacity="1"></path><path clip-path="url(#clip840)" d="M158.38 798.89 L174.7 798.89 L174.7 802.825 L152.755 802.825 L152.755 798.89 Q155.417 796.135 160.001 791.506 Q164.607 786.853 165.788 785.511 Q168.033 782.987 168.913 781.251 Q169.815 779.492 169.815 777.802 Q169.815 775.048 167.871 773.312 Q165.95 771.575 162.848 771.575 Q160.649 771.575 158.195 772.339 Q155.765 773.103 152.987 774.654 L152.987 769.932 Q155.811 768.798 158.265 768.219 Q160.718 767.64 162.755 767.64 Q168.126 767.64 171.32 770.325 Q174.514 773.011 174.514 777.501 Q174.514 779.631 173.704 781.552 Q172.917 783.45 170.811 786.043 Q170.232 786.714 167.13 789.932 Q164.028 793.126 158.38 798.89 Z" fill="#000000" fill-rule="evenodd" fill-opacity="1"></path><path clip-path="url(#clip840)" d="M195.093 783.682 Q191.945 783.682 190.093 785.835 Q188.264 787.987 188.264 791.737 Q188.264 795.464 190.093 797.64 Q191.945 799.793 195.093 799.793 Q198.241 799.793 200.07 797.64 Q201.922 795.464 201.922 791.737 Q201.922 787.987 200.07 785.835 Q198.241 783.682 195.093 783.682 M204.375 769.029 L204.375 773.288 Q202.616 772.455 200.811 772.015 Q199.028 771.575 197.269 771.575 Q192.639 771.575 190.186 774.7 Q187.755 777.825 187.408 784.145 Q188.774 782.131 190.834 781.066 Q192.894 779.978 195.371 779.978 Q200.579 779.978 203.588 783.149 Q206.621 786.298 206.621 791.737 Q206.621 797.061 203.473 800.279 Q200.325 803.497 195.093 803.497 Q189.098 803.497 185.926 798.913 Q182.755 794.307 182.755 785.58 Q182.755 777.386 186.644 772.524 Q190.533 767.64 197.084 767.64 Q198.843 767.64 200.625 767.987 Q202.431 768.335 204.375 769.029 Z" fill="#000000" fill-rule="evenodd" fill-opacity="1"></path><path clip-path="url(#clip840)" d="M114.26 520.445 L143.936 520.445 L143.936 524.38 L114.26 524.38 L114.26 520.445 Z" fill="#000000" fill-rule="evenodd" fill-opacity="1"></path><path clip-path="url(#clip840)" d="M158.056 533.338 L174.376 533.338 L174.376 537.273 L152.431 537.273 L152.431 533.338 Q155.093 530.583 159.677 525.954 Q164.283 521.301 165.464 519.958 Q167.709 517.435 168.589 515.699 Q169.491 513.94 169.491 512.25 Q169.491 509.496 167.547 507.759 Q165.626 506.023 162.524 506.023 Q160.325 506.023 157.871 506.787 Q155.44 507.551 152.663 509.102 L152.663 504.38 Q155.487 503.246 157.94 502.667 Q160.394 502.088 162.431 502.088 Q167.802 502.088 170.996 504.773 Q174.19 507.458 174.19 511.949 Q174.19 514.079 173.38 516 Q172.593 517.898 170.487 520.491 Q169.908 521.162 166.806 524.38 Q163.704 527.574 158.056 533.338 Z" fill="#000000" fill-rule="evenodd" fill-opacity="1"></path><path clip-path="url(#clip840)" d="M197.037 506.787 L185.232 525.236 L197.037 525.236 L197.037 506.787 M195.811 502.713 L201.69 502.713 L201.69 525.236 L206.621 525.236 L206.621 529.125 L201.69 529.125 L201.69 537.273 L197.037 537.273 L197.037 529.125 L181.436 529.125 L181.436 524.611 L195.811 502.713 Z" fill="#000000" fill-rule="evenodd" fill-opacity="1"></path><path clip-path="url(#clip840)" d="M116.343 254.892 L146.019 254.892 L146.019 258.828 L116.343 258.828 L116.343 254.892 Z" fill="#000000" fill-rule="evenodd" fill-opacity="1"></path><path clip-path="url(#clip840)" d="M160.14 267.786 L176.459 267.786 L176.459 271.721 L154.515 271.721 L154.515 267.786 Q157.177 265.031 161.76 260.402 Q166.366 255.749 167.547 254.406 Q169.792 251.883 170.672 250.147 Q171.575 248.388 171.575 246.698 Q171.575 243.943 169.63 242.207 Q167.709 240.471 164.607 240.471 Q162.408 240.471 159.954 241.235 Q157.524 241.999 154.746 243.55 L154.746 238.828 Q157.57 237.693 160.024 237.115 Q162.477 236.536 164.515 236.536 Q169.885 236.536 173.079 239.221 Q176.274 241.906 176.274 246.397 Q176.274 248.527 175.464 250.448 Q174.677 252.346 172.57 254.939 Q171.991 255.61 168.889 258.828 Q165.788 262.022 160.14 267.786 Z" fill="#000000" fill-rule="evenodd" fill-opacity="1"></path><path clip-path="url(#clip840)" d="M190.301 267.786 L206.621 267.786 L206.621 271.721 L184.676 271.721 L184.676 267.786 Q187.338 265.031 191.922 260.402 Q196.528 255.749 197.709 254.406 Q199.954 251.883 200.834 250.147 Q201.737 248.388 201.737 246.698 Q201.737 243.943 199.792 242.207 Q197.871 240.471 194.769 240.471 Q192.57 240.471 190.116 241.235 Q187.686 241.999 184.908 243.55 L184.908 238.828 Q187.732 237.693 190.186 237.115 Q192.639 236.536 194.676 236.536 Q200.047 236.536 203.241 239.221 Q206.436 241.906 206.436 246.397 Q206.436 248.527 205.625 250.448 Q204.838 252.346 202.732 254.939 Q202.153 255.61 199.051 258.828 Q195.95 262.022 190.301 267.786 Z" fill="#000000" fill-rule="evenodd" fill-opacity="1"></path><path clip-path="url(#clip840)" d="M14.479 1095.34 L14.479 1089.48 L64.0042 1089.48 L64.0042 1095.34 L14.479 1095.34 Z" fill="#000000" fill-rule="evenodd" fill-opacity="1"></path><path clip-path="url(#clip840)" d="M32.4621 1063.41 Q32.4621 1068.12 36.1542 1070.86 Q39.8145 1073.6 46.212 1073.6 Q52.6095 1073.6 56.3017 1070.89 Q59.9619 1068.16 59.9619 1063.41 Q59.9619 1058.74 56.2698 1056 Q52.5777 1053.26 46.212 1053.26 Q39.8781 1053.26 36.186 1056 Q32.4621 1058.74 32.4621 1063.41 M27.4968 1063.41 Q27.4968 1055.78 32.4621 1051.41 Q37.4273 1047.05 46.212 1047.05 Q54.9649 1047.05 59.9619 1051.41 Q64.9272 1055.78 64.9272 1063.41 Q64.9272 1071.08 59.9619 1075.45 Q54.9649 1079.77 46.212 1079.77 Q37.4273 1079.77 32.4621 1075.45 Q27.4968 1071.08 27.4968 1063.41 Z" fill="#000000" fill-rule="evenodd" fill-opacity="1"></path><path clip-path="url(#clip840)" d="M45.7664 1013.89 Q39.4007 1013.89 35.8996 1016.53 Q32.3984 1019.14 32.3984 1023.88 Q32.3984 1028.59 35.8996 1031.24 Q39.4007 1033.85 45.7664 1033.85 Q52.1003 1033.85 55.6014 1031.24 Q59.1026 1028.59 59.1026 1023.88 Q59.1026 1019.14 55.6014 1016.53 Q52.1003 1013.89 45.7664 1013.89 M59.58 1008.03 Q68.683 1008.03 73.1071 1012.07 Q77.5631 1016.12 77.5631 1024.46 Q77.5631 1027.54 77.0857 1030.28 Q76.6401 1033.02 75.6852 1035.6 L69.9879 1035.6 Q71.3884 1033.02 72.0568 1030.5 Q72.7252 1027.99 72.7252 1025.38 Q72.7252 1019.62 69.7015 1016.75 Q66.7096 1013.89 60.6303 1013.89 L57.7339 1013.89 Q60.885 1015.7 62.4446 1018.54 Q64.0042 1021.37 64.0042 1025.32 Q64.0042 1031.87 59.0071 1035.88 Q54.01 1039.89 45.7664 1039.89 Q37.491 1039.89 32.4939 1035.88 Q27.4968 1031.87 27.4968 1025.32 Q27.4968 1021.37 29.0564 1018.54 Q30.616 1015.7 33.7671 1013.89 L28.3562 1013.89 L28.3562 1008.03 L59.58 1008.03 Z" fill="#000000" fill-rule="evenodd" fill-opacity="1"></path><path clip-path="url(#clip840)" d="M74.8259 968.883 L79.3773 968.883 L79.3773 1002.75 L74.8259 1002.75 L74.8259 968.883 Z" fill="#000000" fill-rule="evenodd" fill-opacity="1"></path><path clip-path="url(#clip840)" d="M58.5933 961.436 L58.5933 950.932 L22.3406 950.932 L24.6323 962.359 L18.7758 962.359 L16.4842 950.996 L16.4842 944.566 L58.5933 944.566 L58.5933 934.063 L64.0042 934.063 L64.0042 961.436 L58.5933 961.436 Z" fill="#000000" fill-rule="evenodd" fill-opacity="1"></path><path clip-path="url(#clip840)" d="M20.7174 907.327 Q20.7174 912.292 25.6189 914.807 Q30.4887 917.289 40.2919 917.289 Q50.0633 917.289 54.9649 914.807 Q59.8346 912.292 59.8346 907.327 Q59.8346 902.33 54.9649 899.847 Q50.0633 897.333 40.2919 897.333 Q30.4887 897.333 25.6189 899.847 Q20.7174 902.33 20.7174 907.327 M15.6248 907.327 Q15.6248 899.338 21.9587 895.137 Q28.2607 890.903 40.2919 890.903 Q52.2913 890.903 58.6251 895.137 Q64.9272 899.338 64.9272 907.327 Q64.9272 915.316 58.6251 919.549 Q52.2913 923.751 40.2919 923.751 Q28.2607 923.751 21.9587 919.549 Q15.6248 915.316 15.6248 907.327 Z" fill="#000000" fill-rule="evenodd" fill-opacity="1"></path><path clip-path="url(#clip840)" d="M14.5426 866.364 Q21.8632 870.629 29.0246 872.698 Q36.186 874.766 43.5384 874.766 Q50.8908 874.766 58.1159 872.698 Q65.3091 870.597 72.5979 866.364 L72.5979 871.456 Q65.1182 876.231 57.8931 878.618 Q50.668 880.973 43.5384 880.973 Q36.4406 880.973 29.2474 878.618 Q22.0542 876.262 14.5426 871.456 L14.5426 866.364 Z" fill="#000000" fill-rule="evenodd" fill-opacity="1"></path><path clip-path="url(#clip840)" d="M14.1925 847.458 L79.3773 847.458 L79.3773 852.868 L14.1925 852.868 L14.1925 847.458 Z" fill="#000000" fill-rule="evenodd" fill-opacity="1"></path><path clip-path="url(#clip840)" d="M22.818 816.902 L46.4666 825.623 L46.4666 808.149 L22.818 816.902 M16.4842 820.531 L16.4842 813.242 L64.0042 795.131 L64.0042 801.815 L51.8138 806.144 L51.8138 827.565 L64.0042 831.893 L64.0042 838.673 L16.4842 820.531 Z" fill="#000000" fill-rule="evenodd" fill-opacity="1"></path><path clip-path="url(#clip840)" d="M28.3562 758.815 L45.7028 771.706 L64.0042 758.147 L64.0042 765.053 L49.9996 775.43 L64.0042 785.806 L64.0042 792.712 L45.3526 778.867 L28.3562 791.535 L28.3562 784.628 L41.0558 775.175 L28.3562 765.722 L28.3562 758.815 Z" fill="#000000" fill-rule="evenodd" fill-opacity="1"></path><path clip-path="url(#clip840)" d="M43.5384 732.111 L43.5384 714.955 L48.7583 714.955 L48.7583 732.111 L43.5384 732.111 Z" fill="#000000" fill-rule="evenodd" fill-opacity="1"></path><path clip-path="url(#clip840)" d="M46.212 659.319 Q39.7508 659.319 36.0905 661.993 Q32.3984 664.634 32.3984 669.281 Q32.3984 673.928 36.0905 676.602 Q39.7508 679.244 46.212 679.244 Q52.6732 679.244 56.3653 676.602 Q60.0256 673.928 60.0256 669.281 Q60.0256 664.634 56.3653 661.993 Q52.6732 659.319 46.212 659.319 M33.7671 679.244 Q30.5842 677.398 29.0564 674.597 Q27.4968 671.764 27.4968 667.849 Q27.4968 661.356 32.6531 657.314 Q37.8093 653.24 46.212 653.24 Q54.6147 653.24 59.771 657.314 Q64.9272 661.356 64.9272 667.849 Q64.9272 671.764 63.3994 674.597 Q61.8398 677.398 58.657 679.244 L64.0042 679.244 L64.0042 685.132 L14.479 685.132 L14.479 679.244 L33.7671 679.244 Z" fill="#000000" fill-rule="evenodd" fill-opacity="1"></path><path clip-path="url(#clip840)" d="M14.1925 635.989 L79.3773 635.989 L79.3773 641.4 L14.1925 641.4 L14.1925 635.989 Z" fill="#000000" fill-rule="evenodd" fill-opacity="1"></path><path clip-path="url(#clip840)" d="M16.4842 597.285 L34.2127 580.002 L34.2127 586.4 L21.6404 600.404 L34.2127 614.409 L34.2127 620.807 L16.4842 603.524 L16.4842 597.285 Z" fill="#000000" fill-rule="evenodd" fill-opacity="1"></path><path clip-path="url(#clip840)" d="M58.5933 560.587 L58.5933 538.148 L64.0042 538.148 L64.0042 568.321 L58.5933 568.321 Q54.8057 564.661 48.44 558.359 Q42.0425 552.025 40.1964 550.402 Q36.7271 547.314 34.34 546.105 Q31.921 544.864 29.5975 544.864 Q25.8099 544.864 23.4228 547.537 Q21.0356 550.179 21.0356 554.444 Q21.0356 557.468 22.086 560.842 Q23.1363 564.184 25.2688 568.003 L18.7758 568.003 Q17.2162 564.12 16.4205 560.746 Q15.6248 557.372 15.6248 554.571 Q15.6248 547.187 19.3169 542.795 Q23.009 538.402 29.1837 538.402 Q32.112 538.402 34.7537 539.516 Q37.3637 540.599 40.9285 543.495 Q41.8515 544.291 46.2757 548.556 Q50.668 552.821 58.5933 560.587 Z" fill="#000000" fill-rule="evenodd" fill-opacity="1"></path><path clip-path="url(#clip840)" d="M14.5426 526.403 L14.5426 521.311 Q22.0542 516.536 29.2474 514.181 Q36.4406 511.794 43.5384 511.794 Q50.668 511.794 57.8931 514.181 Q65.1182 516.536 72.5979 521.311 L72.5979 526.403 Q65.3091 522.17 58.1159 520.101 Q50.8908 518 43.5384 518 Q36.186 518 29.0246 520.101 Q21.8632 522.17 14.5426 526.403 Z" fill="#000000" fill-rule="evenodd" fill-opacity="1"></path><path clip-path="url(#clip840)" d="M975.682 39.9885 L975.682 62.7141 L985.971 62.7141 Q991.683 62.7141 994.802 59.7569 Q997.921 56.7998 997.921 51.331 Q997.921 45.9028 994.802 42.9457 Q991.683 39.9885 985.971 39.9885 L975.682 39.9885 M967.499 33.264 L985.971 33.264 Q996.139 33.264 1001.32 37.882 Q1006.55 42.4596 1006.55 51.331 Q1006.55 60.2835 1001.32 64.8611 Q996.139 69.4386 985.971 69.4386 L975.682 69.4386 L975.682 93.744 L967.499 93.744 L967.499 33.264 Z" fill="#000000" fill-rule="evenodd" fill-opacity="1"></path><path clip-path="url(#clip840)" d="M1017.53 33.264 L1025.71 33.264 L1025.71 86.8575 L1055.16 86.8575 L1055.16 93.744 L1017.53 93.744 L1017.53 33.264 Z" fill="#000000" fill-rule="evenodd" fill-opacity="1"></path><path clip-path="url(#clip840)" d="M1058.68 33.264 L1066.91 33.264 L1066.91 70.0057 Q1066.91 79.7279 1070.43 84.0218 Q1073.96 88.2753 1081.86 88.2753 Q1089.71 88.2753 1093.24 84.0218 Q1096.76 79.7279 1096.76 70.0057 L1096.76 33.264 L1104.99 33.264 L1104.99 71.0184 Q1104.99 82.8471 1099.11 88.8829 Q1093.28 94.9188 1081.86 94.9188 Q1070.39 94.9188 1064.52 88.8829 Q1058.68 82.8471 1058.68 71.0184 L1058.68 33.264 Z" fill="#000000" fill-rule="evenodd" fill-opacity="1"></path><path clip-path="url(#clip840)" d="M1182.97 35.2489 L1182.97 43.2292 Q1178.31 41.0012 1174.18 39.9075 Q1170.04 38.8137 1166.2 38.8137 Q1159.51 38.8137 1155.87 41.4063 Q1152.26 43.9989 1152.26 48.779 Q1152.26 52.7894 1154.65 54.8553 Q1157.08 56.8808 1163.81 58.1366 L1168.75 59.1493 Q1177.9 60.8912 1182.24 65.3067 Q1186.61 69.6816 1186.61 77.0543 Q1186.61 85.8447 1180.7 90.3817 Q1174.82 94.9188 1163.44 94.9188 Q1159.15 94.9188 1154.29 93.9465 Q1149.47 92.9743 1144.28 91.0704 L1144.28 82.6445 Q1149.26 85.4396 1154.04 86.8575 Q1158.82 88.2753 1163.44 88.2753 Q1170.45 88.2753 1174.26 85.5207 Q1178.07 82.766 1178.07 77.6619 Q1178.07 73.2059 1175.31 70.6944 Q1172.6 68.1828 1166.36 66.927 L1161.38 65.9548 Q1152.22 64.1319 1148.13 60.243 Q1144.04 56.3542 1144.04 49.4271 Q1144.04 41.4063 1149.67 36.7883 Q1155.34 32.1703 1165.26 32.1703 Q1169.52 32.1703 1173.93 32.9399 Q1178.35 33.7096 1182.97 35.2489 Z" fill="#000000" fill-rule="evenodd" fill-opacity="1"></path><path clip-path="url(#clip840)" d="M1216.63 53.5995 Q1210.63 53.5995 1207.15 58.2986 Q1203.67 62.9571 1203.67 71.0994 Q1203.67 79.2418 1207.11 83.9408 Q1210.59 88.5994 1216.63 88.5994 Q1222.58 88.5994 1226.07 83.9003 Q1229.55 79.2013 1229.55 71.0994 Q1229.55 63.0381 1226.07 58.3391 Q1222.58 53.5995 1216.63 53.5995 M1216.63 47.2801 Q1226.35 47.2801 1231.9 53.5995 Q1237.45 59.9189 1237.45 71.0994 Q1237.45 82.2394 1231.9 88.5994 Q1226.35 94.9188 1216.63 94.9188 Q1206.87 94.9188 1201.32 88.5994 Q1195.81 82.2394 1195.81 71.0994 Q1195.81 59.9189 1201.32 53.5995 Q1206.87 47.2801 1216.63 47.2801 Z" fill="#000000" fill-rule="evenodd" fill-opacity="1"></path><path clip-path="url(#clip840)" d="M1249.81 30.7119 L1257.26 30.7119 L1257.26 93.744 L1249.81 93.744 L1249.81 30.7119 Z" fill="#000000" fill-rule="evenodd" fill-opacity="1"></path><path clip-path="url(#clip840)" d="M1267.51 48.3739 L1275.41 48.3739 L1289.59 86.4524 L1303.76 48.3739 L1311.66 48.3739 L1294.65 93.744 L1284.52 93.744 L1267.51 48.3739 Z" fill="#000000" fill-rule="evenodd" fill-opacity="1"></path><path clip-path="url(#clip840)" d="M1360.76 69.1955 L1360.76 72.8413 L1326.49 72.8413 Q1326.98 80.5381 1331.11 84.589 Q1335.28 88.5994 1342.69 88.5994 Q1346.99 88.5994 1351 87.5461 Q1355.05 86.4929 1359.02 84.3864 L1359.02 91.435 Q1355.01 93.1364 1350.8 94.0276 Q1346.58 94.9188 1342.25 94.9188 Q1331.39 94.9188 1325.03 88.5994 Q1318.71 82.2799 1318.71 71.5045 Q1318.71 60.3645 1324.71 53.8426 Q1330.74 47.2801 1340.95 47.2801 Q1350.11 47.2801 1355.41 53.1944 Q1360.76 59.0683 1360.76 69.1955 M1353.31 67.008 Q1353.23 60.8912 1349.86 57.2454 Q1346.54 53.5995 1341.03 53.5995 Q1334.79 53.5995 1331.03 57.1238 Q1327.3 60.6481 1326.73 67.0485 L1353.31 67.008 Z" fill="#000000" fill-rule="evenodd" fill-opacity="1"></path><path clip-path="url(#clip840)" d="M1399.29 55.3414 Q1398.03 54.6123 1396.53 54.2882 Q1395.07 53.9236 1393.29 53.9236 Q1386.97 53.9236 1383.57 58.0555 Q1380.21 62.1469 1380.21 69.8437 L1380.21 93.744 L1372.71 93.744 L1372.71 48.3739 L1380.21 48.3739 L1380.21 55.4224 Q1382.55 51.2905 1386.32 49.3056 Q1390.09 47.2801 1395.48 47.2801 Q1396.25 47.2801 1397.18 47.4017 Q1398.11 47.4827 1399.24 47.6852 L1399.29 55.3414 Z" fill="#000000" fill-rule="evenodd" fill-opacity="1"></path><path clip-path="url(#clip840)" d="M1433.8 33.264 L1472.04 33.264 L1472.04 40.1505 L1441.98 40.1505 L1441.98 58.0555 L1470.78 58.0555 L1470.78 64.9421 L1441.98 64.9421 L1441.98 86.8575 L1472.77 86.8575 L1472.77 93.744 L1433.8 93.744 L1433.8 33.264 Z" fill="#000000" fill-rule="evenodd" fill-opacity="1"></path><path clip-path="url(#clip840)" d="M1512.18 55.3414 Q1510.93 54.6123 1509.43 54.2882 Q1507.97 53.9236 1506.19 53.9236 Q1499.87 53.9236 1496.47 58.0555 Q1493.1 62.1469 1493.1 69.8437 L1493.1 93.744 L1485.61 93.744 L1485.61 48.3739 L1493.1 48.3739 L1493.1 55.4224 Q1495.45 51.2905 1499.22 49.3056 Q1502.99 47.2801 1508.38 47.2801 Q1509.15 47.2801 1510.08 47.4017 Q1511.01 47.4827 1512.14 47.6852 L1512.18 55.3414 Z" fill="#000000" fill-rule="evenodd" fill-opacity="1"></path><path clip-path="url(#clip840)" d="M1544.83 55.3414 Q1543.58 54.6123 1542.08 54.2882 Q1540.62 53.9236 1538.84 53.9236 Q1532.52 53.9236 1529.12 58.0555 Q1525.75 62.1469 1525.75 69.8437 L1525.75 93.744 L1518.26 93.744 L1518.26 48.3739 L1525.75 48.3739 L1525.75 55.4224 Q1528.1 51.2905 1531.87 49.3056 Q1535.64 47.2801 1541.03 47.2801 Q1541.8 47.2801 1542.73 47.4017 Q1543.66 47.4827 1544.79 47.6852 L1544.83 55.3414 Z" fill="#000000" fill-rule="evenodd" fill-opacity="1"></path><path clip-path="url(#clip840)" d="M1568.41 53.5995 Q1562.41 53.5995 1558.93 58.2986 Q1555.45 62.9571 1555.45 71.0994 Q1555.45 79.2418 1558.89 83.9408 Q1562.37 88.5994 1568.41 88.5994 Q1574.37 88.5994 1577.85 83.9003 Q1581.33 79.2013 1581.33 71.0994 Q1581.33 63.0381 1577.85 58.3391 Q1574.37 53.5995 1568.41 53.5995 M1568.41 47.2801 Q1578.13 47.2801 1583.68 53.5995 Q1589.23 59.9189 1589.23 71.0994 Q1589.23 82.2394 1583.68 88.5994 Q1578.13 94.9188 1568.41 94.9188 Q1558.65 94.9188 1553.1 88.5994 Q1547.59 82.2394 1547.59 71.0994 Q1547.59 59.9189 1553.1 53.5995 Q1558.65 47.2801 1568.41 47.2801 Z" fill="#000000" fill-rule="evenodd" fill-opacity="1"></path><path clip-path="url(#clip840)" d="M1627.88 55.3414 Q1626.62 54.6123 1625.12 54.2882 Q1623.66 53.9236 1621.88 53.9236 Q1615.56 53.9236 1612.16 58.0555 Q1608.8 62.1469 1608.8 69.8437 L1608.8 93.744 L1601.3 93.744 L1601.3 48.3739 L1608.8 48.3739 L1608.8 55.4224 Q1611.15 51.2905 1614.91 49.3056 Q1618.68 47.2801 1624.07 47.2801 Q1624.84 47.2801 1625.77 47.4017 Q1626.7 47.4827 1627.84 47.6852 L1627.88 55.3414 Z" fill="#000000" fill-rule="evenodd" fill-opacity="1"></path><path clip-path="url(#clip840)" d="M1010.92 121.432 L1010.92 127.63 L1003.8 127.63 Q999.785 127.63 998.205 129.25 Q996.666 130.871 996.666 135.083 L996.666 139.094 L1008.94 139.094 L1008.94 144.887 L996.666 144.887 L996.666 184.464 L989.171 184.464 L989.171 144.887 L982.042 144.887 L982.042 139.094 L989.171 139.094 L989.171 135.934 Q989.171 128.359 992.696 124.916 Q996.22 121.432 1003.88 121.432 L1010.92 121.432 Z" fill="#000000" fill-rule="evenodd" fill-opacity="1"></path><path clip-path="url(#clip840)" d="M1017.16 139.094 L1024.62 139.094 L1024.62 184.464 L1017.16 184.464 L1017.16 139.094 M1017.16 121.432 L1024.62 121.432 L1024.62 130.871 L1017.16 130.871 L1017.16 121.432 Z" fill="#000000" fill-rule="evenodd" fill-opacity="1"></path><path clip-path="url(#clip840)" d="M1047.59 126.212 L1047.59 139.094 L1062.94 139.094 L1062.94 144.887 L1047.59 144.887 L1047.59 169.516 Q1047.59 175.066 1049.08 176.646 Q1050.62 178.226 1055.28 178.226 L1062.94 178.226 L1062.94 184.464 L1055.28 184.464 Q1046.65 184.464 1043.37 181.264 Q1040.09 178.023 1040.09 169.516 L1040.09 144.887 L1034.62 144.887 L1034.62 139.094 L1040.09 139.094 L1040.09 126.212 L1047.59 126.212 Z" fill="#000000" fill-rule="evenodd" fill-opacity="1"></path><path clip-path="url(#clip840)" d="M1128.04 140.431 L1128.04 147.479 Q1124.88 145.859 1121.47 145.049 Q1118.07 144.239 1114.43 144.239 Q1108.88 144.239 1106.08 145.94 Q1103.33 147.641 1103.33 151.044 Q1103.33 153.637 1105.31 155.135 Q1107.3 156.594 1113.29 157.931 L1115.84 158.498 Q1123.78 160.199 1127.1 163.318 Q1130.47 166.397 1130.47 171.947 Q1130.47 178.266 1125.44 181.952 Q1120.46 185.639 1111.71 185.639 Q1108.07 185.639 1104.1 184.91 Q1100.17 184.221 1095.79 182.803 L1095.79 175.106 Q1099.92 177.253 1103.93 178.347 Q1107.94 179.4 1111.87 179.4 Q1117.14 179.4 1119.98 177.618 Q1122.81 175.795 1122.81 172.514 Q1122.81 169.476 1120.74 167.855 Q1118.72 166.235 1111.79 164.736 L1109.2 164.128 Q1102.27 162.67 1099.19 159.672 Q1096.12 156.634 1096.12 151.368 Q1096.12 144.968 1100.65 141.484 Q1105.19 138 1113.53 138 Q1117.67 138 1121.31 138.608 Q1124.96 139.215 1128.04 140.431 Z" fill="#000000" fill-rule="evenodd" fill-opacity="1"></path><path clip-path="url(#clip840)" d="M1142.34 121.432 L1149.79 121.432 L1149.79 184.464 L1142.34 184.464 L1142.34 121.432 Z" fill="#000000" fill-rule="evenodd" fill-opacity="1"></path><path clip-path="url(#clip840)" d="M1182.97 144.32 Q1176.97 144.32 1173.49 149.019 Q1170 153.677 1170 161.819 Q1170 169.962 1173.45 174.661 Q1176.93 179.319 1182.97 179.319 Q1188.92 179.319 1192.41 174.62 Q1195.89 169.921 1195.89 161.819 Q1195.89 153.758 1192.41 149.059 Q1188.92 144.32 1182.97 144.32 M1182.97 138 Q1192.69 138 1198.24 144.32 Q1203.79 150.639 1203.79 161.819 Q1203.79 172.959 1198.24 179.319 Q1192.69 185.639 1182.97 185.639 Q1173.2 185.639 1167.65 179.319 Q1162.15 172.959 1162.15 161.819 Q1162.15 150.639 1167.65 144.32 Q1173.2 138 1182.97 138 Z" fill="#000000" fill-rule="evenodd" fill-opacity="1"></path><path clip-path="url(#clip840)" d="M1223.35 177.658 L1223.35 201.721 L1215.86 201.721 L1215.86 139.094 L1223.35 139.094 L1223.35 145.98 Q1225.7 141.93 1229.27 139.985 Q1232.87 138 1237.86 138 Q1246.12 138 1251.26 144.563 Q1256.45 151.125 1256.45 161.819 Q1256.45 172.514 1251.26 179.076 Q1246.12 185.639 1237.86 185.639 Q1232.87 185.639 1229.27 183.694 Q1225.7 181.709 1223.35 177.658 M1248.71 161.819 Q1248.71 153.596 1245.31 148.938 Q1241.95 144.239 1236.03 144.239 Q1230.12 144.239 1226.72 148.938 Q1223.35 153.596 1223.35 161.819 Q1223.35 170.043 1226.72 174.742 Q1230.12 179.4 1236.03 179.4 Q1241.95 179.4 1245.31 174.742 Q1248.71 170.043 1248.71 161.819 Z" fill="#000000" fill-rule="evenodd" fill-opacity="1"></path><path clip-path="url(#clip840)" d="M1307.61 159.916 L1307.61 163.561 L1273.34 163.561 Q1273.83 171.258 1277.96 175.309 Q1282.13 179.319 1289.55 179.319 Q1293.84 179.319 1297.85 178.266 Q1301.9 177.213 1305.87 175.106 L1305.87 182.155 Q1301.86 183.856 1297.65 184.748 Q1293.43 185.639 1289.1 185.639 Q1278.24 185.639 1271.88 179.319 Q1265.56 173 1265.56 162.225 Q1265.56 151.085 1271.56 144.563 Q1277.6 138 1287.8 138 Q1296.96 138 1302.27 143.914 Q1307.61 149.788 1307.61 159.916 M1300.16 157.728 Q1300.08 151.611 1296.72 147.965 Q1293.39 144.32 1287.89 144.32 Q1281.65 144.32 1277.88 147.844 Q1274.15 151.368 1273.59 157.769 L1300.16 157.728 Z" fill="#000000" fill-rule="evenodd" fill-opacity="1"></path><path clip-path="url(#clip840)" d="M1347.19 146.791 L1399.12 146.791 L1399.12 153.596 L1347.19 153.596 L1347.19 146.791 M1347.19 163.318 L1399.12 163.318 L1399.12 170.205 L1347.19 170.205 L1347.19 163.318 Z" fill="#000000" fill-rule="evenodd" fill-opacity="1"></path><path clip-path="url(#clip840)" d="M1465.64 131.114 L1444.98 163.399 L1465.64 163.399 L1465.64 131.114 M1463.49 123.984 L1473.78 123.984 L1473.78 163.399 L1482.41 163.399 L1482.41 170.205 L1473.78 170.205 L1473.78 184.464 L1465.64 184.464 L1465.64 170.205 L1438.34 170.205 L1438.34 162.306 L1463.49 123.984 Z" fill="#000000" fill-rule="evenodd" fill-opacity="1"></path><path clip-path="url(#clip840)" d="M1495.94 174.175 L1504.49 174.175 L1504.49 184.464 L1495.94 184.464 L1495.94 174.175 Z" fill="#000000" fill-rule="evenodd" fill-opacity="1"></path><path clip-path="url(#clip840)" d="M1523.73 177.577 L1537.1 177.577 L1537.1 131.438 L1522.55 134.354 L1522.55 126.901 L1537.02 123.984 L1545.2 123.984 L1545.2 177.577 L1558.57 177.577 L1558.57 184.464 L1523.73 184.464 L1523.73 177.577 Z" fill="#000000" fill-rule="evenodd" fill-opacity="1"></path><path clip-path="url(#clip840)" d="M1592.59 155.743 Q1586.76 155.743 1583.4 158.862 Q1580.08 161.981 1580.08 167.45 Q1580.08 172.919 1583.4 176.038 Q1586.76 179.157 1592.59 179.157 Q1598.43 179.157 1601.79 176.038 Q1605.15 172.878 1605.15 167.45 Q1605.15 161.981 1601.79 158.862 Q1598.47 155.743 1592.59 155.743 M1584.41 152.259 Q1579.15 150.963 1576.19 147.358 Q1573.27 143.752 1573.27 138.567 Q1573.27 131.316 1578.42 127.103 Q1583.6 122.89 1592.59 122.89 Q1601.63 122.89 1606.77 127.103 Q1611.92 131.316 1611.92 138.567 Q1611.92 143.752 1608.96 147.358 Q1606.04 150.963 1600.82 152.259 Q1606.73 153.637 1610.01 157.647 Q1613.33 161.657 1613.33 167.45 Q1613.33 176.241 1607.95 180.94 Q1602.6 185.639 1592.59 185.639 Q1582.59 185.639 1577.2 180.94 Q1571.85 176.241 1571.85 167.45 Q1571.85 161.657 1575.18 157.647 Q1578.5 153.637 1584.41 152.259 M1581.41 139.337 Q1581.41 144.036 1584.33 146.669 Q1587.29 149.302 1592.59 149.302 Q1597.86 149.302 1600.82 146.669 Q1603.82 144.036 1603.82 139.337 Q1603.82 134.638 1600.82 132.005 Q1597.86 129.372 1592.59 129.372 Q1587.29 129.372 1584.33 132.005 Q1581.41 134.638 1581.41 139.337 Z" fill="#000000" fill-rule="evenodd" fill-opacity="1"></path><circle clip-path="url(#clip842)" cx="302.342" cy="1363" r="14.4" fill="#009af9" fill-rule="evenodd" fill-opacity="1" stroke="#000000" stroke-opacity="1" stroke-width="3.2"></circle>
<circle clip-path="url(#clip842)" cx="505.512" cy="1173.84" r="14.4" fill="#009af9" fill-rule="evenodd" fill-opacity="1" stroke="#000000" stroke-opacity="1" stroke-width="3.2"></circle>
<circle clip-path="url(#clip842)" cx="731.698" cy="1196.05" r="14.4" fill="#009af9" fill-rule="evenodd" fill-opacity="1" stroke="#000000" stroke-opacity="1" stroke-width="3.2"></circle>
<circle clip-path="url(#clip842)" cx="962.015" cy="1064.05" r="14.4" fill="#009af9" fill-rule="evenodd" fill-opacity="1" stroke="#000000" stroke-opacity="1" stroke-width="3.2"></circle>
<circle clip-path="url(#clip842)" cx="1184.71" cy="930.133" r="14.4" fill="#009af9" fill-rule="evenodd" fill-opacity="1" stroke="#000000" stroke-opacity="1" stroke-width="3.2"></circle>
<circle clip-path="url(#clip842)" cx="1407.76" cy="855.318" r="14.4" fill="#009af9" fill-rule="evenodd" fill-opacity="1" stroke="#000000" stroke-opacity="1" stroke-width="3.2"></circle>
<circle clip-path="url(#clip842)" cx="1628.58" cy="661.472" r="14.4" fill="#009af9" fill-rule="evenodd" fill-opacity="1" stroke="#000000" stroke-opacity="1" stroke-width="3.2"></circle>
<circle clip-path="url(#clip842)" cx="1850.2" cy="465.051" r="14.4" fill="#009af9" fill-rule="evenodd" fill-opacity="1" stroke="#000000" stroke-opacity="1" stroke-width="3.2"></circle>
<circle clip-path="url(#clip842)" cx="2071.5" cy="426.899" r="14.4" fill="#009af9" fill-rule="evenodd" fill-opacity="1" stroke="#000000" stroke-opacity="1" stroke-width="3.2"></circle>
<circle clip-path="url(#clip842)" cx="2293.04" cy="219.025" r="14.4" fill="#009af9" fill-rule="evenodd" fill-opacity="1" stroke="#000000" stroke-opacity="1" stroke-width="3.2"></circle>
<polyline clip-path="url(#clip842)" style="stroke:#e26f46; stroke-linecap:round; stroke-linejoin:round; stroke-width:4; stroke-opacity:1; fill:none" points="
  302.342,1388.11 505.512,1274.86 731.698,1148.78 962.015,1020.39 1184.71,896.259 1407.76,771.923 1628.58,648.835 1850.2,525.3 2071.5,401.944 2293.04,278.454 
  
  "></polyline>
</svg>